<?xml version="1.0" standalone="yes"?>

<svg version="1.1" viewBox="0.0 0.0 384.0 192.0" fill="none" stroke="none" stroke-linecap="square" stroke-miterlimit="10" xmlns="http://www.w3.org/2000/svg" xmlns:xlink="http://www.w3.org/1999/xlink"><clipPath id="p.0"><path d="m0 0l384.0 0l0 192.0l-384.0 0l0 -192.0z" clip-rule="nonzero"></path></clipPath><g clip-path="url(#p.0)"><path fill="#000000" fill-opacity="0.0" d="m0 0l384.0 0l0 192.0l-384.0 0z" fill-rule="nonzero"></path><path fill="#d9d2e9" d="m0.2992126 0l90.456696 0l0 192.0l-90.456696 0z" fill-rule="nonzero"></path><path stroke="#b7b7b7" stroke-width="1.0" stroke-linejoin="round" stroke-linecap="butt" d="m0.2992126 0l90.456696 0l0 192.0l-90.456696 0z" fill-rule="nonzero"></path><path fill="#000000" d="m14.316623 17.895l-0.078125 -0.140625q0.078125 -0.3125 0.1875 -0.671875q0.125 -0.359375 0.25 -0.71875q0.140625 -0.359375 0.28125 -0.71875q0.15625 -0.359375 0.3125 -0.6875l1.281251 0q-0.09375 0.359375 -0.1875 0.75q-0.078125 0.375 -0.15625 0.765625q-0.078125 0.375 -0.140625 0.75q-0.0625 0.359375 -0.10937595 0.671875l-1.640625 0zm2.953126 8.515625q-0.28125 0 -0.578125 -0.046875q-0.296875 -0.046875 -0.5 -0.109375l0 -1.40625q0.1875 0.0625 0.34375 0.078125q0.15625 0.03125 0.359375 0.03125q0.140625 0 0.265625 -0.046875q0.140625 -0.03125 0.234375 -0.15625q0.109375 -0.109375 0.15625 -0.296875q0.0625 -0.1875 0.0625 -0.484375l0 -7.0l1.78125 0l0 7.25q0 0.453125 -0.109375 0.84375q-0.109375 0.40625 -0.375 0.703125q-0.25 0.296875 -0.65625 0.46875q-0.40625 0.171875 -0.984375 0.171875zm0.265625 -11.140625q0 -0.25 0.078125 -0.40625q0.078125 -0.171875 0.203125 -0.265625q0.140625 -0.109375 0.3125 -0.15625q0.1875 -0.046875 0.375 -0.046875q0.203125 0 0.375 0.046875q0.1875 0.046875 0.3125 0.15625q0.140625 0.09375 0.21875 0.265625q0.078125 0.15625 0.078125 0.40625q0 0.25 -0.078125 0.421875q-0.078125 0.171875 -0.21875 0.28125q-0.125 0.09375 -0.3125 0.140625q-0.171875 0.046875 -0.375 0.046875q-0.1875 0 -0.375 -0.046875q-0.171875 -0.046875 -0.3125 -0.140625q-0.125 -0.109375 -0.203125 -0.28125q-0.078125 -0.171875 -0.078125 -0.421875zm5.2246094 4.96875q0 0.96875 0.28125 1.46875q0.28125 0.5 0.890625 0.5q0.625 0 0.890625 -0.5q0.28125 -0.5 0.28125 -1.46875q0 -0.984375 -0.28125 -1.46875q-0.265625 -0.484375 -0.890625 -0.484375q-0.625 0 -0.90625 0.484375q-0.265625 0.484375 -0.265625 1.46875zm4.171875 0q0 0.8125 -0.21875 1.453125q-0.203125 0.625 -0.59375 1.0625q-0.390625 0.4375 -0.953125 0.671875q-0.5625 0.21875 -1.25 0.21875q-0.65625 0 -1.203125 -0.21875q-0.546875 -0.234375 -0.9375 -0.671875q-0.390625 -0.4375 -0.625 -1.0625q-0.21875 -0.640625 -0.21875 -1.453125q0 -0.828125 0.203125 -1.453125q0.21875 -0.640625 0.609375 -1.0625q0.390625 -0.4375 0.9375 -0.65625q0.5625 -0.21875 1.265625 -0.21875q0.65625 0 1.1875 0.21875q0.546875 0.21875 0.9375 0.65625q0.40625 0.421875 0.625 1.0625q0.234375 0.625 0.234375 1.453125zm5.033203 -3.390625q0.5 0 0.90625 0.21875q0.421875 0.21875 0.71875 0.640625q0.296875 0.421875 0.46875 1.0625q0.171875 0.625 0.171875 1.46875q0 0.84375 -0.171875 1.484375q-0.171875 0.625 -0.484375 1.0625q-0.296875 0.421875 -0.71875 0.640625q-0.421875 0.21875 -0.9375 0.21875q-0.328125 0 -0.59375 -0.078125q-0.25 -0.078125 -0.453125 -0.1875q-0.203125 -0.125 -0.359375 -0.265625q-0.140625 -0.15625 -0.265625 -0.3125l-0.109375 0l-0.3125 0.71875l-1.359375 0l0 -9.125l1.78125 0l0 2.125q0 0.203125 -0.015625 0.421875q0 0.21875 -0.015625 0.421875q-0.015625 0.21875 -0.03125 0.453125l0.0625 0q0.125 -0.203125 0.28125 -0.375q0.171875 -0.1875 0.375 -0.3125q0.203125 -0.125 0.46875 -0.203125q0.265625 -0.078125 0.59375 -0.078125zm-0.609375 1.421875q-0.296875 0 -0.515625 0.109375q-0.203125 0.109375 -0.328125 0.328125q-0.125 0.21875 -0.1875 0.546875q-0.0625 0.328125 -0.078125 0.765625l0 0.203125q0 0.46875 0.0625 0.84375q0.0625 0.359375 0.1875 0.609375q0.125 0.25 0.328125 0.390625q0.21875 0.125 0.546875 0.125q0.53125 0 0.78125 -0.5q0.25 -0.515625 0.25 -1.484375q0 -0.96875 -0.25 -1.453125q-0.25 -0.484375 -0.796875 -0.484375zm8.763672 3.296875q0 0.515625 -0.1875 0.90625q-0.1875 0.390625 -0.53125 0.65625q-0.34375 0.25 -0.84375 0.390625q-0.484375 0.125 -1.09375 0.125q-0.3125 0 -0.59375 -0.03125q-0.28125 -0.015625 -0.53125 -0.0625q-0.234375 -0.046875 -0.46875 -0.109375q-0.21875 -0.078125 -0.453125 -0.1875l0 -1.46875q0.234375 0.109375 0.5 0.21875q0.28125 0.09375 0.546875 0.171875q0.28125 0.078125 0.53125 0.125q0.25 0.03125 0.46875 0.03125q0.25 0 0.40625 -0.046875q0.171875 -0.046875 0.28125 -0.125q0.109375 -0.078125 0.15625 -0.1875q0.0625 -0.109375 0.0625 -0.234375q0 -0.125 -0.046875 -0.21875q-0.03125 -0.09375 -0.171875 -0.203125q-0.140625 -0.109375 -0.40625 -0.234375q-0.25 -0.140625 -0.6875 -0.34375q-0.421875 -0.203125 -0.75 -0.390625q-0.3125 -0.1875 -0.515625 -0.421875q-0.1875 -0.234375 -0.296875 -0.53125q-0.09375 -0.3125 -0.09375 -0.71875q0 -0.453125 0.171875 -0.796875q0.171875 -0.34375 0.5 -0.578125q0.328125 -0.234375 0.78125 -0.34375q0.453125 -0.109375 1.0 -0.109375q0.59375 0 1.109375 0.140625q0.53125 0.125 1.09375 0.390625l-0.546875 1.265625q-0.4375 -0.203125 -0.84375 -0.328125q-0.40625 -0.140625 -0.8125 -0.140625q-0.359375 0 -0.53125 0.125q-0.15625 0.125 -0.15625 0.34375q0 0.125 0.046875 0.21875q0.046875 0.078125 0.15625 0.1875q0.125 0.09375 0.34375 0.203125q0.234375 0.109375 0.59375 0.28125q0.40625 0.1875 0.734375 0.359375q0.34375 0.171875 0.578125 0.40625q0.25 0.234375 0.375 0.546875q0.125 0.296875 0.125 0.71875zm2.8339844 -6.609375l0.09375 0.125q-0.078125 0.328125 -0.203125 0.6875q-0.109375 0.34375 -0.25 0.71875q-0.140625 0.359375 -0.296875 0.71875q-0.140625 0.359375 -0.28125 0.6875l-1.28125 0q0.078125 -0.359375 0.15625 -0.734375q0.09375 -0.390625 0.171875 -0.78125q0.078125 -0.390625 0.140625 -0.75q0.0625 -0.359375 0.109375 -0.671875l1.640625 0zm8.0703125 8.5625l-0.34375 -0.890625l-0.046875 0q-0.1875 0.265625 -0.390625 0.453125q-0.1875 0.1875 -0.421875 0.3125q-0.21875 0.125 -0.515625 0.1875q-0.28125 0.0625 -0.65625 0.0625q-0.390625 0 -0.734375 -0.125q-0.34375 -0.140625 -0.59375 -0.390625q-0.25 -0.25 -0.390625 -0.640625q-0.140625 -0.390625 -0.140625 -0.921875q0 -1.046875 0.671875 -1.53125q0.671875 -0.5 2.0 -0.5625l1.046875 -0.03125l0 -0.5q0 -0.390625 -0.234375 -0.578125q-0.234375 -0.203125 -0.65625 -0.203125q-0.421875 0 -0.828125 0.125q-0.40625 0.125 -0.8125 0.328125l-0.578125 -1.1875q0.5 -0.28125 1.09375 -0.4375q0.59375 -0.15625 1.25 -0.15625q1.234375 0 1.875 0.578125q0.65625 0.578125 0.65625 1.75l0 4.359375l-1.25 0zm-0.515625 -3.03125l-0.59375 0.015625q-0.359375 0.015625 -0.609375 0.09375q-0.25 0.078125 -0.40625 0.21875q-0.140625 0.140625 -0.203125 0.328125q-0.0625 0.1875 -0.0625 0.421875q0 0.421875 0.1875 0.59375q0.203125 0.171875 0.53125 0.171875q0.25 0 0.453125 -0.078125q0.21875 -0.09375 0.359375 -0.25q0.15625 -0.171875 0.25 -0.421875q0.09375 -0.25 0.09375 -0.5625l0 -0.53125zm7.03125 -3.640625q0.0625 0 0.140625 0q0.09375 0 0.171875 0.015625q0.078125 0 0.140625 0.015625q0.078125 0 0.109375 0.015625l0 1.671875q-0.046875 0 -0.125 -0.015625q-0.078125 -0.015625 -0.171875 -0.015625q-0.09375 -0.015625 -0.1875 -0.015625q-0.078125 0 -0.140625 0q-0.34375 0 -0.640625 0.09375q-0.28125 0.078125 -0.5 0.28125q-0.203125 0.1875 -0.328125 0.515625q-0.109375 0.3125 -0.109375 0.78125l0 3.328125l-1.78125 0l0 -6.546875l1.359375 0l0.265625 0.984375l0.078125 0q0.140625 -0.25 0.296875 -0.453125q0.171875 -0.21875 0.375 -0.359375q0.203125 -0.140625 0.453125 -0.21875q0.265625 -0.078125 0.59375 -0.078125zm5.2089844 0q0.0625 0 0.140625 0q0.09375 0 0.171875 0.015625q0.078125 0 0.140625 0.015625q0.078125 0 0.109375 0.015625l0 1.671875q-0.046875 0 -0.125 -0.015625q-0.078125 -0.015625 -0.171875 -0.015625q-0.09375 -0.015625 -0.1875 -0.015625q-0.078125 0 -0.140625 0q-0.34375 0 -0.640625 0.09375q-0.28125 0.078125 -0.5 0.28125q-0.203125 0.1875 -0.328125 0.515625q-0.109375 0.3125 -0.109375 0.78125l0 3.328125l-1.78125 0l0 -6.546875l1.359375 0l0.265625 0.984375l0.078125 0q0.140625 -0.25 0.296875 -0.453125q0.171875 -0.21875 0.375 -0.359375q0.203125 -0.140625 0.453125 -0.21875q0.265625 -0.078125 0.59375 -0.078125zm5.5839806 6.671875l-0.34375 -0.890625l-0.046875 0q-0.1875 0.265625 -0.390625 0.453125q-0.1875 0.1875 -0.421875 0.3125q-0.21875 0.125 -0.515625 0.1875q-0.28125 0.0625 -0.65625 0.0625q-0.390625 0 -0.734375 -0.125q-0.34375 -0.140625 -0.59375 -0.390625q-0.25 -0.25 -0.390625 -0.640625q-0.140625 -0.390625 -0.140625 -0.921875q0 -1.046875 0.671875 -1.53125q0.671875 -0.5 2.0 -0.5625l1.046875 -0.03125l0 -0.5q0 -0.390625 -0.234375 -0.578125q-0.234375 -0.203125 -0.65625 -0.203125q-0.421875 0 -0.828125 0.125q-0.40625 0.125 -0.8125 0.328125l-0.578125 -1.1875q0.5 -0.28125 1.09375 -0.4375q0.59375 -0.15625 1.25 -0.15625q1.234375 0 1.875 0.578125q0.65625 0.578125 0.65625 1.75l0 4.359375l-1.25 0zm-0.515625 -3.03125l-0.59375 0.015625q-0.359375 0.015625 -0.609375 0.09375q-0.25 0.078125 -0.40625 0.21875q-0.140625 0.140625 -0.203125 0.328125q-0.0625 0.1875 -0.0625 0.421875q0 0.421875 0.1875 0.59375q0.203125 0.171875 0.53125 0.171875q0.25 0 0.453125 -0.078125q0.21875 -0.09375 0.359375 -0.25q0.15625 -0.171875 0.25 -0.421875q0.09375 -0.25 0.09375 -0.5625l0 -0.53125zm2.671875 -3.515625l1.953125 0l1.0625 3.6875q0.09375 0.296875 0.125 0.640625q0.046875 0.34375 0.0625 0.625l0.03125 0q0.015625 -0.140625 0.03125 -0.296875q0.03125 -0.171875 0.0625 -0.328125q0.03125 -0.171875 0.0625 -0.34375q0.03125 -0.171875 0.078125 -0.296875l1.03125 -3.6875l1.96875 0l-2.59375 7.390625q-0.359375 1.03125 -0.984375 1.53125q-0.625 0.515625 -1.578125 0.515625q-0.296875 0 -0.53125 -0.046875q-0.21875 -0.03125 -0.375 -0.0625l0 -1.421875q0.125 0.03125 0.3125 0.046875q0.1875 0.03125 0.390625 0.03125q0.28125 0 0.484375 -0.078125q0.203125 -0.0625 0.34375 -0.203125q0.140625 -0.140625 0.234375 -0.34375q0.109375 -0.1875 0.1875 -0.421875l0.109375 -0.328125l-2.46875 -6.609375z" fill-rule="nonzero"></path><path fill="#674ea7" d="m15.291339 42.123486l0 0c0 -3.4761314 2.8179598 -6.2940903 6.2940893 -6.2940903l47.884262 0c1.6692963 0 3.2702255 0.6631279 4.450592 1.8434982c1.1803741 1.1803703 1.8434982 2.7812958 1.8434982 4.450592l0 25.175602c0 3.4761276 -2.8179626 6.2940903 -6.2940903 6.2940903l-47.884262 0c-3.4761295 0 -6.2940893 -2.8179626 -6.2940893 -6.2940903z" fill-rule="nonzero"></path><path stroke="#b7b7b7" stroke-width="1.0" stroke-linejoin="round" stroke-linecap="butt" stroke-dasharray="8.0,3.0" d="m15.291339 42.123486l0 0c0 -3.4761314 2.8179598 -6.2940903 6.2940893 -6.2940903l47.884262 0c1.6692963 0 3.2702255 0.6631279 4.450592 1.8434982c1.1803741 1.1803703 1.8434982 2.7812958 1.8434982 4.450592l0 25.175602c0 3.4761276 -2.8179626 6.2940903 -6.2940903 6.2940903l-47.884262 0c-3.4761295 0 -6.2940893 -2.8179626 -6.2940893 -6.2940903z" fill-rule="nonzero"></path><path fill="#ffffff" d="m26.038614 58.451286l-4.078125 0l0 -7.859375l4.078125 0l0 0.890625l-3.078125 0l0 2.421875l2.875 0l0 0.875l-2.875 0l0 2.796875l3.078125 0l0 0.875zm2.390335 0l-0.96875 0l0 -8.359375l0.96875 0l0 8.359375zm4.117094 0.109375q-0.5937481 0 -1.0781231 -0.203125q-0.484375 -0.203125 -0.84375 -0.578125q-0.34375 -0.375 -0.546875 -0.9375q-0.1875 -0.578125 -0.1875 -1.296875q0 -0.734375 0.171875 -1.296875q0.1875 -0.578125 0.5 -0.984375q0.328125 -0.40625 0.765625 -0.609375q0.453125 -0.203125 0.9999981 -0.203125q0.53125 0 0.953125 0.1875q0.421875 0.1875 0.71875 0.53125q0.296875 0.34375 0.453125 0.84375q0.15625 0.484375 0.15625 1.0625l0 0.609375l-3.718748 0q0.03125 1.046875 0.4375 1.53125q0.421875 0.484375 1.2343731 0.484375q0.265625 0 0.5 -0.015625q0.234375 -0.03125 0.453125 -0.078125q0.21875 -0.0625 0.421875 -0.140625q0.203125 -0.078125 0.421875 -0.171875l0 0.875q-0.21875 0.09375 -0.4375 0.171875q-0.203125 0.078125 -0.421875 0.125q-0.21875 0.046875 -0.453125 0.0625q-0.21875 0.03125 -0.5 0.03125zm-0.234375 -5.296875q-0.6249981 0 -0.9843731 0.421875q-0.34375 0.40625 -0.40625 1.203125l2.640623 0q0 -0.359375 -0.078125 -0.65625q-0.0625 -0.3125 -0.21875 -0.515625q-0.15625 -0.21875 -0.390625 -0.328125q-0.234375 -0.125 -0.5625 -0.125zm5.859009 5.296875q-0.546875 0 -1.015625 -0.171875q-0.46875 -0.171875 -0.828125 -0.53125q-0.34375 -0.375 -0.546875 -0.9375q-0.1875 -0.578125 -0.1875 -1.390625q0 -0.84375 0.203125 -1.421875q0.203125 -0.59375 0.5625 -0.953125q0.359375 -0.375 0.828125 -0.53125q0.484375 -0.171875 1.03125 -0.171875q0.421875 0 0.8125 0.09375q0.40625 0.078125 0.671875 0.21875l-0.28125 0.828125q-0.125 -0.0625 -0.28125 -0.109375q-0.15625 -0.046875 -0.3125 -0.078125q-0.15625 -0.046875 -0.3125 -0.0625q-0.15625 -0.03125 -0.296875 -0.03125q-0.84375 0 -1.234375 0.546875q-0.390625 0.53125 -0.390625 1.671875q0 1.125 0.390625 1.65625q0.390625 0.515625 1.1875 0.515625q0.4375 0 0.78125 -0.09375q0.359375 -0.109375 0.65625 -0.234375l0 0.875q-0.296875 0.15625 -0.625 0.234375q-0.328125 0.078125 -0.8125 0.078125zm4.463928 -0.796875q0.09375 0 0.21875 -0.015625q0.125 -0.015625 0.234375 -0.03125q0.109375 -0.015625 0.203125 -0.03125q0.09375 -0.03125 0.140625 -0.046875l0 0.75q-0.0625 0.03125 -0.171875 0.0625q-0.109375 0.03125 -0.25 0.046875q-0.125 0.03125 -0.265625 0.046875q-0.125 0.015625 -0.265625 0.015625q-0.328125 0 -0.625 -0.09375q-0.28125 -0.078125 -0.484375 -0.28125q-0.203125 -0.21875 -0.328125 -0.578125q-0.109375 -0.359375 -0.109375 -0.890625l0 -3.421875l-0.84375 0l0 -0.4375l0.84375 -0.421875l0.40625 -1.234375l0.578125 0l0 1.359375l1.46875 0l0 0.734375l-1.46875 0l0 3.421875q0 0.515625 0.15625 0.78125q0.171875 0.265625 0.5625 0.265625zm4.3766785 -5.3125q0.15625 0 0.34375 0.015625q0.203125 0 0.34375 0.03125l-0.125 0.90625q-0.15625 -0.03125 -0.3125 -0.046875q-0.15625 -0.015625 -0.296875 -0.015625q-0.34375 0 -0.625 0.140625q-0.28125 0.125 -0.484375 0.390625q-0.203125 0.25 -0.3125 0.609375q-0.109375 0.359375 -0.109375 0.78125l0 3.1875l-0.96875 0l0 -5.890625l0.796875 0l0.109375 1.078125l0.046875 0q0.140625 -0.234375 0.28125 -0.453125q0.15625 -0.21875 0.34375 -0.375q0.203125 -0.171875 0.4375 -0.265625q0.234375 -0.09375 0.53125 -0.09375zm2.6729317 6.0l-0.9687538 0l0 -5.890625l0.9687538 0l0 5.890625zm-1.0468788 -7.5q0 -0.3125 0.15625 -0.453125q0.171875 -0.15625 0.4062538 -0.15625q0.125 0 0.21875 0.046875q0.109375 0.03125 0.1875 0.109375q0.078125 0.0625 0.125 0.1875q0.046875 0.109375 0.046875 0.265625q0 0.3125 -0.171875 0.46875q-0.15625 0.15625 -0.40625 0.15625q-0.23437881 0 -0.4062538 -0.140625q-0.15625 -0.15625 -0.15625 -0.484375zm5.08585 7.609375q-0.546875 0 -1.015625 -0.171875q-0.46875 -0.171875 -0.828125 -0.53125q-0.34375 -0.375 -0.546875 -0.9375q-0.1875 -0.578125 -0.1875 -1.390625q0 -0.84375 0.203125 -1.421875q0.203125 -0.59375 0.5625 -0.953125q0.359375 -0.375 0.828125 -0.53125q0.484375 -0.171875 1.03125 -0.171875q0.421875 0 0.8125 0.09375q0.40625 0.078125 0.671875 0.21875l-0.28125 0.828125q-0.125 -0.0625 -0.28125 -0.109375q-0.15625 -0.046875 -0.3125 -0.078125q-0.15625 -0.046875 -0.3125 -0.0625q-0.15625 -0.03125 -0.296875 -0.03125q-0.84375 0 -1.234375 0.546875q-0.390625 0.53125 -0.390625 1.671875q0 1.125 0.390625 1.65625q0.390625 0.515625 1.1875 0.515625q0.4375 0 0.78125 -0.09375q0.359375 -0.109375 0.65625 -0.234375l0 0.875q-0.296875 0.15625 -0.625 0.234375q-0.328125 0.078125 -0.8125 0.078125zm3.6514282 -0.109375l-0.96875 0l0 -5.890625l0.96875 0l0 5.890625zm-1.046875 -7.5q0 -0.3125 0.15625 -0.453125q0.171875 -0.15625 0.40625 -0.15625q0.125 0 0.21875 0.046875q0.109375 0.03125 0.1875 0.109375q0.078125 0.0625 0.125 0.1875q0.046875 0.109375 0.046875 0.265625q0 0.3125 -0.171875 0.46875q-0.15625 0.15625 -0.40625 0.15625q-0.234375 0 -0.40625 -0.140625q-0.15625 -0.15625 -0.15625 -0.484375zm6.163971 7.5l-0.203125 -0.8125l-0.046875 0q-0.171875 0.234375 -0.359375 0.421875q-0.171875 0.171875 -0.390625 0.28125q-0.203125 0.109375 -0.46875 0.15625q-0.25 0.0625 -0.578125 0.0625q-0.375 0 -0.6875 -0.109375q-0.3125 -0.109375 -0.546875 -0.3125q-0.21875 -0.21875 -0.359375 -0.546875q-0.125 -0.34375 -0.125 -0.796875q0 -0.875 0.625 -1.34375q0.625 -0.46875 1.890625 -0.515625l0.984375 -0.046875l0 -0.359375q0 -0.359375 -0.078125 -0.59375q-0.078125 -0.25 -0.234375 -0.390625q-0.140625 -0.15625 -0.359375 -0.21875q-0.21875 -0.0625 -0.484375 -0.0625q-0.453125 0 -0.84375 0.125q-0.375 0.125 -0.734375 0.3125l-0.34375 -0.734375q0.40625 -0.21875 0.890625 -0.359375q0.484375 -0.15625 1.03125 -0.15625q0.546875 0 0.9375 0.109375q0.40625 0.109375 0.65625 0.34375q0.265625 0.234375 0.390625 0.609375q0.140625 0.375 0.140625 0.890625l0 4.046875l-0.703125 0zm-1.796875 -0.6875q0.328125 0 0.609375 -0.09375q0.28125 -0.109375 0.484375 -0.3125q0.203125 -0.203125 0.3125 -0.515625q0.109375 -0.3125 0.109375 -0.75l0 -0.53125l-0.765625 0.046875q-0.484375 0.015625 -0.8125 0.109375q-0.328125 0.078125 -0.53125 0.234375q-0.1875 0.15625 -0.28125 0.375q-0.078125 0.21875 -0.078125 0.484375q0 0.5 0.265625 0.734375q0.265625 0.21875 0.6875 0.21875zm7.8121758 0.6875l0 -3.796875q0 -0.703125 -0.28125 -1.046875q-0.28125 -0.34375 -0.890625 -0.34375q-0.4375 0 -0.734375 0.140625q-0.296875 0.125 -0.484375 0.40625q-0.171875 0.28125 -0.25 0.671875q-0.078125 0.390625 -0.078125 0.90625l0 3.0625l-0.96875 0l0 -5.890625l0.796875 0l0.140625 0.78125l0.046875 0q0.140625 -0.21875 0.3125 -0.390625q0.1875 -0.171875 0.40625 -0.28125q0.234375 -0.109375 0.46875 -0.15625q0.25 -0.0625 0.515625 -0.0625q0.984375 0 1.46875 0.515625q0.5 0.5 0.5 1.640625l0 3.84375l-0.96875 0z" fill-rule="nonzero"></path><path fill="#674ea7" d="m15.291339 91.81115l0 0c0 -3.4761276 2.8179598 -6.2940903 6.2940893 -6.2940903l47.884262 0c1.6692963 0 3.2702255 0.6631241 4.450592 1.8434982c1.1803741 1.1803665 1.8434982 2.7812958 1.8434982 4.450592l0 25.175598c0 3.4761353 -2.8179626 6.2940903 -6.2940903 6.2940903l-47.884262 0c-3.4761295 0 -6.2940893 -2.817955 -6.2940893 -6.2940903z" fill-rule="nonzero"></path><path stroke="#b7b7b7" stroke-width="1.0" stroke-linejoin="round" stroke-linecap="butt" stroke-dasharray="8.0,3.0" d="m15.291339 91.81115l0 0c0 -3.4761276 2.8179598 -6.2940903 6.2940893 -6.2940903l47.884262 0c1.6692963 0 3.2702255 0.6631241 4.450592 1.8434982c1.1803741 1.1803665 1.8434982 2.7812958 1.8434982 4.450592l0 25.175598c0 3.4761353 -2.8179626 6.2940903 -6.2940903 6.2940903l-47.884262 0c-3.4761295 0 -6.2940893 -2.817955 -6.2940893 -6.2940903z" fill-rule="nonzero"></path><path fill="#ffffff" d="m27.934275 104.13895q0 0.984375 -0.265625 1.734375q-0.25 0.75 -0.75 1.265625q-0.484375 0.5 -1.203125 0.75q-0.703125 0.25 -1.609375 0.25l-1.96875 0l0 -7.859375l2.1875 0q0.828125 0 1.484375 0.25q0.671875 0.25 1.140625 0.734375q0.46875 0.484375 0.71875 1.203125q0.265625 0.71875 0.265625 1.671875zm-1.0625 0.03125q0 -0.78125 -0.1875 -1.34375q-0.171875 -0.578125 -0.515625 -0.953125q-0.328125 -0.375 -0.828125 -0.546875q-0.484375 -0.1875 -1.125 -0.1875l-1.078125 0l0 6.140625l0.875 0q1.421875 0 2.140625 -0.78125q0.71875 -0.78125 0.71875 -2.328125zm4.758499 4.078125q-0.59375 0 -1.078125 -0.203125q-0.484375 -0.203125 -0.84375 -0.578125q-0.34375 -0.375 -0.546875 -0.9375q-0.1875 -0.578125 -0.1875 -1.296875q0 -0.734375 0.171875 -1.296875q0.1875 -0.578125 0.5 -0.984375q0.328125 -0.40625 0.765625 -0.609375q0.453125 -0.203125 1.0 -0.203125q0.53125 0 0.9531231 0.1875q0.421875 0.1875 0.71875 0.53125q0.296875 0.34375 0.453125 0.84375q0.15625 0.484375 0.15625 1.0625l0 0.609375l-3.718748 0q0.03125 1.046875 0.4375 1.53125q0.421875 0.484375 1.234375 0.484375q0.265625 0 0.4999981 -0.015625q0.234375 -0.03125 0.453125 -0.078125q0.21875 -0.0625 0.421875 -0.140625q0.203125 -0.078125 0.421875 -0.171875l0 0.875q-0.21875 0.09375 -0.4375 0.171875q-0.203125 0.078125 -0.421875 0.125q-0.21875 0.046875 -0.453125 0.0625q-0.2187481 0.03125 -0.4999981 0.03125zm-0.234375 -5.296875q-0.625 0 -0.984375 0.421875q-0.34375 0.40625 -0.40625 1.203125l2.640623 0q0 -0.359375 -0.078125 -0.65625q-0.0625 -0.3125 -0.21875 -0.515625q-0.15625 -0.21875 -0.3906231 -0.328125q-0.234375 -0.125 -0.5625 -0.125zm4.687132 5.1875l-2.015625 -5.890625l1.015625 0l1.0625 3.28125q0.0625 0.171875 0.140625 0.453125q0.078125 0.28125 0.15625 0.578125q0.078125 0.28125 0.140625 0.546875q0.078125 0.25 0.09375 0.375l0.046875 0q0.03125 -0.125 0.09375 -0.375q0.0625 -0.265625 0.140625 -0.546875q0.078125 -0.296875 0.15625 -0.578125q0.078125 -0.28125 0.140625 -0.453125l1.078125 -3.28125l1.0 0l-2.015625 5.890625l-1.234375 0zm6.3543854 0.109375q-0.59375 0 -1.078125 -0.203125q-0.484375 -0.203125 -0.84375 -0.578125q-0.34375 -0.375 -0.546875 -0.9375q-0.1875 -0.578125 -0.1875 -1.296875q0 -0.734375 0.171875 -1.296875q0.1875 -0.578125 0.5 -0.984375q0.328125 -0.40625 0.765625 -0.609375q0.453125 -0.203125 1.0 -0.203125q0.53125 0 0.953125 0.1875q0.421875 0.1875 0.71875 0.53125q0.296875 0.34375 0.453125 0.84375q0.15625 0.484375 0.15625 1.0625l0 0.609375l-3.71875 0q0.03125 1.046875 0.4375 1.53125q0.421875 0.484375 1.234375 0.484375q0.265625 0 0.5 -0.015625q0.234375 -0.03125 0.453125 -0.078125q0.21875 -0.0625 0.421875 -0.140625q0.203125 -0.078125 0.421875 -0.171875l0 0.875q-0.21875 0.09375 -0.4375 0.171875q-0.203125 0.078125 -0.421875 0.125q-0.21875 0.046875 -0.453125 0.0625q-0.21875 0.03125 -0.5 0.03125zm-0.234375 -5.296875q-0.625 0 -0.984375 0.421875q-0.34375 0.40625 -0.40625 1.203125l2.640625 0q0 -0.359375 -0.078125 -0.65625q-0.0625 -0.3125 -0.21875 -0.515625q-0.15625 -0.21875 -0.390625 -0.328125q-0.234375 -0.125 -0.5625 -0.125zm4.577759 5.1875l-0.96875 0l0 -8.359375l0.96875 0l0 8.359375zm6.58585 -2.953125q0 0.734375 -0.1875 1.3125q-0.171875 0.5625 -0.515625 0.953125q-0.328125 0.390625 -0.8125 0.59375q-0.46875 0.203125 -1.0625 0.203125q-0.546875 0 -1.015625 -0.203125q-0.46875 -0.203125 -0.8125038 -0.59375q-0.34375 -0.390625 -0.53125 -0.953125q-0.1875 -0.578125 -0.1875 -1.3125q0 -0.734375 0.171875 -1.296875q0.1875 -0.578125 0.515625 -0.96875q0.3437538 -0.390625 0.8125038 -0.578125q0.484375 -0.203125 1.078125 -0.203125q0.5625 0 1.015625 0.203125q0.46875 0.1875 0.8125 0.578125q0.34375 0.390625 0.53125 0.96875q0.1875 0.5625 0.1875 1.296875zm-4.125 0q0 1.109375 0.375 1.6875q0.375 0.5625 1.203125 0.5625q0.8125 0 1.171875 -0.5625q0.375 -0.578125 0.375 -1.6875q0 -1.125 -0.375 -1.671875q-0.359375 -0.5625 -1.1875 -0.5625q-0.828125 0 -1.203125 0.5625q-0.359375 0.546875 -0.359375 1.671875zm8.134613 3.0625q-0.3125 0 -0.578125 -0.078125q-0.25 -0.0625 -0.453125 -0.171875q-0.203125 -0.125 -0.375 -0.28125q-0.15625 -0.15625 -0.28125 -0.328125l-0.0625 0q0.015625 0.1875 0.03125 0.359375q0.015625 0.125 0.015625 0.28125q0.015625 0.140625 0.015625 0.234375l0 2.515625l-0.96875 0l0 -8.53125l0.796875 0l0.140625 0.78125l0.03125 0q0.125 -0.1875 0.28125 -0.34375q0.15625 -0.171875 0.359375 -0.28125q0.21875 -0.125 0.46875 -0.1875q0.265625 -0.078125 0.578125 -0.078125q0.515625 0 0.921875 0.1875q0.421875 0.1875 0.703125 0.578125q0.296875 0.390625 0.453125 0.953125q0.171875 0.5625 0.171875 1.328125q0 0.75 -0.171875 1.328125q-0.15625 0.5625 -0.453125 0.953125q-0.28125 0.390625 -0.703125 0.59375q-0.40625 0.1875 -0.921875 0.1875zm-0.1875 -5.296875q-0.40625 0 -0.6875 0.125q-0.28125 0.109375 -0.453125 0.375q-0.171875 0.25 -0.265625 0.625q-0.078125 0.375 -0.09375 0.875l0 0.234375q0 0.53125 0.078125 0.953125q0.078125 0.421875 0.25 0.71875q0.171875 0.28125 0.453125 0.4375q0.296875 0.140625 0.734375 0.140625q0.71875 0 1.0625 -0.578125q0.34375 -0.59375 0.34375 -1.6875q0 -1.125 -0.34375 -1.671875q-0.34375 -0.546875 -1.078125 -0.546875zm6.1032715 5.296875q-0.59375 0 -1.078125 -0.203125q-0.484375 -0.203125 -0.84375 -0.578125q-0.34375 -0.375 -0.546875 -0.9375q-0.1875 -0.578125 -0.1875 -1.296875q0 -0.734375 0.171875 -1.296875q0.1875 -0.578125 0.5 -0.984375q0.328125 -0.40625 0.765625 -0.609375q0.453125 -0.203125 1.0 -0.203125q0.53125 0 0.9531212 0.1875q0.421875 0.1875 0.71875 0.53125q0.296875 0.34375 0.453125 0.84375q0.15625 0.484375 0.15625 1.0625l0 0.609375l-3.7187462 0q0.03125 1.046875 0.4375 1.53125q0.421875 0.484375 1.234375 0.484375q0.265625 0 0.5 -0.015625q0.23437119 -0.03125 0.4531212 -0.078125q0.21875 -0.0625 0.421875 -0.140625q0.203125 -0.078125 0.421875 -0.171875l0 0.875q-0.21875 0.09375 -0.4375 0.171875q-0.203125 0.078125 -0.421875 0.125q-0.21875 0.046875 -0.4531212 0.0625q-0.21875 0.03125 -0.5 0.03125zm-0.234375 -5.296875q-0.625 0 -0.984375 0.421875q-0.34375 0.40625 -0.40625 1.203125l2.6406212 0q0 -0.359375 -0.078125 -0.65625q-0.0625 -0.3125 -0.21875 -0.515625q-0.15624619 -0.21875 -0.3906212 -0.328125q-0.234375 -0.125 -0.5625 -0.125zm6.15588 -0.8125q0.15625 0 0.34375 0.015625q0.203125 0 0.34375 0.03125l-0.125 0.90625q-0.15625 -0.03125 -0.3125 -0.046875q-0.15625 -0.015625 -0.296875 -0.015625q-0.34375 0 -0.625 0.140625q-0.28125 0.125 -0.484375 0.390625q-0.203125 0.25 -0.3125 0.609375q-0.109375 0.359375 -0.109375 0.78125l0 3.1875l-0.96875 0l0 -5.890625l0.796875 0l0.109375 1.078125l0.046875 0q0.140625 -0.234375 0.28125 -0.453125q0.15625 -0.21875 0.34375 -0.375q0.203125 -0.171875 0.4375 -0.265625q0.234375 -0.09375 0.53125 -0.09375z" fill-rule="nonzero"></path><path fill="#674ea7" d="m15.291339 141.49881l0 0c0 -3.47612 2.8179598 -6.2940826 6.2940893 -6.2940826l47.884262 0c1.6692963 0 3.2702255 0.66311646 4.450592 1.8434906c1.1803741 1.1803741 1.8434982 2.7812958 1.8434982 4.450592l0 25.175598c0 3.4761353 -2.8179626 6.294098 -6.2940903 6.294098l-47.884262 0c-3.4761295 0 -6.2940893 -2.8179626 -6.2940893 -6.294098z" fill-rule="nonzero"></path><path stroke="#b7b7b7" stroke-width="1.0" stroke-linejoin="round" stroke-linecap="butt" stroke-dasharray="8.0,3.0" d="m15.291339 141.49881l0 0c0 -3.47612 2.8179598 -6.2940826 6.2940893 -6.2940826l47.884262 0c1.6692963 0 3.2702255 0.66311646 4.450592 1.8434906c1.1803741 1.1803741 1.8434982 2.7812958 1.8434982 4.450592l0 25.175598c0 3.4761353 -2.8179626 6.294098 -6.2940903 6.294098l-47.884262 0c-3.4761295 0 -6.2940893 -2.8179626 -6.2940893 -6.294098z" fill-rule="nonzero"></path><path fill="#f3f3f3" d="m29.91105 149.96724l2.156248 0q0.6875 0 1.203125 0.109375q0.53125 0.109375 0.875 0.34375q0.359375 0.234375 0.53125 0.609375q0.171875 0.375 0.171875 0.9375q0 0.328125 -0.109375 0.625q-0.09375 0.28125 -0.296875 0.5q-0.203125 0.21875 -0.5 0.375q-0.28125 0.140625 -0.65625 0.1875l0 0.0625q0.375 0.0625 0.703125 0.1875q0.328125 0.109375 0.5625 0.328125q0.25 0.203125 0.375 0.53125q0.140625 0.328125 0.140625 0.78125q0 0.546875 -0.171875 0.96875q-0.171875 0.421875 -0.5 0.71875q-0.328125 0.28125 -0.8125 0.4375q-0.46875 0.15625 -1.0625 0.15625l-2.609373 0l0 -7.859375zm1.0 3.34375l1.3124981 0q0.453125 0 0.75 -0.078125q0.3125 -0.09375 0.5 -0.25q0.1875 -0.15625 0.265625 -0.390625q0.09375 -0.25 0.09375 -0.5625q0 -0.640625 -0.421875 -0.921875q-0.40625 -0.28125 -1.296875 -0.28125l-1.2031231 0l0 2.484375zm0 0.828125l0 2.84375l1.4374981 0q0.46875 0 0.78125 -0.109375q0.328125 -0.109375 0.515625 -0.296875q0.203125 -0.203125 0.28125 -0.46875q0.09375 -0.28125 0.09375 -0.609375q0 -0.296875 -0.09375 -0.546875q-0.078125 -0.25 -0.28125 -0.421875q-0.203125 -0.1875 -0.546875 -0.28125q-0.328125 -0.109375 -0.8125 -0.109375l-1.3749981 0zm8.821653 3.6875l-0.203125 -0.8125l-0.046875 0q-0.171875 0.234375 -0.359375 0.421875q-0.171875 0.171875 -0.390625 0.28125q-0.203125 0.109375 -0.46875 0.15625q-0.25 0.0625 -0.578125 0.0625q-0.375 0 -0.6875 -0.109375q-0.3125 -0.109375 -0.546875 -0.3125q-0.21875 -0.21875 -0.359375 -0.546875q-0.125 -0.34375 -0.125 -0.796875q0 -0.875 0.625 -1.34375q0.625 -0.46875 1.890625 -0.515625l0.984375 -0.046875l0 -0.359375q0 -0.359375 -0.078125 -0.59375q-0.078125 -0.25 -0.234375 -0.390625q-0.140625 -0.15625 -0.359375 -0.21875q-0.21875 -0.0625 -0.484375 -0.0625q-0.453125 0 -0.84375 0.125q-0.375 0.125 -0.734375 0.3125l-0.34375 -0.734375q0.40625 -0.21875 0.890625 -0.359375q0.484375 -0.15625 1.03125 -0.15625q0.546875 0 0.9375 0.109375q0.40625 0.109375 0.65625 0.34375q0.265625 0.234375 0.390625 0.609375q0.140625 0.375 0.140625 0.890625l0 4.046875l-0.703125 0zm-1.796875 -0.6875q0.328125 0 0.609375 -0.09375q0.28125 -0.109375 0.484375 -0.3125q0.203125 -0.203125 0.3125 -0.515625q0.109375 -0.3125 0.109375 -0.75l0 -0.53125l-0.765625 0.046875q-0.484375 0.015625 -0.8125 0.109375q-0.328125 0.078125 -0.53125 0.234375q-0.1875 0.15625 -0.28125 0.375q-0.078125 0.21875 -0.078125 0.484375q0 0.5 0.265625 0.734375q0.265625 0.21875 0.6875 0.21875zm6.6715546 -5.3125q0.15625 0 0.34375 0.015625q0.203125 0 0.34375 0.03125l-0.125 0.90625q-0.15625 -0.03125 -0.3125 -0.046875q-0.15625 -0.015625 -0.296875 -0.015625q-0.34375 0 -0.625 0.140625q-0.28125 0.125 -0.484375 0.390625q-0.203125 0.25 -0.3125 0.609375q-0.109375 0.359375 -0.109375 0.78125l0 3.1875l-0.96875 0l0 -5.890625l0.796875 0l0.109375 1.078125l0.046875 0q0.140625 -0.234375 0.28125 -0.453125q0.15625 -0.21875 0.34375 -0.375q0.203125 -0.171875 0.4375 -0.265625q0.234375 -0.09375 0.53125 -0.09375zm2.6729279 6.0l-0.96875 0l0 -5.890625l0.96875 0l0 5.890625zm-1.046875 -7.5q0 -0.3125 0.15625 -0.453125q0.171875 -0.15625 0.40625 -0.15625q0.125 0 0.21875 0.046875q0.109375 0.03125 0.1875 0.109375q0.078125 0.0625 0.125 0.1875q0.046875 0.109375 0.046875 0.265625q0 0.3125 -0.171875 0.46875q-0.15625 0.15625 -0.40625 0.15625q-0.234375 0 -0.40625 -0.140625q-0.15625 -0.15625 -0.15625 -0.484375zm6.3671 5.890625q0 0.421875 -0.15625 0.75q-0.15625 0.3125 -0.453125 0.53125q-0.296875 0.21875 -0.71875 0.328125q-0.40625 0.109375 -0.921875 0.109375q-0.578125 0 -1.0 -0.09375q-0.4218788 -0.09375 -0.7343788 -0.28125l0 -0.890625q0.171875 0.09375 0.375 0.171875q0.20312881 0.078125 0.4218788 0.140625q0.234375 0.0625 0.46875 0.109375q0.234375 0.046875 0.46875 0.046875q0.359375 0 0.59375 -0.0625q0.25 -0.0625 0.40625 -0.171875q0.15625 -0.109375 0.21875 -0.265625q0.0625 -0.15625 0.0625 -0.359375q0 -0.15625 -0.046875 -0.296875q-0.046875 -0.140625 -0.203125 -0.265625q-0.140625 -0.125 -0.390625 -0.265625q-0.234375 -0.140625 -0.625 -0.296875q-0.390625 -0.171875 -0.703125 -0.328125q-0.296875 -0.15625 -0.515625 -0.359375q-0.21875381 -0.203125 -0.3437538 -0.453125q-0.109375 -0.265625 -0.109375 -0.625q0 -0.375 0.140625 -0.671875q0.15625 -0.296875 0.4218788 -0.484375q0.28125 -0.203125 0.65625 -0.296875q0.375 -0.109375 0.828125 -0.109375q0.53125 0 0.953125 0.109375q0.4375 0.109375 0.828125 0.296875l-0.34375 0.78125q-0.34375 -0.15625 -0.71875 -0.265625q-0.359375 -0.109375 -0.75 -0.109375q-0.546875 0 -0.8125 0.1875q-0.25 0.171875 -0.25 0.5q0 0.1875 0.0625 0.328125q0.0625 0.140625 0.203125 0.265625q0.15625 0.125 0.40625 0.25q0.25 0.125 0.625 0.28125q0.390625 0.15625 0.6875 0.328125q0.3125 0.15625 0.515625 0.359375q0.21875 0.1875 0.328125 0.453125q0.125 0.25 0.125 0.625zm3.0578003 0.921875q0.09375 0 0.21875 -0.015625q0.125 -0.015625 0.234375 -0.03125q0.109375 -0.015625 0.203125 -0.03125q0.09375 -0.03125 0.140625 -0.046875l0 0.75q-0.0625 0.03125 -0.171875 0.0625q-0.109375 0.03125 -0.25 0.046875q-0.125 0.03125 -0.265625 0.046875q-0.125 0.015625 -0.265625 0.015625q-0.328125 0 -0.625 -0.09375q-0.28125 -0.078125 -0.484375 -0.28125q-0.203125 -0.21875 -0.328125 -0.578125q-0.109375 -0.359375 -0.109375 -0.890625l0 -3.421875l-0.84375 0l0 -0.4375l0.84375 -0.421875l0.40625 -1.234375l0.578125 0l0 1.359375l1.46875 0l0 0.734375l-1.46875 0l0 3.421875q0 0.515625 0.15625 0.78125q0.171875 0.265625 0.5625 0.265625zm5.1579285 0.6875l-0.203125 -0.8125l-0.046875 0q-0.171875 0.234375 -0.359375 0.421875q-0.171875 0.171875 -0.390625 0.28125q-0.203125 0.109375 -0.46875 0.15625q-0.25 0.0625 -0.578125 0.0625q-0.375 0 -0.6875 -0.109375q-0.3125 -0.109375 -0.546875 -0.3125q-0.21875 -0.21875 -0.359375 -0.546875q-0.125 -0.34375 -0.125 -0.796875q0 -0.875 0.625 -1.34375q0.625 -0.46875 1.890625 -0.515625l0.984375 -0.046875l0 -0.359375q0 -0.359375 -0.078125 -0.59375q-0.078125 -0.25 -0.234375 -0.390625q-0.140625 -0.15625 -0.359375 -0.21875q-0.21875 -0.0625 -0.484375 -0.0625q-0.453125 0 -0.84375 0.125q-0.375 0.125 -0.734375 0.3125l-0.34375 -0.734375q0.40625 -0.21875 0.890625 -0.359375q0.484375 -0.15625 1.03125 -0.15625q0.546875 0 0.9375 0.109375q0.40625 0.109375 0.65625 0.34375q0.265625 0.234375 0.390625 0.609375q0.140625 0.375 0.140625 0.890625l0 4.046875l-0.703125 0zm-1.796875 -0.6875q0.328125 0 0.609375 -0.09375q0.28125 -0.109375 0.484375 -0.3125q0.203125 -0.203125 0.3125 -0.515625q0.109375 -0.3125 0.109375 -0.75l0 -0.53125l-0.765625 0.046875q-0.484375 0.015625 -0.8125 0.109375q-0.328125 0.078125 -0.53125 0.234375q-0.1875 0.15625 -0.28125 0.375q-0.078125 0.21875 -0.078125 0.484375q0 0.5 0.265625 0.734375q0.265625 0.21875 0.6875 0.21875z" fill-rule="nonzero"></path><path fill="#666666" d="m98.149605 35.829395l74.77691 0l0 37.763783l-74.77691 0z" fill-rule="nonzero"></path><path fill="#000000" fill-opacity="0.0" d="m107.49672 35.829395l0 37.763783m56.082672 -37.763783l0 37.763783" fill-rule="nonzero"></path><path fill="#000000" fill-opacity="0.0" d="m98.149605 35.829395l74.77691 0l0 37.763783l-74.77691 0z" fill-rule="nonzero"></path><path stroke="#000000" stroke-width="1.0" stroke-linejoin="round" stroke-linecap="butt" d="m107.49672 35.829395l0 37.763783m56.082672 -37.763783l0 37.763783" fill-rule="nonzero"></path><path stroke="#000000" stroke-width="1.0" stroke-linejoin="round" stroke-linecap="butt" d="m98.149605 35.829395l74.77691 0l0 37.763783l-74.77691 0z" fill-rule="nonzero"></path><path fill="#ffffff" d="m124.0986 52.391285l-2.0625 0l0 -0.40625l0.671875 -0.15625l0 -4.59375l-0.671875 -0.15625l0 -0.40625l2.0625 0l0 0.40625l-0.671875 0.15625l0 4.59375l0.671875 0.15625l0 0.40625zm2.3046875 -0.5q0.0625 0 0.140625 0q0.09375 -0.015625 0.171875 -0.03125q0.09375 -0.015625 0.15625 -0.03125q0.078125 -0.015625 0.109375 -0.03125l0 0.546875q-0.046875 0.015625 -0.125 0.046875q-0.078125 0.03125 -0.171875 0.046875q-0.09375 0.015625 -0.203125 0.015625q-0.09375 0.015625 -0.203125 0.015625q-0.234375 0 -0.453125 -0.0625q-0.203125 -0.0625 -0.359375 -0.21875q-0.140625 -0.15625 -0.234375 -0.40625q-0.078125 -0.265625 -0.078125 -0.65625l0 -2.484375l-0.609375 0l0 -0.328125l0.609375 -0.296875l0.3125 -0.90625l0.40625 0l0 0.984375l1.078125 0l0 0.546875l-1.078125 0l0 2.484375q0 0.375 0.125 0.578125q0.125 0.1875 0.40625 0.1875zm3.1015625 0.578125q-0.421875 0 -0.78125 -0.140625q-0.359375 -0.15625 -0.625 -0.421875q-0.25 -0.28125 -0.390625 -0.6875q-0.140625 -0.421875 -0.140625 -0.9375q0 -0.53125 0.125 -0.953125q0.140625 -0.421875 0.375 -0.703125q0.234375 -0.296875 0.5625 -0.453125q0.328125 -0.15625 0.71875 -0.15625q0.390625 0 0.6875 0.140625q0.3125 0.140625 0.53125 0.390625q0.21875 0.25 0.328125 0.609375q0.109375 0.359375 0.109375 0.78125l0 0.4375l-2.703125 0q0.03125 0.765625 0.328125 1.125q0.296875 0.34375 0.890625 0.34375q0.1875 0 0.359375 -0.015625q0.171875 -0.015625 0.328125 -0.046875q0.15625 -0.046875 0.296875 -0.09375q0.15625 -0.0625 0.3125 -0.140625l0 0.640625q-0.15625 0.0625 -0.3125 0.125q-0.140625 0.046875 -0.296875 0.078125q-0.15625 0.046875 -0.328125 0.0625q-0.171875 0.015625 -0.375 0.015625zm-0.171875 -3.859375q-0.453125 0 -0.71875 0.3125q-0.25 0.296875 -0.296875 0.875l1.921875 0q0 -0.265625 -0.046875 -0.484375q-0.046875 -0.21875 -0.171875 -0.375q-0.109375 -0.15625 -0.28125 -0.234375q-0.171875 -0.09375 -0.40625 -0.09375zm4.609375 -0.59375q0.125 0 0.265625 0.015625q0.140625 0.015625 0.234375 0.03125l-0.09375 0.65625q-0.109375 -0.015625 -0.234375 -0.03125q-0.109375 -0.015625 -0.203125 -0.015625q-0.25 0 -0.453125 0.109375q-0.203125 0.09375 -0.359375 0.28125q-0.140625 0.171875 -0.21875 0.4375q-0.078125 0.265625 -0.078125 0.578125l0 2.3125l-0.703125 0l0 -4.296875l0.578125 0l0.078125 0.796875l0.03125 0q0.09375 -0.171875 0.203125 -0.328125q0.125 -0.15625 0.25 -0.265625q0.140625 -0.125 0.3125 -0.203125q0.171875 -0.078125 0.390625 -0.078125zm3.7539062 4.375l-0.140625 -0.59375l-0.03125 0q-0.125 0.171875 -0.265625 0.296875q-0.125 0.125 -0.28125 0.21875q-0.140625 0.078125 -0.328125 0.109375q-0.1875 0.046875 -0.4375 0.046875q-0.265625 0 -0.5 -0.078125q-0.21875 -0.078125 -0.390625 -0.234375q-0.15625 -0.15625 -0.25 -0.390625q-0.09375 -0.25 -0.09375 -0.578125q0 -0.640625 0.4375 -0.984375q0.453125 -0.34375 1.375 -0.375l0.71875 -0.03125l0 -0.265625q0 -0.265625 -0.0625 -0.4375q-0.046875 -0.171875 -0.15625 -0.28125q-0.109375 -0.109375 -0.265625 -0.15625q-0.15625 -0.046875 -0.359375 -0.046875q-0.328125 0 -0.609375 0.09375q-0.265625 0.09375 -0.53125 0.234375l-0.25 -0.546875q0.296875 -0.15625 0.640625 -0.265625q0.359375 -0.109375 0.75 -0.109375q0.40625 0 0.6875 0.09375q0.296875 0.078125 0.484375 0.25q0.1875 0.171875 0.28125 0.4375q0.09375 0.265625 0.09375 0.65625l0 2.9375l-0.515625 0zm-1.296875 -0.5q0.234375 0 0.4375 -0.0625q0.203125 -0.078125 0.34375 -0.234375q0.15625 -0.15625 0.234375 -0.375q0.09375 -0.234375 0.09375 -0.546875l0 -0.375l-0.5625 0.015625q-0.34375 0.015625 -0.59375 0.078125q-0.234375 0.0625 -0.375 0.1875q-0.140625 0.109375 -0.203125 0.265625q-0.0625 0.15625 -0.0625 0.359375q0 0.359375 0.1875 0.53125q0.1875 0.15625 0.5 0.15625zm4.4335938 0q0.0625 0 0.140625 0q0.09375 -0.015625 0.171875 -0.03125q0.09375 -0.015625 0.15625 -0.03125q0.078125 -0.015625 0.109375 -0.03125l0 0.546875q-0.046875 0.015625 -0.125 0.046875q-0.078125 0.03125 -0.171875 0.046875q-0.09375 0.015625 -0.203125 0.015625q-0.09375 0.015625 -0.203125 0.015625q-0.234375 0 -0.453125 -0.0625q-0.203125 -0.0625 -0.359375 -0.21875q-0.140625 -0.15625 -0.234375 -0.40625q-0.078125 -0.265625 -0.078125 -0.65625l0 -2.484375l-0.609375 0l0 -0.328125l0.609375 -0.296875l0.3125 -0.90625l0.40625 0l0 0.984375l1.078125 0l0 0.546875l-1.078125 0l0 2.484375q0 0.375 0.125 0.578125q0.125 0.1875 0.40625 0.1875zm4.8984375 -1.65625q0 0.53125 -0.125 0.953125q-0.125 0.421875 -0.375 0.703125q-0.25 0.28125 -0.59375 0.4375q-0.34375 0.140625 -0.78125 0.140625q-0.40625 0 -0.75 -0.140625q-0.328125 -0.15625 -0.578125 -0.4375q-0.25 -0.28125 -0.390625 -0.703125q-0.140625 -0.421875 -0.140625 -0.953125q0 -0.53125 0.125 -0.9375q0.140625 -0.421875 0.375 -0.703125q0.25 -0.28125 0.59375 -0.421875q0.359375 -0.15625 0.796875 -0.15625q0.390625 0 0.734375 0.15625q0.34375 0.140625 0.59375 0.421875q0.25 0.28125 0.375 0.703125q0.140625 0.40625 0.140625 0.9375zm-3.0 0q0 0.8125 0.265625 1.234375q0.28125 0.40625 0.875 0.40625q0.609375 0 0.859375 -0.40625q0.265625 -0.421875 0.265625 -1.234375q0 -0.8125 -0.265625 -1.21875q-0.265625 -0.40625 -0.859375 -0.40625q-0.609375 0 -0.875 0.40625q-0.265625 0.40625 -0.265625 1.21875zm5.9765625 -2.21875q0.125 0 0.265625 0.015625q0.140625 0.015625 0.234375 0.03125l-0.09375 0.65625q-0.109375 -0.015625 -0.234375 -0.03125q-0.109375 -0.015625 -0.203125 -0.015625q-0.25 0 -0.453125 0.109375q-0.203125 0.09375 -0.359375 0.28125q-0.140625 0.171875 -0.21875 0.4375q-0.078125 0.265625 -0.078125 0.578125l0 2.3125l-0.703125 0l0 -4.296875l0.578125 0l0.078125 0.796875l0.03125 0q0.09375 -0.171875 0.203125 -0.328125q0.125 -0.15625 0.25 -0.265625q0.140625 -0.125 0.3125 -0.203125q0.171875 -0.078125 0.390625 -0.078125z" fill-rule="nonzero"></path><path fill="#ffffff" d="m123.15134 58.641285l-0.953125 0l0 3.75l-0.71875 0l0 -3.75l-0.765625 0l0 -0.296875l0.765625 -0.265625l0 -0.375q0 -0.421875 0.078125 -0.6875q0.09375 -0.28125 0.25 -0.4375q0.171875 -0.171875 0.40625 -0.234375q0.25 -0.078125 0.5625 -0.078125q0.234375 0 0.421875 0.046875q0.1875 0.046875 0.34375 0.09375l-0.1875 0.5625q-0.109375 -0.046875 -0.265625 -0.078125q-0.140625 -0.03125 -0.296875 -0.03125q-0.15625 0 -0.265625 0.03125q-0.109375 0.03125 -0.1875 0.125q-0.078125 0.09375 -0.109375 0.265625q-0.03125 0.15625 -0.03125 0.40625l0 0.40625l0.953125 0l0 0.546875zm3.5390625 3.75l-0.09375 -0.578125l-0.046875 0q-0.09375 0.171875 -0.234375 0.296875q-0.125 0.125 -0.296875 0.203125q-0.15625 0.078125 -0.34375 0.109375q-0.171875 0.046875 -0.359375 0.046875q-0.359375 0 -0.625 -0.09375q-0.265625 -0.09375 -0.453125 -0.28125q-0.171875 -0.1875 -0.265625 -0.484375q-0.09375 -0.296875 -0.09375 -0.703125l0 -2.8125l0.71875 0l0 2.765625q0 0.515625 0.203125 0.765625q0.203125 0.25 0.640625 0.25q0.3125 0 0.53125 -0.09375q0.21875 -0.109375 0.34375 -0.296875q0.125 -0.203125 0.1875 -0.484375q0.0625 -0.296875 0.0625 -0.671875l0 -2.234375l0.703125 0l0 4.296875l-0.578125 0zm4.6171875 0l0 -2.765625q0 -0.5 -0.203125 -0.75q-0.203125 -0.265625 -0.640625 -0.265625q-0.3125 0 -0.53125 0.109375q-0.21875 0.09375 -0.359375 0.296875q-0.125 0.203125 -0.1875 0.5q-0.046875 0.28125 -0.046875 0.65625l0 2.21875l-0.703125 0l0 -4.296875l0.578125 0l0.09375 0.578125l0.046875 0q0.09375 -0.15625 0.21875 -0.28125q0.140625 -0.125 0.296875 -0.203125q0.171875 -0.09375 0.34375 -0.125q0.1875 -0.046875 0.375 -0.046875q0.703125 0 1.0625 0.375q0.375 0.375 0.375 1.203125l0 2.796875l-0.71875 0zm3.6796875 0.078125q-0.40625 0 -0.75 -0.125q-0.34375 -0.125 -0.59375 -0.390625q-0.25 -0.265625 -0.40625 -0.671875q-0.140625 -0.421875 -0.140625 -1.015625q0 -0.609375 0.140625 -1.03125q0.15625 -0.4375 0.421875 -0.703125q0.265625 -0.265625 0.609375 -0.390625q0.34375 -0.125 0.75 -0.125q0.296875 0 0.578125 0.078125q0.296875 0.0625 0.5 0.15625l-0.21875 0.609375q-0.078125 -0.046875 -0.1875 -0.078125q-0.109375 -0.046875 -0.234375 -0.0625q-0.109375 -0.03125 -0.234375 -0.046875q-0.109375 -0.03125 -0.203125 -0.03125q-0.625 0 -0.90625 0.40625q-0.28125 0.390625 -0.28125 1.21875q0 0.8125 0.28125 1.203125q0.296875 0.375 0.875 0.375q0.3125 0 0.5625 -0.0625q0.265625 -0.078125 0.46875 -0.171875l0 0.625q-0.203125 0.109375 -0.453125 0.171875q-0.234375 0.0625 -0.578125 0.0625zm3.359375 -0.578125q0.0625 0 0.140625 0q0.09375 -0.015625 0.171875 -0.03125q0.09375 -0.015625 0.15625 -0.03125q0.078125 -0.015625 0.109375 -0.03125l0 0.546875q-0.046875 0.015625 -0.125 0.046875q-0.078125 0.03125 -0.171875 0.046875q-0.09375 0.015625 -0.203125 0.015625q-0.09375 0.015625 -0.203125 0.015625q-0.234375 0 -0.453125 -0.0625q-0.203125 -0.0625 -0.359375 -0.21875q-0.140625 -0.15625 -0.234375 -0.40625q-0.078125 -0.265625 -0.078125 -0.65625l0 -2.484375l-0.609375 0l0 -0.328125l0.609375 -0.296875l0.3125 -0.90625l0.40625 0l0 0.984375l1.078125 0l0 0.546875l-1.078125 0l0 2.484375q0 0.375 0.125 0.578125q0.125 0.1875 0.40625 0.1875zm2.1171875 0.5l-0.703125 0l0 -4.296875l0.703125 0l0 4.296875zm-0.765625 -5.453125q0 -0.234375 0.109375 -0.328125q0.125 -0.109375 0.3125 -0.109375q0.078125 0 0.15625 0.03125q0.078125 0.015625 0.125 0.078125q0.0625 0.046875 0.09375 0.140625q0.03125 0.078125 0.03125 0.1875q0 0.234375 -0.125 0.34375q-0.109375 0.109375 -0.28125 0.109375q-0.1875 0 -0.3125 -0.109375q-0.109375 -0.109375 -0.109375 -0.34375zm5.6171875 3.296875q0 0.53125 -0.125 0.953125q-0.125 0.421875 -0.375 0.703125q-0.25 0.28125 -0.59375 0.4375q-0.34375 0.140625 -0.78125 0.140625q-0.40625 0 -0.75 -0.140625q-0.328125 -0.15625 -0.578125 -0.4375q-0.25 -0.28125 -0.390625 -0.703125q-0.140625 -0.421875 -0.140625 -0.953125q0 -0.53125 0.125 -0.9375q0.140625 -0.421875 0.375 -0.703125q0.25 -0.28125 0.59375 -0.421875q0.359375 -0.15625 0.796875 -0.15625q0.390625 0 0.734375 0.15625q0.34375 0.140625 0.59375 0.421875q0.25 0.28125 0.375 0.703125q0.140625 0.40625 0.140625 0.9375zm-3.0 0q0 0.8125 0.265625 1.234375q0.28125 0.40625 0.875 0.40625q0.609375 0 0.859375 -0.40625q0.265625 -0.421875 0.265625 -1.234375q0 -0.8125 -0.265625 -1.21875q-0.265625 -0.40625 -0.859375 -0.40625q-0.609375 0 -0.875 0.40625q-0.265625 0.40625 -0.265625 1.21875zm6.8046875 2.15625l0 -2.765625q0 -0.5 -0.203125 -0.75q-0.203125 -0.265625 -0.640625 -0.265625q-0.3125 0 -0.53125 0.109375q-0.21875 0.09375 -0.359375 0.296875q-0.125 0.203125 -0.1875 0.5q-0.046875 0.28125 -0.046875 0.65625l0 2.21875l-0.703125 0l0 -4.296875l0.578125 0l0.09375 0.578125l0.046875 0q0.09375 -0.15625 0.21875 -0.28125q0.140625 -0.125 0.296875 -0.203125q0.171875 -0.09375 0.34375 -0.125q0.1875 -0.046875 0.375 -0.046875q0.703125 0 1.0625 0.375q0.375 0.375 0.375 1.203125l0 2.796875l-0.71875 0z" fill-rule="nonzero"></path><path fill="#666666" d="m98.149605 85.51706l74.77691 0l0 37.76378l-74.77691 0z" fill-rule="nonzero"></path><path fill="#000000" fill-opacity="0.0" d="m107.49672 85.51706l0 37.76378m56.082672 -37.76378l0 37.76378" fill-rule="nonzero"></path><path fill="#000000" fill-opacity="0.0" d="m98.149605 85.51706l74.77691 0l0 37.76378l-74.77691 0z" fill-rule="nonzero"></path><path stroke="#000000" stroke-width="1.0" stroke-linejoin="round" stroke-linecap="butt" d="m107.49672 85.51706l0 37.76378m56.082672 -37.76378l0 37.76378" fill-rule="nonzero"></path><path stroke="#000000" stroke-width="1.0" stroke-linejoin="round" stroke-linecap="butt" d="m98.149605 85.51706l74.77691 0l0 37.76378l-74.77691 0z" fill-rule="nonzero"></path><path fill="#ffffff" d="m124.0986 102.07895l-2.0625 0l0 -0.40625l0.671875 -0.15625l0 -4.59375l-0.671875 -0.15625l0 -0.40625l2.0625 0l0 0.40625l-0.671875 0.15625l0 4.59375l0.671875 0.15625l0 0.40625zm2.3046875 -0.5q0.0625 0 0.140625 0q0.09375 -0.015625 0.171875 -0.03125q0.09375 -0.015625 0.15625 -0.03125q0.078125 -0.015625 0.109375 -0.03125l0 0.546875q-0.046875 0.015625 -0.125 0.046875q-0.078125 0.03125 -0.171875 0.046875q-0.09375 0.015625 -0.203125 0.015625q-0.09375 0.015625 -0.203125 0.015625q-0.234375 0 -0.453125 -0.0625q-0.203125 -0.0625 -0.359375 -0.21875q-0.140625 -0.15625 -0.234375 -0.40625q-0.078125 -0.265625 -0.078125 -0.65625l0 -2.484375l-0.609375 0l0 -0.328125l0.609375 -0.296875l0.3125 -0.90625l0.40625 0l0 0.984375l1.078125 0l0 0.546875l-1.078125 0l0 2.484375q0 0.375 0.125 0.578125q0.125 0.1875 0.40625 0.1875zm3.1015625 0.578125q-0.421875 0 -0.78125 -0.140625q-0.359375 -0.15625 -0.625 -0.421875q-0.25 -0.28125 -0.390625 -0.6875q-0.140625 -0.421875 -0.140625 -0.9375q0 -0.53125 0.125 -0.953125q0.140625 -0.421875 0.375 -0.703125q0.234375 -0.296875 0.5625 -0.453125q0.328125 -0.15625 0.71875 -0.15625q0.390625 0 0.6875 0.140625q0.3125 0.140625 0.53125 0.390625q0.21875 0.25 0.328125 0.609375q0.109375 0.359375 0.109375 0.78125l0 0.4375l-2.703125 0q0.03125 0.765625 0.328125 1.125q0.296875 0.34375 0.890625 0.34375q0.1875 0 0.359375 -0.015625q0.171875 -0.015625 0.328125 -0.046875q0.15625 -0.046875 0.296875 -0.09375q0.15625 -0.0625 0.3125 -0.140625l0 0.640625q-0.15625 0.0625 -0.3125 0.125q-0.140625 0.046875 -0.296875 0.078125q-0.15625 0.046875 -0.328125 0.0625q-0.171875 0.015625 -0.375 0.015625zm-0.171875 -3.859375q-0.453125 0 -0.71875 0.3125q-0.25 0.296875 -0.296875 0.875l1.921875 0q0 -0.265625 -0.046875 -0.484375q-0.046875 -0.21875 -0.171875 -0.375q-0.109375 -0.15625 -0.28125 -0.234375q-0.171875 -0.09375 -0.40625 -0.09375zm4.609375 -0.59375q0.125 0 0.265625 0.015625q0.140625 0.015625 0.234375 0.03125l-0.09375 0.65625q-0.109375 -0.015625 -0.234375 -0.03125q-0.109375 -0.015625 -0.203125 -0.015625q-0.25 0 -0.453125 0.109375q-0.203125 0.09375 -0.359375 0.28125q-0.140625 0.171875 -0.21875 0.4375q-0.078125 0.265625 -0.078125 0.578125l0 2.3125l-0.703125 0l0 -4.296875l0.578125 0l0.078125 0.796875l0.03125 0q0.09375 -0.171875 0.203125 -0.328125q0.125 -0.15625 0.25 -0.265625q0.140625 -0.125 0.3125 -0.203125q0.171875 -0.078125 0.390625 -0.078125zm3.7539062 4.375l-0.140625 -0.59375l-0.03125 0q-0.125 0.171875 -0.265625 0.296875q-0.125 0.125 -0.28125 0.21875q-0.140625 0.078125 -0.328125 0.109375q-0.1875 0.046875 -0.4375 0.046875q-0.265625 0 -0.5 -0.078125q-0.21875 -0.078125 -0.390625 -0.234375q-0.15625 -0.15625 -0.25 -0.390625q-0.09375 -0.25 -0.09375 -0.578125q0 -0.640625 0.4375 -0.984375q0.453125 -0.34375 1.375 -0.375l0.71875 -0.03125l0 -0.265625q0 -0.265625 -0.0625 -0.4375q-0.046875 -0.171875 -0.15625 -0.28125q-0.109375 -0.109375 -0.265625 -0.15625q-0.15625 -0.046875 -0.359375 -0.046875q-0.328125 0 -0.609375 0.09375q-0.265625 0.09375 -0.53125 0.234375l-0.25 -0.546875q0.296875 -0.15625 0.640625 -0.265625q0.359375 -0.109375 0.75 -0.109375q0.40625 0 0.6875 0.09375q0.296875 0.078125 0.484375 0.25q0.1875 0.171875 0.28125 0.4375q0.09375 0.265625 0.09375 0.65625l0 2.9375l-0.515625 0zm-1.296875 -0.5q0.234375 0 0.4375 -0.0625q0.203125 -0.078125 0.34375 -0.234375q0.15625 -0.15625 0.234375 -0.375q0.09375 -0.234375 0.09375 -0.546875l0 -0.375l-0.5625 0.015625q-0.34375 0.015625 -0.59375 0.078125q-0.234375 0.0625 -0.375 0.1875q-0.140625 0.109375 -0.203125 0.265625q-0.0625 0.15625 -0.0625 0.359375q0 0.359375 0.1875 0.53125q0.1875 0.15625 0.5 0.15625zm4.4335938 0q0.0625 0 0.140625 0q0.09375 -0.015625 0.171875 -0.03125q0.09375 -0.015625 0.15625 -0.03125q0.078125 -0.015625 0.109375 -0.03125l0 0.546875q-0.046875 0.015625 -0.125 0.046875q-0.078125 0.03125 -0.171875 0.046875q-0.09375 0.015625 -0.203125 0.015625q-0.09375 0.015625 -0.203125 0.015625q-0.234375 0 -0.453125 -0.0625q-0.203125 -0.0625 -0.359375 -0.21875q-0.140625 -0.15625 -0.234375 -0.40625q-0.078125 -0.265625 -0.078125 -0.65625l0 -2.484375l-0.609375 0l0 -0.328125l0.609375 -0.296875l0.3125 -0.90625l0.40625 0l0 0.984375l1.078125 0l0 0.546875l-1.078125 0l0 2.484375q0 0.375 0.125 0.578125q0.125 0.1875 0.40625 0.1875zm4.8984375 -1.65625q0 0.53125 -0.125 0.953125q-0.125 0.421875 -0.375 0.703125q-0.25 0.28125 -0.59375 0.4375q-0.34375 0.140625 -0.78125 0.140625q-0.40625 0 -0.75 -0.140625q-0.328125 -0.15625 -0.578125 -0.4375q-0.25 -0.28125 -0.390625 -0.703125q-0.140625 -0.421875 -0.140625 -0.953125q0 -0.53125 0.125 -0.9375q0.140625 -0.421875 0.375 -0.703125q0.25 -0.28125 0.59375 -0.421875q0.359375 -0.15625 0.796875 -0.15625q0.390625 0 0.734375 0.15625q0.34375 0.140625 0.59375 0.421875q0.25 0.28125 0.375 0.703125q0.140625 0.40625 0.140625 0.9375zm-3.0 0q0 0.8125 0.265625 1.234375q0.28125 0.40625 0.875 0.40625q0.609375 0 0.859375 -0.40625q0.265625 -0.421875 0.265625 -1.234375q0 -0.8125 -0.265625 -1.21875q-0.265625 -0.40625 -0.859375 -0.40625q-0.609375 0 -0.875 0.40625q-0.265625 0.40625 -0.265625 1.21875zm5.9765625 -2.21875q0.125 0 0.265625 0.015625q0.140625 0.015625 0.234375 0.03125l-0.09375 0.65625q-0.109375 -0.015625 -0.234375 -0.03125q-0.109375 -0.015625 -0.203125 -0.015625q-0.25 0 -0.453125 0.109375q-0.203125 0.09375 -0.359375 0.28125q-0.140625 0.171875 -0.21875 0.4375q-0.078125 0.265625 -0.078125 0.578125l0 2.3125l-0.703125 0l0 -4.296875l0.578125 0l0.078125 0.796875l0.03125 0q0.09375 -0.171875 0.203125 -0.328125q0.125 -0.15625 0.25 -0.265625q0.140625 -0.125 0.3125 -0.203125q0.171875 -0.078125 0.390625 -0.078125z" fill-rule="nonzero"></path><path fill="#ffffff" d="m123.15134 108.32895l-0.953125 0l0 3.75l-0.71875 0l0 -3.75l-0.765625 0l0 -0.296875l0.765625 -0.265625l0 -0.375q0 -0.421875 0.078125 -0.6875q0.09375 -0.28125 0.25 -0.4375q0.171875 -0.171875 0.40625 -0.234375q0.25 -0.078125 0.5625 -0.078125q0.234375 0 0.421875 0.046875q0.1875 0.046875 0.34375 0.09375l-0.1875 0.5625q-0.109375 -0.046875 -0.265625 -0.078125q-0.140625 -0.03125 -0.296875 -0.03125q-0.15625 0 -0.265625 0.03125q-0.109375 0.03125 -0.1875 0.125q-0.078125 0.09375 -0.109375 0.265625q-0.03125 0.15625 -0.03125 0.40625l0 0.40625l0.953125 0l0 0.546875zm3.5390625 3.75l-0.09375 -0.578125l-0.046875 0q-0.09375 0.171875 -0.234375 0.296875q-0.125 0.125 -0.296875 0.203125q-0.15625 0.078125 -0.34375 0.109375q-0.171875 0.046875 -0.359375 0.046875q-0.359375 0 -0.625 -0.09375q-0.265625 -0.09375 -0.453125 -0.28125q-0.171875 -0.1875 -0.265625 -0.484375q-0.09375 -0.296875 -0.09375 -0.703125l0 -2.8125l0.71875 0l0 2.765625q0 0.515625 0.203125 0.765625q0.203125 0.25 0.640625 0.25q0.3125 0 0.53125 -0.09375q0.21875 -0.109375 0.34375 -0.296875q0.125 -0.203125 0.1875 -0.484375q0.0625 -0.296875 0.0625 -0.671875l0 -2.234375l0.703125 0l0 4.296875l-0.578125 0zm4.6171875 0l0 -2.765625q0 -0.5 -0.203125 -0.75q-0.203125 -0.265625 -0.640625 -0.265625q-0.3125 0 -0.53125 0.109375q-0.21875 0.09375 -0.359375 0.296875q-0.125 0.203125 -0.1875 0.5q-0.046875 0.28125 -0.046875 0.65625l0 2.21875l-0.703125 0l0 -4.296875l0.578125 0l0.09375 0.578125l0.046875 0q0.09375 -0.15625 0.21875 -0.28125q0.140625 -0.125 0.296875 -0.203125q0.171875 -0.09375 0.34375 -0.125q0.1875 -0.046875 0.375 -0.046875q0.703125 0 1.0625 0.375q0.375 0.375 0.375 1.203125l0 2.796875l-0.71875 0zm3.6796875 0.078125q-0.40625 0 -0.75 -0.125q-0.34375 -0.125 -0.59375 -0.390625q-0.25 -0.265625 -0.40625 -0.671875q-0.140625 -0.421875 -0.140625 -1.015625q0 -0.609375 0.140625 -1.03125q0.15625 -0.4375 0.421875 -0.703125q0.265625 -0.265625 0.609375 -0.390625q0.34375 -0.125 0.75 -0.125q0.296875 0 0.578125 0.078125q0.296875 0.0625 0.5 0.15625l-0.21875 0.609375q-0.078125 -0.046875 -0.1875 -0.078125q-0.109375 -0.046875 -0.234375 -0.0625q-0.109375 -0.03125 -0.234375 -0.046875q-0.109375 -0.03125 -0.203125 -0.03125q-0.625 0 -0.90625 0.40625q-0.28125 0.390625 -0.28125 1.21875q0 0.8125 0.28125 1.203125q0.296875 0.375 0.875 0.375q0.3125 0 0.5625 -0.0625q0.265625 -0.078125 0.46875 -0.171875l0 0.625q-0.203125 0.109375 -0.453125 0.171875q-0.234375 0.0625 -0.578125 0.0625zm3.359375 -0.578125q0.0625 0 0.140625 0q0.09375 -0.015625 0.171875 -0.03125q0.09375 -0.015625 0.15625 -0.03125q0.078125 -0.015625 0.109375 -0.03125l0 0.546875q-0.046875 0.015625 -0.125 0.046875q-0.078125 0.03125 -0.171875 0.046875q-0.09375 0.015625 -0.203125 0.015625q-0.09375 0.015625 -0.203125 0.015625q-0.234375 0 -0.453125 -0.0625q-0.203125 -0.0625 -0.359375 -0.21875q-0.140625 -0.15625 -0.234375 -0.40625q-0.078125 -0.265625 -0.078125 -0.65625l0 -2.484375l-0.609375 0l0 -0.328125l0.609375 -0.296875l0.3125 -0.90625l0.40625 0l0 0.984375l1.078125 0l0 0.546875l-1.078125 0l0 2.484375q0 0.375 0.125 0.578125q0.125 0.1875 0.40625 0.1875zm2.1171875 0.5l-0.703125 0l0 -4.296875l0.703125 0l0 4.296875zm-0.765625 -5.453125q0 -0.234375 0.109375 -0.328125q0.125 -0.109375 0.3125 -0.109375q0.078125 0 0.15625 0.03125q0.078125 0.015625 0.125 0.078125q0.0625 0.046875 0.09375 0.140625q0.03125 0.078125 0.03125 0.1875q0 0.234375 -0.125 0.34375q-0.109375 0.109375 -0.28125 0.109375q-0.1875 0 -0.3125 -0.109375q-0.109375 -0.109375 -0.109375 -0.34375zm5.6171875 3.296875q0 0.53125 -0.125 0.953125q-0.125 0.421875 -0.375 0.703125q-0.25 0.28125 -0.59375 0.4375q-0.34375 0.140625 -0.78125 0.140625q-0.40625 0 -0.75 -0.140625q-0.328125 -0.15625 -0.578125 -0.4375q-0.25 -0.28125 -0.390625 -0.703125q-0.140625 -0.421875 -0.140625 -0.953125q0 -0.53125 0.125 -0.9375q0.140625 -0.421875 0.375 -0.703125q0.25 -0.28125 0.59375 -0.421875q0.359375 -0.15625 0.796875 -0.15625q0.390625 0 0.734375 0.15625q0.34375 0.140625 0.59375 0.421875q0.25 0.28125 0.375 0.703125q0.140625 0.40625 0.140625 0.9375zm-3.0 0q0 0.8125 0.265625 1.234375q0.28125 0.40625 0.875 0.40625q0.609375 0 0.859375 -0.40625q0.265625 -0.421875 0.265625 -1.234375q0 -0.8125 -0.265625 -1.21875q-0.265625 -0.40625 -0.859375 -0.40625q-0.609375 0 -0.875 0.40625q-0.265625 0.40625 -0.265625 1.21875zm6.8046875 2.15625l0 -2.765625q0 -0.5 -0.203125 -0.75q-0.203125 -0.265625 -0.640625 -0.265625q-0.3125 0 -0.53125 0.109375q-0.21875 0.09375 -0.359375 0.296875q-0.125 0.203125 -0.1875 0.5q-0.046875 0.28125 -0.046875 0.65625l0 2.21875l-0.703125 0l0 -4.296875l0.578125 0l0.09375 0.578125l0.046875 0q0.09375 -0.15625 0.21875 -0.28125q0.140625 -0.125 0.296875 -0.203125q0.171875 -0.09375 0.34375 -0.125q0.1875 -0.046875 0.375 -0.046875q0.703125 0 1.0625 0.375q0.375 0.375 0.375 1.203125l0 2.796875l-0.71875 0z" fill-rule="nonzero"></path><path fill="#f90505" fill-opacity="0.2538" d="m224.73753 42.123486l0 0c0 -3.4761314 2.8179626 -6.2940903 6.2940826 -6.2940903l32.451202 0c1.669281 0 3.2702026 0.6631279 4.450592 1.8434982c1.1803589 1.1803703 1.8435059 2.7812958 1.8435059 4.450592l0 25.175602c0 3.4761276 -2.8179626 6.2940903 -6.294098 6.2940903l-32.451202 0c-3.47612 0 -6.2940826 -2.8179626 -6.2940826 -6.2940903z" fill-rule="nonzero"></path><path stroke="#b7b7b7" stroke-width="1.0" stroke-linejoin="round" stroke-linecap="butt" stroke-dasharray="8.0,3.0" d="m224.73753 42.123486l0 0c0 -3.4761314 2.8179626 -6.2940903 6.2940826 -6.2940903l32.451202 0c1.669281 0 3.2702026 0.6631279 4.450592 1.8434982c1.1803589 1.1803703 1.8435059 2.7812958 1.8435059 4.450592l0 25.175602c0 3.4761276 -2.8179626 6.2940903 -6.294098 6.2940903l-32.451202 0c-3.47612 0 -6.2940826 -2.8179626 -6.2940826 -6.2940903z" fill-rule="nonzero"></path><path fill="#000000" d="m235.95023 55.077534l0 2.1875l1.296875 0q0.3125 0 0.453125 0.125q0.140625 0.125 0.140625 0.328125q0 0.203125 -0.140625 0.328125q-0.140625 0.125 -0.453125 0.125l-2.734375 0q-0.3125 0 -0.453125 -0.125q-0.140625 -0.125 -0.140625 -0.328125q0 -0.203125 0.140625 -0.328125q0.140625 -0.125 0.453125 -0.125l0.546875 0l0 -2.1875l-0.4375 0q-0.328125 0 -0.46875 -0.125q-0.125 -0.125 -0.125 -0.328125q0 -0.1875 0.125 -0.3125q0.140625 -0.125 0.46875 -0.125l0.4375 0l0 -0.34375q0 -0.59375 0.4375 -0.984375q0.4375 -0.390625 1.28125 -0.390625q0.375 0 0.859375 0.078125q0.5 0.0625 0.625 0.1875q0.140625 0.125 0.140625 0.3125q0 0.203125 -0.125 0.34375q-0.109375 0.125 -0.296875 0.125q-0.078125 0 -0.25 -0.03125q-0.5625 -0.109375 -0.984375 -0.109375q-0.453125 0 -0.625 0.140625q-0.171875 0.125 -0.171875 0.328125l0 0.34375l1.390625 0q0.328125 0 0.46875 0.125q0.140625 0.125 0.140625 0.328125q0 0.1875 -0.140625 0.3125q-0.140625 0.125 -0.46875 0.125l-1.390625 0zm6.4259186 3.09375l0 -0.21875q-0.34375 0.1875 -0.75 0.28125q-0.40625 0.09375 -0.75 0.09375q-0.71875 0 -1.171875 -0.390625q-0.453125 -0.390625 -0.453125 -0.84375q0 -0.578125 0.578125 -1.0625q0.578125 -0.484375 1.59375 -0.484375q0.40625 0 0.953125 0.09375l0 -0.21875q0 -0.203125 -0.171875 -0.328125q-0.171875 -0.125 -0.671875 -0.125q-0.390625 0 -1.03125 0.15625q-0.234375 0.046875 -0.375 0.046875q-0.171875 0 -0.296875 -0.125q-0.125 -0.125 -0.125 -0.328125q0 -0.109375 0.03125 -0.1875q0.046875 -0.09375 0.125 -0.140625q0.078125 -0.0625 0.34375 -0.125q0.328125 -0.09375 0.671875 -0.140625q0.34375 -0.0625 0.625 -0.0625q0.84375 0 1.296875 0.359375q0.46875 0.359375 0.46875 1.0l0 1.84375l0.15625 0q0.328125 0 0.46875 0.125q0.140625 0.125 0.140625 0.328125q0 0.203125 -0.140625 0.328125q-0.140625 0.125 -0.46875 0.125l-1.046875 0zm0 -1.609375q-0.546875 -0.109375 -1.0 -0.109375q-0.546875 0 -0.953125 0.265625q-0.234375 0.171875 -0.234375 0.34375q0 0.140625 0.109375 0.21875q0.21875 0.140625 0.609375 0.140625q0.328125 0 0.734375 -0.125q0.40625 -0.125 0.734375 -0.34375l0 -0.390625zm5.2384186 -4.09375l0 4.796875l1.078125 0q0.328125 0 0.453125 0.125q0.140625 0.125 0.140625 0.328125q0 0.203125 -0.140625 0.328125q-0.125 0.125 -0.453125 0.125l-3.0625 0q-0.328125 0 -0.46875 -0.125q-0.140625 -0.125 -0.140625 -0.328125q0 -0.203125 0.140625 -0.328125q0.140625 -0.125 0.46875 -0.125l1.078125 0l0 -3.890625l-0.71875 0q-0.328125 0 -0.46875 -0.125q-0.140625 -0.125 -0.140625 -0.328125q0 -0.203125 0.140625 -0.328125q0.140625 -0.125 0.46875 -0.125l1.625 0zm6.1134186 2.765625q-0.21875 -0.140625 -0.46875 -0.203125q-0.234375 -0.0625 -0.5 -0.0625q-0.515625 0 -0.828125 0.171875q-0.140625 0.0625 -0.140625 0.15625q0 0.109375 0.1875 0.203125q0.140625 0.0625 0.625 0.125q0.90625 0.125 1.25 0.25q0.46875 0.171875 0.71875 0.5q0.25 0.3125 0.25 0.65625q0 0.484375 -0.421875 0.8125q-0.609375 0.46875 -1.59375 0.46875q-0.390625 0 -0.71875 -0.0625q-0.328125 -0.0625 -0.609375 -0.203125q-0.0625 0.0625 -0.140625 0.09375q-0.078125 0.03125 -0.15625 0.03125q-0.203125 0 -0.34375 -0.140625q-0.125 -0.140625 -0.125 -0.46875l0 -0.296875q0 -0.328125 0.125 -0.46875q0.140625 -0.140625 0.328125 -0.140625q0.171875 0 0.28125 0.09375q0.109375 0.09375 0.171875 0.3125q0.203125 0.171875 0.484375 0.265625q0.296875 0.09375 0.671875 0.09375q0.625 0 0.96875 -0.203125q0.15625 -0.09375 0.15625 -0.203125q0 -0.171875 -0.234375 -0.28125q-0.21875 -0.125 -0.953125 -0.203125q-1.09375 -0.109375 -1.453125 -0.4375q-0.359375 -0.3125 -0.359375 -0.78125q0 -0.484375 0.40625 -0.8125q0.546875 -0.4375 1.453125 -0.4375q0.3125 0 0.59375 0.0625q0.296875 0.0625 0.546875 0.171875q0.09375 -0.046875 0.15625 -0.078125q0.078125 -0.03125 0.140625 -0.03125q0.1875 0 0.3125 0.140625q0.125 0.125 0.125 0.453125l0 0.21875q0 0.296875 -0.078125 0.40625q-0.140625 0.203125 -0.375 0.203125q-0.171875 0 -0.296875 -0.09375q-0.125 -0.109375 -0.15625 -0.28125zm6.8946686 1.40625l-3.703125 0q0.140625 0.34375 0.5 0.5625q0.359375 0.21875 0.96875 0.21875q0.5 0 1.328125 -0.21875q0.34375 -0.09375 0.484375 -0.09375q0.171875 0 0.296875 0.140625q0.125 0.125 0.125 0.3125q0 0.171875 -0.140625 0.296875q-0.171875 0.15625 -0.859375 0.3125q-0.671875 0.140625 -1.296875 0.140625q-1.078125 0 -1.734375 -0.609375q-0.640625 -0.609375 -0.640625 -1.5q0 -0.953125 0.6875 -1.546875q0.703125 -0.59375 1.625 -0.59375q0.546875 0 1.0 0.203125q0.46875 0.1875 0.6875 0.40625q0.3125 0.328125 0.53125 0.8125q0.140625 0.328125 0.140625 0.765625l0 0.390625zm-1.0 -0.90625q-0.21875 -0.390625 -0.546875 -0.578125q-0.328125 -0.1875 -0.796875 -0.1875q-0.453125 0 -0.796875 0.1875q-0.328125 0.1875 -0.53125 0.578125l2.671875 0z" fill-rule="nonzero"></path><path fill="#d9ead3" d="m224.73753 91.81115l0 0c0 -3.4761276 2.8179626 -6.2940903 6.2940826 -6.2940903l32.451202 0c1.669281 0 3.2702026 0.6631241 4.450592 1.8434982c1.1803589 1.1803665 1.8435059 2.7812958 1.8435059 4.450592l0 25.175598c0 3.4761353 -2.8179626 6.2940903 -6.294098 6.2940903l-32.451202 0c-3.47612 0 -6.2940826 -2.817955 -6.2940826 -6.2940903z" fill-rule="nonzero"></path><path stroke="#b7b7b7" stroke-width="1.0" stroke-linejoin="round" stroke-linecap="butt" d="m224.73753 91.81115l0 0c0 -3.4761276 2.8179626 -6.2940903 6.2940826 -6.2940903l32.451202 0c1.669281 0 3.2702026 0.6631241 4.450592 1.8434982c1.1803589 1.1803665 1.8435059 2.7812958 1.8435059 4.450592l0 25.175598c0 3.4761353 -2.8179626 6.2940903 -6.294098 6.2940903l-32.451202 0c-3.47612 0 -6.2940826 -2.817955 -6.2940826 -6.2940903z" fill-rule="nonzero"></path><path fill="#000000" d="m238.546 104.7652l0 1.8125q0 0.28125 0.109375 0.375q0.1875 0.15625 0.65625 0.15625q0.703125 0 1.28125 -0.296875q0.21875 -0.125 0.34375 -0.125q0.1875 0 0.3125 0.140625q0.125 0.125 0.125 0.3125q0 0.1875 -0.140625 0.3125q-0.203125 0.203125 -0.84375 0.375q-0.640625 0.171875 -1.078125 0.171875q-0.828125 0 -1.25 -0.359375q-0.421875 -0.359375 -0.421875 -0.890625l0 -1.984375l-0.328125 0q-0.328125 0 -0.46875 -0.125q-0.125 -0.125 -0.125 -0.328125q0 -0.1875 0.125 -0.3125q0.140625 -0.125 0.46875 -0.125l0.328125 0l0 -0.8125q0 -0.328125 0.125 -0.46875q0.125 -0.140625 0.328125 -0.140625q0.203125 0 0.328125 0.140625q0.125 0.140625 0.125 0.46875l0 0.8125l1.65625 0q0.328125 0 0.46875 0.125q0.140625 0.125 0.140625 0.328125q0 0.1875 -0.140625 0.3125q-0.140625 0.125 -0.46875 0.125l-1.65625 0zm5.6290436 -0.890625l0 0.5625q0.5625 -0.421875 0.890625 -0.546875q0.328125 -0.140625 0.609375 -0.140625q0.4375 0 0.859375 0.328125q0.28125 0.21875 0.28125 0.453125q0 0.1875 -0.140625 0.328125q-0.125 0.125 -0.3125 0.125q-0.171875 0 -0.359375 -0.15625q-0.1875 -0.171875 -0.328125 -0.171875q-0.1875 0 -0.5625 0.234375q-0.375 0.234375 -0.9375 0.703125l0 1.359375l1.28125 0q0.328125 0 0.46875 0.125q0.140625 0.125 0.140625 0.328125q0 0.203125 -0.140625 0.328125q-0.140625 0.125 -0.46875 0.125l-2.71875 0q-0.328125 0 -0.46875 -0.125q-0.140625 -0.125 -0.140625 -0.328125q0 -0.203125 0.140625 -0.328125q0.140625 -0.125 0.46875 -0.125l0.53125 0l0 -2.1875l-0.328125 0q-0.3125 0 -0.453125 -0.125q-0.140625 -0.125 -0.140625 -0.328125q0 -0.1875 0.140625 -0.3125q0.140625 -0.125 0.453125 -0.125l1.234375 0zm7.6915436 0l0 3.078125q0.296875 0 0.421875 0.140625q0.140625 0.125 0.140625 0.3125q0 0.203125 -0.140625 0.328125q-0.140625 0.125 -0.453125 0.125l-0.859375 0l0 -0.203125q-0.390625 0.171875 -0.75 0.25q-0.34375 0.09375 -0.65625 0.09375q-0.453125 0 -0.78125 -0.1875q-0.3125 -0.1875 -0.5 -0.515625q-0.140625 -0.234375 -0.140625 -0.59375l0 -1.9375l-0.15625 0q-0.328125 0 -0.46875 -0.125q-0.140625 -0.125 -0.140625 -0.328125q0 -0.1875 0.140625 -0.3125q0.140625 -0.125 0.46875 -0.125l1.046875 0l0 2.671875q0 0.28125 0.140625 0.421875q0.140625 0.140625 0.421875 0.140625q0.28125 0 0.59375 -0.109375q0.3125 -0.109375 0.78125 -0.390625l0 -1.84375l-0.328125 0q-0.328125 0 -0.46875 -0.125q-0.140625 -0.125 -0.140625 -0.328125q0 -0.1875 0.140625 -0.3125q0.140625 -0.125 0.46875 -0.125l1.21875 0zm5.9571686 2.453125l-3.703125 0q0.140625 0.34375 0.5 0.5625q0.359375 0.21875 0.96875 0.21875q0.5 0 1.328125 -0.21875q0.34375 -0.09375 0.484375 -0.09375q0.171875 0 0.296875 0.140625q0.125 0.125 0.125 0.3125q0 0.171875 -0.140625 0.296875q-0.171875 0.15625 -0.859375 0.3125q-0.671875 0.140625 -1.296875 0.140625q-1.078125 0 -1.734375 -0.609375q-0.640625 -0.609375 -0.640625 -1.5q0 -0.953125 0.6875 -1.546875q0.703125 -0.59375 1.625 -0.59375q0.546875 0 1.0 0.203125q0.46875 0.1875 0.6875 0.40625q0.3125 0.328125 0.53125 0.8125q0.140625 0.328125 0.140625 0.765625l0 0.390625zm-1.0 -0.90625q-0.21875 -0.390625 -0.546875 -0.578125q-0.328125 -0.1875 -0.796875 -0.1875q-0.453125 0 -0.796875 0.1875q-0.328125 0.1875 -0.53125 0.578125l2.671875 0z" fill-rule="nonzero"></path><path fill="#674ea7" d="m323.5282 91.81115l0 0c0 -3.4761276 2.8179626 -6.2940903 6.2940674 -6.2940903l47.884277 0c1.669281 0 3.2702332 0.6631241 4.450592 1.8434982c1.1803589 1.1803665 1.8435059 2.7812958 1.8435059 4.450592l0 25.175598c0 3.4761353 -2.8179626 6.2940903 -6.294098 6.2940903l-47.884277 0c-3.4761047 0 -6.2940674 -2.817955 -6.2940674 -6.2940903z" fill-rule="nonzero"></path><path stroke="#b7b7b7" stroke-width="1.0" stroke-linejoin="round" stroke-linecap="butt" stroke-dasharray="8.0,3.0" d="m323.5282 91.81115l0 0c0 -3.4761276 2.8179626 -6.2940903 6.2940674 -6.2940903l47.884277 0c1.669281 0 3.2702332 0.6631241 4.450592 1.8434982c1.1803589 1.1803665 1.8435059 2.7812958 1.8435059 4.450592l0 25.175598c0 3.4761353 -2.8179626 6.2940903 -6.294098 6.2940903l-47.884277 0c-3.4761047 0 -6.2940674 -2.817955 -6.2940674 -6.2940903z" fill-rule="nonzero"></path><path fill="#ffffff" d="m336.1711 104.13895q0 0.984375 -0.265625 1.734375q-0.25 0.75 -0.75 1.265625q-0.484375 0.5 -1.203125 0.75q-0.703125 0.25 -1.609375 0.25l-1.96875 0l0 -7.859375l2.1875 0q0.828125 0 1.484375 0.25q0.671875 0.25 1.140625 0.734375q0.46875 0.484375 0.71875 1.203125q0.265625 0.71875 0.265625 1.671875zm-1.0625 0.03125q0 -0.78125 -0.1875 -1.34375q-0.171875 -0.578125 -0.515625 -0.953125q-0.328125 -0.375 -0.828125 -0.546875q-0.484375 -0.1875 -1.125 -0.1875l-1.078125 0l0 6.140625l0.875 0q1.421875 0 2.140625 -0.78125q0.71875 -0.78125 0.71875 -2.328125zm4.7585144 4.078125q-0.59375 0 -1.078125 -0.203125q-0.484375 -0.203125 -0.84375 -0.578125q-0.34375 -0.375 -0.546875 -0.9375q-0.1875 -0.578125 -0.1875 -1.296875q0 -0.734375 0.171875 -1.296875q0.1875 -0.578125 0.5 -0.984375q0.328125 -0.40625 0.765625 -0.609375q0.453125 -0.203125 1.0 -0.203125q0.53125 0 0.953125 0.1875q0.421875 0.1875 0.71875 0.53125q0.296875 0.34375 0.453125 0.84375q0.15625 0.484375 0.15625 1.0625l0 0.609375l-3.71875 0q0.03125 1.046875 0.4375 1.53125q0.421875 0.484375 1.234375 0.484375q0.265625 0 0.5 -0.015625q0.234375 -0.03125 0.453125 -0.078125q0.21875 -0.0625 0.421875 -0.140625q0.203125 -0.078125 0.421875 -0.171875l0 0.875q-0.21875 0.09375 -0.4375 0.171875q-0.203125 0.078125 -0.421875 0.125q-0.21875 0.046875 -0.453125 0.0625q-0.21875 0.03125 -0.5 0.03125zm-0.234375 -5.296875q-0.625 0 -0.984375 0.421875q-0.34375 0.40625 -0.40625 1.203125l2.640625 0q0 -0.359375 -0.078125 -0.65625q-0.0625 -0.3125 -0.21875 -0.515625q-0.15625 -0.21875 -0.390625 -0.328125q-0.234375 -0.125 -0.5625 -0.125zm4.687134 5.1875l-2.015625 -5.890625l1.015625 0l1.0625 3.28125q0.0625 0.171875 0.140625 0.453125q0.078125 0.28125 0.15625 0.578125q0.078125 0.28125 0.140625 0.546875q0.078125 0.25 0.09375 0.375l0.046875 0q0.03125 -0.125 0.09375 -0.375q0.0625 -0.265625 0.140625 -0.546875q0.078125 -0.296875 0.15625 -0.578125q0.078125 -0.28125 0.140625 -0.453125l1.078125 -3.28125l1.0 0l-2.015625 5.890625l-1.234375 0zm6.35437 0.109375q-0.59375 0 -1.078125 -0.203125q-0.484375 -0.203125 -0.84375 -0.578125q-0.34375 -0.375 -0.546875 -0.9375q-0.1875 -0.578125 -0.1875 -1.296875q0 -0.734375 0.171875 -1.296875q0.1875 -0.578125 0.5 -0.984375q0.328125 -0.40625 0.765625 -0.609375q0.453125 -0.203125 1.0 -0.203125q0.53125 0 0.953125 0.1875q0.421875 0.1875 0.71875 0.53125q0.296875 0.34375 0.453125 0.84375q0.15625 0.484375 0.15625 1.0625l0 0.609375l-3.71875 0q0.03125 1.046875 0.4375 1.53125q0.421875 0.484375 1.234375 0.484375q0.265625 0 0.5 -0.015625q0.234375 -0.03125 0.453125 -0.078125q0.21875 -0.0625 0.421875 -0.140625q0.203125 -0.078125 0.421875 -0.171875l0 0.875q-0.21875 0.09375 -0.4375 0.171875q-0.203125 0.078125 -0.421875 0.125q-0.21875 0.046875 -0.453125 0.0625q-0.21875 0.03125 -0.5 0.03125zm-0.234375 -5.296875q-0.625 0 -0.984375 0.421875q-0.34375 0.40625 -0.40625 1.203125l2.640625 0q0 -0.359375 -0.078125 -0.65625q-0.0625 -0.3125 -0.21875 -0.515625q-0.15625 -0.21875 -0.390625 -0.328125q-0.234375 -0.125 -0.5625 -0.125zm4.577759 5.1875l-0.96875 0l0 -8.359375l0.96875 0l0 8.359375zm6.585846 -2.953125q0 0.734375 -0.1875 1.3125q-0.171875 0.5625 -0.515625 0.953125q-0.328125 0.390625 -0.8125 0.59375q-0.46875 0.203125 -1.0625 0.203125q-0.546875 0 -1.015625 -0.203125q-0.46875 -0.203125 -0.8125 -0.59375q-0.34375 -0.390625 -0.53125 -0.953125q-0.1875 -0.578125 -0.1875 -1.3125q0 -0.734375 0.171875 -1.296875q0.1875 -0.578125 0.515625 -0.96875q0.34375 -0.390625 0.8125 -0.578125q0.484375 -0.203125 1.078125 -0.203125q0.5625 0 1.015625 0.203125q0.46875 0.1875 0.8125 0.578125q0.34375 0.390625 0.53125 0.96875q0.1875 0.5625 0.1875 1.296875zm-4.125 0q0 1.109375 0.375 1.6875q0.375 0.5625 1.203125 0.5625q0.8125 0 1.171875 -0.5625q0.375 -0.578125 0.375 -1.6875q0 -1.125 -0.375 -1.671875q-0.359375 -0.5625 -1.1875 -0.5625q-0.828125 0 -1.203125 0.5625q-0.359375 0.546875 -0.359375 1.671875zm8.134613 3.0625q-0.3125 0 -0.578125 -0.078125q-0.25 -0.0625 -0.453125 -0.171875q-0.203125 -0.125 -0.375 -0.28125q-0.15625 -0.15625 -0.28125 -0.328125l-0.0625 0q0.015625 0.1875 0.03125 0.359375q0.015625 0.125 0.015625 0.28125q0.015625 0.140625 0.015625 0.234375l0 2.515625l-0.96875 0l0 -8.53125l0.796875 0l0.140625 0.78125l0.03125 0q0.125 -0.1875 0.28125 -0.34375q0.15625 -0.171875 0.359375 -0.28125q0.21875 -0.125 0.46875 -0.1875q0.265625 -0.078125 0.578125 -0.078125q0.515625 0 0.921875 0.1875q0.421875 0.1875 0.703125 0.578125q0.296875 0.390625 0.453125 0.953125q0.171875 0.5625 0.171875 1.328125q0 0.75 -0.171875 1.328125q-0.15625 0.5625 -0.453125 0.953125q-0.28125 0.390625 -0.703125 0.59375q-0.40625 0.1875 -0.921875 0.1875zm-0.1875 -5.296875q-0.40625 0 -0.6875 0.125q-0.28125 0.109375 -0.453125 0.375q-0.171875 0.25 -0.265625 0.625q-0.078125 0.375 -0.09375 0.875l0 0.234375q0 0.53125 0.078125 0.953125q0.078125 0.421875 0.25 0.71875q0.171875 0.28125 0.453125 0.4375q0.296875 0.140625 0.734375 0.140625q0.71875 0 1.0625 -0.578125q0.34375 -0.59375 0.34375 -1.6875q0 -1.125 -0.34375 -1.671875q-0.34375 -0.546875 -1.078125 -0.546875zm6.1032715 5.296875q-0.59375 0 -1.078125 -0.203125q-0.484375 -0.203125 -0.84375 -0.578125q-0.34375 -0.375 -0.546875 -0.9375q-0.1875 -0.578125 -0.1875 -1.296875q0 -0.734375 0.171875 -1.296875q0.1875 -0.578125 0.5 -0.984375q0.328125 -0.40625 0.765625 -0.609375q0.453125 -0.203125 1.0 -0.203125q0.53125 0 0.953125 0.1875q0.421875 0.1875 0.71875 0.53125q0.296875 0.34375 0.453125 0.84375q0.15625 0.484375 0.15625 1.0625l0 0.609375l-3.71875 0q0.03125 1.046875 0.4375 1.53125q0.421875 0.484375 1.234375 0.484375q0.265625 0 0.5 -0.015625q0.234375 -0.03125 0.453125 -0.078125q0.21875 -0.0625 0.421875 -0.140625q0.203125 -0.078125 0.421875 -0.171875l0 0.875q-0.21875 0.09375 -0.4375 0.171875q-0.203125 0.078125 -0.421875 0.125q-0.21875 0.046875 -0.453125 0.0625q-0.21875 0.03125 -0.5 0.03125zm-0.234375 -5.296875q-0.625 0 -0.984375 0.421875q-0.34375 0.40625 -0.40625 1.203125l2.640625 0q0 -0.359375 -0.078125 -0.65625q-0.0625 -0.3125 -0.21875 -0.515625q-0.15625 -0.21875 -0.390625 -0.328125q-0.234375 -0.125 -0.5625 -0.125zm6.155884 -0.8125q0.15625 0 0.34375 0.015625q0.203125 0 0.34375 0.03125l-0.125 0.90625q-0.15625 -0.03125 -0.3125 -0.046875q-0.15625 -0.015625 -0.296875 -0.015625q-0.34375 0 -0.625 0.140625q-0.28125 0.125 -0.484375 0.390625q-0.203125 0.25 -0.3125 0.609375q-0.109375 0.359375 -0.109375 0.78125l0 3.1875l-0.96875 0l0 -5.890625l0.796875 0l0.109375 1.078125l0.046875 0q0.140625 -0.234375 0.28125 -0.453125q0.15625 -0.21875 0.34375 -0.375q0.203125 -0.171875 0.4375 -0.265625q0.234375 -0.09375 0.53125 -0.09375z" fill-rule="nonzero"></path><path fill="#666666" d="m172.92651 49.545933l41.480316 0l0 -5.1653557l10.330704 10.330708l-10.330704 10.330708l0 -5.165352l-41.480316 0z" fill-rule="nonzero"></path><path stroke="#000000" stroke-width="1.0" stroke-linejoin="round" stroke-linecap="butt" d="m172.92651 49.545933l41.480316 0l0 -5.1653557l10.330704 10.330708l-10.330704 10.330708l0 -5.165352l-41.480316 0z" fill-rule="nonzero"></path><path fill="#ffffff" d="m184.45776 53.016285q0.125 0 0.265625 0.015625q0.140625 0.015625 0.234375 0.03125l-0.09375 0.65625q-0.109375 -0.015625 -0.234375 -0.03125q-0.109375 -0.015625 -0.203125 -0.015625q-0.25 0 -0.453125 0.109375q-0.203125 0.09375 -0.359375 0.28125q-0.140625 0.171875 -0.21875 0.4375q-0.078125 0.265625 -0.078125 0.578125l0 2.3125l-0.703125 0l0 -4.296875l0.578125 0l0.078125 0.796875l0.03125 0q0.09375 -0.171875 0.203125 -0.328125q0.125 -0.15625 0.25 -0.265625q0.140625 -0.125 0.3125 -0.203125q0.171875 -0.078125 0.390625 -0.078125zm3.0351562 4.453125q-0.421875 0 -0.78125 -0.140625q-0.359375 -0.15625 -0.625 -0.421875q-0.25 -0.28125 -0.390625 -0.6875q-0.140625 -0.421875 -0.140625 -0.9375q0 -0.53125 0.125 -0.953125q0.140625 -0.421875 0.375 -0.703125q0.234375 -0.296875 0.5625 -0.453125q0.328125 -0.15625 0.71875 -0.15625q0.390625 0 0.6875 0.140625q0.3125 0.140625 0.53125 0.390625q0.21875 0.25 0.328125 0.609375q0.109375 0.359375 0.109375 0.78125l0 0.4375l-2.703125 0q0.03125 0.765625 0.328125 1.125q0.296875 0.34375 0.890625 0.34375q0.1875 0 0.359375 -0.015625q0.171875 -0.015625 0.328125 -0.046875q0.15625 -0.046875 0.296875 -0.09375q0.15625 -0.0625 0.3125 -0.140625l0 0.640625q-0.15625 0.0625 -0.3125 0.125q-0.140625 0.046875 -0.296875 0.078125q-0.15625 0.046875 -0.328125 0.0625q-0.171875 0.015625 -0.375 0.015625zm-0.171875 -3.859375q-0.453125 0 -0.71875 0.3125q-0.25 0.296875 -0.296875 0.875l1.921875 0q0 -0.265625 -0.046875 -0.484375q-0.046875 -0.21875 -0.171875 -0.375q-0.109375 -0.15625 -0.28125 -0.234375q-0.171875 -0.09375 -0.40625 -0.09375zm4.0625 3.28125q0.0625 0 0.140625 0q0.09375 -0.015625 0.171875 -0.03125q0.09375 -0.015625 0.15625 -0.03125q0.078125 -0.015625 0.109375 -0.03125l0 0.546875q-0.046875 0.015625 -0.125 0.046875q-0.078125 0.03125 -0.171875 0.046875q-0.09375 0.015625 -0.203125 0.015625q-0.09375 0.015625 -0.203125 0.015625q-0.234375 0 -0.453125 -0.0625q-0.203125 -0.0625 -0.359375 -0.21875q-0.140625 -0.15625 -0.234375 -0.40625q-0.078125 -0.265625 -0.078125 -0.65625l0 -2.484375l-0.609375 0l0 -0.328125l0.609375 -0.296875l0.3125 -0.90625l0.40625 0l0 0.984375l1.078125 0l0 0.546875l-1.078125 0l0 2.484375q0 0.375 0.125 0.578125q0.125 0.1875 0.40625 0.1875zm4.1796875 0.5l-0.09375 -0.578125l-0.046875 0q-0.09375 0.171875 -0.234375 0.296875q-0.125 0.125 -0.296875 0.203125q-0.15625 0.078125 -0.34375 0.109375q-0.171875 0.046875 -0.359375 0.046875q-0.359375 0 -0.625 -0.09375q-0.265625 -0.09375 -0.453125 -0.28125q-0.171875 -0.1875 -0.265625 -0.484375q-0.09375 -0.296875 -0.09375 -0.703125l0 -2.8125l0.71875 0l0 2.765625q0 0.515625 0.203125 0.765625q0.203125 0.25 0.640625 0.25q0.3125 0 0.53125 -0.09375q0.21875 -0.109375 0.34375 -0.296875q0.125 -0.203125 0.1875 -0.484375q0.0625 -0.296875 0.0625 -0.671875l0 -2.234375l0.703125 0l0 4.296875l-0.578125 0zm3.7890625 -4.375q0.125 0 0.265625 0.015625q0.140625 0.015625 0.234375 0.03125l-0.09375 0.65625q-0.109375 -0.015625 -0.234375 -0.03125q-0.109375 -0.015625 -0.203125 -0.015625q-0.25 0 -0.453125 0.109375q-0.203125 0.09375 -0.359375 0.28125q-0.140625 0.171875 -0.21875 0.4375q-0.078125 0.265625 -0.078125 0.578125l0 2.3125l-0.703125 0l0 -4.296875l0.578125 0l0.078125 0.796875l0.03125 0q0.09375 -0.171875 0.203125 -0.328125q0.125 -0.15625 0.25 -0.265625q0.140625 -0.125 0.3125 -0.203125q0.171875 -0.078125 0.390625 -0.078125zm4.0195312 4.375l0 -2.765625q0 -0.5 -0.203125 -0.75q-0.203125 -0.265625 -0.640625 -0.265625q-0.3125 0 -0.53125 0.109375q-0.21875 0.09375 -0.359375 0.296875q-0.125 0.203125 -0.1875 0.5q-0.046875 0.28125 -0.046875 0.65625l0 2.21875l-0.703125 0l0 -4.296875l0.578125 0l0.09375 0.578125l0.046875 0q0.09375 -0.15625 0.21875 -0.28125q0.140625 -0.125 0.296875 -0.203125q0.171875 -0.09375 0.34375 -0.125q0.1875 -0.046875 0.375 -0.046875q0.703125 0 1.0625 0.375q0.375 0.375 0.375 1.203125l0 2.796875l-0.71875 0zm4.6015625 -1.171875q0 0.3125 -0.125 0.546875q-0.109375 0.234375 -0.328125 0.390625q-0.203125 0.15625 -0.5 0.234375q-0.296875 0.078125 -0.671875 0.078125q-0.4375 0 -0.75 -0.078125q-0.296875 -0.0625 -0.515625 -0.1875l0 -0.65625q0.109375 0.0625 0.25 0.125q0.15625 0.0625 0.3125 0.109375q0.171875 0.046875 0.34375 0.078125q0.1875 0.03125 0.359375 0.03125q0.25 0 0.421875 -0.046875q0.1875 -0.046875 0.296875 -0.125q0.109375 -0.078125 0.15625 -0.1875q0.046875 -0.125 0.046875 -0.265625q0 -0.125 -0.046875 -0.21875q-0.03125 -0.09375 -0.140625 -0.1875q-0.09375 -0.09375 -0.28125 -0.1875q-0.171875 -0.109375 -0.453125 -0.234375q-0.28125 -0.109375 -0.515625 -0.21875q-0.21875 -0.125 -0.375 -0.265625q-0.15625 -0.15625 -0.234375 -0.34375q-0.078125 -0.1875 -0.078125 -0.453125q0 -0.265625 0.09375 -0.484375q0.109375 -0.21875 0.296875 -0.359375q0.203125 -0.140625 0.46875 -0.21875q0.28125 -0.078125 0.625 -0.078125q0.375 0 0.6875 0.09375q0.3125 0.078125 0.59375 0.203125l-0.234375 0.578125q-0.265625 -0.109375 -0.53125 -0.1875q-0.265625 -0.09375 -0.546875 -0.09375q-0.390625 0 -0.59375 0.140625q-0.1875 0.125 -0.1875 0.359375q0 0.140625 0.046875 0.25q0.046875 0.09375 0.15625 0.1875q0.109375 0.09375 0.296875 0.1875q0.1875 0.078125 0.453125 0.203125q0.28125 0.109375 0.5 0.234375q0.21875 0.109375 0.375 0.265625q0.15625 0.140625 0.234375 0.328125q0.09375 0.1875 0.09375 0.453125z" fill-rule="nonzero"></path><path fill="#666666" d="m172.92651 99.2336l41.480316 0l0 -5.165352l10.330704 10.330704l-10.330704 10.330711l0 -5.165352l-41.480316 0z" fill-rule="nonzero"></path><path stroke="#000000" stroke-width="1.0" stroke-linejoin="round" stroke-linecap="butt" d="m172.92651 99.2336l41.480316 0l0 -5.165352l10.330704 10.330704l-10.330704 10.330711l0 -5.165352l-41.480316 0z" fill-rule="nonzero"></path><path fill="#ffffff" d="m184.45776 102.70395q0.125 0 0.265625 0.015625q0.140625 0.015625 0.234375 0.03125l-0.09375 0.65625q-0.109375 -0.015625 -0.234375 -0.03125q-0.109375 -0.015625 -0.203125 -0.015625q-0.25 0 -0.453125 0.109375q-0.203125 0.09375 -0.359375 0.28125q-0.140625 0.171875 -0.21875 0.4375q-0.078125 0.265625 -0.078125 0.578125l0 2.3125l-0.703125 0l0 -4.296875l0.578125 0l0.078125 0.796875l0.03125 0q0.09375 -0.171875 0.203125 -0.328125q0.125 -0.15625 0.25 -0.265625q0.140625 -0.125 0.3125 -0.203125q0.171875 -0.078125 0.390625 -0.078125zm3.0351562 4.453125q-0.421875 0 -0.78125 -0.140625q-0.359375 -0.15625 -0.625 -0.421875q-0.25 -0.28125 -0.390625 -0.6875q-0.140625 -0.421875 -0.140625 -0.9375q0 -0.53125 0.125 -0.953125q0.140625 -0.421875 0.375 -0.703125q0.234375 -0.296875 0.5625 -0.453125q0.328125 -0.15625 0.71875 -0.15625q0.390625 0 0.6875 0.140625q0.3125 0.140625 0.53125 0.390625q0.21875 0.25 0.328125 0.609375q0.109375 0.359375 0.109375 0.78125l0 0.4375l-2.703125 0q0.03125 0.765625 0.328125 1.125q0.296875 0.34375 0.890625 0.34375q0.1875 0 0.359375 -0.015625q0.171875 -0.015625 0.328125 -0.046875q0.15625 -0.046875 0.296875 -0.09375q0.15625 -0.0625 0.3125 -0.140625l0 0.640625q-0.15625 0.0625 -0.3125 0.125q-0.140625 0.046875 -0.296875 0.078125q-0.15625 0.046875 -0.328125 0.0625q-0.171875 0.015625 -0.375 0.015625zm-0.171875 -3.859375q-0.453125 0 -0.71875 0.3125q-0.25 0.296875 -0.296875 0.875l1.921875 0q0 -0.265625 -0.046875 -0.484375q-0.046875 -0.21875 -0.171875 -0.375q-0.109375 -0.15625 -0.28125 -0.234375q-0.171875 -0.09375 -0.40625 -0.09375zm4.0625 3.28125q0.0625 0 0.140625 0q0.09375 -0.015625 0.171875 -0.03125q0.09375 -0.015625 0.15625 -0.03125q0.078125 -0.015625 0.109375 -0.03125l0 0.546875q-0.046875 0.015625 -0.125 0.046875q-0.078125 0.03125 -0.171875 0.046875q-0.09375 0.015625 -0.203125 0.015625q-0.09375 0.015625 -0.203125 0.015625q-0.234375 0 -0.453125 -0.0625q-0.203125 -0.0625 -0.359375 -0.21875q-0.140625 -0.15625 -0.234375 -0.40625q-0.078125 -0.265625 -0.078125 -0.65625l0 -2.484375l-0.609375 0l0 -0.328125l0.609375 -0.296875l0.3125 -0.90625l0.40625 0l0 0.984375l1.078125 0l0 0.546875l-1.078125 0l0 2.484375q0 0.375 0.125 0.578125q0.125 0.1875 0.40625 0.1875zm4.1796875 0.5l-0.09375 -0.578125l-0.046875 0q-0.09375 0.171875 -0.234375 0.296875q-0.125 0.125 -0.296875 0.203125q-0.15625 0.078125 -0.34375 0.109375q-0.171875 0.046875 -0.359375 0.046875q-0.359375 0 -0.625 -0.09375q-0.265625 -0.09375 -0.453125 -0.28125q-0.171875 -0.1875 -0.265625 -0.484375q-0.09375 -0.296875 -0.09375 -0.703125l0 -2.8125l0.71875 0l0 2.765625q0 0.515625 0.203125 0.765625q0.203125 0.25 0.640625 0.25q0.3125 0 0.53125 -0.09375q0.21875 -0.109375 0.34375 -0.296875q0.125 -0.203125 0.1875 -0.484375q0.0625 -0.296875 0.0625 -0.671875l0 -2.234375l0.703125 0l0 4.296875l-0.578125 0zm3.7890625 -4.375q0.125 0 0.265625 0.015625q0.140625 0.015625 0.234375 0.03125l-0.09375 0.65625q-0.109375 -0.015625 -0.234375 -0.03125q-0.109375 -0.015625 -0.203125 -0.015625q-0.25 0 -0.453125 0.109375q-0.203125 0.09375 -0.359375 0.28125q-0.140625 0.171875 -0.21875 0.4375q-0.078125 0.265625 -0.078125 0.578125l0 2.3125l-0.703125 0l0 -4.296875l0.578125 0l0.078125 0.796875l0.03125 0q0.09375 -0.171875 0.203125 -0.328125q0.125 -0.15625 0.25 -0.265625q0.140625 -0.125 0.3125 -0.203125q0.171875 -0.078125 0.390625 -0.078125zm4.0195312 4.375l0 -2.765625q0 -0.5 -0.203125 -0.75q-0.203125 -0.265625 -0.640625 -0.265625q-0.3125 0 -0.53125 0.109375q-0.21875 0.09375 -0.359375 0.296875q-0.125 0.203125 -0.1875 0.5q-0.046875 0.28125 -0.046875 0.65625l0 2.21875l-0.703125 0l0 -4.296875l0.578125 0l0.09375 0.578125l0.046875 0q0.09375 -0.15625 0.21875 -0.28125q0.140625 -0.125 0.296875 -0.203125q0.171875 -0.09375 0.34375 -0.125q0.1875 -0.046875 0.375 -0.046875q0.703125 0 1.0625 0.375q0.375 0.375 0.375 1.203125l0 2.796875l-0.71875 0zm4.6015625 -1.171875q0 0.3125 -0.125 0.546875q-0.109375 0.234375 -0.328125 0.390625q-0.203125 0.15625 -0.5 0.234375q-0.296875 0.078125 -0.671875 0.078125q-0.4375 0 -0.75 -0.078125q-0.296875 -0.0625 -0.515625 -0.1875l0 -0.65625q0.109375 0.0625 0.25 0.125q0.15625 0.0625 0.3125 0.109375q0.171875 0.046875 0.34375 0.078125q0.1875 0.03125 0.359375 0.03125q0.25 0 0.421875 -0.046875q0.1875 -0.046875 0.296875 -0.125q0.109375 -0.078125 0.15625 -0.1875q0.046875 -0.125 0.046875 -0.265625q0 -0.125 -0.046875 -0.21875q-0.03125 -0.09375 -0.140625 -0.1875q-0.09375 -0.09375 -0.28125 -0.1875q-0.171875 -0.109375 -0.453125 -0.234375q-0.28125 -0.109375 -0.515625 -0.21875q-0.21875 -0.125 -0.375 -0.265625q-0.15625 -0.15625 -0.234375 -0.34375q-0.078125 -0.1875 -0.078125 -0.453125q0 -0.265625 0.09375 -0.484375q0.109375 -0.21875 0.296875 -0.359375q0.203125 -0.140625 0.46875 -0.21875q0.28125 -0.078125 0.625 -0.078125q0.375 0 0.6875 0.09375q0.3125 0.078125 0.59375 0.203125l-0.234375 0.578125q-0.265625 -0.109375 -0.53125 -0.1875q-0.265625 -0.09375 -0.546875 -0.09375q-0.390625 0 -0.59375 0.140625q-0.1875 0.125 -0.1875 0.359375q0 0.140625 0.046875 0.25q0.046875 0.09375 0.15625 0.1875q0.109375 0.09375 0.296875 0.1875q0.1875 0.078125 0.453125 0.203125q0.28125 0.109375 0.5 0.234375q0.21875 0.109375 0.375 0.265625q0.15625 0.140625 0.234375 0.328125q0.09375 0.1875 0.09375 0.453125z" fill-rule="nonzero"></path><path fill="#000000" fill-opacity="0.0" d="m75.76378 54.711285l22.3937 0" fill-rule="nonzero"></path><path stroke="#351c75" stroke-width="1.0" stroke-linejoin="round" stroke-linecap="butt" d="m75.76378 54.711285l18.966621 0" fill-rule="evenodd"></path><path fill="#351c75" stroke="#351c75" stroke-width="1.0" stroke-linecap="butt" d="m94.73039 54.711285l-1.1245804 1.1245842l3.0897675 -1.1245842l-3.0897675 -1.1245804z" fill-rule="evenodd"></path><path fill="#000000" fill-opacity="0.0" d="m75.76378 104.39895l22.3937 0" fill-rule="nonzero"></path><path stroke="#351c75" stroke-width="1.0" stroke-linejoin="round" stroke-linecap="butt" d="m75.76378 104.39895l18.966621 0" fill-rule="evenodd"></path><path fill="#351c75" stroke="#351c75" stroke-width="1.0" stroke-linecap="butt" d="m94.73039 104.39895l-1.1245804 1.124588l3.0897675 -1.124588l-3.0897675 -1.1245804z" fill-rule="evenodd"></path><path fill="#d9d2e9" d="m269.77692 99.2336l43.433044 0l0 -5.165352l10.330719 10.330704l-10.330719 10.330711l0 -5.165352l-43.433044 0z" fill-rule="nonzero"></path><path stroke="#000000" stroke-width="1.0" stroke-linejoin="round" stroke-linecap="butt" d="m269.77692 99.2336l43.433044 0l0 -5.165352l10.330719 10.330704l-10.330719 10.330711l0 -5.165352l-43.433044 0z" fill-rule="nonzero"></path><path fill="#000000" d="m281.30817 102.70395q0.125 0 0.265625 0.015625q0.140625 0.015625 0.234375 0.03125l-0.09375 0.65625q-0.109375 -0.015625 -0.234375 -0.03125q-0.109375 -0.015625 -0.203125 -0.015625q-0.25 0 -0.453125 0.109375q-0.203125 0.09375 -0.359375 0.28125q-0.140625 0.171875 -0.21875 0.4375q-0.078125 0.265625 -0.078125 0.578125l0 2.3125l-0.703125 0l0 -4.296875l0.578125 0l0.078125 0.796875l0.03125 0q0.09375 -0.171875 0.203125 -0.328125q0.125 -0.15625 0.25 -0.265625q0.140625 -0.125 0.3125 -0.203125q0.171875 -0.078125 0.390625 -0.078125zm3.0351562 4.453125q-0.421875 0 -0.78125 -0.140625q-0.359375 -0.15625 -0.625 -0.421875q-0.25 -0.28125 -0.390625 -0.6875q-0.140625 -0.421875 -0.140625 -0.9375q0 -0.53125 0.125 -0.953125q0.140625 -0.421875 0.375 -0.703125q0.234375 -0.296875 0.5625 -0.453125q0.328125 -0.15625 0.71875 -0.15625q0.390625 0 0.6875 0.140625q0.3125 0.140625 0.53125 0.390625q0.21875 0.25 0.328125 0.609375q0.109375 0.359375 0.109375 0.78125l0 0.4375l-2.703125 0q0.03125 0.765625 0.328125 1.125q0.296875 0.34375 0.890625 0.34375q0.1875 0 0.359375 -0.015625q0.171875 -0.015625 0.328125 -0.046875q0.15625 -0.046875 0.296875 -0.09375q0.15625 -0.0625 0.3125 -0.140625l0 0.640625q-0.15625 0.0625 -0.3125 0.125q-0.140625 0.046875 -0.296875 0.078125q-0.15625 0.046875 -0.328125 0.0625q-0.171875 0.015625 -0.375 0.015625zm-0.171875 -3.859375q-0.453125 0 -0.71875 0.3125q-0.25 0.296875 -0.296875 0.875l1.921875 0q0 -0.265625 -0.046875 -0.484375q-0.046875 -0.21875 -0.171875 -0.375q-0.109375 -0.15625 -0.28125 -0.234375q-0.171875 -0.09375 -0.40625 -0.09375zm4.0625 3.28125q0.0625 0 0.140625 0q0.09375 -0.015625 0.171875 -0.03125q0.09375 -0.015625 0.15625 -0.03125q0.078125 -0.015625 0.109375 -0.03125l0 0.546875q-0.046875 0.015625 -0.125 0.046875q-0.078125 0.03125 -0.171875 0.046875q-0.09375 0.015625 -0.203125 0.015625q-0.09375 0.015625 -0.203125 0.015625q-0.234375 0 -0.453125 -0.0625q-0.203125 -0.0625 -0.359375 -0.21875q-0.140625 -0.15625 -0.234375 -0.40625q-0.078125 -0.265625 -0.078125 -0.65625l0 -2.484375l-0.609375 0l0 -0.328125l0.609375 -0.296875l0.3125 -0.90625l0.40625 0l0 0.984375l1.078125 0l0 0.546875l-1.078125 0l0 2.484375q0 0.375 0.125 0.578125q0.125 0.1875 0.40625 0.1875zm4.1796875 0.5l-0.09375 -0.578125l-0.046875 0q-0.09375 0.171875 -0.234375 0.296875q-0.125 0.125 -0.296875 0.203125q-0.15625 0.078125 -0.34375 0.109375q-0.171875 0.046875 -0.359375 0.046875q-0.359375 0 -0.625 -0.09375q-0.265625 -0.09375 -0.453125 -0.28125q-0.171875 -0.1875 -0.265625 -0.484375q-0.09375 -0.296875 -0.09375 -0.703125l0 -2.8125l0.71875 0l0 2.765625q0 0.515625 0.203125 0.765625q0.203125 0.25 0.640625 0.25q0.3125 0 0.53125 -0.09375q0.21875 -0.109375 0.34375 -0.296875q0.125 -0.203125 0.1875 -0.484375q0.0625 -0.296875 0.0625 -0.671875l0 -2.234375l0.703125 0l0 4.296875l-0.578125 0zm3.7890625 -4.375q0.125 0 0.265625 0.015625q0.140625 0.015625 0.234375 0.03125l-0.09375 0.65625q-0.109375 -0.015625 -0.234375 -0.03125q-0.109375 -0.015625 -0.203125 -0.015625q-0.25 0 -0.453125 0.109375q-0.203125 0.09375 -0.359375 0.28125q-0.140625 0.171875 -0.21875 0.4375q-0.078125 0.265625 -0.078125 0.578125l0 2.3125l-0.703125 0l0 -4.296875l0.578125 0l0.078125 0.796875l0.03125 0q0.09375 -0.171875 0.203125 -0.328125q0.125 -0.15625 0.25 -0.265625q0.140625 -0.125 0.3125 -0.203125q0.171875 -0.078125 0.390625 -0.078125zm4.0195312 4.375l0 -2.765625q0 -0.5 -0.203125 -0.75q-0.203125 -0.265625 -0.640625 -0.265625q-0.3125 0 -0.53125 0.109375q-0.21875 0.09375 -0.359375 0.296875q-0.125 0.203125 -0.1875 0.5q-0.046875 0.28125 -0.046875 0.65625l0 2.21875l-0.703125 0l0 -4.296875l0.578125 0l0.09375 0.578125l0.046875 0q0.09375 -0.15625 0.21875 -0.28125q0.140625 -0.125 0.296875 -0.203125q0.171875 -0.09375 0.34375 -0.125q0.1875 -0.046875 0.375 -0.046875q0.703125 0 1.0625 0.375q0.375 0.375 0.375 1.203125l0 2.796875l-0.71875 0zm4.6015625 -1.171875q0 0.3125 -0.125 0.546875q-0.109375 0.234375 -0.328125 0.390625q-0.203125 0.15625 -0.5 0.234375q-0.296875 0.078125 -0.671875 0.078125q-0.4375 0 -0.75 -0.078125q-0.296875 -0.0625 -0.515625 -0.1875l0 -0.65625q0.109375 0.0625 0.25 0.125q0.15625 0.0625 0.3125 0.109375q0.171875 0.046875 0.34375 0.078125q0.1875 0.03125 0.359375 0.03125q0.25 0 0.421875 -0.046875q0.1875 -0.046875 0.296875 -0.125q0.109375 -0.078125 0.15625 -0.1875q0.046875 -0.125 0.046875 -0.265625q0 -0.125 -0.046875 -0.21875q-0.03125 -0.09375 -0.140625 -0.1875q-0.09375 -0.09375 -0.28125 -0.1875q-0.171875 -0.109375 -0.453125 -0.234375q-0.28125 -0.109375 -0.515625 -0.21875q-0.21875 -0.125 -0.375 -0.265625q-0.15625 -0.15625 -0.234375 -0.34375q-0.078125 -0.1875 -0.078125 -0.453125q0 -0.265625 0.09375 -0.484375q0.109375 -0.21875 0.296875 -0.359375q0.203125 -0.140625 0.46875 -0.21875q0.28125 -0.078125 0.625 -0.078125q0.375 0 0.6875 0.09375q0.3125 0.078125 0.59375 0.203125l-0.234375 0.578125q-0.265625 -0.109375 -0.53125 -0.1875q-0.265625 -0.09375 -0.546875 -0.09375q-0.390625 0 -0.59375 0.140625q-0.1875 0.125 -0.1875 0.359375q0 0.140625 0.046875 0.25q0.046875 0.09375 0.15625 0.1875q0.109375 0.09375 0.296875 0.1875q0.1875 0.078125 0.453125 0.203125q0.28125 0.109375 0.5 0.234375q0.21875 0.109375 0.375 0.265625q0.15625 0.140625 0.234375 0.328125q0.09375 0.1875 0.09375 0.453125z" fill-rule="nonzero"></path><path fill="#000000" fill-opacity="0.0" d="m247.25722 73.59318c0 2.9809647 -50.433075 4.4698105 -100.866135 5.961937c-50.433075 1.4921265 -100.86615 2.9875336 -100.86615 5.975067" fill-rule="nonzero"></path><path stroke="#351c75" stroke-width="1.0" stroke-linejoin="round" stroke-linecap="butt" d="m247.25722 73.59318c0 2.9809723 -50.433075 4.4698105 -100.866135 5.961937c-25.216545 0.74606323 -50.433075 1.4929428 -69.34548 2.4267578c-9.4562 0.4669037 -17.336365 0.98054504 -22.852482 1.5641708c-1.3790283 0.14590454 -2.6103096 0.29618835 -3.6815186 0.45121002c-0.53560257 0.07751465 -1.0311928 0.15620422 -1.4852257 0.23612976l-0.3064766 0.056991577" fill-rule="evenodd"></path><path fill="#351c75" stroke="#351c75" stroke-width="1.0" stroke-linecap="butt" d="m48.7199 84.290375l0.6415787 -1.455246l-2.4736557 2.1661835l3.2873306 -0.069358826z" fill-rule="evenodd"></path></g></svg>

