<?xml version="1.0" standalone="yes"?>

<svg version="1.1" viewBox="0.0 0.0 384.0 192.0" fill="none" stroke="none" stroke-linecap="square" stroke-miterlimit="10" xmlns="http://www.w3.org/2000/svg" xmlns:xlink="http://www.w3.org/1999/xlink"><clipPath id="p.0"><path d="m0 0l384.0 0l0 192.0l-384.0 0l0 -192.0z" clip-rule="nonzero"></path></clipPath><g clip-path="url(#p.0)"><path fill="#000000" fill-opacity="0.0" d="m0 0l384.0 0l0 192.0l-384.0 0z" fill-rule="evenodd"></path><path fill="#d9d2e9" d="m2.167979 1.6351706l156.37794 0l0 55.46457l-156.37794 0z" fill-rule="evenodd"></path><path stroke="#9900ff" stroke-width="1.0" stroke-linejoin="round" stroke-linecap="butt" d="m2.167979 1.6351706l156.37794 0l0 55.46457l-156.37794 0z" fill-rule="evenodd"></path><path fill="#000000" d="m70.79875 12.840579l0 3.046875l-1.609375 0l0 -8.671875l2.8125 0q0.875 0 1.5 0.203125q0.640625 0.203125 1.046875 0.578125q0.421875 0.35937548 0.625 0.8750005q0.203125 0.5 0.203125 1.109375q0 0.625 -0.21875 1.15625q-0.203125 0.515625 -0.625 0.90625q-0.421875 0.375 -1.046875 0.59375q-0.625 0.203125 -1.484375 0.203125l-1.203125 0zm0 -1.265625l1.203125 0q0.453125 0 0.78125 -0.109375q0.328125 -0.109375 0.546875 -0.3125q0.21875 -0.21875 0.328125 -0.515625q0.109375 -0.296875 0.109375 -0.65625q0 -0.359375 -0.109375 -0.640625q-0.109375 -0.28125 -0.328125 -0.46875q-0.21875 -0.203125 -0.546875 -0.296875q-0.328125 -0.109375 -0.78125 -0.109375l-1.203125 0l0 3.109375zm8.375046 -1.9375q0.6875 0 1.25 0.21875q0.5625 0.21875 0.953125 0.640625q0.40625 0.40625 0.609375 1.0q0.21875 0.578125 0.21875 1.296875q0 0.734375 -0.21875 1.328125q-0.203125 0.578125 -0.609375 1.0q-0.390625 0.40625 -0.953125 0.640625q-0.5625 0.21875 -1.25 0.21875q-0.6875 0 -1.25 -0.21875q-0.5625 -0.234375 -0.96875 -0.640625q-0.40625 -0.421875 -0.625 -1.0q-0.21875 -0.59375 -0.21875 -1.328125q0 -0.71875 0.21875 -1.296875q0.21875 -0.59375 0.625 -1.0q0.40625 -0.421875 0.96875 -0.640625q0.5625 -0.21875 1.25 -0.21875zm0 5.203125q0.765625 0 1.125 -0.515625q0.375 -0.515625 0.375 -1.515625q0 -1.0 -0.375 -1.515625q-0.359375 -0.53125 -1.125 -0.53125q-0.78125 0 -1.15625 0.53125q-0.375 0.53125 -0.375 1.515625q0 0.984375 0.375 1.515625q0.375 0.515625 1.15625 0.515625zm7.853302 -3.90625q-0.0625 0.09375 -0.140625 0.140625q-0.0625 0.03125 -0.15625 0.03125q-0.109375 0 -0.234375 -0.0625q-0.125 -0.0625 -0.296875 -0.125q-0.15625 -0.078125 -0.359375 -0.140625q-0.203125 -0.0625 -0.484375 -0.0625q-0.4375 0 -0.6875 0.1875q-0.25 0.1875 -0.25 0.484375q0 0.203125 0.125 0.34375q0.125 0.125 0.328125 0.234375q0.21875 0.09375 0.484375 0.171875q0.28125 0.078125 0.5625 0.1875q0.28125 0.09375 0.546875 0.21875q0.265625 0.109375 0.484375 0.3125q0.21875 0.1875 0.34375 0.453125q0.125 0.25 0.125 0.625q0 0.453125 -0.15625 0.828125q-0.15625 0.375 -0.46875 0.65625q-0.3125 0.265625 -0.78125 0.421875q-0.453125 0.140625 -1.046875 0.140625q-0.328125 0 -0.625 -0.0625q-0.296875 -0.046875 -0.578125 -0.140625q-0.28125 -0.109375 -0.515625 -0.25q-0.234375 -0.140625 -0.421875 -0.296875l0.34375 -0.5625q0.0625 -0.109375 0.15625 -0.15625q0.09375 -0.0625 0.234375 -0.0625q0.125 0 0.25 0.078125q0.125 0.078125 0.28125 0.171875q0.171875 0.09375 0.390625 0.171875q0.21875 0.078125 0.546875 0.078125q0.265625 0 0.453125 -0.0625q0.203125 -0.0625 0.3125 -0.15625q0.125 -0.109375 0.1875 -0.25q0.0625 -0.140625 0.0625 -0.28125q0 -0.21875 -0.140625 -0.34375q-0.125 -0.140625 -0.34375 -0.234375q-0.203125 -0.109375 -0.484375 -0.1875q-0.265625 -0.09375 -0.5625 -0.1875q-0.28125 -0.09375 -0.5625 -0.21875q-0.265625 -0.140625 -0.484375 -0.328125q-0.203125 -0.203125 -0.328125 -0.484375q-0.125 -0.296875 -0.125 -0.703125q0 -0.375 0.140625 -0.71875q0.15625 -0.34375 0.4375 -0.59375q0.296875 -0.265625 0.734375 -0.40625q0.4375 -0.15625 1.0 -0.15625q0.640625 0 1.15625 0.21875q0.53125 0.203125 0.875 0.546875l-0.328125 0.53125zm3.6034088 5.046875q-0.796875 0 -1.234375 -0.453125q-0.421875 -0.453125 -0.421875 -1.25l0 -3.4375l-0.625 0q-0.125 0 -0.21875 -0.078125q-0.078125 -0.078125 -0.078125 -0.234375l0 -0.59375l0.984375 -0.15625l0.3125 -1.671875q0.03125 -0.12500048 0.109375 -0.18750048q0.09375 -0.078125 0.21875 -0.078125l0.78125 0l0 1.9375005l1.609375 0l0 1.0625l-1.609375 0l0 3.34375q0 0.28125 0.140625 0.453125q0.140625 0.15625 0.375 0.15625q0.140625 0 0.234375 -0.03125q0.09375 -0.03125 0.15625 -0.0625q0.078125 -0.046875 0.125 -0.078125q0.0625 -0.03125 0.109375 -0.03125q0.078125 0 0.109375 0.03125q0.046875 0.03125 0.09375 0.09375l0.4375 0.71875q-0.3125 0.265625 -0.734375 0.40625q-0.421875 0.140625 -0.875 0.140625z" fill-rule="nonzero"></path><path fill="#000000" d="m7.5742292 19.393703q-0.71875 0 -0.671875 0.421875l0.109375 1.09375q0 0.046875 0 0.140625q0 0.25 -0.125 0.390625q-0.109375 0.140625 -0.375 0.1875q0.265625 0.046875 0.375 0.171875q0.125 0.125 0.125 0.390625q0 0.09375 0 0.140625l-0.109375 1.09375q-0.015625 0.234375 0.15625 0.328125q0.1875 0.109375 0.515625 0.109375l0 0.34375q-0.484375 0 -0.796875 -0.171875q-0.296875 -0.15625 -0.296875 -0.546875q0 -0.0625 0.015625 -0.109375l0.109375 -1.015625q0 -0.03125 0 -0.09375q0 -0.234375 -0.171875 -0.34375q-0.171875 -0.125 -0.640625 -0.125l0 -0.359375q0.46875 0 0.640625 -0.109375q0.171875 -0.109375 0.171875 -0.34375q0 -0.0625 0 -0.09375l-0.109375 -1.03125q-0.015625 -0.03125 -0.015625 -0.109375q0 -0.390625 0.296875 -0.546875q0.3125 -0.171875 0.796875 -0.171875l0 0.359375z" fill-rule="nonzero"></path><path fill="#ffffff" d="m17.955637 24.505608l19.18149 0l0 6.393814l-19.18149 0l0 -6.393814z" fill-rule="nonzero"></path><path fill="#000000" d="m19.549387 25.174953q0.21875 0 0.359375 0.140625q0.140625 0.140625 0.140625 0.328125q0 0.21875 -0.140625 0.359375q-0.140625 0.125 -0.359375 0.125q-0.21875 0 -0.359375 -0.140625q-0.140625 -0.140625 -0.140625 -0.34375q0 -0.1875 0.140625 -0.328125q0.140625 -0.140625 0.359375 -0.140625zm0.5 3.734375l0.734375 0l0 0.578125l-2.375 0l0 -0.578125l0.796875 0l0 -1.671875l-0.765625 0l0 -0.578125l1.609375 0l0 2.25zm3.9312897 -3.375l0 3.953125l-0.75 0l-0.046875 -0.3125q-0.125 0.1875 -0.328125 0.296875q-0.1875 0.109375 -0.453125 0.109375q-0.515625 0 -0.78125 -0.40625q-0.25 -0.40625 -0.25 -1.109375q0 -0.4375 0.125 -0.78125q0.140625 -0.34375 0.390625 -0.53125q0.265625 -0.1875 0.609375 -0.1875q0.375 0 0.640625 0.265625l0 -1.390625l0.84375 0.09375zm-1.265625 1.640625q-0.21875 0 -0.359375 0.21875q-0.125 0.21875 -0.125 0.671875q0 0.5 0.109375 0.703125q0.125 0.1875 0.328125 0.1875q0.265625 0 0.46875 -0.328125l0 -1.21875q-0.09375 -0.109375 -0.203125 -0.171875q-0.09375 -0.0625 -0.21875 -0.0625zm2.6656647 0q0 -0.234375 0.15625 -0.390625q0.171875 -0.171875 0.40625 -0.171875q0.234375 0 0.390625 0.171875q0.171875 0.15625 0.171875 0.390625q0 0.234375 -0.171875 0.390625q-0.15625 0.15625 -0.390625 0.15625q-0.234375 0 -0.40625 -0.15625q-0.15625 -0.15625 -0.15625 -0.390625zm0 1.84375q0 -0.234375 0.15625 -0.390625q0.171875 -0.15625 0.40625 -0.15625q0.234375 0 0.390625 0.15625q0.171875 0.15625 0.171875 0.390625q0 0.234375 -0.171875 0.40625q-0.15625 0.15625 -0.390625 0.15625q-0.234375 0 -0.40625 -0.15625q-0.15625 -0.171875 -0.15625 -0.40625zm6.8313313 -3.3125q0.40625 0 0.6875 0.140625q0.296875 0.140625 0.4375 0.390625q0.15625 0.234375 0.15625 0.515625q0 0.3125 -0.140625 0.59375q-0.140625 0.28125 -0.46875 0.640625q-0.3125 0.34375 -0.8906269 0.859375l1.5781269 0l-0.09375 0.640625l-2.453127 0l0 -0.59375q0.65625 -0.640625 0.9843769 -0.984375q0.328125 -0.359375 0.46875 -0.609375q0.15625 -0.25 0.15625 -0.46875q0 -0.21875 -0.140625 -0.34375q-0.125 -0.140625 -0.359375 -0.140625q-0.2031269 0 -0.3593769 0.09375q-0.15625 0.078125 -0.3125 0.28125l-0.5 -0.390625q0.21875 -0.296875 0.515625 -0.453125q0.3125 -0.171875 0.7343769 -0.171875zm3.1812897 0q0.375 0 0.65625 0.125q0.296875 0.125 0.4375 0.34375q0.15625 0.21875 0.15625 0.46875q0 0.34375 -0.203125 0.5625q-0.1875 0.21875 -0.546875 0.328125q0.875 0.109375 0.875 0.921875q0 0.3125 -0.171875 0.578125q-0.171875 0.25 -0.5 0.40625q-0.328125 0.140625 -0.765625 0.140625q-0.40625 0 -0.734375 -0.140625q-0.328125 -0.15625 -0.5625 -0.421875l0.46875 -0.4375q0.3125 0.359375 0.78125 0.359375q0.28125 0 0.4375 -0.140625q0.171875 -0.15625 0.171875 -0.40625q0 -0.5625 -0.609375 -0.5625l-0.34375 0l0.09375 -0.578125l0.234375 0q0.265625 0 0.40625 -0.125q0.15625 -0.125 0.15625 -0.359375q0 -0.203125 -0.15625 -0.3125q-0.140625 -0.125 -0.375 -0.125q-0.40625 0 -0.734375 0.3125l-0.4375 -0.4375q0.515625 -0.5 1.265625 -0.5z" fill-rule="nonzero"></path><path fill="#000000" d="m38.730877 28.612453q0.1875 0 0.3125 0.125q0.125 0.125 0.125 0.296875q0 0.203125 -0.109375 0.421875l-0.421875 0.984375l-0.40625 0l0.25 -1.046875q-0.078125 -0.0625 -0.125 -0.15625q-0.046875 -0.09375 -0.046875 -0.203125q0 -0.171875 0.125 -0.296875q0.125 -0.125 0.296875 -0.125z" fill-rule="nonzero"></path><path fill="#000000" d="m20.721262 35.34683q-0.140625 0.09375 -0.34375 0.140625q-0.203125 0.0625 -0.40625 0.0625q-0.453125 0 -0.703125 -0.234375q-0.25 -0.234375 -0.25 -0.609375l0 -1.671875l-0.640625 0l0 -0.359375l0.640625 0l0 -0.625l0.453125 -0.0625l0 0.6875l0.96875 0l-0.0625 0.359375l-0.90625 0l0 1.671875q0 0.234375 0.125 0.359375q0.125 0.109375 0.40625 0.109375q0.296875 0 0.546875 -0.140625l0.171875 0.3125zm2.0250397 -3.984375q0.15625 0 0.234375 0.09375q0.09375 0.09375 0.09375 0.234375q0 0.125 -0.09375 0.21875q-0.078125 0.09375 -0.234375 0.09375q-0.140625 0 -0.234375 -0.09375q-0.078125 -0.09375 -0.078125 -0.21875q0 -0.140625 0.078125 -0.234375q0.09375 -0.09375 0.234375 -0.09375zm0.359375 3.765625l0.796875 0l0 0.359375l-2.109375 0l0 -0.359375l0.875 0l0 -2.09375l-0.84375 0l0 -0.359375l1.28125 0l0 2.453125zm4.0094147 0.21875q-0.140625 0.09375 -0.34375 0.140625q-0.203125 0.0625 -0.40625 0.0625q-0.453125 0 -0.703125 -0.234375q-0.25 -0.234375 -0.25 -0.609375l0 -1.671875l-0.640625 0l0 -0.359375l0.640625 0l0 -0.625l0.453125 -0.0625l0 0.6875l0.96875 0l-0.0625 0.359375l-0.90625 0l0 1.671875q0 0.234375 0.125 0.359375q0.125 0.109375 0.40625 0.109375q0.296875 0 0.546875 -0.140625l0.171875 0.3125zm2.0562897 -0.546875q0 0.375 0.46875 0.375q0.21875 0 0.46875 -0.09375l0.125 0.328125q-0.28125 0.140625 -0.671875 0.140625q-0.375 0 -0.609375 -0.203125q-0.21875 -0.21875 -0.21875 -0.578125l0 -2.859375l-0.875 0l0 -0.359375l1.3125 0l0 3.25zm2.4625397 -0.5625q0.015625 0.46875 0.234375 0.703125q0.2343769 0.234375 0.5781269 0.234375q0.203125 0 0.375 -0.0625q0.1875 -0.0625 0.375 -0.1875l0.21875 0.296875q-0.203125 0.15625 -0.46875 0.25q-0.25 0.078125 -0.5 0.078125q-0.6093769 0 -0.9531269 -0.390625q-0.328125 -0.40625 -0.328125 -1.078125q0 -0.421875 0.140625 -0.75q0.15625 -0.328125 0.421875 -0.515625q0.2812519 -0.1875 0.6562519 -0.1875q0.53125 0 0.828125 0.375q0.3125 0.359375 0.3125 1.0q0 0.125 0 0.234375l-1.8906269 0zm0.7500019 -1.25q-0.3125 0 -0.5156269 0.234375q-0.203125 0.234375 -0.234375 0.671875l1.4531269 0q0 -0.4375 -0.1875 -0.671875q-0.1875 -0.234375 -0.515625 -0.234375zm2.7281647 0.203125q0 -0.171875 0.109375 -0.296875q0.125 -0.125 0.3125 -0.125q0.1875 0 0.3125 0.125q0.125 0.125 0.125 0.296875q0 0.1875 -0.125 0.3125q-0.125 0.125 -0.3125 0.125q-0.1875 0 -0.3125 -0.125q-0.109375 -0.125 -0.109375 -0.3125zm0 1.921875q0 -0.171875 0.109375 -0.296875q0.125 -0.125 0.3125 -0.125q0.1875 0 0.3125 0.125q0.125 0.125 0.125 0.296875q0 0.1875 -0.125 0.3125q-0.125 0.125 -0.3125 0.125q-0.1875 0 -0.3125 -0.125q-0.109375 -0.125 -0.109375 -0.3125zm7.1907043 -2.5625q0 0.171875 -0.125 0.28125q-0.125 0.109375 -0.28125 0.109375q-0.171875 0 -0.296875 -0.109375q-0.109375 -0.109375 -0.109375 -0.28125q0 -0.15625 0.09375 -0.34375l0.4375 -0.921875l0.359375 0l-0.21875 0.984375q0.0625 0.03125 0.09375 0.125q0.046875 0.078125 0.046875 0.15625zm4.1031647 1.890625q0 0.5625 -0.40625 0.8125q-0.390625 0.234375 -0.96875 0.234375l-0.984375 0l0 -3.671875l0.90625 0q0.5625 0 0.921875 0.21875q0.375 0.21875 0.375 0.703125q0 0.34375 -0.203125 0.546875q-0.1875 0.1875 -0.484375 0.265625q0.84375 0.140625 0.84375 0.890625zm-0.625 -1.671875q0 -0.296875 -0.1875 -0.4375q-0.1875 -0.140625 -0.53125 -0.140625l-0.5625 0l0 1.1875l0.59375 0q0.6875 0 0.6875 -0.609375zm0.140625 1.6875q0 -0.390625 -0.21875 -0.53125q-0.203125 -0.15625 -0.578125 -0.15625l-0.625 0l0 1.328125l0.609375 0q0.34375 0 0.578125 -0.125q0.234375 -0.140625 0.234375 -0.515625zm1.6969147 -0.21875q0.015625 0.46875 0.234375 0.703125q0.234375 0.234375 0.578125 0.234375q0.203125 0 0.375 -0.0625q0.1875 -0.0625 0.375 -0.1875l0.21875 0.296875q-0.203125 0.15625 -0.46875 0.25q-0.25 0.078125 -0.5 0.078125q-0.609375 0 -0.953125 -0.390625q-0.328125 -0.40625 -0.328125 -1.078125q0 -0.421875 0.140625 -0.75q0.15625 -0.328125 0.421875 -0.515625q0.28125 -0.1875 0.65625 -0.1875q0.53125 0 0.828125 0.375q0.3125 0.359375 0.3125 1.0q0 0.125 0 0.234375l-1.890625 0zm0.75 -1.25q-0.3125 0 -0.515625 0.234375q-0.203125 0.234375 -0.234375 0.671875l1.453125 0q0 -0.4375 -0.1875 -0.671875q-0.1875 -0.234375 -0.515625 -0.234375zm3.3687897 2.171875q0.359375 0 0.71875 -0.234375l0.21875 0.28125q-0.171875 0.15625 -0.4375 0.25q-0.265625 0.09375 -0.5 0.09375q-0.625 0 -0.984375 -0.390625q-0.34375 -0.390625 -0.34375 -1.0625q0 -0.421875 0.15625 -0.75q0.15625 -0.34375 0.453125 -0.53125q0.296875 -0.1875 0.71875 -0.1875q0.53125 0 0.9375 0.328125l-0.21875 0.28125q-0.375 -0.234375 -0.734375 -0.234375q-0.375 0 -0.609375 0.28125q-0.21875 0.28125 -0.21875 0.8125q0 0.53125 0.21875 0.796875q0.234375 0.265625 0.625 0.265625zm2.9937897 -2.53125q0.578125 0 0.890625 0.390625q0.3125 0.390625 0.3125 1.0625q0 0.65625 -0.328125 1.0625q-0.3125 0.40625 -0.890625 0.40625q-0.578125 0 -0.890625 -0.390625q-0.3125 -0.390625 -0.3125 -1.078125q0 -0.65625 0.3125 -1.046875q0.3125 -0.40625 0.90625 -0.40625zm0 0.359375q-0.375 0 -0.5625 0.28125q-0.171875 0.265625 -0.171875 0.8125q0 0.5625 0.171875 0.828125q0.1875 0.265625 0.546875 0.265625q0.375 0 0.546875 -0.265625q0.1875 -0.265625 0.1875 -0.828125q0 -0.546875 -0.1875 -0.8125q-0.171875 -0.28125 -0.53125 -0.28125zm3.9625397 -0.359375q0.25 0 0.390625 0.171875q0.15625 0.15625 0.15625 0.59375l0 2.09375l-0.40625 0l0 -2.015625q0 -0.296875 -0.046875 -0.390625q-0.03125 -0.109375 -0.171875 -0.109375q-0.265625 0 -0.484375 0.34375l0 2.171875l-0.421875 0l0 -2.015625q0 -0.296875 -0.046875 -0.390625q-0.03125 -0.109375 -0.171875 -0.109375q-0.265625 0 -0.484375 0.34375l0 2.171875l-0.421875 0l0 -2.8125l0.359375 0l0.03125 0.328125q0.125 -0.1875 0.265625 -0.28125q0.140625 -0.09375 0.328125 -0.09375q0.40625 0 0.515625 0.359375q0.125 -0.171875 0.265625 -0.265625q0.140625 -0.09375 0.34375 -0.09375zm2.4156647 -1.265625q0.15625 0 0.234375 0.09375q0.09375 0.09375 0.09375 0.234375q0 0.125 -0.09375 0.21875q-0.078125 0.09375 -0.234375 0.09375q-0.140625 0 -0.234375 -0.09375q-0.078125 -0.09375 -0.078125 -0.21875q0 -0.140625 0.078125 -0.234375q0.09375 -0.09375 0.234375 -0.09375zm0.359375 3.765625l0.796875 0l0 0.359375l-2.109375 0l0 -0.359375l0.875 0l0 -2.09375l-0.84375 0l0 -0.359375l1.28125 0l0 2.453125zm1.7750397 -2.453125l0.390625 0l0.03125 0.40625q0.171875 -0.21875 0.4218712 -0.328125q0.25 -0.125 0.5 -0.125q0.796875 0 0.796875 0.828125l0 2.03125l-0.453125 0l0 -1.703125q0 -0.3125 -0.03125 -0.46875q-0.03125 -0.171875 -0.140625 -0.25q-0.09375 -0.09375 -0.296875 -0.09375q-0.234375 0 -0.4375 0.140625q-0.20312119 0.140625 -0.3281212 0.328125l0 2.046875l-0.453125 0l0 -2.8125zm5.618786 0.125q-0.15625 0.0625 -0.34375 0.078125q-0.1875 0.015625 -0.484375 0.015625q0.5 0.21875 0.5 0.703125q0 0.421875 -0.28125 0.6875q-0.28125 0.265625 -0.78125 0.265625q-0.25 0 -0.421875 -0.0625q-0.0625 0.046875 -0.109375 0.125q-0.03125 0.078125 -0.03125 0.15625q0 0.234375 0.375 0.234375l0.5 0q0.28125 0 0.5 0.109375q0.234375 0.09375 0.359375 0.265625q0.140625 0.171875 0.140625 0.390625q0 0.40625 -0.359375 0.625q-0.34375 0.21875 -0.984375 0.21875q-0.640625 0 -0.90625 -0.203125q-0.265625 -0.203125 -0.265625 -0.640625l0.390625 0q0 0.171875 0.0625 0.28125q0.078125 0.109375 0.234375 0.15625q0.171875 0.046875 0.484375 0.046875q0.453125 0 0.671875 -0.125q0.21875 -0.109375 0.21875 -0.34375q0 -0.1875 -0.1875 -0.296875q-0.171875 -0.09375 -0.4375 -0.09375l-0.5 0q-0.359375 0 -0.546875 -0.15625q-0.171875 -0.15625 -0.171875 -0.375q0 -0.140625 0.078125 -0.265625q0.078125 -0.125 0.234375 -0.234375q-0.234375 -0.109375 -0.359375 -0.296875q-0.109375 -0.203125 -0.109375 -0.46875q0 -0.28125 0.140625 -0.5q0.140625 -0.21875 0.390625 -0.34375q0.25 -0.125 0.59375 -0.125q0.46875 0 0.71875 -0.046875q0.25 -0.0625 0.546875 -0.1875l0.140625 0.40625zm-1.421875 0.15625q-0.328125 0 -0.5 0.171875q-0.15625 0.171875 -0.15625 0.46875q0 0.296875 0.171875 0.484375q0.171875 0.171875 0.5 0.171875q0.296875 0 0.453125 -0.171875q0.15625 -0.171875 0.15625 -0.484375q0 -0.640625 -0.625 -0.640625zm7.4094543 1.921875q0 0.15625 0.046875 0.234375q0.0625 0.078125 0.1875 0.125l-0.109375 0.3125q-0.421875 -0.046875 -0.515625 -0.390625q-0.15625 0.1875 -0.390625 0.296875q-0.21875 0.09375 -0.5 0.09375q-0.40625 0 -0.65625 -0.234375q-0.234375 -0.234375 -0.234375 -0.625q0 -0.4375 0.328125 -0.671875q0.34375 -0.234375 0.96875 -0.234375l0.421875 0l0 -0.234375q0 -0.296875 -0.171875 -0.421875q-0.171875 -0.140625 -0.5 -0.140625q-0.3125 0 -0.71875 0.15625l-0.125 -0.34375q0.5 -0.171875 0.921875 -0.171875q0.515625 0 0.78125 0.234375q0.265625 0.234375 0.265625 0.671875l0 1.34375zm-1.15625 0.328125q0.203125 0 0.390625 -0.09375q0.1875 -0.109375 0.3125 -0.296875l0 -0.71875l-0.40625 0q-0.453125 0 -0.65625 0.15625q-0.1875 0.140625 -0.1875 0.421875q0 0.53125 0.546875 0.53125zm2.3375397 -2.53125l0.390625 0l0.03125 0.40625q0.171875 -0.21875 0.421875 -0.328125q0.25 -0.125 0.5 -0.125q0.796875 0 0.796875 0.828125l0 2.03125l-0.453125 0l0 -1.703125q0 -0.3125 -0.03125 -0.46875q-0.03125 -0.171875 -0.140625 -0.25q-0.09375 -0.09375 -0.296875 -0.09375q-0.234375 0 -0.4375 0.140625q-0.203125 0.140625 -0.328125 0.328125l0 2.046875l-0.453125 0l0 -2.8125zm6.9875793 0.765625l1.375 0l0 0.375l-1.375 0l0 1.296875l1.671875 0l0 0.375l-2.125 0l0 -3.671875l2.078125 0l-0.046875 0.390625l-1.578125 0l0 1.234375zm4.9312897 1.03125q0 0.3125 -0.15625 0.5625q-0.15625 0.234375 -0.46875 0.375q-0.296875 0.140625 -0.71875 0.140625q-0.390625 0 -0.71875 -0.125q-0.328125 -0.125 -0.5625 -0.34375l0.265625 -0.3125q0.203125 0.1875 0.453125 0.296875q0.25 0.09375 0.578125 0.09375q0.359375 0 0.59375 -0.171875q0.25 -0.171875 0.25 -0.5q0 -0.1875 -0.078125 -0.3125q-0.0625 -0.125 -0.234375 -0.21875q-0.171875 -0.09375 -0.484375 -0.1875q-0.59375 -0.171875 -0.890625 -0.40625q-0.296875 -0.25 -0.296875 -0.65625q0 -0.265625 0.140625 -0.484375q0.15625 -0.21875 0.421875 -0.34375q0.28125 -0.125 0.625 -0.125q0.359375 0 0.640625 0.109375q0.296875 0.109375 0.53125 0.3125l-0.265625 0.296875q-0.390625 -0.328125 -0.890625 -0.328125q-0.3125 0 -0.53125 0.140625q-0.203125 0.140625 -0.203125 0.40625q0 0.15625 0.078125 0.28125q0.09375 0.109375 0.28125 0.203125q0.203125 0.09375 0.5625 0.1875q0.515625 0.15625 0.796875 0.40625q0.28125 0.234375 0.28125 0.703125zm2.1031647 -1.375q0.28125 0 0.515625 0.140625q0.234375 0.125 0.375 0.390625q0.140625 0.25 0.140625 0.625q0 0.390625 -0.15625 0.6875q-0.15625 0.296875 -0.421875 0.453125q-0.25 0.15625 -0.578125 0.15625q-0.640625 0 -0.9375 -0.46875q-0.28125 -0.46875 -0.28125 -1.328125q0 -0.609375 0.15625 -1.046875q0.171875 -0.453125 0.46875 -0.703125q0.3125 -0.25 0.734375 -0.25q0.40625 0 0.734375 0.21875l-0.171875 0.296875q-0.265625 -0.15625 -0.5625 -0.15625q-0.421875 0 -0.65625 0.40625q-0.234375 0.390625 -0.25 1.078125q0.171875 -0.265625 0.390625 -0.375q0.21875 -0.125 0.5 -0.125zm-0.125 2.09375q0.34375 0 0.515625 -0.234375q0.1875 -0.25 0.1875 -0.6875q0 -0.8125 -0.65625 -0.8125q-0.25 0 -0.46875 0.140625q-0.203125 0.140625 -0.34375 0.390625q0.015625 0.625 0.1875 0.921875q0.1875 0.28125 0.578125 0.28125zm7.3625793 0.296875l-0.59375 0l-0.421875 -2.765625l-0.4375 2.765625l-0.625 0l-0.5 -3.671875l0.453125 0l0.390625 3.171875l0.453125 -2.75l0.5625 0l0.421875 2.75l0.4375 -3.171875l0.421875 0l-0.5625 3.671875zm2.1812897 -4.125q0.15625 0 0.234375 0.09375q0.09375 0.09375 0.09375 0.234375q0 0.125 -0.09375 0.21875q-0.078125 0.09375 -0.234375 0.09375q-0.140625 0 -0.234375 -0.09375q-0.078125 -0.09375 -0.078125 -0.21875q0 -0.140625 0.078125 -0.234375q0.09375 -0.09375 0.234375 -0.09375zm0.359375 3.765625l0.796875 0l0 0.359375l-2.109375 0l0 -0.359375l0.875 0l0 -2.09375l-0.84375 0l0 -0.359375l1.28125 0l0 2.453125zm3.9000397 -0.03125l-0.0625 0.390625l-2.046875 0l0 -0.34375l1.546875 -2.0625l-1.421875 0l0 -0.40625l1.96875 0l0 0.359375l-1.546875 2.0625l1.5625 0zm3.0875397 -0.21875q0 0.15625 0.046875 0.234375q0.0625 0.078125 0.1875 0.125l-0.109375 0.3125q-0.421875 -0.046875 -0.515625 -0.390625q-0.15625 0.1875 -0.390625 0.296875q-0.21875 0.09375 -0.5 0.09375q-0.40625 0 -0.65625 -0.234375q-0.234375 -0.234375 -0.234375 -0.625q0 -0.4375 0.328125 -0.671875q0.34375 -0.234375 0.96875 -0.234375l0.421875 0l0 -0.234375q0 -0.296875 -0.171875 -0.421875q-0.171875 -0.140625 -0.5 -0.140625q-0.3125 0 -0.71875 0.15625l-0.125 -0.34375q0.5 -0.171875 0.921875 -0.171875q0.515625 0 0.78125 0.234375q0.265625 0.234375 0.265625 0.671875l0 1.34375zm-1.15625 0.328125q0.203125 0 0.390625 -0.09375q0.1875 -0.109375 0.3125 -0.296875l0 -0.71875l-0.40625 0q-0.453125 0 -0.65625 0.15625q-0.1875 0.140625 -0.1875 0.421875q0 0.53125 0.546875 0.53125zm4.2281647 -2.578125q0.171875 0 0.40625 0.046875l-0.0625 0.953125l-0.375 0l0 -0.59375l-0.015625 0q-0.65625 0 -0.921875 0.921875l0 1.1875l0.5625 0l0 0.34375l-1.453125 0l0 -0.34375l0.4375 0l0 -2.125l-0.4375 0l0 -0.34375l0.78125 0l0.078125 0.671875q0.171875 -0.359375 0.40625 -0.53125q0.234375 -0.1875 0.59375 -0.1875zm3.4469147 -1.078125l0 3.9375l-0.40625 0l-0.03125 -0.375q-0.15625 0.21875 -0.359375 0.328125q-0.203125 0.109375 -0.4375 0.109375q-0.53125 0 -0.8125 -0.390625q-0.265625 -0.390625 -0.265625 -1.078125q0 -0.421875 0.125 -0.75q0.140625 -0.328125 0.390625 -0.515625q0.25 -0.1875 0.578125 -0.1875q0.46875 0 0.765625 0.328125l0 -1.453125l0.453125 0.046875zm-1.09375 1.4375q-0.359375 0 -0.546875 0.28125q-0.1875 0.265625 -0.1875 0.8125q0 0.546875 0.171875 0.828125q0.171875 0.28125 0.515625 0.28125q0.390625 0 0.6875 -0.453125l0 -1.390625q-0.125 -0.171875 -0.296875 -0.265625q-0.15625 -0.09375 -0.34375 -0.09375zm2.8375397 -1.3125q0 -0.15625 0.125 -0.265625q0.125 -0.125 0.28125 -0.125q0.171875 0 0.296875 0.109375q0.125 0.109375 0.125 0.28125q0 0.078125 -0.03125 0.15625q-0.015625 0.0625 -0.078125 0.1875l-0.4375 0.921875l-0.34375 0l0.21875 -0.96875q-0.0625 -0.046875 -0.109375 -0.125q-0.046875 -0.078125 -0.046875 -0.171875zm3.5719147 2.9375q0.1875 0 0.3125 0.125q0.125 0.125 0.125 0.296875q0 0.203125 -0.109375 0.421875l-0.421875 0.984375l-0.40625 0l0.25 -1.046875q-0.078125 -0.0625 -0.125 -0.15625q-0.046875 -0.09375 -0.046875 -0.203125q0 -0.171875 0.125 -0.296875q0.125 -0.125 0.296875 -0.125z" fill-rule="nonzero"></path><path fill="#000000" d="m18.940012 39.049953q0.328125 -0.421875 0.796875 -0.421875q0.546875 0 0.796875 0.390625q0.25 0.375 0.25 1.0625q0 0.65625 -0.296875 1.0625q-0.28125 0.40625 -0.8125 0.40625q-0.484375 0 -0.765625 -0.359375l-0.03125 0.296875l-0.390625 0l0 -3.9375l0.453125 -0.046875l0 1.546875zm0.640625 2.140625q0.34375 0 0.53125 -0.28125q0.1875 -0.28125 0.1875 -0.828125q0 -0.546875 -0.171875 -0.8125q-0.15625 -0.28125 -0.484375 -0.28125q-0.21875 0 -0.40625 0.125q-0.171875 0.125 -0.296875 0.3125l0 1.390625q0.109375 0.171875 0.265625 0.28125q0.171875 0.09375 0.375 0.09375zm3.1812897 -2.5625q0.578125 0 0.890625 0.390625q0.3125 0.390625 0.3125 1.0625q0 0.65625 -0.328125 1.0625q-0.3125 0.40625 -0.890625 0.40625q-0.578125 0 -0.890625 -0.390625q-0.3125 -0.390625 -0.3125 -1.078125q0 -0.65625 0.3125 -1.046875q0.3125 -0.40625 0.90625 -0.40625zm0 0.359375q-0.375 0 -0.5625 0.28125q-0.171875 0.265625 -0.171875 0.8125q0 0.5625 0.171875 0.828125q0.1875 0.265625 0.546875 0.265625q0.375 0 0.546875 -0.265625q0.1875 -0.265625 0.1875 -0.828125q0 -0.546875 -0.1875 -0.8125q-0.171875 -0.28125 -0.53125 -0.28125zm4.2594147 -1.4375l0 3.9375l-0.40625 0l-0.03125 -0.375q-0.15625 0.21875 -0.359375 0.328125q-0.203125 0.109375 -0.4375 0.109375q-0.53125 0 -0.8125 -0.390625q-0.265625 -0.390625 -0.265625 -1.078125q0 -0.421875 0.125 -0.75q0.140625 -0.328125 0.390625 -0.515625q0.25 -0.1875 0.578125 -0.1875q0.46875 0 0.765625 0.328125l0 -1.453125l0.453125 0.046875zm-1.09375 1.4375q-0.359375 0 -0.546875 0.28125q-0.1875 0.265625 -0.1875 0.8125q0 0.546875 0.171875 0.828125q0.171875 0.28125 0.515625 0.28125q0.390625 0 0.6875 -0.453125l0 -1.390625q-0.125 -0.171875 -0.296875 -0.265625q-0.15625 -0.09375 -0.34375 -0.09375zm3.5094147 2.515625q-0.171875 0.484375 -0.46875 0.765625q-0.28125 0.296875 -0.796875 0.34375l-0.0625 -0.359375q0.28125 -0.046875 0.453125 -0.140625q0.171875 -0.09375 0.265625 -0.25q0.09375 -0.140625 0.171875 -0.375l-0.140625 0l-0.984375 -2.8125l0.46875 0l0.8125 2.46875l0.796875 -2.46875l0.453125 0l-0.96875 2.828125zm2.4781647 -2.3125q0 -0.171875 0.10937691 -0.296875q0.125 -0.125 0.3125 -0.125q0.1875 0 0.3125 0.125q0.125 0.125 0.125 0.296875q0 0.1875 -0.125 0.3125q-0.125 0.125 -0.3125 0.125q-0.1875 0 -0.3125 -0.125q-0.10937691 -0.125 -0.10937691 -0.3125zm0 1.921875q0 -0.171875 0.10937691 -0.296875q0.125 -0.125 0.3125 -0.125q0.1875 0 0.3125 0.125q0.125 0.125 0.125 0.296875q0 0.1875 -0.125 0.3125q-0.125 0.125 -0.3125 0.125q-0.1875 0 -0.3125 -0.125q-0.10937691 -0.125 -0.10937691 -0.3125zm7.1907063 -2.5625q0 0.171875 -0.125 0.28125q-0.125 0.109375 -0.28125 0.109375q-0.171875 0 -0.296875 -0.109375q-0.109375 -0.109375 -0.109375 -0.28125q0 -0.15625 0.09375 -0.34375l0.4375 -0.921875l0.359375 0l-0.21875 0.984375q0.0625 0.03125 0.09375 0.125q0.046875 0.078125 0.046875 0.15625zm3.8687897 -0.359375l-0.8125 0l0 2.921875l0.8125 0l0 0.375l-2.09375 0l0 -0.375l0.8125 0l0 -2.921875l-0.8125 0l0 -0.375l2.09375 0l0 0.375zm2.1812897 2.609375q0 0.375 0.46875 0.375q0.21875 0 0.46875 -0.09375l0.125 0.328125q-0.28125 0.140625 -0.671875 0.140625q-0.375 0 -0.609375 -0.203125q-0.21875 -0.21875 -0.21875 -0.578125l0 -2.859375l-0.875 0l0 -0.359375l1.3125 0l0 3.25zm3.1969147 0q0 0.375 0.46875 0.375q0.21875 0 0.46875 -0.09375l0.125 0.328125q-0.28125 0.140625 -0.671875 0.140625q-0.375 0 -0.609375 -0.203125q-0.21875 -0.21875 -0.21875 -0.578125l0 -2.859375l-0.875 0l0 -0.359375l1.3125 0l0 3.25zm2.4625397 -0.5625q0.015625 0.46875 0.234375 0.703125q0.234375 0.234375 0.578125 0.234375q0.203125 0 0.375 -0.0625q0.1875 -0.0625 0.375 -0.1875l0.21875 0.296875q-0.203125 0.15625 -0.46875 0.25q-0.25 0.078125 -0.5 0.078125q-0.609375 0 -0.953125 -0.390625q-0.328125 -0.40625 -0.328125 -1.078125q0 -0.421875 0.140625 -0.75q0.15625 -0.328125 0.421875 -0.515625q0.28125 -0.1875 0.65625 -0.1875q0.53125 0 0.828125 0.375q0.3125 0.359375 0.3125 1.0q0 0.125 0 0.234375l-1.890625 0zm0.75 -1.25q-0.3125 0 -0.515625 0.234375q-0.203125 0.234375 -0.234375 0.671875l1.453125 0q0 -0.4375 -0.1875 -0.671875q-0.1875 -0.234375 -0.515625 -0.234375zm6.6125793 2.5l-0.515625 0l-1.03125 -2.8125l0.484375 0l0.8125 2.40625l0.796875 -2.40625l0.46875 0l-1.015625 2.8125zm2.9312897 -4.125q0.15625 0 0.234375 0.09375q0.09375 0.09375 0.09375 0.234375q0 0.125 -0.09375 0.21875q-0.078125 0.09375 -0.234375 0.09375q-0.140625 0 -0.234375 -0.09375q-0.078125 -0.09375 -0.078125 -0.21875q0 -0.140625 0.078125 -0.234375q0.09375 -0.09375 0.234375 -0.09375zm0.359375 3.765625l0.796875 0l0 0.359375l-2.109375 0l0 -0.359375l0.875 0l0 -2.09375l-0.84375 0l0 -0.359375l1.28125 0l0 2.453125zm3.1031609 0.359375l-0.515625 0l-1.0312462 -2.8125l0.484375 0l0.8124962 2.40625l0.796875 -2.40625l0.46875 0l-1.015625 2.8125zm2.2281647 -1.25q0.015625 0.46875 0.234375 0.703125q0.234375 0.234375 0.578125 0.234375q0.203125 0 0.375 -0.0625q0.1875 -0.0625 0.375 -0.1875l0.21875 0.296875q-0.203125 0.15625 -0.46875 0.25q-0.25 0.078125 -0.5 0.078125q-0.609375 0 -0.953125 -0.390625q-0.328125 -0.40625 -0.328125 -1.078125q0 -0.421875 0.140625 -0.75q0.15625 -0.328125 0.421875 -0.515625q0.28125 -0.1875 0.65625 -0.1875q0.53125 0 0.828125 0.375q0.3125 0.359375 0.3125 1.0q0 0.125 0 0.234375l-1.890625 0zm0.75 -1.25q-0.3125 0 -0.515625 0.234375q-0.203125 0.234375 -0.234375 0.671875l1.453125 0q0 -0.4375 -0.1875 -0.671875q-0.1875 -0.234375 -0.515625 -0.234375zm3.9781647 -0.359375q0.171875 0 0.40625 0.046875l-0.0625 0.953125l-0.375 0l0 -0.59375l-0.015625 0q-0.65625 0 -0.921875 0.921875l0 1.1875l0.5625 0l0 0.34375l-1.453125 0l0 -0.34375l0.4375 0l0 -2.125l-0.4375 0l0 -0.34375l0.78125 0l0.078125 0.671875q0.171875 -0.359375 0.40625 -0.53125q0.234375 -0.1875 0.59375 -0.1875zm1.6656647 1.609375q0.015625 0.46875 0.234375 0.703125q0.234375 0.234375 0.578125 0.234375q0.203125 0 0.375 -0.0625q0.1875 -0.0625 0.375 -0.1875l0.21875 0.296875q-0.203125 0.15625 -0.46875 0.25q-0.25 0.078125 -0.5 0.078125q-0.609375 0 -0.953125 -0.390625q-0.328125 -0.40625 -0.328125 -1.078125q0 -0.421875 0.140625 -0.75q0.15625 -0.328125 0.421875 -0.515625q0.28125 -0.1875 0.65625 -0.1875q0.53125 0 0.828125 0.375q0.3125 0.359375 0.3125 1.0q0 0.125 0 0.234375l-1.890625 0zm0.75 -1.25q-0.3125 0 -0.515625 0.234375q-0.203125 0.234375 -0.234375 0.671875l1.453125 0q0 -0.4375 -0.1875 -0.671875q-0.1875 -0.234375 -0.515625 -0.234375zm2.6812897 2.09375q0 -0.203125 0.125 -0.328125q0.140625 -0.140625 0.34375 -0.140625q0.203125 0 0.328125 0.140625q0.140625 0.125 0.140625 0.328125q0 0.203125 -0.140625 0.34375q-0.125 0.125 -0.328125 0.125q-0.203125 0 -0.34375 -0.140625q-0.125 -0.140625 -0.125 -0.328125zm8.081329 -0.78125q0 0.359375 -0.15625 0.65625q-0.140625 0.28125 -0.421875 0.4375q-0.28125 0.15625 -0.640625 0.15625q-0.375 0 -0.65625 -0.15625q-0.265625 -0.15625 -0.40625 -0.4375q-0.140625 -0.296875 -0.140625 -0.65625l0 -2.484375l0.453125 0l0 2.5q0 0.421875 0.1875 0.625q0.203125 0.203125 0.5625 0.203125q0.359375 0 0.546875 -0.203125q0.203125 -0.203125 0.203125 -0.625l0 -2.5l0.46875 0l0 2.484375zm3.1500397 1.046875q-0.140625 0.09375 -0.34375 0.140625q-0.203125 0.0625 -0.40625 0.0625q-0.453125 0 -0.703125 -0.234375q-0.25 -0.234375 -0.25 -0.609375l0 -1.671875l-0.640625 0l0 -0.359375l0.640625 0l0 -0.625l0.453125 -0.0625l0 0.6875l0.96875 0l-0.0625 0.359375l-0.90625 0l0 1.671875q0 0.234375 0.125 0.359375q0.125 0.109375 0.40625 0.109375q0.296875 0 0.546875 -0.140625l0.171875 0.3125zm6.1750793 -0.46875q0 0.15625 0.046875 0.234375q0.0625 0.078125 0.1875 0.125l-0.109375 0.3125q-0.421875 -0.046875 -0.515625 -0.390625q-0.15625 0.1875 -0.390625 0.296875q-0.21875 0.09375 -0.5 0.09375q-0.40625 0 -0.65625 -0.234375q-0.234375 -0.234375 -0.234375 -0.625q0 -0.4375 0.328125 -0.671875q0.34375 -0.234375 0.96875 -0.234375l0.421875 0l0 -0.234375q0 -0.296875 -0.171875 -0.421875q-0.171875 -0.140625 -0.5 -0.140625q-0.3125 0 -0.71875 0.15625l-0.125 -0.34375q0.5 -0.171875 0.921875 -0.171875q0.515625 0 0.78125 0.234375q0.265625 0.234375 0.265625 0.671875l0 1.34375zm-1.15625 0.328125q0.203125 0 0.390625 -0.09375q0.1875 -0.109375 0.3125 -0.296875l0 -0.71875l-0.40625 0q-0.453125 0 -0.65625 0.15625q-0.1875 0.140625 -0.1875 0.421875q0 0.53125 0.546875 0.53125zm4.4781647 -3.65625l0 3.9375l-0.40625 0l-0.03125 -0.375q-0.15625 0.21875 -0.359375 0.328125q-0.203125 0.109375 -0.4375 0.109375q-0.53125 0 -0.8125 -0.390625q-0.265625 -0.390625 -0.265625 -1.078125q0 -0.421875 0.125 -0.75q0.140625 -0.328125 0.390625 -0.515625q0.25 -0.1875 0.578125 -0.1875q0.46875 0 0.765625 0.328125l0 -1.453125l0.453125 0.046875zm-1.09375 1.4375q-0.359375 0 -0.546875 0.28125q-0.1875 0.265625 -0.1875 0.8125q0 0.546875 0.171875 0.828125q0.171875 0.28125 0.515625 0.28125q0.390625 0 0.6875 -0.453125l0 -1.390625q-0.125 -0.171875 -0.296875 -0.265625q-0.15625 -0.09375 -0.34375 -0.09375zm7.5813293 2.359375q-0.140625 0.09375 -0.34375 0.140625q-0.203125 0.0625 -0.40625 0.0625q-0.453125 0 -0.703125 -0.234375q-0.25 -0.234375 -0.25 -0.609375l0 -1.671875l-0.640625 0l0 -0.359375l0.640625 0l0 -0.625l0.453125 -0.0625l0 0.6875l0.96875 0l-0.0625 0.359375l-0.90625 0l0 1.671875q0 0.234375 0.125 0.359375q0.125 0.109375 0.40625 0.109375q0.296875 0 0.546875 -0.140625l0.171875 0.3125zm1.3219147 -1.109375q0.015625 0.46875 0.234375 0.703125q0.234375 0.234375 0.578125 0.234375q0.203125 0 0.375 -0.0625q0.1875 -0.0625 0.375 -0.1875l0.21875 0.296875q-0.203125 0.15625 -0.46875 0.25q-0.25 0.078125 -0.5 0.078125q-0.609375 0 -0.953125 -0.390625q-0.328125 -0.40625 -0.328125 -1.078125q0 -0.421875 0.140625 -0.75q0.15625 -0.328125 0.421875 -0.515625q0.28125 -0.1875 0.65625 -0.1875q0.53125 0 0.828125 0.375q0.3125 0.359375 0.3125 1.0q0 0.125 0 0.234375l-1.890625 0zm0.75 -1.25q-0.3125 0 -0.515625 0.234375q-0.203125 0.234375 -0.234375 0.671875l1.453125 0q0 -0.4375 -0.1875 -0.671875q-0.1875 -0.234375 -0.515625 -0.234375zm5.8782043 2.09375q0 -0.203125 0.125 -0.328125q0.140625 -0.140625 0.34375 -0.140625q0.203125 0 0.328125 0.140625q0.140625 0.125 0.140625 0.328125q0 0.203125 -0.140625 0.34375q-0.125 0.125 -0.328125 0.125q-0.203125 0 -0.34375 -0.140625q-0.125 -0.140625 -0.125 -0.328125zm3.1969147 0q0 -0.203125 0.125 -0.328125q0.140625 -0.140625 0.34375 -0.140625q0.203125 0 0.328125 0.140625q0.140625 0.125 0.140625 0.328125q0 0.203125 -0.140625 0.34375q-0.125 0.125 -0.328125 0.125q-0.203125 0 -0.34375 -0.140625q-0.125 -0.140625 -0.125 -0.328125zm3.1969147 0q0 -0.203125 0.125 -0.328125q0.140625 -0.140625 0.34375 -0.140625q0.203125 0 0.328125 0.140625q0.140625 0.125 0.140625 0.328125q0 0.203125 -0.140625 0.34375q-0.125 0.125 -0.328125 0.125q-0.203125 0 -0.34375 -0.140625q-0.125 -0.140625 -0.125 -0.328125zm3.3844147 -3.53125l0.5625 0l-0.078125 1.390625l-0.390625 0l-0.09375 -1.390625zm3.4781647 3.0625q0.1875 0 0.3125 0.125q0.125 0.125 0.125 0.296875q0 0.203125 -0.109375 0.421875l-0.421875 0.984375l-0.40625 0l0.25 -1.046875q-0.078125 -0.0625 -0.125 -0.15625q-0.046875 -0.09375 -0.046875 -0.203125q0 -0.171875 0.125 -0.296875q0.125 -0.125 0.296875 -0.125z" fill-rule="nonzero"></path><path fill="#000000" d="m18.940012 46.674953q0 0.265625 0.109375 0.390625q0.109375 0.125 0.359375 0.125q0.21875 0 0.421875 -0.125q0.21875 -0.125 0.34375 -0.3125l0 -2.078125l0.453125 0l0 2.8125l-0.390625 0l-0.03125 -0.375q-0.171875 0.203125 -0.421875 0.328125q-0.234375 0.109375 -0.484375 0.109375q-0.40625 0 -0.609375 -0.21875q-0.203125 -0.21875 -0.203125 -0.609375l0 -2.046875l0.453125 0l0 2.0zm3.6969147 0.5q0.328125 0 0.515625 -0.109375q0.1875 -0.125 0.1875 -0.328125q0 -0.140625 -0.046875 -0.234375q-0.046875 -0.09375 -0.203125 -0.15625q-0.140625 -0.078125 -0.421875 -0.15625q-0.5 -0.109375 -0.734375 -0.28125q-0.234375 -0.1875 -0.234375 -0.515625q0 -0.359375 0.296875 -0.5625q0.296875 -0.203125 0.765625 -0.203125q0.59375 0 1.03125 0.296875l-0.203125 0.3125q-0.171875 -0.125 -0.375 -0.1875q-0.1875 -0.0625 -0.4375 -0.0625q-0.609375 0 -0.609375 0.359375q0 0.125 0.0625 0.21875q0.078125 0.078125 0.21875 0.140625q0.15625 0.0625 0.46875 0.140625q0.453125 0.125 0.671875 0.3125q0.234375 0.1875 0.234375 0.546875q0 0.421875 -0.34375 0.640625q-0.34375 0.203125 -0.84375 0.203125q-0.65625 0 -1.09375 -0.375l0.25 -0.296875q0.171875 0.140625 0.390625 0.21875q0.21875 0.078125 0.453125 0.078125zm2.6031647 -0.9375q0.015625 0.46875 0.234375 0.703125q0.234375 0.234375 0.578125 0.234375q0.203125 0 0.375 -0.0625q0.1875 -0.0625 0.375 -0.1875l0.21875 0.296875q-0.203125 0.15625 -0.46875 0.25q-0.25 0.078125 -0.5 0.078125q-0.609375 0 -0.953125 -0.390625q-0.328125 -0.40625 -0.328125 -1.078125q0 -0.421875 0.140625 -0.75q0.15625 -0.328125 0.421875 -0.515625q0.28125 -0.1875 0.65625 -0.1875q0.53125 0 0.828125 0.375q0.3125 0.359375 0.3125 1.0q0 0.125 0 0.234375l-1.890625 0zm0.75 -1.25q-0.3125 0 -0.515625 0.234375q-0.203125 0.234375 -0.234375 0.671875l1.453125 0q0 -0.4375 -0.1875 -0.671875q-0.1875 -0.234375 -0.515625 -0.234375zm3.9781647 -0.359375q0.171875 0 0.40625 0.046875l-0.0625 0.953125l-0.375 0l0 -0.59375l-0.015625 0q-0.65625 0 -0.921875 0.921875l0 1.1875l0.5625 0l0 0.34375l-1.453125 0l0 -0.34375l0.4375 0l0 -2.125l-0.4375 0l0 -0.34375l0.78125 0l0.078125 0.671875q0.171875 -0.359375 0.40625 -0.53125q0.234375 -0.1875 0.59375 -0.1875zm3.4156666 -0.4375l-0.8125 0l0 2.921875l0.8125 0l0 0.375l-2.093752 0l0 -0.375l0.8125019 0l0 -2.921875l-0.8125019 0l0 -0.375l2.093752 0l0 0.375zm3.2281647 -0.640625l0 3.9375l-0.40625 0l-0.03125 -0.375q-0.15625 0.21875 -0.359375 0.328125q-0.203125 0.109375 -0.4375 0.109375q-0.53125 0 -0.8125 -0.390625q-0.265625 -0.390625 -0.265625 -1.078125q0 -0.421875 0.125 -0.75q0.140625 -0.328125 0.390625 -0.515625q0.25 -0.1875 0.578125 -0.1875q0.46875 0 0.765625 0.328125l0 -1.453125l0.453125 0.046875zm-1.09375 1.4375q-0.359375 0 -0.546875 0.28125q-0.1875 0.265625 -0.1875 0.8125q0 0.546875 0.171875 0.828125q0.171875 0.28125 0.515625 0.28125q0.390625 0 0.6875 -0.453125l0 -1.390625q-0.125 -0.171875 -0.296875 -0.265625q-0.15625 -0.09375 -0.34375 -0.09375zm2.7906647 0.203125q0 -0.171875 0.109375 -0.296875q0.125 -0.125 0.3125 -0.125q0.1875 0 0.3125 0.125q0.125 0.125 0.125 0.296875q0 0.1875 -0.125 0.3125q-0.125 0.125 -0.3125 0.125q-0.1875 0 -0.3125 -0.125q-0.109375 -0.125 -0.109375 -0.3125zm0 1.921875q0 -0.171875 0.109375 -0.296875q0.125 -0.125 0.3125 -0.125q0.1875 0 0.3125 0.125q0.125 0.125 0.125 0.296875q0 0.1875 -0.125 0.3125q-0.125 0.125 -0.3125 0.125q-0.1875 0 -0.3125 -0.125q-0.109375 -0.125 -0.109375 -0.3125zm7.7532043 -2.9375l-1.453125 0l0 1.15625q0.15625 -0.09375 0.3125 -0.125q0.15625 -0.03125 0.3125 -0.03125q0.46875 0 0.734375 0.3125q0.28125 0.296875 0.28125 0.84375q0 0.359375 -0.15625 0.640625q-0.15625 0.265625 -0.4375 0.421875q-0.28125 0.15625 -0.65625 0.15625q-0.609375 0 -1.0625 -0.4375l0.28125 -0.28125q0.328125 0.34375 0.78125 0.34375q0.375 0 0.578125 -0.21875q0.203125 -0.21875 0.203125 -0.640625q0 -0.421875 -0.1875 -0.59375q-0.171875 -0.1875 -0.484375 -0.1875q-0.140625 0 -0.265625 0.03125q-0.109375 0.015625 -0.296875 0.078125l-0.359375 0l0 -1.828125l1.9375 0l-0.0625 0.359375z" fill-rule="nonzero"></path><path fill="#000000" d="m5.9648542 49.03433q0.46875 0 0.765625 0.171875q0.3125 0.15625 0.3125 0.546875q0 0.078125 0 0.109375l-0.109375 1.03125q0 0.015625 0 0.078125q0 0.234375 0.1875 0.359375q0.1875 0.109375 0.625 0.109375l0 0.359375q-0.453125 0 -0.640625 0.125q-0.171875 0.109375 -0.171875 0.359375q0 0.046875 0 0.078125l0.109375 1.015625q0 0.046875 0 0.109375q0 0.390625 -0.3125 0.546875q-0.296875 0.171875 -0.765625 0.171875l0 -0.34375q0.328125 0 0.5 -0.109375q0.1875 -0.09375 0.15625 -0.328125l-0.09375 -1.09375q-0.015625 -0.09375 -0.015625 -0.140625q0 -0.265625 0.125 -0.390625q0.140625 -0.125 0.4375 -0.171875q-0.28125 -0.046875 -0.421875 -0.1875q-0.140625 -0.140625 -0.140625 -0.40625q0 -0.078125 0.015625 -0.125l0.09375 -1.09375q0.046875 -0.421875 -0.65625 -0.421875l0 -0.359375z" fill-rule="nonzero"></path><path fill="#134f5c" d="m2.167979 78.34009l0 0c0 -5.26783 4.270419 -9.538254 9.538248 -9.538254l137.30147 0c2.5296936 0 4.95578 1.004921 6.7445526 2.7936935c1.7887726 1.788765 2.793686 4.214859 2.793686 6.7445602l0 38.151848c0 5.26783 -4.2704163 9.538246 -9.538239 9.538246l-137.30147 0c-5.267829 0 -9.538248 -4.2704163 -9.538248 -9.538246z" fill-rule="evenodd"></path><path stroke="#4a86e8" stroke-width="1.0" stroke-linejoin="round" stroke-linecap="butt" stroke-dasharray="1.0,3.0" d="m2.167979 78.34009l0 0c0 -5.26783 4.270419 -9.538254 9.538248 -9.538254l137.30147 0c2.5296936 0 4.95578 1.004921 6.7445526 2.7936935c1.7887726 1.788765 2.793686 4.214859 2.793686 6.7445602l0 38.151848c0 5.26783 -4.2704163 9.538246 -9.538239 9.538246l-137.30147 0c-5.267829 0 -9.538248 -4.2704163 -9.538248 -9.538246z" fill-rule="evenodd"></path><path fill="#ffffff" d="m60.722523 81.88914q0.125 0 0.21875 0.109375l0.640625 0.6875q-0.53125 0.65625 -1.296875 1.0q-0.765625 0.34375 -1.859375 0.34375q-0.953125 0 -1.734375 -0.328125q-0.765625 -0.328125 -1.3125 -0.90625q-0.546875 -0.59375 -0.84375 -1.40625q-0.28125 -0.828125 -0.28125 -1.796875q0 -0.96875 0.3125 -1.78125q0.328125 -0.8125 0.921875 -1.40625q0.59375 -0.59375 1.40625 -0.90625q0.8125 -0.328125 1.8125 -0.328125q0.96875 0 1.6875 0.3125q0.71875 0.296875 1.234375 0.8125l-0.53125 0.75q-0.0625 0.0625 -0.140625 0.125q-0.0625 0.046875 -0.203125 0.046875q-0.125 0 -0.28125 -0.109375q-0.140625 -0.109375 -0.359375 -0.234375q-0.21875 -0.125 -0.5625 -0.21875q-0.34375 -0.109375 -0.859375 -0.109375q-0.609375 0 -1.125 0.21875q-0.515625 0.203125 -0.890625 0.59375q-0.359375 0.390625 -0.578125 0.96875q-0.203125 0.5625 -0.203125 1.265625q0 0.734375 0.203125 1.3125q0.21875 0.5625 0.5625 0.953125q0.359375 0.390625 0.84375 0.609375q0.484375 0.203125 1.03125 0.203125q0.328125 0 0.59375 -0.03125q0.265625 -0.046875 0.484375 -0.125q0.234375 -0.078125 0.4375 -0.203125q0.203125 -0.125 0.390625 -0.296875q0.0625 -0.0625 0.125 -0.09375q0.078125 -0.03125 0.15625 -0.03125zm4.62418 -4.203125q0.6875 0 1.25 0.21875q0.5625 0.21875 0.953125 0.640625q0.40625 0.40625 0.609375 1.0q0.21875 0.578125 0.21875 1.296875q0 0.734375 -0.21875 1.328125q-0.203125 0.578125 -0.609375 1.0q-0.390625 0.40625 -0.953125 0.640625q-0.5625 0.21875 -1.25 0.21875q-0.6875 0 -1.25 -0.21875q-0.5625038 -0.234375 -0.9687538 -0.640625q-0.40625 -0.421875 -0.625 -1.0q-0.21875 -0.59375 -0.21875 -1.328125q0 -0.71875 0.21875 -1.296875q0.21875 -0.59375 0.625 -1.0q0.40625 -0.421875 0.9687538 -0.640625q0.5625 -0.21875 1.25 -0.21875zm0 5.203125q0.765625 0 1.125 -0.515625q0.375 -0.515625 0.375 -1.515625q0 -1.0 -0.375 -1.515625q-0.359375 -0.53125 -1.125 -0.53125q-0.78125 0 -1.15625 0.53125q-0.3750038 0.53125 -0.3750038 1.515625q0 0.984375 0.3750038 1.515625q0.375 0.515625 1.15625 0.515625zm4.197052 1.046875l0 -6.15625l0.90625 0q0.28125 0 0.375 0.265625l0.09375 0.453125q0.15625 -0.171875 0.328125 -0.3125q0.1875 -0.15625 0.390625 -0.265625q0.203125 -0.109375 0.421875 -0.171875q0.234375 -0.0625 0.515625 -0.0625q0.578125 0 0.953125 0.3125q0.375 0.3125 0.5625 0.84375q0.140625 -0.3125 0.359375 -0.53125q0.21875 -0.21875 0.46875 -0.359375q0.265625 -0.140625 0.546875 -0.203125q0.296875 -0.0625 0.59375 -0.0625q0.515625 0 0.90625 0.15625q0.390625 0.15625 0.65625 0.453125q0.28125 0.296875 0.421875 0.734375q0.140625 0.4375 0.140625 0.984375l0 3.921875l-1.484375 0l0 -3.921875q0 -0.578125 -0.265625 -0.875q-0.25 -0.296875 -0.75 -0.296875q-0.21875 0 -0.421875 0.078125q-0.1875 0.078125 -0.34375 0.21875q-0.140625 0.140625 -0.234375 0.375q-0.078125 0.21875 -0.078125 0.5l0 3.921875l-1.484375 0l0 -3.921875q0 -0.609375 -0.25 -0.890625q-0.25 -0.28125 -0.734375 -0.28125q-0.3125 0 -0.59375 0.15625q-0.28125 0.15625 -0.515625 0.4375l0 4.5l-1.484375 0zm10.104065 0l0 -6.15625l0.90625 0q0.28125 0 0.375 0.265625l0.09375 0.453125q0.15625 -0.171875 0.328125 -0.3125q0.1875 -0.15625 0.390625 -0.265625q0.203125 -0.109375 0.421875 -0.171875q0.234375 -0.0625 0.515625 -0.0625q0.578125 0 0.953125 0.3125q0.375 0.3125 0.5625 0.84375q0.140625 -0.3125 0.359375 -0.53125q0.21875 -0.21875 0.46875 -0.359375q0.265625 -0.140625 0.546875 -0.203125q0.296875 -0.0625 0.59375 -0.0625q0.515625 0 0.90625 0.15625q0.390625 0.15625 0.65625 0.453125q0.28125 0.296875 0.421875 0.734375q0.140625 0.4375 0.140625 0.984375l0 3.921875l-1.484375 0l0 -3.921875q0 -0.578125 -0.265625 -0.875q-0.25 -0.296875 -0.75 -0.296875q-0.21875 0 -0.421875 0.078125q-0.1875 0.078125 -0.34375 0.21875q-0.140625 0.140625 -0.234375 0.375q-0.078125 0.21875 -0.078125 0.5l0 3.921875l-1.484375 0l0 -3.921875q0 -0.609375 -0.25 -0.890625q-0.25 -0.28125 -0.734375 -0.28125q-0.3125 0 -0.59375 0.15625q-0.28125 0.15625 -0.515625 0.4375l0 4.5l-1.484375 0zm12.65094 -6.25q0.578125 0 1.0625 0.1875q0.484375 0.1875 0.84375 0.546875q0.359375 0.34375 0.546875 0.875q0.203125 0.515625 0.203125 1.171875q0 0.171875 -0.015625 0.28125q-0.015625 0.109375 -0.0625 0.171875q-0.03125 0.0625 -0.09375 0.09375q-0.0625 0.03125 -0.171875 0.03125l-3.796875 0q0.0625 0.953125 0.5 1.390625q0.453125 0.4375 1.1875 0.4375q0.359375 0 0.609375 -0.078125q0.265625 -0.078125 0.453125 -0.171875q0.203125 -0.109375 0.34375 -0.1875q0.15625 -0.09375 0.296875 -0.09375q0.078125 0 0.140625 0.03125q0.078125 0.03125 0.125 0.109375l0.4375 0.53125q-0.25 0.296875 -0.5625 0.5q-0.296875 0.1875 -0.640625 0.3125q-0.328125 0.109375 -0.671875 0.15625q-0.34375 0.046875 -0.671875 0.046875q-0.640625 0 -1.203125 -0.21875q-0.546875 -0.21875 -0.953125 -0.625q-0.40625 -0.421875 -0.640625 -1.03125q-0.234375 -0.625 -0.234375 -1.421875q0 -0.640625 0.203125 -1.1875q0.203125 -0.5625 0.578125 -0.96875q0.390625 -0.40625 0.9375 -0.640625q0.546875 -0.25 1.25 -0.25zm0.015625 1.0625q-0.640625 0 -1.015625 0.375q-0.359375 0.359375 -0.453125 1.03125l2.78125 0q0 -0.296875 -0.078125 -0.546875q-0.078125 -0.25 -0.25 -0.4375q-0.15625 -0.203125 -0.40625 -0.3125q-0.234375 -0.109375 -0.578125 -0.109375zm3.8515472 5.1875l0 -6.15625l0.90625 0q0.28125 0 0.375 0.265625l0.09375 0.484375q0.1875 -0.1875 0.390625 -0.34375q0.21875 -0.15625 0.4375 -0.265625q0.234375 -0.109375 0.5 -0.171875q0.265625 -0.0625 0.578125 -0.0625q0.5 0 0.890625 0.171875q0.390625 0.171875 0.65625 0.484375q0.265625 0.296875 0.390625 0.734375q0.140625 0.421875 0.140625 0.9375l0 3.921875l-1.484375 0l0 -3.921875q0 -0.5625 -0.265625 -0.859375q-0.25 -0.3125 -0.78125 -0.3125q-0.375 0 -0.71875 0.171875q-0.328125 0.171875 -0.625 0.46875l0 4.453125l-1.484375 0zm8.837677 0.09375q-0.796875 0 -1.234375 -0.453125q-0.421875 -0.453125 -0.421875 -1.25l0 -3.4375l-0.625 0q-0.125 0 -0.21875 -0.078125q-0.078125 -0.078125 -0.078125 -0.234375l0 -0.59375l0.984375 -0.15625l0.3125 -1.671875q0.03125 -0.125 0.109375 -0.1875q0.09375 -0.078125 0.21875 -0.078125l0.78125 0l0 1.9375l1.609375 0l0 1.0625l-1.609375 0l0 3.34375q0 0.28125 0.140625 0.453125q0.140625 0.15625 0.375 0.15625q0.140625 0 0.234375 -0.03125q0.09375 -0.03125 0.15625 -0.0625q0.078125 -0.046875 0.125 -0.078125q0.0625 -0.03125 0.109375 -0.03125q0.078125 0 0.109375 0.03125q0.046875 0.03125 0.09375 0.09375l0.4375 0.71875q-0.3125 0.265625 -0.734375 0.40625q-0.421875 0.140625 -0.875 0.140625z" fill-rule="nonzero"></path><path fill="#ffffff" d="m10.367887 87.44226q-0.71875 0 -0.671875 0.421875l0.109375 1.09375q0 0.046875 0 0.140625q0 0.25 -0.125 0.390625q-0.109375 0.140625 -0.375 0.1875q0.265625 0.046875 0.375 0.171875q0.125 0.125 0.125 0.390625q0 0.09375 0 0.140625l-0.109375 1.09375q-0.015625 0.234375 0.15625 0.328125q0.1875 0.109375 0.515625 0.109375l0 0.34375q-0.484375 0 -0.796875 -0.171875q-0.296875 -0.15625 -0.296875 -0.546875q0 -0.0625 0.015625 -0.109375l0.109375 -1.015625q0 -0.03125 0 -0.09375q0 -0.234375 -0.171875 -0.34375q-0.171875 -0.125 -0.640625 -0.125l0 -0.359375q0.46875 0 0.640625 -0.109375q0.171875 -0.109375 0.171875 -0.34375q0 -0.0625 0 -0.09375l-0.109375 -1.03125q-0.015625 -0.03125 -0.015625 -0.109375q0 -0.390625 0.296875 -0.546875q0.3125 -0.171875 0.796875 -0.171875l0 0.359375z" fill-rule="nonzero"></path><path fill="#ffffff" d="m22.343046 93.41101q0.15625 0 0.234375 0.09375q0.09375 0.09375 0.09375 0.234375q0 0.125 -0.09375 0.21875q-0.078125 0.09375 -0.234375 0.09375q-0.140625 0 -0.234375 -0.09375q-0.078125 -0.09375 -0.078125 -0.21875q0 -0.140625 0.078125 -0.234375q0.09375 -0.09375 0.234375 -0.09375zm0.359375 3.765625l0.796875 0l0 0.359375l-2.109375 0l0 -0.359375l0.875 0l0 -2.09375l-0.84375 0l0 -0.359375l1.28125 0l0 2.453125zm3.9156647 -3.578125l0 3.9375l-0.40625 0l-0.03125 -0.375q-0.15625 0.21875 -0.359375 0.328125q-0.203125 0.109375 -0.4375 0.109375q-0.53125 0 -0.8125 -0.390625q-0.265625 -0.390625 -0.265625 -1.078125q0 -0.421875 0.125 -0.75q0.140625 -0.328125 0.390625 -0.515625q0.25 -0.1875 0.578125 -0.1875q0.46875 0 0.765625 0.328125l0 -1.453125l0.453125 0.046875zm-1.09375 1.4375q-0.359375 0 -0.546875 0.28125q-0.1875 0.265625 -0.1875 0.8125q0 0.546875 0.171875 0.828125q0.171875 0.28125 0.515625 0.28125q0.390625 0 0.6875 -0.453125l0 -1.390625q-0.125 -0.171875 -0.296875 -0.265625q-0.15625 -0.09375 -0.34375 -0.09375zm2.7906647 0.203125q0 -0.171875 0.109375 -0.296875q0.125 -0.125 0.3125 -0.125q0.1875 0 0.3125 0.125q0.125 0.125 0.125 0.296875q0 0.1875 -0.125 0.3125q-0.125 0.125 -0.3125 0.125q-0.1875 0 -0.3125 -0.125q-0.109375 -0.125 -0.109375 -0.3125zm0 1.921875q0 -0.171875 0.109375 -0.296875q0.125 -0.125 0.3125 -0.125q0.1875 0 0.3125 0.125q0.125 0.125 0.125 0.296875q0 0.1875 -0.125 0.3125q-0.125 0.125 -0.3125 0.125q-0.1875 0 -0.3125 -0.125q-0.109375 -0.125 -0.109375 -0.3125zm7.9719524 0.015625l0 0.359375l-2.109375 0l0 -0.359375l0.90625 0l0 -2.828125l-0.84375 0.515625l-0.203125 -0.3125l1.09375 -0.6875l0.40625 0l0 3.3125l0.75 0zm3.1969147 0l0 0.359375l-2.109375 0l0 -0.359375l0.90625 0l0 -2.828125l-0.84375 0.515625l-0.203125 -0.3125l1.09375 -0.6875l0.40625 0l0 3.3125l0.75 0zm3.1969147 0l0 0.359375l-2.109375 0l0 -0.359375l0.90625 0l0 -2.828125l-0.84375 0.515625l-0.203125 -0.3125l1.09375 -0.6875l0.40625 0l0 3.3125l0.75 0zm2.0406647 -0.515625q0.1875 0 0.3125 0.125q0.125 0.125 0.125 0.296875q0 0.203125 -0.109375 0.421875l-0.421875 0.984375l-0.40625 0l0.25 -1.046875q-0.078125 -0.0625 -0.125 -0.15625q-0.046875 -0.09375 -0.046875 -0.203125q0 -0.171875 0.125 -0.296875q0.125 -0.125 0.296875 -0.125z" fill-rule="nonzero"></path><path fill="#073763" d="m20.749296 98.55416l31.969145 0l0 6.393814l-31.969145 0l0 -6.393814z" fill-rule="nonzero"></path><path fill="#ffffff" d="m22.686796 100.614136q0.53125 0 0.78125 0.390625q0.25 0.390625 0.25 1.109375q0 0.4375 -0.125 0.78125q-0.125 0.34375 -0.375 0.546875q-0.25 0.1875 -0.578125 0.1875q-0.421875 0 -0.671875 -0.296875l0 1.296875l-0.84375 0.09375l0 -4.015625l0.75 0l0.03125 0.3125q0.171875 -0.203125 0.375 -0.296875q0.203125 -0.109375 0.40625 -0.109375zm-0.265625 0.625q-0.265625 0 -0.453125 0.328125l0 1.1875q0.09375 0.125 0.1875 0.1875q0.09375 0.0625 0.21875 0.0625q0.234375 0 0.359375 -0.203125q0.125 -0.21875 0.125 -0.671875q0 -0.5 -0.109375 -0.6875q-0.109375 -0.203125 -0.328125 -0.203125zm3.1187897 -0.625q0.65625 0 1.015625 0.40625q0.359375 0.40625 0.359375 1.09375q0 0.71875 -0.359375 1.125q-0.359375 0.390625 -1.015625 0.390625q-0.640625 0 -1.015625 -0.390625q-0.359375 -0.40625 -0.359375 -1.125q0 -0.453125 0.15625 -0.78125q0.171875 -0.34375 0.484375 -0.53125q0.3125 -0.1875 0.734375 -0.1875zm0 0.625q-0.25 0 -0.375 0.21875q-0.125 0.203125 -0.125 0.65625q0 0.46875 0.125 0.6875q0.125 0.203125 0.375 0.203125q0.265625 0 0.390625 -0.203125q0.125 -0.21875 0.125 -0.6875q0 -0.453125 -0.125 -0.65625q-0.125 -0.21875 -0.390625 -0.21875zm3.1187897 1.78125q0.203125 0 0.328125 -0.0625q0.140625 -0.0625 0.140625 -0.203125q0 -0.09375 -0.0625 -0.140625q-0.046875 -0.0625 -0.1875 -0.125q-0.140625 -0.0625 -0.421875 -0.140625q-0.4375 -0.109375 -0.65625 -0.296875q-0.21875 -0.203125 -0.21875 -0.5625q0 -0.390625 0.3125 -0.625q0.328125 -0.25 0.90625 -0.25q0.671875 0 1.140625 0.34375l-0.328125 0.5q-0.390625 -0.25 -0.78125 -0.25q-0.21875 0 -0.3125 0.0625q-0.09375 0.046875 -0.09375 0.15625q0 0.078125 0.046875 0.140625q0.046875 0.046875 0.1875 0.09375q0.140625 0.046875 0.421875 0.125q0.3125 0.09375 0.5 0.203125q0.203125 0.09375 0.296875 0.265625q0.109375 0.171875 0.109375 0.4375q0 0.296875 -0.1875 0.515625q-0.171875 0.203125 -0.484375 0.3125q-0.296875 0.109375 -0.65625 0.109375q-0.390625 0 -0.71875 -0.109375q-0.3125 -0.125 -0.546875 -0.3125l0.421875 -0.484375q0.390625 0.296875 0.84375 0.296875zm4.603163 0.34375q-0.40625 0.265625 -0.921875 0.265625q-0.5468731 0 -0.8281231 -0.28125q-0.265625 -0.28125 -0.265625 -0.78125l0 -1.28125l-0.59375 0l0 -0.578125l0.59375 0l0 -0.609375l0.8437481 -0.109375l0 0.71875l0.90625 0l-0.09375 0.578125l-0.8125 0l0 1.28125q0 0.21875 0.09375 0.3125q0.09375 0.078125 0.296875 0.078125q0.265625 0 0.5 -0.125l0.28125 0.53125zm3.0719147 -2.875l-0.765625 0l0 2.40625l0.765625 0l0 0.640625l-2.390625 0l0 -0.640625l0.75 0l0 -2.40625l-0.75 0l0 -0.640625l2.390625 0l0 0.640625zm3.2281647 -0.90625l0 3.953125l-0.75 0l-0.046875 -0.3125q-0.125 0.1875 -0.328125 0.296875q-0.1875 0.109375 -0.453125 0.109375q-0.515625 0 -0.78125 -0.40625q-0.25 -0.40625 -0.25 -1.109375q0 -0.4375 0.125 -0.78125q0.140625 -0.34375 0.390625 -0.53125q0.265625 -0.1875 0.609375 -0.1875q0.375 0 0.640625 0.265625l0 -1.390625l0.84375 0.09375zm-1.265625 1.640625q-0.21875 0 -0.359375 0.21875q-0.125 0.21875 -0.125 0.671875q0 0.5 0.109375 0.703125q0.125 0.1875 0.328125 0.1875q0.265625 0 0.46875 -0.328125l0 -1.21875q-0.09375 -0.109375 -0.203125 -0.171875q-0.09375 -0.0625 -0.21875 -0.0625zm2.6656647 0q0 -0.234375 0.15625 -0.390625q0.171875 -0.171875 0.40625 -0.171875q0.234375 0 0.390625 0.171875q0.171875 0.15625 0.171875 0.390625q0 0.234375 -0.171875 0.390625q-0.15625 0.15625 -0.390625 0.15625q-0.234375 0 -0.40625 -0.15625q-0.15625 -0.15625 -0.15625 -0.390625zm0 1.84375q0 -0.234375 0.15625 -0.390625q0.171875 -0.15625 0.40625 -0.15625q0.234375 0 0.390625 0.15625q0.171875 0.15625 0.171875 0.390625q0 0.234375 -0.171875 0.40625q-0.15625 0.15625 -0.390625 0.15625q-0.234375 0 -0.40625 -0.15625q-0.15625 -0.171875 -0.15625 -0.40625zm6.8313293 -3.3125q0.40625 0 0.6875 0.140625q0.296875 0.140625 0.4375 0.390625q0.15625 0.234375 0.15625 0.515625q0 0.3125 -0.140625 0.59375q-0.140625 0.28125 -0.46875 0.640625q-0.3125 0.34375 -0.890625 0.859375l1.578125 0l-0.09375 0.640625l-2.453125 0l0 -0.59375q0.65625 -0.640625 0.984375 -0.984375q0.328125 -0.359375 0.46875 -0.609375q0.15625 -0.25 0.15625 -0.46875q0 -0.21875 -0.140625 -0.34375q-0.125 -0.140625 -0.359375 -0.140625q-0.203125 0 -0.359375 0.09375q-0.15625 0.078125 -0.3125 0.28125l-0.5 -0.390625q0.21875 -0.296875 0.515625 -0.453125q0.3125 -0.171875 0.734375 -0.171875zm3.1812897 0q0.375 0 0.65625 0.125q0.296875 0.125 0.4375 0.34375q0.15625 0.21875 0.15625 0.46875q0 0.34375 -0.203125 0.5625q-0.1875 0.21875 -0.546875 0.328125q0.875 0.109375 0.875 0.921875q0 0.3125 -0.171875 0.578125q-0.171875 0.25 -0.5 0.40625q-0.328125 0.140625 -0.765625 0.140625q-0.40625 0 -0.734375 -0.140625q-0.328125 -0.15625 -0.5625 -0.421875l0.46875 -0.4375q0.3125 0.359375 0.78125 0.359375q0.28125 0 0.4375 -0.140625q0.171875 -0.15625 0.171875 -0.40625q0 -0.5625 -0.609375 -0.5625l-0.34375 0l0.09375 -0.578125l0.234375 0q0.265625 0 0.40625 -0.125q0.15625 -0.125 0.15625 -0.359375q0 -0.203125 -0.15625 -0.3125q-0.140625 -0.125 -0.375 -0.125q-0.40625 0 -0.734375 0.3125l-0.4375 -0.4375q0.515625 -0.5 1.265625 -0.5z" fill-rule="nonzero"></path><path fill="#ffffff" d="m54.31219 102.66101q0.1875 0 0.3125 0.125q0.125 0.125 0.125 0.296875q0 0.203125 -0.109375 0.421875l-0.421875 0.984375l-0.40625 0l0.25 -1.046875q-0.078125 -0.0625 -0.125 -0.15625q-0.046875 -0.09375 -0.046875 -0.203125q0 -0.171875 0.125 -0.296875q0.125 -0.125 0.296875 -0.125z" fill-rule="nonzero"></path><path fill="#ffffff" d="m21.733671 107.09851q0.328125 -0.421875 0.796875 -0.421875q0.546875 0 0.796875 0.390625q0.25 0.375 0.25 1.0625q0 0.65625 -0.296875 1.0625q-0.28125 0.40625 -0.8125 0.40625q-0.484375 0 -0.765625 -0.359375l-0.03125 0.296875l-0.390625 0l0 -3.9375l0.453125 -0.046875l0 1.546875zm0.640625 2.140625q0.34375 0 0.53125 -0.28125q0.1875 -0.28125 0.1875 -0.828125q0 -0.546875 -0.171875 -0.8125q-0.15625 -0.28125 -0.484375 -0.28125q-0.21875 0 -0.40625 0.125q-0.171875 0.125 -0.296875 0.3125l0 1.390625q0.109375 0.171875 0.265625 0.28125q0.171875 0.09375 0.375 0.09375zm3.1812897 -2.5625q0.578125 0 0.890625 0.390625q0.3125 0.390625 0.3125 1.0625q0 0.65625 -0.328125 1.0625q-0.3125 0.40625 -0.890625 0.40625q-0.578125 0 -0.890625 -0.390625q-0.3125 -0.390625 -0.3125 -1.078125q0 -0.65625 0.3125 -1.046875q0.3125 -0.40625 0.90625 -0.40625zm0 0.359375q-0.375 0 -0.5625 0.28125q-0.171875 0.265625 -0.171875 0.8125q0 0.5625 0.171875 0.828125q0.1875 0.265625 0.546875 0.265625q0.375 0 0.546875 -0.265625q0.1875 -0.265625 0.1875 -0.828125q0 -0.546875 -0.1875 -0.8125q-0.171875 -0.28125 -0.53125 -0.28125zm4.2594147 -1.4375l0 3.9375l-0.40625 0l-0.03125 -0.375q-0.15625 0.21875 -0.359375 0.328125q-0.203125 0.109375 -0.4375 0.109375q-0.53125 0 -0.8125 -0.390625q-0.265625 -0.390625 -0.265625 -1.078125q0 -0.421875 0.125 -0.75q0.140625 -0.328125 0.390625 -0.515625q0.25 -0.1875 0.578125 -0.1875q0.46875 0 0.765625 0.328125l0 -1.453125l0.453125 0.046875zm-1.09375 1.4375q-0.359375 0 -0.546875 0.28125q-0.1875 0.265625 -0.1875 0.8125q0 0.546875 0.171875 0.828125q0.171875 0.28125 0.515625 0.28125q0.390625 0 0.6875 -0.453125l0 -1.390625q-0.125 -0.171875 -0.296875 -0.265625q-0.15625 -0.09375 -0.34375 -0.09375zm3.5094128 2.515625q-0.171875 0.484375 -0.4687481 0.765625q-0.28125 0.296875 -0.796875 0.34375l-0.0625 -0.359375q0.28125 -0.046875 0.453125 -0.140625q0.171875 -0.09375 0.265625 -0.25q0.09375 -0.140625 0.171875 -0.375l-0.140625 0l-0.984375 -2.8125l0.46875 0l0.8125 2.46875l0.7968731 -2.46875l0.453125 0l-0.96875 2.828125zm2.4781647 -2.3125q0 -0.171875 0.109375 -0.296875q0.125 -0.125 0.3125 -0.125q0.1875 0 0.3125 0.125q0.125 0.125 0.125 0.296875q0 0.1875 -0.125 0.3125q-0.125 0.125 -0.3125 0.125q-0.1875 0 -0.3125 -0.125q-0.109375 -0.125 -0.109375 -0.3125zm0 1.921875q0 -0.171875 0.109375 -0.296875q0.125 -0.125 0.3125 -0.125q0.1875 0 0.3125 0.125q0.125 0.125 0.125 0.296875q0 0.1875 -0.125 0.3125q-0.125 0.125 -0.3125 0.125q-0.1875 0 -0.3125 -0.125q-0.109375 -0.125 -0.109375 -0.3125zm7.1907043 -2.5625q0 0.171875 -0.125 0.28125q-0.125 0.109375 -0.28125 0.109375q-0.171875 0 -0.296875 -0.109375q-0.109375 -0.109375 -0.109375 -0.28125q0 -0.15625 0.09375 -0.34375l0.4375 -0.921875l0.359375 0l-0.21875 0.984375q0.0625 0.03125 0.09375 0.125q0.046875 0.078125 0.046875 0.15625zm1.9469147 -0.734375l0.46875 0l0 3.265625l1.671875 0l-0.0625 0.40625l-2.078125 0l0 -3.671875zm4.0875397 0.8125q0.578125 0 0.890625 0.390625q0.3125 0.390625 0.3125 1.0625q0 0.65625 -0.328125 1.0625q-0.3125 0.40625 -0.890625 0.40625q-0.578125 0 -0.890625 -0.390625q-0.3125 -0.390625 -0.3125 -1.078125q0 -0.65625 0.3125 -1.046875q0.3125 -0.40625 0.90625 -0.40625zm0 0.359375q-0.375 0 -0.5625 0.28125q-0.171875 0.265625 -0.171875 0.8125q0 0.5625 0.171875 0.828125q0.1875 0.265625 0.546875 0.265625q0.375 0 0.546875 -0.265625q0.1875 -0.265625 0.1875 -0.828125q0 -0.546875 -0.1875 -0.8125q-0.171875 -0.28125 -0.53125 -0.28125zm3.4469147 2.5l-0.515625 0l-1.03125 -2.8125l0.484375 0l0.8125 2.40625l0.796875 -2.40625l0.46875 0l-1.015625 2.8125zm2.2281647 -1.25q0.015625 0.46875 0.234375 0.703125q0.234375 0.234375 0.578125 0.234375q0.203125 0 0.375 -0.0625q0.1875 -0.0625 0.375 -0.1875l0.21875 0.296875q-0.203125 0.15625 -0.46875 0.25q-0.25 0.078125 -0.5 0.078125q-0.609375 0 -0.953125 -0.390625q-0.328125 -0.40625 -0.328125 -1.078125q0 -0.421875 0.140625 -0.75q0.15625 -0.328125 0.421875 -0.515625q0.28125 -0.1875 0.65625 -0.1875q0.53125 0 0.828125 0.375q0.3125 0.359375 0.3125 1.0q0 0.125 0 0.234375l-1.890625 0zm0.75 -1.25q-0.3125 0 -0.515625 0.234375q-0.203125 0.234375 -0.234375 0.671875l1.453125 0q0 -0.4375 -0.1875 -0.671875q-0.1875 -0.234375 -0.515625 -0.234375zm4.2281647 -1.4375l0 3.9375l-0.40625 0l-0.03125 -0.375q-0.15625 0.21875 -0.359375 0.328125q-0.203125 0.109375 -0.4375 0.109375q-0.53125 0 -0.8125 -0.390625q-0.265625 -0.390625 -0.265625 -1.078125q0 -0.421875 0.125 -0.75q0.140625 -0.328125 0.390625 -0.515625q0.25 -0.1875 0.578125 -0.1875q0.46875 0 0.765625 0.328125l0 -1.453125l0.453125 0.046875zm-1.09375 1.4375q-0.359375 0 -0.546875 0.28125q-0.1875 0.265625 -0.1875 0.8125q0 0.546875 0.171875 0.828125q0.171875 0.28125 0.515625 0.28125q0.390625 0 0.6875 -0.453125l0 -1.390625q-0.125 -0.171875 -0.296875 -0.265625q-0.15625 -0.09375 -0.34375 -0.09375zm7.581333 2.359375q-0.140625 0.09375 -0.34375 0.140625q-0.203125 0.0625 -0.40625 0.0625q-0.4531288 0 -0.7031288 -0.234375q-0.25 -0.234375 -0.25 -0.609375l0 -1.671875l-0.640625 0l0 -0.359375l0.640625 0l0 -0.625l0.453125 -0.0625l0 0.6875l0.9687538 0l-0.0625 0.359375l-0.9062538 0l0 1.671875q0 0.234375 0.125 0.359375q0.12500381 0.109375 0.4062538 0.109375q0.296875 0 0.546875 -0.140625l0.171875 0.3125zm1.4156647 -2.28125q0.15625 -0.203125 0.390625 -0.3125q0.25 -0.125 0.5 -0.125q0.796875 0 0.796875 0.828125l0 2.03125l-0.453125 0l0 -2.03125q0 -0.25 -0.125 -0.359375q-0.109375 -0.125 -0.359375 -0.125q-0.21875 0 -0.421875 0.140625q-0.203125 0.140625 -0.328125 0.328125l0 2.046875l-0.453125 0l0 -3.9375l0.453125 -0.046875l0 1.5625zm3.8062897 -1.703125q0.15625 0 0.234375 0.09375q0.09375 0.09375 0.09375 0.234375q0 0.125 -0.09375 0.21875q-0.078125 0.09375 -0.234375 0.09375q-0.140625 0 -0.234375 -0.09375q-0.078125 -0.09375 -0.078125 -0.21875q0 -0.140625 0.078125 -0.234375q0.09375 -0.09375 0.234375 -0.09375zm0.359375 3.765625l0.796875 0l0 0.359375l-2.109375 0l0 -0.359375l0.875 0l0 -2.09375l-0.84375 0l0 -0.359375l1.28125 0l0 2.453125zm2.7281647 0.046875q0.328125 0 0.515625 -0.109375q0.1875 -0.125 0.1875 -0.328125q0 -0.140625 -0.046875 -0.234375q-0.046875 -0.09375 -0.203125 -0.15625q-0.140625 -0.078125 -0.421875 -0.15625q-0.5 -0.109375 -0.734375 -0.28125q-0.234375 -0.1875 -0.234375 -0.515625q0 -0.359375 0.296875 -0.5625q0.296875 -0.203125 0.765625 -0.203125q0.59375 0 1.03125 0.296875l-0.203125 0.3125q-0.171875 -0.125 -0.375 -0.1875q-0.1875 -0.0625 -0.4375 -0.0625q-0.609375 0 -0.609375 0.359375q0 0.125 0.0625 0.21875q0.078125 0.078125 0.21875 0.140625q0.15625 0.0625 0.46875 0.140625q0.453125 0.125 0.671875 0.3125q0.234375 0.1875 0.234375 0.546875q0 0.421875 -0.34375 0.640625q-0.34375 0.203125 -0.84375 0.203125q-0.65625 0 -1.09375 -0.375l0.25 -0.296875q0.171875 0.140625 0.390625 0.21875q0.21875 0.078125 0.453125 0.078125zm7.4563293 -0.296875q0 0.15625 0.046875 0.234375q0.0625 0.078125 0.1875 0.125l-0.109375 0.3125q-0.421875 -0.046875 -0.515625 -0.390625q-0.15625 0.1875 -0.390625 0.296875q-0.21875 0.09375 -0.5 0.09375q-0.40625 0 -0.65625 -0.234375q-0.234375 -0.234375 -0.234375 -0.625q0 -0.4375 0.328125 -0.671875q0.34375 -0.234375 0.96875 -0.234375l0.421875 0l0 -0.234375q0 -0.296875 -0.171875 -0.421875q-0.171875 -0.140625 -0.5 -0.140625q-0.3125 0 -0.71875 0.15625l-0.125 -0.34375q0.5 -0.171875 0.921875 -0.171875q0.515625 0 0.78125 0.234375q0.265625 0.234375 0.265625 0.671875l0 1.34375zm-1.15625 0.328125q0.203125 0 0.390625 -0.09375q0.1875 -0.109375 0.3125 -0.296875l0 -0.71875l-0.40625 0q-0.453125 0 -0.65625 0.15625q-0.1875 0.140625 -0.1875 0.421875q0 0.53125 0.546875 0.53125zm4.2281647 -2.578125q0.171875 0 0.40625 0.046875l-0.0625 0.953125l-0.375 0l0 -0.59375l-0.015625 0q-0.65625 0 -0.921875 0.921875l0 1.1875l0.5625 0l0 0.34375l-1.453125 0l0 -0.34375l0.4375 0l0 -2.125l-0.4375 0l0 -0.34375l0.78125 0l0.078125 0.671875q0.171875 -0.359375 0.40625 -0.53125q0.234375 -0.1875 0.59375 -0.1875zm3.5406647 2.71875q-0.140625 0.09375 -0.34375 0.140625q-0.203125 0.0625 -0.40625 0.0625q-0.453125 0 -0.703125 -0.234375q-0.25 -0.234375 -0.25 -0.609375l0 -1.671875l-0.640625 0l0 -0.359375l0.640625 0l0 -0.625l0.453125 -0.0625l0 0.6875l0.96875 0l-0.0625 0.359375l-0.90625 0l0 1.671875q0 0.234375 0.125 0.359375q0.125 0.109375 0.40625 0.109375q0.296875 0 0.546875 -0.140625l0.171875 0.3125zm2.0250397 -3.984375q0.15625 0 0.234375 0.09375q0.09375 0.09375 0.09375 0.234375q0 0.125 -0.09375 0.21875q-0.078125 0.09375 -0.234375 0.09375q-0.140625 0 -0.234375 -0.09375q-0.078125 -0.09375 -0.078125 -0.21875q0 -0.140625 0.078125 -0.234375q0.09375 -0.09375 0.234375 -0.09375zm0.359375 3.765625l0.796875 0l0 0.359375l-2.109375 0l0 -0.359375l0.875 0l0 -2.09375l-0.84375 0l0 -0.359375l1.28125 0l0 2.453125zm3.0562897 0.03125q0.359375 0 0.71875 -0.234375l0.21875 0.28125q-0.171875 0.15625 -0.4375 0.25q-0.265625 0.09375 -0.5 0.09375q-0.625 0 -0.984375 -0.390625q-0.34375 -0.390625 -0.34375 -1.0625q0 -0.421875 0.15625 -0.75q0.15625 -0.34375 0.453125 -0.53125q0.296875 -0.1875 0.71875 -0.1875q0.53125 0 0.9375 0.328125l-0.21875 0.28125q-0.375 -0.234375 -0.734375 -0.234375q-0.375 0 -0.609375 0.28125q-0.21875 0.28125 -0.21875 0.8125q0 0.53125 0.21875 0.796875q0.234375 0.265625 0.625 0.265625zm3.0094147 -0.359375q0 0.375 0.46875 0.375q0.21875 0 0.46875 -0.09375l0.125 0.328125q-0.28125 0.140625 -0.671875 0.140625q-0.375 0 -0.609375 -0.203125q-0.21875 -0.21875 -0.21875 -0.578125l0 -2.859375l-0.875 0l0 -0.359375l1.3125 0l0 3.25zm2.4625397 -0.5625q0.015625 0.46875 0.234375 0.703125q0.234375 0.234375 0.578125 0.234375q0.203125 0 0.375 -0.0625q0.1875 -0.0625 0.375 -0.1875l0.21875 0.296875q-0.203125 0.15625 -0.46875 0.25q-0.25 0.078125 -0.5 0.078125q-0.609375 0 -0.953125 -0.390625q-0.328125 -0.40625 -0.328125 -1.078125q0 -0.421875 0.140625 -0.75q0.15625 -0.328125 0.421875 -0.515625q0.28125 -0.1875 0.65625 -0.1875q0.53125 0 0.828125 0.375q0.3125 0.359375 0.3125 1.0q0 0.125 0 0.234375l-1.890625 0zm0.75 -1.25q-0.3125 0 -0.515625 0.234375q-0.203125 0.234375 -0.234375 0.671875l1.453125 0q0 -0.4375 -0.1875 -0.671875q-0.1875 -0.234375 -0.515625 -0.234375zm2.6812897 2.09375q0 -0.203125 0.125 -0.328125q0.140625 -0.140625 0.34375 -0.140625q0.203125 0 0.328125 0.140625q0.140625 0.125 0.140625 0.328125q0 0.203125 -0.140625 0.34375q-0.125 0.125 -0.328125 0.125q-0.203125 0 -0.34375 -0.140625q-0.125 -0.140625 -0.125 -0.328125zm3.2906647 -3.40625q0 -0.15625 0.125 -0.265625q0.125 -0.125 0.28125 -0.125q0.171875 0 0.296875 0.109375q0.125 0.109375 0.125 0.28125q0 0.078125 -0.03125 0.15625q-0.015625 0.0625 -0.078125 0.1875l-0.4375 0.921875l-0.34375 0l0.21875 -0.96875q-0.0625 -0.046875 -0.109375 -0.125q-0.046875 -0.078125 -0.046875 -0.171875zm3.5719147 2.9375q0.1875 0 0.3125 0.125q0.125 0.125 0.125 0.296875q0 0.203125 -0.109375 0.421875l-0.421875 0.984375l-0.40625 0l0.25 -1.046875q-0.078125 -0.0625 -0.125 -0.15625q-0.046875 -0.09375 -0.046875 -0.203125q0 -0.171875 0.125 -0.296875q0.125 -0.125 0.296875 -0.125z" fill-rule="nonzero"></path><path fill="#ffffff" d="m21.639921 114.28601q0.015625 0.46875 0.234375 0.703125q0.234375 0.234375 0.578125 0.234375q0.203125 0 0.375 -0.0625q0.1875 -0.0625 0.375 -0.1875l0.21875 0.296875q-0.203125 0.15625 -0.46875 0.25q-0.25 0.078125 -0.5 0.078125q-0.609375 0 -0.953125 -0.390625q-0.328125 -0.40625 -0.328125 -1.078125q0 -0.421875 0.140625 -0.75q0.15625 -0.328125 0.421875 -0.515625q0.28125 -0.1875 0.65625 -0.1875q0.53125 0 0.828125 0.375q0.3125 0.359375 0.3125 1.0q0 0.125 0 0.234375l-1.890625 0zm0.75 -1.25q-0.3125 0 -0.515625 0.234375q-0.203125 0.234375 -0.234375 0.671875l1.453125 0q0 -0.4375 -0.1875 -0.671875q-0.1875 -0.234375 -0.515625 -0.234375zm3.9312897 -0.359375q0.25 0 0.390625 0.171875q0.15625 0.15625 0.15625 0.59375l0 2.09375l-0.40625 0l0 -2.015625q0 -0.296875 -0.046875 -0.390625q-0.03125 -0.109375 -0.171875 -0.109375q-0.265625 0 -0.484375 0.34375l0 2.171875l-0.421875 0l0 -2.015625q0 -0.296875 -0.046875 -0.390625q-0.03125 -0.109375 -0.171875 -0.109375q-0.265625 0 -0.484375 0.34375l0 2.171875l-0.421875 0l0 -2.8125l0.359375 0l0.03125 0.328125q0.125 -0.1875 0.265625 -0.28125q0.140625 -0.09375 0.328125 -0.09375q0.40625 0 0.515625 0.359375q0.125 -0.171875 0.265625 -0.265625q0.140625 -0.09375 0.34375 -0.09375zm3.3687897 2.25q0 0.15625 0.046875 0.234375q0.0625 0.078125 0.1875 0.125l-0.109375 0.3125q-0.421875 -0.046875 -0.515625 -0.390625q-0.15625 0.1875 -0.390625 0.296875q-0.21875 0.09375 -0.5 0.09375q-0.40625 0 -0.65625 -0.234375q-0.234375 -0.234375 -0.234375 -0.625q0 -0.4375 0.328125 -0.671875q0.34375 -0.234375 0.96875 -0.234375l0.421875 0l0 -0.234375q0 -0.296875 -0.171875 -0.421875q-0.171875 -0.140625 -0.5 -0.140625q-0.3125 0 -0.71875 0.15625l-0.125 -0.34375q0.5 -0.171875 0.921875 -0.171875q0.515625 0 0.78125 0.234375q0.265625 0.234375 0.265625 0.671875l0 1.34375zm-1.15625 0.328125q0.203125 0 0.390625 -0.09375q0.1875 -0.109375 0.3125 -0.296875l0 -0.71875l-0.40625 0q-0.453125 0 -0.65625 0.15625q-0.1875 0.140625 -0.1875 0.421875q0 0.53125 0.546875 0.53125zm3.4000397 -3.84375q0.1562481 0 0.2343731 0.09375q0.09375 0.09375 0.09375 0.234375q0 0.125 -0.09375 0.21875q-0.078125 0.09375 -0.2343731 0.09375q-0.140625 0 -0.234375 -0.09375q-0.078125 -0.09375 -0.078125 -0.21875q0 -0.140625 0.078125 -0.234375q0.09375 -0.09375 0.234375 -0.09375zm0.3593731 3.765625l0.796875 0l0 0.359375l-2.109373 0l0 -0.359375l0.875 0l0 -2.09375l-0.84375 0l0 -0.359375l1.2812481 0l0 2.453125zm2.8687897 -0.328125q0 0.375 0.46875 0.375q0.21875 0 0.46875 -0.09375l0.125 0.328125q-0.28125 0.140625 -0.671875 0.140625q-0.375 0 -0.609375 -0.203125q-0.21875 -0.21875 -0.21875 -0.578125l0 -2.859375l-0.875 0l0 -0.359375l1.3125 0l0 3.25zm2.7437897 -1.609375q0 -0.171875 0.109375 -0.296875q0.125 -0.125 0.3125 -0.125q0.1875 0 0.3125 0.125q0.125 0.125 0.125 0.296875q0 0.1875 -0.125 0.3125q-0.125 0.125 -0.3125 0.125q-0.1875 0 -0.3125 -0.125q-0.109375 -0.125 -0.109375 -0.3125zm0 1.921875q0 -0.171875 0.109375 -0.296875q0.125 -0.125 0.3125 -0.125q0.1875 0 0.3125 0.125q0.125 0.125 0.125 0.296875q0 0.1875 -0.125 0.3125q-0.125 0.125 -0.3125 0.125q-0.1875 0 -0.3125 -0.125q-0.109375 -0.125 -0.109375 -0.3125zm7.1907043 -2.5625q0 0.171875 -0.125 0.28125q-0.125 0.109375 -0.28125 0.109375q-0.171875 0 -0.296875 -0.109375q-0.109375 -0.109375 -0.109375 -0.28125q0 -0.15625 0.09375 -0.34375l0.4375 -0.921875l0.359375 0l-0.21875 0.984375q0.0625 0.03125 0.09375 0.125q0.046875 0.078125 0.046875 0.15625zm2.3531647 0.890625l1.375 0l0 0.375l-1.375 0l0 1.296875l1.671875 0l0 0.375l-2.125 0l0 -3.671875l2.078125 0l-0.046875 0.390625l-1.578125 0l0 1.234375zm3.6969147 1.359375q0 0.375 0.46875 0.375q0.21875 0 0.46875 -0.09375l0.125 0.328125q-0.28125 0.140625 -0.671875 0.140625q-0.375 0 -0.609375 -0.203125q-0.21875 -0.21875 -0.21875 -0.578125l0 -2.859375l-0.875 0l0 -0.359375l1.3125 0l0 3.25zm3.1656647 -3.4375q0.15625 0 0.234375 0.09375q0.09375 0.09375 0.09375 0.234375q0 0.125 -0.09375 0.21875q-0.078125 0.09375 -0.234375 0.09375q-0.140625 0 -0.234375 -0.09375q-0.078125 -0.09375 -0.078125 -0.21875q0 -0.140625 0.078125 -0.234375q0.09375 -0.09375 0.234375 -0.09375zm0.359375 3.765625l0.796875 0l0 0.359375l-2.109375 0l0 -0.359375l0.875 0l0 -2.09375l-0.84375 0l0 -0.359375l1.28125 0l0 2.453125zm2.7281647 0.046875q0.328125 0 0.515625 -0.109375q0.1875 -0.125 0.1875 -0.328125q0 -0.140625 -0.046875 -0.234375q-0.046875 -0.09375 -0.203125 -0.15625q-0.140625 -0.078125 -0.421875 -0.15625q-0.5 -0.109375 -0.734375 -0.28125q-0.234375 -0.1875 -0.234375 -0.515625q0 -0.359375 0.296875 -0.5625q0.296875 -0.203125 0.765625 -0.203125q0.59375 0 1.03125 0.296875l-0.203125 0.3125q-0.171875 -0.125 -0.375 -0.1875q-0.1875 -0.0625 -0.4375 -0.0625q-0.609375 0 -0.609375 0.359375q0 0.125 0.0625 0.21875q0.078125 0.078125 0.21875 0.140625q0.15625 0.0625 0.46875 0.140625q0.453125 0.125 0.671875 0.3125q0.234375 0.1875 0.234375 0.546875q0 0.421875 -0.34375 0.640625q-0.34375 0.203125 -0.84375 0.203125q-0.65625 0 -1.09375 -0.375l0.25 -0.296875q0.171875 0.140625 0.390625 0.21875q0.21875 0.078125 0.453125 0.078125zm2.6031647 -0.9375q0.015625 0.46875 0.234375 0.703125q0.234375 0.234375 0.578125 0.234375q0.203125 0 0.375 -0.0625q0.1875 -0.0625 0.375 -0.1875l0.21875 0.296875q-0.203125 0.15625 -0.46875 0.25q-0.25 0.078125 -0.5 0.078125q-0.609375 0 -0.953125 -0.390625q-0.328125 -0.40625 -0.328125 -1.078125q0 -0.421875 0.140625 -0.75q0.15625 -0.328125 0.421875 -0.515625q0.28125 -0.1875 0.65625 -0.1875q0.53125 0 0.828125 0.375q0.3125 0.359375 0.3125 1.0q0 0.125 0 0.234375l-1.890625 0zm0.75 -1.25q-0.3125 0 -0.515625 0.234375q-0.203125 0.234375 -0.234375 0.671875l1.453125 0q0 -0.4375 -0.1875 -0.671875q-0.1875 -0.234375 -0.515625 -0.234375zm3.1656647 -0.359375q0.5781288 0 0.8906288 0.390625q0.3125 0.390625 0.3125 1.0625q0 0.65625 -0.328125 1.0625q-0.3125 0.40625 -0.8906288 0.40625q-0.578125 0 -0.890625 -0.390625q-0.3125 -0.390625 -0.3125 -1.078125q0 -0.65625 0.3125 -1.046875q0.3125 -0.40625 0.90625 -0.40625zm0 0.359375q-0.375 0 -0.5625 0.28125q-0.171875 0.265625 -0.171875 0.8125q0 0.5625 0.171875 0.828125q0.1875 0.265625 0.546875 0.265625q0.3750038 0 0.5468788 -0.265625q0.1875 -0.265625 0.1875 -0.828125q0 -0.546875 -0.1875 -0.8125q-0.171875 -0.28125 -0.5312538 -0.28125zm3.1031685 -1.234375q0.9375 0 1.265625 0.609375q0.34375 0.609375 0.34375 1.609375q0 0.71875 -0.0625 1.140625q-0.0625 0.421875 -0.234375 0.640625q-0.171875 0.21875 -0.484375 0.21875q-0.21875 0 -0.359375 -0.125q-0.140625 -0.125 -0.21875 -0.3125q-0.0625 -0.171875 -0.0625 -0.328125l-0.015625 0q-0.21875 0.53125 -0.734375 0.53125q-0.40625 0 -0.609375 -0.328125q-0.1875 -0.328125 -0.1875 -0.890625q0 -0.6875 0.265625 -1.03125q0.28125 -0.34375 0.78125 -0.34375q0.203125 0 0.375 0.046875q0.171875 0.03125 0.375 0.140625l0 1.578125q0 0.390625 0.09375 0.546875q0.109375 0.15625 0.28125 0.15625q0.15625 0 0.21875 -0.1875q0.078125 -0.203125 0.09375 -0.5q0.015625 -0.3125 0.015625 -0.859375q0 -0.609375 -0.078125 -1.015625q-0.078125 -0.40625 -0.328125 -0.640625q-0.25 -0.25 -0.734375 -0.25q-0.296875 0 -0.59375 0.109375q-0.296875 0.09375 -0.609375 0.375l-0.265625 -0.3125q0.34375 -0.296875 0.71875 -0.4375q0.375 -0.140625 0.75 -0.140625zm-0.296875 1.71875q-0.34375 0 -0.484375 0.25q-0.140625 0.25 -0.140625 0.796875q0 0.421875 0.09375 0.65625q0.09375 0.21875 0.328125 0.21875q0.171875 0 0.28125 -0.078125q0.109375 -0.078125 0.15625 -0.15625q0.046875 -0.09375 0.109375 -0.234375l0 -1.375q-0.15625 -0.078125 -0.34375 -0.078125zm4.9312897 -0.671875q-0.15625 0.0625 -0.34375 0.078125q-0.1875 0.015625 -0.484375 0.015625q0.5 0.21875 0.5 0.703125q0 0.421875 -0.28125 0.6875q-0.28125 0.265625 -0.78125 0.265625q-0.25 0 -0.421875 -0.0625q-0.0625 0.046875 -0.109375 0.125q-0.03125 0.078125 -0.03125 0.15625q0 0.234375 0.375 0.234375l0.5 0q0.28125 0 0.5 0.109375q0.234375 0.09375 0.359375 0.265625q0.140625 0.171875 0.140625 0.390625q0 0.40625 -0.359375 0.625q-0.34375 0.21875 -0.984375 0.21875q-0.640625 0 -0.90625 -0.203125q-0.265625 -0.203125 -0.265625 -0.640625l0.390625 0q0 0.171875 0.0625 0.28125q0.078125 0.109375 0.234375 0.15625q0.171875 0.046875 0.484375 0.046875q0.453125 0 0.671875 -0.125q0.21875 -0.109375 0.21875 -0.34375q0 -0.1875 -0.1875 -0.296875q-0.171875 -0.09375 -0.4375 -0.09375l-0.5 0q-0.359375 0 -0.546875 -0.15625q-0.171875 -0.15625 -0.171875 -0.375q0 -0.140625 0.078125 -0.265625q0.078125 -0.125 0.234375 -0.234375q-0.234375 -0.109375 -0.359375 -0.296875q-0.109375 -0.203125 -0.109375 -0.46875q0 -0.28125 0.140625 -0.5q0.140625 -0.21875 0.390625 -0.34375q0.25 -0.125 0.59375 -0.125q0.46875 0 0.71875 -0.046875q0.25 -0.0625 0.546875 -0.1875l0.140625 0.40625zm-1.421875 0.15625q-0.328125 0 -0.5 0.171875q-0.15625 0.171875 -0.15625 0.46875q0 0.296875 0.171875 0.484375q0.171875 0.171875 0.5 0.171875q0.296875 0 0.453125 -0.171875q0.15625 -0.171875 0.15625 -0.484375q0 -0.640625 -0.625 -0.640625zm4.2125397 1.921875q0 0.15625 0.046875 0.234375q0.0625 0.078125 0.1875 0.125l-0.109375 0.3125q-0.421875 -0.046875 -0.515625 -0.390625q-0.15625 0.1875 -0.390625 0.296875q-0.21875 0.09375 -0.5 0.09375q-0.40625 0 -0.65625 -0.234375q-0.234375 -0.234375 -0.234375 -0.625q0 -0.4375 0.328125 -0.671875q0.34375 -0.234375 0.96875 -0.234375l0.421875 0l0 -0.234375q0 -0.296875 -0.171875 -0.421875q-0.171875 -0.140625 -0.5 -0.140625q-0.3125 0 -0.71875 0.15625l-0.125 -0.34375q0.5 -0.171875 0.921875 -0.171875q0.515625 0 0.78125 0.234375q0.265625 0.234375 0.265625 0.671875l0 1.34375zm-1.15625 0.328125q0.203125 0 0.390625 -0.09375q0.1875 -0.109375 0.3125 -0.296875l0 -0.71875l-0.40625 0q-0.453125 0 -0.65625 0.15625q-0.1875 0.140625 -0.1875 0.421875q0 0.53125 0.546875 0.53125zm4.2281647 -2.578125q0.171875 0 0.40625 0.046875l-0.0625 0.953125l-0.375 0l0 -0.59375l-0.015625 0q-0.65625 0 -0.921875 0.921875l0 1.1875l0.5625 0l0 0.34375l-1.453125 0l0 -0.34375l0.4375 0l0 -2.125l-0.4375 0l0 -0.34375l0.78125 0l0.078125 0.671875q0.171875 -0.359375 0.40625 -0.53125q0.234375 -0.1875 0.59375 -0.1875zm3.4469147 -1.078125l0 3.9375l-0.40625 0l-0.03125 -0.375q-0.15625 0.21875 -0.359375 0.328125q-0.203125 0.109375 -0.4375 0.109375q-0.53125 0 -0.8125 -0.390625q-0.265625 -0.390625 -0.265625 -1.078125q0 -0.421875 0.125 -0.75q0.140625 -0.328125 0.390625 -0.515625q0.25 -0.1875 0.578125 -0.1875q0.46875 0 0.765625 0.328125l0 -1.453125l0.453125 0.046875zm-1.09375 1.4375q-0.359375 0 -0.546875 0.28125q-0.1875 0.265625 -0.1875 0.8125q0 0.546875 0.171875 0.828125q0.171875 0.28125 0.515625 0.28125q0.390625 0 0.6875 -0.453125l0 -1.390625q-0.125 -0.171875 -0.296875 -0.265625q-0.15625 -0.09375 -0.34375 -0.09375zm2.1500397 -0.3125l0.390625 0l0.03125 0.40625q0.171875 -0.21875 0.421875 -0.328125q0.25 -0.125 0.5 -0.125q0.796875 0 0.796875 0.828125l0 2.03125l-0.453125 0l0 -1.703125q0 -0.3125 -0.03125 -0.46875q-0.03125 -0.171875 -0.140625 -0.25q-0.09375 -0.09375 -0.296875 -0.09375q-0.234375 0 -0.4375 0.140625q-0.203125 0.140625 -0.328125 0.328125l0 2.046875l-0.453125 0l0 -2.8125zm3.5562897 1.5625q0.015625 0.46875 0.234375 0.703125q0.234375 0.234375 0.578125 0.234375q0.203125 0 0.375 -0.0625q0.1875 -0.0625 0.375 -0.1875l0.21875 0.296875q-0.203125 0.15625 -0.46875 0.25q-0.25 0.078125 -0.5 0.078125q-0.609375 0 -0.953125 -0.390625q-0.328125 -0.40625 -0.328125 -1.078125q0 -0.421875 0.140625 -0.75q0.15625 -0.328125 0.421875 -0.515625q0.28125 -0.1875 0.65625 -0.1875q0.53125 0 0.828125 0.375q0.3125 0.359375 0.3125 1.0q0 0.125 0 0.234375l-1.890625 0zm0.75 -1.25q-0.3125 0 -0.515625 0.234375q-0.203125 0.234375 -0.234375 0.671875l1.453125 0q0 -0.4375 -0.1875 -0.671875q-0.1875 -0.234375 -0.515625 -0.234375zm3.9781647 -0.359375q0.171875 0 0.40625 0.046875l-0.0625 0.953125l-0.375 0l0 -0.59375l-0.015625 0q-0.65625 0 -0.921875 0.921875l0 1.1875l0.5625 0l0 0.34375l-1.453125 0l0 -0.34375l0.4375 0l0 -2.125l-0.4375 0l0 -0.34375l0.78125 0l0.078125 0.671875q0.171875 -0.359375 0.40625 -0.53125q0.234375 -0.1875 0.59375 -0.1875zm1.9000397 2.453125q0 -0.203125 0.125 -0.328125q0.140625 -0.140625 0.34375 -0.140625q0.203125 0 0.328125 0.140625q0.140625 0.125 0.140625 0.328125q0 0.203125 -0.140625 0.34375q-0.125 0.125 -0.328125 0.125q-0.203125 0 -0.34375 -0.140625q-0.125 -0.140625 -0.125 -0.328125zm3.0562897 -2.03125q0.328125 -0.421875 0.796875 -0.421875q0.546875 0 0.796875 0.390625q0.25 0.375 0.25 1.0625q0 0.65625 -0.296875 1.0625q-0.28125 0.40625 -0.8125 0.40625q-0.484375 0 -0.765625 -0.359375l-0.03125 0.296875l-0.390625 0l0 -3.9375l0.453125 -0.046875l0 1.546875zm0.640625 2.140625q0.34375 0 0.53125 -0.28125q0.1875 -0.28125 0.1875 -0.828125q0 -0.546875 -0.171875 -0.8125q-0.15625 -0.28125 -0.484375 -0.28125q-0.21875 0 -0.40625 0.125q-0.171875 0.125 -0.296875 0.3125l0 1.390625q0.109375 0.171875 0.265625 0.28125q0.171875 0.09375 0.375 0.09375zm3.1656647 -3.828125q0.15625 0 0.234375 0.09375q0.09375 0.09375 0.09375 0.234375q0 0.125 -0.09375 0.21875q-0.078125 0.09375 -0.234375 0.09375q-0.140625 0 -0.234375 -0.09375q-0.078125 -0.09375 -0.078125 -0.21875q0 -0.140625 0.078125 -0.234375q0.09375 -0.09375 0.234375 -0.09375zm0.359375 3.765625l0.796875 0l0 0.359375l-2.109375 0l0 -0.359375l0.875 0l0 -2.09375l-0.84375 0l0 -0.359375l1.28125 0l0 2.453125zm3.9000397 -0.03125l-0.0625 0.390625l-2.046875 0l0 -0.34375l1.546875 -2.0625l-1.421875 0l0 -0.40625l1.96875 0l0 0.359375l-1.546875 2.0625l1.5625 0zm1.7594147 -3.421875q0 -0.15625 0.125 -0.265625q0.125 -0.125 0.28125 -0.125q0.171875 0 0.296875 0.109375q0.125 0.109375 0.125 0.28125q0 0.078125 -0.03125 0.15625q-0.015625 0.0625 -0.078125 0.1875l-0.4375 0.921875l-0.34375 0l0.21875 -0.96875q-0.0625 -0.046875 -0.109375 -0.125q-0.046875 -0.078125 -0.046875 -0.171875z" fill-rule="nonzero"></path><path fill="#ffffff" d="m8.758512 117.082886q0.46875 0 0.765625 0.171875q0.3125 0.15625 0.3125 0.546875q0 0.078125 0 0.109375l-0.109375 1.03125q0 0.015625 0 0.078125q0 0.234375 0.1875 0.359375q0.1875 0.109375 0.625 0.109375l0 0.359375q-0.453125 0 -0.640625 0.125q-0.171875 0.109375 -0.171875 0.359375q0 0.046875 0 0.078125l0.109375 1.015625q0 0.046875 0 0.109375q0 0.390625 -0.3125 0.546875q-0.296875 0.171875 -0.765625 0.171875l0 -0.34375q0.328125 0 0.5 -0.109375q0.1875 -0.09375 0.15625 -0.328125l-0.09375 -1.09375q-0.015625 -0.09375 -0.015625 -0.140625q0 -0.265625 0.125 -0.390625q0.140625 -0.125 0.4375 -0.171875q-0.28125 -0.046875 -0.421875 -0.1875q-0.140625 -0.140625 -0.140625 -0.40625q0 -0.078125 0.015625 -0.125l0.09375 -1.09375q0.046875 -0.421875 -0.65625 -0.421875l0 -0.359375z" fill-rule="nonzero"></path><path fill="#000000" fill-opacity="0.0" d="m80.35696 68.801834l0 -11.716534" fill-rule="evenodd"></path><path stroke="#674ea7" stroke-width="1.0" stroke-linejoin="round" stroke-linecap="butt" d="m80.35696 68.801834l0 -5.7165337" fill-rule="evenodd"></path><path stroke="#674ea7" stroke-width="1.0" stroke-linecap="butt" d="m82.00869 63.0853l-1.6517334 -4.5380974l-1.6517334 4.5380974z" fill-rule="evenodd"></path></g></svg>

