<?xml version="1.0" standalone="yes"?>

<svg version="1.1" viewBox="0.0 0.0 952.2755905511812 499.54330708661416" fill="none" stroke="none" stroke-linecap="square" stroke-miterlimit="10" xmlns="http://www.w3.org/2000/svg" xmlns:xlink="http://www.w3.org/1999/xlink"><clipPath id="p.0"><path d="m0 0l952.2756 0l0 499.5433l-952.2756 0l0 -499.5433z" clip-rule="nonzero"></path></clipPath><g clip-path="url(#p.0)"><path fill="#000000" fill-opacity="0.0" d="m0 0l952.2756 0l0 499.5433l-952.2756 0z" fill-rule="evenodd"></path><path fill="#cfe2f3" d="m24.0 -0.005249344l418.3937 0l0 497.5433l-418.3937 0z" fill-rule="evenodd"></path><path stroke="#000000" stroke-width="1.0" stroke-linejoin="round" stroke-linecap="butt" d="m24.0 -0.005249344l418.3937 0l0 497.5433l-418.3937 0z" fill-rule="evenodd"></path><path fill="#000000" d="m51.621353 22.620377q0.484375 0 0.9375 -0.171875q0.453125 -0.1875 0.953125 -0.546875l1.125 1.609375q-0.609375 0.5 -1.40625 0.8125q-0.796875 0.296875 -1.75 0.296875q-1.359375 0 -2.34375 -0.546875q-0.984375 -0.5625 -1.515625 -1.5625q-0.515625 -1.015625 -0.515625 -2.34375q0 -1.328125 0.53125 -2.359375q0.546875 -1.046875 1.546875 -1.640625q1.0 -0.59375 2.34375 -0.59375q0.953125 0 1.703125 0.265625q0.75 0.265625 1.40625 0.796875l-1.09375 1.53125q-0.921875 -0.640625 -1.90625 -0.640625q-1.890625 0 -1.890625 2.640625q0 1.328125 0.484375 1.890625q0.5 0.5625 1.390625 0.5625zm8.771896 -7.046875q1.9375 0 3.03125 1.21875q1.09375 1.21875 1.09375 3.296875q0 2.140625 -1.09375 3.34375q-1.078125 1.1875 -3.03125 1.1875q-1.953125 0 -3.046875 -1.1875q-1.078125 -1.1875 -1.078125 -3.328125q0 -1.359375 0.484375 -2.375q0.484375 -1.015625 1.421875 -1.578125q0.9375 -0.578125 2.21875 -0.578125zm0 1.875q-0.78125 0 -1.15625 0.640625q-0.359375 0.625 -0.359375 2.015625q0 1.40625 0.359375 2.046875q0.375 0.625 1.15625 0.625q0.78125 0 1.140625 -0.640625q0.375 -0.640625 0.375 -2.046875q0 -1.375 -0.375 -2.0q-0.359375 -0.640625 -1.140625 -0.640625zm5.9281464 -1.59375l2.203125 0l0.171875 0.984375q0.578125 -0.640625 1.203125 -0.953125q0.640625 -0.3125 1.4375 -0.3125q1.109375 0 1.71875 0.671875q0.625 0.671875 0.625 1.875l0 6.234375l-2.53125 0l0 -5.5q0 -0.796875 -0.1875 -1.09375q-0.171875 -0.3125 -0.625 -0.3125q-0.390625 0 -0.75 0.25q-0.359375 0.234375 -0.75 0.71875l0 5.9375l-2.515625 0l0 -8.5zm13.006271 6.96875q0.65625 0 1.03125 -0.203125q0.375 -0.203125 0.375 -0.609375q0 -0.28125 -0.15625 -0.453125q-0.15625 -0.171875 -0.578125 -0.34375q-0.40625 -0.171875 -1.28125 -0.40625q-1.28125 -0.34375 -1.953125 -0.9375q-0.671875 -0.609375 -0.671875 -1.65625q0 -1.171875 0.96875 -1.90625q0.96875 -0.734375 2.703125 -0.734375q2.015625 0 3.453125 1.03125l-1.015625 1.5q-1.171875 -0.71875 -2.34375 -0.71875q-0.625 0 -0.921875 0.15625q-0.296875 0.15625 -0.296875 0.5q0 0.21875 0.140625 0.375q0.15625 0.140625 0.578125 0.3125q0.421875 0.15625 1.28125 0.390625q0.90625 0.265625 1.484375 0.5625q0.59375 0.296875 0.90625 0.8125q0.328125 0.515625 0.328125 1.3125q0 0.90625 -0.546875 1.546875q-0.546875 0.625 -1.46875 0.953125q-0.90625 0.3125 -2.0 0.3125q-1.1875 0 -2.15625 -0.328125q-0.953125 -0.34375 -1.625 -0.953125l1.265625 -1.421875q1.15625 0.90625 2.5 0.90625zm13.834396 1.03125q-1.203125 0.765625 -2.78125 0.765625q-1.625 0 -2.453125 -0.828125q-0.828125 -0.828125 -0.828125 -2.328125l0 -3.859375l-1.78125 0l0 -1.75l1.78125 0l0 -1.84375l2.53125 -0.296875l0 2.140625l2.734375 0l-0.25 1.75l-2.484375 0l0 3.859375q0 0.625 0.28125 0.890625q0.296875 0.265625 0.9375 0.265625q0.796875 0 1.484375 -0.375l0.828125 1.609375zm11.559418 -8.0l2.203125 0l0.171875 0.984375q0.578125 -0.640625 1.203125 -0.953125q0.640625 -0.3125 1.4375 -0.3125q1.109375 0 1.71875 0.671875q0.625 0.671875 0.625 1.875l0 6.234375l-2.53125 0l0 -5.5q0 -0.796875 -0.1875 -1.09375q-0.171875 -0.3125 -0.625 -0.3125q-0.390625 0 -0.75 0.25q-0.359375 0.234375 -0.75 0.71875l0 5.9375l-2.515625 0l0 -8.5zm12.115646 5.8125q0 0.59375 0.21875 0.84375q0.21875 0.25 0.65625 0.25q0.375 0 0.78125 -0.25q0.40625 -0.25 0.65625 -0.6875l0 -5.96875l2.53125 0l0 8.5l-2.21875 0l-0.109375 -0.984375q-0.40625 0.59375 -1.109375 0.921875q-0.703125 0.328125 -1.5 0.328125q-1.1875 0 -1.8125 -0.6875q-0.609375 -0.703125 -0.609375 -1.953125l0 -6.125l2.515625 0l0 5.8125zm13.365646 -6.09375q0.90625 0 1.328125 0.609375q0.4375 0.59375 0.4375 1.890625l0 6.28125l-2.15625 0l0 -6.0q0 -0.46875 -0.09375 -0.640625q-0.09375 -0.171875 -0.328125 -0.171875q-0.453125 0 -0.875 0.5625l0 6.25l-1.796875 0l0 -6.0q0 -0.46875 -0.09375 -0.640625q-0.078125 -0.171875 -0.328125 -0.171875q-0.4375 0 -0.875 0.5625l0 6.25l-2.1875 0l0 -8.5l1.828125 0l0.1875 0.8125q0.40625 -0.5625 0.8125 -0.828125q0.421875 -0.265625 0.953125 -0.265625q0.5 0 0.828125 0.25q0.34375 0.25 0.484375 0.75q0.875 -1.0 1.875 -1.0zm5.8343964 1.15625q0.40625 -0.546875 0.96875 -0.84375q0.578125 -0.3125 1.21875 -0.3125q1.578125 0 2.34375 1.1875q0.78125 1.171875 0.78125 3.328125q0 1.328125 -0.40625 2.359375q-0.390625 1.015625 -1.15625 1.59375q-0.765625 0.578125 -1.84375 0.578125q-0.640625 0 -1.1875 -0.265625q-0.53125 -0.265625 -0.90625 -0.765625l-0.09375 0.765625l-2.234375 0l0 -11.875l2.515625 -0.265625l0 4.515625zm1.25 6.0625q1.46875 0 1.46875 -2.671875q0 -1.5 -0.34375 -2.078125q-0.328125 -0.59375 -0.984375 -0.59375q-0.796875 0 -1.390625 0.984375l0 3.578125q0.5 0.78125 1.25 0.78125zm8.021896 -1.9375q0.234375 1.9375 2.046875 1.9375q1.09375 0 2.171875 -0.703125l1.015625 1.375q-0.625 0.53125 -1.5 0.84375q-0.859375 0.3125 -1.890625 0.3125q-1.421875 0 -2.421875 -0.5625q-0.984375 -0.5625 -1.5 -1.578125q-0.5 -1.015625 -0.5 -2.359375q0 -1.28125 0.484375 -2.3125q0.5 -1.03125 1.421875 -1.625q0.9375 -0.609375 2.234375 -0.609375q1.21875 0 2.109375 0.515625q0.90625 0.515625 1.390625 1.5q0.484375 0.984375 0.484375 2.34375q0 0.53125 -0.046875 0.921875l-5.5 0zm1.5625 -3.59375q-0.6875 0 -1.109375 0.515625q-0.40625 0.5 -0.484375 1.53125l3.125 0q-0.03125 -2.046875 -1.53125 -2.046875zm12.318771 -1.65625q0.78125 0 1.421875 0.25l-0.46875 3.5625l-1.609375 0l0 -1.578125q-0.703125 0.125 -1.25 0.765625q-0.53125 0.640625 -0.84375 1.625l0 2.421875l1.6875 0l0 1.703125l-5.328125 0l0 -1.703125l1.109375 0l0 -5.109375l-1.109375 0l0 -1.6875l3.046875 0l0.453125 1.90625q0.46875 -1.09375 1.171875 -1.625q0.703125 -0.53125 1.71875 -0.53125zm6.5375214 7.21875q0.65625 0 1.03125 -0.203125q0.375 -0.203125 0.375 -0.609375q0 -0.28125 -0.15625 -0.453125q-0.15625 -0.171875 -0.578125 -0.34375q-0.40625 -0.171875 -1.28125 -0.40625q-1.28125 -0.34375 -1.953125 -0.9375q-0.671875 -0.609375 -0.671875 -1.65625q0 -1.171875 0.96875 -1.90625q0.96875 -0.734375 2.703125 -0.734375q2.015625 0 3.453125 1.03125l-1.015625 1.5q-1.171875 -0.71875 -2.34375 -0.71875q-0.625 0 -0.921875 0.15625q-0.296875 0.15625 -0.296875 0.5q0 0.21875 0.140625 0.375q0.15625 0.140625 0.578125 0.3125q0.421875 0.15625 1.28125 0.390625q0.90625 0.265625 1.484375 0.5625q0.59375 0.296875 0.90625 0.8125q0.328125 0.515625 0.328125 1.3125q0 0.90625 -0.546875 1.546875q-0.546875 0.625 -1.46875 0.953125q-0.90625 0.3125 -2.0 0.3125q-1.1875 0 -2.15625 -0.328125q-0.953125 -0.34375 -1.625 -0.953125l1.265625 -1.421875q1.15625 0.90625 2.5 0.90625zm23.106293 -4.125l-7.265625 0l0 -1.984375l7.265625 0l0 1.984375zm0 3.34375l-7.265625 0l0 -1.96875l7.265625 0l0 1.96875zm13.262543 -10.859375l4.921875 0l0 1.890625l-2.546875 0l0 11.375l2.546875 0l0 1.875l-4.921875 0l0 -15.140625zm21.121918 1.796875q1.203125 0 2.0625 0.4375q0.875 0.421875 1.3125 1.15625q0.4375 0.71875 0.4375 1.59375q0 0.90625 -0.421875 1.765625q-0.40625 0.84375 -1.359375 1.890625q-0.953125 1.046875 -2.6875 2.59375l4.734375 0l-0.28125 1.9375l-7.359375 0l0 -1.796875q1.96875 -1.90625 2.9375 -2.96875q0.984375 -1.0625 1.421875 -1.796875q0.4375 -0.75 0.4375 -1.40625q0 -0.6875 -0.390625 -1.0625q-0.375 -0.390625 -1.09375 -0.390625q-0.625 0 -1.09375 0.265625q-0.453125 0.265625 -0.90625 0.859375l-1.53125 -1.171875q0.65625 -0.921875 1.578125 -1.40625q0.921875 -0.5 2.203125 -0.5zm13.131271 2.09375l-4.046875 0l0 2.40625q0.78125 -0.375 1.625 -0.375q0.875 0 1.578125 0.4375q0.71875 0.4375 1.125 1.265625q0.421875 0.8125 0.421875 1.90625q0 1.109375 -0.546875 2.015625q-0.546875 0.890625 -1.546875 1.390625q-0.984375 0.5 -2.265625 0.5q-1.15625 0 -2.09375 -0.4375q-0.9375 -0.4375 -1.578125 -1.21875l1.453125 -1.328125q0.40625 0.515625 0.921875 0.796875q0.515625 0.265625 1.109375 0.265625q0.875 0 1.40625 -0.53125q0.53125 -0.546875 0.53125 -1.40625q0 -1.90625 -1.5 -1.90625q-0.6875 0 -1.34375 0.359375l-1.71875 0l0 -5.953125l6.75 0l-0.28125 1.8125zm6.4437714 5.984375q0.75 0 1.25 0.5q0.5 0.5 0.5 1.234375q0 0.4375 -0.15625 0.890625q-0.140625 0.4375 -0.53125 1.3125l-1.15625 2.609375l-1.6875 0l0.8125 -3.390625q-0.359375 -0.234375 -0.5625 -0.609375q-0.1875 -0.375 -0.1875 -0.828125q0 -0.71875 0.484375 -1.21875q0.5 -0.5 1.234375 -0.5zm18.762558 -8.078125q1.140625 0 2.0 0.390625q0.859375 0.375 1.3125 1.03125q0.453125 0.640625 0.453125 1.421875q0 1.03125 -0.609375 1.6875q-0.59375 0.65625 -1.65625 0.96875q2.625 0.359375 2.625 2.75q0 0.953125 -0.53125 1.734375q-0.515625 0.765625 -1.5 1.21875q-0.96875 0.4375 -2.265625 0.4375q-1.21875 0 -2.21875 -0.421875q-0.984375 -0.4375 -1.6875 -1.234375l1.4375 -1.328125q0.90625 1.0625 2.296875 1.0625q0.84375 0 1.359375 -0.4375q0.515625 -0.4375 0.515625 -1.203125q0 -1.65625 -1.875 -1.65625l-1.0 0l0.28125 -1.734375l0.703125 0q0.765625 0 1.21875 -0.375q0.46875 -0.375 0.46875 -1.078125q0 -0.625 -0.453125 -0.984375q-0.453125 -0.359375 -1.171875 -0.359375q-1.203125 0 -2.203125 0.953125l-1.296875 -1.34375q1.546875 -1.5 3.796875 -1.5zm10.037506 0q1.96875 0 2.984375 1.515625q1.015625 1.515625 1.015625 4.296875q0 2.78125 -1.015625 4.3125q-1.015625 1.515625 -2.984375 1.515625q-1.96875 0 -2.984375 -1.515625q-1.015625 -1.53125 -1.015625 -4.3125q0 -2.78125 1.015625 -4.296875q1.015625 -1.515625 2.984375 -1.515625zm0 1.84375q-0.796875 0 -1.171875 0.921875q-0.375 0.90625 -0.375 3.046875q0 2.1875 0.375 3.109375q0.375 0.90625 1.171875 0.90625q0.8125 0 1.171875 -0.90625q0.375 -0.921875 0.375 -3.109375q0 -2.171875 -0.390625 -3.0625q-0.375 -0.90625 -1.15625 -0.90625zm-0.015625 2.96875q0.453125 0 0.75 0.3125q0.3125 0.296875 0.3125 0.734375q0 0.4375 -0.3125 0.75q-0.296875 0.296875 -0.75 0.296875q-0.4375 0 -0.734375 -0.296875q-0.296875 -0.3125 -0.296875 -0.75q0 -0.4375 0.296875 -0.734375q0.296875 -0.3125 0.734375 -0.3125zm9.615631 3.265625q0.75 0 1.25 0.5q0.5 0.5 0.5 1.234375q0 0.4375 -0.15625 0.890625q-0.140625 0.4375 -0.53125 1.3125l-1.15625 2.609375l-1.6875 0l0.8125 -3.390625q-0.359375 -0.234375 -0.5625 -0.609375q-0.1875 -0.375 -0.1875 -0.828125q0 -0.71875 0.484375 -1.21875q0.5 -0.5 1.234375 -0.5zm18.762573 -8.078125q1.140625 0 2.0 0.390625q0.859375 0.375 1.3125 1.03125q0.453125 0.640625 0.453125 1.421875q0 1.03125 -0.609375 1.6875q-0.59375 0.65625 -1.65625 0.96875q2.625 0.359375 2.625 2.75q0 0.953125 -0.53125 1.734375q-0.515625 0.765625 -1.5 1.21875q-0.96875 0.4375 -2.265625 0.4375q-1.21875 0 -2.21875 -0.421875q-0.984375 -0.4375 -1.6875 -1.234375l1.4375 -1.328125q0.90625 1.0625 2.296875 1.0625q0.84375 0 1.359375 -0.4375q0.515625 -0.4375 0.515625 -1.203125q0 -1.65625 -1.875 -1.65625l-1.0 0l0.28125 -1.734375l0.703125 0q0.765625 0 1.21875 -0.375q0.46875 -0.375 0.46875 -1.078125q0 -0.625 -0.453125 -0.984375q-0.453125 -0.359375 -1.171875 -0.359375q-1.203125 0 -2.203125 0.953125l-1.296875 -1.34375q1.546875 -1.5 3.796875 -1.5zm13.193726 2.09375l-4.046875 0l0 2.40625q0.78125 -0.375 1.625 -0.375q0.875 0 1.578125 0.4375q0.71875 0.4375 1.125 1.265625q0.421875 0.8125 0.421875 1.90625q0 1.109375 -0.546875 2.015625q-0.546875 0.890625 -1.546875 1.390625q-0.984375 0.5 -2.265625 0.5q-1.15625 0 -2.09375 -0.4375q-0.9375 -0.4375 -1.578125 -1.21875l1.453125 -1.328125q0.40625 0.515625 0.921875 0.796875q0.515625 0.265625 1.109375 0.265625q0.875 0 1.40625 -0.53125q0.53125 -0.546875 0.53125 -1.40625q0 -1.90625 -1.5 -1.90625q-0.6875 0 -1.34375 0.359375l-1.71875 0l0 -5.953125l6.75 0l-0.28125 1.8125zm6.4437866 5.984375q0.75 0 1.25 0.5q0.5 0.5 0.5 1.234375q0 0.4375 -0.15625 0.890625q-0.140625 0.4375 -0.53125 1.3125l-1.15625 2.609375l-1.6875 0l0.8125 -3.390625q-0.359375 -0.234375 -0.5625 -0.609375q-0.1875 -0.375 -0.1875 -0.828125q0 -0.71875 0.484375 -1.21875q0.5 -0.5 1.234375 -0.5zm23.246948 0.953125l-1.09375 0l0 2.34375l-2.421875 0l-0.015625 -2.34375l-4.59375 0l0 -1.65625l3.078125 -7.375l2.140625 0.796875l-2.609375 6.359375l1.984375 0l0.28125 -2.671875l2.15625 0l0 2.671875l1.09375 0l0 1.875zm5.5531616 -9.03125q1.96875 0 2.984375 1.515625q1.015625 1.515625 1.015625 4.296875q0 2.78125 -1.015625 4.3125q-1.015625 1.515625 -2.984375 1.515625q-1.96875 0 -2.984375 -1.515625q-1.015625 -1.53125 -1.015625 -4.3125q0 -2.78125 1.015625 -4.296875q1.015625 -1.515625 2.984375 -1.515625zm0 1.84375q-0.796875 0 -1.171875 0.921875q-0.375 0.90625 -0.375 3.046875q0 2.1875 0.375 3.109375q0.375 0.90625 1.171875 0.90625q0.8125 0 1.171875 -0.90625q0.375 -0.921875 0.375 -3.109375q0 -2.171875 -0.390625 -3.0625q-0.375 -0.90625 -1.15625 -0.90625zm-0.015625 2.96875q0.453125 0 0.75 0.3125q0.3125 0.296875 0.3125 0.734375q0 0.4375 -0.3125 0.75q-0.296875 0.296875 -0.75 0.296875q-0.4375 0 -0.734375 -0.296875q-0.296875 -0.3125 -0.296875 -0.75q0 -0.4375 0.296875 -0.734375q0.296875 -0.3125 0.734375 -0.3125zm9.615662 3.265625q0.75 0 1.25 0.5q0.5 0.5 0.5 1.234375q0 0.4375 -0.15625 0.890625q-0.140625 0.4375 -0.53125 1.3125l-1.15625 2.609375l-1.6875 0l0.8125 -3.390625q-0.359375 -0.234375 -0.5625 -0.609375q-0.1875 -0.375 -0.1875 -0.828125q0 -0.71875 0.484375 -1.21875q0.5 -0.5 1.234375 -0.5zm23.246948 0.953125l-1.09375 0l0 2.34375l-2.421875 0l-0.015625 -2.34375l-4.59375 0l0 -1.65625l3.078125 -7.375l2.140625 0.796875l-2.609375 6.359375l1.984375 0l0.28125 -2.671875l2.15625 0l0 2.671875l1.09375 0l0 1.875zm8.709412 -6.9375l-4.046875 0l0 2.40625q0.78125 -0.375 1.625 -0.375q0.875 0 1.578125 0.4375q0.71875 0.4375 1.125 1.265625q0.421875 0.8125 0.421875 1.90625q0 1.109375 -0.546875 2.015625q-0.546875 0.890625 -1.546875 1.390625q-0.984375 0.5 -2.265625 0.5q-1.15625 0 -2.09375 -0.4375q-0.9375 -0.4375 -1.578125 -1.21875l1.453125 -1.328125q0.40625 0.515625 0.921875 0.796875q0.515625 0.265625 1.109375 0.265625q0.875 0 1.40625 -0.53125q0.53125 -0.546875 0.53125 -1.40625q0 -1.90625 -1.5 -1.90625q-0.6875 0 -1.34375 0.359375l-1.71875 0l0 -5.953125l6.75 0l-0.28125 1.8125zm18.356323 11.25l-4.9375 0l0 -1.890625l2.546875 0l0 -11.359375l-2.546875 0l0 -1.890625l4.9375 0l0 15.140625zm7.2875366 -10.59375q0.703125 0 1.1875 0.5q0.484375 0.5 0.484375 1.1875q0 0.6875 -0.484375 1.171875q-0.484375 0.484375 -1.1875 0.484375q-0.703125 0 -1.1875 -0.484375q-0.484375 -0.484375 -0.484375 -1.171875q0 -0.6875 0.484375 -1.1875q0.484375 -0.5 1.1875 -0.5zm0 5.46875q0.71875 0 1.1875 0.484375q0.484375 0.484375 0.484375 1.1875q0 0.40625 -0.15625 0.859375q-0.140625 0.453125 -0.5 1.265625l-1.109375 2.53125l-1.640625 0l0.78125 -3.28125q-0.34375 -0.234375 -0.53125 -0.59375q-0.1875 -0.375 -0.1875 -0.796875q0 -0.703125 0.46875 -1.171875q0.484375 -0.484375 1.203125 -0.484375z" fill-rule="nonzero"></path><path fill="#38761d" d="m54.333332 43.766403l357.92126 0l0 68.47244l-357.92126 0z" fill-rule="evenodd"></path><path stroke="#000000" stroke-width="1.0" stroke-linejoin="round" stroke-linecap="butt" d="m54.333332 43.766403l357.92126 0l0 68.47244l-357.92126 0z" fill-rule="evenodd"></path><path fill="#ffffff" d="m227.25645 71.657q1.40625 0 2.40625 0.515625q1.015625 0.5 1.53125 1.34375q0.515625 0.84375 0.515625 1.859375q0 1.0625 -0.484375 2.046875q-0.484375 0.984375 -1.59375 2.21875q-1.109375 1.21875 -3.140625 3.03125l5.515625 0l-0.3125 2.25l-8.59375 0l0 -2.09375q2.296875 -2.21875 3.4375 -3.453125q1.140625 -1.25 1.65625 -2.109375q0.515625 -0.875 0.515625 -1.640625q0 -0.796875 -0.453125 -1.234375q-0.453125 -0.453125 -1.28125 -0.453125q-0.734375 0 -1.28125 0.3125q-0.53125 0.296875 -1.0625 0.984375l-1.78125 -1.359375q0.765625 -1.0625 1.828125 -1.640625q1.078125 -0.578125 2.578125 -0.578125zm15.303131 2.4375l-4.71875 0l0 2.8125q0.921875 -0.4375 1.90625 -0.4375q1.015625 0 1.84375 0.515625q0.828125 0.515625 1.3125 1.46875q0.484375 0.953125 0.484375 2.21875q0 1.296875 -0.640625 2.34375q-0.625 1.046875 -1.78125 1.640625q-1.15625 0.578125 -2.65625 0.578125q-1.359375 0 -2.453125 -0.5q-1.09375 -0.515625 -1.828125 -1.4375l1.6875 -1.546875q0.46875 0.59375 1.078125 0.921875q0.609375 0.3125 1.296875 0.3125q1.03125 0 1.640625 -0.625q0.609375 -0.625 0.609375 -1.640625q0 -2.21875 -1.75 -2.21875q-0.796875 0 -1.5625 0.4375l-2.0 0l0 -6.9375l7.875 0l-0.34375 2.09375z" fill-rule="nonzero"></path><path fill="#1155cc" d="m54.332092 133.37401l357.92126 0l0 68.47244l-357.92126 0z" fill-rule="evenodd"></path><path stroke="#000000" stroke-width="1.0" stroke-linejoin="round" stroke-linecap="butt" d="m54.332092 133.37401l357.92126 0l0 68.47244l-357.92126 0z" fill-rule="evenodd"></path><path fill="#ffffff" d="m227.1771 161.2646q1.34375 0 2.328125 0.453125q1.0 0.4375 1.53125 1.203125q0.546875 0.75 0.546875 1.671875q0 1.1875 -0.703125 1.953125q-0.703125 0.765625 -1.953125 1.140625q3.0625 0.40625 3.0625 3.203125q0 1.109375 -0.609375 2.015625q-0.609375 0.890625 -1.75 1.421875q-1.125 0.515625 -2.640625 0.515625q-1.421875 0 -2.578125 -0.5q-1.15625 -0.5 -1.984375 -1.4375l1.671875 -1.546875q1.0625 1.234375 2.6875 1.234375q0.984375 0 1.578125 -0.5q0.59375 -0.515625 0.59375 -1.40625q0 -1.9375 -2.171875 -1.9375l-1.1875 0l0.34375 -2.015625l0.828125 0q0.890625 0 1.421875 -0.4375q0.53125 -0.4375 0.53125 -1.265625q0 -0.71875 -0.53125 -1.140625q-0.515625 -0.421875 -1.359375 -0.421875q-1.390625 0 -2.5625 1.125l-1.515625 -1.578125q1.8125 -1.75 4.421875 -1.75zm11.709381 0q2.296875 0 3.484375 1.78125q1.1875 1.765625 1.1875 4.984375q0 3.25 -1.1875 5.03125q-1.1875 1.78125 -3.484375 1.78125q-2.296875 0 -3.484375 -1.78125q-1.171875 -1.78125 -1.171875 -5.03125q0 -3.21875 1.171875 -4.984375q1.1875 -1.78125 3.484375 -1.78125zm0 2.140625q-0.921875 0 -1.375 1.078125q-0.4375 1.078125 -0.4375 3.546875q0 2.5625 0.4375 3.625q0.453125 1.0625 1.375 1.0625q0.953125 0 1.375 -1.0625q0.421875 -1.0625 0.421875 -3.625q0 -2.515625 -0.4375 -3.5625q-0.4375 -1.0625 -1.359375 -1.0625zm-0.015625 3.46875q0.515625 0 0.875 0.359375q0.359375 0.359375 0.359375 0.859375q0 0.53125 -0.359375 0.890625q-0.359375 0.34375 -0.875 0.34375q-0.515625 0 -0.875 -0.34375q-0.34375 -0.359375 -0.34375 -0.890625q0 -0.5 0.34375 -0.859375q0.359375 -0.359375 0.875 -0.359375z" fill-rule="nonzero"></path><path fill="#cc0000" d="m54.236053 222.98294l357.92126 0l0 68.47244l-357.92126 0z" fill-rule="evenodd"></path><path stroke="#000000" stroke-width="1.0" stroke-linejoin="round" stroke-linecap="butt" d="m54.236053 222.98294l357.92126 0l0 68.47244l-357.92126 0z" fill-rule="evenodd"></path><path fill="#ffffff" d="m227.08105 250.87354q1.34375 0 2.328125 0.453125q1.0 0.4375 1.53125 1.203125q0.546875 0.75 0.546875 1.671875q0 1.1875 -0.703125 1.953125q-0.703125 0.765625 -1.953125 1.140625q3.0625 0.40625 3.0625 3.203125q0 1.109375 -0.609375 2.015625q-0.609375 0.890625 -1.75 1.421875q-1.125 0.515625 -2.640625 0.515625q-1.421875 0 -2.578125 -0.5q-1.15625 -0.5 -1.984375 -1.4375l1.671875 -1.546875q1.0625 1.234375 2.6875 1.234375q0.984375 0 1.578125 -0.5q0.59375 -0.515625 0.59375 -1.40625q0 -1.9375 -2.171875 -1.9375l-1.1875 0l0.34375 -2.015625l0.828125 0q0.890625 0 1.421875 -0.4375q0.53125 -0.4375 0.53125 -1.265625q0 -0.71875 -0.53125 -1.140625q-0.515625 -0.421875 -1.359375 -0.421875q-1.390625 0 -2.5625 1.125l-1.515625 -1.578125q1.8125 -1.75 4.421875 -1.75zm15.381256 2.4375l-4.71875 0l0 2.8125q0.921875 -0.4375 1.90625 -0.4375q1.015625 0 1.84375 0.515625q0.828125 0.515625 1.3125 1.46875q0.484375 0.953125 0.484375 2.21875q0 1.296875 -0.640625 2.34375q-0.625 1.046875 -1.78125 1.640625q-1.15625 0.578125 -2.65625 0.578125q-1.359375 0 -2.453125 -0.5q-1.09375 -0.515625 -1.828125 -1.4375l1.6875 -1.546875q0.46875 0.59375 1.078125 0.921875q0.609375 0.3125 1.296875 0.3125q1.03125 0 1.640625 -0.625q0.609375 -0.625 0.609375 -1.640625q0 -2.21875 -1.75 -2.21875q-0.796875 0 -1.5625 0.4375l-2.0 0l0 -6.9375l7.875 0l-0.34375 2.09375z" fill-rule="nonzero"></path><path fill="#f4cccc" d="m597.0945 43.766403l352.3465 0l0 68.47244l-352.3465 0z" fill-rule="evenodd"></path><path stroke="#000000" stroke-width="1.0" stroke-linejoin="round" stroke-linecap="butt" d="m597.0945 43.766403l352.3465 0l0 68.47244l-352.3465 0z" fill-rule="evenodd"></path><path fill="#000000" d="m689.3644 75.25325q0.515625 0 1.1875 0.171875l-0.203125 2.875l-1.078125 0l0 -1.8125l-0.078125 0q-1.953125 0 -2.765625 2.78125l0 3.546875l1.703125 0l0 1.046875l-4.375 0l0 -1.046875l1.328125 0l0 -6.34375l-1.328125 0l0 -1.046875l2.328125 0l0.25 2.0q0.515625 -1.078125 1.21875 -1.625q0.71875 -0.546875 1.8125 -0.546875zm4.9750366 4.859375q0.046875 1.390625 0.71875 2.109375q0.6875 0.703125 1.734375 0.703125q0.625 0 1.140625 -0.1875q0.515625 -0.1875 1.109375 -0.578125l0.625 0.90625q-0.59375 0.453125 -1.359375 0.71875q-0.75 0.25 -1.515625 0.25q-1.828125 0 -2.84375 -1.1875q-1.015625 -1.1875 -1.015625 -3.1875q0 -1.265625 0.4375 -2.265625q0.453125 -1.0 1.28125 -1.5625q0.84375 -0.578125 1.9375 -0.578125q1.609375 0 2.53125 1.109375q0.921875 1.109375 0.921875 3.03125q0 0.375 -0.03125 0.71875l-5.671875 0zm2.265625 -3.75q-0.96875 0 -1.578125 0.703125q-0.609375 0.6875 -0.6875 2.03125l4.390625 0q-0.015625 -1.328125 -0.578125 -2.03125q-0.5625 -0.703125 -1.546875 -0.703125zm12.959412 7.0625q-0.421875 0.296875 -1.046875 0.453125q-0.609375 0.15625 -1.21875 0.15625q-1.328125 0 -2.078125 -0.6875q-0.75 -0.703125 -0.75 -1.84375l0 -5.015625l-1.9375 0l0 -1.0625l1.9375 0l0 -1.90625l1.34375 -0.15625l0 2.0625l2.921875 0l-0.171875 1.0625l-2.75 0l0 5.0q0 0.734375 0.375 1.09375q0.390625 0.34375 1.234375 0.34375q0.875 0 1.625 -0.40625l0.515625 0.90625zm4.2406616 -2.015625q0 0.828125 0.34375 1.203125q0.34375 0.375 1.09375 0.375q0.671875 0 1.28125 -0.375q0.625 -0.390625 1.0 -0.96875l0 -6.21875l1.34375 0l0 8.4375l-1.15625 0l-0.109375 -1.140625q-0.5 0.625 -1.234375 0.96875q-0.71875 0.34375 -1.46875 0.34375q-1.203125 0 -1.828125 -0.640625q-0.609375 -0.640625 -0.609375 -1.828125l0 -6.140625l1.34375 0l0 5.984375zm13.959351 -6.15625q0.515625 0 1.1875 0.171875l-0.203125 2.875l-1.078125 0l0 -1.8125l-0.078125 0q-1.953125 0 -2.765625 2.78125l0 3.546875l1.703125 0l0 1.046875l-4.375 0l0 -1.046875l1.328125 0l0 -6.34375l-1.328125 0l0 -1.046875l2.328125 0l0.25 2.0q0.515625 -1.078125 1.21875 -1.625q0.71875 -0.546875 1.8125 -0.546875zm3.8969116 0.171875l1.15625 0l0.109375 1.1875q0.5 -0.640625 1.25 -1.0q0.765625 -0.359375 1.53125 -0.359375q2.375 0 2.375 2.5l0 6.109375l-1.34375 0l0 -5.125q0 -0.9375 -0.109375 -1.4375q-0.09375 -0.5 -0.40625 -0.734375q-0.296875 -0.234375 -0.921875 -0.234375q-0.6875 0 -1.296875 0.421875q-0.609375 0.40625 -1.0 0.984375l0 6.125l-1.34375 0l0 -8.4375zm19.200073 0l1.15625 0l0.109375 1.1875q0.5 -0.640625 1.25 -1.0q0.765625 -0.359375 1.53125 -0.359375q2.375 0 2.375 2.5l0 6.109375l-1.34375 0l0 -5.125q0 -0.9375 -0.109375 -1.4375q-0.09375 -0.5 -0.40625 -0.734375q-0.296875 -0.234375 -0.921875 -0.234375q-0.6875 0 -1.296875 0.421875q-0.609375 0.40625 -1.0 0.984375l0 6.125l-1.34375 0l0 -8.4375zm10.943726 5.984375q0 0.828125 0.34375 1.203125q0.34375 0.375 1.09375 0.375q0.671875 0 1.28125 -0.375q0.625 -0.390625 1.0 -0.96875l0 -6.21875l1.34375 0l0 8.4375l-1.15625 0l-0.109375 -1.140625q-0.5 0.625 -1.234375 0.96875q-0.71875 0.34375 -1.46875 0.34375q-1.203125 0 -1.828125 -0.640625q-0.609375 -0.640625 -0.609375 -1.828125l0 -6.140625l1.34375 0l0 5.984375zm13.818787 -6.15625q0.71875 0 1.171875 0.515625q0.453125 0.5 0.453125 1.828125l0 6.265625l-1.234375 0l0 -6.046875q0 -0.875 -0.109375 -1.1875q-0.109375 -0.3125 -0.546875 -0.3125q-0.8125 0 -1.46875 1.0l0 6.546875l-1.25 0l0 -6.046875q0 -0.875 -0.109375 -1.1875q-0.109375 -0.3125 -0.546875 -0.3125q-0.8125 0 -1.46875 1.0l0 6.546875l-1.234375 0l0 -8.4375l1.046875 0l0.09375 1.0q0.390625 -0.5625 0.8125 -0.859375q0.421875 -0.3125 1.015625 -0.3125q1.171875 0 1.515625 1.125q0.390625 -0.546875 0.8125 -0.828125q0.4375 -0.296875 1.046875 -0.296875zm5.3812866 1.28125q0.984375 -1.28125 2.421875 -1.28125q1.609375 0 2.375 1.15625q0.78125 1.15625 0.78125 3.234375q0 1.984375 -0.890625 3.1875q-0.875 1.203125 -2.453125 1.203125q-1.453125 0 -2.296875 -1.046875l-0.09375 0.875l-1.1875 0l0 -11.828125l1.34375 -0.15625l0 4.65625zm1.921875 6.421875q1.0625 0 1.625 -0.828125q0.578125 -0.84375 0.578125 -2.484375q0 -1.640625 -0.515625 -2.46875q-0.5 -0.828125 -1.484375 -0.828125q-0.640625 0 -1.1875 0.390625q-0.53125 0.375 -0.9375 0.953125l0 4.171875q0.34375 0.515625 0.828125 0.8125q0.5 0.28125 1.09375 0.28125zm7.4125366 -2.84375q0.046875 1.390625 0.71875 2.109375q0.6875 0.703125 1.734375 0.703125q0.625 0 1.140625 -0.1875q0.515625 -0.1875 1.109375 -0.578125l0.625 0.90625q-0.59375 0.453125 -1.359375 0.71875q-0.75 0.25 -1.515625 0.25q-1.828125 0 -2.84375 -1.1875q-1.015625 -1.1875 -1.015625 -3.1875q0 -1.265625 0.4375 -2.265625q0.453125 -1.0 1.28125 -1.5625q0.84375 -0.578125 1.9375 -0.578125q1.609375 0 2.53125 1.109375q0.921875 1.109375 0.921875 3.03125q0 0.375 -0.03125 0.71875l-5.671875 0zm2.265625 -3.75q-0.96875 0 -1.578125 0.703125q-0.609375 0.6875 -0.6875 2.03125l4.390625 0q-0.015625 -1.328125 -0.578125 -2.03125q-0.5625 -0.703125 -1.546875 -0.703125zm11.959351 -1.109375q0.515625 0 1.1875 0.171875l-0.203125 2.875l-1.078125 0l0 -1.8125l-0.078125 0q-1.953125 0 -2.765625 2.78125l0 3.546875l1.703125 0l0 1.046875l-4.375 0l0 -1.046875l1.328125 0l0 -6.34375l-1.328125 0l0 -1.046875l2.328125 0l0.25 2.0q0.515625 -1.078125 1.21875 -1.625q0.71875 -0.546875 1.8125 -0.546875zm20.106323 2.90625l0 1.390625l-6.078125 3.78125l-0.71875 -0.984375l5.65625 -3.5l-5.65625 -3.46875l0.65625 -1.015625l6.140625 3.796875zm15.293762 -5.5q1.015625 0 1.78125 0.375q0.765625 0.375 1.1875 1.015625q0.421875 0.625 0.421875 1.375q0 0.96875 -0.625 1.6875q-0.625 0.703125 -1.53125 0.875q1.046875 0.078125 1.765625 0.78125q0.734375 0.703125 0.734375 1.921875q0 0.953125 -0.484375 1.71875q-0.46875 0.765625 -1.34375 1.203125q-0.875 0.421875 -2.0 0.421875q-0.96875 0 -1.875 -0.359375q-0.90625 -0.375 -1.5 -1.09375l0.90625 -0.734375q0.4375 0.53125 1.078125 0.8125q0.65625 0.28125 1.359375 0.28125q1.15625 0 1.796875 -0.59375q0.65625 -0.609375 0.65625 -1.65625q0 -2.09375 -2.28125 -2.09375l-0.921875 0l0.15625 -1.078125l0.65625 0q0.875 0 1.46875 -0.484375q0.609375 -0.484375 0.609375 -1.421875q0 -0.890625 -0.578125 -1.375q-0.578125 -0.484375 -1.5 -0.484375q-0.6875 0 -1.21875 0.25q-0.53125 0.234375 -1.109375 0.75l-0.734375 -0.8125q1.34375 -1.28125 3.125 -1.28125zm9.600037 0q1.015625 0 1.78125 0.375q0.765625 0.375 1.1875 1.015625q0.421875 0.625 0.421875 1.375q0 0.96875 -0.625 1.6875q-0.625 0.703125 -1.53125 0.875q1.046875 0.078125 1.765625 0.78125q0.734375 0.703125 0.734375 1.921875q0 0.953125 -0.484375 1.71875q-0.46875 0.765625 -1.34375 1.203125q-0.875 0.421875 -2.0 0.421875q-0.96875 0 -1.875 -0.359375q-0.90625 -0.375 -1.5 -1.09375l0.90625 -0.734375q0.4375 0.53125 1.078125 0.8125q0.65625 0.28125 1.359375 0.28125q1.15625 0 1.796875 -0.59375q0.65625 -0.609375 0.65625 -1.65625q0 -2.09375 -2.28125 -2.09375l-0.921875 0l0.15625 -1.078125l0.65625 0q0.875 0 1.46875 -0.484375q0.609375 -0.484375 0.609375 -1.421875q0 -0.890625 -0.578125 -1.375q-0.578125 -0.484375 -1.5 -0.484375q-0.6875 0 -1.21875 0.25q-0.53125 0.234375 -1.109375 0.75l-0.734375 -0.8125q1.34375 -1.28125 3.125 -1.28125zm10.084412 3.03125q0.5625 0 0.921875 0.375q0.375 0.375 0.375 0.90625q0 0.53125 -0.375 0.921875q-0.359375 0.390625 -0.921875 0.390625q-0.546875 0 -0.921875 -0.390625q-0.359375 -0.390625 -0.359375 -0.921875q0 -0.53125 0.359375 -0.90625q0.375 -0.375 0.921875 -0.375zm0 5.515625q0.546875 0 0.921875 0.375q0.375 0.375 0.375 0.921875q0 0.578125 -0.296875 1.265625l-1.3125 2.96875l-1.21875 0l0.765625 -3.15625q-0.234375 -0.1875 -0.375 -0.46875q-0.140625 -0.296875 -0.140625 -0.609375q0 -0.546875 0.359375 -0.921875q0.375 -0.375 0.921875 -0.375z" fill-rule="nonzero"></path><path fill="#000000" fill-opacity="0.0" d="m412.2546 78.002625l184.85037 0" fill-rule="evenodd"></path><path stroke="#000000" stroke-width="3.0" stroke-linejoin="round" stroke-linecap="butt" d="m412.2546 78.002625l166.85037 0" fill-rule="evenodd"></path><path fill="#000000" stroke="#000000" stroke-width="3.0" stroke-linecap="butt" d="m579.105 82.957825l13.614319 -4.9552l-13.614319 -4.9552z" fill-rule="evenodd"></path><path fill="#000000" fill-opacity="0.0" d="m773.2677 112.238846c0 5.2836914 -197.54877 6.171547 -371.96674 10.567375c-174.41795 4.395836 -325.70508 12.299629 -371.96674 22.40136c-46.26165 10.101715 12.502178 22.401337 25.004356 22.401337" fill-rule="evenodd"></path><path stroke="#434343" stroke-width="3.0" stroke-linejoin="round" stroke-linecap="butt" stroke-dasharray="12.0,9.0,3.0,9.0" d="m773.2677 112.238846c0 5.2836914 -197.54877 6.171547 -371.96674 10.567383c-174.41795 4.3958282 -325.70508 12.299637 -371.96674 22.401352c-23.130825 5.0508423 -20.00528 10.651184 -9.534258 14.988815c2.617756 1.0843964 5.694603 2.0898895 8.935064 2.988144c1.6202259 0.4491272 3.2813587 0.8714447 4.946459 1.2634125c0.83254623 0.19596863 1.6660881 0.3843689 2.496006 0.56474304l0.33893204 0.07218933" fill-rule="evenodd"></path><path fill="#434343" stroke="#434343" stroke-width="3.0" stroke-linecap="butt" d="m35.821594 169.99113l14.174618 -2.9971924l-12.784943 -6.8152924z" fill-rule="evenodd"></path><path fill="#f4cccc" d="m597.09625 133.37534l352.34644 0l0 68.47243l-352.34644 0z" fill-rule="evenodd"></path><path stroke="#000000" stroke-width="1.0" stroke-linejoin="round" stroke-linecap="butt" d="m597.09625 133.37534l352.34644 0l0 68.47243l-352.34644 0z" fill-rule="evenodd"></path><path fill="#000000" d="m689.36615 164.86218q0.515625 0 1.1875 0.171875l-0.203125 2.875l-1.078125 0l0 -1.8125l-0.078125 0q-1.953125 0 -2.765625 2.78125l0 3.546875l1.703125 0l0 1.046875l-4.375 0l0 -1.046875l1.328125 0l0 -6.34375l-1.328125 0l0 -1.046875l2.328125 0l0.25 2.0q0.515625 -1.078125 1.21875 -1.625q0.71875 -0.546875 1.8125 -0.546875zm4.9749756 4.859375q0.046875 1.390625 0.71875 2.109375q0.6875 0.703125 1.734375 0.703125q0.625 0 1.140625 -0.1875q0.515625 -0.1875 1.109375 -0.578125l0.625 0.90625q-0.59375 0.453125 -1.359375 0.71875q-0.75 0.25 -1.515625 0.25q-1.828125 0 -2.84375 -1.1875q-1.015625 -1.1875 -1.015625 -3.1875q0 -1.265625 0.4375 -2.265625q0.453125 -1.0 1.28125 -1.5625q0.84375 -0.578125 1.9375 -0.578125q1.609375 0 2.53125 1.109375q0.921875 1.109375 0.921875 3.03125q0 0.375 -0.03125 0.71875l-5.671875 0zm2.265625 -3.75q-0.96875 0 -1.578125 0.703125q-0.609375 0.6875 -0.6875 2.03125l4.390625 0q-0.015625 -1.328125 -0.578125 -2.03125q-0.5625 -0.703125 -1.546875 -0.703125zm12.959412 7.0625q-0.421875 0.296875 -1.046875 0.453125q-0.609375 0.15625 -1.21875 0.15625q-1.328125 0 -2.078125 -0.6875q-0.75 -0.703125 -0.75 -1.84375l0 -5.015625l-1.9375 0l0 -1.0625l1.9375 0l0 -1.90625l1.34375 -0.15625l0 2.0625l2.921875 0l-0.171875 1.0625l-2.75 0l0 5.0q0 0.734375 0.375 1.09375q0.390625 0.34375 1.234375 0.34375q0.875 0 1.625 -0.40625l0.515625 0.90625zm4.2406616 -2.015625q0 0.828125 0.34375 1.203125q0.34375 0.375 1.09375 0.375q0.671875 0 1.28125 -0.375q0.625 -0.390625 1.0 -0.96875l0 -6.21875l1.34375 0l0 8.4375l-1.15625 0l-0.109375 -1.140625q-0.5 0.625 -1.234375 0.96875q-0.71875 0.34375 -1.46875 0.34375q-1.203125 0 -1.828125 -0.640625q-0.609375 -0.640625 -0.609375 -1.828125l0 -6.140625l1.34375 0l0 5.984375zm13.959412 -6.15625q0.515625 0 1.1875 0.171875l-0.203125 2.875l-1.078125 0l0 -1.8125l-0.078125 0q-1.953125 0 -2.765625 2.78125l0 3.546875l1.703125 0l0 1.046875l-4.375 0l0 -1.046875l1.328125 0l0 -6.34375l-1.328125 0l0 -1.046875l2.328125 0l0.25 2.0q0.515625 -1.078125 1.21875 -1.625q0.71875 -0.546875 1.8125 -0.546875zm3.8969116 0.171875l1.15625 0l0.109375 1.1875q0.5 -0.640625 1.25 -1.0q0.765625 -0.359375 1.53125 -0.359375q2.375 0 2.375 2.5l0 6.109375l-1.34375 0l0 -5.125q0 -0.9375 -0.109375 -1.4375q-0.09375 -0.5 -0.40625 -0.734375q-0.296875 -0.234375 -0.921875 -0.234375q-0.6875 0 -1.296875 0.421875q-0.609375 0.40625 -1.0 0.984375l0 6.125l-1.34375 0l0 -8.4375zm19.200012 0l1.15625 0l0.109375 1.1875q0.5 -0.640625 1.25 -1.0q0.765625 -0.359375 1.53125 -0.359375q2.375 0 2.375 2.5l0 6.109375l-1.34375 0l0 -5.125q0 -0.9375 -0.109375 -1.4375q-0.09375 -0.5 -0.40625 -0.734375q-0.296875 -0.234375 -0.921875 -0.234375q-0.6875 0 -1.296875 0.421875q-0.609375 0.40625 -1.0 0.984375l0 6.125l-1.34375 0l0 -8.4375zm10.943787 5.984375q0 0.828125 0.34375 1.203125q0.34375 0.375 1.09375 0.375q0.671875 0 1.28125 -0.375q0.625 -0.390625 1.0 -0.96875l0 -6.21875l1.34375 0l0 8.4375l-1.15625 0l-0.109375 -1.140625q-0.5 0.625 -1.234375 0.96875q-0.71875 0.34375 -1.46875 0.34375q-1.203125 0 -1.828125 -0.640625q-0.609375 -0.640625 -0.609375 -1.828125l0 -6.140625l1.34375 0l0 5.984375zm13.818787 -6.15625q0.71875 0 1.171875 0.515625q0.453125 0.5 0.453125 1.828125l0 6.265625l-1.234375 0l0 -6.046875q0 -0.875 -0.109375 -1.1875q-0.109375 -0.3125 -0.546875 -0.3125q-0.8125 0 -1.46875 1.0l0 6.546875l-1.25 0l0 -6.046875q0 -0.875 -0.109375 -1.1875q-0.109375 -0.3125 -0.546875 -0.3125q-0.8125 0 -1.46875 1.0l0 6.546875l-1.234375 0l0 -8.4375l1.046875 0l0.09375 1.0q0.390625 -0.5625 0.8125 -0.859375q0.421875 -0.3125 1.015625 -0.3125q1.171875 0 1.515625 1.125q0.390625 -0.546875 0.8125 -0.828125q0.4375 -0.296875 1.046875 -0.296875zm5.3812256 1.28125q0.984375 -1.28125 2.421875 -1.28125q1.609375 0 2.375 1.15625q0.78125 1.15625 0.78125 3.234375q0 1.984375 -0.890625 3.1875q-0.875 1.203125 -2.453125 1.203125q-1.453125 0 -2.296875 -1.046875l-0.09375 0.875l-1.1875 0l0 -11.828125l1.34375 -0.15625l0 4.65625zm1.921875 6.421875q1.0625 0 1.625 -0.828125q0.578125 -0.84375 0.578125 -2.484375q0 -1.640625 -0.515625 -2.46875q-0.5 -0.828125 -1.484375 -0.828125q-0.640625 0 -1.1875 0.390625q-0.53125 0.375 -0.9375 0.953125l0 4.171875q0.34375 0.515625 0.828125 0.8125q0.5 0.28125 1.09375 0.28125zm7.4125366 -2.84375q0.046875 1.390625 0.71875 2.109375q0.6875 0.703125 1.734375 0.703125q0.625 0 1.140625 -0.1875q0.515625 -0.1875 1.109375 -0.578125l0.625 0.90625q-0.59375 0.453125 -1.359375 0.71875q-0.75 0.25 -1.515625 0.25q-1.828125 0 -2.84375 -1.1875q-1.015625 -1.1875 -1.015625 -3.1875q0 -1.265625 0.4375 -2.265625q0.453125 -1.0 1.28125 -1.5625q0.84375 -0.578125 1.9375 -0.578125q1.609375 0 2.53125 1.109375q0.921875 1.109375 0.921875 3.03125q0 0.375 -0.03125 0.71875l-5.671875 0zm2.265625 -3.75q-0.96875 0 -1.578125 0.703125q-0.609375 0.6875 -0.6875 2.03125l4.390625 0q-0.015625 -1.328125 -0.578125 -2.03125q-0.5625 -0.703125 -1.546875 -0.703125zm11.959412 -1.109375q0.515625 0 1.1875 0.171875l-0.203125 2.875l-1.078125 0l0 -1.8125l-0.078125 0q-1.953125 0 -2.765625 2.78125l0 3.546875l1.703125 0l0 1.046875l-4.375 0l0 -1.046875l1.328125 0l0 -6.34375l-1.328125 0l0 -1.046875l2.328125 0l0.25 2.0q0.515625 -1.078125 1.21875 -1.625q0.71875 -0.546875 1.8125 -0.546875zm20.106262 2.90625l0 1.390625l-6.078125 3.78125l-0.71875 -0.984375l5.65625 -3.5l-5.65625 -3.46875l0.65625 -1.015625l6.140625 3.796875zm15.293823 -5.5q1.015625 0 1.78125 0.375q0.765625 0.375 1.1875 1.015625q0.421875 0.625 0.421875 1.375q0 0.96875 -0.625 1.6875q-0.625 0.703125 -1.53125 0.875q1.046875 0.078125 1.765625 0.78125q0.734375 0.703125 0.734375 1.921875q0 0.953125 -0.484375 1.71875q-0.46875 0.765625 -1.34375 1.203125q-0.875 0.421875 -2.0 0.421875q-0.96875 0 -1.875 -0.359375q-0.90625 -0.375 -1.5 -1.09375l0.90625 -0.734375q0.4375 0.53125 1.078125 0.8125q0.65625 0.28125 1.359375 0.28125q1.15625 0 1.796875 -0.59375q0.65625 -0.609375 0.65625 -1.65625q0 -2.09375 -2.28125 -2.09375l-0.921875 0l0.15625 -1.078125l0.65625 0q0.875 0 1.46875 -0.484375q0.609375 -0.484375 0.609375 -1.421875q0 -0.890625 -0.578125 -1.375q-0.578125 -0.484375 -1.5 -0.484375q-0.6875 0 -1.21875 0.25q-0.53125 0.234375 -1.109375 0.75l-0.734375 -0.8125q1.34375 -1.28125 3.125 -1.28125zm9.600037 0q1.015625 0 1.78125 0.375q0.765625 0.375 1.1875 1.015625q0.421875 0.625 0.421875 1.375q0 0.96875 -0.625 1.6875q-0.625 0.703125 -1.53125 0.875q1.046875 0.078125 1.765625 0.78125q0.734375 0.703125 0.734375 1.921875q0 0.953125 -0.484375 1.71875q-0.46875 0.765625 -1.34375 1.203125q-0.875 0.421875 -2.0 0.421875q-0.96875 0 -1.875 -0.359375q-0.90625 -0.375 -1.5 -1.09375l0.90625 -0.734375q0.4375 0.53125 1.078125 0.8125q0.65625 0.28125 1.359375 0.28125q1.15625 0 1.796875 -0.59375q0.65625 -0.609375 0.65625 -1.65625q0 -2.09375 -2.28125 -2.09375l-0.921875 0l0.15625 -1.078125l0.65625 0q0.875 0 1.46875 -0.484375q0.609375 -0.484375 0.609375 -1.421875q0 -0.890625 -0.578125 -1.375q-0.578125 -0.484375 -1.5 -0.484375q-0.6875 0 -1.21875 0.25q-0.53125 0.234375 -1.109375 0.75l-0.734375 -0.8125q1.34375 -1.28125 3.125 -1.28125zm10.084351 3.03125q0.5625 0 0.921875 0.375q0.375 0.375 0.375 0.90625q0 0.53125 -0.375 0.921875q-0.359375 0.390625 -0.921875 0.390625q-0.546875 0 -0.921875 -0.390625q-0.359375 -0.390625 -0.359375 -0.921875q0 -0.53125 0.359375 -0.90625q0.375 -0.375 0.921875 -0.375zm0 5.515625q0.546875 0 0.921875 0.375q0.375 0.375 0.375 0.921875q0 0.578125 -0.296875 1.265625l-1.3125 2.96875l-1.21875 0l0.765625 -3.15625q-0.234375 -0.1875 -0.375 -0.46875q-0.140625 -0.296875 -0.140625 -0.609375q0 -0.546875 0.359375 -0.921875q0.375 -0.375 0.921875 -0.375z" fill-rule="nonzero"></path><path fill="#000000" fill-opacity="0.0" d="m412.25336 167.61023l184.8504 0" fill-rule="evenodd"></path><path stroke="#000000" stroke-width="3.0" stroke-linejoin="round" stroke-linecap="butt" d="m412.25336 167.61023l166.8504 0" fill-rule="evenodd"></path><path fill="#000000" stroke="#000000" stroke-width="3.0" stroke-linecap="butt" d="m579.10376 172.56543l13.614319 -4.9552l-13.614319 -4.955185z" fill-rule="evenodd"></path><path fill="#000000" fill-opacity="0.0" d="m470.36353 145.76903l88.06299 0l0 43.685043l-88.06299 0z" fill-rule="evenodd"></path><path fill="#ffffff" d="m480.81375 155.24542l67.162506 0l0 22.387512l-67.162506 0l0 -22.387512z" fill-rule="nonzero"></path><path fill="#000000" d="m482.67313 162.8609l1.34375 0l0.140625 1.375q0.578125 -0.75 1.453125 -1.15625q0.890625 -0.421875 1.78125 -0.421875q2.765625 0 2.765625 2.90625l0 7.125l-1.5625 0l0 -5.96875q0 -1.109375 -0.125 -1.6875q-0.125 -0.578125 -0.484375 -0.84375q-0.34375 -0.28125 -1.078125 -0.28125q-0.796875 0 -1.515625 0.484375q-0.703125 0.484375 -1.140625 1.15625l0 7.140625l-1.578125 0l0 -9.828125zm12.771881 6.96875q0 0.953125 0.390625 1.390625q0.40625 0.4375 1.265625 0.4375q0.78125 0 1.5 -0.4375q0.734375 -0.453125 1.171875 -1.125l0 -7.234375l1.5625 0l0 9.828125l-1.34375 0l-0.125 -1.328125q-0.578125 0.734375 -1.4375 1.140625q-0.84375 0.390625 -1.71875 0.390625q-1.40625 0 -2.125 -0.734375q-0.71875 -0.75 -0.71875 -2.15625l0 -7.140625l1.578125 0l0 6.96875zm16.100006 -7.171875q0.8280945 0 1.3593445 0.59375q0.546875 0.578125 0.546875 2.125l0 7.3125l-1.4375 0l0 -7.046875q0 -1.03125 -0.14059448 -1.390625q-0.125 -0.375 -0.625 -0.375q-0.953125 0 -1.71875 1.1875l0 7.625l-1.453125 0l0 -7.046875q0 -1.03125 -0.140625 -1.390625q-0.125 -0.375 -0.625 -0.375q-0.953125 0 -1.71875 1.1875l0 7.625l-1.4375 0l0 -9.828125l1.21875 0l0.109375 1.15625q0.4375 -0.65625 0.9375 -1.0q0.5 -0.359375 1.1875 -0.359375q1.375 0 1.765625 1.296875q0.453125 -0.625 0.953125 -0.953125q0.5 -0.34375 1.21875 -0.34375zm6.287506 1.484375q1.140625 -1.484375 2.8125 -1.484375q1.890625 0 2.78125 1.34375q0.890625 1.34375 0.890625 3.765625q0 2.3125 -1.03125 3.71875q-1.015625 1.40625 -2.859375 1.40625q-1.703125 0 -2.671875 -1.234375l-0.109375 1.03125l-1.390625 0l0 -13.78125l1.578125 -0.1875l0 5.421875zm2.234375 7.484375q1.234375 0 1.890625 -0.96875q0.671875 -0.96875 0.671875 -2.890625q0 -1.90625 -0.59375 -2.875q-0.59375 -0.96875 -1.75 -0.96875q-0.734375 0 -1.359375 0.453125q-0.625 0.4375 -1.09375 1.109375l0 4.875q0.390625 0.59375 0.96875 0.9375q0.578125 0.328125 1.265625 0.328125zm8.631226 -3.296875q0.0625 1.609375 0.84375 2.4375q0.796875 0.828125 2.015625 0.828125q0.734375 0 1.328125 -0.21875q0.609375 -0.21875 1.296875 -0.671875l0.734375 1.046875q-0.6875 0.546875 -1.578125 0.84375q-0.890625 0.296875 -1.78125 0.296875q-2.125 0 -3.3125 -1.390625q-1.1875 -1.390625 -1.1875 -3.71875q0 -1.46875 0.515625 -2.640625q0.53125 -1.171875 1.5 -1.828125q0.96875 -0.65625 2.265625 -0.65625q1.859375 0 2.921875 1.296875q1.078125 1.296875 1.078125 3.53125q0 0.421875 -0.03125 0.84375l-6.609375 0zm2.65625 -4.390625q-1.140625 0 -1.859375 0.8125q-0.703125 0.8125 -0.796875 2.375l5.125 0q-0.03125 -1.546875 -0.6875 -2.359375q-0.640625 -0.828125 -1.78125 -0.828125zm13.928162 -1.28125q0.609375 0 1.390625 0.203125l-0.234375 3.328125l-1.265625 0l0 -2.09375l-0.09375 0q-2.265625 0 -3.21875 3.234375l0 4.140625l2.0 0l0 1.21875l-5.125 0l0 -1.21875l1.546875 0l0 -7.40625l-1.546875 0l0 -1.203125l2.734375 0l0.296875 2.328125q0.59375 -1.265625 1.421875 -1.890625q0.828125 -0.640625 2.09375 -0.640625z" fill-rule="nonzero"></path><path fill="#000000" fill-opacity="0.0" d="m470.36353 53.70341l88.06299 0l0 48.598423l-88.06299 0z" fill-rule="evenodd"></path><path fill="#ffffff" d="m480.81375 63.179813l67.162506 0l0 22.3875l-67.162506 0l0 -22.3875z" fill-rule="nonzero"></path><path fill="#000000" d="m482.67313 70.79529l1.34375 0l0.140625 1.375q0.578125 -0.75 1.453125 -1.15625q0.890625 -0.421875 1.78125 -0.421875q2.765625 0 2.765625 2.90625l0 7.125l-1.5625 0l0 -5.96875q0 -1.109375 -0.125 -1.6875q-0.125 -0.578125 -0.484375 -0.84375q-0.34375 -0.28125 -1.078125 -0.28125q-0.796875 0 -1.515625 0.484375q-0.703125 0.484375 -1.140625 1.15625l0 7.140625l-1.578125 0l0 -9.828125zm12.771881 6.96875q0 0.953125 0.390625 1.390625q0.40625 0.4375 1.265625 0.4375q0.78125 0 1.5 -0.4375q0.734375 -0.453125 1.171875 -1.125l0 -7.234375l1.5625 0l0 9.828125l-1.34375 0l-0.125 -1.328125q-0.578125 0.734375 -1.4375 1.140625q-0.84375 0.390625 -1.71875 0.390625q-1.40625 0 -2.125 -0.734375q-0.71875 -0.75 -0.71875 -2.15625l0 -7.140625l1.578125 0l0 6.96875zm16.100006 -7.171875q0.8280945 0 1.3593445 0.59375q0.546875 0.578125 0.546875 2.125l0 7.3125l-1.4375 0l0 -7.046875q0 -1.03125 -0.14059448 -1.390625q-0.125 -0.375 -0.625 -0.375q-0.953125 0 -1.71875 1.1875l0 7.625l-1.453125 0l0 -7.046875q0 -1.03125 -0.140625 -1.390625q-0.125 -0.375 -0.625 -0.375q-0.953125 0 -1.71875 1.1875l0 7.625l-1.4375 0l0 -9.828125l1.21875 0l0.109375 1.15625q0.4375 -0.65625 0.9375 -1.0q0.5 -0.359375 1.1875 -0.359375q1.375 0 1.765625 1.296875q0.453125 -0.625 0.953125 -0.953125q0.5 -0.34375 1.21875 -0.34375zm6.287506 1.484375q1.140625 -1.484375 2.8125 -1.484375q1.890625 0 2.78125 1.34375q0.890625 1.34375 0.890625 3.765625q0 2.3125 -1.03125 3.71875q-1.015625 1.40625 -2.859375 1.40625q-1.703125 0 -2.671875 -1.234375l-0.109375 1.03125l-1.390625 0l0 -13.78125l1.578125 -0.1875l0 5.421875zm2.234375 7.484375q1.234375 0 1.890625 -0.96875q0.671875 -0.96875 0.671875 -2.890625q0 -1.90625 -0.59375 -2.875q-0.59375 -0.96875 -1.75 -0.96875q-0.734375 0 -1.359375 0.453125q-0.625 0.4375 -1.09375 1.109375l0 4.875q0.390625 0.59375 0.96875 0.9375q0.578125 0.328125 1.265625 0.328125zm8.631226 -3.296875q0.0625 1.609375 0.84375 2.4375q0.796875 0.828125 2.015625 0.828125q0.734375 0 1.328125 -0.21875q0.609375 -0.21875 1.296875 -0.671875l0.734375 1.046875q-0.6875 0.546875 -1.578125 0.84375q-0.890625 0.296875 -1.78125 0.296875q-2.125 0 -3.3125 -1.390625q-1.1875 -1.390625 -1.1875 -3.71875q0 -1.46875 0.515625 -2.640625q0.53125 -1.171875 1.5 -1.828125q0.96875 -0.65625 2.265625 -0.65625q1.859375 0 2.921875 1.296875q1.078125 1.296875 1.078125 3.53125q0 0.421875 -0.03125 0.84375l-6.609375 0zm2.65625 -4.390625q-1.140625 0 -1.859375 0.8125q-0.703125 0.8125 -0.796875 2.375l5.125 0q-0.03125 -1.546875 -0.6875 -2.359375q-0.640625 -0.828125 -1.78125 -0.828125zm13.928162 -1.28125q0.609375 0 1.390625 0.203125l-0.234375 3.328125l-1.265625 0l0 -2.09375l-0.09375 0q-2.265625 0 -3.21875 3.234375l0 4.140625l2.0 0l0 1.21875l-5.125 0l0 -1.21875l1.546875 0l0 -7.40625l-1.546875 0l0 -1.203125l2.734375 0l0.296875 2.328125q0.59375 -1.265625 1.421875 -1.890625q0.828125 -0.640625 2.09375 -0.640625z" fill-rule="nonzero"></path><path fill="#000000" fill-opacity="0.0" d="m773.26685 292.82547l0 112.12598" fill-rule="evenodd"></path><path stroke="#000000" stroke-width="3.0" stroke-linejoin="round" stroke-linecap="butt" d="m773.2668 292.82547l0 94.12598" fill-rule="evenodd"></path><path fill="#000000" stroke="#000000" stroke-width="3.0" stroke-linecap="butt" d="m768.31165 386.95145l4.955139 13.614288l4.9552 -13.614288z" fill-rule="evenodd"></path><path fill="#000000" fill-opacity="0.0" d="m718.16797 324.98737l110.20471 0l0 43.68506l-110.20471 0z" fill-rule="evenodd"></path><path fill="#ffffff" d="m734.0922 334.46378l78.35626 0l0 22.387512l-78.35626 0l0 -22.387512z" fill-rule="nonzero"></path><path fill="#000000" d="m742.9516 341.70425q0.890625 0 1.640625 0.296875l-0.53125 4.140625l-1.875 0l0 -1.828125q-0.8125 0.15625 -1.453125 0.90625q-0.640625 0.734375 -0.984375 1.875l0 2.828125l1.953125 0l0 1.984375l-6.203125 0l0 -1.984375l1.296875 0l0 -5.96875l-1.296875 0l0 -1.953125l3.5625 0l0.515625 2.21875q0.546875 -1.265625 1.359375 -1.890625q0.828125 -0.625 2.015625 -0.625zm6.1937256 6.125q0.28125 2.25 2.390625 2.25q1.265625 0 2.53125 -0.828125l1.1875 1.609375q-0.734375 0.640625 -1.75 1.0q-1.0 0.359375 -2.21875 0.359375q-1.65625 0 -2.8125 -0.65625q-1.15625 -0.65625 -1.75 -1.84375q-0.578125 -1.1875 -0.578125 -2.75q0 -1.5 0.5625 -2.703125q0.578125 -1.203125 1.65625 -1.90625q1.09375 -0.703125 2.609375 -0.703125q1.421875 0 2.46875 0.609375q1.046875 0.609375 1.609375 1.765625q0.5625 1.140625 0.5625 2.71875q0 0.625 -0.046875 1.078125l-6.421875 0zm1.828125 -4.1875q-0.796875 0 -1.28125 0.59375q-0.484375 0.578125 -0.578125 1.796875l3.640625 0q-0.046875 -2.390625 -1.78125 -2.390625zm15.725037 7.6875q-1.390625 0.890625 -3.234375 0.890625q-1.90625 0 -2.875 -0.96875q-0.953125 -0.96875 -0.953125 -2.71875l0 -4.5l-2.078125 0l0 -2.03125l2.078125 0l0 -2.140625l2.9375 -0.359375l0 2.5l3.203125 0l-0.296875 2.03125l-2.90625 0l0 4.5q0 0.71875 0.328125 1.046875q0.34375 0.3125 1.09375 0.3125q0.9375 0 1.734375 -0.453125l0.96875 1.890625zm5.2249756 -2.5625q0 0.703125 0.25 1.0q0.25 0.28125 0.765625 0.28125q0.4375 0 0.90625 -0.28125q0.46875 -0.296875 0.765625 -0.8125l0 -6.953125l2.953125 0l0 9.90625l-2.578125 0l-0.125 -1.15625q-0.484375 0.703125 -1.3125 1.09375q-0.8125 0.375 -1.734375 0.375q-1.390625 0 -2.109375 -0.8125q-0.71875 -0.8125 -0.71875 -2.265625l0 -7.140625l2.9375 0l0 6.765625zm15.803162 -7.0625q0.890625 0 1.640625 0.296875l-0.53125 4.140625l-1.875 0l0 -1.828125q-0.8125 0.15625 -1.453125 0.90625q-0.640625 0.734375 -0.984375 1.875l0 2.828125l1.953125 0l0 1.984375l-6.203125 0l0 -1.984375l1.296875 0l0 -5.96875l-1.296875 0l0 -1.953125l3.5625 0l0.515625 2.21875q0.546875 -1.265625 1.359375 -1.890625q0.828125 -0.625 2.015625 -0.625zm3.6468506 0.296875l2.5625 0l0.203125 1.140625q0.671875 -0.75 1.40625 -1.109375q0.75 -0.375 1.671875 -0.375q1.296875 0 2.015625 0.796875q0.71875 0.78125 0.71875 2.171875l0 7.28125l-2.953125 0l0 -6.421875q0 -0.921875 -0.203125 -1.28125q-0.203125 -0.359375 -0.75 -0.359375q-0.4375 0 -0.859375 0.296875q-0.421875 0.28125 -0.875 0.84375l0 6.921875l-2.9375 0l0 -9.90625zm15.162537 8.109375q0.765625 0 1.203125 -0.21875q0.4375 -0.234375 0.4375 -0.703125q0 -0.34375 -0.1875 -0.546875q-0.171875 -0.203125 -0.65625 -0.390625q-0.484375 -0.203125 -1.5 -0.484375q-1.5 -0.390625 -2.28125 -1.09375q-0.78125 -0.703125 -0.78125 -1.921875q0 -1.375 1.125 -2.234375q1.125 -0.859375 3.15625 -0.859375q2.359375 0 4.015625 1.21875l-1.171875 1.734375q-1.359375 -0.84375 -2.75 -0.84375q-0.71875 0 -1.0625 0.1875q-0.34375 0.1875 -0.34375 0.578125q0 0.265625 0.171875 0.453125q0.171875 0.171875 0.671875 0.359375q0.5 0.1875 1.484375 0.46875q1.0625 0.296875 1.734375 0.65625q0.6875 0.34375 1.0625 0.9375q0.375 0.59375 0.375 1.53125q0 1.046875 -0.640625 1.796875q-0.625 0.75 -1.703125 1.125q-1.0625 0.359375 -2.34375 0.359375q-1.375 0 -2.5 -0.390625q-1.125 -0.390625 -1.90625 -1.09375l1.484375 -1.65625q1.34375 1.03125 2.90625 1.03125z" fill-rule="nonzero"></path><path fill="#351c75" d="m54.236053 312.59186l357.92126 0l0 68.47244l-357.92126 0z" fill-rule="evenodd"></path><path stroke="#000000" stroke-width="1.0" stroke-linejoin="round" stroke-linecap="butt" d="m54.236053 312.59186l357.92126 0l0 68.47244l-357.92126 0z" fill-rule="evenodd"></path><path fill="#ffffff" d="m232.31543 351.02933l-1.28125 0l0 2.71875l-2.8125 0l-0.03125 -2.71875l-5.34375 0l0 -1.953125l3.578125 -8.59375l2.5 0.9375l-3.046875 7.40625l2.3125 0l0.34375 -3.125l2.5 0l0 3.125l1.28125 0l0 2.203125zm6.475006 -10.546875q2.296875 0 3.484375 1.78125q1.1875 1.765625 1.1875 4.984375q0 3.25 -1.1875 5.03125q-1.1875 1.78125 -3.484375 1.78125q-2.296875 0 -3.484375 -1.78125q-1.171875 -1.78125 -1.171875 -5.03125q0 -3.21875 1.171875 -4.984375q1.1875 -1.78125 3.484375 -1.78125zm0 2.140625q-0.921875 0 -1.375 1.078125q-0.4375 1.078125 -0.4375 3.546875q0 2.5625 0.4375 3.625q0.453125 1.0625 1.375 1.0625q0.953125 0 1.375 -1.0625q0.421875 -1.0625 0.421875 -3.625q0 -2.515625 -0.4375 -3.5625q-0.4375 -1.0625 -1.359375 -1.0625zm-0.015625 3.46875q0.515625 0 0.875 0.359375q0.359375 0.359375 0.359375 0.859375q0 0.53125 -0.359375 0.890625q-0.359375 0.34375 -0.875 0.34375q-0.515625 0 -0.875 -0.34375q-0.34375 -0.359375 -0.34375 -0.890625q0 -0.5 0.34375 -0.859375q0.359375 -0.359375 0.875 -0.359375z" fill-rule="nonzero"></path><path fill="#fff2cc" d="m54.236053 402.20078l357.92126 0l0 68.47244l-357.92126 0z" fill-rule="evenodd"></path><path stroke="#000000" stroke-width="1.0" stroke-linejoin="round" stroke-linecap="butt" d="m54.236053 402.20078l357.92126 0l0 68.47244l-357.92126 0z" fill-rule="evenodd"></path><path fill="#000000" d="m232.31543 440.63824l-1.28125 0l0 2.71875l-2.8125 0l-0.03125 -2.71875l-5.34375 0l0 -1.953125l3.578125 -8.59375l2.5 0.9375l-3.046875 7.40625l2.3125 0l0.34375 -3.125l2.5 0l0 3.125l1.28125 0l0 2.203125zm10.146881 -8.109375l-4.71875 0l0 2.8125q0.921875 -0.4375 1.90625 -0.4375q1.015625 0 1.84375 0.515625q0.828125 0.515625 1.3125 1.46875q0.484375 0.953125 0.484375 2.21875q0 1.296875 -0.640625 2.34375q-0.625 1.046875 -1.78125 1.640625q-1.15625 0.578125 -2.65625 0.578125q-1.359375 0 -2.453125 -0.5q-1.09375 -0.515625 -1.828125 -1.4375l1.6875 -1.546875q0.46875 0.59375 1.078125 0.921875q0.609375 0.3125 1.296875 0.3125q1.03125 0 1.640625 -0.625q0.609375 -0.625 0.609375 -1.640625q0 -2.21875 -1.75 -2.21875q-0.796875 0 -1.5625 0.4375l-2.0 0l0 -6.9375l7.875 0l-0.34375 2.09375z" fill-rule="nonzero"></path><path fill="#000000" fill-opacity="0.0" d="m773.2695 201.84776c0 5.2836914 -197.57477 6.1715546 -372.01566 10.567383c-174.44087 4.3958282 -325.7479 12.299637 -372.01562 22.401352c-46.26773 10.101715 12.50382 22.401337 25.007643 22.401337" fill-rule="evenodd"></path><path stroke="#434343" stroke-width="3.0" stroke-linejoin="round" stroke-linecap="butt" stroke-dasharray="12.0,9.0,3.0,9.0" d="m773.2694 201.84776c0 5.2836914 -197.5747 6.1715546 -372.0156 10.567383c-174.44089 4.3958435 -325.7479 12.299622 -372.01562 22.401352c-23.133867 5.050873 -20.007912 10.651199 -9.535511 14.988831c2.6181011 1.0843964 5.6953506 2.0898895 8.936237 2.988144c1.6204395 0.44911194 3.2817898 0.87142944 4.947109 1.2634125c0.83265686 0.19596863 1.6663055 0.3843689 2.4963303 0.5647278l0.34125137 0.07269287" fill-rule="evenodd"></path><path fill="#434343" stroke="#434343" stroke-width="3.0" stroke-linecap="butt" d="m35.728905 259.60056l14.174534 -2.9975586l-12.785126 -6.8149567z" fill-rule="evenodd"></path><path fill="#d9ead3" d="m597.0936 224.35301l352.34644 0l0 68.47246l-352.34644 0z" fill-rule="evenodd"></path><path stroke="#000000" stroke-width="1.0" stroke-linejoin="round" stroke-linecap="butt" d="m597.0936 224.35301l352.34644 0l0 68.47246l-352.34644 0z" fill-rule="evenodd"></path><path fill="#000000" d="m689.3635 255.83986q0.515625 0 1.1875 0.17189026l-0.203125 2.875l-1.078125 0l0 -1.8125l-0.078125 0q-1.953125 0 -2.765625 2.78125l0 3.546875l1.703125 0l0 1.046875l-4.375 0l0 -1.046875l1.328125 0l0 -6.34375l-1.328125 0l0 -1.046875l2.328125 0l0.25 2.0q0.515625 -1.078125 1.21875 -1.625q0.71875 -0.54689026 1.8125 -0.54689026zm4.9749756 4.8593903q0.046875 1.390625 0.71875 2.109375q0.6875 0.703125 1.734375 0.703125q0.625 0 1.140625 -0.1875q0.515625 -0.1875 1.109375 -0.578125l0.625 0.90625q-0.59375 0.453125 -1.359375 0.71875q-0.75 0.25 -1.515625 0.25q-1.828125 0 -2.84375 -1.1875q-1.015625 -1.1875 -1.015625 -3.1875q0 -1.265625 0.4375 -2.265625q0.453125 -1.0 1.28125 -1.5625q0.84375 -0.57814026 1.9375 -0.57814026q1.609375 0 2.53125 1.1093903q0.921875 1.109375 0.921875 3.03125q0 0.375 -0.03125 0.71875l-5.671875 0zm2.265625 -3.75q-0.96875 0 -1.578125 0.703125q-0.609375 0.6875 -0.6875 2.03125l4.390625 0q-0.015625 -1.328125 -0.578125 -2.03125q-0.5625 -0.703125 -1.546875 -0.703125zm12.959412 7.0625q-0.421875 0.296875 -1.046875 0.453125q-0.609375 0.15625 -1.21875 0.15625q-1.328125 0 -2.078125 -0.6875q-0.75 -0.703125 -0.75 -1.84375l0 -5.015625l-1.9375 0l0 -1.0625l1.9375 0l0 -1.9062653l1.34375 -0.15625l0 2.0625153l2.921875 0l-0.171875 1.0625l-2.75 0l0 5.0q0 0.734375 0.375 1.09375q0.390625 0.34375 1.234375 0.34375q0.875 0 1.625 -0.40625l0.515625 0.90625zm4.2406616 -2.015625q0 0.828125 0.34375 1.203125q0.34375 0.375 1.09375 0.375q0.671875 0 1.28125 -0.375q0.625 -0.390625 1.0 -0.96875l0 -6.21875l1.34375 0l0 8.4375l-1.15625 0l-0.109375 -1.140625q-0.5 0.625 -1.234375 0.96875q-0.71875 0.34375 -1.46875 0.34375q-1.203125 0 -1.828125 -0.640625q-0.609375 -0.640625 -0.609375 -1.828125l0 -6.140625l1.34375 0l0 5.984375zm13.959412 -6.1562653q0.515625 0 1.1875 0.17189026l-0.203125 2.875l-1.078125 0l0 -1.8125l-0.078125 0q-1.953125 0 -2.765625 2.78125l0 3.546875l1.703125 0l0 1.046875l-4.375 0l0 -1.046875l1.328125 0l0 -6.34375l-1.328125 0l0 -1.046875l2.328125 0l0.25 2.0q0.515625 -1.078125 1.21875 -1.625q0.71875 -0.54689026 1.8125 -0.54689026zm3.8969116 0.17189026l1.15625 0l0.109375 1.1875q0.5 -0.640625 1.25 -1.0q0.765625 -0.35939026 1.53125 -0.35939026q2.375 0 2.375 2.5000153l0 6.109375l-1.34375 0l0 -5.125q0 -0.9375 -0.109375 -1.4375q-0.09375 -0.5 -0.40625 -0.734375q-0.296875 -0.234375 -0.921875 -0.234375q-0.6875 0 -1.296875 0.421875q-0.609375 0.40625 -1.0 0.984375l0 6.125l-1.34375 0l0 -8.4375zm19.200012 0l1.15625 0l0.109375 1.1875q0.5 -0.640625 1.25 -1.0q0.765625 -0.35939026 1.53125 -0.35939026q2.375 0 2.375 2.5000153l0 6.109375l-1.34375 0l0 -5.125q0 -0.9375 -0.109375 -1.4375q-0.09375 -0.5 -0.40625 -0.734375q-0.296875 -0.234375 -0.921875 -0.234375q-0.6875 0 -1.296875 0.421875q-0.609375 0.40625 -1.0 0.984375l0 6.125l-1.34375 0l0 -8.4375zm10.943787 5.984375q0 0.828125 0.34375 1.203125q0.34375 0.375 1.09375 0.375q0.671875 0 1.28125 -0.375q0.625 -0.390625 1.0 -0.96875l0 -6.21875l1.34375 0l0 8.4375l-1.15625 0l-0.109375 -1.140625q-0.5 0.625 -1.234375 0.96875q-0.71875 0.34375 -1.46875 0.34375q-1.203125 0 -1.828125 -0.640625q-0.609375 -0.640625 -0.609375 -1.828125l0 -6.140625l1.34375 0l0 5.984375zm13.818787 -6.1562653q0.71875 0 1.171875 0.51564026q0.453125 0.5 0.453125 1.828125l0 6.265625l-1.234375 0l0 -6.046875q0 -0.875 -0.109375 -1.1875q-0.109375 -0.3125 -0.546875 -0.3125q-0.8125 0 -1.46875 1.0l0 6.546875l-1.25 0l0 -6.046875q0 -0.875 -0.109375 -1.1875q-0.109375 -0.3125 -0.546875 -0.3125q-0.8125 0 -1.46875 1.0l0 6.546875l-1.234375 0l0 -8.4375l1.046875 0l0.09375 1.0q0.390625 -0.5625 0.8125 -0.859375q0.421875 -0.31251526 1.015625 -0.31251526q1.171875 0 1.515625 1.1250153q0.390625 -0.546875 0.8125 -0.828125q0.4375 -0.29689026 1.046875 -0.29689026zm5.3812256 1.2812653q0.984375 -1.2812653 2.421875 -1.2812653q1.609375 0 2.375 1.1562653q0.78125 1.15625 0.78125 3.234375q0 1.984375 -0.890625 3.1875q-0.875 1.203125 -2.453125 1.203125q-1.453125 0 -2.296875 -1.046875l-0.09375 0.875l-1.1875 0l0 -11.82814l1.34375 -0.15625l0 4.6562653zm1.921875 6.421875q1.0625 0 1.625 -0.828125q0.578125 -0.84375 0.578125 -2.484375q0 -1.640625 -0.515625 -2.46875q-0.5 -0.828125 -1.484375 -0.828125q-0.640625 0 -1.1875 0.390625q-0.53125 0.375 -0.9375 0.953125l0 4.171875q0.34375 0.515625 0.828125 0.8125q0.5 0.28125 1.09375 0.28125zm7.4125366 -2.84375q0.046875 1.390625 0.71875 2.109375q0.6875 0.703125 1.734375 0.703125q0.625 0 1.140625 -0.1875q0.515625 -0.1875 1.109375 -0.578125l0.625 0.90625q-0.59375 0.453125 -1.359375 0.71875q-0.75 0.25 -1.515625 0.25q-1.828125 0 -2.84375 -1.1875q-1.015625 -1.1875 -1.015625 -3.1875q0 -1.265625 0.4375 -2.265625q0.453125 -1.0 1.28125 -1.5625q0.84375 -0.57814026 1.9375 -0.57814026q1.609375 0 2.53125 1.1093903q0.921875 1.109375 0.921875 3.03125q0 0.375 -0.03125 0.71875l-5.671875 0zm2.265625 -3.75q-0.96875 0 -1.578125 0.703125q-0.609375 0.6875 -0.6875 2.03125l4.390625 0q-0.015625 -1.328125 -0.578125 -2.03125q-0.5625 -0.703125 -1.546875 -0.703125zm11.959412 -1.1093903q0.515625 0 1.1875 0.17189026l-0.203125 2.875l-1.078125 0l0 -1.8125l-0.078125 0q-1.953125 0 -2.765625 2.78125l0 3.546875l1.703125 0l0 1.046875l-4.375 0l0 -1.046875l1.328125 0l0 -6.34375l-1.328125 0l0 -1.046875l2.328125 0l0.25 2.0q0.515625 -1.078125 1.21875 -1.625q0.71875 -0.54689026 1.8125 -0.54689026zm20.106262 2.9062653l0 1.390625l-6.078125 3.78125l-0.71875 -0.984375l5.65625 -3.5l-5.65625 -3.4687653l0.65625 -1.015625l6.140625 3.7968903zm15.293823 -5.5000153q1.015625 0 1.78125 0.375q0.765625 0.375 1.1875 1.015625q0.421875 0.625 0.421875 1.3750153q0 0.96875 -0.625 1.6875q-0.625 0.703125 -1.53125 0.875q1.046875 0.078125 1.765625 0.78125q0.734375 0.703125 0.734375 1.921875q0 0.953125 -0.484375 1.71875q-0.46875 0.765625 -1.34375 1.203125q-0.875 0.421875 -2.0 0.421875q-0.96875 0 -1.875 -0.359375q-0.90625 -0.375 -1.5 -1.09375l0.90625 -0.734375q0.4375 0.53125 1.078125 0.8125q0.65625 0.28125 1.359375 0.28125q1.15625 0 1.796875 -0.59375q0.65625 -0.609375 0.65625 -1.65625q0 -2.09375 -2.28125 -2.09375l-0.921875 0l0.15625 -1.078125l0.65625 0q0.875 0 1.46875 -0.484375q0.609375 -0.484375 0.609375 -1.421875q0 -0.89064026 -0.578125 -1.3750153q-0.578125 -0.484375 -1.5 -0.484375q-0.6875 0 -1.21875 0.25q-0.53125 0.234375 -1.109375 0.75l-0.734375 -0.8125q1.34375 -1.28125 3.125 -1.28125zm9.600037 0q1.015625 0 1.78125 0.375q0.765625 0.375 1.1875 1.015625q0.421875 0.625 0.421875 1.3750153q0 0.96875 -0.625 1.6875q-0.625 0.703125 -1.53125 0.875q1.046875 0.078125 1.765625 0.78125q0.734375 0.703125 0.734375 1.921875q0 0.953125 -0.484375 1.71875q-0.46875 0.765625 -1.34375 1.203125q-0.875 0.421875 -2.0 0.421875q-0.96875 0 -1.875 -0.359375q-0.90625 -0.375 -1.5 -1.09375l0.90625 -0.734375q0.4375 0.53125 1.078125 0.8125q0.65625 0.28125 1.359375 0.28125q1.15625 0 1.796875 -0.59375q0.65625 -0.609375 0.65625 -1.65625q0 -2.09375 -2.28125 -2.09375l-0.921875 0l0.15625 -1.078125l0.65625 0q0.875 0 1.46875 -0.484375q0.609375 -0.484375 0.609375 -1.421875q0 -0.89064026 -0.578125 -1.3750153q-0.578125 -0.484375 -1.5 -0.484375q-0.6875 0 -1.21875 0.25q-0.53125 0.234375 -1.109375 0.75l-0.734375 -0.8125q1.34375 -1.28125 3.125 -1.28125zm10.084351 3.0312653q0.5625 0 0.921875 0.375q0.375 0.375 0.375 0.90625q0 0.53125 -0.375 0.921875q-0.359375 0.390625 -0.921875 0.390625q-0.546875 0 -0.921875 -0.390625q-0.359375 -0.390625 -0.359375 -0.921875q0 -0.53125 0.359375 -0.90625q0.375 -0.375 0.921875 -0.375zm0 5.515625q0.546875 0 0.921875 0.375q0.375 0.375 0.375 0.921875q0 0.578125 -0.296875 1.265625l-1.3125 2.96875l-1.21875 0l0.765625 -3.15625q-0.234375 -0.1875 -0.375 -0.46875q-0.140625 -0.296875 -0.140625 -0.609375q0 -0.546875 0.359375 -0.921875q0.375 -0.375 0.921875 -0.375z" fill-rule="nonzero"></path><path fill="#000000" fill-opacity="0.0" d="m412.15732 257.21915l184.94485 1.3858337" fill-rule="evenodd"></path><path stroke="#000000" stroke-width="3.0" stroke-linejoin="round" stroke-linecap="butt" d="m412.15732 257.21915l166.94534 1.250946" fill-rule="evenodd"></path><path fill="#000000" stroke="#000000" stroke-width="3.0" stroke-linecap="butt" d="m579.06555 263.42517l13.651062 -4.853058l-13.576782 -5.0570526z" fill-rule="evenodd"></path><path fill="#000000" fill-opacity="0.0" d="m475.71127 236.74803l88.06302 0l0 43.685043l-88.06302 0z" fill-rule="evenodd"></path><path fill="#ffffff" d="m486.16153 246.22443l67.162506 0l0 22.387512l-67.162506 0l0 -22.387512z" fill-rule="nonzero"></path><path fill="#000000" d="m488.0209 253.8399l1.34375 0l0.140625 1.375q0.578125 -0.75 1.453125 -1.15625q0.890625 -0.421875 1.78125 -0.421875q2.765625 0 2.765625 2.90625l0 7.125l-1.5625 0l0 -5.96875q0 -1.109375 -0.125 -1.6875q-0.125 -0.578125 -0.484375 -0.84375q-0.34375 -0.28125 -1.078125 -0.28125q-0.796875 0 -1.515625 0.484375q-0.703125 0.484375 -1.140625 1.15625l0 7.140625l-1.578125 0l0 -9.828125zm12.771881 6.96875q0 0.953125 0.390625 1.390625q0.40625 0.4375 1.265625 0.4375q0.78125 0 1.5 -0.4375q0.734375 -0.453125 1.171875 -1.125l0 -7.234375l1.5625 0l0 9.828125l-1.34375 0l-0.125 -1.328125q-0.578125 0.734375 -1.4375 1.140625q-0.84375 0.390625 -1.71875 0.390625q-1.40625 0 -2.125 -0.734375q-0.71875 -0.75 -0.71875 -2.15625l0 -7.140625l1.578125 0l0 6.96875zm16.099976 -7.171875q0.828125 0 1.359375 0.59375q0.546875 0.578125 0.546875 2.125l0 7.3125l-1.4375 0l0 -7.046875q0 -1.03125 -0.140625 -1.390625q-0.125 -0.375 -0.625 -0.375q-0.953125 0 -1.71875 1.1875l0 7.625l-1.453125 0l0 -7.046875q0 -1.03125 -0.140625 -1.390625q-0.125 -0.375 -0.625 -0.375q-0.9530945 0 -1.7187195 1.1875l0 7.625l-1.4375 0l0 -9.828125l1.21875 0l0.109375 1.15625q0.4375 -0.65625 0.9375 -1.0q0.49996948 -0.359375 1.1874695 -0.359375q1.375 0 1.765625 1.296875q0.453125 -0.625 0.953125 -0.953125q0.5 -0.34375 1.21875 -0.34375zm6.2875366 1.484375q1.140625 -1.484375 2.8125 -1.484375q1.890625 0 2.78125 1.34375q0.890625 1.34375 0.890625 3.765625q0 2.3125 -1.03125 3.71875q-1.015625 1.40625 -2.859375 1.40625q-1.703125 0 -2.671875 -1.234375l-0.109375 1.03125l-1.390625 0l0 -13.78125l1.578125 -0.1875l0 5.421875zm2.234375 7.484375q1.234375 0 1.890625 -0.96875q0.671875 -0.96875 0.671875 -2.890625q0 -1.90625 -0.59375 -2.875q-0.59375 -0.96875 -1.75 -0.96875q-0.734375 0 -1.359375 0.453125q-0.625 0.4375 -1.09375 1.109375l0 4.875q0.390625 0.59375 0.96875 0.9375q0.578125 0.328125 1.265625 0.328125zm8.631226 -3.296875q0.0625 1.609375 0.84375 2.4375q0.796875 0.828125 2.015625 0.828125q0.734375 0 1.328125 -0.21875q0.609375 -0.21875 1.296875 -0.671875l0.734375 1.046875q-0.6875 0.546875 -1.578125 0.84375q-0.890625 0.296875 -1.78125 0.296875q-2.125 0 -3.3125 -1.390625q-1.1875 -1.390625 -1.1875 -3.71875q0 -1.46875 0.515625 -2.640625q0.53125 -1.171875 1.5 -1.828125q0.96875 -0.65625 2.265625 -0.65625q1.859375 0 2.921875 1.296875q1.078125 1.296875 1.078125 3.53125q0 0.421875 -0.03125 0.84375l-6.609375 0zm2.65625 -4.390625q-1.140625 0 -1.859375 0.8125q-0.703125 0.8125 -0.796875 2.375l5.125 0q-0.03125 -1.546875 -0.6875 -2.359375q-0.640625 -0.828125 -1.78125 -0.828125zm13.928162 -1.28125q0.609375 0 1.390625 0.203125l-0.234375 3.328125l-1.265625 0l0 -2.09375l-0.09375 0q-2.265625 0 -3.21875 3.234375l0 4.140625l2.0 0l0 1.21875l-5.125 0l0 -1.21875l1.546875 0l0 -7.40625l-1.546875 0l0 -1.203125l2.734375 0l0.296875 2.328125q0.59375 -1.265625 1.421875 -1.890625q0.828125 -0.640625 2.09375 -0.640625z" fill-rule="nonzero"></path><path fill="#000000" fill-opacity="0.0" d="m817.2992 424.94226l127.52759 0l0 43.685028l-127.52759 0z" fill-rule="evenodd"></path><path fill="#ffffff" d="m834.8981 433.44855l92.329834 0l0 22.387482l-92.329834 0l0 -22.387482z" fill-rule="nonzero"></path><path fill="#000000" d="m838.6481 442.11224l0 9.75l-2.34375 0l0 -9.75l2.34375 0zm0.359375 -2.84375q0 0.3125 -0.125 0.578125q-0.125 0.265625 -0.328125 0.46875q-0.203125 0.1875 -0.484375 0.3125q-0.28125 0.125 -0.59375 0.125q-0.296875 0 -0.578125 -0.125q-0.265625 -0.125 -0.46875 -0.3125q-0.1875 -0.203125 -0.3125 -0.46875q-0.109375 -0.265625 -0.109375 -0.578125q0 -0.3125 0.109375 -0.578125q0.125 -0.28125 0.3125 -0.46875q0.203125 -0.203125 0.46875 -0.328125q0.28125 -0.125 0.578125 -0.125q0.3125 0 0.59375 0.125q0.28125 0.125 0.484375 0.328125q0.203125 0.1875 0.328125 0.46875q0.125 0.265625 0.125 0.578125zm2.1964722 12.59375l0 -9.75l1.4375 0q0.453125 0 0.59375 0.4375l0.171875 0.765625q0.296875 -0.3125 0.625 -0.546875q0.328125 -0.25 0.6875 -0.421875q0.359375 -0.1875 0.78125 -0.28125q0.421875 -0.109375 0.90625 -0.109375q0.8125 0 1.421875 0.28125q0.625 0.265625 1.03125 0.765625q0.40625 0.484375 0.625 1.171875q0.21875 0.671875 0.21875 1.484375l0 6.203125l-2.34375 0l0 -6.203125q0 -0.890625 -0.421875 -1.375q-0.40625 -0.5 -1.234375 -0.5q-0.609375 0 -1.140625 0.28125q-0.53125 0.265625 -1.015625 0.75l0 7.046875l-2.34375 0zm17.465454 0q-0.453125 0 -0.59375 -0.421875l-0.1875 -0.953125q-0.3125 0.34375 -0.640625 0.625q-0.328125 0.28125 -0.71875 0.484375q-0.375 0.1875 -0.828125 0.296875q-0.4375 0.109375 -0.953125 0.109375q-0.796875 0 -1.46875 -0.328125q-0.65625 -0.328125 -1.140625 -0.953125q-0.46875 -0.640625 -0.734375 -1.5625q-0.265625 -0.9375 -0.265625 -2.140625q0 -1.078125 0.296875 -2.015625q0.296875 -0.9375 0.84375 -1.609375q0.546875 -0.6875 1.3125 -1.0625q0.78125 -0.390625 1.734375 -0.390625q0.828125 0 1.40625 0.265625q0.578125 0.25 1.03125 0.6875l0 -5.140625l2.34375 0l0 14.109375l-1.4375 0zm-3.125 -1.71875q0.734375 0 1.25 -0.296875q0.515625 -0.3125 0.96875 -0.875l0 -4.375q-0.40625 -0.484375 -0.875 -0.671875q-0.46875 -0.203125 -1.015625 -0.203125q-0.53125 0 -0.96875 0.203125q-0.421875 0.1875 -0.71875 0.59375q-0.296875 0.40625 -0.46875 1.03125q-0.15625 0.625 -0.15625 1.46875q0 0.859375 0.140625 1.453125q0.140625 0.59375 0.390625 0.96875q0.265625 0.375 0.625 0.546875q0.375 0.15625 0.828125 0.15625zm10.930969 -8.1875q0.921875 0 1.6875 0.296875q0.78125 0.296875 1.34375 0.875q0.5625 0.5625 0.875 1.390625q0.3125 0.8125 0.3125 1.859375q0 0.265625 -0.03125 0.453125q-0.015625 0.171875 -0.078125 0.265625q-0.0625 0.09375 -0.171875 0.140625q-0.09375 0.046875 -0.265625 0.046875l-6.015625 0q0.109375 1.5 0.8125 2.203125q0.703125 0.703125 1.859375 0.703125q0.5625 0 0.96875 -0.125q0.421875 -0.140625 0.734375 -0.296875q0.3125 -0.171875 0.53125 -0.296875q0.234375 -0.140625 0.453125 -0.140625q0.15625 0 0.25 0.0625q0.109375 0.0625 0.1875 0.15625l0.6875 0.859375q-0.390625 0.453125 -0.875 0.765625q-0.484375 0.3125 -1.015625 0.5q-0.53125 0.171875 -1.078125 0.25q-0.546875 0.078125 -1.0625 0.078125q-1.015625 0 -1.890625 -0.328125q-0.875 -0.34375 -1.515625 -1.0q-0.640625 -0.671875 -1.015625 -1.640625q-0.375 -0.96875 -0.375 -2.25q0 -1.0 0.328125 -1.875q0.328125 -0.890625 0.921875 -1.53125q0.609375 -0.65625 1.46875 -1.03125q0.875 -0.390625 1.96875 -0.390625zm0.046875 1.6875q-1.03125 0 -1.609375 0.578125q-0.578125 0.578125 -0.734375 1.640625l4.40625 0q0 -0.453125 -0.125 -0.859375q-0.125 -0.40625 -0.390625 -0.703125q-0.25 -0.296875 -0.640625 -0.46875q-0.375 -0.1875 -0.90625 -0.1875zm8.206116 3.1875l-3.203125 -4.71875l2.265625 0q0.25 0 0.375 0.078125q0.125 0.0625 0.21875 0.234375l2.046875 3.25q0.046875 -0.15625 0.109375 -0.3125q0.078125 -0.171875 0.1875 -0.328125l1.640625 -2.5625q0.109375 -0.1875 0.234375 -0.265625q0.125 -0.09375 0.3125 -0.09375l2.15625 0l-3.21875 4.625l3.34375 5.125l-2.265625 0q-0.25 0 -0.40625 -0.125q-0.15625 -0.140625 -0.265625 -0.3125l-2.0625 -3.390625q-0.09375 0.34375 -0.25 0.5625l-1.8125 2.828125q-0.109375 0.15625 -0.265625 0.296875q-0.140625 0.140625 -0.375 0.140625l-2.09375 0l3.328125 -5.03125zm15.534424 -4.875q1.078125 0 1.96875 0.359375q0.890625 0.34375 1.515625 1.0q0.625 0.640625 0.96875 1.578125q0.34375 0.921875 0.34375 2.078125q0 1.15625 -0.34375 2.09375q-0.34375 0.921875 -0.96875 1.578125q-0.625 0.65625 -1.515625 1.015625q-0.890625 0.34375 -1.96875 0.34375q-1.09375 0 -2.0 -0.34375q-0.890625 -0.359375 -1.53125 -1.015625q-0.625 -0.65625 -0.96875 -1.578125q-0.34375 -0.9375 -0.34375 -2.09375q0 -1.15625 0.34375 -2.078125q0.34375 -0.9375 0.96875 -1.578125q0.640625 -0.65625 1.53125 -1.0q0.90625 -0.359375 2.0 -0.359375zm0 8.25q1.203125 0 1.78125 -0.8125q0.59375 -0.828125 0.59375 -2.40625q0 -1.578125 -0.59375 -2.40625q-0.578125 -0.828125 -1.78125 -0.828125q-1.234375 0 -1.828125 0.84375q-0.59375 0.828125 -0.59375 2.390625q0 1.5625 0.59375 2.390625q0.59375 0.828125 1.828125 0.828125zm6.856079 1.65625l0 -7.984375l-0.84375 -0.125q-0.28125 -0.046875 -0.453125 -0.1875q-0.15625 -0.15625 -0.15625 -0.40625l0 -0.953125l1.453125 0l0 -0.734375q0 -0.828125 0.25 -1.484375q0.25 -0.671875 0.71875 -1.140625q0.46875 -0.46875 1.140625 -0.703125q0.6875 -0.25 1.53125 -0.25q0.671875 0 1.25 0.171875l-0.046875 1.1875q-0.015625 0.265625 -0.265625 0.34375q-0.234375 0.0625 -0.546875 0.0625q-0.40625 0 -0.734375 0.09375q-0.328125 0.078125 -0.5625 0.3125q-0.21875 0.21875 -0.34375 0.59375q-0.125 0.359375 -0.125 0.890625l0 0.65625l2.546875 0l0 1.671875l-2.46875 0l0 7.984375l-2.34375 0zm14.405273 -13.890625q0.953125 0 1.71875 0.28125q0.765625 0.265625 1.296875 0.75q0.546875 0.46875 0.828125 1.125q0.296875 0.640625 0.296875 1.390625q0 0.65625 -0.15625 1.15625q-0.140625 0.5 -0.421875 0.875q-0.28125 0.359375 -0.6875 0.625q-0.390625 0.25 -0.90625 0.421875q1.234375 0.390625 1.84375 1.1875q0.609375 0.796875 0.609375 2.0q0 1.03125 -0.390625 1.828125q-0.375 0.78125 -1.03125 1.3125q-0.640625 0.53125 -1.484375 0.8125q-0.84375 0.28125 -1.796875 0.28125q-1.046875 0 -1.8125 -0.234375q-0.765625 -0.25 -1.34375 -0.703125q-0.5625 -0.46875 -0.96875 -1.140625q-0.390625 -0.6875 -0.671875 -1.5625l1.03125 -0.421875q0.265625 -0.125 0.546875 -0.125q0.234375 0 0.421875 0.109375q0.203125 0.109375 0.3125 0.296875q0.171875 0.34375 0.375 0.671875q0.203125 0.3125 0.484375 0.5625q0.296875 0.25 0.671875 0.40625q0.390625 0.15625 0.921875 0.15625q0.59375 0 1.03125 -0.1875q0.453125 -0.203125 0.75 -0.515625q0.3125 -0.3125 0.453125 -0.6875q0.15625 -0.390625 0.15625 -0.78125q0 -0.5 -0.109375 -0.890625q-0.109375 -0.40625 -0.4375 -0.6875q-0.328125 -0.296875 -0.953125 -0.453125q-0.625 -0.15625 -1.671875 -0.15625l0 -1.671875q0.859375 -0.015625 1.421875 -0.15625q0.578125 -0.15625 0.921875 -0.421875q0.34375 -0.28125 0.46875 -0.65625q0.140625 -0.390625 0.140625 -0.84375q0 -0.984375 -0.546875 -1.46875q-0.53125 -0.5 -1.453125 -0.5q-0.828125 0 -1.390625 0.4375q-0.546875 0.4375 -0.765625 1.125q-0.109375 0.375 -0.3125 0.53125q-0.1875 0.15625 -0.515625 0.15625q-0.15625 0 -0.328125 -0.03125l-1.234375 -0.21875q0.140625 -0.984375 0.546875 -1.734375q0.421875 -0.75 1.03125 -1.25q0.609375 -0.5 1.40625 -0.75q0.796875 -0.25 1.703125 -0.25zm14.273804 1.15625q0 0.5 -0.3125 0.8125q-0.3125 0.3125 -1.0625 0.3125l-3.78125 0l-0.484375 2.875q0.921875 -0.203125 1.6875 -0.203125q1.09375 0 1.90625 0.328125q0.828125 0.328125 1.390625 0.90625q0.5625 0.5625 0.84375 1.328125q0.28125 0.765625 0.28125 1.640625q0 1.09375 -0.390625 2.0q-0.375 0.90625 -1.0625 1.546875q-0.6875 0.640625 -1.625 1.0q-0.921875 0.34375 -2.03125 0.34375q-0.640625 0 -1.234375 -0.140625q-0.578125 -0.125 -1.09375 -0.34375q-0.5 -0.234375 -0.9375 -0.515625q-0.421875 -0.296875 -0.765625 -0.625l0.71875 -0.984375q0.234375 -0.328125 0.609375 -0.328125q0.25 0 0.484375 0.15625q0.25 0.140625 0.5625 0.328125q0.328125 0.171875 0.75 0.328125q0.4375 0.15625 1.046875 0.15625q0.640625 0 1.125 -0.203125q0.5 -0.21875 0.828125 -0.59375q0.328125 -0.375 0.484375 -0.890625q0.171875 -0.515625 0.171875 -1.125q0 -1.125 -0.65625 -1.75q-0.640625 -0.640625 -1.90625 -0.640625q-1.0 0 -2.0 0.359375l-1.46875 -0.40625l1.140625 -6.671875l6.78125 0l0 1.0z" fill-rule="nonzero"></path><path fill="#cc0000" d="m729.2362 446.7848l44.031494 -41.84253l44.031494 41.84253l-44.031494 41.8425z" fill-rule="evenodd"></path><path stroke="#000000" stroke-width="1.0" stroke-linejoin="round" stroke-linecap="butt" d="m729.2362 446.7848l44.031494 -41.84253l44.031494 41.84253l-44.031494 41.8425z" fill-rule="evenodd"></path><path fill="#ffffff" d="m772.49585 435.75476q2.4375 0 4.15625 0.859375q1.734375 0.859375 2.609375 2.328125q0.890625 1.453125 0.890625 3.171875q0 1.828125 -0.84375 3.53125q-0.828125 1.6875 -2.734375 3.796875q-1.890625 2.09375 -5.390625 5.1875l9.46875 0l-0.53125 3.875l-14.71875 0l0 -3.578125q3.921875 -3.8125 5.875 -5.9375q1.953125 -2.125 2.828125 -3.609375q0.890625 -1.5 0.890625 -2.8125q0 -1.375 -0.765625 -2.140625q-0.765625 -0.765625 -2.203125 -0.765625q-1.25 0 -2.1875 0.53125q-0.921875 0.515625 -1.8125 1.703125l-3.078125 -2.328125q1.3125 -1.828125 3.140625 -2.8125q1.84375 -1.0 4.40625 -1.0z" fill-rule="nonzero"></path></g></svg>

