<?xml version="1.0" standalone="yes"?>

<svg version="1.1" viewBox="0.0 0.0 1302.1286089238845 879.8923884514436" fill="none" stroke="none" stroke-linecap="square" stroke-miterlimit="10" xmlns="http://www.w3.org/2000/svg" xmlns:xlink="http://www.w3.org/1999/xlink"><clipPath id="p.0"><path d="m0 0l1302.1287 0l0 879.8924l-1302.1287 0l0 -879.8924z" clip-rule="nonzero"></path></clipPath><g clip-path="url(#p.0)"><path fill="#000000" fill-opacity="0.0" d="m0 0l1302.1287 0l0 879.8924l-1302.1287 0z" fill-rule="evenodd"></path><path fill="#000000" fill-opacity="0.0" d="m218.24934 233.47034l0 0c0 -14.426376 11.694885 -26.121262 26.121262 -26.121262l1027.5685 0c6.9278564 0 13.571899 2.75206 18.470581 7.6507416c4.8986816 4.898697 7.650757 11.54274 7.650757 18.47052l0 104.4819c0 14.426361 -11.694946 26.121246 -26.121338 26.121246l-1027.5685 0c-14.426376 0 -26.121262 -11.694885 -26.121262 -26.121246z" fill-rule="evenodd"></path><path stroke="#000000" stroke-width="1.0" stroke-linejoin="round" stroke-linecap="butt" d="m218.24934 233.47034l0 0c0 -14.426376 11.694885 -26.121262 26.121262 -26.121262l1027.5685 0c6.9278564 0 13.571899 2.75206 18.470581 7.6507416c4.8986816 4.898697 7.650757 11.54274 7.650757 18.47052l0 104.4819c0 14.426361 -11.694946 26.121246 -26.121338 26.121246l-1027.5685 0c-14.426376 0 -26.121262 -11.694885 -26.121262 -26.121246z" fill-rule="evenodd"></path><path fill="#efefef" d="m244.14961 239.83727l194.45668 0l0 91.74803l-194.45668 0z" fill-rule="evenodd"></path><path stroke="#000000" stroke-width="1.0" stroke-linejoin="round" stroke-linecap="butt" d="m244.14961 239.83727l194.45668 0l0 91.74803l-194.45668 0z" fill-rule="evenodd"></path><path fill="#000000" d="m315.66724 276.8919q0.21875 0 0.359375 0.03125q0.15625 0.015625 0.265625 0.078125q0.109375 0.046875 0.21875 0.15625q0.109375 0.09375 0.25 0.25l9.09375 11.609375q-0.046875 -0.421875 -0.0625 -0.8125q-0.015625 -0.40625 -0.015625 -0.75l0 -10.5625l2.84375 0l0 17.359375l-1.671875 0q-0.375 0 -0.625 -0.109375q-0.25 -0.125 -0.5 -0.4375l-9.0625 -11.5625q0.03125 0.390625 0.046875 0.765625q0.015625 0.375 0.015625 0.6875l0 10.65625l-2.84375 0l0 -17.359375l1.6875 0l0 0zm21.550385 4.859375q1.375 0 2.5 0.453125q1.125 0.4375 1.90625 1.25q0.796875 0.8125 1.21875 2.0q0.4375 1.171875 0.4375 2.609375q0 1.46875 -0.4375 2.65625q-0.421875 1.171875 -1.21875 2.0q-0.78125 0.828125 -1.90625 1.28125q-1.125 0.4375 -2.5 0.4375q-1.390625 0 -2.515625 -0.4375q-1.125 -0.453125 -1.921875 -1.28125q-0.796875 -0.828125 -1.234375 -2.0q-0.4375 -1.1875 -0.4375 -2.65625q0 -1.4375 0.4375 -2.609375q0.4375 -1.1875 1.234375 -2.0q0.796875 -0.8125 1.921875 -1.25q1.125 -0.453125 2.515625 -0.453125zm0 10.40625q1.53125 0 2.265625 -1.03125q0.75 -1.03125 0.75 -3.03125q0 -1.984375 -0.75 -3.03125q-0.734375 -1.046875 -2.265625 -1.046875q-1.5625 0 -2.3125 1.046875q-0.734375 1.046875 -0.734375 3.03125q0 1.984375 0.734375 3.03125q0.75 1.03125 2.3125 1.03125zm17.050354 2.09375q-0.578125 0 -0.765625 -0.546875l-0.234375 -1.1875q-0.375 0.4375 -0.796875 0.796875q-0.421875 0.34375 -0.90625 0.59375q-0.484375 0.25 -1.046875 0.390625q-0.5625 0.140625 -1.203125 0.140625q-1.015625 0 -1.859375 -0.421875q-0.828125 -0.421875 -1.4375 -1.21875q-0.609375 -0.796875 -0.9375 -1.96875q-0.328125 -1.1875 -0.328125 -2.703125q0 -1.359375 0.359375 -2.53125q0.375 -1.1875 1.078125 -2.046875q0.703125 -0.859375 1.671875 -1.34375q0.96875 -0.5 2.1875 -0.5q1.03125 0 1.75 0.34375q0.734375 0.328125 1.3125 0.875l0 -6.5l2.96875 0l0 17.828125l-1.8125 0zm-3.953125 -2.171875q0.921875 0 1.5625 -0.375q0.65625 -0.390625 1.234375 -1.09375l0 -5.53125q-0.5 -0.609375 -1.09375 -0.859375q-0.59375 -0.25 -1.28125 -0.25q-0.671875 0 -1.21875 0.25q-0.546875 0.25 -0.921875 0.765625q-0.375 0.5 -0.578125 1.296875q-0.203125 0.78125 -0.203125 1.84375q0 1.078125 0.171875 1.828125q0.171875 0.75 0.484375 1.234375q0.328125 0.46875 0.796875 0.6875q0.46875 0.203125 1.046875 0.203125zm14.055084 -10.328125q1.171875 0 2.140625 0.375q0.984375 0.359375 1.6875 1.078125q0.703125 0.71875 1.09375 1.765625q0.40625 1.03125 0.40625 2.359375q0 0.328125 -0.03125 0.5625q-0.03125 0.21875 -0.109375 0.34375q-0.078125 0.125 -0.21875 0.1875q-0.125 0.046875 -0.328125 0.046875l-7.609375 0q0.140625 1.890625 1.015625 2.78125q0.890625 0.890625 2.359375 0.890625q0.71875 0 1.234375 -0.171875q0.53125 -0.171875 0.921875 -0.375q0.390625 -0.203125 0.6875 -0.359375q0.296875 -0.171875 0.5625 -0.171875q0.1875 0 0.3125 0.078125q0.140625 0.0625 0.234375 0.1875l0.859375 1.078125q-0.484375 0.578125 -1.109375 0.96875q-0.609375 0.390625 -1.28125 0.625q-0.65625 0.234375 -1.34375 0.328125q-0.6875 0.109375 -1.34375 0.109375q-1.28125 0 -2.390625 -0.421875q-1.09375 -0.4375 -1.921875 -1.265625q-0.8125 -0.84375 -1.28125 -2.0625q-0.46875 -1.234375 -0.46875 -2.859375q0 -1.265625 0.40625 -2.375q0.421875 -1.109375 1.171875 -1.921875q0.765625 -0.828125 1.859375 -1.296875q1.109375 -0.484375 2.484375 -0.484375zm0.0625 2.125q-1.296875 0 -2.03125 0.734375q-0.734375 0.71875 -0.9375 2.0625l5.578125 0q0 -0.5625 -0.15625 -1.078125q-0.15625 -0.515625 -0.484375 -0.890625q-0.328125 -0.390625 -0.828125 -0.609375q-0.484375 -0.21875 -1.140625 -0.21875z" fill-rule="nonzero"></path><path fill="#efefef" d="m660.9275 239.83727l194.45673 0l0 91.74803l-194.45673 0z" fill-rule="evenodd"></path><path stroke="#000000" stroke-width="1.0" stroke-linejoin="round" stroke-linecap="butt" d="m660.9275 239.83727l194.45673 0l0 91.74803l-194.45673 0z" fill-rule="evenodd"></path><path fill="#000000" d="m732.4451 276.8919q0.21875 0 0.359375 0.03125q0.15625 0.015625 0.265625 0.078125q0.109375 0.046875 0.21875 0.15625q0.109375 0.09375 0.25 0.25l9.09375 11.609375q-0.046875 -0.421875 -0.0625 -0.8125q-0.015625 -0.40625 -0.015625 -0.75l0 -10.5625l2.84375 0l0 17.359375l-1.671875 0q-0.375 0 -0.625 -0.109375q-0.25 -0.125 -0.5 -0.4375l-9.0625 -11.5625q0.03125 0.390625 0.046875 0.765625q0.015625 0.375 0.015625 0.6875l0 10.65625l-2.84375 0l0 -17.359375l1.6875 0l0 0zm21.550415 4.859375q1.375 0 2.5 0.453125q1.125 0.4375 1.90625 1.25q0.796875 0.8125 1.21875 2.0q0.4375 1.171875 0.4375 2.609375q0 1.46875 -0.4375 2.65625q-0.421875 1.171875 -1.21875 2.0q-0.78125 0.828125 -1.90625 1.28125q-1.125 0.4375 -2.5 0.4375q-1.390625 0 -2.515625 -0.4375q-1.125 -0.453125 -1.921875 -1.28125q-0.796875 -0.828125 -1.234375 -2.0q-0.4375 -1.1875 -0.4375 -2.65625q0 -1.4375 0.4375 -2.609375q0.4375 -1.1875 1.234375 -2.0q0.796875 -0.8125 1.921875 -1.25q1.125 -0.453125 2.515625 -0.453125zm0 10.40625q1.53125 0 2.265625 -1.03125q0.75 -1.03125 0.75 -3.03125q0 -1.984375 -0.75 -3.03125q-0.734375 -1.046875 -2.265625 -1.046875q-1.5625 0 -2.3125 1.046875q-0.734375 1.046875 -0.734375 3.03125q0 1.984375 0.734375 3.03125q0.75 1.03125 2.3125 1.03125zm17.050354 2.09375q-0.578125 0 -0.765625 -0.546875l-0.234375 -1.1875q-0.375 0.4375 -0.796875 0.796875q-0.421875 0.34375 -0.90625 0.59375q-0.484375 0.25 -1.046875 0.390625q-0.5625 0.140625 -1.203125 0.140625q-1.015625 0 -1.859375 -0.421875q-0.828125 -0.421875 -1.4375 -1.21875q-0.609375 -0.796875 -0.9375 -1.96875q-0.328125 -1.1875 -0.328125 -2.703125q0 -1.359375 0.359375 -2.53125q0.375 -1.1875 1.078125 -2.046875q0.703125 -0.859375 1.671875 -1.34375q0.96875 -0.5 2.1875 -0.5q1.03125 0 1.75 0.34375q0.734375 0.328125 1.3125 0.875l0 -6.5l2.96875 0l0 17.828125l-1.8125 0zm-3.953125 -2.171875q0.921875 0 1.5625 -0.375q0.65625 -0.390625 1.234375 -1.09375l0 -5.53125q-0.5 -0.609375 -1.09375 -0.859375q-0.59375 -0.25 -1.28125 -0.25q-0.671875 0 -1.21875 0.25q-0.546875 0.25 -0.921875 0.765625q-0.375 0.5 -0.578125 1.296875q-0.203125 0.78125 -0.203125 1.84375q0 1.078125 0.171875 1.828125q0.171875 0.75 0.484375 1.234375q0.328125 0.46875 0.796875 0.6875q0.46875 0.203125 1.046875 0.203125zm14.055054 -10.328125q1.171875 0 2.140625 0.375q0.984375 0.359375 1.6875 1.078125q0.703125 0.71875 1.09375 1.765625q0.40625 1.03125 0.40625 2.359375q0 0.328125 -0.03125 0.5625q-0.03125 0.21875 -0.109375 0.34375q-0.078125 0.125 -0.21875 0.1875q-0.125 0.046875 -0.328125 0.046875l-7.609375 0q0.140625 1.890625 1.015625 2.78125q0.890625 0.890625 2.359375 0.890625q0.71875 0 1.234375 -0.171875q0.53125 -0.171875 0.921875 -0.375q0.390625 -0.203125 0.6875 -0.359375q0.296875 -0.171875 0.5625 -0.171875q0.1875 0 0.3125 0.078125q0.140625 0.0625 0.234375 0.1875l0.859375 1.078125q-0.484375 0.578125 -1.109375 0.96875q-0.609375 0.390625 -1.28125 0.625q-0.65625 0.234375 -1.34375 0.328125q-0.6875 0.109375 -1.34375 0.109375q-1.28125 0 -2.390625 -0.421875q-1.09375 -0.4375 -1.921875 -1.265625q-0.8125 -0.84375 -1.28125 -2.0625q-0.46875 -1.234375 -0.46875 -2.859375q0 -1.265625 0.40625 -2.375q0.421875 -1.109375 1.171875 -1.921875q0.765625 -0.828125 1.859375 -1.296875q1.109375 -0.484375 2.484375 -0.484375zm0.0625 2.125q-1.296875 0 -2.03125 0.734375q-0.734375 0.71875 -0.9375 2.0625l5.578125 0q0 -0.5625 -0.15625 -1.078125q-0.15625 -0.515625 -0.484375 -0.890625q-0.328125 -0.390625 -0.828125 -0.609375q-0.484375 -0.21875 -1.140625 -0.21875z" fill-rule="nonzero"></path><path fill="#efefef" d="m869.3157 239.83727l194.45667 0l0 91.74803l-194.45667 0z" fill-rule="evenodd"></path><path stroke="#000000" stroke-width="1.0" stroke-linejoin="round" stroke-linecap="butt" d="m869.3157 239.83727l194.45667 0l0 91.74803l-194.45667 0z" fill-rule="evenodd"></path><path fill="#000000" d="m940.8333 276.8919q0.21875 0 0.359375 0.03125q0.15625 0.015625 0.265625 0.078125q0.109375 0.046875 0.21875 0.15625q0.109375 0.09375 0.25 0.25l9.09375 11.609375q-0.046875 -0.421875 -0.0625 -0.8125q-0.015625 -0.40625 -0.015625 -0.75l0 -10.5625l2.84375 0l0 17.359375l-1.671875 0q-0.375 0 -0.625 -0.109375q-0.25 -0.125 -0.5 -0.4375l-9.0625 -11.5625q0.03125 0.390625 0.046875 0.765625q0.015625 0.375 0.015625 0.6875l0 10.65625l-2.84375 0l0 -17.359375l1.6875 0l0 0zm21.550354 4.859375q1.375 0 2.5 0.453125q1.125 0.4375 1.90625 1.25q0.796875 0.8125 1.21875 2.0q0.4375 1.171875 0.4375 2.609375q0 1.46875 -0.4375 2.65625q-0.421875 1.171875 -1.21875 2.0q-0.78125 0.828125 -1.90625 1.28125q-1.125 0.4375 -2.5 0.4375q-1.390625 0 -2.515625 -0.4375q-1.125 -0.453125 -1.921875 -1.28125q-0.796875 -0.828125 -1.234375 -2.0q-0.4375 -1.1875 -0.4375 -2.65625q0 -1.4375 0.4375 -2.609375q0.4375 -1.1875 1.234375 -2.0q0.796875 -0.8125 1.921875 -1.25q1.125 -0.453125 2.515625 -0.453125zm0 10.40625q1.53125 0 2.265625 -1.03125q0.75 -1.03125 0.75 -3.03125q0 -1.984375 -0.75 -3.03125q-0.734375 -1.046875 -2.265625 -1.046875q-1.5625 0 -2.3125 1.046875q-0.734375 1.046875 -0.734375 3.03125q0 1.984375 0.734375 3.03125q0.75 1.03125 2.3125 1.03125zm17.050354 2.09375q-0.578125 0 -0.765625 -0.546875l-0.234375 -1.1875q-0.375 0.4375 -0.796875 0.796875q-0.421875 0.34375 -0.90625 0.59375q-0.484375 0.25 -1.046875 0.390625q-0.5625 0.140625 -1.203125 0.140625q-1.015625 0 -1.859375 -0.421875q-0.828125 -0.421875 -1.4375 -1.21875q-0.609375 -0.796875 -0.9375 -1.96875q-0.328125 -1.1875 -0.328125 -2.703125q0 -1.359375 0.359375 -2.53125q0.375 -1.1875 1.078125 -2.046875q0.703125 -0.859375 1.671875 -1.34375q0.96875 -0.5 2.1875 -0.5q1.03125 0 1.75 0.34375q0.734375 0.328125 1.3125 0.875l0 -6.5l2.96875 0l0 17.828125l-1.8125 0zm-3.953125 -2.171875q0.921875 0 1.5625 -0.375q0.65625 -0.390625 1.234375 -1.09375l0 -5.53125q-0.5 -0.609375 -1.09375 -0.859375q-0.59375 -0.25 -1.28125 -0.25q-0.671875 0 -1.21875 0.25q-0.546875 0.25 -0.921875 0.765625q-0.375 0.5 -0.578125 1.296875q-0.203125 0.78125 -0.203125 1.84375q0 1.078125 0.171875 1.828125q0.171875 0.75 0.484375 1.234375q0.328125 0.46875 0.796875 0.6875q0.46875 0.203125 1.046875 0.203125zm14.055115 -10.328125q1.171875 0 2.140625 0.375q0.984375 0.359375 1.6875 1.078125q0.703125 0.71875 1.09375 1.765625q0.40625 1.03125 0.40625 2.359375q0 0.328125 -0.03125 0.5625q-0.03125 0.21875 -0.109375 0.34375q-0.078125 0.125 -0.21875 0.1875q-0.125 0.046875 -0.328125 0.046875l-7.609375 0q0.140625 1.890625 1.015625 2.78125q0.890625 0.890625 2.359375 0.890625q0.71875 0 1.234375 -0.171875q0.53125 -0.171875 0.921875 -0.375q0.390625 -0.203125 0.6875 -0.359375q0.296875 -0.171875 0.5625 -0.171875q0.1875 0 0.3125 0.078125q0.140625 0.0625 0.234375 0.1875l0.859375 1.078125q-0.484375 0.578125 -1.109375 0.96875q-0.609375 0.390625 -1.28125 0.625q-0.65625 0.234375 -1.34375 0.328125q-0.6875 0.109375 -1.34375 0.109375q-1.28125 0 -2.390625 -0.421875q-1.09375 -0.4375 -1.921875 -1.265625q-0.8125 -0.84375 -1.28125 -2.0625q-0.46875 -1.234375 -0.46875 -2.859375q0 -1.265625 0.40625 -2.375q0.421875 -1.109375 1.171875 -1.921875q0.765625 -0.828125 1.859375 -1.296875q1.109375 -0.484375 2.484375 -0.484375zm0.0625 2.125q-1.296875 0 -2.03125 0.734375q-0.734375 0.71875 -0.9375 2.0625l5.578125 0q0 -0.5625 -0.15625 -1.078125q-0.15625 -0.515625 -0.484375 -0.890625q-0.328125 -0.390625 -0.828125 -0.609375q-0.484375 -0.21875 -1.140625 -0.21875z" fill-rule="nonzero"></path><path fill="#efefef" d="m1077.7037 239.83727l194.45679 0l0 91.74803l-194.45679 0z" fill-rule="evenodd"></path><path stroke="#000000" stroke-width="1.0" stroke-linejoin="round" stroke-linecap="butt" d="m1077.7037 239.83727l194.45679 0l0 91.74803l-194.45679 0z" fill-rule="evenodd"></path><path fill="#000000" d="m1149.2214 276.8919q0.21875 0 0.359375 0.03125q0.15625 0.015625 0.265625 0.078125q0.109375 0.046875 0.21875 0.15625q0.109375 0.09375 0.25 0.25l9.09375 11.609375q-0.046875 -0.421875 -0.0625 -0.8125q-0.015625 -0.40625 -0.015625 -0.75l0 -10.5625l2.84375 0l0 17.359375l-1.671875 0q-0.375 0 -0.625 -0.109375q-0.25 -0.125 -0.5 -0.4375l-9.0625 -11.5625q0.03125 0.390625 0.046875 0.765625q0.015625 0.375 0.015625 0.6875l0 10.65625l-2.84375 0l0 -17.359375l1.6875 0l0 0zm21.550415 4.859375q1.375 0 2.5 0.453125q1.125 0.4375 1.90625 1.25q0.796875 0.8125 1.21875 2.0q0.4375 1.171875 0.4375 2.609375q0 1.46875 -0.4375 2.65625q-0.421875 1.171875 -1.21875 2.0q-0.78125 0.828125 -1.90625 1.28125q-1.125 0.4375 -2.5 0.4375q-1.390625 0 -2.515625 -0.4375q-1.125 -0.453125 -1.921875 -1.28125q-0.796875 -0.828125 -1.234375 -2.0q-0.4375 -1.1875 -0.4375 -2.65625q0 -1.4375 0.4375 -2.609375q0.4375 -1.1875 1.234375 -2.0q0.796875 -0.8125 1.921875 -1.25q1.125 -0.453125 2.515625 -0.453125zm0 10.40625q1.53125 0 2.265625 -1.03125q0.75 -1.03125 0.75 -3.03125q0 -1.984375 -0.75 -3.03125q-0.734375 -1.046875 -2.265625 -1.046875q-1.5625 0 -2.3125 1.046875q-0.734375 1.046875 -0.734375 3.03125q0 1.984375 0.734375 3.03125q0.75 1.03125 2.3125 1.03125zm17.050293 2.09375q-0.578125 0 -0.765625 -0.546875l-0.234375 -1.1875q-0.375 0.4375 -0.796875 0.796875q-0.421875 0.34375 -0.90625 0.59375q-0.484375 0.25 -1.046875 0.390625q-0.5625 0.140625 -1.203125 0.140625q-1.015625 0 -1.859375 -0.421875q-0.828125 -0.421875 -1.4375 -1.21875q-0.609375 -0.796875 -0.9375 -1.96875q-0.328125 -1.1875 -0.328125 -2.703125q0 -1.359375 0.359375 -2.53125q0.375 -1.1875 1.078125 -2.046875q0.703125 -0.859375 1.671875 -1.34375q0.96875 -0.5 2.1875 -0.5q1.03125 0 1.75 0.34375q0.734375 0.328125 1.3125 0.875l0 -6.5l2.96875 0l0 17.828125l-1.8125 0zm-3.953125 -2.171875q0.921875 0 1.5625 -0.375q0.65625 -0.390625 1.234375 -1.09375l0 -5.53125q-0.5 -0.609375 -1.09375 -0.859375q-0.59375 -0.25 -1.28125 -0.25q-0.671875 0 -1.21875 0.25q-0.546875 0.25 -0.921875 0.765625q-0.375 0.5 -0.578125 1.296875q-0.203125 0.78125 -0.203125 1.84375q0 1.078125 0.171875 1.828125q0.171875 0.75 0.484375 1.234375q0.328125 0.46875 0.796875 0.6875q0.46875 0.203125 1.046875 0.203125zm14.055054 -10.328125q1.171875 0 2.140625 0.375q0.984375 0.359375 1.6875 1.078125q0.703125 0.71875 1.09375 1.765625q0.40625 1.03125 0.40625 2.359375q0 0.328125 -0.03125 0.5625q-0.03125 0.21875 -0.109375 0.34375q-0.078125 0.125 -0.21875 0.1875q-0.125 0.046875 -0.328125 0.046875l-7.609375 0q0.140625 1.890625 1.015625 2.78125q0.890625 0.890625 2.359375 0.890625q0.71875 0 1.234375 -0.171875q0.53125 -0.171875 0.921875 -0.375q0.390625 -0.203125 0.6875 -0.359375q0.296875 -0.171875 0.5625 -0.171875q0.1875 0 0.3125 0.078125q0.140625 0.0625 0.234375 0.1875l0.859375 1.078125q-0.484375 0.578125 -1.109375 0.96875q-0.609375 0.390625 -1.28125 0.625q-0.65625 0.234375 -1.34375 0.328125q-0.6875 0.109375 -1.34375 0.109375q-1.28125 0 -2.390625 -0.421875q-1.09375 -0.4375 -1.921875 -1.265625q-0.8125 -0.84375 -1.28125 -2.0625q-0.46875 -1.234375 -0.46875 -2.859375q0 -1.265625 0.40625 -2.375q0.421875 -1.109375 1.171875 -1.921875q0.765625 -0.828125 1.859375 -1.296875q1.109375 -0.484375 2.484375 -0.484375zm0.0625 2.125q-1.296875 0 -2.03125 0.734375q-0.734375 0.71875 -0.9375 2.0625l5.578125 0q0 -0.5625 -0.15625 -1.078125q-0.15625 -0.515625 -0.484375 -0.890625q-0.328125 -0.390625 -0.828125 -0.609375q-0.484375 -0.21875 -1.140625 -0.21875z" fill-rule="nonzero"></path><path fill="#efefef" d="m452.5368 239.83727l194.45673 0l0 91.74803l-194.45673 0z" fill-rule="evenodd"></path><path stroke="#000000" stroke-width="1.0" stroke-linejoin="round" stroke-linecap="butt" d="m452.5368 239.83727l194.45673 0l0 91.74803l-194.45673 0z" fill-rule="evenodd"></path><path fill="#000000" d="m524.05444 276.8919q0.21875 0 0.359375 0.03125q0.15625 0.015625 0.265625 0.078125q0.109375 0.046875 0.21875 0.15625q0.109375 0.09375 0.25 0.25l9.09375 11.609375q-0.046875 -0.421875 -0.0625 -0.8125q-0.015625 -0.40625 -0.015625 -0.75l0 -10.5625l2.84375 0l0 17.359375l-1.671875 0q-0.375 0 -0.625 -0.109375q-0.25 -0.125 -0.5 -0.4375l-9.0625 -11.5625q0.03125 0.390625 0.046875 0.765625q0.015625 0.375 0.015625 0.6875l0 10.65625l-2.84375 0l0 -17.359375l1.6875 0l0 0zm21.550415 4.859375q1.375 0 2.5 0.453125q1.125 0.4375 1.90625 1.25q0.796875 0.8125 1.21875 2.0q0.4375 1.171875 0.4375 2.609375q0 1.46875 -0.4375 2.65625q-0.421875 1.171875 -1.21875 2.0q-0.78125 0.828125 -1.90625 1.28125q-1.125 0.4375 -2.5 0.4375q-1.390625 0 -2.515625 -0.4375q-1.125 -0.453125 -1.921875 -1.28125q-0.796875 -0.828125 -1.234375 -2.0q-0.4375 -1.1875 -0.4375 -2.65625q0 -1.4375 0.4375 -2.609375q0.4375 -1.1875 1.234375 -2.0q0.796875 -0.8125 1.921875 -1.25q1.125 -0.453125 2.515625 -0.453125zm0 10.40625q1.53125 0 2.265625 -1.03125q0.75 -1.03125 0.75 -3.03125q0 -1.984375 -0.75 -3.03125q-0.734375 -1.046875 -2.265625 -1.046875q-1.5625 0 -2.3125 1.046875q-0.734375 1.046875 -0.734375 3.03125q0 1.984375 0.734375 3.03125q0.75 1.03125 2.3125 1.03125zm17.050293 2.09375q-0.578125 0 -0.765625 -0.546875l-0.234375 -1.1875q-0.375 0.4375 -0.796875 0.796875q-0.421875 0.34375 -0.90625 0.59375q-0.484375 0.25 -1.046875 0.390625q-0.5625 0.140625 -1.203125 0.140625q-1.015625 0 -1.859375 -0.421875q-0.828125 -0.421875 -1.4375 -1.21875q-0.609375 -0.796875 -0.9375 -1.96875q-0.328125 -1.1875 -0.328125 -2.703125q0 -1.359375 0.359375 -2.53125q0.375 -1.1875 1.078125 -2.046875q0.703125 -0.859375 1.671875 -1.34375q0.96875 -0.5 2.1875 -0.5q1.03125 0 1.75 0.34375q0.734375 0.328125 1.3125 0.875l0 -6.5l2.96875 0l0 17.828125l-1.8125 0zm-3.953125 -2.171875q0.921875 0 1.5625 -0.375q0.65625 -0.390625 1.234375 -1.09375l0 -5.53125q-0.5 -0.609375 -1.09375 -0.859375q-0.59375 -0.25 -1.28125 -0.25q-0.671875 0 -1.21875 0.25q-0.546875 0.25 -0.921875 0.765625q-0.375 0.5 -0.578125 1.296875q-0.203125 0.78125 -0.203125 1.84375q0 1.078125 0.171875 1.828125q0.171875 0.75 0.484375 1.234375q0.328125 0.46875 0.796875 0.6875q0.46875 0.203125 1.046875 0.203125zm14.055115 -10.328125q1.171875 0 2.140625 0.375q0.984375 0.359375 1.6875 1.078125q0.703125 0.71875 1.09375 1.765625q0.40625 1.03125 0.40625 2.359375q0 0.328125 -0.03125 0.5625q-0.03125 0.21875 -0.109375 0.34375q-0.078125 0.125 -0.21875 0.1875q-0.125 0.046875 -0.328125 0.046875l-7.609375 0q0.140625 1.890625 1.015625 2.78125q0.890625 0.890625 2.359375 0.890625q0.71875 0 1.234375 -0.171875q0.53125 -0.171875 0.921875 -0.375q0.390625 -0.203125 0.6875 -0.359375q0.296875 -0.171875 0.5625 -0.171875q0.1875 0 0.3125 0.078125q0.140625 0.0625 0.234375 0.1875l0.859375 1.078125q-0.484375 0.578125 -1.109375 0.96875q-0.609375 0.390625 -1.28125 0.625q-0.65625 0.234375 -1.34375 0.328125q-0.6875 0.109375 -1.34375 0.109375q-1.28125 0 -2.390625 -0.421875q-1.09375 -0.4375 -1.921875 -1.265625q-0.8125 -0.84375 -1.28125 -2.0625q-0.46875 -1.234375 -0.46875 -2.859375q0 -1.265625 0.40625 -2.375q0.421875 -1.109375 1.171875 -1.921875q0.765625 -0.828125 1.859375 -1.296875q1.109375 -0.484375 2.484375 -0.484375zm0.0625 2.125q-1.296875 0 -2.03125 0.734375q-0.734375 0.71875 -0.9375 2.0625l5.578125 0q0 -0.5625 -0.15625 -1.078125q-0.15625 -0.515625 -0.484375 -0.890625q-0.328125 -0.390625 -0.828125 -0.609375q-0.484375 -0.21875 -1.140625 -0.21875z" fill-rule="nonzero"></path><path fill="#efefef" d="m661.6208 8.9868765l194.45673 0l0 91.74803l-194.45673 0z" fill-rule="evenodd"></path><path stroke="#000000" stroke-width="1.0" stroke-linejoin="round" stroke-linecap="butt" d="m661.6208 8.9868765l194.45673 0l0 91.74803l-194.45673 0z" fill-rule="evenodd"></path><path fill="#000000" d="m733.1384 46.04152q0.21875 0 0.359375 0.03125q0.15625 0.015625 0.265625 0.078125q0.109375 0.046875 0.21875 0.15625q0.109375 0.09375 0.25 0.25l9.09375 11.609375q-0.046875 -0.421875 -0.0625 -0.8125q-0.015625 -0.40625 -0.015625 -0.75l0 -10.5625l2.84375 0l0 17.359375l-1.671875 0q-0.375 0 -0.625 -0.109375q-0.25 -0.125 -0.5 -0.4375l-9.0625 -11.5625q0.03125 0.390625 0.046875 0.765625q0.015625 0.375 0.015625 0.6875l0 10.65625l-2.84375 0l0 -17.359375l1.6875 0l0 0zm21.550415 4.859375q1.375 0 2.5 0.453125q1.125 0.4375 1.90625 1.25q0.796875 0.8125 1.21875 2.0q0.4375 1.171875 0.4375 2.609375q0 1.46875 -0.4375 2.65625q-0.421875 1.171875 -1.21875 2.0q-0.78125 0.828125 -1.90625 1.28125q-1.125 0.4375 -2.5 0.4375q-1.390625 0 -2.515625 -0.4375q-1.125 -0.453125 -1.921875 -1.28125q-0.796875 -0.828125 -1.234375 -2.0q-0.4375 -1.1875 -0.4375 -2.65625q0 -1.4375 0.4375 -2.609375q0.4375 -1.1875 1.234375 -2.0q0.796875 -0.8125 1.921875 -1.25q1.125 -0.453125 2.515625 -0.453125zm0 10.40625q1.53125 0 2.265625 -1.03125q0.75 -1.03125 0.75 -3.03125q0 -1.984375 -0.75 -3.03125q-0.734375 -1.046875 -2.265625 -1.046875q-1.5625 0 -2.3125 1.046875q-0.734375 1.046875 -0.734375 3.03125q0 1.984375 0.734375 3.03125q0.75 1.03125 2.3125 1.03125zm17.050354 2.09375q-0.578125 0 -0.765625 -0.546875l-0.234375 -1.1875q-0.375 0.4375 -0.796875 0.796875q-0.421875 0.34375 -0.90625 0.59375q-0.484375 0.25 -1.046875 0.390625q-0.5625 0.140625 -1.203125 0.140625q-1.015625 0 -1.859375 -0.421875q-0.828125 -0.421875 -1.4375 -1.21875q-0.609375 -0.796875 -0.9375 -1.96875q-0.328125 -1.1875 -0.328125 -2.703125q0 -1.359375 0.359375 -2.53125q0.375 -1.1875 1.078125 -2.046875q0.703125 -0.859375 1.671875 -1.34375q0.96875 -0.5 2.1875 -0.5q1.03125 0 1.75 0.34375q0.734375 0.328125 1.3125 0.875l0 -6.5l2.96875 0l0 17.828125l-1.8125 0zm-3.953125 -2.171875q0.921875 0 1.5625 -0.375q0.65625 -0.390625 1.234375 -1.09375l0 -5.53125q-0.5 -0.609375 -1.09375 -0.859375q-0.59375 -0.25 -1.28125 -0.25q-0.671875 0 -1.21875 0.25q-0.546875 0.25 -0.921875 0.765625q-0.375 0.5 -0.578125 1.296875q-0.203125 0.78125 -0.203125 1.84375q0 1.078125 0.171875 1.828125q0.171875 0.75 0.484375 1.234375q0.328125 0.46875 0.796875 0.6875q0.46875 0.203125 1.046875 0.203125zm14.055054 -10.328125q1.171875 0 2.140625 0.375q0.984375 0.359375 1.6875 1.078125q0.703125 0.71875 1.09375 1.765625q0.40625 1.03125 0.40625 2.359375q0 0.328125 -0.03125 0.5625q-0.03125 0.21875 -0.109375 0.34375q-0.078125 0.125 -0.21875 0.1875q-0.125 0.046875 -0.328125 0.046875l-7.609375 0q0.140625 1.890625 1.015625 2.78125q0.890625 0.890625 2.359375 0.890625q0.71875 0 1.234375 -0.171875q0.53125 -0.171875 0.921875 -0.375q0.390625 -0.203125 0.6875 -0.359375q0.296875 -0.171875 0.5625 -0.171875q0.1875 0 0.3125 0.078125q0.140625 0.0625 0.234375 0.1875l0.859375 1.078125q-0.484375 0.578125 -1.109375 0.96875q-0.609375 0.390625 -1.28125 0.625q-0.65625 0.234375 -1.34375 0.328125q-0.6875 0.109375 -1.34375 0.109375q-1.28125 0 -2.390625 -0.421875q-1.09375 -0.4375 -1.921875 -1.265625q-0.8125 -0.84375 -1.28125 -2.0625q-0.46875 -1.234375 -0.46875 -2.859375q0 -1.265625 0.40625 -2.375q0.421875 -1.109375 1.171875 -1.921875q0.765625 -0.828125 1.859375 -1.296875q1.109375 -0.484375 2.484375 -0.484375zm0.0625 2.125q-1.296875 0 -2.03125 0.734375q-0.734375 0.71875 -0.9375 2.0625l5.578125 0q0 -0.5625 -0.15625 -1.078125q-0.15625 -0.515625 -0.484375 -0.890625q-0.328125 -0.390625 -0.828125 -0.609375q-0.484375 -0.21875 -1.140625 -0.21875z" fill-rule="nonzero"></path><path fill="#000000" fill-opacity="0.0" d="m758.8492 100.73491l-0.6929321 106.61417" fill-rule="evenodd"></path><path stroke="#9900ff" stroke-width="3.0" stroke-linejoin="round" stroke-linecap="butt" d="m758.8492 100.73491l-0.57598877 88.61456" fill-rule="evenodd"></path><path fill="#9900ff" stroke="#9900ff" stroke-width="3.0" stroke-linecap="butt" d="m753.3181 189.31726l4.866638 13.64621l5.043579 -13.581802z" fill-rule="evenodd"></path><path fill="#ffffff" d="m711.68506 136.50131l94.33069 0l0 23.086609l-94.33069 0z" fill-rule="evenodd"></path><path fill="#000000" d="m728.83154 151.5465q0.4375 0 0.84375 -0.171875q0.421875 -0.171875 0.890625 -0.5l1.03125 1.46875q-0.5625 0.46875 -1.296875 0.75q-0.734375 0.28125 -1.59375 0.28125q-1.25 0 -2.15625 -0.515625q-0.890625 -0.515625 -1.375 -1.4375q-0.484375 -0.921875 -0.484375 -2.140625q0 -1.21875 0.5 -2.171875q0.5 -0.953125 1.40625 -1.484375q0.921875 -0.546875 2.15625 -0.546875q0.859375 0 1.546875 0.25q0.6875 0.234375 1.296875 0.734375l-1.0 1.390625q-0.859375 -0.59375 -1.75 -0.59375q-1.75 0 -1.75 2.421875q0 1.21875 0.453125 1.75q0.46875 0.515625 1.28125 0.515625zm6.981262 -5.421875q0.984375 -1.046875 2.28125 -1.046875q1.03125 0 1.578125 0.609375q0.5625 0.609375 0.5625 1.71875l0 5.71875l-2.3125 0l0 -5.078125q0 -0.703125 -0.171875 -0.96875q-0.15625 -0.28125 -0.578125 -0.28125q-0.34375 0 -0.6875 0.25q-0.328125 0.234375 -0.671875 0.703125l0 5.375l-2.3125 0l0 -10.875l2.3125 -0.234375l0 4.109375zm9.825012 -4.859375q0.609375 0 0.984375 0.375q0.390625 0.375 0.390625 0.9375q0 0.5625 -0.390625 0.9375q-0.375 0.359375 -0.984375 0.359375q-0.59375 0 -0.984375 -0.375q-0.390625 -0.375 -0.390625 -0.921875q0 -0.5625 0.390625 -0.9375q0.390625 -0.375 0.984375 -0.375zm1.40625 10.28125l1.984375 0l0 1.578125l-6.5 0l0 -1.578125l2.1875 0l0 -4.625l-2.125 0l0 -1.578125l4.453125 0l0 6.203125zm8.090698 -0.875q0 0.875 1.0 0.875q0.546875 0 1.125 -0.234375l0.53125 1.546875q-0.9375 0.515625 -2.234375 0.515625q-1.359375 0 -2.046875 -0.78125q-0.6875 -0.78125 -0.6875 -2.203125l0 -6.5625l-2.28125 0l0 -1.578125l4.59375 0l0 8.421875zm11.481262 -8.421875l0 10.875l-2.046875 0l-0.125 -0.84375q-0.34375 0.484375 -0.890625 0.796875q-0.546875 0.296875 -1.265625 0.296875q-1.40625 0 -2.125 -1.109375q-0.71875 -1.125 -0.71875 -3.046875q0 -1.203125 0.375 -2.140625q0.375 -0.9375 1.078125 -1.46875q0.703125 -0.53125 1.640625 -0.53125q1.0625 0 1.765625 0.734375l0 -3.8125l2.3125 0.25zm-3.453125 4.53125q-0.640625 0 -1.0 0.59375q-0.34375 0.59375 -0.34375 1.84375q0 1.359375 0.3125 1.90625q0.328125 0.546875 0.890625 0.546875q0.734375 0 1.28125 -0.890625l0 -3.359375q-0.25 -0.328125 -0.53125 -0.484375q-0.265625 -0.15625 -0.609375 -0.15625zm11.450012 -1.671875q0.703125 0 1.28125 0.234375l-0.421875 3.25l-1.46875 0l0 -1.4375q-0.640625 0.125 -1.140625 0.71875q-0.5 0.578125 -0.78125 1.46875l0 2.234375l1.546875 0l0 1.546875l-4.890625 0l0 -1.546875l1.03125 0l0 -4.703125l-1.03125 0l0 -1.53125l2.8125 0l0.40625 1.75q0.421875 -1.0 1.0625 -1.484375q0.65625 -0.5 1.59375 -0.5zm4.856262 4.8125q0.21875 1.765625 1.875 1.765625q1.0 0 2.0 -0.640625l0.921875 1.25q-0.578125 0.5 -1.375 0.796875q-0.78125 0.28125 -1.734375 0.28125q-1.296875 0 -2.21875 -0.515625q-0.90625 -0.53125 -1.375 -1.453125q-0.453125 -0.9375 -0.453125 -2.171875q0 -1.171875 0.4375 -2.109375q0.453125 -0.953125 1.3125 -1.5q0.859375 -0.546875 2.046875 -0.546875q1.109375 0 1.921875 0.484375q0.828125 0.46875 1.28125 1.375q0.453125 0.890625 0.453125 2.140625q0 0.484375 -0.046875 0.84375l-5.046875 0zm1.4375 -3.296875q-0.625 0 -1.015625 0.46875q-0.375 0.46875 -0.453125 1.421875l2.859375 0q-0.03125 -1.890625 -1.390625 -1.890625zm5.3563232 -1.28125l2.015625 0l0.15625 0.890625q0.53125 -0.578125 1.109375 -0.859375q0.578125 -0.296875 1.3125 -0.296875q1.015625 0 1.578125 0.625q0.5625 0.609375 0.5625 1.703125l0 5.71875l-2.3125 0l0 -5.046875q0 -0.734375 -0.171875 -1.0q-0.15625 -0.28125 -0.578125 -0.28125q-0.34375 0 -0.6875 0.234375q-0.328125 0.21875 -0.671875 0.65625l0 5.4375l-2.3125 0l0 -7.78125z" fill-rule="nonzero"></path><path fill="#000000" fill-opacity="0.0" d="m14.900263 485.9008l0 0c0 -14.426361 11.694885 -26.121246 26.121256 -26.121246l407.50552 0c6.9277954 0 13.571838 2.7520447 18.47052 7.6507263c4.8986816 4.8986816 7.6507263 11.542725 7.6507263 18.47052l0 104.4819c0 14.426392 -11.694885 26.121277 -26.121246 26.121277l-407.50552 0c-14.426371 0 -26.121256 -11.694885 -26.121256 -26.121277z" fill-rule="evenodd"></path><path stroke="#000000" stroke-width="1.0" stroke-linejoin="round" stroke-linecap="butt" d="m14.900263 485.9008l0 0c0 -14.426361 11.694885 -26.121246 26.121256 -26.121246l407.50552 0c6.9277954 0 13.571838 2.7520447 18.47052 7.6507263c4.8986816 4.8986816 7.6507263 11.542725 7.6507263 18.47052l0 104.4819c0 14.426392 -11.694885 26.121277 -26.121246 26.121277l-407.50552 0c-14.426371 0 -26.121256 -11.694885 -26.121256 -26.121277z" fill-rule="evenodd"></path><path fill="#efefef" d="m40.800526 492.26773l194.4567 0l0 91.74802l-194.4567 0z" fill-rule="evenodd"></path><path stroke="#000000" stroke-width="1.0" stroke-linejoin="round" stroke-linecap="butt" d="m40.800526 492.26773l194.4567 0l0 91.74802l-194.4567 0z" fill-rule="evenodd"></path><path fill="#000000" d="m112.31816 529.3224q0.21875 0 0.359375 0.03125q0.15625 0.015625 0.265625 0.078125q0.109375 0.046875 0.21875 0.15625q0.109375 0.09375 0.25 0.25l9.09375 11.609375q-0.046875 -0.421875 -0.0625 -0.8125q-0.015625 -0.40625 -0.015625 -0.75l0 -10.5625l2.84375 0l0 17.359375l-1.671875 0q-0.375 0 -0.625 -0.109375q-0.25 -0.125 -0.5 -0.4375l-9.0625 -11.5625q0.03125 0.390625 0.046875 0.765625q0.015625 0.375 0.015625 0.6875l0 10.65625l-2.84375 0l0 -17.359375l1.6875 0l0 0zm21.550385 4.859375q1.375 0 2.5 0.453125q1.125 0.4375 1.90625 1.25q0.796875 0.8125 1.21875 2.0q0.4375 1.171875 0.4375 2.609375q0 1.46875 -0.4375 2.65625q-0.421875 1.171875 -1.21875 2.0q-0.78125 0.828125 -1.90625 1.28125q-1.125 0.4375 -2.5 0.4375q-1.390625 0 -2.515625 -0.4375q-1.125 -0.453125 -1.921875 -1.28125q-0.796875 -0.828125 -1.234375 -2.0q-0.4375 -1.1875 -0.4375 -2.65625q0 -1.4375 0.4375 -2.609375q0.4375 -1.1875 1.234375 -2.0q0.796875 -0.8125 1.921875 -1.25q1.125 -0.453125 2.515625 -0.453125zm0 10.40625q1.53125 0 2.265625 -1.03125q0.75 -1.03125 0.75 -3.03125q0 -1.984375 -0.75 -3.03125q-0.734375 -1.046875 -2.265625 -1.046875q-1.5625 0 -2.3125 1.046875q-0.734375 1.046875 -0.734375 3.03125q0 1.984375 0.734375 3.03125q0.75 1.03125 2.3125 1.03125zm17.050339 2.09375q-0.578125 0 -0.765625 -0.546875l-0.234375 -1.1875q-0.375 0.4375 -0.796875 0.796875q-0.421875 0.34375 -0.90625 0.59375q-0.484375 0.25 -1.046875 0.390625q-0.5625 0.140625 -1.203125 0.140625q-1.015625 0 -1.859375 -0.421875q-0.828125 -0.421875 -1.4375 -1.21875q-0.609375 -0.796875 -0.9375 -1.96875q-0.328125 -1.1875 -0.328125 -2.703125q0 -1.359375 0.359375 -2.53125q0.375 -1.1875 1.078125 -2.046875q0.703125 -0.859375 1.671875 -1.34375q0.96875 -0.5 2.1875 -0.5q1.03125 0 1.75 0.34375q0.734375 0.328125 1.3125 0.875l0 -6.5l2.96875 0l0 17.828125l-1.8125 0zm-3.953125 -2.171875q0.921875 0 1.5625 -0.375q0.65625 -0.390625 1.234375 -1.09375l0 -5.53125q-0.5 -0.609375 -1.09375 -0.859375q-0.59375 -0.25 -1.28125 -0.25q-0.671875 0 -1.21875 0.25q-0.546875 0.25 -0.921875 0.765625q-0.375 0.5 -0.578125 1.296875q-0.203125 0.78125 -0.203125 1.84375q0 1.078125 0.171875 1.828125q0.171875 0.75 0.484375 1.234375q0.328125 0.46875 0.796875 0.6875q0.46875 0.203125 1.046875 0.203125zm14.0550995 -10.328125q1.171875 0 2.140625 0.375q0.984375 0.359375 1.6875 1.078125q0.703125 0.71875 1.09375 1.765625q0.40625 1.03125 0.40625 2.359375q0 0.328125 -0.03125 0.5625q-0.03125 0.21875 -0.109375 0.34375q-0.078125 0.125 -0.21875 0.1875q-0.125 0.046875 -0.328125 0.046875l-7.609375 0q0.140625 1.890625 1.015625 2.78125q0.890625 0.890625 2.359375 0.890625q0.71875 0 1.234375 -0.171875q0.53125 -0.171875 0.921875 -0.375q0.390625 -0.203125 0.6875 -0.359375q0.296875 -0.171875 0.5625 -0.171875q0.1875 0 0.3125 0.078125q0.140625 0.0625 0.234375 0.1875l0.859375 1.078125q-0.484375 0.578125 -1.109375 0.96875q-0.609375 0.390625 -1.28125 0.625q-0.65625 0.234375 -1.34375 0.328125q-0.6875 0.109375 -1.34375 0.109375q-1.28125 0 -2.390625 -0.421875q-1.09375 -0.4375 -1.921875 -1.265625q-0.8125 -0.84375 -1.28125 -2.0625q-0.46875 -1.234375 -0.46875 -2.859375q0 -1.265625 0.40625 -2.375q0.421875 -1.109375 1.171875 -1.921875q0.765625 -0.828125 1.859375 -1.296875q1.109375 -0.484375 2.484375 -0.484375zm0.0625 2.125q-1.296875 0 -2.03125 0.734375q-0.734375 0.71875 -0.9375 2.0625l5.578125 0q0 -0.5625 -0.15625 -1.078125q-0.15625 -0.515625 -0.484375 -0.890625q-0.328125 -0.390625 -0.828125 -0.609375q-0.484375 -0.21875 -1.140625 -0.21875z" fill-rule="nonzero"></path><path fill="#efefef" d="m249.18774 492.26773l194.4567 0l0 91.74802l-194.4567 0z" fill-rule="evenodd"></path><path stroke="#000000" stroke-width="1.0" stroke-linejoin="round" stroke-linecap="butt" d="m249.18774 492.26773l194.4567 0l0 91.74802l-194.4567 0z" fill-rule="evenodd"></path><path fill="#000000" d="m320.70538 529.3224q0.21875 0 0.359375 0.03125q0.15625 0.015625 0.265625 0.078125q0.109375 0.046875 0.21875 0.15625q0.109375 0.09375 0.25 0.25l9.09375 11.609375q-0.046875 -0.421875 -0.0625 -0.8125q-0.015625 -0.40625 -0.015625 -0.75l0 -10.5625l2.84375 0l0 17.359375l-1.671875 0q-0.375 0 -0.625 -0.109375q-0.25 -0.125 -0.5 -0.4375l-9.0625 -11.5625q0.03125 0.390625 0.046875 0.765625q0.015625 0.375 0.015625 0.6875l0 10.65625l-2.84375 0l0 -17.359375l1.6875 0l0 0zm21.550385 4.859375q1.375 0 2.5 0.453125q1.125 0.4375 1.90625 1.25q0.796875 0.8125 1.21875 2.0q0.4375 1.171875 0.4375 2.609375q0 1.46875 -0.4375 2.65625q-0.421875 1.171875 -1.21875 2.0q-0.78125 0.828125 -1.90625 1.28125q-1.125 0.4375 -2.5 0.4375q-1.390625 0 -2.515625 -0.4375q-1.125 -0.453125 -1.921875 -1.28125q-0.796875 -0.828125 -1.234375 -2.0q-0.4375 -1.1875 -0.4375 -2.65625q0 -1.4375 0.4375 -2.609375q0.4375 -1.1875 1.234375 -2.0q0.796875 -0.8125 1.921875 -1.25q1.125 -0.453125 2.515625 -0.453125zm0 10.40625q1.53125 0 2.265625 -1.03125q0.75 -1.03125 0.75 -3.03125q0 -1.984375 -0.75 -3.03125q-0.734375 -1.046875 -2.265625 -1.046875q-1.5625 0 -2.3125 1.046875q-0.734375 1.046875 -0.734375 3.03125q0 1.984375 0.734375 3.03125q0.75 1.03125 2.3125 1.03125zm17.050323 2.09375q-0.578125 0 -0.765625 -0.546875l-0.234375 -1.1875q-0.375 0.4375 -0.796875 0.796875q-0.421875 0.34375 -0.90625 0.59375q-0.484375 0.25 -1.046875 0.390625q-0.5625 0.140625 -1.203125 0.140625q-1.015625 0 -1.859375 -0.421875q-0.828125 -0.421875 -1.4375 -1.21875q-0.609375 -0.796875 -0.9375 -1.96875q-0.328125 -1.1875 -0.328125 -2.703125q0 -1.359375 0.359375 -2.53125q0.375 -1.1875 1.078125 -2.046875q0.703125 -0.859375 1.671875 -1.34375q0.96875 -0.5 2.1875 -0.5q1.03125 0 1.75 0.34375q0.734375 0.328125 1.3125 0.875l0 -6.5l2.96875 0l0 17.828125l-1.8125 0zm-3.953125 -2.171875q0.921875 0 1.5625 -0.375q0.65625 -0.390625 1.234375 -1.09375l0 -5.53125q-0.5 -0.609375 -1.09375 -0.859375q-0.59375 -0.25 -1.28125 -0.25q-0.671875 0 -1.21875 0.25q-0.546875 0.25 -0.921875 0.765625q-0.375 0.5 -0.578125 1.296875q-0.203125 0.78125 -0.203125 1.84375q0 1.078125 0.171875 1.828125q0.171875 0.75 0.484375 1.234375q0.328125 0.46875 0.796875 0.6875q0.46875 0.203125 1.046875 0.203125zm14.055115 -10.328125q1.171875 0 2.140625 0.375q0.984375 0.359375 1.6875 1.078125q0.703125 0.71875 1.09375 1.765625q0.40625 1.03125 0.40625 2.359375q0 0.328125 -0.03125 0.5625q-0.03125 0.21875 -0.109375 0.34375q-0.078125 0.125 -0.21875 0.1875q-0.125 0.046875 -0.328125 0.046875l-7.609375 0q0.140625 1.890625 1.015625 2.78125q0.890625 0.890625 2.359375 0.890625q0.71875 0 1.234375 -0.171875q0.53125 -0.171875 0.921875 -0.375q0.390625 -0.203125 0.6875 -0.359375q0.296875 -0.171875 0.5625 -0.171875q0.1875 0 0.3125 0.078125q0.140625 0.0625 0.234375 0.1875l0.859375 1.078125q-0.484375 0.578125 -1.109375 0.96875q-0.609375 0.390625 -1.28125 0.625q-0.65625 0.234375 -1.34375 0.328125q-0.6875 0.109375 -1.34375 0.109375q-1.28125 0 -2.390625 -0.421875q-1.09375 -0.4375 -1.921875 -1.265625q-0.8125 -0.84375 -1.28125 -2.0625q-0.46875 -1.234375 -0.46875 -2.859375q0 -1.265625 0.40625 -2.375q0.421875 -1.109375 1.171875 -1.921875q0.765625 -0.828125 1.859375 -1.296875q1.109375 -0.484375 2.484375 -0.484375zm0.0625 2.125q-1.296875 0 -2.03125 0.734375q-0.734375 0.71875 -0.9375 2.0625l5.578125 0q0 -0.5625 -0.15625 -1.078125q-0.15625 -0.515625 -0.484375 -0.890625q-0.328125 -0.390625 -0.828125 -0.609375q-0.484375 -0.21875 -1.140625 -0.21875z" fill-rule="nonzero"></path><path fill="#000000" fill-opacity="0.0" d="m341.37796 331.5853l-96.598434 128.189" fill-rule="evenodd"></path><path stroke="#9900ff" stroke-width="3.0" stroke-linejoin="round" stroke-linecap="butt" d="m341.37796 331.5853l-85.7657 113.8136" fill-rule="evenodd"></path><path fill="#9900ff" stroke="#9900ff" stroke-width="3.0" stroke-linecap="butt" d="m251.65489 442.41678l-4.235962 13.854919l12.150742 -7.8906555z" fill-rule="evenodd"></path><path fill="#ffffff" d="m244.77953 390.6286l94.3307 0l0 23.086609l-94.3307 0z" fill-rule="evenodd"></path><path fill="#000000" d="m261.92603 405.6738q0.4375 0 0.84375 -0.171875q0.421875 -0.171875 0.890625 -0.5l1.03125 1.46875q-0.5625 0.46875 -1.296875 0.75q-0.734375 0.28125 -1.59375 0.28125q-1.25 0 -2.15625 -0.515625q-0.890625 -0.515625 -1.375 -1.4375q-0.484375 -0.921875 -0.484375 -2.140625q0 -1.21875 0.5 -2.171875q0.5 -0.953125 1.40625 -1.484375q0.921875 -0.546875 2.15625 -0.546875q0.859375 0 1.546875 0.25q0.6875 0.234375 1.296875 0.734375l-1.0 1.390625q-0.859375 -0.59375 -1.75 -0.59375q-1.75 0 -1.75 2.421875q0 1.21875 0.453125 1.75q0.46875 0.515625 1.28125 0.515625zm6.981262 -5.421875q0.984375 -1.046875 2.28125 -1.046875q1.03125 0 1.578125 0.609375q0.5625 0.609375 0.5625 1.71875l0 5.71875l-2.3125 0l0 -5.078125q0 -0.703125 -0.171875 -0.96875q-0.15625 -0.28125 -0.578125 -0.28125q-0.34375 0 -0.6875 0.25q-0.328125 0.234375 -0.671875 0.703125l0 5.375l-2.3125 0l0 -10.875l2.3125 -0.234375l0 4.109375zm9.825043 -4.859375q0.609375 0 0.984375 0.375q0.390625 0.375 0.390625 0.9375q0 0.5625 -0.390625 0.9375q-0.375 0.359375 -0.984375 0.359375q-0.59375 0 -0.984375 -0.375q-0.390625 -0.375 -0.390625 -0.921875q0 -0.5625 0.390625 -0.9375q0.390625 -0.375 0.984375 -0.375zm1.40625 10.28125l1.984375 0l0 1.578125l-6.5 0l0 -1.578125l2.1875 0l0 -4.625l-2.125 0l0 -1.578125l4.453125 0l0 6.203125zm8.090637 -0.875q0 0.875 1.0 0.875q0.546875 0 1.125 -0.234375l0.53125 1.546875q-0.9375 0.515625 -2.234375 0.515625q-1.359375 0 -2.046875 -0.78125q-0.6875 -0.78125 -0.6875 -2.203125l0 -6.5625l-2.28125 0l0 -1.578125l4.59375 0l0 8.421875zm11.481293 -8.421875l0 10.875l-2.046875 0l-0.125 -0.84375q-0.34375 0.484375 -0.890625 0.796875q-0.546875 0.296875 -1.265625 0.296875q-1.40625 0 -2.125 -1.109375q-0.71875 -1.125 -0.71875 -3.046875q0 -1.203125 0.375 -2.140625q0.375 -0.9375 1.078125 -1.46875q0.703125 -0.53125 1.640625 -0.53125q1.0625 0 1.765625 0.734375l0 -3.8125l2.3125 0.25zm-3.453125 4.53125q-0.640625 0 -1.0 0.59375q-0.34375 0.59375 -0.34375 1.84375q0 1.359375 0.3125 1.90625q0.328125 0.546875 0.890625 0.546875q0.734375 0 1.28125 -0.890625l0 -3.359375q-0.25 -0.328125 -0.53125 -0.484375q-0.265625 -0.15625 -0.609375 -0.15625zm11.450012 -1.671875q0.703125 0 1.2812805 0.234375l-0.42190552 3.25l-1.46875 0l0 -1.4375q-0.640625 0.125 -1.140625 0.71875q-0.5 0.578125 -0.78125 1.46875l0 2.234375l1.546875 0l0 1.546875l-4.890625 0l0 -1.546875l1.03125 0l0 -4.703125l-1.03125 0l0 -1.53125l2.8125 0l0.40625 1.75q0.421875 -1.0 1.0625 -1.484375q0.65625 -0.5 1.59375 -0.5zm4.8562927 4.8125q0.21875 1.765625 1.875 1.765625q1.0 0 2.0 -0.640625l0.921875 1.25q-0.578125 0.5 -1.375 0.796875q-0.78125 0.28125 -1.734375 0.28125q-1.296875 0 -2.21875 -0.515625q-0.90625 -0.53125 -1.375 -1.453125q-0.453125 -0.9375 -0.453125 -2.171875q0 -1.171875 0.4375 -2.109375q0.453125 -0.953125 1.3125 -1.5q0.859375 -0.546875 2.046875 -0.546875q1.109375 0 1.921875 0.484375q0.828125 0.46875 1.28125 1.375q0.453125 0.890625 0.453125 2.140625q0 0.484375 -0.046875 0.84375l-5.046875 0zm1.4375 -3.296875q-0.625 0 -1.015625 0.46875q-0.375 0.46875 -0.453125 1.421875l2.859375 0q-0.03125 -1.890625 -1.390625 -1.890625zm5.3562927 -1.28125l2.015625 0l0.15625 0.890625q0.53125 -0.578125 1.109375 -0.859375q0.578125 -0.296875 1.3125 -0.296875q1.015625 0 1.578125 0.625q0.5625 0.609375 0.5625 1.703125l0 5.71875l-2.3125 0l0 -5.046875q0 -0.734375 -0.171875 -1.0q-0.15625 -0.28125 -0.578125 -0.28125q-0.34375 0 -0.6875 0.234375q-0.328125 0.21875 -0.671875 0.65625l0 5.4375l-2.3125 0l0 -7.78125z" fill-rule="nonzero"></path><path fill="#000000" fill-opacity="0.0" d="m509.81104 485.9008l0 0c0 -14.426361 11.694885 -26.121246 26.121216 -26.121246l196.10394 0c6.9277954 0 13.571838 2.7520447 18.47052 7.6507263c4.8987427 4.8986816 7.650757 11.542725 7.650757 18.47052l0 104.4819c0 14.426392 -11.694885 26.121277 -26.121277 26.121277l-196.10394 0c-14.426331 0 -26.121216 -11.694885 -26.121216 -26.121277z" fill-rule="evenodd"></path><path stroke="#000000" stroke-width="1.0" stroke-linejoin="round" stroke-linecap="butt" d="m509.81104 485.9008l0 0c0 -14.426361 11.694885 -26.121246 26.121216 -26.121246l196.10394 0c6.9277954 0 13.571838 2.7520447 18.47052 7.6507263c4.8987427 4.8986816 7.650757 11.542725 7.650757 18.47052l0 104.4819c0 14.426392 -11.694885 26.121277 -26.121277 26.121277l-196.10394 0c-14.426331 0 -26.121216 -11.694885 -26.121216 -26.121277z" fill-rule="evenodd"></path><path fill="#efefef" d="m535.7113 492.26773l194.45667 0l0 91.74802l-194.45667 0z" fill-rule="evenodd"></path><path stroke="#000000" stroke-width="1.0" stroke-linejoin="round" stroke-linecap="butt" d="m535.7113 492.26773l194.45667 0l0 91.74802l-194.45667 0z" fill-rule="evenodd"></path><path fill="#000000" d="m607.22894 529.3224q0.21875 0 0.359375 0.03125q0.15625 0.015625 0.265625 0.078125q0.109375 0.046875 0.21875 0.15625q0.109375 0.09375 0.25 0.25l9.09375 11.609375q-0.046875 -0.421875 -0.0625 -0.8125q-0.015625 -0.40625 -0.015625 -0.75l0 -10.5625l2.84375 0l0 17.359375l-1.671875 0q-0.375 0 -0.625 -0.109375q-0.25 -0.125 -0.5 -0.4375l-9.0625 -11.5625q0.03125 0.390625 0.046875 0.765625q0.015625 0.375 0.015625 0.6875l0 10.65625l-2.84375 0l0 -17.359375l1.6875 0l0 0zm21.550354 4.859375q1.375 0 2.5 0.453125q1.125 0.4375 1.90625 1.25q0.796875 0.8125 1.21875 2.0q0.4375 1.171875 0.4375 2.609375q0 1.46875 -0.4375 2.65625q-0.421875 1.171875 -1.21875 2.0q-0.78125 0.828125 -1.90625 1.28125q-1.125 0.4375 -2.5 0.4375q-1.390625 0 -2.515625 -0.4375q-1.125 -0.453125 -1.921875 -1.28125q-0.796875 -0.828125 -1.234375 -2.0q-0.4375 -1.1875 -0.4375 -2.65625q0 -1.4375 0.4375 -2.609375q0.4375 -1.1875 1.234375 -2.0q0.796875 -0.8125 1.921875 -1.25q1.125 -0.453125 2.515625 -0.453125zm0 10.40625q1.53125 0 2.265625 -1.03125q0.75 -1.03125 0.75 -3.03125q0 -1.984375 -0.75 -3.03125q-0.734375 -1.046875 -2.265625 -1.046875q-1.5625 0 -2.3125 1.046875q-0.734375 1.046875 -0.734375 3.03125q0 1.984375 0.734375 3.03125q0.75 1.03125 2.3125 1.03125zm17.050354 2.09375q-0.578125 0 -0.765625 -0.546875l-0.234375 -1.1875q-0.375 0.4375 -0.796875 0.796875q-0.421875 0.34375 -0.90625 0.59375q-0.484375 0.25 -1.046875 0.390625q-0.5625 0.140625 -1.203125 0.140625q-1.015625 0 -1.859375 -0.421875q-0.828125 -0.421875 -1.4375 -1.21875q-0.609375 -0.796875 -0.9375 -1.96875q-0.328125 -1.1875 -0.328125 -2.703125q0 -1.359375 0.359375 -2.53125q0.375 -1.1875 1.078125 -2.046875q0.703125 -0.859375 1.671875 -1.34375q0.96875 -0.5 2.1875 -0.5q1.03125 0 1.75 0.34375q0.734375 0.328125 1.3125 0.875l0 -6.5l2.96875 0l0 17.828125l-1.8125 0zm-3.953125 -2.171875q0.921875 0 1.5625 -0.375q0.65625 -0.390625 1.234375 -1.09375l0 -5.53125q-0.5 -0.609375 -1.09375 -0.859375q-0.59375 -0.25 -1.28125 -0.25q-0.671875 0 -1.21875 0.25q-0.546875 0.25 -0.921875 0.765625q-0.375 0.5 -0.578125 1.296875q-0.203125 0.78125 -0.203125 1.84375q0 1.078125 0.171875 1.828125q0.171875 0.75 0.484375 1.234375q0.328125 0.46875 0.796875 0.6875q0.46875 0.203125 1.046875 0.203125zm14.055115 -10.328125q1.171875 0 2.140625 0.375q0.984375 0.359375 1.6875 1.078125q0.703125 0.71875 1.09375 1.765625q0.40625 1.03125 0.40625 2.359375q0 0.328125 -0.03125 0.5625q-0.03125 0.21875 -0.109375 0.34375q-0.078125 0.125 -0.21875 0.1875q-0.125 0.046875 -0.328125 0.046875l-7.609375 0q0.140625 1.890625 1.015625 2.78125q0.890625 0.890625 2.359375 0.890625q0.71875 0 1.234375 -0.171875q0.53125 -0.171875 0.921875 -0.375q0.390625 -0.203125 0.6875 -0.359375q0.296875 -0.171875 0.5625 -0.171875q0.1875 0 0.3125 0.078125q0.140625 0.0625 0.234375 0.1875l0.859375 1.078125q-0.484375 0.578125 -1.109375 0.96875q-0.609375 0.390625 -1.28125 0.625q-0.65625 0.234375 -1.34375 0.328125q-0.6875 0.109375 -1.34375 0.109375q-1.28125 0 -2.390625 -0.421875q-1.09375 -0.4375 -1.921875 -1.265625q-0.8125 -0.84375 -1.28125 -2.0625q-0.46875 -1.234375 -0.46875 -2.859375q0 -1.265625 0.40625 -2.375q0.421875 -1.109375 1.171875 -1.921875q0.765625 -0.828125 1.859375 -1.296875q1.109375 -0.484375 2.484375 -0.484375zm0.0625 2.125q-1.296875 0 -2.03125 0.734375q-0.734375 0.71875 -0.9375 2.0625l5.578125 0q0 -0.5625 -0.15625 -1.078125q-0.15625 -0.515625 -0.484375 -0.890625q-0.328125 -0.390625 -0.828125 -0.609375q-0.484375 -0.21875 -1.140625 -0.21875z" fill-rule="nonzero"></path><path fill="#000000" fill-opacity="0.0" d="m549.76514 331.5853l84.22052 128.189" fill-rule="evenodd"></path><path stroke="#9900ff" stroke-width="3.0" stroke-linejoin="round" stroke-linecap="butt" d="m549.7652 331.5853l74.33673 113.145294" fill-rule="evenodd"></path><path fill="#9900ff" stroke="#9900ff" stroke-width="3.0" stroke-linecap="butt" d="m619.9606 447.45148l11.616882 8.65741l-3.3341675 -14.099152z" fill-rule="evenodd"></path><path fill="#ffffff" d="m534.58795 390.6286l94.33069 0l0 23.086609l-94.33069 0z" fill-rule="evenodd"></path><path fill="#000000" d="m551.73444 405.6738q0.4375 0 0.84375 -0.171875q0.421875 -0.171875 0.890625 -0.5l1.03125 1.46875q-0.5625 0.46875 -1.296875 0.75q-0.734375 0.28125 -1.59375 0.28125q-1.25 0 -2.15625 -0.515625q-0.890625 -0.515625 -1.375 -1.4375q-0.484375 -0.921875 -0.484375 -2.140625q0 -1.21875 0.5 -2.171875q0.5 -0.953125 1.40625 -1.484375q0.921875 -0.546875 2.15625 -0.546875q0.859375 0 1.546875 0.25q0.6875 0.234375 1.296875 0.734375l-1.0 1.390625q-0.859375 -0.59375 -1.75 -0.59375q-1.75 0 -1.75 2.421875q0 1.21875 0.453125 1.75q0.46875 0.515625 1.28125 0.515625zm6.981262 -5.421875q0.984375 -1.046875 2.28125 -1.046875q1.03125 0 1.578125 0.609375q0.5625 0.609375 0.5625 1.71875l0 5.71875l-2.3125 0l0 -5.078125q0 -0.703125 -0.171875 -0.96875q-0.15625 -0.28125 -0.578125 -0.28125q-0.34375 0 -0.6875 0.25q-0.328125 0.234375 -0.671875 0.703125l0 5.375l-2.3125 0l0 -10.875l2.3125 -0.234375l0 4.109375zm9.825012 -4.859375q0.609375 0 0.984375 0.375q0.390625 0.375 0.390625 0.9375q0 0.5625 -0.390625 0.9375q-0.375 0.359375 -0.984375 0.359375q-0.59375 0 -0.984375 -0.375q-0.390625 -0.375 -0.390625 -0.921875q0 -0.5625 0.390625 -0.9375q0.390625 -0.375 0.984375 -0.375zm1.40625 10.28125l1.984375 0l0 1.578125l-6.5 0l0 -1.578125l2.1875 0l0 -4.625l-2.125 0l0 -1.578125l4.453125 0l0 6.203125zm8.090698 -0.875q0 0.875 1.0 0.875q0.546875 0 1.125 -0.234375l0.53125 1.546875q-0.9375 0.515625 -2.234375 0.515625q-1.359375 0 -2.046875 -0.78125q-0.6875 -0.78125 -0.6875 -2.203125l0 -6.5625l-2.28125 0l0 -1.578125l4.59375 0l0 8.421875zm11.481262 -8.421875l0 10.875l-2.046875 0l-0.125 -0.84375q-0.34375 0.484375 -0.890625 0.796875q-0.546875 0.296875 -1.265625 0.296875q-1.40625 0 -2.125 -1.109375q-0.71875 -1.125 -0.71875 -3.046875q0 -1.203125 0.375 -2.140625q0.375 -0.9375 1.078125 -1.46875q0.703125 -0.53125 1.640625 -0.53125q1.0625 0 1.765625 0.734375l0 -3.8125l2.3125 0.25zm-3.453125 4.53125q-0.640625 0 -1.0 0.59375q-0.34375 0.59375 -0.34375 1.84375q0 1.359375 0.3125 1.90625q0.328125 0.546875 0.890625 0.546875q0.734375 0 1.28125 -0.890625l0 -3.359375q-0.25 -0.328125 -0.53125 -0.484375q-0.265625 -0.15625 -0.609375 -0.15625zm11.450012 -1.671875q0.703125 0 1.28125 0.234375l-0.421875 3.25l-1.46875 0l0 -1.4375q-0.640625 0.125 -1.140625 0.71875q-0.5 0.578125 -0.78125 1.46875l0 2.234375l1.546875 0l0 1.546875l-4.890625 0l0 -1.546875l1.03125 0l0 -4.703125l-1.03125 0l0 -1.53125l2.8125 0l0.40625 1.75q0.421875 -1.0 1.0625 -1.484375q0.65625 -0.5 1.59375 -0.5zm4.856262 4.8125q0.21875 1.765625 1.875 1.765625q1.0 0 2.0 -0.640625l0.921875 1.25q-0.578125 0.5 -1.375 0.796875q-0.78125 0.28125 -1.734375 0.28125q-1.296875 0 -2.21875 -0.515625q-0.90625 -0.53125 -1.375 -1.453125q-0.453125 -0.9375 -0.453125 -2.171875q0 -1.171875 0.4375 -2.109375q0.453125 -0.953125 1.3125 -1.5q0.859375 -0.546875 2.046875 -0.546875q1.109375 0 1.921875 0.484375q0.828125 0.46875 1.28125 1.375q0.453125 0.890625 0.453125 2.140625q0 0.484375 -0.046875 0.84375l-5.046875 0zm1.4375 -3.296875q-0.625 0 -1.015625 0.46875q-0.375 0.46875 -0.453125 1.421875l2.859375 0q-0.03125 -1.890625 -1.390625 -1.890625zm5.3563232 -1.28125l2.015625 0l0.15625 0.890625q0.53125 -0.578125 1.109375 -0.859375q0.578125 -0.296875 1.3125 -0.296875q1.015625 0 1.578125 0.625q0.5625 0.609375 0.5625 1.703125l0 5.71875l-2.3125 0l0 -5.046875q0 -0.734375 -0.171875 -1.0q-0.15625 -0.28125 -0.578125 -0.28125q-0.34375 0 -0.6875 0.234375q-0.328125 0.21875 -0.671875 0.65625l0 5.4375l-2.3125 0l0 -7.78125z" fill-rule="nonzero"></path><path fill="#000000" fill-opacity="0.0" d="m303.01837 740.1685l0 0c0 -14.426392 11.694885 -26.121277 26.121246 -26.121277l609.7102 0c6.9277954 0 13.571838 2.7520752 18.47052 7.650757c4.8986816 4.8986816 7.650757 11.542725 7.650757 18.47052l0 104.48187c0 14.426392 -11.694885 26.121277 -26.121277 26.121277l-609.7102 0c-14.426361 0 -26.121246 -11.694885 -26.121246 -26.121277z" fill-rule="evenodd"></path><path stroke="#000000" stroke-width="1.0" stroke-linejoin="round" stroke-linecap="butt" d="m303.01837 740.1685l0 0c0 -14.426392 11.694885 -26.121277 26.121246 -26.121277l609.7102 0c6.9277954 0 13.571838 2.7520752 18.47052 7.650757c4.8986816 4.8986816 7.650757 11.542725 7.650757 18.47052l0 104.48187c0 14.426392 -11.694885 26.121277 -26.121277 26.121277l-609.7102 0c-14.426361 0 -26.121246 -11.694885 -26.121246 -26.121277z" fill-rule="evenodd"></path><path fill="#efefef" d="m328.91864 746.53546l194.45667 0l0 91.747986l-194.45667 0z" fill-rule="evenodd"></path><path stroke="#000000" stroke-width="1.0" stroke-linejoin="round" stroke-linecap="butt" d="m328.91864 746.53546l194.45667 0l0 91.747986l-194.45667 0z" fill-rule="evenodd"></path><path fill="#000000" d="m400.43628 783.5901q0.21875 0 0.359375 0.03125q0.15625 0.015625 0.265625 0.078125q0.109375 0.046875 0.21875 0.15625q0.109375 0.09375 0.25 0.25l9.09375 11.609375q-0.046875 -0.421875 -0.0625 -0.8125q-0.015625 -0.40625 -0.015625 -0.75l0 -10.5625l2.84375 0l0 17.359375l-1.671875 0q-0.375 0 -0.625 -0.109375q-0.25 -0.125 -0.5 -0.4375l-9.0625 -11.5625q0.03125 0.390625 0.046875 0.765625q0.015625 0.375 0.015625 0.6875l0 10.65625l-2.84375 0l0 -17.359375l1.6875 0l0 0zm21.550385 4.859375q1.375 0 2.5 0.453125q1.125 0.4375 1.90625 1.25q0.796875 0.8125 1.21875 2.0q0.4375 1.171875 0.4375 2.609375q0 1.46875 -0.4375 2.65625q-0.421875 1.171875 -1.21875 2.0q-0.78125 0.828125 -1.90625 1.28125q-1.125 0.4375 -2.5 0.4375q-1.390625 0 -2.515625 -0.4375q-1.125 -0.453125 -1.921875 -1.28125q-0.796875 -0.828125 -1.234375 -2.0q-0.4375 -1.1875 -0.4375 -2.65625q0 -1.4375 0.4375 -2.609375q0.4375 -1.1875 1.234375 -2.0q0.796875 -0.8125 1.921875 -1.25q1.125 -0.453125 2.515625 -0.453125zm0 10.40625q1.53125 0 2.265625 -1.03125q0.75 -1.03125 0.75 -3.03125q0 -1.984375 -0.75 -3.03125q-0.734375 -1.046875 -2.265625 -1.046875q-1.5625 0 -2.3125 1.046875q-0.734375 1.046875 -0.734375 3.03125q0 1.984375 0.734375 3.03125q0.75 1.03125 2.3125 1.03125zm17.050323 2.09375q-0.578125 0 -0.765625 -0.546875l-0.234375 -1.1875q-0.375 0.4375 -0.796875 0.796875q-0.421875 0.34375 -0.90625 0.59375q-0.484375 0.25 -1.046875 0.390625q-0.5625 0.140625 -1.203125 0.140625q-1.015625 0 -1.859375 -0.421875q-0.828125 -0.421875 -1.4375 -1.21875q-0.609375 -0.796875 -0.9375 -1.96875q-0.328125 -1.1875 -0.328125 -2.703125q0 -1.359375 0.359375 -2.53125q0.375 -1.1875 1.078125 -2.046875q0.703125 -0.859375 1.671875 -1.34375q0.96875 -0.5 2.1875 -0.5q1.03125 0 1.75 0.34375q0.734375 0.328125 1.3125 0.875l0 -6.5l2.96875 0l0 17.828125l-1.8125 0zm-3.953125 -2.171875q0.921875 0 1.5625 -0.375q0.65625 -0.390625 1.234375 -1.09375l0 -5.53125q-0.5 -0.609375 -1.09375 -0.859375q-0.59375 -0.25 -1.28125 -0.25q-0.671875 0 -1.21875 0.25q-0.546875 0.25 -0.921875 0.765625q-0.375 0.5 -0.578125 1.296875q-0.203125 0.78125 -0.203125 1.84375q0 1.078125 0.171875 1.828125q0.171875 0.75 0.484375 1.234375q0.328125 0.46875 0.796875 0.6875q0.46875 0.203125 1.046875 0.203125zm14.055115 -10.328125q1.171875 0 2.140625 0.375q0.984375 0.359375 1.6875 1.078125q0.703125 0.71875 1.09375 1.765625q0.40625 1.03125 0.40625 2.359375q0 0.328125 -0.03125 0.5625q-0.03125 0.21875 -0.109375 0.34375q-0.078125 0.125 -0.21875 0.1875q-0.125 0.046875 -0.328125 0.046875l-7.609375 0q0.140625 1.890625 1.015625 2.78125q0.890625 0.890625 2.359375 0.890625q0.71875 0 1.234375 -0.171875q0.53125 -0.171875 0.921875 -0.375q0.390625 -0.203125 0.6875 -0.359375q0.296875 -0.171875 0.5625 -0.171875q0.1875 0 0.3125 0.078125q0.140625 0.0625 0.234375 0.1875l0.859375 1.078125q-0.484375 0.578125 -1.109375 0.96875q-0.609375 0.390625 -1.28125 0.625q-0.65625 0.234375 -1.34375 0.328125q-0.6875 0.109375 -1.34375 0.109375q-1.28125 0 -2.390625 -0.421875q-1.09375 -0.4375 -1.921875 -1.265625q-0.8125 -0.84375 -1.28125 -2.0625q-0.46875 -1.234375 -0.46875 -2.859375q0 -1.265625 0.40625 -2.375q0.421875 -1.109375 1.171875 -1.921875q0.765625 -0.828125 1.859375 -1.296875q1.109375 -0.484375 2.484375 -0.484375zm0.0625 2.125q-1.296875 0 -2.03125 0.734375q-0.734375 0.71875 -0.9375 2.0625l5.578125 0q0 -0.5625 -0.15625 -1.078125q-0.15625 -0.515625 -0.484375 -0.890625q-0.328125 -0.390625 -0.828125 -0.609375q-0.484375 -0.21875 -1.140625 -0.21875z" fill-rule="nonzero"></path><path fill="#efefef" d="m537.30585 746.53546l194.45667 0l0 91.747986l-194.45667 0z" fill-rule="evenodd"></path><path stroke="#000000" stroke-width="1.0" stroke-linejoin="round" stroke-linecap="butt" d="m537.30585 746.53546l194.45667 0l0 91.747986l-194.45667 0z" fill-rule="evenodd"></path><path fill="#000000" d="m608.8235 783.5901q0.21875 0 0.359375 0.03125q0.15625 0.015625 0.265625 0.078125q0.109375 0.046875 0.21875 0.15625q0.109375 0.09375 0.25 0.25l9.09375 11.609375q-0.046875 -0.421875 -0.0625 -0.8125q-0.015625 -0.40625 -0.015625 -0.75l0 -10.5625l2.84375 0l0 17.359375l-1.671875 0q-0.375 0 -0.625 -0.109375q-0.25 -0.125 -0.5 -0.4375l-9.0625 -11.5625q0.03125 0.390625 0.046875 0.765625q0.015625 0.375 0.015625 0.6875l0 10.65625l-2.84375 0l0 -17.359375l1.6875 0l0 0zm21.550415 4.859375q1.375 0 2.5 0.453125q1.125 0.4375 1.90625 1.25q0.796875 0.8125 1.21875 2.0q0.4375 1.171875 0.4375 2.609375q0 1.46875 -0.4375 2.65625q-0.421875 1.171875 -1.21875 2.0q-0.78125 0.828125 -1.90625 1.28125q-1.125 0.4375 -2.5 0.4375q-1.390625 0 -2.515625 -0.4375q-1.125 -0.453125 -1.921875 -1.28125q-0.796875 -0.828125 -1.234375 -2.0q-0.4375 -1.1875 -0.4375 -2.65625q0 -1.4375 0.4375 -2.609375q0.4375 -1.1875 1.234375 -2.0q0.796875 -0.8125 1.921875 -1.25q1.125 -0.453125 2.515625 -0.453125zm0 10.40625q1.53125 0 2.265625 -1.03125q0.75 -1.03125 0.75 -3.03125q0 -1.984375 -0.75 -3.03125q-0.734375 -1.046875 -2.265625 -1.046875q-1.5625 0 -2.3125 1.046875q-0.734375 1.046875 -0.734375 3.03125q0 1.984375 0.734375 3.03125q0.75 1.03125 2.3125 1.03125zm17.050293 2.09375q-0.578125 0 -0.765625 -0.546875l-0.234375 -1.1875q-0.375 0.4375 -0.796875 0.796875q-0.421875 0.34375 -0.90625 0.59375q-0.484375 0.25 -1.046875 0.390625q-0.5625 0.140625 -1.203125 0.140625q-1.015625 0 -1.859375 -0.421875q-0.828125 -0.421875 -1.4375 -1.21875q-0.609375 -0.796875 -0.9375 -1.96875q-0.328125 -1.1875 -0.328125 -2.703125q0 -1.359375 0.359375 -2.53125q0.375 -1.1875 1.078125 -2.046875q0.703125 -0.859375 1.671875 -1.34375q0.96875 -0.5 2.1875 -0.5q1.03125 0 1.75 0.34375q0.734375 0.328125 1.3125 0.875l0 -6.5l2.96875 0l0 17.828125l-1.8125 0zm-3.953125 -2.171875q0.921875 0 1.5625 -0.375q0.65625 -0.390625 1.234375 -1.09375l0 -5.53125q-0.5 -0.609375 -1.09375 -0.859375q-0.59375 -0.25 -1.28125 -0.25q-0.671875 0 -1.21875 0.25q-0.546875 0.25 -0.921875 0.765625q-0.375 0.5 -0.578125 1.296875q-0.203125 0.78125 -0.203125 1.84375q0 1.078125 0.171875 1.828125q0.171875 0.75 0.484375 1.234375q0.328125 0.46875 0.796875 0.6875q0.46875 0.203125 1.046875 0.203125zm14.055115 -10.328125q1.171875 0 2.140625 0.375q0.984375 0.359375 1.6875 1.078125q0.703125 0.71875 1.09375 1.765625q0.40625 1.03125 0.40625 2.359375q0 0.328125 -0.03125 0.5625q-0.03125 0.21875 -0.109375 0.34375q-0.078125 0.125 -0.21875 0.1875q-0.125 0.046875 -0.328125 0.046875l-7.609375 0q0.140625 1.890625 1.015625 2.78125q0.890625 0.890625 2.359375 0.890625q0.71875 0 1.234375 -0.171875q0.53125 -0.171875 0.921875 -0.375q0.390625 -0.203125 0.6875 -0.359375q0.296875 -0.171875 0.5625 -0.171875q0.1875 0 0.3125 0.078125q0.140625 0.0625 0.234375 0.1875l0.859375 1.078125q-0.484375 0.578125 -1.109375 0.96875q-0.609375 0.390625 -1.28125 0.625q-0.65625 0.234375 -1.34375 0.328125q-0.6875 0.109375 -1.34375 0.109375q-1.28125 0 -2.390625 -0.421875q-1.09375 -0.4375 -1.921875 -1.265625q-0.8125 -0.84375 -1.28125 -2.0625q-0.46875 -1.234375 -0.46875 -2.859375q0 -1.265625 0.40625 -2.375q0.421875 -1.109375 1.171875 -1.921875q0.765625 -0.828125 1.859375 -1.296875q1.109375 -0.484375 2.484375 -0.484375zm0.0625 2.125q-1.296875 0 -2.03125 0.734375q-0.734375 0.71875 -0.9375 2.0625l5.578125 0q0 -0.5625 -0.15625 -1.078125q-0.15625 -0.515625 -0.484375 -0.890625q-0.328125 -0.390625 -0.828125 -0.609375q-0.484375 -0.21875 -1.140625 -0.21875z" fill-rule="nonzero"></path><path fill="#efefef" d="m745.6943 746.53546l194.45673 0l0 91.747986l-194.45673 0z" fill-rule="evenodd"></path><path stroke="#000000" stroke-width="1.0" stroke-linejoin="round" stroke-linecap="butt" d="m745.6943 746.53546l194.45673 0l0 91.747986l-194.45673 0z" fill-rule="evenodd"></path><path fill="#000000" d="m817.2119 783.5901q0.21875 0 0.359375 0.03125q0.15625 0.015625 0.265625 0.078125q0.109375 0.046875 0.21875 0.15625q0.109375 0.09375 0.25 0.25l9.09375 11.609375q-0.046875 -0.421875 -0.0625 -0.8125q-0.015625 -0.40625 -0.015625 -0.75l0 -10.5625l2.84375 0l0 17.359375l-1.671875 0q-0.375 0 -0.625 -0.109375q-0.25 -0.125 -0.5 -0.4375l-9.0625 -11.5625q0.03125 0.390625 0.046875 0.765625q0.015625 0.375 0.015625 0.6875l0 10.65625l-2.84375 0l0 -17.359375l1.6875 0l0 0zm21.550415 4.859375q1.375 0 2.5 0.453125q1.125 0.4375 1.90625 1.25q0.796875 0.8125 1.21875 2.0q0.4375 1.171875 0.4375 2.609375q0 1.46875 -0.4375 2.65625q-0.421875 1.171875 -1.21875 2.0q-0.78125 0.828125 -1.90625 1.28125q-1.125 0.4375 -2.5 0.4375q-1.390625 0 -2.515625 -0.4375q-1.125 -0.453125 -1.921875 -1.28125q-0.796875 -0.828125 -1.234375 -2.0q-0.4375 -1.1875 -0.4375 -2.65625q0 -1.4375 0.4375 -2.609375q0.4375 -1.1875 1.234375 -2.0q0.796875 -0.8125 1.921875 -1.25q1.125 -0.453125 2.515625 -0.453125zm0 10.40625q1.53125 0 2.265625 -1.03125q0.75 -1.03125 0.75 -3.03125q0 -1.984375 -0.75 -3.03125q-0.734375 -1.046875 -2.265625 -1.046875q-1.5625 0 -2.3125 1.046875q-0.734375 1.046875 -0.734375 3.03125q0 1.984375 0.734375 3.03125q0.75 1.03125 2.3125 1.03125zm17.050354 2.09375q-0.578125 0 -0.765625 -0.546875l-0.234375 -1.1875q-0.375 0.4375 -0.796875 0.796875q-0.421875 0.34375 -0.90625 0.59375q-0.484375 0.25 -1.046875 0.390625q-0.5625 0.140625 -1.203125 0.140625q-1.015625 0 -1.859375 -0.421875q-0.828125 -0.421875 -1.4375 -1.21875q-0.609375 -0.796875 -0.9375 -1.96875q-0.328125 -1.1875 -0.328125 -2.703125q0 -1.359375 0.359375 -2.53125q0.375 -1.1875 1.078125 -2.046875q0.703125 -0.859375 1.671875 -1.34375q0.96875 -0.5 2.1875 -0.5q1.03125 0 1.75 0.34375q0.734375 0.328125 1.3125 0.875l0 -6.5l2.96875 0l0 17.828125l-1.8125 0zm-3.953125 -2.171875q0.921875 0 1.5625 -0.375q0.65625 -0.390625 1.234375 -1.09375l0 -5.53125q-0.5 -0.609375 -1.09375 -0.859375q-0.59375 -0.25 -1.28125 -0.25q-0.671875 0 -1.21875 0.25q-0.546875 0.25 -0.921875 0.765625q-0.375 0.5 -0.578125 1.296875q-0.203125 0.78125 -0.203125 1.84375q0 1.078125 0.171875 1.828125q0.171875 0.75 0.484375 1.234375q0.328125 0.46875 0.796875 0.6875q0.46875 0.203125 1.046875 0.203125zm14.055054 -10.328125q1.171875 0 2.140625 0.375q0.984375 0.359375 1.6875 1.078125q0.703125 0.71875 1.09375 1.765625q0.40625 1.03125 0.40625 2.359375q0 0.328125 -0.03125 0.5625q-0.03125 0.21875 -0.109375 0.34375q-0.078125 0.125 -0.21875 0.1875q-0.125 0.046875 -0.328125 0.046875l-7.609375 0q0.140625 1.890625 1.015625 2.78125q0.890625 0.890625 2.359375 0.890625q0.71875 0 1.234375 -0.171875q0.53125 -0.171875 0.921875 -0.375q0.390625 -0.203125 0.6875 -0.359375q0.296875 -0.171875 0.5625 -0.171875q0.1875 0 0.3125 0.078125q0.140625 0.0625 0.234375 0.1875l0.859375 1.078125q-0.484375 0.578125 -1.109375 0.96875q-0.609375 0.390625 -1.28125 0.625q-0.65625 0.234375 -1.34375 0.328125q-0.6875 0.109375 -1.34375 0.109375q-1.28125 0 -2.390625 -0.421875q-1.09375 -0.4375 -1.921875 -1.265625q-0.8125 -0.84375 -1.28125 -2.0625q-0.46875 -1.234375 -0.46875 -2.859375q0 -1.265625 0.40625 -2.375q0.421875 -1.109375 1.171875 -1.921875q0.765625 -0.828125 1.859375 -1.296875q1.109375 -0.484375 2.484375 -0.484375zm0.0625 2.125q-1.296875 0 -2.03125 0.734375q-0.734375 0.71875 -0.9375 2.0625l5.578125 0q0 -0.5625 -0.15625 -1.078125q-0.15625 -0.515625 -0.484375 -0.890625q-0.328125 -0.390625 -0.828125 -0.609375q-0.484375 -0.21875 -1.140625 -0.21875z" fill-rule="nonzero"></path><path fill="#000000" fill-opacity="0.0" d="m632.93964 584.01575l1.0708618 130.04724" fill-rule="evenodd"></path><path stroke="#9900ff" stroke-width="3.0" stroke-linejoin="round" stroke-linecap="butt" d="m632.93964 584.01575l0.92266846 112.04779" fill-rule="evenodd"></path><path fill="#9900ff" stroke="#9900ff" stroke-width="3.0" stroke-linecap="butt" d="m628.9072 696.10443l5.0671387 13.572998l4.8429565 -13.654602z" fill-rule="evenodd"></path><path fill="#ffffff" d="m585.7743 648.063l94.33069 0l0 23.086609l-94.33069 0z" fill-rule="evenodd"></path><path fill="#000000" d="m602.9208 663.10815q0.4375 0 0.84375 -0.171875q0.421875 -0.171875 0.890625 -0.5l1.03125 1.46875q-0.5625 0.46875 -1.296875 0.75q-0.734375 0.28125 -1.59375 0.28125q-1.25 0 -2.15625 -0.515625q-0.890625 -0.515625 -1.375 -1.4375q-0.484375 -0.921875 -0.484375 -2.140625q0 -1.21875 0.5 -2.171875q0.5 -0.953125 1.40625 -1.484375q0.921875 -0.546875 2.15625 -0.546875q0.859375 0 1.546875 0.25q0.6875 0.234375 1.296875 0.734375l-1.0 1.390625q-0.859375 -0.59375 -1.75 -0.59375q-1.75 0 -1.75 2.421875q0 1.21875 0.453125 1.75q0.46875 0.515625 1.28125 0.515625zm6.981262 -5.421875q0.984375 -1.046875 2.28125 -1.046875q1.03125 0 1.578125 0.609375q0.5625 0.609375 0.5625 1.71875l0 5.71875l-2.3125 0l0 -5.078125q0 -0.703125 -0.171875 -0.96875q-0.15625 -0.28125 -0.578125 -0.28125q-0.34375 0 -0.6875 0.25q-0.328125 0.234375 -0.671875 0.703125l0 5.375l-2.3125 0l0 -10.875l2.3125 -0.234375l0 4.109375zm9.825012 -4.859375q0.609375 0 0.984375 0.375q0.390625 0.375 0.390625 0.9375q0 0.5625 -0.390625 0.9375q-0.375 0.359375 -0.984375 0.359375q-0.59375 0 -0.984375 -0.375q-0.390625 -0.375 -0.390625 -0.921875q0 -0.5625 0.390625 -0.9375q0.390625 -0.375 0.984375 -0.375zm1.40625 10.28125l1.984375 0l0 1.578125l-6.5 0l0 -1.578125l2.1875 0l0 -4.625l-2.125 0l0 -1.578125l4.453125 0l0 6.203125zm8.090698 -0.875q0 0.875 1.0 0.875q0.546875 0 1.125 -0.234375l0.53125 1.546875q-0.9375 0.515625 -2.234375 0.515625q-1.359375 0 -2.046875 -0.78125q-0.6875 -0.78125 -0.6875 -2.203125l0 -6.5625l-2.28125 0l0 -1.578125l4.59375 0l0 8.421875zm11.481262 -8.421875l0 10.875l-2.046875 0l-0.125 -0.84375q-0.34375 0.484375 -0.890625 0.796875q-0.546875 0.296875 -1.265625 0.296875q-1.40625 0 -2.125 -1.109375q-0.71875 -1.125 -0.71875 -3.046875q0 -1.203125 0.375 -2.140625q0.375 -0.9375 1.078125 -1.46875q0.703125 -0.53125 1.640625 -0.53125q1.0625 0 1.765625 0.734375l0 -3.8125l2.3125 0.25zm-3.453125 4.53125q-0.640625 0 -1.0 0.59375q-0.34375 0.59375 -0.34375 1.84375q0 1.359375 0.3125 1.90625q0.328125 0.546875 0.890625 0.546875q0.734375 0 1.28125 -0.890625l0 -3.359375q-0.25 -0.328125 -0.53125 -0.484375q-0.265625 -0.15625 -0.609375 -0.15625zm11.450012 -1.671875q0.703125 0 1.28125 0.234375l-0.421875 3.25l-1.46875 0l0 -1.4375q-0.640625 0.125 -1.140625 0.71875q-0.5 0.578125 -0.78125 1.46875l0 2.234375l1.546875 0l0 1.546875l-4.890625 0l0 -1.546875l1.03125 0l0 -4.703125l-1.03125 0l0 -1.53125l2.8125 0l0.40625 1.75q0.421875 -1.0 1.0625 -1.484375q0.65625 -0.5 1.59375 -0.5zm4.8563232 4.8125q0.21875 1.765625 1.875 1.765625q1.0 0 2.0 -0.640625l0.921875 1.25q-0.578125 0.5 -1.375 0.796875q-0.78125 0.28125 -1.734375 0.28125q-1.296875 0 -2.21875 -0.515625q-0.90625 -0.53125 -1.375 -1.453125q-0.453125 -0.9375 -0.453125 -2.171875q0 -1.171875 0.4375 -2.109375q0.453125 -0.953125 1.3125 -1.5q0.859375 -0.546875 2.046875 -0.546875q1.109375 0 1.921875 0.484375q0.828125 0.46875 1.28125 1.375q0.453125 0.890625 0.453125 2.140625q0 0.484375 -0.046875 0.84375l-5.046875 0zm1.4375 -3.296875q-0.625 0 -1.015625 0.46875q-0.375 0.46875 -0.453125 1.421875l2.859375 0q-0.03125 -1.890625 -1.390625 -1.890625zm5.356262 -1.28125l2.015625 0l0.15625 0.890625q0.53125 -0.578125 1.109375 -0.859375q0.578125 -0.296875 1.3125 -0.296875q1.015625 0 1.578125 0.625q0.5625 0.609375 0.5625 1.703125l0 5.71875l-2.3125 0l0 -5.046875q0 -0.734375 -0.171875 -1.0q-0.15625 -0.28125 -0.578125 -0.28125q-0.34375 0 -0.6875 0.234375q-0.328125 0.21875 -0.671875 0.65625l0 5.4375l-2.3125 0l0 -7.78125z" fill-rule="nonzero"></path><path fill="#000000" fill-opacity="0.0" d="m1050.7585 485.89554l0 0c0 -14.426361 11.694824 -26.121246 26.121216 -26.121246l196.104 0c6.9277344 0 13.571777 2.7520447 18.470459 7.6507263c4.8986816 4.8986816 7.650757 11.542725 7.650757 18.47052l0 104.4819c0 14.426331 -11.694824 26.121216 -26.121216 26.121216l-196.104 0c-14.426392 0 -26.121216 -11.694885 -26.121216 -26.121216z" fill-rule="evenodd"></path><path stroke="#000000" stroke-width="1.0" stroke-linejoin="round" stroke-linecap="butt" d="m1050.7585 485.89554l0 0c0 -14.426361 11.694824 -26.121246 26.121216 -26.121246l196.104 0c6.9277344 0 13.571777 2.7520447 18.470459 7.6507263c4.8986816 4.8986816 7.650757 11.542725 7.650757 18.47052l0 104.4819c0 14.426331 -11.694824 26.121216 -26.121216 26.121216l-196.104 0c-14.426392 0 -26.121216 -11.694885 -26.121216 -26.121216z" fill-rule="evenodd"></path><path fill="#efefef" d="m1076.6588 492.26248l194.45667 0l0 91.74802l-194.45667 0z" fill-rule="evenodd"></path><path stroke="#000000" stroke-width="1.0" stroke-linejoin="round" stroke-linecap="butt" d="m1076.6588 492.26248l194.45667 0l0 91.74802l-194.45667 0z" fill-rule="evenodd"></path><path fill="#000000" d="m1148.1764 529.31714q0.21875 0 0.359375 0.03125q0.15625 0.015625 0.265625 0.078125q0.109375 0.046875 0.21875 0.15625q0.109375 0.09375 0.25 0.25l9.09375 11.609375q-0.046875 -0.421875 -0.0625 -0.8125q-0.015625 -0.40625 -0.015625 -0.75l0 -10.5625l2.84375 0l0 17.359375l-1.671875 0q-0.375 0 -0.625 -0.109375q-0.25 -0.125 -0.5 -0.4375l-9.0625 -11.5625q0.03125 0.390625 0.046875 0.765625q0.015625 0.375 0.015625 0.6875l0 10.65625l-2.84375 0l0 -17.359375l1.6875 0l0 0zm21.550415 4.859375q1.375 0 2.5 0.453125q1.125 0.4375 1.90625 1.25q0.796875 0.8125 1.21875 2.0q0.4375 1.171875 0.4375 2.609375q0 1.46875 -0.4375 2.65625q-0.421875 1.171875 -1.21875 2.0q-0.78125 0.828125 -1.90625 1.28125q-1.125 0.4375 -2.5 0.4375q-1.390625 0 -2.515625 -0.4375q-1.125 -0.453125 -1.921875 -1.28125q-0.796875 -0.828125 -1.234375 -2.0q-0.4375 -1.1875 -0.4375 -2.65625q0 -1.4375 0.4375 -2.609375q0.4375 -1.1875 1.234375 -2.0q0.796875 -0.8125 1.921875 -1.25q1.125 -0.453125 2.515625 -0.453125zm0 10.40625q1.53125 0 2.265625 -1.03125q0.75 -1.03125 0.75 -3.03125q0 -1.984375 -0.75 -3.03125q-0.734375 -1.046875 -2.265625 -1.046875q-1.5625 0 -2.3125 1.046875q-0.734375 1.046875 -0.734375 3.03125q0 1.984375 0.734375 3.03125q0.75 1.03125 2.3125 1.03125zm17.050293 2.09375q-0.578125 0 -0.765625 -0.546875l-0.234375 -1.1875q-0.375 0.4375 -0.796875 0.796875q-0.421875 0.34375 -0.90625 0.59375q-0.484375 0.25 -1.046875 0.390625q-0.5625 0.140625 -1.203125 0.140625q-1.015625 0 -1.859375 -0.421875q-0.828125 -0.421875 -1.4375 -1.21875q-0.609375 -0.796875 -0.9375 -1.96875q-0.328125 -1.1875 -0.328125 -2.703125q0 -1.359375 0.359375 -2.53125q0.375 -1.1875 1.078125 -2.046875q0.703125 -0.859375 1.671875 -1.34375q0.96875 -0.5 2.1875 -0.5q1.03125 0 1.75 0.34375q0.734375 0.328125 1.3125 0.875l0 -6.5l2.96875 0l0 17.828125l-1.8125 0zm-3.953125 -2.171875q0.921875 0 1.5625 -0.375q0.65625 -0.390625 1.234375 -1.09375l0 -5.53125q-0.5 -0.609375 -1.09375 -0.859375q-0.59375 -0.25 -1.28125 -0.25q-0.671875 0 -1.21875 0.25q-0.546875 0.25 -0.921875 0.765625q-0.375 0.5 -0.578125 1.296875q-0.203125 0.78125 -0.203125 1.84375q0 1.078125 0.171875 1.828125q0.171875 0.75 0.484375 1.234375q0.328125 0.46875 0.796875 0.6875q0.46875 0.203125 1.046875 0.203125zm14.055176 -10.328125q1.171875 0 2.140625 0.375q0.984375 0.359375 1.6875 1.078125q0.703125 0.71875 1.09375 1.765625q0.40625 1.03125 0.40625 2.359375q0 0.328125 -0.03125 0.5625q-0.03125 0.21875 -0.109375 0.34375q-0.078125 0.125 -0.21875 0.1875q-0.125 0.046875 -0.328125 0.046875l-7.609375 0q0.140625 1.890625 1.015625 2.78125q0.890625 0.890625 2.359375 0.890625q0.71875 0 1.234375 -0.171875q0.53125 -0.171875 0.921875 -0.375q0.390625 -0.203125 0.6875 -0.359375q0.296875 -0.171875 0.5625 -0.171875q0.1875 0 0.3125 0.078125q0.140625 0.0625 0.234375 0.1875l0.859375 1.078125q-0.484375 0.578125 -1.109375 0.96875q-0.609375 0.390625 -1.28125 0.625q-0.65625 0.234375 -1.34375 0.328125q-0.6875 0.109375 -1.34375 0.109375q-1.28125 0 -2.390625 -0.421875q-1.09375 -0.4375 -1.921875 -1.265625q-0.8125 -0.84375 -1.28125 -2.0625q-0.46875 -1.234375 -0.46875 -2.859375q0 -1.265625 0.40625 -2.375q0.421875 -1.109375 1.171875 -1.921875q0.765625 -0.828125 1.859375 -1.296875q1.109375 -0.484375 2.484375 -0.484375zm0.0625 2.125q-1.296875 0 -2.03125 0.734375q-0.734375 0.71875 -0.9375 2.0625l5.578125 0q0 -0.5625 -0.15625 -1.078125q-0.15625 -0.515625 -0.484375 -0.890625q-0.328125 -0.390625 -0.828125 -0.609375q-0.484375 -0.21875 -1.140625 -0.21875z" fill-rule="nonzero"></path><path fill="#000000" fill-opacity="0.0" d="m1174.9321 331.5853l0 128.189" fill-rule="evenodd"></path><path stroke="#9900ff" stroke-width="3.0" stroke-linejoin="round" stroke-linecap="butt" d="m1174.9321 331.5853l0 110.188995" fill-rule="evenodd"></path><path fill="#9900ff" stroke="#9900ff" stroke-width="3.0" stroke-linecap="butt" d="m1169.9769 441.7743l4.9552 13.614288l4.9552 -13.614288z" fill-rule="evenodd"></path><path fill="#ffffff" d="m1127.7664 390.6286l94.33081 0l0 23.086609l-94.33081 0z" fill-rule="evenodd"></path><path fill="#000000" d="m1144.9128 405.6738q0.4375 0 0.84375 -0.171875q0.421875 -0.171875 0.890625 -0.5l1.03125 1.46875q-0.5625 0.46875 -1.296875 0.75q-0.734375 0.28125 -1.59375 0.28125q-1.25 0 -2.15625 -0.515625q-0.890625 -0.515625 -1.375 -1.4375q-0.484375 -0.921875 -0.484375 -2.140625q0 -1.21875 0.5 -2.171875q0.5 -0.953125 1.40625 -1.484375q0.921875 -0.546875 2.15625 -0.546875q0.859375 0 1.546875 0.25q0.6875 0.234375 1.296875 0.734375l-1.0 1.390625q-0.859375 -0.59375 -1.75 -0.59375q-1.75 0 -1.75 2.421875q0 1.21875 0.453125 1.75q0.46875 0.515625 1.28125 0.515625zm6.9813232 -5.421875q0.984375 -1.046875 2.28125 -1.046875q1.03125 0 1.578125 0.609375q0.5625 0.609375 0.5625 1.71875l0 5.71875l-2.3125 0l0 -5.078125q0 -0.703125 -0.171875 -0.96875q-0.15625 -0.28125 -0.578125 -0.28125q-0.34375 0 -0.6875 0.25q-0.328125 0.234375 -0.671875 0.703125l0 5.375l-2.3125 0l0 -10.875l2.3125 -0.234375l0 4.109375zm9.825073 -4.859375q0.609375 0 0.984375 0.375q0.390625 0.375 0.390625 0.9375q0 0.5625 -0.390625 0.9375q-0.375 0.359375 -0.984375 0.359375q-0.59375 0 -0.984375 -0.375q-0.390625 -0.375 -0.390625 -0.921875q0 -0.5625 0.390625 -0.9375q0.390625 -0.375 0.984375 -0.375zm1.40625 10.28125l1.984375 0l0 1.578125l-6.5 0l0 -1.578125l2.1875 0l0 -4.625l-2.125 0l0 -1.578125l4.453125 0l0 6.203125zm8.090576 -0.875q0 0.875 1.0 0.875q0.546875 0 1.125 -0.234375l0.53125 1.546875q-0.9375 0.515625 -2.234375 0.515625q-1.359375 0 -2.046875 -0.78125q-0.6875 -0.78125 -0.6875 -2.203125l0 -6.5625l-2.28125 0l0 -1.578125l4.59375 0l0 8.421875zm11.481323 -8.421875l0 10.875l-2.046875 0l-0.125 -0.84375q-0.34375 0.484375 -0.890625 0.796875q-0.546875 0.296875 -1.265625 0.296875q-1.40625 0 -2.125 -1.109375q-0.71875 -1.125 -0.71875 -3.046875q0 -1.203125 0.375 -2.140625q0.375 -0.9375 1.078125 -1.46875q0.703125 -0.53125 1.640625 -0.53125q1.0625 0 1.765625 0.734375l0 -3.8125l2.3125 0.25zm-3.453125 4.53125q-0.640625 0 -1.0 0.59375q-0.34375 0.59375 -0.34375 1.84375q0 1.359375 0.3125 1.90625q0.328125 0.546875 0.890625 0.546875q0.734375 0 1.28125 -0.890625l0 -3.359375q-0.25 -0.328125 -0.53125 -0.484375q-0.265625 -0.15625 -0.609375 -0.15625zm11.450073 -1.671875q0.703125 0 1.28125 0.234375l-0.421875 3.25l-1.46875 0l0 -1.4375q-0.640625 0.125 -1.140625 0.71875q-0.5 0.578125 -0.78125 1.46875l0 2.234375l1.546875 0l0 1.546875l-4.890625 0l0 -1.546875l1.03125 0l0 -4.703125l-1.03125 0l0 -1.53125l2.8125 0l0.40625 1.75q0.421875 -1.0 1.0625 -1.484375q0.65625 -0.5 1.59375 -0.5zm4.856201 4.8125q0.21875 1.765625 1.875 1.765625q1.0 0 2.0 -0.640625l0.921875 1.25q-0.578125 0.5 -1.375 0.796875q-0.78125 0.28125 -1.734375 0.28125q-1.296875 0 -2.21875 -0.515625q-0.90625 -0.53125 -1.375 -1.453125q-0.453125 -0.9375 -0.453125 -2.171875q0 -1.171875 0.4375 -2.109375q0.453125 -0.953125 1.3125 -1.5q0.859375 -0.546875 2.046875 -0.546875q1.109375 0 1.921875 0.484375q0.828125 0.46875 1.28125 1.375q0.453125 0.890625 0.453125 2.140625q0 0.484375 -0.046875 0.84375l-5.046875 0zm1.4375 -3.296875q-0.625 0 -1.015625 0.46875q-0.375 0.46875 -0.453125 1.421875l2.859375 0q-0.03125 -1.890625 -1.390625 -1.890625zm5.3563232 -1.28125l2.015625 0l0.15625 0.890625q0.53125 -0.578125 1.109375 -0.859375q0.578125 -0.296875 1.3125 -0.296875q1.015625 0 1.578125 0.625q0.5625 0.609375 0.5625 1.703125l0 5.71875l-2.3125 0l0 -5.046875q0 -0.734375 -0.171875 -1.0q-0.15625 -0.28125 -0.578125 -0.28125q-0.34375 0 -0.6875 0.234375q-0.328125 0.21875 -0.671875 0.65625l0 5.4375l-2.3125 0l0 -7.78125z" fill-rule="nonzero"></path></g></svg>

