<?xml version="1.0" standalone="yes"?>

<svg version="1.1" viewBox="0.0 0.0 1090.4934383202099 624.6614173228346" fill="none" stroke="none" stroke-linecap="square" stroke-miterlimit="10" xmlns="http://www.w3.org/2000/svg" xmlns:xlink="http://www.w3.org/1999/xlink"><clipPath id="p.0"><path d="m0 0l1090.4934 0l0 624.66144l-1090.4934 0l0 -624.66144z" clip-rule="nonzero"></path></clipPath><g clip-path="url(#p.0)"><path fill="#000000" fill-opacity="0.0" d="m0 0l1090.4934 0l0 624.66144l-1090.4934 0z" fill-rule="evenodd"></path><path fill="#000000" fill-opacity="0.0" d="m7.125984 48.593998l0 0c0 -22.651377 18.362568 -41.013947 41.013943 -41.013947l997.78314 0c10.877563 0 21.30957 4.3210993 29.00122 12.012706c7.6916504 7.6916065 12.012695 18.123665 12.012695 29.00124l0 164.05086c0 22.651367 -18.362549 41.013947 -41.013916 41.013947l-997.78314 0c-22.651375 0 -41.013943 -18.36258 -41.013943 -41.013947z" fill-rule="evenodd"></path><path stroke="#000000" stroke-width="1.0" stroke-linejoin="round" stroke-linecap="butt" d="m7.125984 48.593998l0 0c0 -22.651377 18.362568 -41.013947 41.013943 -41.013947l997.78314 0c10.877563 0 21.30957 4.3210993 29.00122 12.012706c7.6916504 7.6916065 12.012695 18.123665 12.012695 29.00124l0 164.05086c0 22.651367 -18.362549 41.013947 -41.013916 41.013947l-997.78314 0c-22.651375 0 -41.013943 -18.36258 -41.013943 -41.013947z" fill-rule="evenodd"></path><path fill="#000000" d="m453.71973 50.586372q0 3.609375 -1.15625 6.625q-1.15625 3.015625 -3.234375 5.1875q-2.0625 2.171875 -4.90625 3.390625q-2.84375 1.203125 -6.203125 1.203125l-10.171875 0l3.546875 -28.921875l10.203125 0q2.765625 0 4.96875 0.9375q2.21875 0.9375 3.75 2.609375q1.546875 1.65625 2.375 3.953125q0.828125 2.296875 0.828125 5.015625zm-5.3125 0.125q0 -1.9375 -0.484375 -3.515625q-0.484375 -1.578125 -1.390625 -2.6875q-0.90625 -1.109375 -2.234375 -1.703125q-1.3125 -0.609375 -3.015625 -0.609375l-4.984375 0l-2.53125 20.65625l4.96875 0q2.1875 0 3.96875 -0.828125q1.78125 -0.84375 3.046875 -2.40625q1.265625 -1.578125 1.953125 -3.828125q0.703125 -2.25 0.703125 -5.078125zm24.07373 0.515625q0 1.390625 -0.546875 2.53125q-0.546875 1.140625 -1.96875 2.046875q-1.421875 0.890625 -3.859375 1.546875q-2.421875 0.640625 -6.1875 1.015625l0 0.265625q0 4.84375 4.109375 4.84375q0.875 0 1.546875 -0.171875q0.6875 -0.171875 1.1875 -0.40625q0.515625 -0.25 0.921875 -0.546875q0.421875 -0.296875 0.765625 -0.53125q0.359375 -0.25 0.6875 -0.421875q0.34375 -0.171875 0.75 -0.171875q0.234375 0 0.46875 0.109375q0.25 0.109375 0.40625 0.34375l1.265625 1.515625q-1.0625 1.0625 -2.09375 1.84375q-1.015625 0.765625 -2.078125 1.265625q-1.046875 0.5 -2.234375 0.734375q-1.1875 0.25 -2.578125 0.25q-1.796875 0 -3.265625 -0.609375q-1.453125 -0.609375 -2.5 -1.71875q-1.03125 -1.109375 -1.609375 -2.671875q-0.5625 -1.578125 -0.5625 -3.515625q0 -1.625 0.34375 -3.171875q0.359375 -1.5625 1.015625 -2.96875q0.65625 -1.40625 1.609375 -2.578125q0.96875 -1.1875 2.171875 -2.046875q1.21875 -0.859375 2.65625 -1.328125q1.453125 -0.484375 3.125 -0.484375q1.609375 0 2.8125 0.46875q1.21875 0.453125 2.03125 1.1875q0.8125 0.71875 1.203125 1.625q0.40625 0.890625 0.40625 1.75zm-6.734375 -1.59375q-1.0 0 -1.859375 0.40625q-0.859375 0.40625 -1.5625 1.15625q-0.6875 0.734375 -1.203125 1.765625q-0.5 1.03125 -0.796875 2.25q2.484375 -0.34375 3.984375 -0.734375q1.515625 -0.40625 2.34375 -0.875q0.828125 -0.484375 1.09375 -1.015625q0.28125 -0.546875 0.28125 -1.171875q0 -0.296875 -0.140625 -0.609375q-0.125 -0.328125 -0.40625 -0.578125q-0.265625 -0.25 -0.703125 -0.421875q-0.421875 -0.171875 -1.03125 -0.171875zm8.591858 17.359375l3.609375 -29.71875l4.859375 0l-3.609375 29.71875l-4.859375 0zm17.495605 -20.515625l-2.453125 20.515625l-4.875 0l2.453125 -20.515625l4.875 0zm1.25 -5.984375q0 0.640625 -0.28125 1.203125q-0.265625 0.5625 -0.703125 0.984375q-0.421875 0.40625 -0.984375 0.65625q-0.546875 0.25 -1.15625 0.25q-0.578125 0 -1.125 -0.25q-0.546875 -0.25 -0.96875 -0.65625q-0.421875 -0.421875 -0.671875 -0.984375q-0.25 -0.5625 -0.25 -1.203125q0 -0.640625 0.25 -1.21875q0.265625 -0.578125 0.6875 -1.0q0.421875 -0.4375 0.96875 -0.6875q0.546875 -0.25 1.125 -0.25q0.609375 0 1.171875 0.25q0.5625 0.25 0.984375 0.671875q0.4375 0.421875 0.6875 1.0q0.265625 0.578125 0.265625 1.234375zm1.6124878 5.984375l4.046875 0q0.515625 0 0.828125 0.265625q0.3125 0.25 0.390625 0.65625l2.15625 10.953125q0.203125 0.984375 0.28125 1.953125q0.078125 0.96875 0.140625 1.921875q0.28125 -0.953125 0.609375 -1.90625q0.328125 -0.953125 0.796875 -1.96875l4.890625 -10.953125q0.1875 -0.40625 0.546875 -0.65625q0.375 -0.265625 0.8125 -0.265625l3.90625 0l-10.125 20.515625l-4.15625 0l-5.125 -20.515625zm36.86438 4.75q0 1.390625 -0.546875 2.53125q-0.546875 1.140625 -1.96875 2.046875q-1.421875 0.890625 -3.859375 1.546875q-2.421875 0.640625 -6.1875 1.015625l0 0.265625q0 4.84375 4.109375 4.84375q0.875 0 1.546875 -0.171875q0.6875 -0.171875 1.1875 -0.40625q0.515625 -0.25 0.921875 -0.546875q0.421875 -0.296875 0.765625 -0.53125q0.359375 -0.25 0.6875 -0.421875q0.34375 -0.171875 0.75 -0.171875q0.234375 0 0.46875 0.109375q0.25 0.109375 0.40625 0.34375l1.265625 1.515625q-1.0625 1.0625 -2.09375 1.84375q-1.015625 0.765625 -2.078125 1.265625q-1.046875 0.5 -2.234375 0.734375q-1.1875 0.25 -2.578125 0.25q-1.796875 0 -3.265625 -0.609375q-1.453125 -0.609375 -2.5 -1.71875q-1.03125 -1.109375 -1.609375 -2.671875q-0.5625 -1.578125 -0.5625 -3.515625q0 -1.625 0.34375 -3.171875q0.359375 -1.5625 1.015625 -2.96875q0.65625 -1.40625 1.609375 -2.578125q0.96875 -1.1875 2.171875 -2.046875q1.21875 -0.859375 2.65625 -1.328125q1.453125 -0.484375 3.125 -0.484375q1.609375 0 2.8125 0.46875q1.21875 0.453125 2.03125 1.1875q0.8125 0.71875 1.203125 1.625q0.40625 0.890625 0.40625 1.75zm-6.734375 -1.59375q-1.0 0 -1.859375 0.40625q-0.859375 0.40625 -1.5625 1.15625q-0.6875 0.734375 -1.203125 1.765625q-0.5 1.03125 -0.796875 2.25q2.484375 -0.34375 3.984375 -0.734375q1.515625 -0.40625 2.34375 -0.875q0.828125 -0.484375 1.09375 -1.015625q0.28125 -0.546875 0.28125 -1.171875q0 -0.296875 -0.140625 -0.609375q-0.125 -0.328125 -0.40625 -0.578125q-0.265625 -0.25 -0.703125 -0.421875q-0.421875 -0.171875 -1.03125 -0.171875zm8.341858 17.359375l2.5 -20.546875l2.5 0q0.71875 0 1.171875 0.328125q0.46875 0.3125 0.46875 1.015625q0 0 0 0.078125q0 0.0625 -0.03125 0.40625q-0.015625 0.34375 -0.046875 1.078125q-0.015625 0.71875 -0.0625 2.046875q1.25 -2.421875 2.75 -3.734375q1.5 -1.328125 3.125 -1.328125q0.8125 0 1.65625 0.359375l-0.890625 4.71875q-1.0 -0.421875 -1.90625 -0.421875q-1.78125 0 -3.125 1.703125q-1.34375 1.703125 -2.203125 5.3125l-1.078125 8.984375l-4.828125 0zm20.914978 5.6875q-0.515625 1.015625 -1.609375 1.015625l-3.65625 0l4.5625 -8.265625l-5.171875 -18.953125l4.140625 0q0.53125 0 0.796875 0.265625q0.28125 0.265625 0.375 0.65625l2.515625 10.640625q0.125 0.515625 0.1875 1.015625q0.078125 0.5 0.125 1.015625q0.21875 -0.515625 0.4375 -1.015625q0.234375 -0.515625 0.46875 -1.046875l5.0625 -10.640625q0.203125 -0.390625 0.578125 -0.640625q0.390625 -0.25 0.78125 -0.25l3.96875 0l-13.5625 26.203125zm44.02185 -34.609375l-0.546875 4.265625l-7.921875 0l-3.03125 24.65625l-5.15625 0l3.015625 -24.65625l-7.9375 0l0.515625 -4.265625l21.0625 0zm16.435608 13.15625q0 1.390625 -0.546875 2.53125q-0.546875 1.140625 -1.96875 2.046875q-1.421875 0.890625 -3.859375 1.546875q-2.421875 0.640625 -6.1875 1.015625l0 0.265625q0 4.84375 4.109375 4.84375q0.875 0 1.546875 -0.171875q0.6875 -0.171875 1.1875 -0.40625q0.515625 -0.25 0.921875 -0.546875q0.421875 -0.296875 0.765625 -0.53125q0.359375 -0.25 0.6875 -0.421875q0.34375 -0.171875 0.75 -0.171875q0.234375 0 0.46875 0.109375q0.25 0.109375 0.40625 0.34375l1.265625 1.515625q-1.0625 1.0625 -2.09375 1.84375q-1.015625 0.765625 -2.078125 1.265625q-1.046875 0.5 -2.234375 0.734375q-1.1875 0.25 -2.578125 0.25q-1.796875 0 -3.265625 -0.609375q-1.453125 -0.609375 -2.5 -1.71875q-1.03125 -1.109375 -1.609375 -2.671875q-0.5625 -1.578125 -0.5625 -3.515625q0 -1.625 0.34375 -3.171875q0.359375 -1.5625 1.015625 -2.96875q0.65625 -1.40625 1.609375 -2.578125q0.96875 -1.1875 2.171875 -2.046875q1.21875 -0.859375 2.65625 -1.328125q1.453125 -0.484375 3.125 -0.484375q1.609375 0 2.8125 0.46875q1.21875 0.453125 2.03125 1.1875q0.8125 0.71875 1.203125 1.625q0.40625 0.890625 0.40625 1.75zm-6.734375 -1.59375q-1.0 0 -1.859375 0.40625q-0.859375 0.40625 -1.5625 1.15625q-0.6875 0.734375 -1.203125 1.765625q-0.5 1.03125 -0.796875 2.25q2.484375 -0.34375 3.984375 -0.734375q1.515625 -0.40625 2.34375 -0.875q0.828125 -0.484375 1.09375 -1.015625q0.28125 -0.546875 0.28125 -1.171875q0 -0.296875 -0.140625 -0.609375q-0.125 -0.328125 -0.40625 -0.578125q-0.265625 -0.25 -0.703125 -0.421875q-0.421875 -0.171875 -1.03125 -0.171875zm24.451233 17.359375l-2.59375 0q-0.90625 0 -1.265625 -0.421875q-0.359375 -0.421875 -0.359375 -1.0625l0.15625 -2.796875q-1.359375 2.125 -3.0625 3.359375q-1.6875 1.21875 -3.734375 1.21875q-1.15625 0 -2.171875 -0.453125q-1.0 -0.46875 -1.75 -1.375q-0.75 -0.90625 -1.1875 -2.28125q-0.421875 -1.375 -0.421875 -3.203125q0 -1.84375 0.453125 -3.578125q0.46875 -1.75 1.3125 -3.28125q0.84375 -1.53125 2.046875 -2.796875q1.203125 -1.28125 2.6875 -2.203125q1.5 -0.921875 3.21875 -1.421875q1.734375 -0.515625 3.65625 -0.515625q1.375 0 2.765625 0.203125q1.390625 0.1875 2.734375 0.703125l-2.484375 19.90625zm-8.921875 -3.734375q0.828125 0 1.609375 -0.5625q0.796875 -0.5625 1.5 -1.546875q0.703125 -1.0 1.296875 -2.328125q0.59375 -1.34375 1.046875 -2.890625l0.765625 -6.203125q-0.53125 -0.046875 -1.0 -0.046875q-1.65625 0 -3.078125 0.765625q-1.421875 0.75 -2.46875 2.046875q-1.03125 1.28125 -1.625 3.0q-0.578125 1.703125 -0.578125 3.59375q0 2.171875 0.671875 3.171875q0.6875 1.0 1.859375 1.0zm13.512451 3.734375l2.5 -20.546875l2.5 0q0.75 0 1.1875 0.375q0.453125 0.359375 0.453125 1.125q0 0.03125 0 0.078125q0 0.03125 -0.015625 0.265625q-0.015625 0.21875 -0.03125 0.6875q-0.015625 0.46875 -0.0625 1.328125q1.375 -2.09375 3.0 -3.125q1.625 -1.03125 3.375 -1.03125q1.90625 0 3.0 1.265625q1.09375 1.265625 1.265625 3.640625q1.4375 -2.515625 3.1875 -3.703125q1.75 -1.203125 3.8125 -1.203125q2.296875 0 3.546875 1.5625q1.25 1.546875 1.25 4.46875q0 0.390625 -0.015625 0.84375q-0.015625 0.453125 -0.078125 0.90625l-1.546875 13.0625l-4.875 0q0.40625 -3.40625 0.671875 -5.765625q0.28125 -2.375 0.453125 -3.953125q0.1875 -1.59375 0.28125 -2.5q0.109375 -0.90625 0.15625 -1.390625q0.0625 -0.484375 0.0625 -0.65625q0.015625 -0.171875 0.015625 -0.28125q0 -1.1875 -0.40625 -1.71875q-0.390625 -0.53125 -1.296875 -0.53125q-0.75 0 -1.484375 0.40625q-0.71875 0.390625 -1.375 1.15625q-0.640625 0.75 -1.1875 1.859375q-0.546875 1.09375 -0.96875 2.46875l-1.28125 10.90625l-4.859375 0l1.53125 -13.0625q0.046875 -0.421875 0.078125 -0.78125q0.03125 -0.375 0.03125 -0.703125q0 -1.1875 -0.390625 -1.71875q-0.390625 -0.53125 -1.296875 -0.53125q-0.78125 0 -1.515625 0.421875q-0.734375 0.421875 -1.390625 1.21875q-0.640625 0.78125 -1.203125 1.90625q-0.546875 1.125 -0.96875 2.53125l-1.28125 10.71875l-4.828125 0z" fill-rule="nonzero"></path><path fill="#d0e0e3" d="m33.61155 117.055115l194.4567 0l0 91.74803l-194.4567 0z" fill-rule="evenodd"></path><path stroke="#000000" stroke-width="1.0" stroke-linejoin="round" stroke-linecap="butt" d="m33.61155 117.055115l194.4567 0l0 91.74803l-194.4567 0z" fill-rule="evenodd"></path><path fill="#000000" d="m45.825424 175.48476l0 -16.328125l1.8125 0q0.296875 0 0.5 0.140625q0.203125 0.125 0.265625 0.40625l0.234375 1.140625q0.75 -0.859375 1.703125 -1.390625q0.96875 -0.53125 2.265625 -0.53125q1.015625 0 1.84375 0.421875q0.84375 0.421875 1.4375 1.21875q0.609375 0.796875 0.9375 1.96875q0.328125 1.171875 0.328125 2.6875q0 1.375 -0.375 2.5625q-0.359375 1.171875 -1.0625 2.03125q-0.6875 0.859375 -1.671875 1.359375q-0.96875 0.484375 -2.171875 0.484375q-1.046875 0 -1.78125 -0.3125q-0.71875 -0.328125 -1.296875 -0.890625l0 5.03125l-2.96875 0zm5.765625 -14.21875q-0.921875 0 -1.578125 0.390625q-0.65625 0.390625 -1.21875 1.09375l0 5.53125q0.5 0.625 1.09375 0.875q0.59375 0.234375 1.28125 0.234375q0.671875 0 1.21875 -0.25q0.546875 -0.25 0.921875 -0.765625q0.375 -0.515625 0.578125 -1.296875q0.21875 -0.796875 0.21875 -1.859375q0 -1.078125 -0.1875 -1.828125q-0.171875 -0.75 -0.5 -1.21875q-0.3125 -0.46875 -0.78125 -0.6875q-0.453125 -0.21875 -1.046875 -0.21875zm7.806473 10.203125l0 -12.3125l1.75 0q0.453125 0 0.625 0.171875q0.1875 0.171875 0.25 0.578125l0.171875 1.484375q0.671875 -1.140625 1.546875 -1.796875q0.890625 -0.671875 2.0 -0.671875q0.90625 0 1.515625 0.421875l-0.390625 2.21875q-0.03125 0.21875 -0.15625 0.3125q-0.125 0.09375 -0.328125 0.09375q-0.171875 0 -0.484375 -0.078125q-0.3125 -0.09375 -0.828125 -0.09375q-0.921875 0 -1.59375 0.515625q-0.65625 0.5 -1.109375 1.484375l0 7.671875l-2.96875 0zm15.069687 -12.5q1.375 0 2.5 0.453125q1.125 0.4375 1.90625 1.25q0.796875 0.8125 1.21875 2.0q0.4375 1.171875 0.4375 2.609375q0 1.46875 -0.4375 2.65625q-0.421875 1.171875 -1.21875 2.0q-0.78125 0.828125 -1.90625 1.28125q-1.125 0.4375 -2.5 0.4375q-1.390625 0 -2.515625 -0.4375q-1.125 -0.453125 -1.921875 -1.28125q-0.796875 -0.828125 -1.234375 -2.0q-0.4375 -1.1875 -0.4375 -2.65625q0 -1.4375 0.4375 -2.609375q0.4375 -1.1875 1.234375 -2.0q0.796875 -0.8125 1.921875 -1.25q1.125 -0.453125 2.515625 -0.453125zm0 10.40625q1.53125 0 2.265625 -1.03125q0.75 -1.03125 0.75 -3.03125q0 -1.984375 -0.75 -3.03125q-0.734375 -1.046875 -2.265625 -1.046875q-1.5625 0 -2.3125 1.046875q-0.734375 1.046875 -0.734375 3.03125q0 1.984375 0.734375 3.03125q0.75 1.03125 2.3125 1.03125zm11.534714 -10.21875l0 12.734375q0 0.796875 -0.21875 1.5q-0.203125 0.71875 -0.671875 1.25q-0.453125 0.53125 -1.203125 0.828125q-0.75 0.3125 -1.828125 0.3125q-0.421875 0 -0.78125 -0.046875q-0.359375 -0.046875 -0.734375 -0.171875l0.109375 -1.59375q0.03125 -0.25 0.1875 -0.3125q0.15625 -0.0625 0.59375 -0.0625q0.453125 0 0.75 -0.09375q0.3125 -0.09375 0.5 -0.296875q0.1875 -0.1875 0.265625 -0.515625q0.078125 -0.3125 0.078125 -0.796875l0 -12.734375l2.953125 0zm0.453125 -3.59375q0 0.390625 -0.15625 0.734375q-0.15625 0.328125 -0.421875 0.578125q-0.25 0.25 -0.609375 0.40625q-0.34375 0.140625 -0.734375 0.140625q-0.390625 0 -0.734375 -0.140625q-0.328125 -0.15625 -0.59375 -0.40625q-0.25 -0.25 -0.40625 -0.578125q-0.140625 -0.34375 -0.140625 -0.734375q0 -0.390625 0.140625 -0.734375q0.15625 -0.34375 0.40625 -0.59375q0.265625 -0.265625 0.59375 -0.40625q0.34375 -0.15625 0.734375 -0.15625q0.390625 0 0.734375 0.15625q0.359375 0.140625 0.609375 0.40625q0.265625 0.25 0.421875 0.59375q0.15625 0.34375 0.15625 0.734375zm7.9404144 3.40625q1.171875 0 2.140625 0.375q0.984375 0.359375 1.6875 1.078125q0.703125 0.71875 1.09375 1.765625q0.40625 1.03125 0.40625 2.359375q0 0.328125 -0.03125 0.5625q-0.03125 0.21875 -0.109375 0.34375q-0.078125 0.125 -0.21875 0.1875q-0.125 0.046875 -0.328125 0.046875l-7.609375 0q0.140625 1.890625 1.015625 2.78125q0.890625 0.890625 2.359375 0.890625q0.71875 0 1.234375 -0.171875q0.53125 -0.171875 0.921875 -0.375q0.390625 -0.203125 0.6875 -0.359375q0.296875 -0.171875 0.5625 -0.171875q0.1875 0 0.3125 0.078125q0.140625 0.0625 0.234375 0.1875l0.859375 1.078125q-0.484375 0.578125 -1.109375 0.96875q-0.609375 0.390625 -1.28125 0.625q-0.65625 0.234375 -1.34375 0.328125q-0.6875 0.109375 -1.34375 0.109375q-1.28125 0 -2.390625 -0.421875q-1.09375 -0.4375 -1.921875 -1.265625q-0.8125 -0.84375 -1.28125 -2.0625q-0.46875 -1.234375 -0.46875 -2.859375q0 -1.265625 0.40625 -2.375q0.421875 -1.109375 1.171875 -1.921875q0.765625 -0.828125 1.859375 -1.296875q1.109375 -0.484375 2.484375 -0.484375zm0.0625 2.125q-1.296875 0 -2.03125 0.734375q-0.734375 0.71875 -0.9375 2.0625l5.578125 0q0 -0.5625 -0.15625 -1.078125q-0.15625 -0.515625 -0.484375 -0.890625q-0.328125 -0.390625 -0.828125 -0.609375q-0.484375 -0.21875 -1.140625 -0.21875zm16.328094 0.671875q-0.125 0.15625 -0.25 0.265625q-0.125 0.09375 -0.375 0.09375q-0.21875 0 -0.4375 -0.140625q-0.21875 -0.140625 -0.515625 -0.3125q-0.296875 -0.171875 -0.71875 -0.3125q-0.40625 -0.140625 -1.03125 -0.140625q-0.78125 0 -1.375 0.28125q-0.578125 0.28125 -0.96875 0.8125q-0.390625 0.53125 -0.578125 1.28125q-0.1875 0.75 -0.1875 1.6875q0 0.984375 0.203125 1.765625q0.21875 0.765625 0.609375 1.296875q0.390625 0.515625 0.953125 0.78125q0.5625 0.265625 1.28125 0.265625q0.703125 0 1.140625 -0.171875q0.4375 -0.171875 0.734375 -0.375q0.3125 -0.21875 0.53125 -0.390625q0.21875 -0.171875 0.5 -0.171875q0.359375 0 0.53125 0.265625l0.859375 1.078125q-0.5 0.578125 -1.078125 0.96875q-0.578125 0.390625 -1.203125 0.625q-0.609375 0.234375 -1.265625 0.328125q-0.65625 0.109375 -1.3125 0.109375q-1.140625 0 -2.15625 -0.421875q-1.0 -0.4375 -1.75 -1.25q-0.75 -0.8125 -1.1875 -2.0q-0.4375 -1.1875 -0.4375 -2.703125q0 -1.34375 0.390625 -2.5q0.390625 -1.171875 1.140625 -2.015625q0.765625 -0.84375 1.875 -1.3125q1.125 -0.484375 2.578125 -0.484375q1.375 0 2.40625 0.453125q1.046875 0.4375 1.875 1.265625l-0.78125 1.078125zm6.8386993 9.890625q-1.59375 0 -2.46875 -0.90625q-0.859375 -0.90625 -0.859375 -2.5l0 -6.875l-1.234375 0q-0.25 0 -0.421875 -0.15625q-0.171875 -0.15625 -0.171875 -0.46875l0 -1.171875l1.984375 -0.328125l0.625 -3.359375q0.046875 -0.234375 0.21875 -0.359375q0.171875 -0.140625 0.4375 -0.140625l1.53125 0l0 3.875l3.25 0l0 2.109375l-3.25 0l0 6.671875q0 0.578125 0.28125 0.90625q0.296875 0.3125 0.78125 0.3125q0.265625 0 0.453125 -0.0625q0.1875 -0.0625 0.328125 -0.125q0.140625 -0.078125 0.25 -0.140625q0.109375 -0.078125 0.21875 -0.078125q0.125 0 0.203125 0.078125q0.09375 0.0625 0.1875 0.1875l0.890625 1.4375q-0.65625 0.546875 -1.5 0.828125q-0.828125 0.265625 -1.734375 0.265625zm14.131821 -7.390625q0.203125 0.390625 0.375 0.8125q0.171875 0.40625 0.34375 0.828125q0.171875 -0.4375 0.34375 -0.859375q0.1875 -0.421875 0.390625 -0.796875l5.125 -9.625q0.09375 -0.171875 0.203125 -0.28125q0.109375 -0.109375 0.234375 -0.15625q0.125 -0.046875 0.28125 -0.0625q0.15625 -0.015625 0.359375 -0.015625l2.4375 0l0 17.359375l-2.84375 0l0 -11.203125q0 -0.3125 0.015625 -0.6875q0.03125 -0.375 0.0625 -0.75l-5.25 9.828125q-0.171875 0.34375 -0.46875 0.53125q-0.28125 0.1875 -0.671875 0.1875l-0.4375 0q-0.390625 0 -0.671875 -0.1875q-0.28125 -0.1875 -0.46875 -0.53125l-5.3125 -9.875q0.046875 0.40625 0.0625 0.78125q0.015625 0.375 0.015625 0.703125l0 11.203125l-2.84375 0l0 -17.359375l2.4375 0q0.21875 0 0.375 0.015625q0.15625 0.015625 0.28125 0.0625q0.125 0.046875 0.234375 0.15625q0.109375 0.109375 0.203125 0.28125l5.1875 9.640625l0 0zm23.085785 7.203125l-1.328125 0q-0.421875 0 -0.671875 -0.125q-0.234375 -0.125 -0.359375 -0.515625l-0.265625 -0.875q-0.46875 0.421875 -0.921875 0.75q-0.4375 0.3125 -0.921875 0.53125q-0.484375 0.203125 -1.03125 0.3125q-0.53125 0.109375 -1.1875 0.109375q-0.78125 0 -1.4375 -0.203125q-0.65625 -0.21875 -1.140625 -0.625q-0.46875 -0.421875 -0.734375 -1.046875q-0.265625 -0.625 -0.265625 -1.453125q0 -0.703125 0.359375 -1.375q0.375 -0.6875 1.21875 -1.21875q0.859375 -0.546875 2.265625 -0.90625q1.421875 -0.375 3.53125 -0.421875l0 -0.71875q0 -1.234375 -0.53125 -1.828125q-0.515625 -0.59375 -1.515625 -0.59375q-0.71875 0 -1.203125 0.171875q-0.46875 0.171875 -0.828125 0.390625q-0.359375 0.203125 -0.65625 0.375q-0.296875 0.15625 -0.65625 0.15625q-0.296875 0 -0.515625 -0.15625q-0.21875 -0.15625 -0.34375 -0.375l-0.546875 -0.953125q2.125 -1.953125 5.125 -1.953125q1.078125 0 1.921875 0.359375q0.84375 0.359375 1.4375 0.984375q0.59375 0.625 0.890625 1.515625q0.3125 0.875 0.3125 1.90625l0 7.78125zm-5.765625 -1.84375q0.453125 0 0.84375 -0.078125q0.390625 -0.09375 0.71875 -0.265625q0.34375 -0.171875 0.65625 -0.40625q0.328125 -0.25 0.65625 -0.59375l0 -2.0625q-1.296875 0.046875 -2.171875 0.21875q-0.875 0.15625 -1.40625 0.40625q-0.515625 0.25 -0.75 0.59375q-0.21875 0.328125 -0.21875 0.734375q0 0.78125 0.46875 1.125q0.46875 0.328125 1.203125 0.328125zm8.673462 1.84375l0 -12.3125l1.8125 0q0.578125 0 0.765625 0.546875l0.203125 0.96875q0.375 -0.390625 0.78125 -0.703125q0.42185974 -0.3125 0.87498474 -0.53125q0.46875 -0.234375 0.984375 -0.34375q0.53125 -0.125 1.15625 -0.125q1.015625 0 1.796875 0.34375q0.78125 0.34375 1.296875 0.96875q0.515625 0.609375 0.78125 1.46875q0.28125 0.84375 0.28125 1.875l0 7.84375l-2.96875 0l0 -7.84375q0 -1.125 -0.53125 -1.734375q-0.515625 -0.625 -1.546875 -0.625q-0.78125 0 -1.453125 0.359375q-0.67185974 0.34375 -1.2656097 0.9375l0 8.90625l-2.96875 0zm23.300339 0l-1.328125 0q-0.421875 0 -0.671875 -0.125q-0.234375 -0.125 -0.359375 -0.515625l-0.265625 -0.875q-0.46875 0.421875 -0.921875 0.75q-0.4375 0.3125 -0.921875 0.53125q-0.484375 0.203125 -1.03125 0.3125q-0.53125 0.109375 -1.1875 0.109375q-0.78125 0 -1.4375 -0.203125q-0.65625 -0.21875 -1.140625 -0.625q-0.46875 -0.421875 -0.734375 -1.046875q-0.265625 -0.625 -0.265625 -1.453125q0 -0.703125 0.359375 -1.375q0.375 -0.6875 1.21875 -1.21875q0.859375 -0.546875 2.265625 -0.90625q1.421875 -0.375 3.53125 -0.421875l0 -0.71875q0 -1.234375 -0.53125 -1.828125q-0.515625 -0.59375 -1.515625 -0.59375q-0.71875 0 -1.203125 0.171875q-0.46875 0.171875 -0.828125 0.390625q-0.359375 0.203125 -0.65625 0.375q-0.296875 0.15625 -0.65625 0.15625q-0.296875 0 -0.515625 -0.15625q-0.21875 -0.15625 -0.34375 -0.375l-0.546875 -0.953125q2.125 -1.953125 5.125 -1.953125q1.078125 0 1.921875 0.359375q0.84375 0.359375 1.4375 0.984375q0.59375 0.625 0.890625 1.515625q0.3125 0.875 0.3125 1.90625l0 7.78125zm-5.765625 -1.84375q0.453125 0 0.84375 -0.078125q0.390625 -0.09375 0.71875 -0.265625q0.34375 -0.171875 0.65625 -0.40625q0.328125 -0.25 0.65625 -0.59375l0 -2.0625q-1.296875 0.046875 -2.171875 0.21875q-0.875 0.15625 -1.40625 0.40625q-0.515625 0.25 -0.75 0.59375q-0.21875 0.328125 -0.21875 0.734375q0 0.78125 0.46875 1.125q0.46875 0.328125 1.203125 0.328125zm12.939087 -10.6875q0.796875 0 1.484375 0.171875q0.703125 0.15625 1.28125 0.46875l3.53125 0l0 1.109375q0 0.265625 -0.140625 0.421875q-0.140625 0.15625 -0.484375 0.21875l-1.109375 0.203125q0.125 0.3125 0.1875 0.671875q0.0625 0.34375 0.0625 0.71875q0 0.921875 -0.375 1.65625q-0.359375 0.734375 -1.0 1.25q-0.640625 0.515625 -1.53125 0.796875q-0.875 0.28125 -1.90625 0.28125q-0.703125 0 -1.359375 -0.125q-0.578125 0.34375 -0.578125 0.78125q0 0.359375 0.34375 0.546875q0.34375 0.171875 0.90625 0.25q0.5625 0.0625 1.265625 0.078125q0.703125 0.015625 1.4375 0.078125q0.75 0.0625 1.453125 0.21875q0.71875 0.140625 1.265625 0.46875q0.5625 0.328125 0.90625 0.890625q0.34375 0.546875 0.34375 1.421875q0 0.8125 -0.40625 1.578125q-0.390625 0.78125 -1.15625 1.375q-0.765625 0.59375 -1.875 0.953125q-1.09375 0.375 -2.515625 0.375q-1.40625 0 -2.4375 -0.265625q-1.03125 -0.265625 -1.703125 -0.71875q-0.671875 -0.453125 -1.015625 -1.046875q-0.328125 -0.578125 -0.328125 -1.21875q0 -0.859375 0.515625 -1.4375q0.53125 -0.59375 1.46875 -0.953125q-0.453125 -0.25 -0.734375 -0.671875q-0.265625 -0.421875 -0.265625 -1.09375q0 -0.265625 0.09375 -0.5625q0.09375 -0.296875 0.28125 -0.578125q0.203125 -0.296875 0.5 -0.546875q0.3125 -0.265625 0.71875 -0.46875q-0.9375 -0.5 -1.484375 -1.34375q-0.53125 -0.84375 -0.53125 -1.96875q0 -0.90625 0.359375 -1.640625q0.375 -0.75 1.03125 -1.265625q0.65625 -0.515625 1.546875 -0.796875q0.890625 -0.28125 1.953125 -0.28125zm3.25 13.078125q0 -0.359375 -0.21875 -0.578125q-0.21875 -0.234375 -0.59375 -0.359375q-0.359375 -0.125 -0.859375 -0.1875q-0.5 -0.0625 -1.0625 -0.09375q-0.546875 -0.03125 -1.140625 -0.046875q-0.59375 -0.03125 -1.15625 -0.109375q-0.5 0.28125 -0.8125 0.65625q-0.296875 0.375 -0.296875 0.875q0 0.3125 0.15625 0.59375q0.171875 0.28125 0.515625 0.484375q0.359375 0.203125 0.921875 0.3125q0.5625 0.125 1.375 0.125q0.828125 0 1.421875 -0.125q0.609375 -0.125 1.0 -0.34375q0.390625 -0.21875 0.5625 -0.53125q0.1875 -0.3125 0.1875 -0.671875zm-3.25 -7.0q0.546875 0 0.953125 -0.140625q0.421875 -0.15625 0.6875 -0.421875q0.265625 -0.265625 0.40625 -0.640625q0.140625 -0.375 0.140625 -0.8125q0 -0.921875 -0.546875 -1.453125q-0.546875 -0.53125 -1.640625 -0.53125q-1.09375 0 -1.640625 0.53125q-0.546875 0.53125 -0.546875 1.453125q0 0.421875 0.140625 0.796875q0.140625 0.375 0.40625 0.65625q0.265625 0.265625 0.671875 0.421875q0.421875 0.140625 0.96875 0.140625zm13.248199 -6.046875q1.171875 0 2.140625 0.375q0.984375 0.359375 1.6875 1.078125q0.703125 0.71875 1.09375 1.765625q0.40625 1.03125 0.40625 2.359375q0 0.328125 -0.03125 0.5625q-0.03125 0.21875 -0.109375 0.34375q-0.078125 0.125 -0.21875 0.1875q-0.125 0.046875 -0.328125 0.046875l-7.609375 0q0.140625 1.890625 1.015625 2.78125q0.890625 0.890625 2.359375 0.890625q0.71875 0 1.234375 -0.171875q0.53125 -0.171875 0.921875 -0.375q0.390625 -0.203125 0.6875 -0.359375q0.296875 -0.171875 0.5625 -0.171875q0.1875 0 0.3125 0.078125q0.140625 0.0625 0.234375 0.1875l0.859375 1.078125q-0.484375 0.578125 -1.109375 0.96875q-0.609375 0.390625 -1.28125 0.625q-0.65625 0.234375 -1.34375 0.328125q-0.6875 0.109375 -1.34375 0.109375q-1.28125 0 -2.390625 -0.421875q-1.09375 -0.4375 -1.921875 -1.265625q-0.8125 -0.84375 -1.28125 -2.0625q-0.46875 -1.234375 -0.46875 -2.859375q0 -1.265625 0.40625 -2.375q0.421875 -1.109375 1.171875 -1.921875q0.765625 -0.828125 1.859375 -1.296875q1.109375 -0.484375 2.484375 -0.484375zm0.0625 2.125q-1.296875 0 -2.03125 0.734375q-0.734375 0.71875 -0.9375 2.0625l5.578125 0q0 -0.5625 -0.15625 -1.078125q-0.15625 -0.515625 -0.484375 -0.890625q-0.328125 -0.390625 -0.828125 -0.609375q-0.484375 -0.21875 -1.140625 -0.21875zm7.6718445 10.375l0 -12.3125l1.75 0q0.453125 0 0.625 0.171875q0.1875 0.171875 0.25 0.578125l0.171875 1.484375q0.671875 -1.140625 1.546875 -1.796875q0.890625 -0.671875 2.0 -0.671875q0.90625 0 1.515625 0.421875l-0.390625 2.21875q-0.03125 0.21875 -0.15625 0.3125q-0.125 0.09375 -0.328125 0.09375q-0.171875 0 -0.484375 -0.078125q-0.3125 -0.09375 -0.828125 -0.09375q-0.921875 0 -1.59375 0.515625q-0.65625 0.5 -1.109375 1.484375l0 7.671875l-2.96875 0z" fill-rule="nonzero"></path><path fill="#000000" fill-opacity="0.0" d="m339.2271 208.80315l0 170.4882" fill-rule="evenodd"></path><path stroke="#9900ff" stroke-width="3.0" stroke-linejoin="round" stroke-linecap="butt" d="m339.2271 208.80315l0 152.4882" fill-rule="evenodd"></path><path fill="#9900ff" stroke="#9900ff" stroke-width="3.0" stroke-linecap="butt" d="m334.2719 361.29135l4.9552 13.614288l4.9552 -13.614288z" fill-rule="evenodd"></path><path fill="#d0e0e3" d="m450.38947 117.055115l194.45667 0l0 91.74803l-194.45667 0z" fill-rule="evenodd"></path><path stroke="#000000" stroke-width="1.0" stroke-linejoin="round" stroke-linecap="butt" d="m450.38947 117.055115l194.45667 0l0 91.74803l-194.45667 0z" fill-rule="evenodd"></path><path fill="#000000" d="m473.18762 153.641l0 17.828125l-2.953125 0l0 -17.828125l2.953125 0zm8.441528 5.328125q1.171875 0 2.140625 0.375q0.984375 0.359375 1.6875 1.078125q0.703125 0.71875 1.09375 1.765625q0.40625 1.03125 0.40625 2.359375q0 0.328125 -0.03125 0.5625q-0.03125 0.21875 -0.109375 0.34375q-0.078125 0.125 -0.21875 0.1875q-0.125 0.046875 -0.328125 0.046875l-7.609375 0q0.140625 1.890625 1.015625 2.78125q0.890625 0.890625 2.359375 0.890625q0.71875 0 1.234375 -0.171875q0.53125 -0.171875 0.921875 -0.375q0.390625 -0.203125 0.6875 -0.359375q0.296875 -0.171875 0.5625 -0.171875q0.1875 0 0.3125 0.078125q0.140625 0.0625 0.234375 0.1875l0.859375 1.078125q-0.484375 0.578125 -1.109375 0.96875q-0.609375 0.390625 -1.28125 0.625q-0.65625 0.234375 -1.34375 0.328125q-0.6875 0.109375 -1.34375 0.109375q-1.28125 0 -2.390625 -0.421875q-1.09375 -0.4375 -1.921875 -1.265625q-0.8125 -0.84375 -1.28125 -2.0625q-0.46875 -1.234375 -0.46875 -2.859375q0 -1.265625 0.40625 -2.375q0.421875 -1.109375 1.171875 -1.921875q0.765625 -0.828125 1.859375 -1.296875q1.109375 -0.484375 2.484375 -0.484375zm0.0625 2.125q-1.296875 0 -2.03125 0.734375q-0.734375 0.71875 -0.9375 2.0625l5.578125 0q0 -0.5625 -0.15625 -1.078125q-0.15625 -0.515625 -0.484375 -0.890625q-0.328125 -0.390625 -0.828125 -0.609375q-0.484375 -0.21875 -1.140625 -0.21875zm17.328094 10.375l-1.328125 0q-0.421875 0 -0.671875 -0.125q-0.234375 -0.125 -0.359375 -0.515625l-0.265625 -0.875q-0.46875 0.421875 -0.921875 0.75q-0.4375 0.3125 -0.921875 0.53125q-0.484375 0.203125 -1.03125 0.3125q-0.53125 0.109375 -1.1875 0.109375q-0.78125 0 -1.4375 -0.203125q-0.65625 -0.21875 -1.140625 -0.625q-0.46875 -0.421875 -0.734375 -1.046875q-0.265625 -0.625 -0.265625 -1.453125q0 -0.703125 0.359375 -1.375q0.375 -0.6875 1.21875 -1.21875q0.859375 -0.546875 2.265625 -0.90625q1.421875 -0.375 3.53125 -0.421875l0 -0.71875q0 -1.234375 -0.53125 -1.828125q-0.515625 -0.59375 -1.515625 -0.59375q-0.71875 0 -1.203125 0.171875q-0.46875 0.171875 -0.828125 0.390625q-0.359375 0.203125 -0.65625 0.375q-0.296875 0.15625 -0.65625 0.15625q-0.296875 0 -0.515625 -0.15625q-0.21875 -0.15625 -0.34375 -0.375l-0.546875 -0.953125q2.125 -1.953125 5.125 -1.953125q1.078125 0 1.921875 0.359375q0.84375 0.359375 1.4375 0.984375q0.59375 0.625 0.890625 1.515625q0.3125 0.875 0.3125 1.90625l0 7.78125zm-5.765625 -1.84375q0.453125 0 0.84375 -0.078125q0.390625 -0.09375 0.71875 -0.265625q0.34375 -0.171875 0.65625 -0.40625q0.328125 -0.25 0.65625 -0.59375l0 -2.0625q-1.296875 0.046875 -2.171875 0.21875q-0.875 0.15625 -1.40625 0.40625q-0.515625 0.25 -0.75 0.59375q-0.21875 0.328125 -0.21875 0.734375q0 0.78125 0.46875 1.125q0.46875 0.328125 1.203125 0.328125zm17.345337 1.84375q-0.578125 0 -0.765625 -0.546875l-0.234375 -1.1875q-0.375 0.4375 -0.796875 0.796875q-0.421875 0.34375 -0.90625 0.59375q-0.484375 0.25 -1.046875 0.390625q-0.5625 0.140625 -1.203125 0.140625q-1.015625 0 -1.859375 -0.421875q-0.828125 -0.421875 -1.4375 -1.21875q-0.609375 -0.796875 -0.9375 -1.96875q-0.328125 -1.1875 -0.328125 -2.703125q0 -1.359375 0.359375 -2.53125q0.375 -1.1875 1.078125 -2.046875q0.703125 -0.859375 1.671875 -1.34375q0.96875 -0.5 2.1875 -0.5q1.03125 0 1.75 0.34375q0.734375 0.328125 1.3125 0.875l0 -6.5l2.9687805 0l0 17.828125l-1.8125305 0zm-3.953125 -2.171875q0.921875 0 1.5625 -0.375q0.65625 -0.390625 1.234375 -1.09375l0 -5.53125q-0.5 -0.609375 -1.09375 -0.859375q-0.59375 -0.25 -1.28125 -0.25q-0.671875 0 -1.21875 0.25q-0.546875 0.25 -0.921875 0.765625q-0.375 0.5 -0.578125 1.296875q-0.203125 0.78125 -0.203125 1.84375q0 1.078125 0.171875 1.828125q0.171875 0.75 0.484375 1.234375q0.328125 0.46875 0.796875 0.6875q0.46875 0.203125 1.046875 0.203125zm24.53946 -6.5q0 1.90625 -0.640625 3.5q-0.625 1.59375 -1.78125 2.75q-1.15625 1.15625 -2.78125 1.796875q-1.609375 0.625 -3.578125 0.625l-6.625 0l0 -17.359375l6.625 0q1.96875 0 3.578125 0.65625q1.625 0.640625 2.78125 1.78125q1.15625 1.140625 1.78125 2.75q0.640625 1.59375 0.640625 3.5zm-3.296875 0q0 -1.4375 -0.390625 -2.5625q-0.375 -1.140625 -1.09375 -1.921875q-0.703125 -0.78125 -1.71875 -1.203125q-1.015625 -0.421875 -2.28125 -0.421875l-3.375 0l0 12.21875l3.375 0q1.265625 0 2.28125 -0.421875q1.015625 -0.421875 1.71875 -1.203125q0.71875 -0.796875 1.09375 -1.921875q0.390625 -1.140625 0.390625 -2.5625zm10.7526245 -3.828125q1.171875 0 2.140625 0.375q0.984375 0.359375 1.6875 1.078125q0.703125 0.71875 1.09375 1.765625q0.40625 1.03125 0.40625 2.359375q0 0.328125 -0.03125 0.5625q-0.03125 0.21875 -0.109375 0.34375q-0.078125 0.125 -0.21875 0.1875q-0.125 0.046875 -0.328125 0.046875l-7.609375 0q0.140625 1.890625 1.015625 2.78125q0.890625 0.890625 2.359375 0.890625q0.71875 0 1.234375 -0.171875q0.53125 -0.171875 0.921875 -0.375q0.390625 -0.203125 0.6875 -0.359375q0.296875 -0.171875 0.5625 -0.171875q0.1875 0 0.3125 0.078125q0.140625 0.0625 0.234375 0.1875l0.859375 1.078125q-0.484375 0.578125 -1.109375 0.96875q-0.609375 0.390625 -1.28125 0.625q-0.65625 0.234375 -1.34375 0.328125q-0.6875 0.109375 -1.34375 0.109375q-1.28125 0 -2.390625 -0.421875q-1.09375 -0.4375 -1.921875 -1.265625q-0.8125 -0.84375 -1.28125 -2.0625q-0.46875 -1.234375 -0.46875 -2.859375q0 -1.265625 0.40625 -2.375q0.421875 -1.109375 1.171875 -1.921875q0.765625 -0.828125 1.859375 -1.296875q1.109375 -0.484375 2.484375 -0.484375zm0.0625 2.125q-1.296875 0 -2.03125 0.734375q-0.734375 0.71875 -0.9375 2.0625l5.578125 0q0 -0.5625 -0.15625 -1.078125q-0.15625 -0.515625 -0.484375 -0.890625q-0.328125 -0.390625 -0.828125 -0.609375q-0.484375 -0.21875 -1.140625 -0.21875zm13.84375 10.375l-2.6875 0l-4.890625 -12.3125l2.453125 0q0.328125 0 0.546875 0.15625q0.21875 0.15625 0.3125 0.390625l2.375 6.578125q0.203125 0.578125 0.34375 1.140625q0.140625 0.546875 0.234375 1.09375q0.109375 -0.546875 0.25 -1.09375q0.140625 -0.5625 0.359375 -1.140625l2.4375 -6.578125q0.078125 -0.234375 0.296875 -0.390625q0.21875 -0.15625 0.515625 -0.15625l2.34375 0l-4.890625 12.3125zm11.725952 -12.5q1.171875 0 2.140625 0.375q0.984375 0.359375 1.6875 1.078125q0.703125 0.71875 1.09375 1.765625q0.40625 1.03125 0.40625 2.359375q0 0.328125 -0.03125 0.5625q-0.03125 0.21875 -0.109375 0.34375q-0.078125 0.125 -0.21875 0.1875q-0.125 0.046875 -0.328125 0.046875l-7.609375 0q0.140625 1.890625 1.015625 2.78125q0.890625 0.890625 2.359375 0.890625q0.71875 0 1.234375 -0.171875q0.53125 -0.171875 0.921875 -0.375q0.390625 -0.203125 0.6875 -0.359375q0.296875 -0.171875 0.5625 -0.171875q0.1875 0 0.3125 0.078125q0.140625 0.0625 0.234375 0.1875l0.859375 1.078125q-0.484375 0.578125 -1.109375 0.96875q-0.609375 0.390625 -1.28125 0.625q-0.65625 0.234375 -1.34375 0.328125q-0.6875 0.109375 -1.34375 0.109375q-1.28125 0 -2.390625 -0.421875q-1.09375 -0.4375 -1.921875 -1.265625q-0.8125 -0.84375 -1.28125 -2.0625q-0.46875 -1.234375 -0.46875 -2.859375q0 -1.265625 0.40625 -2.375q0.421875 -1.109375 1.171875 -1.921875q0.765625 -0.828125 1.859375 -1.296875q1.109375 -0.484375 2.484375 -0.484375zm0.0625 2.125q-1.296875 0 -2.03125 0.734375q-0.734375 0.71875 -0.9375 2.0625l5.578125 0q0 -0.5625 -0.15625 -1.078125q-0.15625 -0.515625 -0.484375 -0.890625q-0.328125 -0.390625 -0.828125 -0.609375q-0.484375 -0.21875 -1.140625 -0.21875zm10.828125 -7.453125l0 17.828125l-2.953125 0l0 -17.828125l2.953125 0zm8.613403 5.328125q1.375 0 2.5 0.453125q1.125 0.4375 1.90625 1.25q0.796875 0.8125 1.21875 2.0q0.4375 1.171875 0.4375 2.609375q0 1.46875 -0.4375 2.65625q-0.421875 1.171875 -1.21875 2.0q-0.78125 0.828125 -1.90625 1.28125q-1.125 0.4375 -2.5 0.4375q-1.390625 0 -2.515625 -0.4375q-1.125 -0.453125 -1.921875 -1.28125q-0.796875 -0.828125 -1.234375 -2.0q-0.4375 -1.1875 -0.4375 -2.65625q0 -1.4375 0.4375 -2.609375q0.4375 -1.1875 1.234375 -2.0q0.796875 -0.8125 1.921875 -1.25q1.125 -0.453125 2.515625 -0.453125zm0 10.40625q1.53125 0 2.265625 -1.03125q0.75 -1.03125 0.75 -3.03125q0 -1.984375 -0.75 -3.03125q-0.734375 -1.046875 -2.265625 -1.046875q-1.5625 0 -2.3125 1.046875q-0.734375 1.046875 -0.734375 3.03125q0 1.984375 0.734375 3.03125q0.75 1.03125 2.3125 1.03125zm8.378479 6.109375l0 -16.328125l1.8125 0q0.296875 0 0.5 0.140625q0.203125 0.125 0.265625 0.40625l0.234375 1.140625q0.75 -0.859375 1.703125 -1.390625q0.96875 -0.53125 2.265625 -0.53125q1.015625 0 1.84375 0.421875q0.84375 0.421875 1.4375 1.21875q0.609375 0.796875 0.9375 1.96875q0.328125 1.171875 0.328125 2.6875q0 1.375 -0.375 2.5625q-0.359375 1.171875 -1.0625 2.03125q-0.6875 0.859375 -1.671875 1.359375q-0.96875 0.484375 -2.171875 0.484375q-1.046875 0 -1.78125 -0.3125q-0.71875 -0.328125 -1.296875 -0.890625l0 5.03125l-2.96875 0zm5.765625 -14.21875q-0.921875 0 -1.578125 0.390625q-0.65625 0.390625 -1.21875 1.09375l0 5.53125q0.5 0.625 1.09375 0.875q0.59375 0.234375 1.28125 0.234375q0.671875 0 1.21875 -0.25q0.546875 -0.25 0.921875 -0.765625q0.375 -0.515625 0.578125 -1.296875q0.21875 -0.796875 0.21875 -1.859375q0 -1.078125 -0.1875 -1.828125q-0.171875 -0.75 -0.5 -1.21875q-0.3125 -0.46875 -0.78125 -0.6875q-0.453125 -0.21875 -1.046875 -0.21875zm12.9002075 -2.296875q1.171875 0 2.140625 0.375q0.984375 0.359375 1.6875 1.078125q0.703125 0.71875 1.09375 1.765625q0.40625 1.03125 0.40625 2.359375q0 0.328125 -0.03125 0.5625q-0.03125 0.21875 -0.109375 0.34375q-0.078125 0.125 -0.21875 0.1875q-0.125 0.046875 -0.328125 0.046875l-7.609375 0q0.140625 1.890625 1.015625 2.78125q0.890625 0.890625 2.359375 0.890625q0.71875 0 1.234375 -0.171875q0.53125 -0.171875 0.921875 -0.375q0.390625 -0.203125 0.6875 -0.359375q0.296875 -0.171875 0.5625 -0.171875q0.1875 0 0.3125 0.078125q0.140625 0.0625 0.234375 0.1875l0.859375 1.078125q-0.484375 0.578125 -1.109375 0.96875q-0.609375 0.390625 -1.28125 0.625q-0.65625 0.234375 -1.34375 0.328125q-0.6875 0.109375 -1.34375 0.109375q-1.28125 0 -2.390625 -0.421875q-1.09375 -0.4375 -1.921875 -1.265625q-0.8125 -0.84375 -1.28125 -2.0625q-0.46875 -1.234375 -0.46875 -2.859375q0 -1.265625 0.40625 -2.375q0.421875 -1.109375 1.171875 -1.921875q0.765625 -0.828125 1.859375 -1.296875q1.109375 -0.484375 2.484375 -0.484375zm0.0625 2.125q-1.296875 0 -2.03125 0.734375q-0.734375 0.71875 -0.9375 2.0625l5.578125 0q0 -0.5625 -0.15625 -1.078125q-0.15625 -0.515625 -0.484375 -0.890625q-0.328125 -0.390625 -0.828125 -0.609375q-0.484375 -0.21875 -1.140625 -0.21875zm7.671814 10.375l0 -12.3125l1.75 0q0.453125 0 0.625 0.171875q0.1875 0.171875 0.25 0.578125l0.171875 1.484375q0.671875 -1.140625 1.546875 -1.796875q0.890625 -0.671875 2.0 -0.671875q0.90625 0 1.515625 0.421875l-0.390625 2.21875q-0.03125 0.21875 -0.15625 0.3125q-0.125 0.09375 -0.328125 0.09375q-0.171875 0 -0.484375 -0.078125q-0.3125 -0.09375 -0.828125 -0.09375q-0.921875 0 -1.59375 0.515625q-0.65625 0.5 -1.109375 1.484375l0 7.671875l-2.96875 0z" fill-rule="nonzero"></path><path fill="#d0e0e3" d="m658.7776 117.055115l194.45673 0l0 91.74803l-194.45673 0z" fill-rule="evenodd"></path><path stroke="#000000" stroke-width="1.0" stroke-linejoin="round" stroke-linecap="butt" d="m658.7776 117.055115l194.45673 0l0 91.74803l-194.45673 0z" fill-rule="evenodd"></path><path fill="#000000" d="m689.7238 153.641l0 17.828125l-2.953125 0l0 -17.828125l2.953125 0zm8.441528 5.328125q1.171875 0 2.140625 0.375q0.984375 0.359375 1.6875 1.078125q0.703125 0.71875 1.09375 1.765625q0.40625 1.03125 0.40625 2.359375q0 0.328125 -0.03125 0.5625q-0.03125 0.21875 -0.109375 0.34375q-0.078125 0.125 -0.21875 0.1875q-0.125 0.046875 -0.328125 0.046875l-7.609375 0q0.140625 1.890625 1.015625 2.78125q0.890625 0.890625 2.359375 0.890625q0.71875 0 1.234375 -0.171875q0.53125 -0.171875 0.921875 -0.375q0.390625 -0.203125 0.6875 -0.359375q0.296875 -0.171875 0.5625 -0.171875q0.1875 0 0.3125 0.078125q0.140625 0.0625 0.234375 0.1875l0.859375 1.078125q-0.484375 0.578125 -1.109375 0.96875q-0.609375 0.390625 -1.28125 0.625q-0.65625 0.234375 -1.34375 0.328125q-0.6875 0.109375 -1.34375 0.109375q-1.28125 0 -2.390625 -0.421875q-1.09375 -0.4375 -1.921875 -1.265625q-0.8125 -0.84375 -1.28125 -2.0625q-0.46875 -1.234375 -0.46875 -2.859375q0 -1.265625 0.40625 -2.375q0.421875 -1.109375 1.171875 -1.921875q0.765625 -0.828125 1.859375 -1.296875q1.109375 -0.484375 2.484375 -0.484375zm0.0625 2.125q-1.296875 0 -2.03125 0.734375q-0.734375 0.71875 -0.9375 2.0625l5.578125 0q0 -0.5625 -0.15625 -1.078125q-0.15625 -0.515625 -0.484375 -0.890625q-0.328125 -0.390625 -0.828125 -0.609375q-0.484375 -0.21875 -1.140625 -0.21875zm17.328125 10.375l-1.328125 0q-0.421875 0 -0.671875 -0.125q-0.234375 -0.125 -0.359375 -0.515625l-0.265625 -0.875q-0.46875 0.421875 -0.921875 0.75q-0.4375 0.3125 -0.921875 0.53125q-0.484375 0.203125 -1.03125 0.3125q-0.53125 0.109375 -1.1875 0.109375q-0.78125 0 -1.4375 -0.203125q-0.65625 -0.21875 -1.140625 -0.625q-0.46875 -0.421875 -0.734375 -1.046875q-0.265625 -0.625 -0.265625 -1.453125q0 -0.703125 0.359375 -1.375q0.375 -0.6875 1.21875 -1.21875q0.859375 -0.546875 2.265625 -0.90625q1.421875 -0.375 3.53125 -0.421875l0 -0.71875q0 -1.234375 -0.53125 -1.828125q-0.515625 -0.59375 -1.515625 -0.59375q-0.71875 0 -1.203125 0.171875q-0.46875 0.171875 -0.828125 0.390625q-0.359375 0.203125 -0.65625 0.375q-0.296875 0.15625 -0.65625 0.15625q-0.296875 0 -0.515625 -0.15625q-0.21875 -0.15625 -0.34375 -0.375l-0.546875 -0.953125q2.125 -1.953125 5.125 -1.953125q1.078125 0 1.921875 0.359375q0.84375 0.359375 1.4375 0.984375q0.59375 0.625 0.890625 1.515625q0.3125 0.875 0.3125 1.90625l0 7.78125zm-5.765625 -1.84375q0.453125 0 0.84375 -0.078125q0.390625 -0.09375 0.71875 -0.265625q0.34375 -0.171875 0.65625 -0.40625q0.328125 -0.25 0.65625 -0.59375l0 -2.0625q-1.296875 0.046875 -2.171875 0.21875q-0.875 0.15625 -1.40625 0.40625q-0.515625 0.25 -0.75 0.59375q-0.21875 0.328125 -0.21875 0.734375q0 0.78125 0.46875 1.125q0.46875 0.328125 1.203125 0.328125zm17.345337 1.84375q-0.578125 0 -0.765625 -0.546875l-0.234375 -1.1875q-0.375 0.4375 -0.796875 0.796875q-0.421875 0.34375 -0.90625 0.59375q-0.484375 0.25 -1.046875 0.390625q-0.5625 0.140625 -1.203125 0.140625q-1.015625 0 -1.859375 -0.421875q-0.828125 -0.421875 -1.4375 -1.21875q-0.609375 -0.796875 -0.9375 -1.96875q-0.328125 -1.1875 -0.328125 -2.703125q0 -1.359375 0.359375 -2.53125q0.375 -1.1875 1.078125 -2.046875q0.703125 -0.859375 1.671875 -1.34375q0.96875 -0.5 2.1875 -0.5q1.03125 0 1.75 0.34375q0.734375 0.328125 1.3125 0.875l0 -6.5l2.96875 0l0 17.828125l-1.8125 0zm-3.953125 -2.171875q0.921875 0 1.5625 -0.375q0.65625 -0.390625 1.234375 -1.09375l0 -5.53125q-0.5 -0.609375 -1.09375 -0.859375q-0.59375 -0.25 -1.28125 -0.25q-0.671875 0 -1.21875 0.25q-0.546875 0.25 -0.921875 0.765625q-0.375 0.5 -0.578125 1.296875q-0.203125 0.78125 -0.203125 1.84375q0 1.078125 0.171875 1.828125q0.171875 0.75 0.484375 1.234375q0.328125 0.46875 0.796875 0.6875q0.46875 0.203125 1.046875 0.203125zm24.53949 -6.5q0 1.90625 -0.640625 3.5q-0.625 1.59375 -1.78125 2.75q-1.15625 1.15625 -2.78125 1.796875q-1.609375 0.625 -3.578125 0.625l-6.625 0l0 -17.359375l6.625 0q1.96875 0 3.578125 0.65625q1.625 0.640625 2.78125 1.78125q1.15625 1.140625 1.78125 2.75q0.640625 1.59375 0.640625 3.5zm-3.296875 0q0 -1.4375 -0.390625 -2.5625q-0.375 -1.140625 -1.09375 -1.921875q-0.703125 -0.78125 -1.71875 -1.203125q-1.015625 -0.421875 -2.28125 -0.421875l-3.375 0l0 12.21875l3.375 0q1.265625 0 2.28125 -0.421875q1.015625 -0.421875 1.71875 -1.203125q0.71875 -0.796875 1.09375 -1.921875q0.390625 -1.140625 0.390625 -2.5625zm10.7526245 -3.828125q1.171875 0 2.140625 0.375q0.984375 0.359375 1.6875 1.078125q0.703125 0.71875 1.09375 1.765625q0.40625 1.03125 0.40625 2.359375q0 0.328125 -0.03125 0.5625q-0.03125 0.21875 -0.109375 0.34375q-0.078125 0.125 -0.21875 0.1875q-0.125 0.046875 -0.328125 0.046875l-7.609375 0q0.140625 1.890625 1.015625 2.78125q0.890625 0.890625 2.359375 0.890625q0.71875 0 1.234375 -0.171875q0.53125 -0.171875 0.921875 -0.375q0.390625 -0.203125 0.6875 -0.359375q0.296875 -0.171875 0.5625 -0.171875q0.1875 0 0.3125 0.078125q0.140625 0.0625 0.234375 0.1875l0.859375 1.078125q-0.484375 0.578125 -1.109375 0.96875q-0.609375 0.390625 -1.28125 0.625q-0.65625 0.234375 -1.34375 0.328125q-0.6875 0.109375 -1.34375 0.109375q-1.28125 0 -2.390625 -0.421875q-1.09375 -0.4375 -1.921875 -1.265625q-0.8125 -0.84375 -1.28125 -2.0625q-0.46875 -1.234375 -0.46875 -2.859375q0 -1.265625 0.40625 -2.375q0.421875 -1.109375 1.171875 -1.921875q0.765625 -0.828125 1.859375 -1.296875q1.109375 -0.484375 2.484375 -0.484375zm0.0625 2.125q-1.296875 0 -2.03125 0.734375q-0.734375 0.71875 -0.9375 2.0625l5.578125 0q0 -0.5625 -0.15625 -1.078125q-0.15625 -0.515625 -0.484375 -0.890625q-0.328125 -0.390625 -0.828125 -0.609375q-0.484375 -0.21875 -1.140625 -0.21875zm14.984314 0.46875q-0.125 0.1875 -0.25 0.265625q-0.125 0.078125 -0.34375 0.078125q-0.203125 0 -0.453125 -0.109375q-0.25 -0.125 -0.578125 -0.28125q-0.3125 -0.15625 -0.734375 -0.265625q-0.40625 -0.125 -0.96875 -0.125q-0.875 0 -1.390625 0.375q-0.5 0.375 -0.5 0.96875q0 0.390625 0.25 0.671875q0.265625 0.265625 0.6875 0.46875q0.4375 0.203125 0.96875 0.375q0.546875 0.15625 1.109375 0.34375q0.5625 0.1875 1.09375 0.4375q0.546875 0.25 0.96875 0.625q0.4375 0.375 0.6875 0.90625q0.265625 0.53125 0.265625 1.265625q0 0.890625 -0.328125 1.640625q-0.328125 0.75 -0.953125 1.296875q-0.625 0.546875 -1.546875 0.859375q-0.90625 0.296875 -2.09375 0.296875q-0.640625 0 -1.25 -0.109375q-0.609375 -0.109375 -1.171875 -0.3125q-0.546875 -0.203125 -1.03125 -0.484375q-0.46875 -0.28125 -0.828125 -0.59375l0.6875 -1.140625q0.125 -0.203125 0.3125 -0.3125q0.1875 -0.109375 0.453125 -0.109375q0.28125 0 0.515625 0.15625q0.25 0.15625 0.578125 0.34375q0.328125 0.171875 0.765625 0.328125q0.4375 0.15625 1.109375 0.15625q0.53125 0 0.90625 -0.125q0.375 -0.125 0.625 -0.328125q0.25 -0.203125 0.359375 -0.46875q0.109375 -0.265625 0.109375 -0.5625q0 -0.421875 -0.265625 -0.703125q-0.25 -0.28125 -0.671875 -0.484375q-0.421875 -0.203125 -0.96875 -0.359375q-0.546875 -0.171875 -1.125 -0.359375q-0.5625 -0.1875 -1.109375 -0.4375q-0.546875 -0.265625 -0.984375 -0.65625q-0.421875 -0.40625 -0.6875 -0.984375q-0.25 -0.578125 -0.25 -1.390625q0 -0.75 0.296875 -1.4375q0.3125 -0.6875 0.890625 -1.1875q0.578125 -0.515625 1.453125 -0.8125q0.875 -0.3125 2.015625 -0.3125q1.265625 0 2.3125 0.421875q1.046875 0.40625 1.734375 1.09375l-0.671875 1.078125zm6.331848 -2.40625l0 12.3125l-2.953125 0l0 -12.3125l2.953125 0zm0.453125 -3.59375q0 0.390625 -0.15625 0.734375q-0.15625 0.328125 -0.421875 0.578125q-0.25 0.25 -0.609375 0.40625q-0.34375 0.140625 -0.734375 0.140625q-0.390625 0 -0.734375 -0.140625q-0.328125 -0.15625 -0.59375 -0.40625q-0.25 -0.25 -0.40625 -0.578125q-0.140625 -0.34375 -0.140625 -0.734375q0 -0.390625 0.140625 -0.734375q0.15625 -0.34375 0.40625 -0.59375q0.265625 -0.265625 0.59375 -0.40625q0.34375 -0.15625 0.734375 -0.15625q0.390625 0 0.734375 0.15625q0.359375 0.140625 0.609375 0.40625q0.265625 0.25 0.421875 0.59375q0.15625 0.34375 0.15625 0.734375zm7.1602783 3.375q0.796875 0 1.484375 0.171875q0.703125 0.15625 1.28125 0.46875l3.53125 0l0 1.109375q0 0.265625 -0.140625 0.421875q-0.140625 0.15625 -0.484375 0.21875l-1.109375 0.203125q0.125 0.3125 0.1875 0.671875q0.0625 0.34375 0.0625 0.71875q0 0.921875 -0.375 1.65625q-0.359375 0.734375 -1.0 1.25q-0.640625 0.515625 -1.53125 0.796875q-0.875 0.28125 -1.90625 0.28125q-0.703125 0 -1.359375 -0.125q-0.578125 0.34375 -0.578125 0.78125q0 0.359375 0.34375 0.546875q0.34375 0.171875 0.90625 0.25q0.5625 0.0625 1.265625 0.078125q0.703125 0.015625 1.4375 0.078125q0.75 0.0625 1.453125 0.21875q0.71875 0.140625 1.265625 0.46875q0.5625 0.328125 0.90625 0.890625q0.34375 0.546875 0.34375 1.421875q0 0.8125 -0.40625 1.578125q-0.390625 0.78125 -1.15625 1.375q-0.765625 0.59375 -1.875 0.953125q-1.09375 0.375 -2.515625 0.375q-1.40625 0 -2.4375 -0.265625q-1.03125 -0.265625 -1.703125 -0.71875q-0.671875 -0.453125 -1.015625 -1.046875q-0.328125 -0.578125 -0.328125 -1.21875q0 -0.859375 0.515625 -1.4375q0.53125 -0.59375 1.46875 -0.953125q-0.453125 -0.25 -0.734375 -0.671875q-0.265625 -0.421875 -0.265625 -1.09375q0 -0.265625 0.09375 -0.5625q0.09375 -0.296875 0.28125 -0.578125q0.203125 -0.296875 0.5 -0.546875q0.3125 -0.265625 0.71875 -0.46875q-0.9375 -0.5 -1.484375 -1.34375q-0.53125 -0.84375 -0.53125 -1.96875q0 -0.90625 0.359375 -1.640625q0.375 -0.75 1.03125 -1.265625q0.65625 -0.515625 1.546875 -0.796875q0.890625 -0.28125 1.953125 -0.28125zm3.25 13.078125q0 -0.359375 -0.21875 -0.578125q-0.21875 -0.234375 -0.59375 -0.359375q-0.359375 -0.125 -0.859375 -0.1875q-0.5 -0.0625 -1.0625 -0.09375q-0.546875 -0.03125 -1.140625 -0.046875q-0.59375 -0.03125 -1.15625 -0.109375q-0.5 0.28125 -0.8125 0.65625q-0.296875 0.375 -0.296875 0.875q0 0.3125 0.15625 0.59375q0.171875 0.28125 0.515625 0.484375q0.359375 0.203125 0.921875 0.3125q0.5625 0.125 1.375 0.125q0.828125 0 1.421875 -0.125q0.609375 -0.125 1.0 -0.34375q0.390625 -0.21875 0.5625 -0.53125q0.1875 -0.3125 0.1875 -0.671875zm-3.25 -7.0q0.546875 0 0.953125 -0.140625q0.421875 -0.15625 0.6875 -0.421875q0.265625 -0.265625 0.40625 -0.640625q0.140625 -0.375 0.140625 -0.8125q0 -0.921875 -0.546875 -1.453125q-0.546875 -0.53125 -1.640625 -0.53125q-1.09375 0 -1.640625 0.53125q-0.546875 0.53125 -0.546875 1.453125q0 0.421875 0.140625 0.796875q0.140625 0.375 0.40625 0.65625q0.265625 0.265625 0.671875 0.421875q0.421875 0.140625 0.96875 0.140625zm8.15448 6.453125l0 -12.3125l1.8125 0q0.578125 0 0.765625 0.546875l0.203125 0.96875q0.375 -0.390625 0.78125 -0.703125q0.421875 -0.3125 0.875 -0.53125q0.46875 -0.234375 0.984375 -0.34375q0.53125 -0.125 1.15625 -0.125q1.015625 0 1.796875 0.34375q0.78125 0.34375 1.296875 0.96875q0.515625 0.609375 0.78125 1.46875q0.28125 0.84375 0.28125 1.875l0 7.84375l-2.96875 0l0 -7.84375q0 -1.125 -0.53125 -1.734375q-0.515625 -0.625 -1.546875 -0.625q-0.78125 0 -1.453125 0.359375q-0.671875 0.34375 -1.265625 0.9375l0 8.90625l-2.96875 0zm18.737793 -12.5q1.171875 0 2.140625 0.375q0.984375 0.359375 1.6875 1.078125q0.703125 0.71875 1.09375 1.765625q0.40625 1.03125 0.40625 2.359375q0 0.328125 -0.03125 0.5625q-0.03125 0.21875 -0.109375 0.34375q-0.078125 0.125 -0.21875 0.1875q-0.125 0.046875 -0.328125 0.046875l-7.609375 0q0.140625 1.890625 1.015625 2.78125q0.890625 0.890625 2.359375 0.890625q0.71875 0 1.234375 -0.171875q0.53125 -0.171875 0.921875 -0.375q0.390625 -0.203125 0.6875 -0.359375q0.296875 -0.171875 0.5625 -0.171875q0.1875 0 0.3125 0.078125q0.140625 0.0625 0.234375 0.1875l0.859375 1.078125q-0.484375 0.578125 -1.109375 0.96875q-0.609375 0.390625 -1.28125 0.625q-0.65625 0.234375 -1.34375 0.328125q-0.6875 0.109375 -1.34375 0.109375q-1.28125 0 -2.390625 -0.421875q-1.09375 -0.4375 -1.921875 -1.265625q-0.8125 -0.84375 -1.28125 -2.0625q-0.46875 -1.234375 -0.46875 -2.859375q0 -1.265625 0.40625 -2.375q0.421875 -1.109375 1.171875 -1.921875q0.765625 -0.828125 1.859375 -1.296875q1.109375 -0.484375 2.484375 -0.484375zm0.0625 2.125q-1.296875 0 -2.03125 0.734375q-0.734375 0.71875 -0.9375 2.0625l5.578125 0q0 -0.5625 -0.15625 -1.078125q-0.15625 -0.515625 -0.484375 -0.890625q-0.328125 -0.390625 -0.828125 -0.609375q-0.484375 -0.21875 -1.140625 -0.21875zm7.671875 10.375l0 -12.3125l1.75 0q0.453125 0 0.625 0.171875q0.1875 0.171875 0.25 0.578125l0.171875 1.484375q0.671875 -1.140625 1.546875 -1.796875q0.890625 -0.671875 2.0 -0.671875q0.90625 0 1.515625 0.421875l-0.390625 2.21875q-0.03125 0.21875 -0.15625 0.3125q-0.125 0.09375 -0.328125 0.09375q-0.171875 0 -0.484375 -0.078125q-0.3125 -0.09375 -0.828125 -0.09375q-0.921875 0 -1.59375 0.515625q-0.65625 0.5 -1.109375 1.484375l0 7.671875l-2.96875 0z" fill-rule="nonzero"></path><path fill="#d0e0e3" d="m867.1657 117.055115l194.45673 0l0 91.74803l-194.45673 0z" fill-rule="evenodd"></path><path stroke="#000000" stroke-width="1.0" stroke-linejoin="round" stroke-linecap="butt" d="m867.1657 117.055115l194.45673 0l0 91.74803l-194.45673 0z" fill-rule="evenodd"></path><path fill="#000000" d="m920.67474 171.65663q-1.59375 0 -2.46875 -0.90625q-0.859375 -0.90625 -0.859375 -2.5l0 -6.875l-1.234375 0q-0.25 0 -0.421875 -0.15625q-0.171875 -0.15625 -0.171875 -0.46875l0 -1.171875l1.984375 -0.328125l0.625 -3.359375q0.046875 -0.234375 0.21875 -0.359375q0.171875 -0.140625 0.4375 -0.140625l1.53125 0l0 3.875l3.25 0l0 2.109375l-3.25 0l0 6.671875q0 0.578125 0.28125 0.90625q0.296875 0.3125 0.78125 0.3125q0.265625 0 0.453125 -0.0625q0.1875 -0.0625 0.328125 -0.125q0.140625 -0.078125 0.25 -0.140625q0.109375 -0.078125 0.21875 -0.078125q0.125 0 0.203125 0.078125q0.09375 0.0625 0.1875 0.1875l0.890625 1.4375q-0.65625 0.546875 -1.5 0.828125q-0.828125 0.265625 -1.734375 0.265625zm10.334961 -12.6875q1.171875 0 2.140625 0.375q0.984375 0.359375 1.6875 1.078125q0.703125 0.71875 1.09375 1.765625q0.40625 1.03125 0.40625 2.359375q0 0.328125 -0.03125 0.5625q-0.03125 0.21875 -0.109375 0.34375q-0.078125 0.125 -0.21875 0.1875q-0.125 0.046875 -0.328125 0.046875l-7.609375 0q0.140625 1.890625 1.015625 2.78125q0.890625 0.890625 2.359375 0.890625q0.71875 0 1.234375 -0.171875q0.53125 -0.171875 0.921875 -0.375q0.390625 -0.203125 0.6875 -0.359375q0.296875 -0.171875 0.5625 -0.171875q0.1875 0 0.3125 0.078125q0.140625 0.0625 0.234375 0.1875l0.859375 1.078125q-0.484375 0.578125 -1.109375 0.96875q-0.609375 0.390625 -1.28125 0.625q-0.65625 0.234375 -1.34375 0.328125q-0.6875 0.109375 -1.34375 0.109375q-1.28125 0 -2.390625 -0.421875q-1.09375 -0.4375 -1.921875 -1.265625q-0.8125 -0.84375 -1.28125 -2.0625q-0.46875 -1.234375 -0.46875 -2.859375q0 -1.265625 0.40625 -2.375q0.421875 -1.109375 1.171875 -1.921875q0.765625 -0.828125 1.859375 -1.296875q1.109375 -0.484375 2.484375 -0.484375zm0.0625 2.125q-1.296875 0 -2.03125 0.734375q-0.734375 0.71875 -0.9375 2.0625l5.578125 0q0 -0.5625 -0.15625 -1.078125q-0.15625 -0.515625 -0.484375 -0.890625q-0.328125 -0.390625 -0.828125 -0.609375q-0.484375 -0.21875 -1.140625 -0.21875zm16.328064 0.671875q-0.125 0.15625 -0.25 0.265625q-0.125 0.09375 -0.375 0.09375q-0.21875 0 -0.4375 -0.140625q-0.21875 -0.140625 -0.515625 -0.3125q-0.296875 -0.171875 -0.71875 -0.3125q-0.40625 -0.140625 -1.03125 -0.140625q-0.78125 0 -1.375 0.28125q-0.578125 0.28125 -0.96875 0.8125q-0.390625 0.53125 -0.578125 1.28125q-0.1875 0.75 -0.1875 1.6875q0 0.984375 0.203125 1.765625q0.21875 0.765625 0.609375 1.296875q0.390625 0.515625 0.953125 0.78125q0.5625 0.265625 1.28125 0.265625q0.703125 0 1.140625 -0.171875q0.4375 -0.171875 0.734375 -0.375q0.3125 -0.21875 0.53125 -0.390625q0.21875 -0.171875 0.5 -0.171875q0.359375 0 0.53125 0.265625l0.859375 1.078125q-0.5 0.578125 -1.078125 0.96875q-0.578125 0.390625 -1.203125 0.625q-0.609375 0.234375 -1.265625 0.328125q-0.65625 0.109375 -1.3125 0.109375q-1.140625 0 -2.15625 -0.421875q-1.0 -0.4375 -1.75 -1.25q-0.75 -0.8125 -1.1875 -2.0q-0.4375 -1.1875 -0.4375 -2.703125q0 -1.34375 0.390625 -2.5q0.390625 -1.171875 1.140625 -2.015625q0.765625 -0.84375 1.875 -1.3125q1.125 -0.484375 2.578125 -0.484375q1.375 0 2.40625 0.453125q1.046875 0.4375 1.875 1.265625l-0.78125 1.078125zm2.791809 9.703125l0 -17.828125l2.96875 0l0 6.84375q0.71875 -0.6875 1.578125 -1.09375q0.875 -0.421875 2.03125 -0.421875q1.015625 0 1.796875 0.34375q0.78125 0.34375 1.296875 0.96875q0.515625 0.609375 0.78125 1.46875q0.28125 0.84375 0.28125 1.875l0 7.84375l-2.96875 0l0 -7.84375q0 -1.125 -0.53125 -1.734375q-0.515625 -0.625 -1.546875 -0.625q-0.78125 0 -1.453125 0.359375q-0.671875 0.34375 -1.265625 0.9375l0 8.90625l-2.96875 0zm17.050354 -2.65625l6.9375 0l0 2.65625l-10.171875 0l0 -17.359375l3.234375 0l0 14.703125zm14.095581 -9.84375q1.171875 0 2.140625 0.375q0.984375 0.359375 1.6875 1.078125q0.703125 0.71875 1.09375 1.765625q0.40625 1.03125 0.40625 2.359375q0 0.328125 -0.03125 0.5625q-0.03125 0.21875 -0.109375 0.34375q-0.078125 0.125 -0.21875 0.1875q-0.125 0.046875 -0.328125 0.046875l-7.609375 0q0.140625 1.890625 1.015625 2.78125q0.890625 0.890625 2.359375 0.890625q0.71875 0 1.234375 -0.171875q0.53125 -0.171875 0.921875 -0.375q0.390625 -0.203125 0.6875 -0.359375q0.296875 -0.171875 0.5625 -0.171875q0.1875 0 0.3125 0.078125q0.140625 0.0625 0.234375 0.1875l0.859375 1.078125q-0.484375 0.578125 -1.109375 0.96875q-0.609375 0.390625 -1.28125 0.625q-0.65625 0.234375 -1.34375 0.328125q-0.6875 0.109375 -1.34375 0.109375q-1.28125 0 -2.390625 -0.421875q-1.09375 -0.4375 -1.921875 -1.265625q-0.8125 -0.84375 -1.28125 -2.0625q-0.46875 -1.234375 -0.46875 -2.859375q0 -1.265625 0.40625 -2.375q0.421875 -1.109375 1.171875 -1.921875q0.765625 -0.828125 1.859375 -1.296875q1.109375 -0.484375 2.484375 -0.484375zm0.0625 2.125q-1.296875 0 -2.03125 0.734375q-0.734375 0.71875 -0.9375 2.0625l5.578125 0q0 -0.5625 -0.15625 -1.078125q-0.15625 -0.515625 -0.484375 -0.890625q-0.328125 -0.390625 -0.828125 -0.609375q-0.484375 -0.21875 -1.140625 -0.21875zm17.328125 10.375l-1.328125 0q-0.421875 0 -0.671875 -0.125q-0.234375 -0.125 -0.359375 -0.515625l-0.265625 -0.875q-0.46875 0.421875 -0.921875 0.75q-0.4375 0.3125 -0.921875 0.53125q-0.484375 0.203125 -1.03125 0.3125q-0.53125 0.109375 -1.1875 0.109375q-0.78125 0 -1.4375 -0.203125q-0.65625 -0.21875 -1.140625 -0.625q-0.46875 -0.421875 -0.734375 -1.046875q-0.265625 -0.625 -0.265625 -1.453125q0 -0.703125 0.359375 -1.375q0.375 -0.6875 1.21875 -1.21875q0.859375 -0.546875 2.265625 -0.90625q1.421875 -0.375 3.53125 -0.421875l0 -0.71875q0 -1.234375 -0.53125 -1.828125q-0.515625 -0.59375 -1.515625 -0.59375q-0.71875 0 -1.203125 0.171875q-0.46875 0.171875 -0.828125 0.390625q-0.359375 0.203125 -0.65625 0.375q-0.296875 0.15625 -0.65625 0.15625q-0.296875 0 -0.515625 -0.15625q-0.21875 -0.15625 -0.34375 -0.375l-0.546875 -0.953125q2.125 -1.953125 5.125 -1.953125q1.078125 0 1.921875 0.359375q0.84375 0.359375 1.4375 0.984375q0.59375 0.625 0.890625 1.515625q0.3125 0.875 0.3125 1.90625l0 7.78125zm-5.765625 -1.84375q0.453125 0 0.84375 -0.078125q0.390625 -0.09375 0.71875 -0.265625q0.34375 -0.171875 0.65625 -0.40625q0.328125 -0.25 0.65625 -0.59375l0 -2.0625q-1.296875 0.046875 -2.171875 0.21875q-0.875 0.15625 -1.40625 0.40625q-0.515625 0.25 -0.75 0.59375q-0.21875 0.328125 -0.21875 0.734375q0 0.78125 0.46875 1.125q0.46875 0.328125 1.203125 0.328125zm17.345337 1.84375q-0.578125 0 -0.765625 -0.546875l-0.234375 -1.1875q-0.375 0.4375 -0.796875 0.796875q-0.421875 0.34375 -0.90625 0.59375q-0.484375 0.25 -1.046875 0.390625q-0.5625 0.140625 -1.203125 0.140625q-1.015625 0 -1.859375 -0.421875q-0.828125 -0.421875 -1.4375 -1.21875q-0.609375 -0.796875 -0.9375 -1.96875q-0.328125 -1.1875 -0.328125 -2.703125q0 -1.359375 0.359375 -2.53125q0.375 -1.1875 1.078125 -2.046875q0.703125 -0.859375 1.671875 -1.34375q0.96875 -0.5 2.1875 -0.5q1.03125 0 1.75 0.34375q0.734375 0.328125 1.3125 0.875l0 -6.5l2.96875 0l0 17.828125l-1.8125 0zm-3.953125 -2.171875q0.921875 0 1.5625 -0.375q0.65625 -0.390625 1.234375 -1.09375l0 -5.53125q-0.5 -0.609375 -1.09375 -0.859375q-0.59375 -0.25 -1.28125 -0.25q-0.671875 0 -1.21875 0.25q-0.546875 0.25 -0.921875 0.765625q-0.375 0.5 -0.578125 1.296875q-0.203125 0.78125 -0.203125 1.84375q0 1.078125 0.171875 1.828125q0.171875 0.75 0.484375 1.234375q0.328125 0.46875 0.796875 0.6875q0.46875 0.203125 1.046875 0.203125z" fill-rule="nonzero"></path><path fill="#d9d2e9" d="m241.99876 117.055115l194.45668 0l0 91.74803l-194.45668 0z" fill-rule="evenodd"></path><path stroke="#000000" stroke-width="1.0" stroke-linejoin="round" stroke-linecap="butt" d="m241.99876 117.055115l194.45668 0l0 91.74803l-194.45668 0z" fill-rule="evenodd"></path><path fill="#000000" d="m314.10925 161.766q-0.125 0.15625 -0.25 0.265625q-0.125 0.09375 -0.375 0.09375q-0.21875 0 -0.4375 -0.140625q-0.21875 -0.140625 -0.515625 -0.3125q-0.296875 -0.171875 -0.71875 -0.3125q-0.40625 -0.140625 -1.03125 -0.140625q-0.78125 0 -1.375 0.28125q-0.578125 0.28125 -0.96875 0.8125q-0.390625 0.53125 -0.578125 1.28125q-0.1875 0.75 -0.1875 1.6875q0 0.984375 0.203125 1.765625q0.21875 0.765625 0.609375 1.296875q0.390625 0.515625 0.953125 0.78125q0.5625 0.265625 1.28125 0.265625q0.703125 0 1.140625 -0.171875q0.4375 -0.171875 0.734375 -0.375q0.3125 -0.21875 0.53125 -0.390625q0.21875 -0.171875 0.5 -0.171875q0.359375 0 0.53125 0.265625l0.859375 1.078125q-0.5 0.578125 -1.078125 0.96875q-0.578125 0.390625 -1.203125 0.625q-0.609375 0.234375 -1.265625 0.328125q-0.65625 0.109375 -1.3125 0.109375q-1.140625 0 -2.15625 -0.421875q-1.0 -0.4375 -1.75 -1.25q-0.75 -0.8125 -1.1875 -2.0q-0.4375 -1.1875 -0.4375 -2.703125q0 -1.34375 0.390625 -2.5q0.390625 -1.171875 1.140625 -2.015625q0.765625 -0.84375 1.875 -1.3125q1.125 -0.484375 2.578125 -0.484375q1.375 0 2.40625 0.453125q1.046875 0.4375 1.875 1.265625l-0.78125 1.078125zm5.948059 -8.125l0 17.828125l-2.953125 0l0 -17.828125l2.953125 0zm6.504059 5.515625l0 12.3125l-2.953125 0l0 -12.3125l2.953125 0zm0.453125 -3.59375q0 0.390625 -0.15625 0.734375q-0.15625 0.328125 -0.421875 0.578125q-0.25 0.25 -0.609375 0.40625q-0.34375 0.140625 -0.734375 0.140625q-0.390625 0 -0.734375 -0.140625q-0.328125 -0.15625 -0.59375 -0.40625q-0.25 -0.25 -0.40625 -0.578125q-0.140625 -0.34375 -0.140625 -0.734375q0 -0.390625 0.140625 -0.734375q0.15625 -0.34375 0.40625 -0.59375q0.265625 -0.265625 0.59375 -0.40625q0.34375 -0.15625 0.734375 -0.15625q0.390625 0 0.734375 0.15625q0.359375 0.140625 0.609375 0.40625q0.265625 0.25 0.421875 0.59375q0.15625 0.34375 0.15625 0.734375zm7.9884033 3.40625q1.171875 0 2.140625 0.375q0.984375 0.359375 1.6875 1.078125q0.703125 0.71875 1.09375 1.765625q0.40625 1.03125 0.40625 2.359375q0 0.328125 -0.03125 0.5625q-0.03125 0.21875 -0.109375 0.34375q-0.078125 0.125 -0.21875 0.1875q-0.125 0.046875 -0.328125 0.046875l-7.609375 0q0.140625 1.890625 1.015625 2.78125q0.890625 0.890625 2.359375 0.890625q0.71875 0 1.234375 -0.171875q0.53125 -0.171875 0.921875 -0.375q0.390625 -0.203125 0.6875 -0.359375q0.296875 -0.171875 0.5625 -0.171875q0.1875 0 0.3125 0.078125q0.140625 0.0625 0.234375 0.1875l0.859375 1.078125q-0.484375 0.578125 -1.109375 0.96875q-0.609375 0.390625 -1.28125 0.625q-0.65625 0.234375 -1.34375 0.328125q-0.6875 0.109375 -1.34375 0.109375q-1.28125 0 -2.390625 -0.421875q-1.09375 -0.4375 -1.921875 -1.265625q-0.8125 -0.84375 -1.28125 -2.0625q-0.46875 -1.234375 -0.46875 -2.859375q0 -1.265625 0.40625 -2.375q0.421875 -1.109375 1.171875 -1.921875q0.765625 -0.828125 1.859375 -1.296875q1.109375 -0.484375 2.484375 -0.484375zm0.0625 2.125q-1.296875 0 -2.03125 0.734375q-0.734375 0.71875 -0.9375 2.0625l5.578125 0q0 -0.5625 -0.15625 -1.078125q-0.15625 -0.515625 -0.484375 -0.890625q-0.328125 -0.390625 -0.828125 -0.609375q-0.484375 -0.21875 -1.140625 -0.21875zm7.6718445 10.375l0 -12.3125l1.8125 0q0.578125 0 0.765625 0.546875l0.203125 0.96875q0.375 -0.390625 0.78125 -0.703125q0.421875 -0.3125 0.875 -0.53125q0.46875 -0.234375 0.984375 -0.34375q0.53125 -0.125 1.15625 -0.125q1.015625 0 1.796875 0.34375q0.78125 0.34375 1.296875 0.96875q0.515625 0.609375 0.78125 1.46875q0.28125 0.84375 0.28125 1.875l0 7.84375l-2.96875 0l0 -7.84375q0 -1.125 -0.53125 -1.734375q-0.515625 -0.625 -1.546875 -0.625q-0.78125 0 -1.453125 0.359375q-0.671875 0.34375 -1.265625 0.9375l0 8.90625l-2.96875 0zm17.690979 0.1875q-1.59375 0 -2.46875 -0.90625q-0.859375 -0.90625 -0.859375 -2.5l0 -6.875l-1.234375 0q-0.25 0 -0.421875 -0.15625q-0.171875 -0.15625 -0.171875 -0.46875l0 -1.171875l1.984375 -0.328125l0.625 -3.359375q0.046875 -0.234375 0.21875 -0.359375q0.171875 -0.140625 0.4375 -0.140625l1.53125 0l0 3.875l3.25 0l0 2.109375l-3.25 0l0 6.671875q0 0.578125 0.28125 0.90625q0.296875 0.3125 0.78125 0.3125q0.265625 0 0.453125 -0.0625q0.1875 -0.0625 0.328125 -0.125q0.140625 -0.078125 0.25 -0.140625q0.109375 -0.078125 0.21875 -0.078125q0.125 0 0.203125 0.078125q0.09375 0.0625 0.1875 0.1875l0.890625 1.4375q-0.65625 0.546875 -1.5 0.828125q-0.828125 0.265625 -1.734375 0.265625zm12.55368 -10.09375q-0.125 0.1875 -0.25 0.265625q-0.125 0.078125 -0.34375 0.078125q-0.203125 0 -0.453125 -0.109375q-0.25 -0.125 -0.578125 -0.28125q-0.3125 -0.15625 -0.734375 -0.265625q-0.40625 -0.125 -0.96875 -0.125q-0.875 0 -1.390625 0.375q-0.5 0.375 -0.5 0.96875q0 0.390625 0.25 0.671875q0.265625 0.265625 0.6875 0.46875q0.4375 0.203125 0.96875 0.375q0.546875 0.15625 1.109375 0.34375q0.5625 0.1875 1.09375 0.4375q0.546875 0.25 0.96875 0.625q0.4375 0.375 0.6875 0.90625q0.265625 0.53125 0.265625 1.265625q0 0.890625 -0.328125 1.640625q-0.328125 0.75 -0.953125 1.296875q-0.625 0.546875 -1.546875 0.859375q-0.90625 0.296875 -2.09375 0.296875q-0.640625 0 -1.25 -0.109375q-0.609375 -0.109375 -1.171875 -0.3125q-0.546875 -0.203125 -1.03125 -0.484375q-0.46875 -0.28125 -0.828125 -0.59375l0.6875 -1.140625q0.125 -0.203125 0.3125 -0.3125q0.1875 -0.109375 0.453125 -0.109375q0.28125 0 0.515625 0.15625q0.25 0.15625 0.578125 0.34375q0.328125 0.171875 0.765625 0.328125q0.4375 0.15625 1.109375 0.15625q0.53125 0 0.90625 -0.125q0.375 -0.125 0.625 -0.328125q0.25 -0.203125 0.359375 -0.46875q0.109375 -0.265625 0.109375 -0.5625q0 -0.421875 -0.265625 -0.703125q-0.25 -0.28125 -0.671875 -0.484375q-0.421875 -0.203125 -0.96875 -0.359375q-0.546875 -0.171875 -1.125 -0.359375q-0.5625 -0.1875 -1.109375 -0.4375q-0.546875 -0.265625 -0.984375 -0.65625q-0.421875 -0.40625 -0.6875 -0.984375q-0.25 -0.578125 -0.25 -1.390625q0 -0.75 0.296875 -1.4375q0.3125 -0.6875 0.890625 -1.1875q0.578125 -0.515625 1.453125 -0.8125q0.875 -0.3125 2.015625 -0.3125q1.265625 0 2.3125 0.421875q1.046875 0.40625 1.734375 1.09375l-0.671875 1.078125z" fill-rule="nonzero"></path><path fill="#000000" fill-opacity="0.0" d="m17.417322 419.00867l0 0c0 -21.929474 17.777353 -39.706818 39.706833 -39.706818l564.2084 0c10.530945 0 20.630493 4.18338 28.076965 11.629852c7.446472 7.446472 11.629883 17.546051 11.629883 28.076965l0 158.82257c0 21.929443 -17.777344 39.70685 -39.70685 39.70685l-564.2084 0c-21.929478 0 -39.706833 -17.777405 -39.706833 -39.70685z" fill-rule="evenodd"></path><path stroke="#000000" stroke-width="1.0" stroke-linejoin="round" stroke-linecap="butt" d="m17.417322 419.00867l0 0c0 -21.929474 17.777353 -39.706818 39.706833 -39.706818l564.2084 0c10.530945 0 20.630493 4.18338 28.076965 11.629852c7.446472 7.446472 11.629883 17.546051 11.629883 28.076965l0 158.82257c0 21.929443 -17.777344 39.70685 -39.70685 39.70685l-564.2084 0c-21.929478 0 -39.706833 -17.777405 -39.706833 -39.70685z" fill-rule="evenodd"></path><path fill="#000000" d="m252.82095 434.25345q1.21875 0 2.125 -0.1875q0.90625 -0.1875 1.578125 -0.484375q0.671875 -0.3125 1.15625 -0.640625q0.484375 -0.328125 0.84375 -0.625q0.359375 -0.296875 0.640625 -0.484375q0.28125 -0.203125 0.546875 -0.203125q0.25 0 0.40625 0.109375q0.15625 0.09375 0.265625 0.1875l1.8125 2.265625q-1.875 2.15625 -4.421875 3.3125q-2.53125 1.140625 -5.828125 1.140625q-2.671875 0 -4.75 -0.9375q-2.078125 -0.953125 -3.515625 -2.625q-1.4375 -1.6875 -2.1875 -3.984375q-0.75 -2.3125 -0.75 -5.03125q0 -2.5 0.53125 -4.71875q0.546875 -2.234375 1.546875 -4.125q1.0 -1.890625 2.390625 -3.390625q1.40625 -1.5 3.109375 -2.5625q1.703125 -1.0625 3.671875 -1.609375q1.96875 -0.5625 4.109375 -0.5625q1.578125 0 2.875 0.296875q1.296875 0.28125 2.359375 0.796875q1.0625 0.515625 1.890625 1.25q0.84375 0.734375 1.53125 1.625l-1.796875 2.171875q-0.203125 0.234375 -0.484375 0.421875q-0.265625 0.171875 -0.65625 0.171875q-0.4375 0 -0.84375 -0.359375q-0.40625 -0.359375 -1.015625 -0.78125q-0.609375 -0.4375 -1.578125 -0.796875q-0.96875 -0.359375 -2.546875 -0.359375q-2.078125 0 -3.859375 0.859375q-1.78125 0.84375 -3.109375 2.421875q-1.3125 1.578125 -2.0625 3.8125q-0.75 2.21875 -0.75 5.0q0 2.015625 0.5 3.625q0.515625 1.59375 1.421875 2.703125q0.90625 1.109375 2.140625 1.703125q1.234375 0.59375 2.703125 0.59375zm11.874359 4.078125l3.609375 -29.71875l4.859375 0l-3.609375 29.71875l-4.859375 0zm17.495605 -20.515625l-2.453125 20.515625l-4.875 0l2.453125 -20.515625l4.875 0zm1.25 -5.984375q0 0.640625 -0.28125 1.203125q-0.265625 0.5625 -0.703125 0.984375q-0.421875 0.40625 -0.984375 0.65625q-0.546875 0.25 -1.15625 0.25q-0.578125 0 -1.125 -0.25q-0.546875 -0.25 -0.96875 -0.65625q-0.421875 -0.421875 -0.671875 -0.984375q-0.25 -0.5625 -0.25 -1.203125q0 -0.640625 0.25 -1.21875q0.265625 -0.578125 0.6875 -1.0q0.421875 -0.4375 0.96875 -0.6875q0.546875 -0.25 1.125 -0.25q0.609375 0 1.171875 0.25q0.5625 0.25 0.984375 0.671875q0.4375 0.421875 0.6875 1.0q0.265625 0.578125 0.265625 1.234375zm18.596863 10.734375q0 1.390625 -0.546875 2.53125q-0.546875 1.140625 -1.96875 2.046875q-1.421875 0.890625 -3.859375 1.546875q-2.421875 0.640625 -6.1875 1.015625l0 0.265625q0 4.84375 4.109375 4.84375q0.875 0 1.546875 -0.171875q0.6875 -0.171875 1.1875 -0.40625q0.515625 -0.25 0.921875 -0.546875q0.421875 -0.296875 0.765625 -0.53125q0.359375 -0.25 0.6875 -0.421875q0.34375 -0.171875 0.75 -0.171875q0.234375 0 0.46875 0.109375q0.25 0.109375 0.40625 0.34375l1.265625 1.515625q-1.0625 1.0625 -2.09375 1.84375q-1.015625 0.765625 -2.078125 1.265625q-1.046875 0.5 -2.234375 0.734375q-1.1875 0.25 -2.578125 0.25q-1.796875 0 -3.265625 -0.609375q-1.453125 -0.609375 -2.5 -1.71875q-1.03125 -1.109375 -1.609375 -2.671875q-0.5625 -1.578125 -0.5625 -3.515625q0 -1.625 0.34375 -3.171875q0.359375 -1.5625 1.015625 -2.96875q0.65625 -1.40625 1.609375 -2.578125q0.96875 -1.1875 2.171875 -2.046875q1.21875 -0.859375 2.65625 -1.328125q1.453125 -0.484375 3.125 -0.484375q1.609375 0 2.8125 0.46875q1.21875 0.453125 2.03125 1.1875q0.8125 0.71875 1.203125 1.625q0.40625 0.890625 0.40625 1.75zm-6.734375 -1.59375q-1.0 0 -1.859375 0.40625q-0.859375 0.40625 -1.5625 1.15625q-0.6875 0.734375 -1.203125 1.765625q-0.5 1.03125 -0.796875 2.25q2.484375 -0.34375 3.984375 -0.734375q1.515625 -0.40625 2.34375 -0.875q0.828125 -0.484375 1.09375 -1.015625q0.28125 -0.546875 0.28125 -1.171875q0 -0.296875 -0.140625 -0.609375q-0.125 -0.328125 -0.40625 -0.578125q-0.265625 -0.25 -0.703125 -0.421875q-0.421875 -0.171875 -1.03125 -0.171875zm8.341858 17.359375l2.453125 -20.546875l2.515625 0q0.78125 0 1.203125 0.390625q0.4375 0.375 0.4375 1.21875l-0.140625 2.65625q1.5625 -2.296875 3.453125 -3.421875q1.90625 -1.140625 3.9375 -1.140625q1.140625 0 2.0625 0.421875q0.9375 0.40625 1.59375 1.203125q0.65625 0.78125 1.015625 1.9375q0.359375 1.140625 0.359375 2.640625q0 0.375 -0.03125 0.765625q-0.03125 0.390625 -0.0625 0.8125l-1.546875 13.0625l-4.9375 0q0.40625 -3.375 0.671875 -5.71875q0.28125 -2.359375 0.46875 -3.921875q0.1875 -1.5625 0.28125 -2.453125q0.09375 -0.890625 0.140625 -1.34375q0.0625 -0.46875 0.0625 -0.609375q0.015625 -0.15625 0.015625 -0.25q0 -1.328125 -0.484375 -1.90625q-0.46875 -0.59375 -1.5 -0.59375q-0.8125 0 -1.703125 0.484375q-0.875 0.46875 -1.671875 1.359375q-0.796875 0.875 -1.46875 2.125q-0.65625 1.234375 -1.078125 2.75l-1.109375 10.078125l-4.9375 0zm23.430603 -4.1875q0 -0.125 0 -0.3125q0 -0.203125 0.03125 -0.5625q0.03125 -0.375 0.09375 -0.984375q0.078125 -0.609375 0.203125 -1.578125l1.140625 -9.1875l-1.953125 0q-0.328125 0 -0.546875 -0.203125q-0.203125 -0.21875 -0.203125 -0.640625q0 -0.03125 0 -0.078125q0.015625 -0.0625 0.03125 -0.265625q0.03125 -0.21875 0.078125 -0.640625q0.046875 -0.421875 0.125 -1.171875l3.125 -0.546875l1.640625 -5.59375q0.109375 -0.40625 0.40625 -0.625q0.296875 -0.21875 0.703125 -0.21875l2.640625 0l-0.796875 6.453125l4.96875 0l-0.421875 3.53125l-4.984375 0l-1.09375 8.9375q-0.109375 0.8125 -0.15625 1.296875q-0.046875 0.484375 -0.078125 0.75q-0.03125 0.265625 -0.046875 0.375q0 0.109375 0 0.15625q0 0.75 0.359375 1.203125q0.375 0.4375 1.0625 0.4375q0.421875 0 0.71875 -0.109375q0.296875 -0.109375 0.515625 -0.234375q0.21875 -0.125 0.390625 -0.234375q0.171875 -0.109375 0.328125 -0.109375q0.21875 0 0.34375 0.109375q0.140625 0.109375 0.234375 0.328125l1.0625 2.40625q-1.09375 0.90625 -2.4375 1.359375q-1.34375 0.453125 -2.703125 0.453125q-2.171875 0 -3.453125 -1.171875q-1.265625 -1.1875 -1.328125 -3.328125zm42.806244 -24.734375l-0.546875 4.265625l-7.921875 0l-3.03125 24.65625l-5.15625 0l3.015625 -24.65625l-7.9375 0l0.515625 -4.265625l21.0625 0zm16.435608 13.15625q0 1.390625 -0.546875 2.53125q-0.546875 1.140625 -1.96875 2.046875q-1.421875 0.890625 -3.859375 1.546875q-2.421875 0.640625 -6.1875 1.015625l0 0.265625q0 4.84375 4.109375 4.84375q0.875 0 1.546875 -0.171875q0.6875 -0.171875 1.1875 -0.40625q0.515625 -0.25 0.921875 -0.546875q0.421875 -0.296875 0.765625 -0.53125q0.359375 -0.25 0.6875 -0.421875q0.34375 -0.171875 0.75 -0.171875q0.234375 0 0.46875 0.109375q0.25 0.109375 0.40625 0.34375l1.265625 1.515625q-1.0625 1.0625 -2.09375 1.84375q-1.015625 0.765625 -2.078125 1.265625q-1.046875 0.5 -2.234375 0.734375q-1.1875 0.25 -2.578125 0.25q-1.796875 0 -3.265625 -0.609375q-1.453125 -0.609375 -2.5 -1.71875q-1.03125 -1.109375 -1.609375 -2.671875q-0.5625 -1.578125 -0.5625 -3.515625q0 -1.625 0.34375 -3.171875q0.359375 -1.5625 1.015625 -2.96875q0.65625 -1.40625 1.609375 -2.578125q0.96875 -1.1875 2.171875 -2.046875q1.21875 -0.859375 2.65625 -1.328125q1.453125 -0.484375 3.125 -0.484375q1.609375 0 2.8125 0.46875q1.21875 0.453125 2.03125 1.1875q0.8125 0.71875 1.203125 1.625q0.40625 0.890625 0.40625 1.75zm-6.734375 -1.59375q-1.0 0 -1.859375 0.40625q-0.859375 0.40625 -1.5625 1.15625q-0.6875 0.734375 -1.203125 1.765625q-0.5 1.03125 -0.796875 2.25q2.484375 -0.34375 3.984375 -0.734375q1.515625 -0.40625 2.34375 -0.875q0.828125 -0.484375 1.09375 -1.015625q0.28125 -0.546875 0.28125 -1.171875q0 -0.296875 -0.140625 -0.609375q-0.125 -0.328125 -0.40625 -0.578125q-0.265625 -0.25 -0.703125 -0.421875q-0.421875 -0.171875 -1.03125 -0.171875zm24.451233 17.359375l-2.59375 0q-0.90625 0 -1.265625 -0.421875q-0.359375 -0.421875 -0.359375 -1.0625l0.15625 -2.796875q-1.359375 2.125 -3.0625 3.359375q-1.6875 1.21875 -3.734375 1.21875q-1.15625 0 -2.171875 -0.453125q-1.0 -0.46875 -1.75 -1.375q-0.75 -0.90625 -1.1875 -2.28125q-0.421875 -1.375 -0.421875 -3.203125q0 -1.84375 0.453125 -3.578125q0.46875 -1.75 1.3125 -3.28125q0.84375 -1.53125 2.046875 -2.796875q1.203125 -1.28125 2.6875 -2.203125q1.5 -0.921875 3.21875 -1.421875q1.734375 -0.515625 3.65625 -0.515625q1.375 0 2.765625 0.203125q1.390625 0.1875 2.734375 0.703125l-2.484375 19.90625zm-8.921875 -3.734375q0.828125 0 1.609375 -0.5625q0.796875 -0.5625 1.5 -1.546875q0.703125 -1.0 1.296875 -2.328125q0.59375 -1.34375 1.046875 -2.890625l0.765625 -6.203125q-0.53125 -0.046875 -1.0 -0.046875q-1.65625 0 -3.078125 0.765625q-1.421875 0.75 -2.46875 2.046875q-1.03125 1.28125 -1.625 3.0q-0.578125 1.703125 -0.578125 3.59375q0 2.171875 0.671875 3.171875q0.6875 1.0 1.859375 1.0zm13.512482 3.734375l2.5 -20.546875l2.5 0q0.75 0 1.1875 0.375q0.453125 0.359375 0.453125 1.125q0 0.03125 0 0.078125q0 0.03125 -0.015625 0.265625q-0.015625 0.21875 -0.03125 0.6875q-0.015625 0.46875 -0.0625 1.328125q1.375 -2.09375 3.0 -3.125q1.625 -1.03125 3.375 -1.03125q1.90625 0 3.0 1.265625q1.09375 1.265625 1.265625 3.640625q1.4375 -2.515625 3.1875 -3.703125q1.75 -1.203125 3.8125 -1.203125q2.296875 0 3.546875 1.5625q1.25 1.546875 1.25 4.46875q0 0.390625 -0.015625 0.84375q-0.015625 0.453125 -0.078125 0.90625l-1.546875 13.0625l-4.875 0q0.40625 -3.40625 0.671875 -5.765625q0.28125 -2.375 0.453125 -3.953125q0.1875 -1.59375 0.28125 -2.5q0.109375 -0.90625 0.15625 -1.390625q0.0625 -0.484375 0.0625 -0.65625q0.015625 -0.171875 0.015625 -0.28125q0 -1.1875 -0.40625 -1.71875q-0.390625 -0.53125 -1.296875 -0.53125q-0.75 0 -1.484375 0.40625q-0.71875 0.390625 -1.375 1.15625q-0.640625 0.75 -1.1875 1.859375q-0.546875 1.09375 -0.96875 2.46875l-1.28125 10.90625l-4.859375 0l1.53125 -13.0625q0.046875 -0.421875 0.078125 -0.78125q0.03125 -0.375 0.03125 -0.703125q0 -1.1875 -0.390625 -1.71875q-0.390625 -0.53125 -1.296875 -0.53125q-0.78125 0 -1.515625 0.421875q-0.734375 0.421875 -1.390625 1.21875q-0.640625 0.78125 -1.203125 1.90625q-0.546875 1.125 -0.96875 2.53125l-1.28125 10.71875l-4.828125 0z" fill-rule="nonzero"></path><path fill="#d9d2e9" d="m32.791412 479.1706l194.4567 0l0 91.74805l-194.4567 0z" fill-rule="evenodd"></path><path stroke="#000000" stroke-width="1.0" stroke-linejoin="round" stroke-linecap="butt" d="m32.791412 479.1706l194.4567 0l0 91.74805l-194.4567 0z" fill-rule="evenodd"></path><path fill="#000000" d="m111.96597 515.7565l0 17.828125l-2.953125 0l0 -17.828125l2.953125 0zm8.441544 5.328125q1.171875 0 2.140625 0.375q0.984375 0.359375 1.6875 1.078125q0.703125 0.71875 1.09375 1.765625q0.40625 1.03125 0.40625 2.359375q0 0.328125 -0.03125 0.5625q-0.03125 0.21875 -0.109375 0.34375q-0.078125 0.125 -0.21875 0.1875q-0.125 0.046875 -0.328125 0.046875l-7.609375 0q0.140625 1.890625 1.015625 2.78125q0.890625 0.890625 2.359375 0.890625q0.71875 0 1.234375 -0.171875q0.53125 -0.171875 0.921875 -0.375q0.390625 -0.203125 0.6875 -0.359375q0.296875 -0.171875 0.5625 -0.171875q0.1875 0 0.3125 0.078125q0.140625 0.0625 0.234375 0.1875l0.859375 1.078125q-0.484375 0.578125 -1.109375 0.96875q-0.609375 0.390625 -1.28125 0.625q-0.65625 0.234375 -1.34375 0.328125q-0.6875 0.109375 -1.34375 0.109375q-1.28125 0 -2.390625 -0.421875q-1.09375 -0.4375 -1.921875 -1.265625q-0.8125 -0.84375 -1.28125 -2.0625q-0.46875 -1.234375 -0.46875 -2.859375q0 -1.265625 0.40625 -2.375q0.421875 -1.109375 1.171875 -1.921875q0.765625 -0.828125 1.859375 -1.296875q1.109375 -0.484375 2.484375 -0.484375zm0.0625 2.125q-1.296875 0 -2.03125 0.734375q-0.734375 0.71875 -0.9375 2.0625l5.578125 0q0 -0.5625 -0.15625 -1.078125q-0.15625 -0.515625 -0.484375 -0.890625q-0.328125 -0.390625 -0.828125 -0.609375q-0.484375 -0.21875 -1.140625 -0.21875zm17.328094 10.375l-1.328125 0q-0.421875 0 -0.671875 -0.125q-0.234375 -0.125 -0.359375 -0.515625l-0.265625 -0.875q-0.46875 0.421875 -0.921875 0.75q-0.4375 0.3125 -0.921875 0.53125q-0.484375 0.203125 -1.03125 0.3125q-0.53125 0.109375 -1.1875 0.109375q-0.78125 0 -1.4375 -0.203125q-0.65625 -0.21875 -1.140625 -0.625q-0.46875 -0.421875 -0.734375 -1.046875q-0.265625 -0.625 -0.265625 -1.453125q0 -0.703125 0.359375 -1.375q0.375 -0.6875 1.21875 -1.21875q0.859375 -0.546875 2.265625 -0.90625q1.421875 -0.375 3.53125 -0.421875l0 -0.71875q0 -1.234375 -0.53125 -1.828125q-0.515625 -0.59375 -1.515625 -0.59375q-0.71875 0 -1.203125 0.171875q-0.46875 0.171875 -0.828125 0.390625q-0.359375 0.203125 -0.65625 0.375q-0.296875 0.15625 -0.65625 0.15625q-0.296875 0 -0.515625 -0.15625q-0.21875 -0.15625 -0.34375 -0.375l-0.546875 -0.953125q2.125 -1.953125 5.125 -1.953125q1.078125 0 1.921875 0.359375q0.84375 0.359375 1.4375 0.984375q0.59375 0.625 0.890625 1.515625q0.3125 0.875 0.3125 1.90625l0 7.78125zm-5.765625 -1.84375q0.453125 0 0.84375 -0.078125q0.390625 -0.09375 0.71875 -0.265625q0.34375 -0.171875 0.65625 -0.40625q0.328125 -0.25 0.65625 -0.59375l0 -2.0625q-1.296875 0.046875 -2.171875 0.21875q-0.875 0.15625 -1.40625 0.40625q-0.515625 0.25 -0.75 0.59375q-0.21875 0.328125 -0.21875 0.734375q0 0.78125 0.46875 1.125q0.46875 0.328125 1.203125 0.328125zm17.345337 1.84375q-0.578125 0 -0.765625 -0.546875l-0.234375 -1.1875q-0.375 0.4375 -0.796875 0.796875q-0.421875 0.34375 -0.90625 0.59375q-0.484375 0.25 -1.046875 0.390625q-0.5625 0.140625 -1.203125 0.140625q-1.015625 0 -1.859375 -0.421875q-0.828125 -0.421875 -1.4375 -1.21875q-0.609375 -0.796875 -0.9375 -1.96875q-0.328125 -1.1875 -0.328125 -2.703125q0 -1.359375 0.359375 -2.53125q0.375 -1.1875 1.078125 -2.046875q0.703125 -0.859375 1.671875 -1.34375q0.96875 -0.5 2.1875 -0.5q1.03125 0 1.75 0.34375q0.734375 0.328125 1.3125 0.875l0 -6.5l2.96875 0l0 17.828125l-1.8125 0zm-3.953125 -2.171875q0.921875 0 1.5625 -0.375q0.65625 -0.390625 1.234375 -1.09375l0 -5.53125q-0.5 -0.609375 -1.09375 -0.859375q-0.59375 -0.25 -1.28125 -0.25q-0.671875 0 -1.21875 0.25q-0.546875 0.25 -0.921875 0.765625q-0.375 0.5 -0.578125 1.296875q-0.203125 0.78125 -0.203125 1.84375q0 1.078125 0.171875 1.828125q0.171875 0.75 0.484375 1.234375q0.328125 0.46875 0.796875 0.6875q0.46875 0.203125 1.046875 0.203125z" fill-rule="nonzero"></path><path fill="#d9d2e9" d="m241.99876 479.1706l194.45668 0l0 91.74805l-194.45668 0z" fill-rule="evenodd"></path><path stroke="#000000" stroke-width="1.0" stroke-linejoin="round" stroke-linecap="butt" d="m241.99876 479.1706l194.45668 0l0 91.74805l-194.45668 0z" fill-rule="evenodd"></path><path fill="#000000" d="m269.03693 523.8815q-0.125 0.15625 -0.25 0.265625q-0.125 0.09375 -0.375 0.09375q-0.21875 0 -0.4375 -0.140625q-0.21875 -0.140625 -0.515625 -0.3125q-0.296875 -0.171875 -0.71875 -0.3125q-0.40625 -0.140625 -1.03125 -0.140625q-0.78125 0 -1.375 0.28125q-0.578125 0.28125 -0.96875 0.8125q-0.390625 0.53125 -0.578125 1.28125q-0.1875 0.75 -0.1875 1.6875q0 0.984375 0.203125 1.765625q0.21875 0.765625 0.609375 1.296875q0.390625 0.515625 0.953125 0.78125q0.5625 0.265625 1.28125 0.265625q0.703125 0 1.140625 -0.171875q0.4375 -0.171875 0.734375 -0.375q0.3125 -0.21875 0.53125 -0.390625q0.21875 -0.171875 0.5 -0.171875q0.359375 0 0.53125 0.265625l0.859375 1.078125q-0.5 0.578125 -1.078125 0.96875q-0.578125 0.390625 -1.203125 0.625q-0.609375 0.234375 -1.265625 0.328125q-0.65625 0.109375 -1.3125 0.109375q-1.140625 0 -2.15625 -0.421875q-1.0 -0.4375 -1.75 -1.25q-0.75 -0.8125 -1.1875 -2.0q-0.4375 -1.1875 -0.4375 -2.703125q0 -1.34375 0.390625 -2.5q0.390625 -1.171875 1.140625 -2.015625q0.765625 -0.84375 1.875 -1.3125q1.125 -0.484375 2.578125 -0.484375q1.375 0 2.40625 0.453125q1.046875 0.4375 1.875 1.265625l-0.78125 1.078125zm8.057465 -2.796875q1.375 0 2.5 0.453125q1.125 0.4375 1.90625 1.25q0.796875 0.8125 1.21875 2.0q0.4375 1.171875 0.4375 2.609375q0 1.46875 -0.4375 2.65625q-0.421875 1.171875 -1.21875 2.0q-0.78125 0.828125 -1.90625 1.28125q-1.125 0.4375 -2.5 0.4375q-1.390625 0 -2.515625 -0.4375q-1.125 -0.453125 -1.921875 -1.28125q-0.796875 -0.828125 -1.234375 -2.0q-0.4375 -1.1875 -0.4375 -2.65625q0 -1.4375 0.4375 -2.609375q0.4375 -1.1875 1.234375 -2.0q0.796875 -0.8125 1.921875 -1.25q1.125 -0.453125 2.515625 -0.453125zm0 10.40625q1.53125 0 2.265625 -1.03125q0.75 -1.03125 0.75 -3.03125q0 -1.984375 -0.75 -3.03125q-0.734375 -1.046875 -2.265625 -1.046875q-1.5625 0 -2.3125 1.046875q-0.734375 1.046875 -0.734375 3.03125q0 1.984375 0.734375 3.03125q0.75 1.03125 2.3125 1.03125zm8.3784485 2.09375l0 -12.3125l1.8125 0q0.578125 0 0.765625 0.546875l0.203125 0.96875q0.375 -0.390625 0.78125 -0.703125q0.421875 -0.3125 0.875 -0.53125q0.46875 -0.234375 0.984375 -0.34375q0.53125 -0.125 1.15625 -0.125q1.015625 0 1.796875 0.34375q0.78125 0.34375 1.296875 0.96875q0.515625 0.609375 0.78125 1.46875q0.28125 0.84375 0.28125 1.875l0 7.84375l-2.96875 0l0 -7.84375q0 -1.125 -0.53125 -1.734375q-0.515625 -0.625 -1.546875 -0.625q-0.78125 0 -1.453125 0.359375q-0.671875 0.34375 -1.265625 0.9375l0 8.90625l-2.96875 0zm17.690979 0.1875q-1.59375 0 -2.46875 -0.90625q-0.859375 -0.90625 -0.859375 -2.5l0 -6.875l-1.234375 0q-0.25 0 -0.421875 -0.15625q-0.171875 -0.15625 -0.171875 -0.46875l0 -1.171875l1.984375 -0.328125l0.625 -3.359375q0.046875 -0.234375 0.21875 -0.359375q0.171875 -0.140625 0.4375 -0.140625l1.53125 0l0 3.875l3.25 0l0 2.109375l-3.25 0l0 6.671875q0 0.578125 0.28125 0.90625q0.296875 0.3125 0.78125 0.3125q0.265625 0 0.453125 -0.0625q0.1875 -0.0625 0.328125 -0.125q0.140625 -0.078125 0.25 -0.140625q0.109375 -0.078125 0.21875 -0.078125q0.125 0 0.203125 0.078125q0.09375 0.0625 0.1875 0.1875l0.890625 1.4375q-0.65625 0.546875 -1.5 0.828125q-0.828125 0.265625 -1.734375 0.265625zm10.33493 -12.6875q1.171875 0 2.140625 0.375q0.984375 0.359375 1.6875 1.078125q0.703125 0.71875 1.09375 1.765625q0.40625 1.03125 0.40625 2.359375q0 0.328125 -0.03125 0.5625q-0.03125 0.21875 -0.109375 0.34375q-0.078125 0.125 -0.21875 0.1875q-0.125 0.046875 -0.328125 0.046875l-7.609375 0q0.140625 1.890625 1.015625 2.78125q0.890625 0.890625 2.359375 0.890625q0.71875 0 1.234375 -0.171875q0.53125 -0.171875 0.921875 -0.375q0.390625 -0.203125 0.6875 -0.359375q0.296875 -0.171875 0.5625 -0.171875q0.1875 0 0.3125 0.078125q0.140625 0.0625 0.234375 0.1875l0.859375 1.078125q-0.484375 0.578125 -1.109375 0.96875q-0.609375 0.390625 -1.28125 0.625q-0.65625 0.234375 -1.34375 0.328125q-0.6875 0.109375 -1.34375 0.109375q-1.28125 0 -2.390625 -0.421875q-1.09375 -0.4375 -1.921875 -1.265625q-0.8125 -0.84375 -1.28125 -2.0625q-0.46875 -1.234375 -0.46875 -2.859375q0 -1.265625 0.40625 -2.375q0.421875 -1.109375 1.171875 -1.921875q0.765625 -0.828125 1.859375 -1.296875q1.109375 -0.484375 2.484375 -0.484375zm0.0625 2.125q-1.296875 0 -2.03125 0.734375q-0.734375 0.71875 -0.9375 2.0625l5.578125 0q0 -0.5625 -0.15625 -1.078125q-0.15625 -0.515625 -0.484375 -0.890625q-0.328125 -0.390625 -0.828125 -0.609375q-0.484375 -0.21875 -1.140625 -0.21875zm7.6718445 10.375l0 -12.3125l1.8125 0q0.578125 0 0.765625 0.546875l0.203125 0.96875q0.375 -0.390625 0.78125 -0.703125q0.421875 -0.3125 0.875 -0.53125q0.46875 -0.234375 0.984375 -0.34375q0.53125 -0.125 1.15625 -0.125q1.015625 0 1.796875 0.34375q0.78125 0.34375 1.296875 0.96875q0.515625 0.609375 0.78125 1.46875q0.28125 0.84375 0.28125 1.875l0 7.84375l-2.96875 0l0 -7.84375q0 -1.125 -0.53125 -1.734375q-0.515625 -0.625 -1.546875 -0.625q-0.78125 0 -1.453125 0.359375q-0.671875 0.34375 -1.265625 0.9375l0 8.90625l-2.96875 0zm17.690979 0.1875q-1.59375 0 -2.46875 -0.90625q-0.859375 -0.90625 -0.859375 -2.5l0 -6.875l-1.234375 0q-0.25 0 -0.421875 -0.15625q-0.171875 -0.15625 -0.171875 -0.46875l0 -1.171875l1.984375 -0.328125l0.625 -3.359375q0.046875 -0.234375 0.21875 -0.359375q0.171875 -0.140625 0.4375 -0.140625l1.53125 0l0 3.875l3.25 0l0 2.109375l-3.25 0l0 6.671875q0 0.578125 0.28125 0.90625q0.296875 0.3125 0.78125 0.3125q0.265625 0 0.453125 -0.0625q0.1875 -0.0625 0.328125 -0.125q0.140625 -0.078125 0.25 -0.140625q0.109375 -0.078125 0.21875 -0.078125q0.125 0 0.203125 0.078125q0.09375 0.0625 0.1875 0.1875l0.890625 1.4375q-0.65625 0.546875 -1.5 0.828125q-0.828125 0.265625 -1.734375 0.265625zm20.663055 -0.1875l-2.484375 0q-0.421875 0 -0.703125 -0.203125q-0.265625 -0.21875 -0.390625 -0.53125l-1.296875 -3.53125l-7.1875 0l-1.296875 3.53125q-0.09375 0.28125 -0.375 0.515625q-0.28125 0.21875 -0.6875 0.21875l-2.5 0l6.8125 -17.359375l3.296875 0l6.8125 17.359375zm-11.234375 -6.546875l5.53125 0l-2.109375 -5.78125q-0.140625 -0.375 -0.3125 -0.890625q-0.171875 -0.53125 -0.34375 -1.140625q-0.171875 0.609375 -0.328125 1.140625q-0.15625 0.515625 -0.3125 0.921875l-2.125 5.75zm15.571381 -5.765625l0 7.828125q0 1.125 0.515625 1.75q0.53125 0.609375 1.578125 0.609375q0.765625 0 1.4375 -0.34375q0.671875 -0.34375 1.265625 -0.9375l0 -8.90625l2.96875 0l0 12.3125l-1.8125 0q-0.578125 0 -0.765625 -0.546875l-0.203125 -0.984375q-0.375 0.390625 -0.78125 0.71875q-0.40625 0.3125 -0.875 0.53125q-0.46875 0.21875 -1.0 0.34375q-0.53125 0.125 -1.140625 0.125q-1.015625 0 -1.796875 -0.328125q-0.765625 -0.34375 -1.296875 -0.96875q-0.515625 -0.625 -0.796875 -1.484375q-0.265625 -0.859375 -0.265625 -1.890625l0 -7.828125l2.96875 0zm14.9721985 12.5q-1.59375 0 -2.46875 -0.90625q-0.859375 -0.90625 -0.859375 -2.5l0 -6.875l-1.234375 0q-0.25 0 -0.421875 -0.15625q-0.171875 -0.15625 -0.171875 -0.46875l0 -1.171875l1.984375 -0.328125l0.625 -3.359375q0.046875 -0.234375 0.21875 -0.359375q0.171875 -0.140625 0.4375 -0.140625l1.53125 0l0 3.875l3.25 0l0 2.109375l-3.25 0l0 6.671875q0 0.578125 0.28125 0.90625q0.296875 0.3125 0.78125 0.3125q0.265625 0 0.453125 -0.0625q0.1875 -0.0625 0.328125 -0.125q0.140625 -0.078125 0.25 -0.140625q0.109375 -0.078125 0.21875 -0.078125q0.125 0 0.203125 0.078125q0.09375 0.0625 0.1875 0.1875l0.890625 1.4375q-0.65625 0.546875 -1.5 0.828125q-0.828125 0.265625 -1.734375 0.265625zm5.241211 -0.1875l0 -17.828125l2.96875 0l0 6.84375q0.71875 -0.6875 1.578125 -1.09375q0.875 -0.421875 2.03125 -0.421875q1.015625 0 1.796875 0.34375q0.78125 0.34375 1.296875 0.96875q0.515625 0.609375 0.78125 1.46875q0.28125 0.84375 0.28125 1.875l0 7.84375l-2.96875 0l0 -7.84375q0 -1.125 -0.53125 -1.734375q-0.515625 -0.625 -1.546875 -0.625q-0.78125 0 -1.453125 0.359375q-0.671875 0.34375 -1.265625 0.9375l0 8.90625l-2.96875 0zm18.909698 -12.5q1.375 0 2.5 0.453125q1.125 0.4375 1.90625 1.25q0.796875 0.8125 1.21875 2.0q0.4375 1.171875 0.4375 2.609375q0 1.46875 -0.4375 2.65625q-0.421875 1.171875 -1.21875 2.0q-0.78125 0.828125 -1.90625 1.28125q-1.125 0.4375 -2.5 0.4375q-1.390625 0 -2.515625 -0.4375q-1.125 -0.453125 -1.921875 -1.28125q-0.796875 -0.828125 -1.234375 -2.0q-0.4375 -1.1875 -0.4375 -2.65625q0 -1.4375 0.4375 -2.609375q0.4375 -1.1875 1.234375 -2.0q0.796875 -0.8125 1.921875 -1.25q1.125 -0.453125 2.515625 -0.453125zm0 10.40625q1.53125 0 2.265625 -1.03125q0.75 -1.03125 0.75 -3.03125q0 -1.984375 -0.75 -3.03125q-0.734375 -1.046875 -2.265625 -1.046875q-1.5625 0 -2.3125 1.046875q-0.734375 1.046875 -0.734375 3.03125q0 1.984375 0.734375 3.03125q0.75 1.03125 2.3125 1.03125zm8.378479 2.09375l0 -12.3125l1.75 0q0.453125 0 0.625 0.171875q0.1875 0.171875 0.25 0.578125l0.171875 1.484375q0.671875 -1.140625 1.546875 -1.796875q0.890625 -0.671875 2.0 -0.671875q0.90625 0 1.515625 0.421875l-0.390625 2.21875q-0.03125 0.21875 -0.15625 0.3125q-0.125 0.09375 -0.328125 0.09375q-0.171875 0 -0.484375 -0.078125q-0.3125 -0.09375 -0.828125 -0.09375q-0.921875 0 -1.59375 0.515625q-0.65625 0.5 -1.109375 1.484375l0 7.671875l-2.96875 0z" fill-rule="nonzero"></path><path fill="#d9d2e9" d="m451.20612 479.1706l194.45667 0l0 91.74805l-194.45667 0z" fill-rule="evenodd"></path><path stroke="#000000" stroke-width="1.0" stroke-linejoin="round" stroke-linecap="butt" d="m451.20612 479.1706l194.45667 0l0 91.74805l-194.45667 0z" fill-rule="evenodd"></path><path fill="#000000" d="m521.79724 533.7721q-1.59375 0 -2.46875 -0.90625q-0.859375 -0.90625 -0.859375 -2.5l0 -6.875l-1.234375 0q-0.25 0 -0.421875 -0.15625q-0.171875 -0.15625 -0.171875 -0.46875l0 -1.171875l1.984375 -0.328125l0.625 -3.359375q0.046875 -0.234375 0.21875 -0.359375q0.171875 -0.140625 0.4375 -0.140625l1.53125 0l0 3.875l3.25 0l0 2.109375l-3.25 0l0 6.671875q0 0.578125 0.28125 0.90625q0.296875 0.3125 0.78125 0.3125q0.265625 0 0.453125 -0.0625q0.1875 -0.0625 0.328125 -0.125q0.140625 -0.078125 0.25 -0.140625q0.109375 -0.078125 0.21875 -0.078125q0.125 0 0.203125 0.078125q0.09375 0.0625 0.1875 0.1875l0.890625 1.4375q-0.65625 0.546875 -1.5 0.828125q-0.828125 0.265625 -1.734375 0.265625zm10.334961 -12.6875q1.171875 0 2.140625 0.375q0.984375 0.359375 1.6875 1.078125q0.703125 0.71875 1.09375 1.765625q0.40625 1.03125 0.40625 2.359375q0 0.328125 -0.03125 0.5625q-0.03125 0.21875 -0.109375 0.34375q-0.078125 0.125 -0.21875 0.1875q-0.125 0.046875 -0.328125 0.046875l-7.609375 0q0.140625 1.890625 1.015625 2.78125q0.890625 0.890625 2.359375 0.890625q0.71875 0 1.234375 -0.171875q0.53125 -0.171875 0.921875 -0.375q0.390625 -0.203125 0.6875 -0.359375q0.296875 -0.171875 0.5625 -0.171875q0.1875 0 0.3125 0.078125q0.140625 0.0625 0.234375 0.1875l0.859375 1.078125q-0.484375 0.578125 -1.109375 0.96875q-0.609375 0.390625 -1.28125 0.625q-0.65625 0.234375 -1.34375 0.328125q-0.6875 0.109375 -1.34375 0.109375q-1.28125 0 -2.390625 -0.421875q-1.09375 -0.4375 -1.921875 -1.265625q-0.8125 -0.84375 -1.28125 -2.0625q-0.46875 -1.234375 -0.46875 -2.859375q0 -1.265625 0.40625 -2.375q0.421875 -1.109375 1.171875 -1.921875q0.765625 -0.828125 1.859375 -1.296875q1.109375 -0.484375 2.484375 -0.484375zm0.0625 2.125q-1.296875 0 -2.03125 0.734375q-0.734375 0.71875 -0.9375 2.0625l5.578125 0q0 -0.5625 -0.15625 -1.078125q-0.15625 -0.515625 -0.484375 -0.890625q-0.328125 -0.390625 -0.828125 -0.609375q-0.484375 -0.21875 -1.140625 -0.21875zm14.984314 0.46875q-0.125 0.1875 -0.25 0.265625q-0.125 0.078125 -0.34375 0.078125q-0.203125 0 -0.453125 -0.109375q-0.25 -0.125 -0.578125 -0.28125q-0.3125 -0.15625 -0.734375 -0.265625q-0.40625 -0.125 -0.96875 -0.125q-0.875 0 -1.390625 0.375q-0.5 0.375 -0.5 0.96875q0 0.390625 0.25 0.671875q0.265625 0.265625 0.6875 0.46875q0.4375 0.203125 0.96875 0.375q0.546875 0.15625 1.109375 0.34375q0.5625 0.1875 1.09375 0.4375q0.546875 0.25 0.96875 0.625q0.4375 0.375 0.6875 0.90625q0.265625 0.53125 0.265625 1.265625q0 0.890625 -0.328125 1.640625q-0.328125 0.75 -0.953125 1.296875q-0.625 0.546875 -1.546875 0.859375q-0.90625 0.296875 -2.09375 0.296875q-0.640625 0 -1.25 -0.109375q-0.609375 -0.109375 -1.171875 -0.3125q-0.546875 -0.203125 -1.03125 -0.484375q-0.46875 -0.28125 -0.828125 -0.59375l0.6875 -1.140625q0.125 -0.203125 0.3125 -0.3125q0.1875 -0.109375 0.453125 -0.109375q0.28125 0 0.515625 0.15625q0.25 0.15625 0.578125 0.34375q0.328125 0.171875 0.765625 0.328125q0.4375 0.15625 1.109375 0.15625q0.53125 0 0.90625 -0.125q0.375 -0.125 0.625 -0.328125q0.25 -0.203125 0.359375 -0.46875q0.109375 -0.265625 0.109375 -0.5625q0 -0.421875 -0.265625 -0.703125q-0.25 -0.28125 -0.671875 -0.484375q-0.421875 -0.203125 -0.96875 -0.359375q-0.546875 -0.171875 -1.125 -0.359375q-0.5625 -0.1875 -1.109375 -0.4375q-0.546875 -0.265625 -0.984375 -0.65625q-0.421875 -0.40625 -0.6875 -0.984375q-0.25 -0.578125 -0.25 -1.390625q0 -0.75 0.296875 -1.4375q0.3125 -0.6875 0.890625 -1.1875q0.578125 -0.515625 1.453125 -0.8125q0.875 -0.3125 2.015625 -0.3125q1.265625 0 2.3125 0.421875q1.046875 0.40625 1.734375 1.09375l-0.671875 1.078125zm7.222473 10.09375q-1.59375 0 -2.46875 -0.90625q-0.859375 -0.90625 -0.859375 -2.5l0 -6.875l-1.234375 0q-0.25 0 -0.421875 -0.15625q-0.171875 -0.15625 -0.171875 -0.46875l0 -1.171875l1.984375 -0.328125l0.625 -3.359375q0.046875 -0.234375 0.21875 -0.359375q0.171875 -0.140625 0.4375 -0.140625l1.53125 0l0 3.875l3.25 0l0 2.109375l-3.25 0l0 6.671875q0 0.578125 0.28125 0.90625q0.296875 0.3125 0.78125 0.3125q0.265625 0 0.453125 -0.0625q0.1875 -0.0625 0.328125 -0.125q0.140625 -0.078125 0.25 -0.140625q0.109375 -0.078125 0.21875 -0.078125q0.125 0 0.203125 0.078125q0.09375 0.0625 0.1875 0.1875l0.890625 1.4375q-0.65625 0.546875 -1.5 0.828125q-0.828125 0.265625 -1.734375 0.265625zm10.3349 -12.6875q1.171875 0 2.140625 0.375q0.984375 0.359375 1.6875 1.078125q0.703125 0.71875 1.09375 1.765625q0.40625 1.03125 0.40625 2.359375q0 0.328125 -0.03125 0.5625q-0.03125 0.21875 -0.109375 0.34375q-0.078125 0.125 -0.21875 0.1875q-0.125 0.046875 -0.328125 0.046875l-7.609375 0q0.140625 1.890625 1.015625 2.78125q0.890625 0.890625 2.359375 0.890625q0.71875 0 1.234375 -0.171875q0.53125 -0.171875 0.921875 -0.375q0.390625 -0.203125 0.6875 -0.359375q0.296875 -0.171875 0.5625 -0.171875q0.1875 0 0.3125 0.078125q0.140625 0.0625 0.234375 0.1875l0.859375 1.078125q-0.484375 0.578125 -1.109375 0.96875q-0.609375 0.390625 -1.28125 0.625q-0.65625 0.234375 -1.34375 0.328125q-0.6875 0.109375 -1.34375 0.109375q-1.28125 0 -2.390625 -0.421875q-1.09375 -0.4375 -1.921875 -1.265625q-0.8125 -0.84375 -1.28125 -2.0625q-0.46875 -1.234375 -0.46875 -2.859375q0 -1.265625 0.40625 -2.375q0.421875 -1.109375 1.171875 -1.921875q0.765625 -0.828125 1.859375 -1.296875q1.109375 -0.484375 2.484375 -0.484375zm0.0625 2.125q-1.296875 0 -2.03125 0.734375q-0.734375 0.71875 -0.9375 2.0625l5.578125 0q0 -0.5625 -0.15625 -1.078125q-0.15625 -0.515625 -0.484375 -0.890625q-0.328125 -0.390625 -0.828125 -0.609375q-0.484375 -0.21875 -1.140625 -0.21875zm7.671875 10.375l0 -12.3125l1.75 0q0.453125 0 0.625 0.171875q0.1875 0.171875 0.25 0.578125l0.171875 1.484375q0.671875 -1.140625 1.546875 -1.796875q0.890625 -0.671875 2.0 -0.671875q0.90625 0 1.515625 0.421875l-0.390625 2.21875q-0.03125 0.21875 -0.15625 0.3125q-0.125 0.09375 -0.328125 0.09375q-0.171875 0 -0.484375 -0.078125q-0.3125 -0.09375 -0.828125 -0.09375q-0.921875 0 -1.59375 0.515625q-0.65625 0.5 -1.109375 1.484375l0 7.671875l-2.96875 0z" fill-rule="nonzero"></path></g></svg>

