<?xml version="1.0" standalone="yes"?>

<svg version="1.1" viewBox="0.0 0.0 954.4304461942257 372.03937007874015" fill="none" stroke="none" stroke-linecap="square" stroke-miterlimit="10" xmlns="http://www.w3.org/2000/svg" xmlns:xlink="http://www.w3.org/1999/xlink"><clipPath id="p.0"><path d="m0 0l954.4304 0l0 372.03937l-954.4304 0l0 -372.03937z" clip-rule="nonzero"></path></clipPath><g clip-path="url(#p.0)"><path fill="#000000" fill-opacity="0.0" d="m0 0l954.4304 0l0 372.03937l-954.4304 0z" fill-rule="evenodd"></path><path fill="#ffffff" d="m737.8845 40.04987l115.40155 0l0 241.66928l-115.40155 0z" fill-rule="evenodd"></path><path stroke="#ffffff" stroke-width="1.0" stroke-linejoin="round" stroke-linecap="butt" d="m737.8845 40.04987l115.40155 0l0 241.66928l-115.40155 0z" fill-rule="evenodd"></path><path fill="#fff2cc" d="m208.98688 77.561676l551.2756 0l0 69.732285l-551.2756 0z" fill-rule="evenodd"></path><path stroke="#000000" stroke-width="1.0" stroke-linejoin="round" stroke-linecap="butt" d="m208.98688 77.561676l551.2756 0l0 69.732285l-551.2756 0z" fill-rule="evenodd"></path><path fill="#000000" d="m237.4119 115.79032q0.40625 0 0.78125 -0.15625q0.375 -0.15625 0.796875 -0.453125l0.9375 1.34375q-0.515625 0.421875 -1.1875 0.6875q-0.65625 0.25 -1.4375 0.25q-1.140625 0 -1.96875 -0.46875q-0.8125 -0.46875 -1.25 -1.3125q-0.4375 -0.84375 -0.4375 -1.9375q0 -1.109375 0.453125 -1.96875q0.453125 -0.875 1.28125 -1.359375q0.828125 -0.5 1.953125 -0.5q0.78125 0 1.40625 0.21875q0.640625 0.21875 1.1875 0.671875l-0.90625 1.265625q-0.78125 -0.53125 -1.59375 -0.53125q-1.578125 0 -1.578125 2.203125q0 1.09375 0.40625 1.578125q0.40625 0.46875 1.15625 0.46875zm7.3093414 -5.875q1.609375 0 2.515625 1.015625q0.921875 1.015625 0.921875 2.734375q0 1.796875 -0.90625 2.796875q-0.90625 1.0 -2.53125 1.0q-1.625 0 -2.53125 -1.0q-0.90625 -1.0 -0.90625 -2.78125q0 -1.125 0.40625 -1.96875q0.40625 -0.859375 1.1875 -1.328125q0.78125 -0.46875 1.84375 -0.46875zm0 1.5625q-0.65625 0 -0.96875 0.53125q-0.296875 0.515625 -0.296875 1.671875q0 1.171875 0.296875 1.703125q0.3125 0.53125 0.96875 0.53125q0.65625 0 0.953125 -0.53125q0.3125 -0.546875 0.3125 -1.71875q0 -1.140625 -0.3125 -1.65625q-0.296875 -0.53125 -0.953125 -0.53125zm4.9343414 -1.328125l1.828125 0l0.15625 0.8125q0.484375 -0.53125 1.0 -0.78125q0.53125 -0.265625 1.203125 -0.265625q0.90625 0 1.421875 0.5625q0.515625 0.546875 0.515625 1.546875l0 5.203125l-2.109375 0l0 -4.578125q0 -0.671875 -0.140625 -0.921875q-0.140625 -0.25 -0.53125 -0.25q-0.328125 0 -0.625 0.203125q-0.296875 0.203125 -0.625 0.609375l0 4.9375l-2.09375 0l0 -7.078125zm10.824951 5.796875q0.546875 0 0.859375 -0.15625q0.3125 -0.171875 0.3125 -0.515625q0 -0.234375 -0.125 -0.375q-0.125 -0.15625 -0.46875 -0.296875q-0.34375 -0.140625 -1.078125 -0.328125q-1.0625 -0.28125 -1.625 -0.78125q-0.5625 -0.5 -0.5625 -1.390625q0 -0.96875 0.796875 -1.578125q0.8125 -0.609375 2.265625 -0.609375q1.6875 0 2.875 0.859375l-0.84375 1.234375q-0.96875 -0.59375 -1.953125 -0.59375q-0.53125 0 -0.78125 0.140625q-0.234375 0.125 -0.234375 0.40625q0 0.1875 0.125 0.3125q0.125 0.125 0.46875 0.265625q0.359375 0.125 1.0625 0.328125q0.765625 0.21875 1.25 0.46875q0.484375 0.25 0.75 0.6875q0.265625 0.421875 0.265625 1.078125q0 0.75 -0.453125 1.28125q-0.453125 0.53125 -1.21875 0.8125q-0.75 0.265625 -1.671875 0.265625q-0.984375 0 -1.78125 -0.28125q-0.796875 -0.28125 -1.359375 -0.796875l1.046875 -1.1875q0.96875 0.75 2.078125 0.75zm11.528107 0.875q-1.0 0.640625 -2.3125 0.640625q-1.359375 0 -2.046875 -0.6875q-0.6875 -0.703125 -0.6875 -1.953125l0 -3.21875l-1.484375 0l0 -1.453125l1.484375 0l0 -1.53125l2.109375 -0.25l0 1.78125l2.28125 0l-0.21875 1.453125l-2.0625 0l0 3.21875q0 0.515625 0.234375 0.75q0.25 0.21875 0.78125 0.21875q0.65625 0 1.234375 -0.328125l0.6875 1.359375zm15.587433 -1.640625q0 0.390625 0.109375 0.578125q0.109375 0.1875 0.359375 0.28125l-0.4375 1.390625q-0.640625 -0.0625 -1.078125 -0.28125q-0.421875 -0.234375 -0.65625 -0.65625q-0.40625 0.46875 -1.015625 0.71875q-0.609375 0.25 -1.3125 0.25q-1.09375 0 -1.75 -0.625q-0.640625 -0.625 -0.640625 -1.609375q0 -1.140625 0.90625 -1.765625q0.90625 -0.640625 2.546875 -0.640625l0.9375 0l0 -0.265625q0 -1.078125 -1.390625 -1.078125q-0.359375 0 -0.90625 0.09375q-0.53125 0.09375 -1.046875 0.265625l-0.46875 -1.390625q0.671875 -0.25 1.40625 -0.390625q0.75 -0.140625 1.34375 -0.140625q3.09375 0 3.09375 2.5l0 2.765625zm-3.3125 0.765625q0.359375 0 0.71875 -0.203125q0.375 -0.203125 0.5625 -0.5625l0 -1.171875l-0.515625 0q-1.703125 0 -1.703125 1.078125q0 0.40625 0.234375 0.640625q0.25 0.21875 0.703125 0.21875zm9.262451 -6.03125q1.34375 0 1.96875 0.984375q0.625 0.96875 0.625 2.765625q0 1.09375 -0.328125 1.953125q-0.328125 0.859375 -0.9375 1.359375q-0.609375 0.484375 -1.453125 0.484375q-1.03125 0 -1.6875 -0.734375l0 3.234375l-2.09375 0.21875l0 -10.03125l1.859375 0l0.09375 0.78125q0.421875 -0.515625 0.921875 -0.765625q0.515625 -0.25 1.03125 -0.25zm-0.640625 1.5625q-0.671875 0 -1.171875 0.8125l0 2.984375q0.234375 0.328125 0.484375 0.484375q0.25 0.15625 0.5625 0.15625q0.59375 0 0.890625 -0.53125q0.296875 -0.53125 0.296875 -1.6875q0 -1.25 -0.265625 -1.734375q-0.265625 -0.484375 -0.796875 -0.484375zm7.7781067 -5.03125q0.546875 0 0.890625 0.34375q0.34375 0.328125 0.34375 0.84375q0 0.515625 -0.34375 0.859375q-0.34375 0.328125 -0.890625 0.328125q-0.546875 0 -0.90625 -0.34375q-0.34375 -0.34375 -0.34375 -0.84375q0 -0.515625 0.34375 -0.84375q0.359375 -0.34375 0.90625 -0.34375zm1.265625 9.34375l1.8125 0l0 1.4375l-5.921875 0l0 -1.4375l2.0 0l0 -4.203125l-1.921875 0l0 -1.4375l4.03125 0l0 5.640625zm10.184326 -1.65625q0 0.96875 -0.390625 1.71875q-0.390625 0.75 -1.15625 1.1875q-0.765625 0.421875 -1.890625 0.421875q-1.6875 0 -2.5625 -0.890625q-0.875 -0.90625 -0.875 -2.4375l0 -6.140625l2.203125 0l0 5.328125q0 0.890625 0.09375 1.421875q0.09375 0.53125 0.359375 0.8125q0.265625 0.265625 0.78125 0.265625q0.5 0 0.765625 -0.265625q0.28125 -0.28125 0.375 -0.8125q0.09375 -0.53125 0.09375 -1.421875l0 -5.328125l2.203125 0l0 6.140625zm8.043732 -3.328125q0 0.9375 -0.5 1.578125q-0.5 0.625 -1.34375 0.953125l2.40625 3.890625l-2.46875 0l-2.0 -3.53125l-0.625 0l0 3.53125l-2.1875 0l0 -9.234375l2.90625 0q1.90625 0 2.859375 0.703125q0.953125 0.6875 0.953125 2.109375zm-2.265625 0q0 -0.671875 -0.375 -0.96875q-0.375 -0.3125 -1.171875 -0.3125l-0.71875 0l0 2.671875l0.8125 0q0.71875 0 1.078125 -0.328125q0.375 -0.34375 0.375 -1.0625zm4.012451 -2.8125l2.1875 0l0 7.5l4.0 0l-0.21875 1.734375l-5.96875 0l0 -9.234375zm21.790558 4.515625l-6.0625 0l0 -1.65625l6.0625 0l0 1.65625zm0 2.78125l-6.0625 0l0 -1.640625l6.0625 0l0 1.640625zm14.181183 -5.203125q0 0.5 -0.375 0.859375q-0.359375 0.34375 -0.890625 0.34375q-0.53125 0 -0.890625 -0.34375q-0.359375 -0.359375 -0.359375 -0.859375q0 -0.296875 0.09375 -0.609375q0.09375 -0.3125 0.328125 -0.78125l0.953125 -1.984375l1.203125 0l-0.578125 2.359375q0.515625 0.359375 0.515625 1.015625zm5.8093567 0.765625q0.90625 -0.9375 2.09375 -0.9375q0.921875 0 1.421875 0.5625q0.515625 0.546875 0.515625 1.546875l0 5.203125l-2.109375 0l0 -4.609375q0 -0.640625 -0.140625 -0.890625q-0.140625 -0.25 -0.53125 -0.25q-0.328125 0 -0.625 0.21875q-0.296875 0.21875 -0.625 0.640625l0 4.890625l-2.09375 0l0 -9.890625l2.09375 -0.21875l0 3.734375zm12.262451 5.96875q-1.0 0.640625 -2.3125 0.640625q-1.359375 0 -2.046875 -0.6875q-0.6875 -0.703125 -0.6875 -1.953125l0 -3.21875l-1.484375 0l0 -1.453125l1.484375 0l0 -1.53125l2.109375 -0.25l0 1.78125l2.28125 0l-0.21875 1.453125l-2.0625 0l0 3.21875q0 0.515625 0.234375 0.75q0.25 0.21875 0.78125 0.21875q0.65625 0 1.234375 -0.328125l0.6875 1.359375zm7.9968567 0q-1.0 0.640625 -2.3125 0.640625q-1.359375 0 -2.046875 -0.6875q-0.6875 -0.703125 -0.6875 -1.953125l0 -3.21875l-1.484375 0l0 -1.453125l1.484375 0l0 -1.53125l2.109375 -0.25l0 1.78125l2.28125 0l-0.21875 1.453125l-2.0625 0l0 3.21875q0 0.515625 0.234375 0.75q0.25 0.21875 0.78125 0.21875q0.65625 0 1.234375 -0.328125l0.6875 1.359375zm5.543701 -6.90625q1.34375 0 1.96875 0.984375q0.625 0.96875 0.625 2.765625q0 1.09375 -0.328125 1.953125q-0.328125 0.859375 -0.9375 1.359375q-0.609375 0.484375 -1.453125 0.484375q-1.03125 0 -1.6875 -0.734375l0 3.234375l-2.09375 0.21875l0 -10.03125l1.859375 0l0.09375 0.78125q0.421875 -0.515625 0.921875 -0.765625q0.515625 -0.25 1.03125 -0.25zm-0.640625 1.5625q-0.671875 0 -1.171875 0.8125l0 2.984375q0.234375 0.328125 0.484375 0.484375q0.25 0.15625 0.5625 0.15625q0.59375 0 0.890625 -0.53125q0.296875 -0.53125 0.296875 -1.6875q0 -1.25 -0.265625 -1.734375q-0.265625 -0.484375 -0.796875 -0.484375zm7.5593567 4.46875q0.546875 0 0.859375 -0.15625q0.3125 -0.171875 0.3125 -0.515625q0 -0.234375 -0.125 -0.375q-0.125 -0.15625 -0.46875 -0.296875q-0.34375 -0.140625 -1.078125 -0.328125q-1.0625 -0.28125 -1.625 -0.78125q-0.5625 -0.5 -0.5625 -1.390625q0 -0.96875 0.796875 -1.578125q0.8125 -0.609375 2.265625 -0.609375q1.6875 0 2.875 0.859375l-0.84375 1.234375q-0.96875 -0.59375 -1.953125 -0.59375q-0.53125 0 -0.78125 0.140625q-0.234375 0.125 -0.234375 0.40625q0 0.1875 0.125 0.3125q0.125 0.125 0.46875 0.265625q0.359375 0.125 1.0625 0.328125q0.765625 0.21875 1.25 0.46875q0.484375 0.25 0.75 0.6875q0.265625 0.421875 0.265625 1.078125q0 0.75 -0.453125 1.28125q-0.453125 0.53125 -1.21875 0.8125q-0.75 0.265625 -1.671875 0.265625q-0.984375 0 -1.78125 -0.28125q-0.796875 -0.28125 -1.359375 -0.796875l1.046875 -1.1875q0.96875 0.75 2.078125 0.75zm6.824951 -4.5q0 -0.578125 0.40625 -0.984375q0.40625 -0.421875 1.0 -0.421875q0.578125 0 0.984375 0.421875q0.40625 0.40625 0.40625 0.984375q0 0.5625 -0.40625 0.984375q-0.40625 0.40625 -0.984375 0.40625q-0.59375 0 -1.0 -0.40625q-0.40625 -0.421875 -0.40625 -0.984375zm0 4.59375q0 -0.5625 0.40625 -0.96875q0.40625 -0.40625 1.0 -0.40625q0.578125 0 0.984375 0.40625q0.40625 0.40625 0.40625 0.96875q0 0.59375 -0.40625 1.015625q-0.40625 0.40625 -0.984375 0.40625q-0.59375 0 -1.0 -0.40625q-0.40625 -0.421875 -0.40625 -1.015625zm5.7937317 1.921875l5.59375 -11.625l1.625 0.765625l-5.578125 11.625l-1.640625 -0.765625zm7.996826 0l5.59375 -11.625l1.625 0.765625l-5.578125 11.625l-1.640625 -0.765625zm12.543732 -11.515625q0.53125 0 0.875 0.34375q0.359375 0.328125 0.359375 0.84375q0 0.5 -0.359375 0.84375q-0.34375 0.34375 -0.875 0.34375q-0.5625 0 -0.921875 -0.328125q-0.34375 -0.34375 -0.34375 -0.859375q0 -0.515625 0.359375 -0.84375q0.359375 -0.34375 0.90625 -0.34375zm1.359375 8.734375q0 1.5 -0.5625 2.484375q-0.5625 1.0 -1.671875 1.59375q-1.09375 0.59375 -2.8125 0.921875l-0.3125 -1.609375q1.125 -0.25 1.828125 -0.625q0.703125 -0.375 1.0625 -1.0q0.359375 -0.640625 0.359375 -1.640625l0 -3.71875l-2.53125 0l0 -1.4375l4.640625 0l0 5.03125zm5.465576 0.765625q0.546875 0 0.859375 -0.15625q0.3125 -0.171875 0.3125 -0.515625q0 -0.234375 -0.125 -0.375q-0.125 -0.15625 -0.46875 -0.296875q-0.34375 -0.140625 -1.078125 -0.328125q-1.0625 -0.28125 -1.625 -0.78125q-0.5625 -0.5 -0.5625 -1.390625q0 -0.96875 0.796875 -1.578125q0.8125 -0.609375 2.265625 -0.609375q1.6875 0 2.875 0.859375l-0.84375 1.234375q-0.96875 -0.59375 -1.953125 -0.59375q-0.53125 0 -0.78125 0.140625q-0.234375 0.125 -0.234375 0.40625q0 0.1875 0.125 0.3125q0.125 0.125 0.46875 0.265625q0.359375 0.125 1.0625 0.328125q0.765625 0.21875 1.25 0.46875q0.484375 0.25 0.75 0.6875q0.265625 0.421875 0.265625 1.078125q0 0.75 -0.453125 1.28125q-0.453125 0.53125 -1.21875 0.8125q-0.75 0.265625 -1.671875 0.265625q-0.984375 0 -1.78125 -0.28125q-0.796875 -0.28125 -1.359375 -0.796875l1.046875 -1.1875q0.96875 0.75 2.078125 0.75zm8.231232 -6.03125q1.609375 0 2.515625 1.015625q0.921875 1.015625 0.921875 2.734375q0 1.796875 -0.90625 2.796875q-0.90625 1.0 -2.53125 1.0q-1.625 0 -2.53125 -1.0q-0.90625 -1.0 -0.90625 -2.78125q0 -1.125 0.40625 -1.96875q0.40625 -0.859375 1.1875 -1.328125q0.78125 -0.46875 1.84375 -0.46875zm0 1.5625q-0.65625 0 -0.96875 0.53125q-0.296875 0.515625 -0.296875 1.671875q0 1.171875 0.296875 1.703125q0.3125 0.53125 0.96875 0.53125q0.65625 0 0.953125 -0.53125q0.3125 -0.546875 0.3125 -1.71875q0 -1.140625 -0.3125 -1.65625q-0.296875 -0.53125 -0.953125 -0.53125zm4.934326 -1.328125l1.828125 0l0.15625 0.8125q0.484375 -0.53125 1.0 -0.78125q0.53125 -0.265625 1.203125 -0.265625q0.90625 0 1.421875 0.5625q0.515625 0.546875 0.515625 1.546875l0 5.203125l-2.109375 0l0 -4.578125q0 -0.671875 -0.140625 -0.921875q-0.140625 -0.25 -0.53125 -0.25q-0.328125 0 -0.625 0.203125q-0.296875 0.203125 -0.625 0.609375l0 4.9375l-2.09375 0l0 -7.078125zm11.903107 -0.234375q1.34375 0 1.96875 0.984375q0.625 0.96875 0.625 2.765625q0 1.09375 -0.328125 1.953125q-0.328125 0.859375 -0.9375 1.359375q-0.609375 0.484375 -1.453125 0.484375q-1.03125 0 -1.6875 -0.734375l0 3.234375l-2.09375 0.21875l0 -10.03125l1.859375 0l0.09375 0.78125q0.421875 -0.515625 0.921875 -0.765625q0.515625 -0.25 1.03125 -0.25zm-0.640625 1.5625q-0.671875 0 -1.171875 0.8125l0 2.984375q0.234375 0.328125 0.484375 0.484375q0.25 0.15625 0.5625 0.15625q0.59375 0 0.890625 -0.53125q0.296875 -0.53125 0.296875 -1.6875q0 -1.25 -0.265625 -1.734375q-0.265625 -0.484375 -0.796875 -0.484375zm8.418732 3.53125q0 0.78125 0.90625 0.78125q0.5 0 1.015625 -0.21875l0.484375 1.421875q-0.84375 0.46875 -2.03125 0.46875q-1.234375 0 -1.859375 -0.71875q-0.625 -0.71875 -0.625 -2.015625l0 -5.953125l-2.078125 0l0 -1.4375l4.1875 0l0 7.671875zm10.262451 0.171875q0 0.390625 0.109375 0.578125q0.109375 0.1875 0.359375 0.28125l-0.4375 1.390625q-0.640625 -0.0625 -1.078125 -0.28125q-0.421875 -0.234375 -0.65625 -0.65625q-0.40625 0.46875 -1.015625 0.71875q-0.609375 0.25 -1.3125 0.25q-1.09375 0 -1.75 -0.625q-0.640625 -0.625 -0.640625 -1.609375q0 -1.140625 0.90625 -1.765625q0.90625 -0.640625 2.546875 -0.640625l0.9375 0l0 -0.265625q0 -1.078125 -1.390625 -1.078125q-0.359375 0 -0.90625 0.09375q-0.53125 0.09375 -1.046875 0.265625l-0.46875 -1.390625q0.671875 -0.25 1.40625 -0.390625q0.75 -0.140625 1.34375 -0.140625q3.09375 0 3.09375 2.5l0 2.765625zm-3.3125 0.765625q0.359375 0 0.71875 -0.203125q0.375 -0.203125 0.5625 -0.5625l0 -1.171875l-0.515625 0q-1.703125 0 -1.703125 1.078125q0 0.40625 0.234375 0.640625q0.25 0.21875 0.703125 0.21875zm9.106201 -0.15625q0.40625 0 0.78125 -0.15625q0.375 -0.15625 0.796875 -0.453125l0.9375 1.34375q-0.515625 0.421875 -1.1875 0.6875q-0.65625 0.25 -1.4375 0.25q-1.140625 0 -1.96875 -0.46875q-0.8125 -0.46875 -1.25 -1.3125q-0.4375 -0.84375 -0.4375 -1.9375q0 -1.109375 0.453125 -1.96875q0.453125 -0.875 1.28125 -1.359375q0.828125 -0.5 1.953125 -0.5q0.78125 0 1.40625 0.21875q0.640625 0.21875 1.1875 0.671875l-0.90625 1.265625q-0.78125 -0.53125 -1.59375 -0.53125q-1.578125 0 -1.578125 2.203125q0 1.09375 0.40625 1.578125q0.40625 0.46875 1.15625 0.46875zm6.0749817 -1.484375q0.1875 1.609375 1.703125 1.609375q0.90625 0 1.8125 -0.578125l0.84375 1.140625q-0.53125 0.453125 -1.25 0.71875q-0.71875 0.265625 -1.578125 0.265625q-1.1875 0 -2.015625 -0.46875q-0.828125 -0.484375 -1.25 -1.328125q-0.421875 -0.84375 -0.421875 -1.96875q0 -1.0625 0.40625 -1.921875q0.40625 -0.859375 1.1875 -1.359375q0.78125 -0.5 1.859375 -0.5q1.015625 0 1.765625 0.4375q0.75 0.421875 1.15625 1.25q0.40625 0.8125 0.40625 1.953125q0 0.4375 -0.046875 0.75l-4.578125 0zm1.296875 -2.984375q-0.578125 0 -0.921875 0.421875q-0.34375 0.421875 -0.40625 1.28125l2.59375 0q-0.03125 -1.703125 -1.265625 -1.703125zm6.965576 -0.46875q0.90625 -0.9375 2.09375 -0.9375q0.921875 0 1.421875 0.5625q0.515625 0.546875 0.515625 1.546875l0 5.203125l-2.109375 0l0 -4.609375q0 -0.640625 -0.140625 -0.890625q-0.140625 -0.25 -0.53125 -0.25q-0.328125 0 -0.625 0.21875q-0.296875 0.21875 -0.625 0.640625l0 4.890625l-2.09375 0l0 -9.890625l2.09375 -0.21875l0 3.734375zm8.965576 -0.9375q1.609375 0 2.515625 1.015625q0.9218445 1.015625 0.9218445 2.734375q0 1.796875 -0.9062195 2.796875q-0.90625 1.0 -2.53125 1.0q-1.625 0 -2.53125 -1.0q-0.90625 -1.0 -0.90625 -2.78125q0 -1.125 0.40625 -1.96875q0.40625 -0.859375 1.1875 -1.328125q0.78125 -0.46875 1.84375 -0.46875zm0 1.5625q-0.65625 0 -0.96875 0.53125q-0.296875 0.515625 -0.296875 1.671875q0 1.171875 0.296875 1.703125q0.3125 0.53125 0.96875 0.53125q0.65625 0 0.953125 -0.53125q0.3125 -0.546875 0.3125 -1.71875q0 -1.140625 -0.3125 -1.65625q-0.296875 -0.53125 -0.953125 -0.53125zm8.621796 3.53125q0 0.78125 0.90625 0.78125q0.5 0 1.015625 -0.21875l0.484375 1.421875q-0.84375 0.46875 -2.03125 0.46875q-1.234375 0 -1.859375 -0.71875q-0.625 -0.71875 -0.625 -2.015625l0 -5.953125l-2.078125 0l0 -1.4375l4.1875 0l0 7.671875zm10.434326 -7.671875l0 9.890625l-1.859375 0l-0.109375 -0.765625q-0.328125 0.453125 -0.828125 0.734375q-0.484375 0.265625 -1.140625 0.265625q-1.265625 0 -1.9375 -1.015625q-0.65625 -1.015625 -0.65625 -2.78125q0 -1.09375 0.34375 -1.9375q0.34375 -0.859375 0.984375 -1.328125q0.640625 -0.484375 1.5 -0.484375q0.953125 0 1.59375 0.65625l0 -3.453125l2.109375 0.21875zm-3.140625 4.125q-0.578125 0 -0.90625 0.546875q-0.3125 0.53125 -0.3125 1.671875q0 1.234375 0.28125 1.734375q0.296875 0.5 0.8125 0.5q0.671875 0 1.15625 -0.8125l0 -3.0625q-0.21875 -0.296875 -0.46875 -0.4375q-0.25 -0.140625 -0.5625 -0.140625zm6.840576 2.84375q0.1875 1.609375 1.703125 1.609375q0.90625 0 1.8125 -0.578125l0.84375 1.140625q-0.53125 0.453125 -1.25 0.71875q-0.71875 0.265625 -1.578125 0.265625q-1.1875 0 -2.015625 -0.46875q-0.828125 -0.484375 -1.25 -1.328125q-0.421875 -0.84375 -0.421875 -1.96875q0 -1.0625 0.40625 -1.921875q0.40625 -0.859375 1.1875 -1.359375q0.78125 -0.5 1.859375 -0.5q1.015625 0 1.765625 0.4375q0.75 0.421875 1.15625 1.25q0.40625 0.8125 0.40625 1.953125q0 0.4375 -0.046875 0.75l-4.578125 0zm1.296875 -2.984375q-0.578125 0 -0.921875 0.421875q-0.34375 0.421875 -0.40625 1.28125l2.59375 0q-0.03125 -1.703125 -1.265625 -1.703125zm10.262451 -1.390625q0.640625 0 1.171875 0.21875l-0.375 2.953125l-1.34375 0l0 -1.296875q-0.578125 0.109375 -1.03125 0.640625q-0.453125 0.53125 -0.71875 1.34375l0 2.03125l1.40625 0l0 1.40625l-4.4375 0l0 -1.40625l0.9375 0l0 -4.265625l-0.9375 0l0 -1.40625l2.546875 0l0.375 1.59375q0.390625 -0.90625 0.96875 -1.359375q0.59375 -0.453125 1.4375 -0.453125zm4.184326 6.03125q0 -0.59375 0.4375 -1.03125q0.4375 -0.453125 1.046875 -0.453125q0.609375 0 1.046875 0.453125q0.4375 0.4375 0.4375 1.03125q0 0.609375 -0.4375 1.0625q-0.4375 0.4375 -1.046875 0.4375q-0.609375 0 -1.046875 -0.4375q-0.4375 -0.453125 -0.4375 -1.0625zm12.778076 0.859375q-1.0 0.640625 -2.3125 0.640625q-1.359375 0 -2.046875 -0.6875q-0.6875 -0.703125 -0.6875 -1.953125l0 -3.21875l-1.484375 0l0 -1.453125l1.484375 0l0 -1.53125l2.109375 -0.25l0 1.78125l2.28125 0l-0.21875 1.453125l-2.0625 0l0 3.21875q0 0.515625 0.234375 0.75q0.25 0.21875 0.78125 0.21875q0.65625 0 1.234375 -0.328125l0.6875 1.359375zm5.965576 0.40625q-0.484375 1.421875 -1.4375 2.140625q-0.9375 0.734375 -2.515625 0.828125l-0.25 -1.484375q1.015625 -0.140625 1.5 -0.46875q0.484375 -0.3125 0.78125 -1.015625l-0.734375 0l-2.234375 -7.078125l2.21875 0l1.375 5.734375l1.5 -5.734375l2.15625 0l-2.359375 7.078125zm7.574951 -7.3125q1.34375 0 1.96875 0.984375q0.625 0.96875 0.625 2.765625q0 1.09375 -0.328125 1.953125q-0.328125 0.859375 -0.9375 1.359375q-0.609375 0.484375 -1.453125 0.484375q-1.03125 0 -1.6875 -0.734375l0 3.234375l-2.09375 0.21875l0 -10.03125l1.859375 0l0.09375 0.78125q0.421875 -0.515625 0.921875 -0.765625q0.515625 -0.25 1.03125 -0.25zm-0.640625 1.5625q-0.671875 0 -1.171875 0.8125l0 2.984375q0.234375 0.328125 0.484375 0.484375q0.25 0.15625 0.5625 0.15625q0.59375 0 0.890625 -0.53125q0.296875 -0.53125 0.296875 -1.6875q0 -1.25 -0.265625 -1.734375q-0.265625 -0.484375 -0.796875 -0.484375zm7.778076 -5.03125q0.546875 0 0.890625 0.34375q0.34375 0.328125 0.34375 0.84375q0 0.515625 -0.34375 0.859375q-0.34375 0.328125 -0.890625 0.328125q-0.546875 0 -0.90625 -0.34375q-0.34375 -0.34375 -0.34375 -0.84375q0 -0.515625 0.34375 -0.84375q0.359375 -0.34375 0.90625 -0.34375zm1.265625 9.34375l1.8125 0l0 1.4375l-5.921875 0l0 -1.4375l2.0 0l0 -4.203125l-1.921875 0l0 -1.4375l4.03125 0l0 5.640625zm7.434326 0q0.40625 0 0.78125 -0.15625q0.375 -0.15625 0.796875 -0.453125l0.9375 1.34375q-0.515625 0.421875 -1.1875 0.6875q-0.65625 0.25 -1.4375 0.25q-1.140625 0 -1.96875 -0.46875q-0.8125 -0.46875 -1.25 -1.3125q-0.4375 -0.84375 -0.4375 -1.9375q0 -1.109375 0.453125 -1.96875q0.453125 -0.875 1.28125 -1.359375q0.828125 -0.5 1.953125 -0.5q0.78125 0 1.40625 0.21875q0.640625 0.21875 1.1875 0.671875l-0.90625 1.265625q-0.78125 -0.53125 -1.59375 -0.53125q-1.578125 0 -1.578125 2.203125q0 1.09375 0.40625 1.578125q0.40625 0.46875 1.15625 0.46875zm7.309326 -5.875q1.609375 0 2.515625 1.015625q0.921875 1.015625 0.921875 2.734375q0 1.796875 -0.90625 2.796875q-0.90625 1.0 -2.53125 1.0q-1.625 0 -2.53125 -1.0q-0.90625 -1.0 -0.90625 -2.78125q0 -1.125 0.40625 -1.96875q0.40625 -0.859375 1.1875 -1.328125q0.78125 -0.46875 1.84375 -0.46875zm0 1.5625q-0.65625 0 -0.96875 0.53125q-0.296875 0.515625 -0.296875 1.671875q0 1.171875 0.296875 1.703125q0.3125 0.53125 0.96875 0.53125q0.65625 0 0.953125 -0.53125q0.3125 -0.546875 0.3125 -1.71875q0 -1.140625 -0.3125 -1.65625q-0.296875 -0.53125 -0.953125 -0.53125zm11.059326 -4.140625l0 9.890625l-1.859375 0l-0.109375 -0.765625q-0.328125 0.453125 -0.828125 0.734375q-0.484375 0.265625 -1.140625 0.265625q-1.265625 0 -1.9375 -1.015625q-0.65625 -1.015625 -0.65625 -2.78125q0 -1.09375 0.34375 -1.9375q0.34375 -0.859375 0.984375 -1.328125q0.640625 -0.484375 1.5 -0.484375q0.953125 0 1.59375 0.65625l0 -3.453125l2.109375 0.21875zm-3.140625 4.125q-0.578125 0 -0.90625 0.546875q-0.3125 0.53125 -0.3125 1.671875q0 1.234375 0.28125 1.734375q0.296875 0.5 0.8125 0.5q0.671875 0 1.15625 -0.8125l0 -3.0625q-0.21875 -0.296875 -0.46875 -0.4375q-0.25 -0.140625 -0.5625 -0.140625zm6.840576 2.84375q0.1875 1.609375 1.703125 1.609375q0.90625 0 1.8125 -0.578125l0.84375 1.140625q-0.53125 0.453125 -1.25 0.71875q-0.71875 0.265625 -1.578125 0.265625q-1.1875 0 -2.015625 -0.46875q-0.828125 -0.484375 -1.25 -1.328125q-0.421875 -0.84375 -0.421875 -1.96875q0 -1.0625 0.40625 -1.921875q0.40625 -0.859375 1.1875 -1.359375q0.78125 -0.5 1.859375 -0.5q1.015625 0 1.765625 0.4375q0.75 0.421875 1.15625 1.25q0.40625 0.8125 0.40625 1.953125q0 0.4375 -0.046875 0.75l-4.578125 0zm1.296875 -2.984375q-0.578125 0 -0.921875 0.421875q-0.34375 0.421875 -0.40625 1.28125l2.59375 0q-0.03125 -1.703125 -1.265625 -1.703125zm6.449951 4.640625q0 -0.59375 0.4375 -1.03125q0.4375 -0.453125 1.046875 -0.453125q0.609375 0 1.046875 0.453125q0.4375 0.4375 0.4375 1.03125q0 0.609375 -0.4375 1.0625q-0.4375 0.4375 -1.046875 0.4375q-0.609375 0 -1.046875 -0.4375q-0.4375 -0.453125 -0.4375 -1.0625zm10.168701 -0.171875q0.40625 0 0.78125 -0.15625q0.375 -0.15625 0.796875 -0.453125l0.9375 1.34375q-0.515625 0.421875 -1.1875 0.6875q-0.65625 0.25 -1.4375 0.25q-1.140625 0 -1.96875 -0.46875q-0.8125 -0.46875 -1.25 -1.3125q-0.4375 -0.84375 -0.4375 -1.9375q0 -1.109375 0.453125 -1.96875q0.453125 -0.875 1.28125 -1.359375q0.828125 -0.5 1.953125 -0.5q0.78125 0 1.40625 0.21875q0.640625 0.21875 1.1875 0.671875l-0.90625 1.265625q-0.78125 -0.53125 -1.59375 -0.53125q-1.578125 0 -1.578125 2.203125q0 1.09375 0.40625 1.578125q0.40625 0.46875 1.15625 0.46875zm7.309326 -5.875q1.609375 0 2.515625 1.015625q0.921875 1.015625 0.921875 2.734375q0 1.796875 -0.90625 2.796875q-0.90625 1.0 -2.53125 1.0q-1.625 0 -2.53125 -1.0q-0.90625 -1.0 -0.90625 -2.78125q0 -1.125 0.40625 -1.96875q0.40625 -0.859375 1.1875 -1.328125q0.78125 -0.46875 1.84375 -0.46875zm0 1.5625q-0.65625 0 -0.96875 0.53125q-0.296875 0.515625 -0.296875 1.671875q0 1.171875 0.296875 1.703125q0.3125 0.53125 0.96875 0.53125q0.65625 0 0.953125 -0.53125q0.3125 -0.546875 0.3125 -1.71875q0 -1.140625 -0.3125 -1.65625q-0.296875 -0.53125 -0.953125 -0.53125zm10.168701 -1.5625q0.765625 0 1.109375 0.5q0.359375 0.5 0.359375 1.578125l0 5.234375l-1.796875 0l0 -5.0q0 -0.390625 -0.078125 -0.53125q-0.078125 -0.140625 -0.28125 -0.140625q-0.359375 0 -0.71875 0.453125l0 5.21875l-1.5 0l0 -5.0q0 -0.390625 -0.078125 -0.53125q-0.0625 -0.140625 -0.265625 -0.140625q-0.375 0 -0.734375 0.453125l0 5.21875l-1.828125 0l0 -7.078125l1.53125 0l0.15625 0.6875q0.34375 -0.484375 0.671875 -0.703125q0.34375 -0.21875 0.796875 -0.21875q0.421875 0 0.6875 0.203125q0.28125 0.203125 0.40625 0.625q0.71875 -0.828125 1.5625 -0.828125zm2.2155762 8.046875l5.59375 -11.625l1.625 0.765625l-5.578125 11.625l-1.640625 -0.765625zm12.293701 -2.171875q0.40625 0 0.78125 -0.15625q0.375 -0.15625 0.796875 -0.453125l0.9375 1.34375q-0.515625 0.421875 -1.1875 0.6875q-0.65625 0.25 -1.4375 0.25q-1.140625 0 -1.96875 -0.46875q-0.8125 -0.46875 -1.25 -1.3125q-0.4375 -0.84375 -0.4375 -1.9375q0 -1.109375 0.453125 -1.96875q0.453125 -0.875 1.28125 -1.359375q0.828125 -0.5 1.953125 -0.5q0.78125 0 1.40625 0.21875q0.640625 0.21875 1.1875 0.671875l-0.90625 1.265625q-0.78125 -0.53125 -1.59375 -0.53125q-1.578125 0 -1.578125 2.203125q0 1.09375 0.40625 1.578125q0.40625 0.46875 1.15625 0.46875zm7.309326 -5.875q1.609375 0 2.515625 1.015625q0.921875 1.015625 0.921875 2.734375q0 1.796875 -0.90625 2.796875q-0.90625 1.0 -2.53125 1.0q-1.625 0 -2.53125 -1.0q-0.90625 -1.0 -0.90625 -2.78125q0 -1.125 0.40625 -1.96875q0.40625 -0.859375 1.1875 -1.328125q0.78125 -0.46875 1.84375 -0.46875zm0 1.5625q-0.65625 0 -0.96875 0.53125q-0.296875 0.515625 -0.296875 1.671875q0 1.171875 0.296875 1.703125q0.3125 0.53125 0.96875 0.53125q0.65625 0 0.953125 -0.53125q0.3125 -0.546875 0.3125 -1.71875q0 -1.140625 -0.3125 -1.65625q-0.296875 -0.53125 -0.953125 -0.53125zm10.168701 -1.5625q0.765625 0 1.109375 0.5q0.359375 0.5 0.359375 1.578125l0 5.234375l-1.796875 0l0 -5.0q0 -0.390625 -0.078125 -0.53125q-0.078125 -0.140625 -0.28125 -0.140625q-0.359375 0 -0.71875 0.453125l0 5.21875l-1.5 0l0 -5.0q0 -0.390625 -0.078125 -0.53125q-0.0625 -0.140625 -0.265625 -0.140625q-0.375 0 -0.734375 0.453125l0 5.21875l-1.828125 0l0 -7.078125l1.53125 0l0.15625 0.6875q0.34375 -0.484375 0.671875 -0.703125q0.34375 -0.21875 0.796875 -0.21875q0.421875 0 0.6875 0.203125q0.28125 0.203125 0.40625 0.625q0.71875 -0.828125 1.5625 -0.828125zm7.996826 0q0.765625 0 1.109375 0.5q0.359375 0.5 0.359375 1.578125l0 5.234375l-1.796875 0l0 -5.0q0 -0.390625 -0.078125 -0.53125q-0.078125 -0.140625 -0.28125 -0.140625q-0.359375 0 -0.71875 0.453125l0 5.21875l-1.5 0l0 -5.0q0 -0.390625 -0.078125 -0.53125q-0.0625 -0.140625 -0.265625 -0.140625q-0.375 0 -0.734375 0.453125l0 5.21875l-1.828125 0l0 -7.078125l1.53125 0l0.15625 0.6875q0.34375 -0.484375 0.671875 -0.703125q0.34375 -0.21875 0.796875 -0.21875q0.421875 0 0.6875 0.203125q0.28125 0.203125 0.40625 0.625q0.71875 -0.828125 1.5625 -0.828125zm4.590576 4.390625q0.1875 1.609375 1.703125 1.609375q0.90625 0 1.8125 -0.578125l0.84375 1.140625q-0.53125 0.453125 -1.25 0.71875q-0.71875 0.265625 -1.578125 0.265625q-1.1875 0 -2.015625 -0.46875q-0.828125 -0.484375 -1.25 -1.328125q-0.421875 -0.84375 -0.421875 -1.96875q0 -1.0625 0.40625 -1.921875q0.40625 -0.859375 1.1875 -1.359375q0.78125 -0.5 1.859375 -0.5q1.015625 0 1.765625 0.4375q0.75 0.421875 1.15625 1.25q0.40625 0.8125 0.40625 1.953125q0 0.4375 -0.046875 0.75l-4.578125 0zm1.296875 -2.984375q-0.578125 0 -0.921875 0.421875q-0.34375 0.421875 -0.40625 1.28125l2.59375 0q-0.03125 -1.703125 -1.265625 -1.703125zm4.871826 -1.171875l1.828125 0l0.15625 0.8125q0.484375 -0.53125 1.0 -0.78125q0.53125 -0.265625 1.203125 -0.265625q0.90625 0 1.421875 0.5625q0.515625 0.546875 0.515625 1.546875l0 5.203125l-2.109375 0l0 -4.578125q0 -0.671875 -0.140625 -0.921875q-0.140625 -0.25 -0.53125 -0.25q-0.328125 0 -0.625 0.203125q-0.296875 0.203125 -0.625 0.609375l0 4.9375l-2.09375 0l0 -7.078125zm14.356201 6.671875q-1.0 0.640625 -2.3125 0.640625q-1.359375 0 -2.046875 -0.6875q-0.6875 -0.703125 -0.6875 -1.953125l0 -3.21875l-1.484375 0l0 -1.453125l1.484375 0l0 -1.53125l2.109375 -0.25l0 1.78125l2.28125 0l-0.21875 1.453125l-2.0625 0l0 3.21875q0 0.515625 0.234375 0.75q0.25 0.21875 0.78125 0.21875q0.65625 0 1.234375 -0.328125l0.6875 1.359375zm4.465576 -0.875q0.546875 0 0.859375 -0.15625q0.3125 -0.171875 0.3125 -0.515625q0 -0.234375 -0.125 -0.375q-0.125 -0.15625 -0.46875 -0.296875q-0.34375 -0.140625 -1.078125 -0.328125q-1.0625 -0.28125 -1.625 -0.78125q-0.5625 -0.5 -0.5625 -1.390625q0 -0.96875 0.796875 -1.578125q0.8125 -0.609375 2.265625 -0.609375q1.6875 0 2.875 0.859375l-0.84375 1.234375q-0.96875 -0.59375 -1.953125 -0.59375q-0.53125 0 -0.78125 0.140625q-0.234375 0.125 -0.234375 0.40625q0 0.1875 0.125 0.3125q0.125 0.125 0.46875 0.265625q0.359375 0.125 1.0625 0.328125q0.765625 0.21875 1.25 0.46875q0.484375 0.25 0.75 0.6875q0.265625 0.421875 0.265625 1.078125q0 0.75 -0.453125 1.28125q-0.453125 0.53125 -1.21875 0.8125q-0.75 0.265625 -1.671875 0.265625q-0.984375 0 -1.78125 -0.28125q-0.796875 -0.28125 -1.359375 -0.796875l1.046875 -1.1875q0.96875 0.75 2.078125 0.75zm6.996887 -8.015625q0 -0.515625 0.359375 -0.859375q0.359375 -0.359375 0.90625 -0.359375q0.53125 0 0.890625 0.359375q0.359375 0.34375 0.359375 0.859375q0 0.28125 -0.09375 0.59375q-0.09375 0.3125 -0.34375 0.765625l-0.9375 2.0l-1.203125 0l0.578125 -2.359375q-0.515625 -0.375 -0.515625 -1.0zm9.231201 2.109375q0.578125 0 0.984375 0.421875q0.40625 0.40625 0.40625 0.984375q0 0.5625 -0.40625 0.984375q-0.40625 0.40625 -0.984375 0.40625q-0.59375 0 -1.0 -0.40625q-0.40625 -0.421875 -0.40625 -0.984375q0 -0.578125 0.40625 -0.984375q0.40625 -0.421875 1.0 -0.421875zm0 4.5625q0.59375 0 0.984375 0.40625q0.40625 0.390625 0.40625 0.984375q0 0.34375 -0.125 0.71875q-0.125 0.375 -0.421875 1.046875l-0.921875 2.109375l-1.375 0l0.65625 -2.734375q-0.28125 -0.1875 -0.453125 -0.484375q-0.15625 -0.3125 -0.15625 -0.671875q0 -0.59375 0.40625 -0.984375q0.40625 -0.390625 1.0 -0.390625z" fill-rule="nonzero"></path><path fill="#fff2cc" d="m208.98688 147.29396l551.2756 0l0 69.732285l-551.2756 0z" fill-rule="evenodd"></path><path stroke="#000000" stroke-width="1.0" stroke-linejoin="round" stroke-linecap="butt" d="m208.98688 147.29396l551.2756 0l0 69.732285l-551.2756 0z" fill-rule="evenodd"></path><path fill="#000000" d="m357.3643 185.5226q0.40625 0 0.78125 -0.15625q0.375 -0.15625 0.796875 -0.453125l0.9375 1.34375q-0.515625 0.421875 -1.1875 0.6875q-0.65625 0.25 -1.4375 0.25q-1.140625 0 -1.96875 -0.46875q-0.8125 -0.46875 -1.25 -1.3125q-0.4375 -0.84375 -0.4375 -1.9375q0 -1.109375 0.453125 -1.96875q0.453125 -0.875 1.28125 -1.359375q0.828125 -0.5 1.953125 -0.5q0.78125 0 1.40625 0.21875q0.640625 0.21875 1.1875 0.671875l-0.90625 1.265625q-0.78125 -0.53125 -1.59375 -0.53125q-1.578125 0 -1.578125 2.203125q0 1.09375 0.40625 1.578125q0.40625 0.46875 1.15625 0.46875zm7.309326 -5.875q1.609375 0 2.515625 1.015625q0.921875 1.015625 0.921875 2.734375q0 1.796875 -0.90625 2.796875q-0.90625 1.0 -2.53125 1.0q-1.625 0 -2.53125 -1.0q-0.90625 -1.0 -0.90625 -2.78125q0 -1.125 0.40625 -1.96875q0.40625 -0.859375 1.1875 -1.328125q0.78125 -0.46875 1.84375 -0.46875zm0 1.5625q-0.65625 0 -0.96875 0.53125q-0.296875 0.515625 -0.296875 1.671875q0 1.171875 0.296875 1.703125q0.3125 0.53125 0.96875 0.53125q0.65625 0 0.953125 -0.53125q0.3125 -0.546875 0.3125 -1.71875q0 -1.140625 -0.3125 -1.65625q-0.296875 -0.53125 -0.953125 -0.53125zm4.9343567 -1.328125l1.828125 0l0.15625 0.8125q0.484375 -0.53125 1.0 -0.78125q0.53125 -0.265625 1.203125 -0.265625q0.90625 0 1.421875 0.5625q0.515625 0.546875 0.515625 1.546875l0 5.203125l-2.109375 0l0 -4.578125q0 -0.671875 -0.140625 -0.921875q-0.140625 -0.25 -0.53125 -0.25q-0.328125 0 -0.625 0.203125q-0.296875 0.203125 -0.625 0.609375l0 4.9375l-2.09375 0l0 -7.078125zm10.824951 5.796875q0.546875 0 0.859375 -0.15625q0.3125 -0.171875 0.3125 -0.515625q0 -0.234375 -0.125 -0.375q-0.125 -0.15625 -0.46875 -0.296875q-0.34375 -0.140625 -1.078125 -0.328125q-1.0625 -0.28125 -1.625 -0.78125q-0.5625 -0.5 -0.5625 -1.390625q0 -0.96875 0.796875 -1.578125q0.8125 -0.609375 2.265625 -0.609375q1.6875 0 2.875 0.859375l-0.84375 1.234375q-0.96875 -0.59375 -1.953125 -0.59375q-0.53125 0 -0.78125 0.140625q-0.234375 0.125 -0.234375 0.40625q0 0.1875 0.125 0.3125q0.125 0.125 0.46875 0.265625q0.359375 0.125 1.0625 0.328125q0.765625 0.21875 1.25 0.46875q0.484375 0.25 0.75 0.6875q0.265625 0.421875 0.265625 1.078125q0 0.75 -0.453125 1.28125q-0.453125 0.53125 -1.21875 0.8125q-0.75 0.265625 -1.671875 0.265625q-0.984375 0 -1.78125 -0.28125q-0.796875 -0.28125 -1.359375 -0.796875l1.046875 -1.1875q0.96875 0.75 2.078125 0.75zm11.528107 0.875q-1.0 0.640625 -2.3125 0.640625q-1.359375 0 -2.046875 -0.6875q-0.6875 -0.703125 -0.6875 -1.953125l0 -3.21875l-1.484375 0l0 -1.453125l1.484375 0l0 -1.53125l2.109375 -0.25l0 1.78125l2.28125 0l-0.21875 1.453125l-2.0625 0l0 3.21875q0 0.515625 0.234375 0.75q0.25 0.21875 0.78125 0.21875q0.65625 0 1.234375 -0.328125l0.6875 1.359375zm15.759308 -9.484375l0 9.890625l-1.859375 0l-0.109375 -0.765625q-0.328125 0.453125 -0.828125 0.734375q-0.484375 0.265625 -1.140625 0.265625q-1.265625 0 -1.9375 -1.015625q-0.65625 -1.015625 -0.65625 -2.78125q0 -1.09375 0.34375 -1.9375q0.34375 -0.859375 0.984375 -1.328125q0.640625 -0.484375 1.5 -0.484375q0.953125 0 1.59375 0.65625l0 -3.453125l2.109375 0.21875zm-3.140625 4.125q-0.578125 0 -0.90625 0.546875q-0.3125 0.53125 -0.3125 1.671875q0 1.234375 0.28125 1.734375q0.296875 0.5 0.8125 0.5q0.671875 0 1.15625 -0.8125l0 -3.0625q-0.21875 -0.296875 -0.46875 -0.4375q-0.25 -0.140625 -0.5625 -0.140625zm10.965576 3.71875q0 0.390625 0.109375 0.578125q0.109375 0.1875 0.359375 0.28125l-0.4375 1.390625q-0.640625 -0.0625 -1.078125 -0.28125q-0.421875 -0.234375 -0.65625 -0.65625q-0.40625 0.46875 -1.015625 0.71875q-0.609375 0.25 -1.3125 0.25q-1.09375 0 -1.75 -0.625q-0.640625 -0.625 -0.640625 -1.609375q0 -1.140625 0.90625 -1.765625q0.90625 -0.640625 2.546875 -0.640625l0.9375 0l0 -0.265625q0 -1.078125 -1.390625 -1.078125q-0.359375 0 -0.90625 0.09375q-0.53125 0.09375 -1.046875 0.265625l-0.46875 -1.390625q0.671875 -0.25 1.40625 -0.390625q0.75 -0.140625 1.34375 -0.140625q3.09375 0 3.09375 2.5l0 2.765625zm-3.3125 0.765625q0.359375 0 0.71875 -0.203125q0.375 -0.203125 0.5625 -0.5625l0 -1.171875l-0.515625 0q-1.703125 0 -1.703125 1.078125q0 0.40625 0.234375 0.640625q0.25 0.21875 0.703125 0.21875zm11.715607 0.875q-1.0 0.640625 -2.3125 0.640625q-1.359375 0 -2.046875 -0.6875q-0.6875 -0.703125 -0.6875 -1.953125l0 -3.21875l-1.484375 0l0 -1.453125l1.484375 0l0 -1.53125l2.109375 -0.25l0 1.78125l2.28125 0l-0.21875 1.453125l-2.0625 0l0 3.21875q0 0.515625 0.234375 0.75q0.25 0.21875 0.78125 0.21875q0.65625 0 1.234375 -0.328125l0.6875 1.359375zm7.590576 -1.640625q0 0.390625 0.109375 0.578125q0.109375 0.1875 0.359375 0.28125l-0.4375 1.390625q-0.640625 -0.0625 -1.078125 -0.28125q-0.421875 -0.234375 -0.65625 -0.65625q-0.40625 0.46875 -1.015625 0.71875q-0.609375 0.25 -1.3125 0.25q-1.09375 0 -1.75 -0.625q-0.640625 -0.625 -0.640625 -1.609375q0 -1.140625 0.90625 -1.765625q0.90625 -0.640625 2.546875 -0.640625l0.9375 0l0 -0.265625q0 -1.078125 -1.390625 -1.078125q-0.359375 0 -0.90625 0.09375q-0.53125 0.09375 -1.046875 0.265625l-0.46875 -1.390625q0.671875 -0.25 1.40625 -0.390625q0.75 -0.140625 1.34375 -0.140625q3.09375 0 3.09375 2.5l0 2.765625zm-3.3125 0.765625q0.359375 0 0.71875 -0.203125q0.375 -0.203125 0.5625 -0.5625l0 -1.171875l-0.515625 0q-1.703125 0 -1.703125 1.078125q0 0.40625 0.234375 0.640625q0.25 0.21875 0.703125 0.21875zm19.446808 -3.4375l-6.0625 0l0 -1.65625l6.0625 0l0 1.65625zm0 2.78125l-6.0625 0l0 -1.640625l6.0625 0l0 1.640625zm15.134308 -5.375q0.765625 0 1.109375 0.5q0.359375 0.5 0.359375 1.578125l0 5.234375l-1.796875 0l0 -5.0q0 -0.390625 -0.078125 -0.53125q-0.078125 -0.140625 -0.28125 -0.140625q-0.359375 0 -0.71875 0.453125l0 5.21875l-1.5 0l0 -5.0q0 -0.390625 -0.078125 -0.53125q-0.0625 -0.140625 -0.265625 -0.140625q-0.375 0 -0.734375 0.453125l0 5.21875l-1.828125 0l0 -7.078125l1.53125 0l0.15625 0.6875q0.34375 -0.484375 0.671875 -0.703125q0.34375 -0.21875 0.796875 -0.21875q0.421875 0 0.6875 0.203125q0.28125 0.203125 0.40625 0.625q0.71875 -0.828125 1.5625 -0.828125zm8.715607 5.265625q0 0.390625 0.109375 0.578125q0.109375 0.1875 0.359375 0.28125l-0.4375 1.390625q-0.640625 -0.0625 -1.078125 -0.28125q-0.421875 -0.234375 -0.65625 -0.65625q-0.40625 0.46875 -1.015625 0.71875q-0.609375 0.25 -1.3125 0.25q-1.09375 0 -1.75 -0.625q-0.640625 -0.625 -0.640625 -1.609375q0 -1.140625 0.90625 -1.765625q0.90625 -0.640625 2.546875 -0.640625l0.9375 0l0 -0.265625q0 -1.078125 -1.390625 -1.078125q-0.359375 0 -0.90625 0.09375q-0.53125 0.09375 -1.046875 0.265625l-0.46875 -1.390625q0.671875 -0.25 1.40625 -0.390625q0.75 -0.140625 1.34375 -0.140625q3.09375 0 3.09375 2.5l0 2.765625zm-3.3125 0.765625q0.359375 0 0.71875 -0.203125q0.375 -0.203125 0.5625 -0.5625l0 -1.171875l-0.515625 0q-1.703125 0 -1.703125 1.078125q0 0.40625 0.234375 0.640625q0.25 0.21875 0.703125 0.21875zm7.449951 1.28125l-2.09375 0l0 -9.890625l2.09375 -0.21875l0 10.109375zm2.28125 -3.9375l2.53125 3.9375l-2.40625 0l-2.3125 -3.875l2.328125 -3.203125l2.203125 0l-2.34375 3.140625zm5.4499817 1.015625q0.1875 1.609375 1.703125 1.609375q0.90625 0 1.8125 -0.578125l0.84375 1.140625q-0.53125 0.453125 -1.25 0.71875q-0.71875 0.265625 -1.578125 0.265625q-1.1875 0 -2.015625 -0.46875q-0.828125 -0.484375 -1.25 -1.328125q-0.421875 -0.84375 -0.421875 -1.96875q0 -1.0625 0.40625 -1.921875q0.40625 -0.859375 1.1875 -1.359375q0.78125 -0.5 1.859375 -0.5q1.015625 0 1.765625 0.4375q0.75 0.421875 1.15625 1.25q0.40625 0.8125 0.40625 1.953125q0 0.4375 -0.046875 0.75l-4.578125 0zm1.296875 -2.984375q-0.578125 0 -0.921875 0.421875q-0.34375 0.421875 -0.40625 1.28125l2.59375 0q-0.03125 -1.703125 -1.265625 -1.703125zm11.418732 -0.515625q0 0.9375 -0.5 1.578125q-0.5 0.625 -1.34375 0.953125l2.40625 3.890625l-2.46875 0l-2.0 -3.53125l-0.625 0l0 3.53125l-2.1875 0l0 -9.234375l2.90625 0q1.90625 0 2.859375 0.703125q0.953125 0.6875 0.953125 2.109375zm-2.265625 0q0 -0.671875 -0.375 -0.96875q-0.375 -0.3125 -1.171875 -0.3125l-0.71875 0l0 2.671875l0.8125 0q0.71875 0 1.078125 -0.328125q0.375 -0.34375 0.375 -1.0625zm5.543701 3.5q0.1875 1.609375 1.703125 1.609375q0.90625 0 1.8125 -0.578125l0.84375 1.140625q-0.53125 0.453125 -1.25 0.71875q-0.71875 0.265625 -1.578125 0.265625q-1.1875 0 -2.015625 -0.46875q-0.828125 -0.484375 -1.25 -1.328125q-0.421875 -0.84375 -0.421875 -1.96875q0 -1.0625 0.40625 -1.921875q0.40625 -0.859375 1.1875 -1.359375q0.78125 -0.5 1.859375 -0.5q1.015625 0 1.765625 0.4375q0.75 0.421875 1.15625 1.25q0.40625 0.8125 0.40625 1.953125q0 0.4375 -0.046875 0.75l-4.578125 0zm1.296875 -2.984375q-0.578125 0 -0.921875 0.421875q-0.34375 0.421875 -0.40625 1.28125l2.59375 0q-0.03125 -1.703125 -1.265625 -1.703125zm7.340576 -1.40625q0.515625 0 0.953125 0.203125q0.453125 0.203125 0.765625 0.609375l0.09375 -0.578125l1.84375 0l0 10.03125l-2.109375 -0.21875l0 -3.328125q-0.6875 0.828125 -1.8125 0.828125q-1.3125 0 -1.953125 -1.0q-0.625 -1.0 -0.625 -2.796875q0 -1.09375 0.328125 -1.9375q0.328125 -0.859375 0.96875 -1.328125q0.640625 -0.484375 1.546875 -0.484375zm0.53125 1.546875q-0.59375 0 -0.90625 0.53125q-0.296875 0.53125 -0.296875 1.6875q0 1.234375 0.265625 1.734375q0.28125 0.484375 0.8125 0.484375q0.671875 0 1.140625 -0.796875l0 -3.0625q-0.203125 -0.296875 -0.453125 -0.4375q-0.25 -0.140625 -0.5625 -0.140625zm7.090576 3.53125q0 0.484375 0.1875 0.703125q0.1875 0.203125 0.546875 0.203125q0.3125 0 0.640625 -0.203125q0.34375 -0.21875 0.546875 -0.578125l0 -4.96875l2.109375 0l0 7.078125l-1.84375 0l-0.09375 -0.828125q-0.34375 0.515625 -0.9375 0.796875q-0.578125 0.265625 -1.234375 0.265625q-1.0 0 -1.515625 -0.578125q-0.5 -0.59375 -0.5 -1.625l0 -5.109375l2.09375 0l0 4.84375zm7.731262 -0.6875q0.1875 1.609375 1.703125 1.609375q0.90625 0 1.8125 -0.578125l0.84375 1.140625q-0.53125 0.453125 -1.25 0.71875q-0.71875 0.265625 -1.578125 0.265625q-1.1875 0 -2.015625 -0.46875q-0.828125 -0.484375 -1.25 -1.328125q-0.421875 -0.84375 -0.421875 -1.96875q0 -1.0625 0.40625 -1.921875q0.40625 -0.859375 1.1875 -1.359375q0.78125 -0.5 1.859375 -0.5q1.015625 0 1.765625 0.4375q0.75 0.421875 1.15625 1.25q0.40625 0.8125 0.40625 1.953125q0 0.4375 -0.046875 0.75l-4.578125 0zm1.296875 -2.984375q-0.578125 0 -0.921875 0.421875q-0.34375 0.421875 -0.40625 1.28125l2.59375 0q-0.03125 -1.703125 -1.265625 -1.703125zm7.699951 4.625q0.546875 0 0.859375 -0.15625q0.3125 -0.171875 0.3125 -0.515625q0 -0.234375 -0.125 -0.375q-0.125 -0.15625 -0.46875 -0.296875q-0.34375 -0.140625 -1.078125 -0.328125q-1.0625 -0.28125 -1.625 -0.78125q-0.5625 -0.5 -0.5625 -1.390625q0 -0.96875 0.796875 -1.578125q0.8125 -0.609375 2.265625 -0.609375q1.6875 0 2.875 0.859375l-0.84375 1.234375q-0.96875 -0.59375 -1.953125 -0.59375q-0.53125 0 -0.78125 0.140625q-0.234375 0.125 -0.234375 0.40625q0 0.1875 0.125 0.3125q0.125 0.125 0.46875 0.265625q0.359375 0.125 1.0625 0.328125q0.765625 0.21875 1.25 0.46875q0.484375 0.25 0.75 0.6875q0.265625 0.421875 0.265625 1.078125q0 0.75 -0.453125 1.28125q-0.453125 0.53125 -1.21875 0.8125q-0.75 0.265625 -1.671875 0.265625q-0.984375 0 -1.78125 -0.28125q-0.796875 -0.28125 -1.359375 -0.796875l1.046875 -1.1875q0.96875 0.75 2.078125 0.75zm11.528076 0.875q-1.0 0.640625 -2.3125 0.640625q-1.359375 0 -2.046875 -0.6875q-0.6875 -0.703125 -0.6875 -1.953125l0 -3.21875l-1.484375 0l0 -1.453125l1.484375 0l0 -1.53125l2.109375 -0.25l0 1.78125l2.28125 0l-0.21875 1.453125l-2.0625 0l0 3.21875q0 0.515625 0.234375 0.75q0.25 0.21875 0.78125 0.21875q0.65625 0 1.234375 -0.328125l0.6875 1.359375zm4.184326 -4.265625q0 1.125 0.21875 2.015625q0.234375 0.875 0.78125 1.734375q0.546875 0.859375 1.515625 1.921875l-1.21875 1.109375q-1.6875 -1.453125 -2.5625 -3.0625q-0.875 -1.625 -0.875 -3.71875q0 -2.078125 0.875 -3.6875q0.875 -1.625 2.5625 -3.078125l1.21875 1.109375q-1.359375 1.484375 -1.9375 2.765625q-0.578125 1.265625 -0.578125 2.890625zm11.403137 2.625q0 0.390625 0.109375 0.578125q0.109375 0.1875 0.359375 0.28125l-0.4375 1.390625q-0.640625 -0.0625 -1.078125 -0.28125q-0.421875 -0.234375 -0.65625 -0.65625q-0.40625 0.46875 -1.015625 0.71875q-0.609375 0.25 -1.3125 0.25q-1.09375 0 -1.75 -0.625q-0.640625 -0.625 -0.640625 -1.609375q0 -1.140625 0.90625 -1.765625q0.90625 -0.640625 2.546875 -0.640625l0.9375 0l0 -0.265625q0 -1.078125 -1.390625 -1.078125q-0.359375 0 -0.90625 0.09375q-0.53125 0.09375 -1.046875 0.265625l-0.46875 -1.390625q0.671875 -0.25 1.40625 -0.390625q0.75 -0.140625 1.34375 -0.140625q3.09375 0 3.09375 2.5l0 2.765625zm-3.3125 0.765625q0.359375 0 0.71875 -0.203125q0.375 -0.203125 0.5625 -0.5625l0 -1.171875l-0.515625 0q-1.703125 0 -1.703125 1.078125q0 0.40625 0.234375 0.640625q0.25 0.21875 0.703125 0.21875zm9.262451 -6.03125q1.34375 0 1.96875 0.984375q0.625 0.96875 0.625 2.765625q0 1.09375 -0.328125 1.953125q-0.328125 0.859375 -0.9375 1.359375q-0.609375 0.484375 -1.453125 0.484375q-1.03125 0 -1.6875 -0.734375l0 3.234375l-2.09375 0.21875l0 -10.03125l1.859375 0l0.09375 0.78125q0.421875 -0.515625 0.921875 -0.765625q0.515625 -0.25 1.03125 -0.25zm-0.640625 1.5625q-0.671875 0 -1.171875 0.8125l0 2.984375q0.234375 0.328125 0.484375 0.484375q0.25 0.15625 0.5625 0.15625q0.59375 0 0.890625 -0.53125q0.296875 -0.53125 0.296875 -1.6875q0 -1.25 -0.265625 -1.734375q-0.265625 -0.484375 -0.796875 -0.484375zm7.778076 -5.03125q0.546875 0 0.890625 0.34375q0.34375 0.328125 0.34375 0.84375q0 0.515625 -0.34375 0.859375q-0.34375 0.328125 -0.890625 0.328125q-0.546875 0 -0.90625 -0.34375q-0.34375 -0.34375 -0.34375 -0.84375q0 -0.515625 0.34375 -0.84375q0.359375 -0.34375 0.90625 -0.34375zm1.265625 9.34375l1.8125 0l0 1.4375l-5.921875 0l0 -1.4375l2.0 0l0 -4.203125l-1.921875 0l0 -1.4375l4.03125 0l0 5.640625zm10.184326 -1.65625q0 0.96875 -0.390625 1.71875q-0.390625 0.75 -1.15625 1.1875q-0.765625 0.421875 -1.890625 0.421875q-1.6875 0 -2.5625 -0.890625q-0.875 -0.90625 -0.875 -2.4375l0 -6.140625l2.203125 0l0 5.328125q0 0.890625 0.09375 1.421875q0.09375 0.53125 0.359375 0.8125q0.265625 0.265625 0.78125 0.265625q0.5 0 0.765625 -0.265625q0.28125 -0.28125 0.375 -0.8125q0.09375 -0.53125 0.09375 -1.421875l0 -5.328125l2.203125 0l0 6.140625zm8.043762 -3.328125q0 0.9375 -0.5 1.578125q-0.5 0.625 -1.34375 0.953125l2.40625 3.890625l-2.46875 0l-2.0 -3.53125l-0.625 0l0 3.53125l-2.1875 0l0 -9.234375l2.90625 0q1.90625 0 2.859375 0.703125q0.953125 0.6875 0.953125 2.109375zm-2.265625 0q0 -0.671875 -0.375 -0.96875q-0.375 -0.3125 -1.171875 -0.3125l-0.71875 0l0 2.671875l0.8125 0q0.71875 0 1.078125 -0.328125q0.375 -0.34375 0.375 -1.0625zm4.012451 -2.8125l2.1875 0l0 7.5l4.0 0l-0.21875 1.734375l-5.96875 0l0 -9.234375zm11.278076 4.5625q0 -1.625 -0.578125 -2.890625q-0.578125 -1.28125 -1.9375 -2.765625l1.21875 -1.109375q1.6875 1.453125 2.5625 3.078125q0.875 1.609375 0.875 3.6875q0 2.09375 -0.875 3.71875q-0.875 1.609375 -2.5625 3.0625l-1.21875 -1.109375q0.96875 -1.0625 1.5 -1.921875q0.546875 -0.859375 0.78125 -1.734375q0.234375 -0.890625 0.234375 -2.015625zm7.481201 -2.515625q0.578125 0 0.984375 0.421875q0.40625 0.40625 0.40625 0.984375q0 0.5625 -0.40625 0.984375q-0.40625 0.40625 -0.984375 0.40625q-0.59375 0 -1.0 -0.40625q-0.40625 -0.421875 -0.40625 -0.984375q0 -0.578125 0.40625 -0.984375q0.40625 -0.421875 1.0 -0.421875zm0 4.5625q0.59375 0 0.984375 0.40625q0.40625 0.390625 0.40625 0.984375q0 0.34375 -0.125 0.71875q-0.125 0.375 -0.421875 1.046875l-0.921875 2.109375l-1.375 0l0.65625 -2.734375q-0.28125 -0.1875 -0.453125 -0.484375q-0.15625 -0.3125 -0.15625 -0.671875q0 -0.59375 0.40625 -0.984375q0.40625 -0.390625 1.0 -0.390625z" fill-rule="nonzero"></path><path fill="#000000" fill-opacity="0.0" d="m157.29659 16.874016l-1.1653442 352.40945" fill-rule="evenodd"></path><path stroke="#000000" stroke-width="2.0" stroke-linejoin="round" stroke-linecap="butt" d="m157.29659 16.874016l-1.1653442 352.40945" fill-rule="evenodd"></path><path fill="#000000" fill-opacity="0.0" d="m0 0l157.29134 0l0 58.48819l-157.29134 0z" fill-rule="evenodd"></path><path fill="#000000" d="m29.227783 16.798126l0 2.609375l-7.421875 0l0 20.3125l-3.09375 0l0 -20.3125l-7.4375 0l0 -2.609375l17.953125 0zm5.9737854 6.71875l0 16.203125l-2.84375 0l0 -16.203125l2.84375 0zm0.640625 -5.09375q0 0.421875 -0.171875 0.78125q-0.15625 0.359375 -0.4375 0.640625q-0.28125 0.28125 -0.65625 0.4375q-0.359375 0.15625 -0.78125 0.15625q-0.40625 0 -0.78125 -0.15625q-0.359375 -0.15625 -0.640625 -0.4375q-0.265625 -0.28125 -0.4375 -0.640625q-0.15625 -0.359375 -0.15625 -0.78125q0 -0.421875 0.15625 -0.796875q0.171875 -0.375 0.4375 -0.65625q0.28125 -0.28125 0.640625 -0.4375q0.375 -0.15625 0.78125 -0.15625q0.421875 0 0.78125 0.15625q0.375 0.15625 0.65625 0.4375q0.28125 0.28125 0.4375 0.65625q0.171875 0.375 0.171875 0.796875zm4.3951416 21.296875l0 -16.203125l1.6875 0q0.609375 0 0.765625 0.59375l0.21875 1.65625q0.890625 -1.109375 2.0 -1.8125q1.109375 -0.703125 2.578125 -0.703125q1.65625 0 2.671875 0.921875q1.015625 0.90625 1.46875 2.453125q0.328125 -0.875 0.875 -1.515625q0.5625 -0.640625 1.25 -1.046875q0.6875 -0.421875 1.453125 -0.609375q0.78125 -0.203125 1.578125 -0.203125q1.28125 0 2.28125 0.421875q1.0 0.40625 1.6875 1.1875q0.703125 0.78125 1.0625 1.921875q0.375 1.140625 0.375 2.625l0 10.3125l-2.84375 0l0 -10.3125q0 -1.90625 -0.828125 -2.890625q-0.828125 -0.984375 -2.421875 -0.984375q-0.703125 0 -1.34375 0.25q-0.625 0.234375 -1.109375 0.71875q-0.46875 0.484375 -0.75 1.21875q-0.28125 0.71875 -0.28125 1.6875l0 10.3125l-2.84375 0l0 -10.3125q0 -1.953125 -0.796875 -2.90625q-0.78125 -0.96875 -2.28125 -0.96875q-1.046875 0 -1.953125 0.5625q-0.90625 0.5625 -1.65625 1.546875l0 12.078125l-2.84375 0zm32.6783 -16.46875q1.453125 0 2.6875 0.5q1.234375 0.484375 2.125 1.40625q0.90625 0.921875 1.40625 2.28125q0.5 1.34375 0.5 3.0625q0 0.671875 -0.140625 0.90625q-0.140625 0.21875 -0.546875 0.21875l-10.78125 0q0.03125 1.53125 0.40625 2.671875q0.390625 1.140625 1.0625 1.90625q0.671875 0.75 1.59375 1.125q0.9375 0.375 2.09375 0.375q1.0625 0 1.84375 -0.25q0.78125 -0.25 1.328125 -0.53125q0.5625 -0.296875 0.9375 -0.53125q0.375 -0.25 0.65625 -0.25q0.34375 0 0.546875 0.265625l0.796875 1.046875q-0.53125 0.640625 -1.265625 1.109375q-0.734375 0.46875 -1.578125 0.78125q-0.84375 0.296875 -1.734375 0.4375q-0.890625 0.15625 -1.78125 0.15625q-1.671875 0 -3.09375 -0.5625q-1.40625 -0.5625 -2.4375 -1.65625q-1.03125 -1.109375 -1.609375 -2.71875q-0.578125 -1.625 -0.578125 -3.71875q0 -1.6875 0.515625 -3.15625q0.515625 -1.484375 1.484375 -2.5625q0.984375 -1.078125 2.390625 -1.6875q1.40625 -0.625 3.171875 -0.625zm0.0625 2.09375q-2.0625 0 -3.25 1.203125q-1.171875 1.1875 -1.46875 3.296875l8.8125 0q0 -0.984375 -0.265625 -1.8125q-0.265625 -0.828125 -0.796875 -1.421875q-0.53125 -0.609375 -1.296875 -0.9375q-0.75 -0.328125 -1.734375 -0.328125zm18.756546 4.3125q0 3.421875 0.875 6.65625q0.890625 3.21875 2.546875 6.140625q0.09375 0.171875 0.125 0.296875q0.03125 0.140625 0.03125 0.265625q0 0.21875 -0.109375 0.359375q-0.109375 0.15625 -0.28125 0.265625l-1.265625 0.765625q-1.203125 -1.84375 -2.046875 -3.65625q-0.84375 -1.796875 -1.359375 -3.625q-0.515625 -1.828125 -0.765625 -3.671875q-0.234375 -1.84375 -0.234375 -3.796875q0 -1.9375 0.234375 -3.796875q0.25 -1.859375 0.765625 -3.671875q0.515625 -1.8125 1.359375 -3.609375q0.84375 -1.8125 2.046875 -3.671875l1.265625 0.78125q0.171875 0.109375 0.28125 0.265625q0.109375 0.140625 0.109375 0.359375q0 0.234375 -0.15625 0.546875q-1.671875 2.90625 -2.546875 6.140625q-0.875 3.234375 -0.875 6.65625zm7.3187714 10.0625l0 -16.203125l1.6875 0q0.609375 0 0.765625 0.59375l0.21875 1.65625q0.890625 -1.109375 2.0 -1.8125q1.109375 -0.703125 2.578125 -0.703125q1.65625 0 2.671875 0.921875q1.015625 0.90625 1.46875 2.453125q0.328125 -0.875 0.875 -1.515625q0.5625 -0.640625 1.25 -1.046875q0.6875 -0.421875 1.453125 -0.609375q0.78125 -0.203125 1.578125 -0.203125q1.28125 0 2.28125 0.421875q1.0 0.40625 1.6875 1.1875q0.703125 0.78125 1.0625 1.921875q0.375 1.140625 0.375 2.625l0 10.3125l-2.84375 0l0 -10.3125q0 -1.90625 -0.828125 -2.890625q-0.828125 -0.984375 -2.421875 -0.984375q-0.703125 0 -1.34375 0.25q-0.625 0.234375 -1.109375 0.71875q-0.46875 0.484375 -0.75 1.21875q-0.28125 0.71875 -0.28125 1.6875l0 10.3125l-2.84375 0l0 -10.3125q0 -1.953125 -0.796875 -2.90625q-0.78125 -0.96875 -2.28125 -0.96875q-1.046875 0 -1.953125 0.5625q-0.90625 0.5625 -1.65625 1.546875l0 12.078125l-2.84375 0zm35.537674 -13.53125q-0.1875 0.34375 -0.578125 0.34375q-0.25 0 -0.5625 -0.171875q-0.296875 -0.171875 -0.734375 -0.390625q-0.4375 -0.21875 -1.046875 -0.40625q-0.609375 -0.1875 -1.4375 -0.1875q-0.71875 0 -1.296875 0.1875q-0.578125 0.1875 -0.984375 0.515625q-0.40625 0.3125 -0.625 0.734375q-0.21875 0.421875 -0.21875 0.921875q0 0.625 0.359375 1.046875q0.359375 0.40625 0.953125 0.71875q0.59375 0.296875 1.34375 0.53125q0.75 0.234375 1.546875 0.5q0.796875 0.265625 1.546875 0.59375q0.75 0.3125 1.34375 0.796875q0.59375 0.46875 0.953125 1.171875q0.359375 0.6875 0.359375 1.671875q0 1.109375 -0.40625 2.0625q-0.390625 0.953125 -1.1875 1.65625q-0.78125 0.6875 -1.921875 1.09375q-1.125 0.390625 -2.609375 0.390625q-1.703125 0 -3.078125 -0.546875q-1.375 -0.546875 -2.34375 -1.421875l0.671875 -1.078125q0.140625 -0.21875 0.3125 -0.328125q0.171875 -0.109375 0.46875 -0.109375q0.28125 0 0.59375 0.234375q0.328125 0.21875 0.78125 0.5q0.453125 0.265625 1.09375 0.484375q0.65625 0.21875 1.640625 0.21875q0.828125 0 1.453125 -0.203125q0.625 -0.21875 1.03125 -0.578125q0.421875 -0.375 0.625 -0.859375q0.203125 -0.484375 0.203125 -1.03125q0 -0.671875 -0.359375 -1.109375q-0.359375 -0.4375 -0.953125 -0.75q-0.59375 -0.3125 -1.359375 -0.546875q-0.75 -0.234375 -1.546875 -0.484375q-0.796875 -0.25 -1.5625 -0.578125q-0.75 -0.328125 -1.34375 -0.828125q-0.59375 -0.5 -0.953125 -1.21875q-0.359375 -0.734375 -0.359375 -1.78125q0 -0.921875 0.375 -1.78125q0.390625 -0.859375 1.125 -1.5q0.734375 -0.65625 1.8125 -1.03125q1.078125 -0.390625 2.453125 -0.390625q1.59375 0 2.859375 0.515625q1.28125 0.5 2.203125 1.375l-0.640625 1.046875zm7.044281 3.46875q0 -3.421875 -0.875 -6.65625q-0.859375 -3.234375 -2.546875 -6.140625q-0.15625 -0.3125 -0.15625 -0.546875q0 -0.21875 0.109375 -0.359375q0.109375 -0.15625 0.28125 -0.265625l1.265625 -0.78125q1.203125 1.859375 2.046875 3.671875q0.84375 1.796875 1.359375 3.609375q0.515625 1.8125 0.75 3.671875q0.25 1.859375 0.25 3.796875q0 1.953125 -0.25 3.796875q-0.234375 1.84375 -0.75 3.671875q-0.515625 1.828125 -1.359375 3.625q-0.84375 1.8125 -2.046875 3.65625l-1.265625 -0.765625q-0.171875 -0.109375 -0.28125 -0.265625q-0.109375 -0.140625 -0.109375 -0.359375q0 -0.125 0.03125 -0.265625q0.03125 -0.125 0.125 -0.296875q1.671875 -2.921875 2.546875 -6.140625q0.875 -3.234375 0.875 -6.65625z" fill-rule="nonzero"></path><path fill="#000000" fill-opacity="0.0" d="m760.26245 76.49606l-701.95276 1.1338577" fill-rule="evenodd"></path><path stroke="#000000" stroke-width="2.0" stroke-linejoin="round" stroke-linecap="butt" d="m760.26245 76.49606l-701.95276 1.1338577" fill-rule="evenodd"></path><path fill="#000000" fill-opacity="0.0" d="m14.435696 58.490814l43.874016 0l0 38.204727l-43.874016 0z" fill-rule="evenodd"></path><path fill="#000000" d="m42.72515 77.461296q0 2.265625 -0.484375 3.9375q-0.484375 1.671875 -1.34375 2.765625q-0.859375 1.09375 -2.03125 1.625q-1.15625 0.53125 -2.515625 0.53125q-1.359375 0 -2.515625 -0.53125q-1.15625 -0.53125 -2.015625 -1.625q-0.84375 -1.09375 -1.328125 -2.765625q-0.484375 -1.671875 -0.484375 -3.9375q0 -2.28125 0.484375 -3.953125q0.484375 -1.671875 1.328125 -2.75q0.859375 -1.09375 2.015625 -1.625q1.15625 -0.546875 2.515625 -0.546875q1.359375 0 2.515625 0.546875q1.171875 0.53125 2.03125 1.625q0.859375 1.078125 1.34375 2.75q0.484375 1.671875 0.484375 3.953125zm-3.046875 0q0 -1.890625 -0.28125 -3.125q-0.28125 -1.234375 -0.75 -1.96875q-0.453125 -0.734375 -1.0625 -1.015625q-0.59375 -0.296875 -1.234375 -0.296875q-0.640625 0 -1.234375 0.296875q-0.59375 0.28125 -1.046875 1.015625q-0.453125 0.734375 -0.734375 1.96875q-0.265625 1.234375 -0.265625 3.125q0 1.875 0.265625 3.125q0.28125 1.234375 0.734375 1.96875q0.453125 0.71875 1.046875 1.015625q0.59375 0.296875 1.234375 0.296875q0.640625 0 1.234375 -0.296875q0.609375 -0.296875 1.0625 -1.015625q0.46875 -0.734375 0.75 -1.96875q0.28125 -1.25 0.28125 -3.125z" fill-rule="nonzero"></path><path fill="#000000" fill-opacity="0.0" d="m14.435696 128.2231l43.874016 0l0 38.204727l-43.874016 0z" fill-rule="evenodd"></path><path fill="#000000" d="m32.647026 153.64671l3.515625 0l0 -10.125q0 -0.578125 0.03125 -1.234375l-2.5 2.09375q-0.15625 0.125 -0.328125 0.1875q-0.15625 0.046875 -0.3125 0.046875q-0.234375 0 -0.4375 -0.09375q-0.1875 -0.109375 -0.28125 -0.25l-0.9375 -1.28125l5.28125 -4.5l2.4375 0l0 15.15625l3.125 0l0 2.21875l-9.59375 0l0 -2.21875z" fill-rule="nonzero"></path><path fill="#f4cccc" d="m208.98688 217.02625l551.2756 0l0 69.7323l-551.2756 0z" fill-rule="evenodd"></path><path stroke="#000000" stroke-width="1.0" stroke-linejoin="round" stroke-linecap="butt" d="m208.98688 217.02625l551.2756 0l0 69.7323l-551.2756 0z" fill-rule="evenodd"></path><path fill="#000000" d="m365.3611 255.25488q0.40625 0 0.78125 -0.15625q0.375 -0.15625 0.796875 -0.453125l0.9375 1.34375q-0.515625 0.421875 -1.1875 0.6875q-0.65625 0.25 -1.4375 0.25q-1.140625 0 -1.96875 -0.46875q-0.8125 -0.46875 -1.25 -1.3125q-0.4375 -0.84375 -0.4375 -1.9375q0 -1.109375 0.453125 -1.96875q0.453125 -0.875 1.28125 -1.359375q0.828125 -0.5 1.953125 -0.5q0.78125 0 1.40625 0.21875q0.640625 0.21875 1.1875 0.671875l-0.90625 1.265625q-0.78125 -0.53125 -1.59375 -0.53125q-1.578125 0 -1.578125 2.203125q0 1.09375 0.40625 1.578125q0.40625 0.46875 1.15625 0.46875zm7.309326 -5.875q1.609375 0 2.515625 1.015625q0.921875 1.015625 0.921875 2.734375q0 1.796875 -0.90625 2.796875q-0.90625 1.0 -2.53125 1.0q-1.625 0 -2.53125 -1.0q-0.90625 -1.0 -0.90625 -2.78125q0 -1.125 0.40625 -1.96875q0.40625 -0.859375 1.1875 -1.328125q0.78125 -0.46875 1.84375 -0.46875zm0 1.5625q-0.65625 0 -0.96875 0.53125q-0.296875 0.515625 -0.296875 1.671875q0 1.171875 0.296875 1.703125q0.3125 0.53125 0.96875 0.53125q0.65625 0 0.953125 -0.53125q0.3125 -0.546875 0.3125 -1.71875q0 -1.140625 -0.3125 -1.65625q-0.296875 -0.53125 -0.953125 -0.53125zm4.9343567 -1.328125l1.828125 0l0.15625 0.8125q0.484375 -0.53125 1.0 -0.78125q0.53125 -0.265625 1.203125 -0.265625q0.90625 0 1.421875 0.5625q0.515625 0.546875 0.515625 1.546875l0 5.203125l-2.109375 0l0 -4.578125q0 -0.671875 -0.140625 -0.921875q-0.140625 -0.25 -0.53125 -0.25q-0.328125 0 -0.625 0.203125q-0.296875 0.203125 -0.625 0.609375l0 4.9375l-2.09375 0l0 -7.078125zm10.824951 5.796875q0.546875 0 0.859375 -0.15625q0.3125 -0.171875 0.3125 -0.515625q0 -0.234375 -0.125 -0.375q-0.125 -0.15625 -0.46875 -0.296875q-0.34375 -0.140625 -1.078125 -0.328125q-1.0625 -0.28125 -1.625 -0.78125q-0.5625 -0.5 -0.5625 -1.390625q0 -0.96875 0.796875 -1.578125q0.8125 -0.609375 2.265625 -0.609375q1.6875 0 2.875 0.859375l-0.84375 1.234375q-0.96875 -0.59375 -1.953125 -0.59375q-0.53125 0 -0.78125 0.140625q-0.234375 0.125 -0.234375 0.40625q0 0.1875 0.125 0.3125q0.125 0.125 0.46875 0.265625q0.359375 0.125 1.0625 0.328125q0.765625 0.21875 1.25 0.46875q0.484375 0.25 0.75 0.6875q0.265625 0.421875 0.265625 1.078125q0 0.75 -0.453125 1.28125q-0.453125 0.53125 -1.21875 0.8125q-0.75 0.265625 -1.671875 0.265625q-0.984375 0 -1.78125 -0.28125q-0.796875 -0.28125 -1.359375 -0.796875l1.046875 -1.1875q0.96875 0.75 2.078125 0.75zm8.231232 -6.03125q1.609375 0 2.515625 1.015625q0.921875 1.015625 0.921875 2.734375q0 1.796875 -0.90625 2.796875q-0.90625 1.0 -2.53125 1.0q-1.625 0 -2.53125 -1.0q-0.90625 -1.0 -0.90625 -2.78125q0 -1.125 0.40625 -1.96875q0.40625 -0.859375 1.1875 -1.328125q0.78125 -0.46875 1.84375 -0.46875zm0 1.5625q-0.65625 0 -0.96875 0.53125q-0.296875 0.515625 -0.296875 1.671875q0 1.171875 0.296875 1.703125q0.3125 0.53125 0.96875 0.53125q0.65625 0 0.953125 -0.53125q0.3125 -0.546875 0.3125 -1.71875q0 -1.140625 -0.3125 -1.65625q-0.296875 -0.53125 -0.953125 -0.53125zm8.621826 3.53125q0 0.78125 0.90625 0.78125q0.5 0 1.015625 -0.21875l0.484375 1.421875q-0.84375 0.46875 -2.03125 0.46875q-1.234375 0 -1.859375 -0.71875q-0.625 -0.71875 -0.625 -2.015625l0 -5.953125l-2.078125 0l0 -1.4375l4.1875 0l0 7.671875zm6.1374817 -0.703125q0.1875 1.609375 1.703125 1.609375q0.90625 0 1.8125 -0.578125l0.84375 1.140625q-0.53125 0.453125 -1.25 0.71875q-0.71875 0.265625 -1.578125 0.265625q-1.1875 0 -2.015625 -0.46875q-0.828125 -0.484375 -1.25 -1.328125q-0.421875 -0.84375 -0.421875 -1.96875q0 -1.0625 0.40625 -1.921875q0.40625 -0.859375 1.1875 -1.359375q0.78125 -0.5 1.859375 -0.5q1.015625 0 1.765625 0.4375q0.75 0.421875 1.15625 1.25q0.40625 0.8125 0.40625 1.953125q0 0.4375 -0.046875 0.75l-4.578125 0zm1.296875 -2.984375q-0.578125 0 -0.921875 0.421875q-0.34375 0.421875 -0.40625 1.28125l2.59375 0q-0.03125 -1.703125 -1.265625 -1.703125zm6.449951 4.640625q0 -0.59375 0.4375 -1.03125q0.4375 -0.453125 1.046875 -0.453125q0.609375 0 1.046875 0.453125q0.4375 0.4375 0.4375 1.03125q0 0.609375 -0.4375 1.0625q-0.4375 0.4375 -1.046875 0.4375q-0.609375 0 -1.046875 -0.4375q-0.4375 -0.453125 -0.4375 -1.0625zm10.106232 -0.953125q0 0.78125 0.90625 0.78125q0.5 0 1.015625 -0.21875l0.484375 1.421875q-0.84375 0.46875 -2.03125 0.46875q-1.234375 0 -1.859375 -0.71875q-0.625 -0.71875 -0.625 -2.015625l0 -5.953125l-2.078125 0l0 -1.4375l4.1875 0l0 7.671875zm7.371826 -5.09375q1.609375 0 2.515625 1.015625q0.921875 1.015625 0.921875 2.734375q0 1.796875 -0.90625 2.796875q-0.90625 1.0 -2.53125 1.0q-1.625 0 -2.53125 -1.0q-0.90625 -1.0 -0.90625 -2.78125q0 -1.125 0.40625 -1.96875q0.40625 -0.859375 1.1875 -1.328125q0.78125 -0.46875 1.84375 -0.46875zm0 1.5625q-0.65625 0 -0.96875 0.53125q-0.296875 0.515625 -0.296875 1.671875q0 1.171875 0.296875 1.703125q0.3125 0.53125 0.96875 0.53125q0.65625 0 0.953125 -0.53125q0.3125 -0.546875 0.3125 -1.71875q0 -1.140625 -0.3125 -1.65625q-0.296875 -0.53125 -0.953125 -0.53125zm11.699982 -0.90625q-0.6875 0.265625 -2.03125 0.265625q0.6875 0.3125 1.015625 0.75q0.34375 0.421875 0.34375 1.078125q0 0.6875 -0.375 1.234375q-0.359375 0.53125 -1.046875 0.84375q-0.671875 0.296875 -1.578125 0.296875q-0.4375 0 -0.8125 -0.078125q-0.109375 0.046875 -0.171875 0.171875q-0.0625 0.109375 -0.0625 0.234375q0 0.1875 0.15625 0.3125q0.15625 0.109375 0.625 0.109375l1.171875 0q0.796875 0 1.40625 0.265625q0.609375 0.265625 0.9375 0.734375q0.34375 0.46875 0.34375 1.046875q0 1.109375 -0.96875 1.71875q-0.96875 0.625 -2.8125 0.625q-1.328125 0 -2.078125 -0.28125q-0.75 -0.265625 -1.0625 -0.765625q-0.296875 -0.484375 -0.296875 -1.21875l1.875 0q0 0.328125 0.125 0.515625q0.125 0.1875 0.46875 0.28125q0.34375 0.09375 1.015625 0.09375q0.9375 0 1.28125 -0.21875q0.359375 -0.21875 0.359375 -0.59375q0 -0.328125 -0.265625 -0.53125q-0.25 -0.1875 -0.765625 -0.1875l-1.109375 0q-1.09375 0 -1.640625 -0.390625q-0.546875 -0.390625 -0.546875 -1.0q0 -0.40625 0.203125 -0.75q0.203125 -0.359375 0.578125 -0.59375q-0.671875 -0.359375 -0.96875 -0.84375q-0.28125 -0.5 -0.28125 -1.1875q0 -0.78125 0.390625 -1.359375q0.40625 -0.59375 1.125 -0.90625q0.71875 -0.3125 1.640625 -0.3125q1.0625 0.015625 1.8125 -0.21875q0.75 -0.234375 1.515625 -0.6875l0.484375 1.546875zm-3.765625 0.71875q-0.5 0 -0.796875 0.328125q-0.28125 0.3125 -0.28125 0.859375q0 0.578125 0.296875 0.90625q0.296875 0.3125 0.78125 0.3125q0.53125 0 0.8125 -0.3125q0.28125 -0.3125 0.28125 -0.921875q0 -1.171875 -1.09375 -1.171875zm7.543701 1.265625q0 1.125 0.21875 2.015625q0.234375 0.875 0.78125 1.734375q0.546875 0.859375 1.515625 1.921875l-1.21875 1.109375q-1.6875 -1.453125 -2.5625 -3.0625q-0.875 -1.625 -0.875 -3.71875q0 -2.078125 0.875 -3.6875q0.875 -1.625 2.5625 -3.078125l1.21875 1.109375q-1.359375 1.484375 -1.9375 2.765625q-0.578125 1.265625 -0.578125 2.890625zm11.574982 -5.21875l0 9.890625l-1.859375 0l-0.109375 -0.765625q-0.328125 0.453125 -0.828125 0.734375q-0.484375 0.265625 -1.140625 0.265625q-1.265625 0 -1.9375 -1.015625q-0.65625 -1.015625 -0.65625 -2.78125q0 -1.09375 0.34375 -1.9375q0.34375 -0.859375 0.984375 -1.328125q0.640625 -0.484375 1.5 -0.484375q0.953125 0 1.59375 0.65625l0 -3.453125l2.109375 0.21875zm-3.140625 4.125q-0.578125 0 -0.90625 0.546875q-0.3125 0.53125 -0.3125 1.671875q0 1.234375 0.28125 1.734375q0.296875 0.5 0.8125 0.5q0.671875 0 1.15625 -0.8125l0 -3.0625q-0.21875 -0.296875 -0.46875 -0.4375q-0.25 -0.140625 -0.5625 -0.140625zm10.965607 3.71875q0 0.390625 0.109375 0.578125q0.109375 0.1875 0.359375 0.28125l-0.4375 1.390625q-0.640625 -0.0625 -1.078125 -0.28125q-0.421875 -0.234375 -0.65625 -0.65625q-0.40625 0.46875 -1.015625 0.71875q-0.609375 0.25 -1.3125 0.25q-1.09375 0 -1.75 -0.625q-0.640625 -0.625 -0.640625 -1.609375q0 -1.140625 0.90625 -1.765625q0.90625 -0.640625 2.546875 -0.640625l0.9375 0l0 -0.265625q0 -1.078125 -1.390625 -1.078125q-0.359375 0 -0.90625 0.09375q-0.53125 0.09375 -1.046875 0.265625l-0.46875 -1.390625q0.671875 -0.25 1.40625 -0.390625q0.75 -0.140625 1.34375 -0.140625q3.09375 0 3.09375 2.5l0 2.765625zm-3.3125 0.765625q0.359375 0 0.71875 -0.203125q0.375 -0.203125 0.5625 -0.5625l0 -1.171875l-0.515625 0q-1.703125 0 -1.703125 1.078125q0 0.40625 0.234375 0.640625q0.25 0.21875 0.703125 0.21875zm11.715576 0.875q-1.0 0.640625 -2.3125 0.640625q-1.359375 0 -2.046875 -0.6875q-0.6875 -0.703125 -0.6875 -1.953125l0 -3.21875l-1.484375 0l0 -1.453125l1.484375 0l0 -1.53125l2.109375 -0.25l0 1.78125l2.28125 0l-0.21875 1.453125l-2.0625 0l0 3.21875q0 0.515625 0.234375 0.75q0.25 0.21875 0.78125 0.21875q0.65625 0 1.234375 -0.328125l0.6875 1.359375zm7.590576 -1.640625q0 0.390625 0.109375 0.578125q0.109375 0.1875 0.359375 0.28125l-0.4375 1.390625q-0.640625 -0.0625 -1.078125 -0.28125q-0.421875 -0.234375 -0.65625 -0.65625q-0.40625 0.46875 -1.015625 0.71875q-0.609375 0.25 -1.3125 0.25q-1.09375 0 -1.75 -0.625q-0.640625 -0.625 -0.640625 -1.609375q0 -1.140625 0.90625 -1.765625q0.90625 -0.640625 2.546875 -0.640625l0.9375 0l0 -0.265625q0 -1.078125 -1.390625 -1.078125q-0.359375 0 -0.90625 0.09375q-0.53125 0.09375 -1.046875 0.265625l-0.46875 -1.390625q0.671875 -0.25 1.40625 -0.390625q0.75 -0.140625 1.34375 -0.140625q3.09375 0 3.09375 2.5l0 2.765625zm-3.3125 0.765625q0.359375 0 0.71875 -0.203125q0.375 -0.203125 0.5625 -0.5625l0 -1.171875l-0.515625 0q-1.703125 0 -1.703125 1.078125q0 0.40625 0.234375 0.640625q0.25 0.21875 0.703125 0.21875zm8.934357 -3.390625q0 -1.625 -0.578125 -2.890625q-0.578125 -1.28125 -1.9375 -2.765625l1.21875 -1.109375q1.6875 1.453125 2.5625 3.078125q0.875 1.609375 0.875 3.6875q0 2.09375 -0.875 3.71875q-0.875 1.609375 -2.5625 3.0625l-1.21875 -1.109375q0.96875 -1.0625 1.5 -1.921875q0.546875 -0.859375 0.78125 -1.734375q0.234375 -0.890625 0.234375 -2.015625zm7.4812317 -2.515625q0.578125 0 0.984375 0.421875q0.40625 0.40625 0.40625 0.984375q0 0.5625 -0.40625 0.984375q-0.40625 0.40625 -0.984375 0.40625q-0.59375 0 -1.0 -0.40625q-0.40625 -0.421875 -0.40625 -0.984375q0 -0.578125 0.40625 -0.984375q0.40625 -0.421875 1.0 -0.421875zm0 4.5625q0.59375 0 0.984375 0.40625q0.40625 0.390625 0.40625 0.984375q0 0.34375 -0.125 0.71875q-0.125 0.375 -0.421875 1.046875l-0.921875 2.109375l-1.375 0l0.65625 -2.734375q-0.28125 -0.1875 -0.453125 -0.484375q-0.15625 -0.3125 -0.15625 -0.671875q0 -0.59375 0.40625 -0.984375q0.40625 -0.390625 1.0 -0.390625zm12.384277 3.359375l5.59375 -11.625l1.625 0.765625l-5.578125 11.625l-1.640625 -0.765625zm7.996826 0l5.59375 -11.625l1.625 0.765625l-5.578125 11.625l-1.640625 -0.765625zm18.634338 -2.96875q0 0.484375 0.1875 0.703125q0.1875 0.203125 0.546875 0.203125q0.3125 0 0.640625 -0.203125q0.34375 -0.21875 0.546875 -0.578125l0 -4.96875l2.109375 0l0 7.078125l-1.84375 0l-0.09375 -0.828125q-0.34375 0.515625 -0.9375 0.796875q-0.578125 0.265625 -1.234375 0.265625q-1.0 0 -1.515625 -0.578125q-0.5 -0.59375 -0.5 -1.625l0 -5.109375l2.09375 0l0 4.84375zm5.903076 -4.84375l1.828125 0l0.15625 0.8125q0.484375 -0.53125 1.0 -0.78125q0.53125 -0.265625 1.203125 -0.265625q0.90625 0 1.421875 0.5625q0.515625 0.546875 0.515625 1.546875l0 5.203125l-2.109375 0l0 -4.578125q0 -0.671875 -0.140625 -0.921875q-0.140625 -0.25 -0.53125 -0.25q-0.328125 0 -0.625 0.203125q-0.296875 0.203125 -0.625 0.609375l0 4.9375l-2.09375 0l0 -7.078125zm14.121826 -2.8125l0 9.890625l-1.859375 0l-0.109375 -0.765625q-0.328125 0.453125 -0.828125 0.734375q-0.484375 0.265625 -1.140625 0.265625q-1.265625 0 -1.9375 -1.015625q-0.65625 -1.015625 -0.65625 -2.78125q0 -1.09375 0.34375 -1.9375q0.34375 -0.859375 0.984375 -1.328125q0.640625 -0.484375 1.5 -0.484375q0.953125 0 1.59375 0.65625l0 -3.453125l2.109375 0.21875zm-3.140625 4.125q-0.578125 0 -0.90625 0.546875q-0.3125 0.53125 -0.3125 1.671875q0 1.234375 0.28125 1.734375q0.296875 0.5 0.8125 0.5q0.671875 0 1.15625 -0.8125l0 -3.0625q-0.21875 -0.296875 -0.46875 -0.4375q-0.25 -0.140625 -0.5625 -0.140625zm6.840637 2.84375q0.1875 1.609375 1.703125 1.609375q0.90625 0 1.8125 -0.578125l0.84375 1.140625q-0.53125 0.453125 -1.25 0.71875q-0.71875 0.265625 -1.578125 0.265625q-1.1875 0 -2.015625 -0.46875q-0.828125 -0.484375 -1.25 -1.328125q-0.421875 -0.84375 -0.421875 -1.96875q0 -1.0625 0.40625 -1.921875q0.40625 -0.859375 1.1875 -1.359375q0.78125 -0.5 1.859375 -0.5q1.015625 0 1.765625 0.4375q0.75 0.421875 1.15625 1.25q0.40625 0.8125 0.40625 1.953125q0 0.4375 -0.046875 0.75l-4.578125 0zm1.296875 -2.984375q-0.578125 0 -0.921875 0.421875q-0.34375 0.421875 -0.40625 1.28125l2.59375 0q-0.03125 -1.703125 -1.265625 -1.703125zm9.371826 -4.203125q1.359375 0 2.421875 0.453125l-0.578125 1.359375q-0.6875 -0.265625 -1.515625 -0.265625q-0.625 0 -0.90625 0.234375q-0.265625 0.21875 -0.265625 0.75l0 0.9375l2.3125 0l-0.25 1.46875l-2.0625 0l0 5.171875l-2.09375 0l0 -5.171875l-1.484375 0l0 -1.46875l1.484375 0l0 -1.015625q0 -1.09375 0.765625 -1.765625q0.765625 -0.6875 2.171875 -0.6875zm6.543701 -0.671875q0.546875 0 0.890625 0.34375q0.34375 0.328125 0.34375 0.84375q0 0.515625 -0.34375 0.859375q-0.34375 0.328125 -0.890625 0.328125q-0.546875 0 -0.90625 -0.34375q-0.34375 -0.34375 -0.34375 -0.84375q0 -0.515625 0.34375 -0.84375q0.359375 -0.34375 0.90625 -0.34375zm1.265625 9.34375l1.8125 0l0 1.4375l-5.921875 0l0 -1.4375l2.0 0l0 -4.203125l-1.921875 0l0 -1.4375l4.03125 0l0 5.640625zm3.6843262 -5.640625l1.828125 0l0.15625 0.8125q0.484375 -0.53125 1.0 -0.78125q0.53125 -0.265625 1.203125 -0.265625q0.90625 0 1.421875 0.5625q0.515625 0.546875 0.515625 1.546875l0 5.203125l-2.109375 0l0 -4.578125q0 -0.671875 -0.140625 -0.921875q-0.140625 -0.25 -0.53125 -0.25q-0.328125 0 -0.625 0.203125q-0.296875 0.203125 -0.625 0.609375l0 4.9375l-2.09375 0l0 -7.078125zm9.825012 4.15625q0.1875 1.609375 1.703125 1.609375q0.90625 0 1.8125 -0.578125l0.84375 1.140625q-0.53125 0.453125 -1.25 0.71875q-0.71875 0.265625 -1.578125 0.265625q-1.1875 0 -2.015625 -0.46875q-0.828125 -0.484375 -1.25 -1.328125q-0.421875 -0.84375 -0.421875 -1.96875q0 -1.0625 0.40625 -1.921875q0.40625 -0.859375 1.1875 -1.359375q0.78125 -0.5 1.859375 -0.5q1.015625 0 1.765625 0.4375q0.75 0.421875 1.15625 1.25q0.40625 0.8125 0.40625 1.953125q0 0.4375 -0.046875 0.75l-4.578125 0zm1.296875 -2.984375q-0.578125 0 -0.921875 0.421875q-0.34375 0.421875 -0.40625 1.28125l2.59375 0q-0.03125 -1.703125 -1.265625 -1.703125zm10.996826 -3.984375l0 9.890625l-1.859375 0l-0.109375 -0.765625q-0.328125 0.453125 -0.828125 0.734375q-0.484375 0.265625 -1.140625 0.265625q-1.265625 0 -1.9375 -1.015625q-0.65625 -1.015625 -0.65625 -2.78125q0 -1.09375 0.34375 -1.9375q0.34375 -0.859375 0.984375 -1.328125q0.640625 -0.484375 1.5 -0.484375q0.953125 0 1.59375 0.65625l0 -3.453125l2.109375 0.21875zm-3.140625 4.125q-0.578125 0 -0.90625 0.546875q-0.3125 0.53125 -0.3125 1.671875q0 1.234375 0.28125 1.734375q0.296875 0.5 0.8125 0.5q0.671875 0 1.15625 -0.8125l0 -3.0625q-0.21875 -0.296875 -0.46875 -0.4375q-0.25 -0.140625 -0.5625 -0.140625z" fill-rule="nonzero"></path><path fill="#000000" fill-opacity="0.0" d="m760.26245 146.76115l-701.95276 1.1338654" fill-rule="evenodd"></path><path stroke="#000000" stroke-width="2.0" stroke-linejoin="round" stroke-linecap="butt" d="m760.26245 146.76115l-701.95276 1.1338654" fill-rule="evenodd"></path><path fill="#cfe2f3" d="m760.26245 172.60892l1.1939087 0l0 19.102371l-1.1939087 0zm2.3878174 0l2.3878174 0l0 19.102371l-2.3878174 0zm3.581665 0l35.337646 0l0 -9.551178l19.102356 19.102371l-19.102356 19.102356l0 -9.551178l-35.337646 0z" fill-rule="evenodd"></path><path stroke="#000000" stroke-width="1.0" stroke-linejoin="round" stroke-linecap="butt" d="m760.26245 172.60892l1.1939087 0l0 19.102371l-1.1939087 0zm2.3878174 0l2.3878174 0l0 19.102371l-2.3878174 0zm3.581665 0l35.337646 0l0 -9.551178l19.102356 19.102371l-19.102356 19.102356l0 -9.551178l-35.337646 0z" fill-rule="evenodd"></path><path fill="#000000" d="m786.06006 188.02011l-1.203125 0q-0.203125 0 -0.34375 -0.09375q-0.125 -0.109375 -0.1875 -0.28125l-1.0625 -2.765625l-5.15625 0l-1.0625 2.765625q-0.0625 0.15625 -0.203125 0.265625q-0.125 0.109375 -0.328125 0.109375l-1.203125 0l4.578125 -11.46875l1.578125 0l4.59375 11.46875zm-7.515625 -4.25l4.28125 0l-1.796875 -4.671875q-0.1875 -0.4375 -0.34375 -1.078125q-0.09375 0.328125 -0.1875 0.609375q-0.078125 0.265625 -0.15625 0.484375l-1.796875 4.65625zm10.661133 -0.03125l0 4.28125l-1.546875 0l0 -11.46875l3.390625 0q1.09375 0 1.890625 0.265625q0.796875 0.25 1.328125 0.71875q0.53125 0.453125 0.78125 1.109375q0.265625 0.65625 0.265625 1.46875q0 0.796875 -0.28125 1.46875q-0.28125 0.65625 -0.828125 1.140625q-0.53125 0.46875 -1.328125 0.75q-0.796875 0.265625 -1.828125 0.265625l-1.84375 0zm0 -1.234375l1.84375 0q0.65625 0 1.15625 -0.171875q0.515625 -0.1875 0.859375 -0.5q0.34375 -0.3125 0.515625 -0.75q0.1875 -0.453125 0.1875 -0.96875q0 -1.109375 -0.6875 -1.71875q-0.671875 -0.609375 -2.03125 -0.609375l-1.84375 0l0 4.71875zm9.916504 5.515625l-1.546875 0l0 -11.46875l1.546875 0l0 11.46875z" fill-rule="nonzero"></path></g></svg>

