<?xml version="1.0" standalone="yes"?>

<svg version="1.1" viewBox="0.0 0.0 2190.191601049869 1441.7847769028872" fill="none" stroke="none" stroke-linecap="square" stroke-miterlimit="10" xmlns="http://www.w3.org/2000/svg" xmlns:xlink="http://www.w3.org/1999/xlink"><clipPath id="p.0"><path d="m0 0l2190.1917 0l0 1441.7848l-2190.1917 0l0 -1441.7848z" clip-rule="nonzero"></path></clipPath><g clip-path="url(#p.0)"><path fill="#000000" fill-opacity="0.0" d="m0 0l2190.1917 0l0 1441.7848l-2190.1917 0z" fill-rule="evenodd"></path><path fill="#fff2cc" d="m41.740158 110.52493l470.11023 0l0 91.74803l-470.11023 0z" fill-rule="evenodd"></path><path stroke="#ff9900" stroke-width="1.0" stroke-linejoin="round" stroke-linecap="butt" d="m41.740158 110.52493l470.11023 0l0 91.74803l-470.11023 0z" fill-rule="evenodd"></path><path fill="#000000" d="m198.96693 161.61896q0 2.078125 -1.09375 3.6875q-1.078125 1.59375 -3.109375 2.484375q-2.03125 0.875 -4.8125 0.875q-5.515625 0 -8.765625 -3.203125l2.65625 -2.9375q2.515625 2.234375 5.984375 2.234375q1.65625 0 2.65625 -0.71875q1.015625 -0.71875 1.015625 -2.0q0 -1.21875 -0.84375 -1.90625q-0.84375 -0.6875 -3.15625 -1.390625q-3.90625 -1.1875 -5.546875 -2.78125q-1.625 -1.609375 -1.625 -4.125q0 -1.984375 1.109375 -3.453125q1.109375 -1.484375 3.0 -2.25q1.90625 -0.765625 4.25 -0.765625q4.890625 0 7.9375 2.875l-2.46875 2.84375q-1.125 -0.921875 -2.421875 -1.375q-1.296875 -0.46875 -2.671875 -0.46875q-1.53125 0 -2.421875 0.5625q-0.875 0.546875 -0.875 1.609375q0 0.703125 0.40625 1.1875q0.40625 0.46875 1.328125 0.890625q0.921875 0.421875 2.78125 1.0q3.390625 1.015625 5.03125 2.640625q1.65625 1.609375 1.65625 4.484375zm18.559418 5.515625q-2.390625 1.53125 -5.5625 1.53125q-3.265625 0 -4.921875 -1.65625q-1.640625 -1.671875 -1.640625 -4.6875l0 -7.703125l-3.546875 0l0 -3.484375l3.546875 0l0 -3.6875l5.0625 -0.609375l0 4.296875l5.46875 0l-0.515625 3.484375l-4.953125 0l0 7.703125q0 1.25 0.5625 1.796875q0.578125 0.546875 1.859375 0.546875q1.609375 0 2.984375 -0.765625l1.65625 3.234375zm18.215668 -3.90625q0 0.921875 0.25 1.375q0.265625 0.4375 0.859375 0.671875l-1.046875 3.328125q-1.53125 -0.171875 -2.5625 -0.6875q-1.015625 -0.53125 -1.59375 -1.5625q-0.96875 1.125 -2.4375 1.71875q-1.46875 0.59375 -3.140625 0.59375q-2.625 0 -4.1875 -1.484375q-1.5625 -1.5 -1.5625 -3.859375q0 -2.75 2.171875 -4.265625q2.171875 -1.53125 6.109375 -1.53125l2.28125 0l0 -0.609375q0 -2.625 -3.375 -2.625q-0.859375 0 -2.15625 0.25q-1.296875 0.234375 -2.515625 0.65625l-1.140625 -3.359375q1.625 -0.609375 3.40625 -0.9375q1.78125 -0.34375 3.21875 -0.34375q7.421875 0 7.421875 6.015625l0 6.65625zm-7.9375 1.8125q0.859375 0 1.734375 -0.484375q0.890625 -0.5 1.34375 -1.359375l0 -2.796875l-1.25 0q-4.09375 0 -4.09375 2.5625q0 1.0 0.578125 1.546875q0.59375 0.53125 1.6875 0.53125zm25.793793 -14.421875q1.53125 0 2.8124847 0.515625l-0.92185974 7.09375l-3.203125 0l0 -3.140625q-1.40625 0.265625 -2.5 1.546875q-1.09375 1.28125 -1.6875 3.234375l0 4.859375l3.359375 0l0 3.390625l-10.65625 0l0 -3.390625l2.234375 0l0 -10.234375l-2.234375 0l0 -3.359375l6.109375 0l0.890625 3.796875q0.9375 -2.171875 2.34375 -3.234375q1.40625 -1.078125 3.453125 -1.078125zm21.528152 16.515625q-2.390625 1.53125 -5.5625 1.53125q-3.265625 0 -4.921875 -1.65625q-1.640625 -1.671875 -1.640625 -4.6875l0 -7.703125l-3.546875 0l0 -3.484375l3.546875 0l0 -3.6875l5.0625 -0.609375l0 4.296875l5.46875 0l-0.515625 3.484375l-4.953125 0l0 7.703125q0 1.25 0.5625 1.796875q0.578125 0.546875 1.859375 0.546875q1.609375 0 2.984375 -0.765625l1.65625 3.234375zm38.400085 0q-2.390625 1.53125 -5.5625 1.53125q-3.265625 0 -4.921875 -1.65625q-1.640625 -1.671875 -1.640625 -4.6875l0 -7.703125l-3.546875 0l0 -3.484375l3.546875 0l0 -3.6875l5.0625 -0.609375l0 4.296875l5.46875 0l-0.515625 3.484375l-4.953125 0l0 7.703125q0 1.25 0.5625 1.796875q0.578125 0.546875 1.859375 0.546875q1.609375 0 2.984375 -0.765625l1.65625 3.234375zm16.871918 -16.515625q1.53125 0 2.8125 0.515625l-0.921875 7.09375l-3.203125 0l0 -3.140625q-1.40625 0.265625 -2.5 1.546875q-1.09375 1.28125 -1.6875 3.234375l0 4.859375l3.359375 0l0 3.390625l-10.65625 0l0 -3.390625l2.234375 0l0 -10.234375l-2.234375 0l0 -3.359375l6.109375 0l0.890625 3.796875q0.9375 -2.171875 2.34375 -3.234375q1.40625 -1.078125 3.453125 -1.078125zm13.559418 -8.390625q1.3125 0 2.140625 0.828125q0.84375 0.8125 0.84375 2.015625q0 1.25 -0.84375 2.0625q-0.828125 0.796875 -2.140625 0.796875q-1.3125 0 -2.15625 -0.8125q-0.84375 -0.828125 -0.84375 -2.046875q0 -1.203125 0.84375 -2.015625q0.84375 -0.828125 2.15625 -0.828125zm3.046875 22.4375l4.34375 0l0 3.453125l-14.203125 0l0 -3.453125l4.796875 0l0 -10.078125l-4.640625 0l0 -3.453125l9.703125 0l0 13.53125zm18.231293 -14.109375q3.203125 0 4.703125 2.359375q1.515625 2.34375 1.515625 6.65625q0 2.625 -0.796875 4.6875q-0.78125 2.0625 -2.25 3.234375q-1.46875 1.171875 -3.484375 1.171875q-2.46875 0 -4.03125 -1.765625l0 7.78125l-5.0625 0.546875l0 -24.09375l4.484375 0l0.21875 1.875q1.0 -1.25 2.234375 -1.84375q1.234375 -0.609375 2.46875 -0.609375zm-1.5625 3.734375q-1.59375 0 -2.78125 1.984375l0 7.171875q0.546875 0.765625 1.140625 1.140625q0.59375 0.359375 1.359375 0.359375q1.40625 0 2.125 -1.265625q0.71875 -1.265625 0.71875 -4.046875q0 -3.0 -0.640625 -4.171875q-0.640625 -1.171875 -1.921875 -1.171875z" fill-rule="nonzero"></path><path fill="#000000" fill-opacity="0.0" d="m41.742783 16.761154l470.11023 0l0 91.74803l-470.11023 0z" fill-rule="evenodd"></path><path fill="#9900ff" d="m150.23972 51.324543q-0.265625 0.53125 -0.625 0.75q-0.34375 0.203125 -0.828125 0.203125q-0.46875 0 -1.078125 -0.359375q-0.59375 -0.375 -1.40625 -0.828125q-0.8125 -0.46875 -1.90625 -0.828125q-1.09375 -0.375 -2.578125 -0.375q-1.34375 0 -2.34375 0.328125q-1.0 0.3125 -1.6875 0.890625q-0.6875 0.578125 -1.03125 1.390625q-0.328125 0.796875 -0.328125 1.75q0 1.234375 0.6875 2.046875q0.6875 0.8125 1.8125 1.390625q1.125 0.578125 2.5625 1.03125q1.453125 0.453125 2.953125 0.96875q1.5 0.515625 2.9375 1.203125q1.4375 0.6875 2.5625 1.734375q1.125 1.03125 1.8125 2.5468788q0.6875 1.515625 0.6875 3.671875q0 2.359375 -0.8125 4.40625q-0.796875 2.046875 -2.34375 3.578125q-1.546875 1.515625 -3.78125 2.40625q-2.234375 0.875 -5.109375 0.875q-1.65625 0 -3.265625 -0.328125q-1.609375 -0.328125 -3.09375 -0.921875q-1.46875 -0.609375 -2.75 -1.4375q-1.28125 -0.84375 -2.296875 -1.875l1.875 -3.09375q0.265625 -0.34375 0.640625 -0.5625q0.375 -0.234375 0.828125 -0.234375q0.59375 0 1.28125 0.5q0.703125 0.484375 1.65625 1.09375q0.953125 0.59375 2.234375 1.09375q1.28125 0.484375 3.078125 0.484375q2.765625 0 4.265625 -1.3125q1.515625 -1.3125 1.515625 -3.75q0 -1.375 -0.6875 -2.234375q-0.671875 -0.875 -1.8125 -1.453125q-1.125 -0.59375 -2.5625 -1.0q-1.4375 -0.40625 -2.921875 -0.890625q-1.484375 -0.4843788 -2.9375 -1.1562538q-1.4375 -0.671875 -2.5625 -1.75q-1.125 -1.078125 -1.8125 -2.6875q-0.6875 -1.625 -0.6875 -4.0q0 -1.90625 0.75 -3.703125q0.765625 -1.796875 2.21875 -3.1875q1.453125 -1.390625 3.5625 -2.234375q2.109375 -0.84375 4.828125 -0.84375q3.078125 0 5.65625 0.96875q2.59375 0.953125 4.421875 2.6875l-1.578125 3.046875zm6.8144226 28.390629l0 -35.656254l5.921875 0l0 13.703125q1.4375 -1.375 3.15625 -2.21875q1.734375 -0.84375 4.0625 -0.84375q2.03125 0 3.578125 0.6875q1.5625 0.6875 2.609375 1.921875q1.046875 1.234375 1.578125 2.953125q0.546875 1.71875 0.546875 3.7812538l0 15.671875l-5.921875 0l0 -15.671875q0 -2.2500038 -1.046875 -3.4843788q-1.046875 -1.25 -3.140625 -1.25q-1.53125 0 -2.875 0.703125q-1.34375 0.6875 -2.546875 1.890625l0 17.812504l-5.921875 0zm37.803543 -25.015629q2.75 0 4.984375 0.890625q2.25 0.890625 3.828125 2.53125q1.59375 1.625 2.453125 3.984375q0.875 2.3437538 0.875 5.250004q0 2.921875 -0.875 5.28125q-0.859375 2.34375 -2.453125 4.0q-1.578125 1.65625 -3.828125 2.546875q-2.234375 0.890625 -4.984375 0.890625q-2.765625 0 -5.03125 -0.890625q-2.25 -0.890625 -3.84375 -2.546875q-1.59375 -1.65625 -2.46875 -4.0q-0.875 -2.359375 -0.875 -5.28125q0 -2.90625 0.875 -5.250004q0.875 -2.359375 2.46875 -3.984375q1.59375 -1.640625 3.84375 -2.53125q2.265625 -0.890625 5.03125 -0.890625zm0 20.812504q3.0625 0 4.53125 -2.0625q1.484375 -2.0625 1.484375 -6.046875q0 -3.9843788 -1.484375 -6.062504q-1.46875 -2.09375 -4.53125 -2.09375q-3.125 0 -4.625 2.109375q-1.484375 2.09375 -1.484375 6.046879q0 3.953125 1.484375 6.03125q1.5 2.078125 4.625 2.078125zm16.772293 12.249992l0 -32.67187l3.625 0q0.578125 0 0.984375 0.265625q0.40625 0.265625 0.515625 0.8125l0.484375 2.28125q1.484375 -1.703125 3.421875 -2.75q1.9375 -1.0625 4.53125 -1.0625q2.015625 0 3.671875 0.84375q1.671875 0.828125 2.875 2.4375q1.21875 1.59375 1.875 3.9375q0.671875 2.3281288 0.671875 5.359379q0 2.75 -0.75 5.109375q-0.75 2.34375 -2.125 4.078125q-1.375 1.734375 -3.34375 2.703125q-1.953125 0.96875 -4.375 0.96875q-2.078125 0 -3.53125 -0.625q-1.453125 -0.640625 -2.609375 -1.78125l0 10.093742l-5.921875 0zm11.515625 -28.453121q-1.84375 0 -3.15625 0.78125q-1.3125 0.78125 -2.4375 2.203125l0 11.031254q1.015625 1.25 2.203125 1.75q1.1875 0.484375 2.546875 0.484375q1.34375 0 2.4375 -0.5q1.09375 -0.5 1.84375 -1.53125q0.765625 -1.03125 1.171875 -2.609375q0.40625 -1.578125 0.40625 -3.703125q0 -2.15625 -0.34375 -3.6562538q-0.34375 -1.5 -1.0 -2.4375q-0.640625 -0.9375 -1.578125 -1.375q-0.921875 -0.4375 -2.09375 -0.4375zm15.628296 28.453121l0 -32.67187l3.625 0q0.578125 0 0.984375 0.265625q0.40625 0.265625 0.515625 0.8125l0.484375 2.28125q1.484375 -1.703125 3.421875 -2.75q1.9375 -1.0625 4.53125 -1.0625q2.015625 0 3.671875 0.84375q1.671875 0.828125 2.875 2.4375q1.21875 1.59375 1.875 3.9375q0.671875 2.3281288 0.671875 5.359379q0 2.75 -0.75 5.109375q-0.75 2.34375 -2.125 4.078125q-1.375 1.734375 -3.34375 2.703125q-1.953125 0.96875 -4.375 0.96875q-2.078125 0 -3.53125 -0.625q-1.453125 -0.640625 -2.609375 -1.78125l0 10.093742l-5.921875 0zm11.515625 -28.453121q-1.84375 0 -3.15625 0.78125q-1.3125 0.78125 -2.4375 2.203125l0 11.031254q1.015625 1.25 2.203125 1.75q1.1875 0.484375 2.546875 0.484375q1.34375 0 2.4375 -0.5q1.09375 -0.5 1.84375 -1.53125q0.765625 -1.03125 1.171875 -2.609375q0.40625 -1.578125 0.40625 -3.703125q0 -2.15625 -0.34375 -3.6562538q-0.34375 -1.5 -1.0 -2.4375q-0.640625 -0.9375 -1.578125 -1.375q-0.921875 -0.4375 -2.09375 -0.4375zm21.940796 -4.21875l0 24.625004l-5.9375 0l0 -24.625004l5.9375 0zm0.890625 -7.171875q0 0.765625 -0.3125 1.4375q-0.3125 0.671875 -0.828125 1.171875q-0.515625 0.5 -1.21875 0.8125q-0.703125 0.296875 -1.484375 0.296875q-0.765625 0 -1.453125 -0.296875q-0.6875 -0.3125 -1.1875 -0.8125q-0.5 -0.5 -0.8125 -1.171875q-0.296875 -0.671875 -0.296875 -1.4375q0 -0.796875 0.296875 -1.484375q0.3125 -0.703125 0.8125 -1.203125q0.5 -0.5 1.1875 -0.796875q0.6875 -0.3125 1.453125 -0.3125q0.78125 0 1.484375 0.3125q0.703125 0.296875 1.21875 0.796875q0.515625 0.5 0.828125 1.203125q0.3125 0.6875 0.3125 1.484375zm5.80484 31.796879l0 -24.625004l3.625 0q1.140625 0 1.5 1.078125l0.421875 1.953125q0.734375 -0.78125 1.5625 -1.390625q0.828125 -0.625 1.75 -1.078125q0.921875 -0.46875 1.984375 -0.703125q1.0625 -0.25 2.296875 -0.25q2.03125 0 3.578125 0.6875q1.5625 0.6875 2.6093445 1.921875q1.046875 1.234375 1.578125 2.953125q0.546875 1.71875 0.546875 3.7812538l0 15.671875l-5.9218445 0l0 -15.671875q0 -2.2500038 -1.046875 -3.4843788q-1.046875 -1.25 -3.140625 -1.25q-1.53125 0 -2.875 0.703125q-1.34375 0.6875 -2.546875 1.890625l0 17.812504l-5.921875 0zm35.803528 -25.062504q1.578125 0 2.96875 0.328125q1.40625 0.328125 2.546875 0.953125l7.078125 0l0 2.203125q0 0.546875 -0.28125 0.859375q-0.28125 0.3125 -0.984375 0.4375l-2.203125 0.40625q0.234375 0.625 0.359375 1.328125q0.140625 0.6875 0.140625 1.453125q0 1.8281288 -0.734375 3.3125038q-0.734375 1.46875 -2.015625 2.5q-1.28125 1.03125 -3.046875 1.59375q-1.765625 0.5625 -3.828125 0.5625q-1.390625 0 -2.71875 -0.265625q-1.140625 0.703125 -1.140625 1.5625q0 0.75 0.671875 1.09375q0.6875 0.34375 1.796875 0.5q1.125 0.140625 2.53125 0.171875q1.421875 0.03125 2.90625 0.15625q1.5 0.125 2.90625 0.421875q1.421875 0.296875 2.53125 0.953125q1.125 0.640625 1.796875 1.765625q0.6875 1.109375 0.6875 2.859375q0 1.6406174 -0.796875 3.1718674q-0.796875 1.53125 -2.328125 2.734375q-1.515625 1.203125 -3.734375 1.921875q-2.203125 0.734375 -5.03125 0.734375q-2.8125 0 -4.875 -0.546875q-2.0625 -0.53125 -3.421875 -1.4375q-1.359375 -0.890625 -2.03125 -2.0625q-0.671875 -1.171875 -0.671875 -2.453125q0 -1.7187424 1.046875 -2.8906174q1.0625 -1.1875 2.9375 -1.875q-0.90625 -0.515625 -1.46875 -1.34375q-0.546875 -0.84375 -0.546875 -2.1875q0 -0.5625 0.1875 -1.140625q0.203125 -0.59375 0.59375 -1.171875q0.390625 -0.578125 0.984375 -1.09375q0.609375 -0.515625 1.421875 -0.921875q-1.859375 -1.0 -2.9375 -2.671875q-1.0625 -1.6875 -1.0625 -3.9531288q0 -1.8125 0.734375 -3.28125q0.734375 -1.484375 2.03125 -2.53125q1.3125 -1.046875 3.09375 -1.59375q1.796875 -0.5625 3.90625 -0.5625zm6.5 26.171871q0 -0.7187424 -0.4375 -1.1718674q-0.421875 -0.46875 -1.171875 -0.71875q-0.734375 -0.25 -1.734375 -0.359375q-1.0 -0.125 -2.125 -0.1875q-1.109375 -0.0625 -2.296875 -0.125q-1.1875 -0.0625 -2.28125 -0.203125q-1.015625 0.546875 -1.625 1.3125q-0.609375 0.75 -0.609375 1.7343674q0 0.65625 0.3125 1.21875q0.328125 0.5625 1.03125 0.96875q0.71875 0.40625 1.84375 0.625q1.125 0.234375 2.765625 0.234375q1.65625 0 2.84375 -0.25q1.203125 -0.25 1.984375 -0.703125q0.78125 -0.4375 1.140625 -1.046875q0.359375 -0.609375 0.359375 -1.328125zm-6.5 -14.015617q1.109375 0 1.921875 -0.296875q0.8125 -0.3125 1.34375 -0.828125q0.546875 -0.53125 0.828125 -1.28125q0.28125 -0.7500038 0.28125 -1.6250038q0 -1.828125 -1.09375 -2.890625q-1.09375 -1.078125 -3.28125 -1.078125q-2.1875 0 -3.28125 1.078125q-1.09375 1.0625 -1.09375 2.890625q0 0.859375 0.28125 1.6093788q0.28125 0.734375 0.8125 1.28125q0.546875 0.53125 1.375 0.84375q0.828125 0.296875 1.90625 0.296875zm50.369537 -21.796879l0 5.296875l-10.4375 0l0 29.406254l-6.453125 0l0 -29.406254l-10.484375 0l0 -5.296875l27.375 0zm3.778656 34.70313l0 -24.625004l3.46875 0q0.921875 0 1.28125 0.34375q0.359375 0.328125 0.484375 1.140625l0.359375 2.984375q1.3125 -2.28125 3.078125 -3.59375q1.78125 -1.328125 4.0 -1.328125q1.8125 0 3.015625 0.84375l-0.765625 4.4375q-0.0625 0.421875 -0.3125 0.609375q-0.234375 0.171875 -0.640625 0.171875q-0.359375 0 -0.984375 -0.15625q-0.625 -0.171875 -1.65625 -0.171875q-1.859375 0 -3.171875 1.03125q-1.3125 1.015625 -2.234375 2.9687538l0 15.34375l-5.921875 0zm25.92044 -24.625004l0 24.625004l-5.9375 0l0 -24.625004l5.9375 0zm0.890625 -7.171875q0 0.765625 -0.3125 1.4375q-0.3125 0.671875 -0.828125 1.171875q-0.515625 0.5 -1.21875 0.8125q-0.703125 0.296875 -1.484375 0.296875q-0.765625 0 -1.453125 -0.296875q-0.6875 -0.3125 -1.1875 -0.8125q-0.5 -0.5 -0.8125 -1.171875q-0.296875 -0.671875 -0.296875 -1.4375q0 -0.796875 0.296875 -1.484375q0.3125 -0.703125 0.8125 -1.203125q0.5 -0.5 1.1875 -0.796875q0.6875 -0.3125 1.453125 -0.3125q0.78125 0 1.484375 0.3125q0.703125 0.296875 1.21875 0.796875q0.515625 0.5 0.828125 1.203125q0.3125 0.6875 0.3125 1.484375zm5.8048096 39.843746l0 -32.67187l3.625 0q0.578125 0 0.984375 0.265625q0.40625 0.265625 0.515625 0.8125l0.484375 2.28125q1.484375 -1.703125 3.421875 -2.75q1.9375 -1.0625 4.53125 -1.0625q2.015625 0 3.671875 0.84375q1.671875 0.828125 2.875 2.4375q1.21875 1.59375 1.875 3.9375q0.671875 2.3281288 0.671875 5.359379q0 2.75 -0.75 5.109375q-0.75 2.34375 -2.125 4.078125q-1.375 1.734375 -3.34375 2.703125q-1.953125 0.96875 -4.375 0.96875q-2.078125 0 -3.53125 -0.625q-1.453125 -0.640625 -2.609375 -1.78125l0 10.093742l-5.921875 0zm11.515625 -28.453121q-1.84375 0 -3.15625 0.78125q-1.3125 0.78125 -2.4375 2.203125l0 11.031254q1.015625 1.25 2.203125 1.75q1.1875 0.484375 2.546875 0.484375q1.34375 0 2.4375 -0.5q1.09375 -0.5 1.84375 -1.53125q0.765625 -1.03125 1.171875 -2.609375q0.40625 -1.578125 0.40625 -3.703125q0 -2.15625 -0.34375 -3.6562538q-0.34375 -1.5 -1.0 -2.4375q-0.640625 -0.9375 -1.578125 -1.375q-0.921875 -0.4375 -2.09375 -0.4375z" fill-rule="nonzero"></path></g></svg>

