<?xml version="1.0" standalone="yes"?>

<svg version="1.1" viewBox="0.0 0.0 962.7900262467192 812.2388451443569" fill="none" stroke="none" stroke-linecap="square" stroke-miterlimit="10" xmlns="http://www.w3.org/2000/svg" xmlns:xlink="http://www.w3.org/1999/xlink"><clipPath id="p.0"><path d="m0 0l962.79004 0l0 812.23883l-962.79004 0l0 -812.23883z" clip-rule="nonzero"></path></clipPath><g clip-path="url(#p.0)"><path fill="#000000" fill-opacity="0.0" d="m0 0l962.79004 0l0 812.23883l-962.79004 0z" fill-rule="evenodd"></path><path fill="#000000" fill-opacity="0.0" d="m343.9344 68.75203l0 0c0 -37.970695 30.781342 -68.75203 68.752014 -68.75203l448.73218 0c18.234192 0 35.721497 7.243497 48.61505 20.137003c12.893494 12.893507 20.136963 30.380857 20.136963 48.61503l0 274.99988c0 37.970703 -30.781311 68.752045 -68.752014 68.752045l-448.73218 0c-37.970673 0 -68.752014 -30.781342 -68.752014 -68.752045z" fill-rule="evenodd"></path><path stroke="#000000" stroke-width="1.0" stroke-linejoin="round" stroke-linecap="butt" d="m343.9344 68.75203l0 0c0 -37.970695 30.781342 -68.75203 68.752014 -68.75203l448.73218 0c18.234192 0 35.721497 7.243497 48.61505 20.137003c12.893494 12.893507 20.136963 30.380857 20.136963 48.61503l0 274.99988c0 37.970703 -30.781311 68.752045 -68.752014 68.752045l-448.73218 0c-37.970673 0 -68.752014 -30.781342 -68.752014 -68.752045z" fill-rule="evenodd"></path><path fill="#000000" d="m584.73755 38.31803q1.84375 0 3.296875 0.515625q1.453125 0.5 2.453125 1.40625q1.015625 0.890625 1.546875 2.125q0.53125 1.21875 0.53125 2.625q0 1.59375 -0.375 2.78125q-0.375 1.171875 -1.078125 2.046875q-0.6875 0.859375 -1.71875 1.4375q-1.015625 0.578125 -2.3125 0.9375q2.234375 0.765625 3.328125 2.28125q1.109375 1.5 1.109375 3.625q0 2.34375 -0.90625 4.171875q-0.90625 1.8125 -2.4375 3.046875q-1.53125 1.234375 -3.515625 1.890625q-1.984375 0.640625 -4.140625 0.640625q-2.03125 0 -3.578125 -0.4375q-1.53125 -0.453125 -2.65625 -1.390625q-1.109375 -0.9375 -1.8125 -2.375q-0.6875 -1.453125 -1.0625 -3.40625l2.21875 -0.859375q0.59375 -0.25 1.140625 -0.25q0.515625 0 0.859375 0.203125q0.359375 0.203125 0.5 0.609375q0.3125 1.0 0.734375 1.734375q0.421875 0.71875 1.0 1.21875q0.578125 0.484375 1.328125 0.71875q0.765625 0.234375 1.765625 0.234375q1.390625 0 2.46875 -0.46875q1.078125 -0.484375 1.8125 -1.265625q0.75 -0.796875 1.140625 -1.8125q0.390625 -1.03125 0.390625 -2.109375q0 -0.8125 -0.265625 -1.5q-0.265625 -0.703125 -0.96875 -1.1875q-0.6875 -0.484375 -1.90625 -0.765625q-1.21875 -0.296875 -3.140625 -0.296875l0.453125 -3.390625q1.859375 -0.015625 3.171875 -0.359375q1.3125 -0.359375 2.125 -1.015625q0.828125 -0.65625 1.1875 -1.578125q0.375 -0.9375 0.375 -2.140625q0 -1.78125 -1.03125 -2.703125q-1.03125 -0.921875 -2.78125 -0.921875q-1.84375 0 -3.15625 0.96875q-1.3125 0.953125 -1.953125 2.5q-0.296875 0.734375 -0.765625 1.0625q-0.453125 0.3125 -1.09375 0.3125q-0.28125 0 -0.640625 -0.0625l-2.4375 -0.4375q0.546875 -2.0625 1.578125 -3.625q1.046875 -1.578125 2.453125 -2.625q1.40625 -1.046875 3.125 -1.578125q1.71875 -0.53125 3.640625 -0.53125zm34.748108 5.5q-0.28125 0.40625 -0.5625 0.59375q-0.28125 0.1875 -0.6875 0.1875q-0.390625 0 -0.8125 -0.3125q-0.421875 -0.328125 -1.0 -0.71875q-0.578125 -0.390625 -1.375 -0.703125q-0.78125 -0.328125 -1.90625 -0.328125q-1.09375 0 -1.9375 0.328125q-0.84375 0.3125 -1.421875 0.875q-0.5625 0.5625 -0.859375 1.328125q-0.28125 0.75 -0.28125 1.625q0 0.921875 0.46875 1.53125q0.46875 0.609375 1.21875 1.078125q0.765625 0.453125 1.75 0.8125q0.984375 0.359375 1.984375 0.765625q1.015625 0.390625 2.0 0.921875q0.984375 0.515625 1.734375 1.28125q0.765625 0.75 1.234375 1.828125q0.46875 1.0625 0.46875 2.578125q0 2.125 -0.734375 4.015625q-0.71875 1.875 -2.09375 3.28125q-1.375 1.40625 -3.328125 2.234375q-1.9375 0.828125 -4.375 0.828125q-1.265625 0 -2.484375 -0.265625q-1.21875 -0.265625 -2.3125 -0.765625q-1.078125 -0.5 -2.0 -1.203125q-0.90625 -0.703125 -1.59375 -1.5625l1.84375 -2.46875q0.21875 -0.28125 0.5625 -0.453125q0.34375 -0.1875 0.671875 -0.1875q0.328125 0 0.625 0.203125q0.3125 0.1875 0.6875 0.484375q0.375 0.28125 0.796875 0.640625q0.4375 0.34375 1.0 0.640625q0.5625 0.28125 1.25 0.484375q0.703125 0.203125 1.625 0.203125q2.265625 0 3.546875 -1.28125q1.28125 -1.28125 1.28125 -3.546875q0 -1.0 -0.46875 -1.640625q-0.453125 -0.640625 -1.21875 -1.078125q-0.765625 -0.4375 -1.734375 -0.765625q-0.953125 -0.328125 -1.96875 -0.6875q-1.0 -0.375 -1.96875 -0.859375q-0.953125 -0.5 -1.71875 -1.265625q-0.75 -0.78125 -1.21875 -1.890625q-0.453125 -1.125 -0.453125 -2.765625q0 -1.859375 0.6875 -3.578125q0.6875 -1.71875 1.96875 -3.03125q1.28125 -1.3125 3.109375 -2.09375q1.84375 -0.796875 4.140625 -0.796875q1.171875 0 2.265625 0.25q1.09375 0.234375 2.03125 0.671875q0.9375 0.4375 1.71875 1.046875q0.796875 0.609375 1.375 1.34375l-1.53125 2.1875zm4.0143433 19.53125q0 -0.125 0 -0.3125q0 -0.203125 0.03125 -0.5625q0.03125 -0.375 0.09375 -0.984375q0.078125 -0.609375 0.203125 -1.578125l1.140625 -9.1875l-1.953125 0q-0.328125 0 -0.546875 -0.203125q-0.203125 -0.21875 -0.203125 -0.640625q0 -0.03125 0 -0.078125q0.015625 -0.0625 0.03125 -0.265625q0.03125 -0.21875 0.078125 -0.640625q0.046875 -0.421875 0.125 -1.171875l3.125 -0.546875l1.640625 -5.59375q0.109375 -0.40625 0.40625 -0.625q0.296875 -0.21875 0.703125 -0.21875l2.640625 0l-0.796875 6.453125l4.96875 0l-0.421875 3.53125l-4.984375 0l-1.09375 8.9375q-0.109375 0.8125 -0.15625 1.296875q-0.046875 0.484375 -0.078125 0.75q-0.03125 0.265625 -0.046875 0.375q0 0.109375 0 0.15625q0 0.75 0.359375 1.203125q0.375 0.4375 1.0625 0.4375q0.421875 0 0.71875 -0.109375q0.296875 -0.109375 0.515625 -0.234375q0.21875 -0.125 0.390625 -0.234375q0.171875 -0.109375 0.328125 -0.109375q0.21875 0 0.34375 0.109375q0.140625 0.109375 0.234375 0.328125l1.0625 2.40625q-1.09375 0.90625 -2.4375 1.359375q-1.34375 0.453125 -2.703125 0.453125q-2.171875 0 -3.453125 -1.171875q-1.265625 -1.1875 -1.328125 -3.328125zm28.398743 4.1875l-2.59375 0q-0.90625 0 -1.265625 -0.421875q-0.359375 -0.421875 -0.359375 -1.0625l0.15625 -2.796875q-1.359375 2.125 -3.0625 3.359375q-1.6875 1.21875 -3.734375 1.21875q-1.15625 0 -2.171875 -0.453125q-1.0 -0.46875 -1.75 -1.375q-0.75 -0.90625 -1.1875 -2.28125q-0.421875 -1.375 -0.421875 -3.203125q0 -1.84375 0.453125 -3.578125q0.46875 -1.75 1.3125 -3.28125q0.84375 -1.53125 2.046875 -2.796875q1.203125 -1.28125 2.6875 -2.203125q1.5 -0.921875 3.21875 -1.421875q1.734375 -0.515625 3.65625 -0.515625q1.375 0 2.765625 0.203125q1.390625 0.1875 2.734375 0.703125l-2.484375 19.90625zm-8.921875 -3.734375q0.828125 0 1.609375 -0.5625q0.796875 -0.5625 1.5 -1.546875q0.703125 -1.0 1.296875 -2.328125q0.59375 -1.34375 1.046875 -2.890625l0.765625 -6.203125q-0.53125 -0.046875 -1.0 -0.046875q-1.65625 0 -3.078125 0.765625q-1.421875 0.75 -2.46875 2.046875q-1.03125 1.28125 -1.625 3.0q-0.578125 1.703125 -0.578125 3.59375q0 2.171875 0.671875 3.171875q0.6875 1.0 1.859375 1.0zm15.403076 -0.453125q0 -0.125 0 -0.3125q0 -0.203125 0.03125 -0.5625q0.03125 -0.375 0.09375 -0.984375q0.078125 -0.609375 0.203125 -1.578125l1.140625 -9.1875l-1.953125 0q-0.328125 0 -0.546875 -0.203125q-0.203125 -0.21875 -0.203125 -0.640625q0 -0.03125 0 -0.078125q0.015625 -0.0625 0.03125 -0.265625q0.03125 -0.21875 0.078125 -0.640625q0.046875 -0.421875 0.125 -1.171875l3.125 -0.546875l1.640625 -5.59375q0.109375 -0.40625 0.40625 -0.625q0.296875 -0.21875 0.703125 -0.21875l2.640625 0l-0.796875 6.453125l4.96875 0l-0.421875 3.53125l-4.984375 0l-1.09375 8.9375q-0.109375 0.8125 -0.15625 1.296875q-0.046875 0.484375 -0.078125 0.75q-0.03125 0.265625 -0.046875 0.375q0 0.109375 0 0.15625q0 0.75 0.359375 1.203125q0.375 0.4375 1.0625 0.4375q0.421875 0 0.71875 -0.109375q0.296875 -0.109375 0.515625 -0.234375q0.21875 -0.125 0.390625 -0.234375q0.171875 -0.109375 0.328125 -0.109375q0.21875 0 0.34375 0.109375q0.140625 0.109375 0.234375 0.328125l1.0625 2.40625q-1.09375 0.90625 -2.4375 1.359375q-1.34375 0.453125 -2.703125 0.453125q-2.171875 0 -3.453125 -1.171875q-1.265625 -1.1875 -1.328125 -3.328125zm29.601868 -11.578125q0 1.390625 -0.546875 2.53125q-0.546875 1.140625 -1.96875 2.046875q-1.421875 0.890625 -3.859375 1.546875q-2.421875 0.640625 -6.1875 1.015625l0 0.265625q0 4.84375 4.109375 4.84375q0.875 0 1.546875 -0.171875q0.6875 -0.171875 1.1875 -0.40625q0.515625 -0.25 0.921875 -0.546875q0.421875 -0.296875 0.765625 -0.53125q0.359375 -0.25 0.6875 -0.421875q0.34375 -0.171875 0.75 -0.171875q0.234375 0 0.46875 0.109375q0.25 0.109375 0.40625 0.34375l1.265625 1.515625q-1.0625 1.0625 -2.09375 1.84375q-1.015625 0.765625 -2.078125 1.265625q-1.046875 0.5 -2.234375 0.734375q-1.1875 0.25 -2.578125 0.25q-1.796875 0 -3.265625 -0.609375q-1.453125 -0.609375 -2.5 -1.71875q-1.03125 -1.109375 -1.609375 -2.671875q-0.5625 -1.578125 -0.5625 -3.515625q0 -1.625 0.34375 -3.171875q0.359375 -1.5625 1.015625 -2.96875q0.65625 -1.40625 1.609375 -2.578125q0.96875 -1.1875 2.171875 -2.046875q1.21875 -0.859375 2.65625 -1.328125q1.453125 -0.484375 3.125 -0.484375q1.609375 0 2.8125 0.46875q1.21875 0.453125 2.03125 1.1875q0.8125 0.71875 1.203125 1.625q0.40625 0.890625 0.40625 1.75zm-6.734375 -1.59375q-1.0 0 -1.859375 0.40625q-0.859375 0.40625 -1.5625 1.15625q-0.6875 0.734375 -1.203125 1.765625q-0.5 1.03125 -0.796875 2.25q2.484375 -0.34375 3.984375 -0.734375q1.515625 -0.40625 2.34375 -0.875q0.828125 -0.484375 1.09375 -1.015625q0.28125 -0.546875 0.28125 -1.171875q0 -0.296875 -0.140625 -0.609375q-0.125 -0.328125 -0.40625 -0.578125q-0.265625 -0.25 -0.703125 -0.421875q-0.421875 -0.171875 -1.03125 -0.171875zm21.951233 0.703125q-0.21875 0.3125 -0.421875 0.453125q-0.1875 0.125 -0.515625 0.125q-0.34375 0 -0.703125 -0.203125q-0.359375 -0.203125 -0.828125 -0.453125q-0.46875 -0.25 -1.078125 -0.4375q-0.609375 -0.203125 -1.46875 -0.203125q-1.578125 0 -2.421875 0.71875q-0.84375 0.703125 -0.84375 1.75q0 0.625 0.34375 1.0625q0.359375 0.421875 0.921875 0.75q0.5625 0.3125 1.28125 0.59375q0.71875 0.265625 1.46875 0.578125q0.765625 0.296875 1.484375 0.6875q0.71875 0.390625 1.28125 0.953125q0.5625 0.5625 0.90625 1.359375q0.359375 0.78125 0.359375 1.875q0 1.484375 -0.59375 2.828125q-0.59375 1.34375 -1.6875 2.359375q-1.09375 1.0 -2.65625 1.59375q-1.5625 0.578125 -3.484375 0.578125q-0.984375 0 -1.890625 -0.1875q-0.90625 -0.1875 -1.71875 -0.515625q-0.796875 -0.34375 -1.453125 -0.796875q-0.640625 -0.46875 -1.09375 -1.015625l1.203125 -1.875q0.21875 -0.34375 0.515625 -0.515625q0.3125 -0.1875 0.734375 -0.1875q0.421875 0 0.765625 0.265625q0.34375 0.25 0.796875 0.5625q0.453125 0.3125 1.109375 0.578125q0.65625 0.25 1.671875 0.25q0.8125 0 1.4375 -0.21875q0.640625 -0.21875 1.0625 -0.59375q0.4375 -0.375 0.65625 -0.875q0.21875 -0.5 0.21875 -1.0625q0 -0.6875 -0.34375 -1.125q-0.328125 -0.453125 -0.90625 -0.78125q-0.5625 -0.34375 -1.28125 -0.59375q-0.71875 -0.25 -1.46875 -0.53125q-0.75 -0.28125 -1.46875 -0.640625q-0.703125 -0.359375 -1.28125 -0.90625q-0.5625 -0.546875 -0.90625 -1.328125q-0.34375 -0.796875 -0.34375 -1.9375q0 -1.359375 0.515625 -2.640625q0.53125 -1.296875 1.53125 -2.28125q1.015625 -1.0 2.484375 -1.59375q1.46875 -0.609375 3.375 -0.609375q1.953125 0 3.46875 0.671875q1.515625 0.671875 2.546875 1.71875l-1.28125 1.796875z" fill-rule="nonzero"></path><path fill="#fff2cc" d="m9.375328 73.04462l260.28345 0l0 142.74016l-260.28345 0z" fill-rule="evenodd"></path><path stroke="#000000" stroke-width="1.0" stroke-linejoin="round" stroke-linecap="butt" d="m9.375328 73.04462l260.28345 0l0 142.74016l-260.28345 0z" fill-rule="evenodd"></path><path fill="#000000" d="m87.31419 147.99408l0 8.140625l-4.296875 0l0 -23.140625l7.53125 0q2.328125 0 4.015625 0.546875q1.703125 0.546875 2.796875 1.53125q1.109375 0.96875 1.625 2.328125q0.53125 1.359375 0.53125 2.96875q0 1.6875 -0.5625 3.09375q-0.546875 1.390625 -1.671875 2.40625q-1.125 1.0 -2.8125 1.5625q-1.671875 0.5625 -3.921875 0.5625l-3.234375 0zm0 -3.359375l3.234375 0q1.1875 0 2.0625 -0.296875q0.875 -0.296875 1.453125 -0.84375q0.578125 -0.5625 0.859375 -1.34375q0.296875 -0.796875 0.296875 -1.78125q0 -0.921875 -0.296875 -1.671875q-0.28125 -0.75 -0.859375 -1.28125q-0.578125 -0.53125 -1.453125 -0.8125q-0.875 -0.28125 -2.0625 -0.28125l-3.234375 0l0 8.3125zm15.328171 11.5l0 -16.421875l2.328125 0q0.609375 0 0.84375 0.234375q0.234375 0.21875 0.3125 0.765625l0.25 1.984375q0.875 -1.515625 2.0625 -2.390625q1.1875 -0.890625 2.65625 -0.890625q1.21875 0 2.015625 0.5625l-0.515625 2.953125q-0.046875 0.296875 -0.203125 0.421875q-0.15625 0.109375 -0.4375 0.109375q-0.234375 0 -0.65625 -0.109375q-0.40625 -0.109375 -1.109375 -0.109375q-1.21875 0 -2.109375 0.6875q-0.875 0.671875 -1.484375 1.984375l0 10.21875l-3.953125 0zm20.087646 -16.671875q1.828125 0 3.328125 0.59375q1.5 0.59375 2.546875 1.6875q1.0625 1.078125 1.640625 2.65625q0.578125 1.5625 0.578125 3.5q0 1.953125 -0.578125 3.515625q-0.578125 1.5625 -1.640625 2.671875q-1.046875 1.109375 -2.546875 1.703125q-1.5 0.578125 -3.328125 0.578125q-1.84375 0 -3.359375 -0.578125q-1.5 -0.59375 -2.5625 -1.703125q-1.0625 -1.109375 -1.65625 -2.671875q-0.578125 -1.5625 -0.578125 -3.515625q0 -1.9375 0.578125 -3.5q0.59375 -1.578125 1.65625 -2.65625q1.0625 -1.09375 2.5625 -1.6875q1.515625 -0.59375 3.359375 -0.59375zm0 13.875q2.046875 0 3.03125 -1.375q0.984375 -1.375 0.984375 -4.03125q0 -2.65625 -0.984375 -4.046875q-0.984375 -1.390625 -3.03125 -1.390625q-2.078125 0 -3.078125 1.40625q-0.984375 1.390625 -0.984375 4.03125q0 2.640625 0.984375 4.03125q1.0 1.375 3.078125 1.375zm11.176407 2.796875l0 -16.421875l2.421875 0q0.765625 0 1.0 0.71875l0.26564026 1.21875q0.421875 -0.46875 0.890625 -0.875q0.484375 -0.40625 1.015625 -0.6875q0.53125 -0.296875 1.140625 -0.453125q0.625 -0.171875 1.359375 -0.171875q1.5625 0 2.5625 0.84375q1.0 0.84375 1.484375 2.234375q0.390625 -0.828125 0.96875 -1.40625q0.578125 -0.578125 1.265625 -0.9375q0.6875 -0.375 1.453125 -0.546875q0.78125 -0.1875 1.5625 -0.1875q1.359375 0 2.40625 0.421875q1.0625 0.40625 1.78125 1.21875q0.734375 0.796875 1.109375 1.953125q0.375 1.140625 0.375 2.625l0 10.453125l-3.953125 0l0 -10.453125q0 -1.5625 -0.6875 -2.34375q-0.6875 -0.796875 -2.015625 -0.796875q-0.609375 0 -1.140625 0.203125q-0.515625 0.203125 -0.90625 0.59375q-0.390625 0.390625 -0.625 0.984375q-0.21875 0.59375 -0.21875 1.359375l0 10.453125l-3.96875 0l0 -10.453125q0 -1.640625 -0.65625 -2.390625q-0.65625 -0.75 -1.953125 -0.75q-0.859375 0 -1.609375 0.421875q-0.734375 0.421875 -1.375 1.15625l0 12.015625l-3.9531403 0zm31.147202 -16.421875l0 16.421875l-3.9375 0l0 -16.421875l3.9375 0zm0.59375 -4.78125q0 0.515625 -0.203125 0.96875q-0.203125 0.4375 -0.546875 0.78125q-0.34375 0.328125 -0.8125 0.53125q-0.46875 0.203125 -0.984375 0.203125q-0.515625 0 -0.984375 -0.203125q-0.453125 -0.203125 -0.796875 -0.53125q-0.328125 -0.34375 -0.53125 -0.78125q-0.1875 -0.453125 -0.1875 -0.96875q0 -0.53125 0.1875 -0.984375q0.203125 -0.46875 0.53125 -0.796875q0.34375 -0.34375 0.796875 -0.546875q0.46875 -0.203125 0.984375 -0.203125q0.515625 0 0.984375 0.203125q0.46875 0.203125 0.8125 0.546875q0.34375 0.328125 0.546875 0.796875q0.203125 0.453125 0.203125 0.984375zm13.625122 7.984375q-0.15625 0.265625 -0.34375 0.375q-0.171875 0.09375 -0.4375 0.09375q-0.296875 0 -0.625 -0.15625q-0.328125 -0.171875 -0.765625 -0.359375q-0.421875 -0.203125 -0.984375 -0.359375q-0.546875 -0.171875 -1.296875 -0.171875q-1.171875 0 -1.84375 0.5q-0.671875 0.5 -0.671875 1.296875q0 0.53125 0.34375 0.890625q0.34375 0.359375 0.90625 0.640625q0.578125 0.265625 1.296875 0.484375q0.71875 0.203125 1.46875 0.46875q0.75 0.25 1.46875 0.578125q0.734375 0.328125 1.296875 0.84375q0.5625 0.5 0.90625 1.203125q0.34375 0.703125 0.34375 1.6875q0 1.1875 -0.4375 2.1875q-0.421875 1.0 -1.25 1.734375q-0.828125 0.71875 -2.0625 1.125q-1.21875 0.40625 -2.796875 0.40625q-0.859375 0 -1.671875 -0.15625q-0.796875 -0.140625 -1.546875 -0.40625q-0.734375 -0.28125 -1.375 -0.640625q-0.625 -0.375 -1.109375 -0.8125l0.90625 -1.5q0.1875 -0.265625 0.421875 -0.40625q0.234375 -0.15625 0.609375 -0.15625q0.359375 0 0.6875 0.21875q0.328125 0.203125 0.765625 0.453125q0.4375 0.234375 1.015625 0.4375q0.578125 0.203125 1.484375 0.203125q0.703125 0 1.203125 -0.15625q0.5 -0.171875 0.828125 -0.4375q0.328125 -0.28125 0.484375 -0.640625q0.15625 -0.359375 0.15625 -0.75q0 -0.578125 -0.34375 -0.9375q-0.34375 -0.375 -0.921875 -0.640625q-0.5625 -0.28125 -1.296875 -0.484375q-0.71875 -0.21875 -1.484375 -0.46875q-0.75 -0.265625 -1.484375 -0.609375q-0.734375 -0.34375 -1.296875 -0.875q-0.5625 -0.53125 -0.90625 -1.296875q-0.34375 -0.765625 -0.34375 -1.84375q0 -1.015625 0.390625 -1.921875q0.40625 -0.921875 1.171875 -1.59375q0.78125 -0.6875 1.9375 -1.09375q1.171875 -0.40625 2.6875 -0.40625q1.703125 0 3.09375 0.5625q1.390625 0.5625 2.3125 1.46875l-0.890625 1.421875zm11.015289 -3.453125q1.5625 0 2.859375 0.5q1.3125 0.484375 2.25 1.4375q0.9375 0.953125 1.46875 2.34375q0.53125 1.375 0.53125 3.15625q0 0.453125 -0.046875 0.75q-0.03125 0.296875 -0.140625 0.46875q-0.09375 0.15625 -0.28125 0.234375q-0.171875 0.0625 -0.4375 0.0625l-10.15625 0q0.1875 2.53125 1.359375 3.71875q1.1875 1.1875 3.140625 1.1875q0.96875 0 1.65625 -0.21875q0.703125 -0.234375 1.21875 -0.5q0.515625 -0.28125 0.90625 -0.5q0.390625 -0.21875 0.765625 -0.21875q0.234375 0 0.40625 0.09375q0.1875 0.09375 0.3125 0.265625l1.15625 1.4375q-0.65625 0.765625 -1.484375 1.296875q-0.8125 0.515625 -1.703125 0.828125q-0.875 0.3125 -1.796875 0.4375q-0.921875 0.125 -1.78125 0.125q-1.71875 0 -3.1875 -0.5625q-1.46875 -0.5625 -2.5625 -1.671875q-1.09375 -1.125 -1.71875 -2.765625q-0.609375 -1.640625 -0.609375 -3.796875q0 -1.671875 0.53125 -3.15625q0.546875 -1.484375 1.5625 -2.578125q1.015625 -1.09375 2.484375 -1.734375q1.46875 -0.640625 3.296875 -0.640625zm0.078125 2.828125q-1.71875 0 -2.703125 0.984375q-0.96875 0.96875 -1.234375 2.765625l7.421875 0q0 -0.765625 -0.21875 -1.4375q-0.203125 -0.6875 -0.640625 -1.203125q-0.421875 -0.515625 -1.078125 -0.8125q-0.65625 -0.296875 -1.546875 -0.296875z" fill-rule="nonzero"></path><path fill="#666666" d="m506.90945 98.54068l260.28348 0l0 91.74803l-260.28348 0z" fill-rule="evenodd"></path><path stroke="#000000" stroke-width="1.0" stroke-linejoin="round" stroke-linecap="butt" d="m506.90945 98.54068l260.28348 0l0 91.74803l-260.28348 0z" fill-rule="evenodd"></path><path fill="#ffffff" d="m534.3666 138.97845q0 1.21875 -0.875 2.0625q-0.859375 0.828125 -2.140625 0.828125q-1.28125 0 -2.140625 -0.828125q-0.859375 -0.84375 -0.859375 -2.0625q0 -0.703125 0.21875 -1.453125q0.21875 -0.75 0.796875 -1.875l2.28125 -4.765625l2.875 0l-1.375 5.671875q1.21875 0.859375 1.21875 2.421875zm13.981262 11.78125q0 1.1875 0.421875 1.6875q0.4375 0.484375 1.3125 0.484375q0.765625 0 1.5625 -0.484375q0.796875 -0.5 1.3125 -1.375l0 -11.921875l5.046875 0l0 16.984375l-4.40625 0l-0.234375 -1.984375q-0.828125 1.21875 -2.234375 1.875q-1.40625 0.65625 -2.96875 0.65625q-2.40625 0 -3.640625 -1.390625q-1.234375 -1.390625 -1.234375 -3.890625l0 -12.25l5.0625 0l0 11.609375zm14.137573 -11.609375l4.421875 0l0.359375 1.9375q1.140625 -1.265625 2.40625 -1.890625q1.265625 -0.625 2.859375 -0.625q2.21875 0 3.4375 1.34375q1.234375 1.34375 1.234375 3.734375l0 12.484375l-5.046875 0l0 -11.015625q0 -1.59375 -0.359375 -2.203125q-0.34375 -0.609375 -1.28125 -0.609375q-0.765625 0 -1.484375 0.5q-0.71875 0.5 -1.484375 1.453125l0 11.875l-5.0625 0l0 -16.984375zm32.168762 -0.515625q1.53125 0 2.8125 0.515625l-0.921875 7.09375l-3.203125 0l0 -3.140625q-1.40625 0.265625 -2.5 1.546875q-1.09375 1.28125 -1.6875 3.234375l0 4.859375l3.359375 0l0 3.390625l-10.65625 0l0 -3.390625l2.234375 0l0 -10.234375l-2.234375 0l0 -3.359375l6.109375 0l0.890625 3.796875q0.9375 -2.171875 2.34375 -3.234375q1.40625 -1.078125 3.453125 -1.078125zm10.621948 10.484375q0.484375 3.875 4.09375 3.875q2.171875 0 4.359375 -1.40625l2.015625 2.75q-1.25 1.09375 -2.984375 1.71875q-1.71875 0.625 -3.8125 0.625q-2.84375 0 -4.828125 -1.140625q-1.984375 -1.140625 -3.0 -3.171875q-1.0 -2.03125 -1.0 -4.71875q0 -2.5625 0.96875 -4.625q0.984375 -2.0625 2.859375 -3.25q1.875 -1.203125 4.46875 -1.203125q2.421875 0 4.21875 1.046875q1.796875 1.03125 2.765625 3.0q0.984375 1.96875 0.984375 4.6875q0 1.046875 -0.109375 1.8125l-11.0 0zm3.140625 -7.15625q-1.375 0 -2.21875 1.015625q-0.828125 1.0 -0.984375 3.078125l6.234375 0q-0.0625 -4.09375 -3.03125 -4.09375zm18.496887 11.09375q1.3125 0 2.0625 -0.390625q0.75 -0.40625 0.75 -1.203125q0 -0.578125 -0.3125 -0.921875q-0.296875 -0.359375 -1.140625 -0.6875q-0.828125 -0.34375 -2.578125 -0.828125q-2.5625 -0.671875 -3.90625 -1.859375q-1.34375 -1.203125 -1.34375 -3.3125q0 -2.34375 1.9375 -3.8125q1.9375 -1.46875 5.421875 -1.46875q4.03125 0 6.875 2.078125l-2.015625 2.96875q-2.328125 -1.4375 -4.703125 -1.4375q-1.25 0 -1.84375 0.328125q-0.578125 0.3125 -0.578125 0.984375q0 0.453125 0.296875 0.765625q0.296875 0.296875 1.140625 0.625q0.859375 0.3125 2.5625 0.78125q1.8125 0.515625 2.984375 1.125q1.171875 0.609375 1.8125 1.640625q0.640625 1.015625 0.640625 2.609375q0 1.796875 -1.09375 3.078125q-1.09375 1.28125 -2.921875 1.921875q-1.8125 0.640625 -4.015625 0.640625q-2.375 0 -4.296875 -0.671875q-1.921875 -0.671875 -3.265625 -1.890625l2.53125 -2.84375q2.3125 1.78125 5.0 1.78125zm19.731262 -14.484375q3.875 0 6.0625 2.453125q2.203125 2.4375 2.203125 6.5625q0 4.296875 -2.1875 6.703125q-2.171875 2.390625 -6.078125 2.390625q-3.890625 0 -6.078125 -2.375q-2.171875 -2.390625 -2.171875 -6.6875q0 -2.71875 0.96875 -4.75q0.984375 -2.03125 2.859375 -3.15625q1.875 -1.140625 4.421875 -1.140625zm0 3.734375q-1.5625 0 -2.296875 1.265625q-0.734375 1.265625 -0.734375 4.046875q0 2.8125 0.734375 4.078125q0.734375 1.265625 2.296875 1.265625q1.578125 0 2.3125 -1.28125q0.734375 -1.28125 0.734375 -4.09375q0 -2.75 -0.734375 -4.015625q-0.734375 -1.265625 -2.3125 -1.265625zm20.715698 8.484375q0 1.890625 2.171875 1.890625q1.1875 0 2.4375 -0.515625l1.171875 3.390625q-2.046875 1.125 -4.890625 1.125q-2.96875 0 -4.46875 -1.703125q-1.484375 -1.71875 -1.484375 -4.828125l0 -14.296875l-4.984375 0l0 -3.46875l10.046875 0l0 18.40625zm20.700012 5.34375l-5.953125 0l-5.734375 -16.984375l5.484375 0l3.296875 13.109375l3.453125 -13.109375l5.109375 0l-5.65625 16.984375zm13.215698 -7.015625q0.484375 3.875 4.09375 3.875q2.171875 0 4.359375 -1.40625l2.015625 2.75q-1.25 1.09375 -2.984375 1.71875q-1.71875 0.625 -3.8125 0.625q-2.84375 0 -4.828125 -1.140625q-1.984375 -1.140625 -3.0 -3.171875q-1.0 -2.03125 -1.0 -4.71875q0 -2.5625 0.96875 -4.625q0.984375 -2.0625 2.859375 -3.25q1.875 -1.203125 4.46875 -1.203125q2.421875 0 4.21875 1.046875q1.796875 1.03125 2.765625 3.0q0.984375 1.96875 0.984375 4.6875q0 1.046875 -0.109375 1.8125l-11.0 0zm3.140625 -7.15625q-1.375 0 -2.21875 1.015625q-0.828125 1.0 -0.984375 3.078125l6.234375 0q-0.0625 -4.09375 -3.03125 -4.09375zm26.387512 -9.578125l0 23.75l-4.46875 0l-0.265625 -1.859375q-0.765625 1.09375 -1.953125 1.75q-1.171875 0.65625 -2.75 0.65625q-3.0625 0 -4.65625 -2.421875q-1.578125 -2.4375 -1.578125 -6.671875q0 -2.625 0.828125 -4.671875q0.828125 -2.046875 2.359375 -3.1875q1.546875 -1.15625 3.59375 -1.15625q2.3125 0 3.84375 1.59375l0 -8.3125l5.046875 0.53125zm-7.546875 9.890625q-1.375 0 -2.140625 1.296875q-0.765625 1.296875 -0.765625 4.046875q0 2.953125 0.6875 4.15625q0.6875 1.1875 1.9375 1.1875q1.59375 0 2.78125 -1.953125l0 -7.328125q-0.546875 -0.703125 -1.140625 -1.046875q-0.59375 -0.359375 -1.359375 -0.359375zm16.450073 -8.484375q0 -1.203125 0.859375 -2.046875q0.875 -0.859375 2.140625 -0.859375q1.28125 0 2.140625 0.859375q0.875 0.84375 0.875 2.046875q0 0.6875 -0.234375 1.4375q-0.21875 0.75 -0.796875 1.859375l-2.265625 4.78125l-2.875 0l1.375 -5.671875q-1.21875 -0.890625 -1.21875 -2.40625z" fill-rule="nonzero"></path><path fill="#000000" fill-opacity="0.0" d="m269.65878 144.4147l237.25986 0" fill-rule="evenodd"></path><path stroke="#000000" stroke-width="4.0" stroke-linejoin="round" stroke-linecap="butt" d="m269.65878 144.4147l213.25986 0" fill-rule="evenodd"></path><path fill="#000000" stroke="#000000" stroke-width="4.0" stroke-linecap="butt" d="m482.91864 151.02162l18.152374 -6.6069183l-18.152374 -6.6069336z" fill-rule="evenodd"></path><path fill="#d9ead3" d="m404.80054 284.71127l217.25983 0l0 91.74805l-217.25983 0z" fill-rule="evenodd"></path><path stroke="#000000" stroke-width="1.0" stroke-linejoin="round" stroke-linecap="butt" d="m404.80054 284.71127l217.25983 0l0 91.74805l-217.25983 0z" fill-rule="evenodd"></path><path fill="#000000" d="m429.94586 325.14905q0 1.21875 -0.875 2.0625q-0.859375 0.828125 -2.140625 0.828125q-1.28125 0 -2.140625 -0.828125q-0.859375 -0.84375 -0.859375 -2.0625q0 -0.703125 0.21875 -1.453125q0.21875 -0.75 0.796875 -1.875l2.28125 -4.765625l2.875 0l-1.375 5.671875q1.21875 0.859375 1.21875 2.421875zm21.887543 -0.34375q1.53125 0 2.8125 0.515625l-0.921875 7.09375l-3.203125 0l0 -3.140625q-1.40625 0.265625 -2.5 1.546875q-1.09375 1.28125 -1.6875 3.234375l0 4.859375l3.359375 0l0 3.390625l-10.65625 0l0 -3.390625l2.234375 0l0 -10.234375l-2.234375 0l0 -3.359375l6.109375 0l0.890625 3.796875q0.9375 -2.171875 2.34375 -3.234375q1.40625 -1.078125 3.453125 -1.078125zm10.621918 10.484375q0.484375 3.875 4.09375 3.875q2.171875 0 4.359375 -1.40625l2.015625 2.75q-1.25 1.09375 -2.984375 1.71875q-1.71875 0.625 -3.8125 0.625q-2.84375 0 -4.828125 -1.140625q-1.984375 -1.140625 -3.0 -3.171875q-1.0 -2.03125 -1.0 -4.71875q0 -2.5625 0.96875 -4.625q0.984375 -2.0625 2.859375 -3.25q1.875 -1.203125 4.46875 -1.203125q2.421875 0 4.21875 1.046875q1.796875 1.03125 2.765625 3.0q0.984375 1.96875 0.984375 4.6875q0 1.046875 -0.109375 1.8125l-11.0 0zm3.140625 -7.15625q-1.375 0 -2.21875 1.015625q-0.828125 1.0 -0.984375 3.078125l6.234375 0q-0.0625 -4.09375 -3.03125 -4.09375zm18.496918 11.09375q1.3125 0 2.0625 -0.390625q0.75 -0.40625 0.75 -1.203125q0 -0.578125 -0.3125 -0.921875q-0.296875 -0.359375 -1.140625 -0.6875q-0.828125 -0.34375 -2.578125 -0.828125q-2.5625 -0.671875 -3.90625 -1.859375q-1.34375 -1.203125 -1.34375 -3.3125q0 -2.34375 1.9375 -3.8125q1.9375 -1.46875 5.421875 -1.46875q4.03125 0 6.875 2.078125l-2.015625 2.96875q-2.328125 -1.4375 -4.703125 -1.4375q-1.25 0 -1.84375 0.328125q-0.578125 0.3125 -0.578125 0.984375q0 0.453125 0.296875 0.765625q0.296875 0.296875 1.140625 0.625q0.859375 0.3125 2.5625 0.78125q1.8125 0.515625 2.984375 1.125q1.171875 0.609375 1.8125 1.640625q0.640625 1.015625 0.640625 2.609375q0 1.796875 -1.09375 3.078125q-1.09375 1.28125 -2.921875 1.921875q-1.8125 0.640625 -4.015625 0.640625q-2.375 0 -4.296875 -0.671875q-1.921875 -0.671875 -3.265625 -1.890625l2.53125 -2.84375q2.3125 1.78125 5.0 1.78125zm19.731293 -14.484375q3.875 0 6.0625 2.453125q2.203125 2.4375 2.203125 6.5625q0 4.296875 -2.1875 6.703125q-2.171875 2.390625 -6.078125 2.390625q-3.890625 0 -6.078125 -2.375q-2.171875 -2.390625 -2.171875 -6.6875q0 -2.71875 0.96875 -4.75q0.984375 -2.03125 2.859375 -3.15625q1.875 -1.140625 4.421875 -1.140625zm0 3.734375q-1.5625 0 -2.296875 1.265625q-0.734375 1.265625 -0.734375 4.046875q0 2.8125 0.734375 4.078125q0.734375 1.265625 2.296875 1.265625q1.578125 0 2.3125 -1.28125q0.734375 -1.28125 0.734375 -4.09375q0 -2.75 -0.734375 -4.015625q-0.734375 -1.265625 -2.3125 -1.265625zm20.715637 8.484375q0 1.890625 2.171875 1.890625q1.1875 0 2.4375 -0.515625l1.171875 3.390625q-2.046875 1.125 -4.890625 1.125q-2.96875 0 -4.46875 -1.703125q-1.484375 -1.71875 -1.484375 -4.828125l0 -14.296875l-4.984375 0l0 -3.46875l10.046875 0l0 18.40625zm20.700073 5.34375l-5.953125 0l-5.734375 -16.984375l5.484375 0l3.296875 13.109375l3.453125 -13.109375l5.109375 0l-5.65625 16.984375zm13.215637 -7.015625q0.484375 3.875 4.09375 3.875q2.171875 0 4.359375 -1.40625l2.015625 2.75q-1.25 1.09375 -2.984375 1.71875q-1.71875 0.625 -3.8125 0.625q-2.84375 0 -4.828125 -1.140625q-1.984375 -1.140625 -3.0 -3.171875q-1.0 -2.03125 -1.0 -4.71875q0 -2.5625 0.96875 -4.625q0.984375 -2.0625 2.859375 -3.25q1.875 -1.203125 4.46875 -1.203125q2.421875 0 4.21875 1.046875q1.796875 1.03125 2.765625 3.0q0.984375 1.96875 0.984375 4.6875q0 1.046875 -0.109375 1.8125l-11.0 0zm3.140625 -7.15625q-1.375 0 -2.21875 1.015625q-0.828125 1.0 -0.984375 3.078125l6.234375 0q-0.0625 -4.09375 -3.03125 -4.09375zm26.387573 -9.578125l0 23.75l-4.46875 0l-0.265625 -1.859375q-0.765625 1.09375 -1.953125 1.75q-1.171875 0.65625 -2.75 0.65625q-3.0625 0 -4.65625 -2.421875q-1.578125 -2.4375 -1.578125 -6.671875q0 -2.625 0.828125 -4.671875q0.828125 -2.046875 2.359375 -3.1875q1.546875 -1.15625 3.59375 -1.15625q2.3125 0 3.84375 1.59375l0 -8.3125l5.046875 0.53125zm-7.546875 9.890625q-1.375 0 -2.140625 1.296875q-0.765625 1.296875 -0.765625 4.046875q0 2.953125 0.6875 4.15625q0.6875 1.1875 1.9375 1.1875q1.59375 0 2.78125 -1.953125l0 -7.328125q-0.546875 -0.703125 -1.140625 -1.046875q-0.59375 -0.359375 -1.359375 -0.359375zm16.450012 -8.484375q0 -1.203125 0.859375 -2.046875q0.875 -0.859375 2.140625 -0.859375q1.28125 0 2.140625 0.859375q0.875 0.84375 0.875 2.046875q0 0.6875 -0.234375 1.4375q-0.21875 0.75 -0.796875 1.859375l-2.265625 4.78125l-2.875 0l1.375 -5.671875q-1.21875 -0.890625 -1.21875 -2.40625z" fill-rule="nonzero"></path><path fill="#f4cccc" d="m652.04315 284.71127l217.25983 0l0 91.74805l-217.25983 0z" fill-rule="evenodd"></path><path stroke="#000000" stroke-width="1.0" stroke-linejoin="round" stroke-linecap="butt" d="m652.04315 284.71127l217.25983 0l0 91.74805l-217.25983 0z" fill-rule="evenodd"></path><path fill="#000000" d="m677.1885 325.14905q0 1.21875 -0.875 2.0625q-0.859375 0.828125 -2.140625 0.828125q-1.28125 0 -2.140625 -0.828125q-0.859375 -0.84375 -0.859375 -2.0625q0 -0.703125 0.21875 -1.453125q0.21875 -0.75 0.796875 -1.875l2.28125 -4.765625l2.875 0l-1.375 5.671875q1.21875 0.859375 1.21875 2.421875zm21.887573 -0.34375q1.53125 0 2.8125 0.515625l-0.921875 7.09375l-3.203125 0l0 -3.140625q-1.40625 0.265625 -2.5 1.546875q-1.09375 1.28125 -1.6875 3.234375l0 4.859375l3.359375 0l0 3.390625l-10.65625 0l0 -3.390625l2.234375 0l0 -10.234375l-2.234375 0l0 -3.359375l6.109375 0l0.890625 3.796875q0.9375 -2.171875 2.34375 -3.234375q1.40625 -1.078125 3.453125 -1.078125zm10.621887 10.484375q0.484375 3.875 4.09375 3.875q2.171875 0 4.359375 -1.40625l2.015625 2.75q-1.25 1.09375 -2.984375 1.71875q-1.71875 0.625 -3.8125 0.625q-2.84375 0 -4.828125 -1.140625q-1.984375 -1.140625 -3.0 -3.171875q-1.0 -2.03125 -1.0 -4.71875q0 -2.5625 0.96875 -4.625q0.984375 -2.0625 2.859375 -3.25q1.875 -1.203125 4.46875 -1.203125q2.421875 0 4.21875 1.046875q1.796875 1.03125 2.765625 3.0q0.984375 1.96875 0.984375 4.6875q0 1.046875 -0.109375 1.8125l-11.0 0zm3.140625 -7.15625q-1.375 0 -2.21875 1.015625q-0.828125 1.0 -0.984375 3.078125l6.234375 0q-0.0625 -4.09375 -3.03125 -4.09375zm21.278198 -11.71875q1.28125 0 2.125 0.828125q0.84375 0.8125 0.84375 2.015625q0 1.21875 -0.84375 2.046875q-0.84375 0.8125 -2.125 0.8125q-1.34375 0 -2.1875 -0.796875q-0.828125 -0.8125 -0.828125 -2.0625q0 -1.203125 0.84375 -2.015625q0.859375 -0.828125 2.171875 -0.828125zm3.265625 20.96875q0 3.609375 -1.34375 5.984375q-1.34375 2.390625 -3.984375 3.8125q-2.640625 1.421875 -6.765625 2.234375l-0.78125 -3.875q2.71875 -0.609375 4.390625 -1.515625q1.6875 -0.890625 2.546875 -2.40625q0.875 -1.515625 0.875 -3.921875l0 -8.921875l-6.078125 0l0 -3.453125l11.140625 0l0 12.0625zm10.715637 -2.09375q0.484375 3.875 4.09375 3.875q2.171875 0 4.359375 -1.40625l2.015625 2.75q-1.25 1.09375 -2.984375 1.71875q-1.71875 0.625 -3.8125 0.625q-2.84375 0 -4.828125 -1.140625q-1.984375 -1.140625 -3.0 -3.171875q-1.0 -2.03125 -1.0 -4.71875q0 -2.5625 0.96875 -4.625q0.984375 -2.0625 2.859375 -3.25q1.875 -1.203125 4.46875 -1.203125q2.421875 0 4.21875 1.046875q1.796875 1.03125 2.765625 3.0q0.984375 1.96875 0.984375 4.6875q0 1.046875 -0.109375 1.8125l-11.0 0zm3.140625 -7.15625q-1.375 0 -2.21875 1.015625q-0.828125 1.0 -0.984375 3.078125l6.234375 0q-0.0625 -4.09375 -3.03125 -4.09375zm20.700073 10.71875q0.953125 0 1.84375 -0.359375q0.90625 -0.375 1.9375 -1.078125l2.234375 3.1875q-1.21875 1.03125 -2.828125 1.640625q-1.59375 0.609375 -3.484375 0.609375q-2.71875 0 -4.6875 -1.125q-1.96875 -1.125 -3.03125 -3.140625q-1.046875 -2.015625 -1.046875 -4.671875q0 -2.65625 1.09375 -4.734375q1.09375 -2.078125 3.09375 -3.25q2.0 -1.1875 4.6875 -1.1875q1.875 0 3.375 0.53125q1.515625 0.515625 2.828125 1.609375l-2.171875 3.03125q-1.859375 -1.265625 -3.8125 -1.265625q-3.8125 0 -3.8125 5.265625q0 2.65625 0.984375 3.796875q1.0 1.140625 2.796875 1.140625zm25.465637 2.46875q-2.390625 1.53125 -5.5625 1.53125q-3.265625 0 -4.921875 -1.65625q-1.640625 -1.671875 -1.640625 -4.6875l0 -7.703125l-3.546875 0l0 -3.484375l3.546875 0l0 -3.6875l5.0625 -0.609375l0 4.296875l5.46875 0l-0.515625 3.484375l-4.953125 0l0 7.703125q0 1.25 0.5625 1.796875q0.578125 0.546875 1.859375 0.546875q1.609375 0 2.984375 -0.765625l1.65625 3.234375zm8.293823 -6.03125q0.484375 3.875 4.09375 3.875q2.171875 0 4.359375 -1.40625l2.015625 2.75q-1.25 1.09375 -2.984375 1.71875q-1.71875 0.625 -3.8125 0.625q-2.84375 0 -4.828125 -1.140625q-1.984375 -1.140625 -3.0 -3.171875q-1.0 -2.03125 -1.0 -4.71875q0 -2.5625 0.96875 -4.625q0.984375 -2.0625 2.859375 -3.25q1.875 -1.203125 4.46875 -1.203125q2.421875 0 4.21875 1.046875q1.796875 1.03125 2.765625 3.0q0.984375 1.96875 0.984375 4.6875q0 1.046875 -0.109375 1.8125l-11.0 0zm3.140625 -7.15625q-1.375 0 -2.21875 1.015625q-0.828125 1.0 -0.984375 3.078125l6.234375 0q-0.0625 -4.09375 -3.03125 -4.09375zm26.387512 -9.578125l0 23.75l-4.46875 0l-0.265625 -1.859375q-0.765625 1.09375 -1.953125 1.75q-1.171875 0.65625 -2.75 0.65625q-3.0625 0 -4.65625 -2.421875q-1.578125 -2.4375 -1.578125 -6.671875q0 -2.625 0.828125 -4.671875q0.828125 -2.046875 2.359375 -3.1875q1.546875 -1.15625 3.59375 -1.15625q2.3125 0 3.84375 1.59375l0 -8.3125l5.046875 0.53125zm-7.546875 9.890625q-1.375 0 -2.140625 1.296875q-0.765625 1.296875 -0.765625 4.046875q0 2.953125 0.6875 4.15625q0.6875 1.1875 1.9375 1.1875q1.59375 0 2.78125 -1.953125l0 -7.328125q-0.546875 -0.703125 -1.140625 -1.046875q-0.59375 -0.359375 -1.359375 -0.359375zm16.450073 -8.484375q0 -1.203125 0.859375 -2.046875q0.875 -0.859375 2.140625 -0.859375q1.28125 0 2.140625 0.859375q0.875 0.84375 0.875 2.046875q0 0.6875 -0.234375 1.4375q-0.21875 0.75 -0.796875 1.859375l-2.265625 4.78125l-2.875 0l1.375 -5.671875q-1.21875 -0.890625 -1.21875 -2.40625z" fill-rule="nonzero"></path><path fill="#000000" fill-opacity="0.0" d="m637.0512 190.28871l-123.62207 94.425186" fill-rule="evenodd"></path><path stroke="#000000" stroke-width="3.0" stroke-linejoin="round" stroke-linecap="butt" d="m637.0512 190.28871l-109.317505 83.49907" fill-rule="evenodd"></path><path fill="#000000" stroke="#000000" stroke-width="3.0" stroke-linecap="butt" d="m524.7258 269.8499l-7.8114014 12.201843l13.827087 -4.3260803z" fill-rule="evenodd"></path><path fill="#000000" fill-opacity="0.0" d="m637.0512 190.28871l123.62201 94.425186" fill-rule="evenodd"></path><path stroke="#000000" stroke-width="3.0" stroke-linejoin="round" stroke-linecap="butt" d="m637.0512 190.28871l109.317505 83.49907" fill-rule="evenodd"></path><path fill="#000000" stroke="#000000" stroke-width="3.0" stroke-linecap="butt" d="m743.36084 277.72568l13.827087 4.3260803l-7.8114014 -12.201843z" fill-rule="evenodd"></path><path fill="#000000" fill-opacity="0.0" d="m767.1942 76.91863l152.8504 0l0 134.99213l-152.8504 0z" fill-rule="evenodd"></path><path fill="#434343" d="m782.4936 121.09532l2.71875 0q0.421875 0 0.703125 0.203125q0.28125 0.203125 0.375 0.53125l2.953125 10.390625q0.109375 0.375 0.1875 0.828125q0.09375 0.453125 0.1875 0.953125q0.09375 -0.5 0.203125 -0.953125q0.109375 -0.453125 0.25 -0.828125l3.40625 -10.390625q0.09375 -0.265625 0.375 -0.5q0.28125 -0.234375 0.6875 -0.234375l0.953125 0q0.421875 0 0.6875 0.203125q0.28125 0.203125 0.390625 0.53125l3.390625 10.390625q0.265625 0.765625 0.453125 1.703125q0.078125 -0.46875 0.171875 -0.90625q0.09375 -0.4375 0.1875 -0.796875l2.953125 -10.390625q0.078125 -0.296875 0.359375 -0.515625q0.296875 -0.21875 0.703125 -0.21875l2.53125 0l-5.390625 17.359375l-2.90625 0l-3.796875 -11.859375q-0.078125 -0.21875 -0.15625 -0.484375q-0.078125 -0.265625 -0.140625 -0.5625q-0.078125 0.296875 -0.15625 0.5625q-0.078125 0.265625 -0.140625 0.484375l-3.828125 11.859375l-2.921875 0l-5.390625 -17.359375zm36.20996 17.359375l-1.328125 0q-0.421875 0 -0.671875 -0.125q-0.234375 -0.125 -0.359375 -0.515625l-0.265625 -0.875q-0.46875 0.421875 -0.921875 0.75q-0.4375 0.3125 -0.921875 0.53125q-0.484375 0.203125 -1.03125 0.3125q-0.53125 0.109375 -1.1875 0.109375q-0.78125 0 -1.4375 -0.203125q-0.65625 -0.21875 -1.140625 -0.625q-0.46875 -0.421875 -0.734375 -1.046875q-0.265625 -0.625 -0.265625 -1.453125q0 -0.703125 0.359375 -1.375q0.375 -0.6875 1.21875 -1.21875q0.859375 -0.546875 2.265625 -0.90625q1.421875 -0.375 3.53125 -0.421875l0 -0.71875q0 -1.234375 -0.53125 -1.828125q-0.515625 -0.59375 -1.515625 -0.59375q-0.71875 0 -1.203125 0.171875q-0.46875 0.171875 -0.828125 0.390625q-0.359375 0.203125 -0.65625 0.375q-0.296875 0.15625 -0.65625 0.15625q-0.296875 0 -0.515625 -0.15625q-0.21875 -0.15625 -0.34375 -0.375l-0.546875 -0.953125q2.125 -1.953125 5.125 -1.953125q1.078125 0 1.921875 0.359375q0.84375 0.359375 1.4375 0.984375q0.59375 0.625 0.890625 1.515625q0.3125 0.875 0.3125 1.90625l0 7.78125zm-5.765625 -1.84375q0.453125 0 0.84375 -0.078125q0.390625 -0.09375 0.71875 -0.265625q0.34375 -0.171875 0.65625 -0.40625q0.328125 -0.25 0.65625 -0.59375l0 -2.0625q-1.296875 0.046875 -2.171875 0.21875q-0.875 0.15625 -1.40625 0.40625q-0.515625 0.25 -0.75 0.59375q-0.21875 0.328125 -0.21875 0.734375q0 0.78125 0.46875 1.125q0.46875 0.328125 1.203125 0.328125zm11.829712 -10.46875l0 12.3125l-2.953125 0l0 -12.3125l2.953125 0zm0.453125 -3.59375q0 0.390625 -0.15625 0.734375q-0.15625 0.328125 -0.421875 0.578125q-0.25 0.25 -0.609375 0.40625q-0.34375 0.140625 -0.734375 0.140625q-0.390625 0 -0.734375 -0.140625q-0.328125 -0.15625 -0.59375 -0.40625q-0.25 -0.25 -0.40625 -0.578125q-0.140625 -0.34375 -0.140625 -0.734375q0 -0.390625 0.140625 -0.734375q0.15625 -0.34375 0.40625 -0.59375q0.265625 -0.265625 0.59375 -0.40625q0.34375 -0.15625 0.734375 -0.15625q0.390625 0 0.734375 0.15625q0.359375 0.140625 0.609375 0.40625q0.265625 0.25 0.421875 0.59375q0.15625 0.34375 0.15625 0.734375zm6.9415283 16.09375q-1.59375 0 -2.46875 -0.90625q-0.859375 -0.90625 -0.859375 -2.5l0 -6.875l-1.234375 0q-0.25 0 -0.421875 -0.15625q-0.171875 -0.15625 -0.171875 -0.46875l0 -1.171875l1.984375 -0.328125l0.625 -3.359375q0.046875 -0.234375 0.21875 -0.359375q0.171875 -0.140625 0.4375 -0.140625l1.53125 0l0 3.875l3.25 0l0 2.109375l-3.25 0l0 6.671875q0 0.578125 0.28125 0.90625q0.296875 0.3125 0.78125 0.3125q0.265625 0 0.453125 -0.0625q0.1875 -0.0625 0.328125 -0.125q0.140625 -0.078125 0.25 -0.140625q0.109375 -0.078125 0.21875 -0.078125q0.125 0 0.203125 0.078125q0.09375 0.0625 0.1875 0.1875l0.890625 1.4375q-0.65625 0.546875 -1.5 0.828125q-0.828125 0.265625 -1.734375 0.265625zm8.397461 -12.5l0 12.3125l-2.953125 0l0 -12.3125l2.953125 0zm0.453125 -3.59375q0 0.390625 -0.15625 0.734375q-0.15625 0.328125 -0.421875 0.578125q-0.25 0.25 -0.609375 0.40625q-0.34375 0.140625 -0.734375 0.140625q-0.390625 0 -0.734375 -0.140625q-0.328125 -0.15625 -0.59375 -0.40625q-0.25 -0.25 -0.40625 -0.578125q-0.140625 -0.34375 -0.140625 -0.734375q0 -0.390625 0.140625 -0.734375q0.15625 -0.34375 0.40625 -0.59375q0.265625 -0.265625 0.59375 -0.40625q0.34375 -0.15625 0.734375 -0.15625q0.390625 0 0.734375 0.15625q0.359375 0.140625 0.609375 0.40625q0.265625 0.25 0.421875 0.59375q0.15625 0.34375 0.15625 0.734375zm2.8946533 15.90625l0 -12.3125l1.8125 0q0.578125 0 0.765625 0.546875l0.203125 0.96875q0.375 -0.390625 0.78125 -0.703125q0.421875 -0.3125 0.875 -0.53125q0.46875 -0.234375 0.984375 -0.34375q0.53125 -0.125 1.15625 -0.125q1.015625 0 1.796875 0.34375q0.78125 0.34375 1.296875 0.96875q0.515625 0.609375 0.78125 1.46875q0.28125 0.84375 0.28125 1.875l0 7.84375l-2.96875 0l0 -7.84375q0 -1.125 -0.53125 -1.734375q-0.515625 -0.625 -1.546875 -0.625q-0.78125 0 -1.453125 0.359375q-0.671875 0.34375 -1.265625 0.9375l0 8.90625l-2.96875 0zm17.909729 -12.53125q0.796875 0 1.484375 0.171875q0.703125 0.15625 1.28125 0.46875l3.53125 0l0 1.109375q0 0.265625 -0.140625 0.421875q-0.140625 0.15625 -0.484375 0.21875l-1.109375 0.203125q0.125 0.3125 0.1875 0.671875q0.0625 0.34375 0.0625 0.71875q0 0.921875 -0.375 1.65625q-0.359375 0.734375 -1.0 1.25q-0.640625 0.515625 -1.53125 0.796875q-0.875 0.28125 -1.90625 0.28125q-0.703125 0 -1.359375 -0.125q-0.578125 0.34375 -0.578125 0.78125q0 0.359375 0.34375 0.546875q0.34375 0.171875 0.90625 0.25q0.5625 0.0625 1.265625 0.078125q0.703125 0.015625 1.4375 0.078125q0.75 0.0625 1.453125 0.21875q0.71875 0.140625 1.265625 0.46875q0.5625 0.328125 0.90625 0.890625q0.34375 0.546875 0.34375 1.421875q0 0.8125 -0.40625 1.578125q-0.390625 0.78125 -1.15625 1.375q-0.765625 0.59375 -1.875 0.953125q-1.09375 0.375 -2.515625 0.375q-1.40625 0 -2.4375 -0.265625q-1.03125 -0.265625 -1.703125 -0.71875q-0.671875 -0.453125 -1.015625 -1.046875q-0.328125 -0.578125 -0.328125 -1.21875q0 -0.859375 0.515625 -1.4375q0.53125 -0.59375 1.46875 -0.953125q-0.453125 -0.25 -0.734375 -0.671875q-0.265625 -0.421875 -0.265625 -1.09375q0 -0.265625 0.09375 -0.5625q0.09375 -0.296875 0.28125 -0.578125q0.203125 -0.296875 0.5 -0.546875q0.3125 -0.265625 0.71875 -0.46875q-0.9375 -0.5 -1.484375 -1.34375q-0.53125 -0.84375 -0.53125 -1.96875q0 -0.90625 0.359375 -1.640625q0.375 -0.75 1.03125 -1.265625q0.65625 -0.515625 1.546875 -0.796875q0.890625 -0.28125 1.953125 -0.28125zm3.25 13.078125q0 -0.359375 -0.21875 -0.578125q-0.21875 -0.234375 -0.59375 -0.359375q-0.359375 -0.125 -0.859375 -0.1875q-0.5 -0.0625 -1.0625 -0.09375q-0.546875 -0.03125 -1.140625 -0.046875q-0.59375 -0.03125 -1.15625 -0.109375q-0.5 0.28125 -0.8125 0.65625q-0.296875 0.375 -0.296875 0.875q0 0.3125 0.15625 0.59375q0.171875 0.28125 0.515625 0.484375q0.359375 0.203125 0.921875 0.3125q0.5625 0.125 1.375 0.125q0.828125 0 1.421875 -0.125q0.609375 -0.125 1.0 -0.34375q0.390625 -0.21875 0.5625 -0.53125q0.1875 -0.3125 0.1875 -0.671875zm-3.25 -7.0q0.546875 0 0.953125 -0.140625q0.421875 -0.15625 0.6875 -0.421875q0.265625 -0.265625 0.40625 -0.640625q0.140625 -0.375 0.140625 -0.8125q0 -0.921875 -0.546875 -1.453125q-0.546875 -0.53125 -1.640625 -0.53125q-1.09375 0 -1.640625 0.53125q-0.546875 0.53125 -0.546875 1.453125q0 0.421875 0.140625 0.796875q0.140625 0.375 0.40625 0.65625q0.265625 0.265625 0.671875 0.421875q0.421875 0.140625 0.96875 0.140625zm13.317749 6.453125l0 -10.078125l-1.0625 -0.171875q-0.34375 -0.0625 -0.5625 -0.234375q-0.203125 -0.1875 -0.203125 -0.5l0 -1.21875l1.828125 0l0 -0.90625q0 -1.0625 0.3125 -1.90625q0.328125 -0.84375 0.921875 -1.421875q0.59375 -0.59375 1.4375 -0.90625q0.859375 -0.3125 1.921875 -0.3125q0.859375 0 1.59375 0.234375l-0.0625 1.484375q-0.03125 0.34375 -0.328125 0.4375q-0.296875 0.078125 -0.6875 0.078125q-0.53125 0 -0.953125 0.125q-0.40625 0.109375 -0.703125 0.390625q-0.28125 0.28125 -0.4375 0.75q-0.140625 0.453125 -0.140625 1.140625l0 0.8125l3.203125 0l0 2.109375l-3.109375 0l0 10.09375l-2.96875 0zm13.146423 -12.5q1.375 0 2.5 0.453125q1.125 0.4375 1.90625 1.25q0.796875 0.8125 1.21875 2.0q0.4375 1.171875 0.4375 2.609375q0 1.46875 -0.4375 2.65625q-0.421875 1.171875 -1.21875 2.0q-0.78125 0.828125 -1.90625 1.28125q-1.125 0.4375 -2.5 0.4375q-1.390625 0 -2.515625 -0.4375q-1.125 -0.453125 -1.921875 -1.28125q-0.796875 -0.828125 -1.234375 -2.0q-0.4375 -1.1875 -0.4375 -2.65625q0 -1.4375 0.4375 -2.609375q0.4375 -1.1875 1.234375 -2.0q0.796875 -0.8125 1.921875 -1.25q1.125 -0.453125 2.515625 -0.453125zm0 10.40625q1.53125 0 2.265625 -1.03125q0.75 -1.03125 0.75 -3.03125q0 -1.984375 -0.75 -3.03125q-0.734375 -1.046875 -2.265625 -1.046875q-1.5625 0 -2.3125 1.046875q-0.734375 1.046875 -0.734375 3.03125q0 1.984375 0.734375 3.03125q0.75 1.03125 2.3125 1.03125zm8.378479 2.09375l0 -12.3125l1.75 0q0.453125 0 0.625 0.171875q0.1875 0.171875 0.25 0.578125l0.171875 1.484375q0.671875 -1.140625 1.546875 -1.796875q0.890625 -0.671875 2.0 -0.671875q0.90625 0 1.515625 0.421875l-0.390625 2.21875q-0.03125 0.21875 -0.15625 0.3125q-0.125 0.09375 -0.328125 0.09375q-0.171875 0 -0.484375 -0.078125q-0.3125 -0.09375 -0.828125 -0.09375q-0.921875 0 -1.59375 0.515625q-0.65625 0.5 -1.109375 1.484375l0 7.671875l-2.96875 0z" fill-rule="nonzero"></path><path fill="#434343" d="m797.6074 167.4547l-1.328125 0q-0.421875 0 -0.671875 -0.125q-0.234375 -0.125 -0.359375 -0.515625l-0.265625 -0.875q-0.46875 0.421875 -0.921875 0.75q-0.4375 0.3125 -0.921875 0.53125q-0.484375 0.203125 -1.03125 0.3125q-0.53125 0.109375 -1.1875 0.109375q-0.78125 0 -1.4375 -0.203125q-0.65625 -0.21875 -1.140625 -0.625q-0.46875 -0.421875 -0.734375 -1.046875q-0.265625 -0.625 -0.265625 -1.453125q0 -0.703125 0.359375 -1.375q0.375 -0.6875 1.21875 -1.21875q0.859375 -0.546875 2.265625 -0.90625q1.421875 -0.375 3.53125 -0.421875l0 -0.71875q0 -1.234375 -0.53125 -1.828125q-0.515625 -0.59375 -1.515625 -0.59375q-0.71875 0 -1.203125 0.171875q-0.46875 0.171875 -0.828125 0.390625q-0.359375 0.203125 -0.65625 0.375q-0.296875 0.15625 -0.65625 0.15625q-0.296875 0 -0.515625 -0.15625q-0.21875 -0.15625 -0.34375 -0.375l-0.546875 -0.953125q2.125 -1.953125 5.125 -1.953125q1.078125 0 1.921875 0.359375q0.84375 0.359375 1.4375 0.984375q0.59375 0.625 0.890625 1.515625q0.3125 0.875 0.3125 1.90625l0 7.78125zm-5.765625 -1.84375q0.453125 0 0.84375 -0.078125q0.390625 -0.09375 0.71875 -0.265625q0.34375 -0.171875 0.65625 -0.40625q0.328125 -0.25 0.65625 -0.59375l0 -2.0625q-1.296875 0.046875 -2.171875 0.21875q-0.875 0.15625 -1.40625 0.40625q-0.515625 0.25 -0.75 0.59375q-0.21875 0.328125 -0.21875 0.734375q0 0.78125 0.46875 1.125q0.46875 0.328125 1.203125 0.328125zm13.305481 1.84375l0 -12.3125l1.75 0q0.453125 0 0.625 0.171875q0.1875 0.171875 0.25 0.578125l0.171875 1.484375q0.671875 -1.140625 1.546875 -1.796875q0.890625 -0.671875 2.0 -0.671875q0.90625 0 1.515625 0.421875l-0.390625 2.21875q-0.03125 0.21875 -0.15625 0.3125q-0.125 0.09375 -0.328125 0.09375q-0.171875 0 -0.484375 -0.078125q-0.3125 -0.09375 -0.828125 -0.09375q-0.921875 0 -1.59375 0.515625q-0.65625 0.5 -1.109375 1.484375l0 7.671875l-2.96875 0zm14.897827 -12.5q1.171875 0 2.140625 0.375q0.984375 0.359375 1.6875 1.078125q0.703125 0.71875 1.09375 1.765625q0.40625 1.03125 0.40625 2.359375q0 0.328125 -0.03125 0.5625q-0.03125 0.21875 -0.109375 0.34375q-0.078125 0.125 -0.21875 0.1875q-0.125 0.046875 -0.328125 0.046875l-7.609375 0q0.140625 1.890625 1.015625 2.78125q0.890625 0.890625 2.359375 0.890625q0.71875 0 1.234375 -0.171875q0.53125 -0.171875 0.921875 -0.375q0.390625 -0.203125 0.6875 -0.359375q0.296875 -0.171875 0.5625 -0.171875q0.1875 0 0.3125 0.078125q0.140625 0.0625 0.234375 0.1875l0.859375 1.078125q-0.484375 0.578125 -1.109375 0.96875q-0.609375 0.390625 -1.28125 0.625q-0.65625 0.234375 -1.34375 0.328125q-0.6875 0.109375 -1.34375 0.109375q-1.28125 0 -2.390625 -0.421875q-1.09375 -0.4375 -1.921875 -1.265625q-0.8125 -0.84375 -1.28125 -2.0625q-0.46875 -1.234375 -0.46875 -2.859375q0 -1.265625 0.40625 -2.375q0.421875 -1.109375 1.171875 -1.921875q0.765625 -0.828125 1.859375 -1.296875q1.109375 -0.484375 2.484375 -0.484375zm0.0625 2.125q-1.296875 0 -2.03125 0.734375q-0.734375 0.71875 -0.9375 2.0625l5.578125 0q0 -0.5625 -0.15625 -1.078125q-0.15625 -0.515625 -0.484375 -0.890625q-0.328125 -0.390625 -0.828125 -0.609375q-0.484375 -0.21875 -1.140625 -0.21875zm14.984314 0.46875q-0.125 0.1875 -0.25 0.265625q-0.125 0.078125 -0.34375 0.078125q-0.203125 0 -0.453125 -0.109375q-0.25 -0.125 -0.578125 -0.28125q-0.3125 -0.15625 -0.734375 -0.265625q-0.40625 -0.125 -0.96875 -0.125q-0.875 0 -1.390625 0.375q-0.5 0.375 -0.5 0.96875q0 0.390625 0.25 0.671875q0.265625 0.265625 0.6875 0.46875q0.4375 0.203125 0.96875 0.375q0.546875 0.15625 1.109375 0.34375q0.5625 0.1875 1.09375 0.4375q0.546875 0.25 0.96875 0.625q0.4375 0.375 0.6875 0.90625q0.265625 0.53125 0.265625 1.265625q0 0.890625 -0.328125 1.640625q-0.328125 0.75 -0.953125 1.296875q-0.625 0.546875 -1.546875 0.859375q-0.90625 0.296875 -2.09375 0.296875q-0.640625 0 -1.25 -0.109375q-0.609375 -0.109375 -1.171875 -0.3125q-0.546875 -0.203125 -1.03125 -0.484375q-0.46875 -0.28125 -0.828125 -0.59375l0.6875 -1.140625q0.125 -0.203125 0.3125 -0.3125q0.1875 -0.109375 0.453125 -0.109375q0.28125 0 0.515625 0.15625q0.25 0.15625 0.578125 0.34375q0.328125 0.171875 0.765625 0.328125q0.4375 0.15625 1.109375 0.15625q0.53125 0 0.90625 -0.125q0.375 -0.125 0.625 -0.328125q0.25 -0.203125 0.359375 -0.46875q0.109375 -0.265625 0.109375 -0.5625q0 -0.421875 -0.265625 -0.703125q-0.25 -0.28125 -0.671875 -0.484375q-0.421875 -0.203125 -0.96875 -0.359375q-0.546875 -0.171875 -1.125 -0.359375q-0.5625 -0.1875 -1.109375 -0.4375q-0.546875 -0.265625 -0.984375 -0.65625q-0.421875 -0.40625 -0.6875 -0.984375q-0.25 -0.578125 -0.25 -1.390625q0 -0.75 0.296875 -1.4375q0.3125 -0.6875 0.890625 -1.1875q0.578125 -0.515625 1.453125 -0.8125q0.875 -0.3125 2.015625 -0.3125q1.265625 0 2.3125 0.421875q1.046875 0.40625 1.734375 1.09375l-0.671875 1.078125zm3.1755981 13.921875l0 -16.328125l1.8125 0q0.296875 0 0.5 0.140625q0.203125 0.125 0.265625 0.40625l0.234375 1.140625q0.75 -0.859375 1.703125 -1.390625q0.96875 -0.53125 2.265625 -0.53125q1.015625 0 1.84375 0.421875q0.84375 0.421875 1.4375 1.21875q0.609375 0.796875 0.9375 1.96875q0.328125 1.171875 0.328125 2.6875q0 1.375 -0.375 2.5625q-0.359375 1.171875 -1.0625 2.03125q-0.6875 0.859375 -1.671875 1.359375q-0.96875 0.484375 -2.171875 0.484375q-1.046875 0 -1.78125 -0.3125q-0.71875 -0.328125 -1.296875 -0.890625l0 5.03125l-2.96875 0zm5.765625 -14.21875q-0.921875 0 -1.578125 0.390625q-0.65625 0.390625 -1.21875 1.09375l0 5.53125q0.5 0.625 1.09375 0.875q0.59375 0.234375 1.28125 0.234375q0.671875 0 1.21875 -0.25q0.546875 -0.25 0.921875 -0.765625q0.375 -0.515625 0.578125 -1.296875q0.21875 -0.796875 0.21875 -1.859375q0 -1.078125 -0.1875 -1.828125q-0.171875 -0.75 -0.5 -1.21875q-0.3125 -0.46875 -0.78125 -0.6875q-0.453125 -0.21875 -1.046875 -0.21875zm13.0720825 -2.296875q1.375 0 2.5 0.453125q1.125 0.4375 1.90625 1.25q0.796875 0.8125 1.21875 2.0q0.4375 1.171875 0.4375 2.609375q0 1.46875 -0.4375 2.65625q-0.421875 1.171875 -1.21875 2.0q-0.78125 0.828125 -1.90625 1.28125q-1.125 0.4375 -2.5 0.4375q-1.390625 0 -2.515625 -0.4375q-1.125 -0.453125 -1.921875 -1.28125q-0.796875 -0.828125 -1.234375 -2.0q-0.4375 -1.1875 -0.4375 -2.65625q0 -1.4375 0.4375 -2.609375q0.4375 -1.1875 1.234375 -2.0q0.796875 -0.8125 1.921875 -1.25q1.125 -0.453125 2.515625 -0.453125zm0 10.40625q1.53125 0 2.265625 -1.03125q0.75 -1.03125 0.75 -3.03125q0 -1.984375 -0.75 -3.03125q-0.734375 -1.046875 -2.265625 -1.046875q-1.5625 0 -2.3125 1.046875q-0.734375 1.046875 -0.734375 3.03125q0 1.984375 0.734375 3.03125q0.75 1.03125 2.3125 1.03125zm8.378479 2.09375l0 -12.3125l1.8125 0q0.578125 0 0.765625 0.546875l0.203125 0.96875q0.375 -0.390625 0.78125 -0.703125q0.421875 -0.3125 0.875 -0.53125q0.46875 -0.234375 0.984375 -0.34375q0.53125 -0.125 1.15625 -0.125q1.015625 0 1.796875 0.34375q0.78125 0.34375 1.296875 0.96875q0.515625 0.609375 0.78125 1.46875q0.28125 0.84375 0.28125 1.875l0 7.84375l-2.96875 0l0 -7.84375q0 -1.125 -0.53125 -1.734375q-0.515625 -0.625 -1.546875 -0.625q-0.78125 0 -1.453125 0.359375q-0.671875 0.34375 -1.265625 0.9375l0 8.90625l-2.96875 0zm20.956543 -9.90625q-0.125 0.1875 -0.25 0.265625q-0.125 0.078125 -0.34375 0.078125q-0.203125 0 -0.453125 -0.109375q-0.25 -0.125 -0.578125 -0.28125q-0.3125 -0.15625 -0.734375 -0.265625q-0.40625 -0.125 -0.96875 -0.125q-0.875 0 -1.390625 0.375q-0.5 0.375 -0.5 0.96875q0 0.390625 0.25 0.671875q0.265625 0.265625 0.6875 0.46875q0.4375 0.203125 0.96875 0.375q0.546875 0.15625 1.109375 0.34375q0.5625 0.1875 1.09375 0.4375q0.546875 0.25 0.96875 0.625q0.4375 0.375 0.6875 0.90625q0.265625 0.53125 0.265625 1.265625q0 0.890625 -0.328125 1.640625q-0.328125 0.75 -0.953125 1.296875q-0.625 0.546875 -1.546875 0.859375q-0.90625 0.296875 -2.09375 0.296875q-0.640625 0 -1.25 -0.109375q-0.609375 -0.109375 -1.171875 -0.3125q-0.546875 -0.203125 -1.03125 -0.484375q-0.46875 -0.28125 -0.828125 -0.59375l0.6875 -1.140625q0.125 -0.203125 0.3125 -0.3125q0.1875 -0.109375 0.453125 -0.109375q0.28125 0 0.515625 0.15625q0.25 0.15625 0.578125 0.34375q0.328125 0.171875 0.765625 0.328125q0.4375 0.15625 1.109375 0.15625q0.53125 0 0.90625 -0.125q0.375 -0.125 0.625 -0.328125q0.25 -0.203125 0.359375 -0.46875q0.109375 -0.265625 0.109375 -0.5625q0 -0.421875 -0.265625 -0.703125q-0.25 -0.28125 -0.671875 -0.484375q-0.421875 -0.203125 -0.96875 -0.359375q-0.546875 -0.171875 -1.125 -0.359375q-0.5625 -0.1875 -1.109375 -0.4375q-0.546875 -0.265625 -0.984375 -0.65625q-0.421875 -0.40625 -0.6875 -0.984375q-0.25 -0.578125 -0.25 -1.390625q0 -0.75 0.296875 -1.4375q0.3125 -0.6875 0.890625 -1.1875q0.578125 -0.515625 1.453125 -0.8125q0.875 -0.3125 2.015625 -0.3125q1.265625 0 2.3125 0.421875q1.046875 0.40625 1.734375 1.09375l-0.671875 1.078125zm8.269348 -2.59375q1.171875 0 2.140625 0.375q0.984375 0.359375 1.6875 1.078125q0.703125 0.71875 1.09375 1.765625q0.40625 1.03125 0.40625 2.359375q0 0.328125 -0.03125 0.5625q-0.03125 0.21875 -0.109375 0.34375q-0.078125 0.125 -0.21875 0.1875q-0.125 0.046875 -0.328125 0.046875l-7.609375 0q0.140625 1.890625 1.015625 2.78125q0.890625 0.890625 2.359375 0.890625q0.71875 0 1.234375 -0.171875q0.53125 -0.171875 0.921875 -0.375q0.390625 -0.203125 0.6875 -0.359375q0.296875 -0.171875 0.5625 -0.171875q0.1875 0 0.3125 0.078125q0.140625 0.0625 0.234375 0.1875l0.859375 1.078125q-0.484375 0.578125 -1.109375 0.96875q-0.609375 0.390625 -1.28125 0.625q-0.65625 0.234375 -1.34375 0.328125q-0.6875 0.109375 -1.34375 0.109375q-1.28125 0 -2.390625 -0.421875q-1.09375 -0.4375 -1.921875 -1.265625q-0.8125 -0.84375 -1.28125 -2.0625q-0.46875 -1.234375 -0.46875 -2.859375q0 -1.265625 0.40625 -2.375q0.421875 -1.109375 1.171875 -1.921875q0.765625 -0.828125 1.859375 -1.296875q1.109375 -0.484375 2.484375 -0.484375zm0.0625 2.125q-1.296875 0 -2.03125 0.734375q-0.734375 0.71875 -0.9375 2.0625l5.578125 0q0 -0.5625 -0.15625 -1.078125q-0.15625 -0.515625 -0.484375 -0.890625q-0.328125 -0.390625 -0.828125 -0.609375q-0.484375 -0.21875 -1.140625 -0.21875z" fill-rule="nonzero"></path></g></svg>

