<?xml version="1.0" standalone="yes"?>

<svg version="1.1" viewBox="0.0 0.0 384.0 288.0" fill="none" stroke="none" stroke-linecap="square" stroke-miterlimit="10" xmlns="http://www.w3.org/2000/svg" xmlns:xlink="http://www.w3.org/1999/xlink"><clipPath id="p.0"><path d="m0 0l384.0 0l0 288.0l-384.0 0l0 -288.0z" clip-rule="nonzero"></path></clipPath><g clip-path="url(#p.0)"><path fill="#000000" fill-opacity="0.0" d="m0 0l384.0 0l0 288.0l-384.0 0z" fill-rule="nonzero"></path><path fill="#cfe2f3" d="m0 14.9675665l125.95276 0l0 273.03937l-125.95276 0z" fill-rule="nonzero"></path><path stroke="#000000" stroke-width="1.0" stroke-linejoin="round" stroke-linecap="butt" d="m0 14.9675665l125.95276 0l0 273.03937l-125.95276 0z" fill-rule="nonzero"></path><path fill="#000000" fill-opacity="0.0" d="m0.0131233595 -10.845144l125.95276 0l0 29.732283l-125.95276 0z" fill-rule="nonzero"></path><path fill="#000000" d="m26.332512 2.6761055q0 -0.125 0 -0.234375q0 -0.125 0.015625 -0.234375q0.046875 -0.5625001 0.25 -1.1250001q0.21875 -0.56249994 0.515625 -1.046875l0.78125 0.25q-0.234375 0.48437503 -0.34375 0.984375q-0.109375 0.484375 -0.109375 0.9218751q0 0.109375 0 0.234375q0 0.125 0.015625 0.25l-1.125 0zm2.722992 0.15625q0.359375 -0.078125 0.9375 -0.171875q0.578125 -0.109375 1.34375 -0.109375q0.6875 0 1.125 0.203125q0.453125 0.1875 0.71875 0.53125q0.28125 0.34375 0.390625 0.828125q0.109375 0.484375 0.109375 1.0625l0 3.21875l-1.015625 0l0 -2.984375q0 -0.53125 -0.078125 -0.90625q-0.078125 -0.375 -0.25 -0.609375q-0.15625 -0.234375 -0.4375 -0.328125q-0.265625 -0.109375 -0.671875 -0.109375q-0.171875 0 -0.34375 0.015625q-0.171875 0 -0.328125 0.015625q-0.15625 0.015625 -0.296875 0.046875q-0.125 0.015625 -0.171875 0.03125l0 4.828125l-1.03125 0l0 -5.5625zm10.679245 5.390625q-0.359375 0.09375 -0.9375 0.1875q-0.578125 0.109375 -1.328125 0.109375q-0.65625 0 -1.109375 -0.1875q-0.453125 -0.203125 -0.734375 -0.546875q-0.265625 -0.359375 -0.390625 -0.828125q-0.125 -0.484375 -0.125 -1.078125l0 -3.203125l1.03125 0l0 2.984375q0 1.046875 0.328125 1.5q0.328125 0.453125 1.109375 0.453125q0.15625 0 0.328125 0q0.1875 -0.015625 0.34375 -0.03125q0.15625 -0.03125 0.28125 -0.046875q0.125 -0.015625 0.171875 -0.03125l0 -4.828125l1.03125 0l0 5.546875zm1.554245 -5.390625q0.359375 -0.078125 0.9375 -0.171875q0.578125 -0.109375 1.328125 -0.109375q0.5625 0 0.921875 0.15625q0.375 0.140625 0.640625 0.421875q0.078125 -0.046875 0.234375 -0.140625q0.171875 -0.109375 0.40625 -0.203125q0.25 -0.09375 0.546875 -0.15625q0.296875 -0.078125 0.625 -0.078125q0.671875 0 1.078125 0.203125q0.421875 0.1875 0.65625 0.546875q0.234375 0.34375 0.3125 0.828125q0.09375 0.484375 0.09375 1.046875l0 3.21875l-1.015625 0l0 -2.984375q0 -0.515625 -0.0625 -0.875q-0.046875 -0.359375 -0.1875 -0.59375q-0.125 -0.25 -0.375 -0.359375q-0.234375 -0.125 -0.609375 -0.125q-0.515625 0 -0.859375 0.140625q-0.328125 0.140625 -0.4375 0.25q0.078125 0.28125 0.125 0.625q0.046875 0.328125 0.046875 0.703125l0 3.21875l-1.03125 0l0 -2.984375q0 -0.515625 -0.0625 -0.875q-0.046875 -0.359375 -0.1875 -0.59375q-0.125 -0.25 -0.359375 -0.359375q-0.234375 -0.125 -0.609375 -0.125q-0.15625 0 -0.328125 0.015625q-0.171875 0 -0.328125 0.015625q-0.15625 0.015625 -0.296875 0.046875q-0.125 0.015625 -0.171875 0.03125l0 4.828125l-1.03125 0l0 -5.5625zm10.206375 0.09375q0.1875 -0.125 0.5625 -0.25q0.375 -0.140625 0.875 -0.140625q0.609375 0 1.09375 0.234375q0.484375 0.21875 0.8125 0.609375q0.328125 0.390625 0.5 0.953125q0.171875 0.546875 0.171875 1.203125q0 0.6875 -0.203125 1.25q-0.203125 0.546875 -0.578125 0.9375q-0.375 0.390625 -0.90625 0.59375q-0.53125 0.203125 -1.1875 0.203125q-0.71875 0 -1.265625 -0.09375q-0.546875 -0.09375 -0.90625 -0.203125l0 -8.1875l1.03125 -0.171875l0 3.0625zm0 4.578125q0.15625 0.046875 0.4375 0.09375q0.28125 0.03125 0.6875 0.03125q0.828125 0 1.3125 -0.546875q0.5 -0.546875 0.5 -1.546875q0 -0.4375 -0.09375 -0.8125q-0.078125 -0.390625 -0.28125 -0.671875q-0.1875 -0.28125 -0.5 -0.4375q-0.3125 -0.171875 -0.75 -0.171875q-0.421875 0 -0.78125 0.15625q-0.34375 0.140625 -0.53125 0.28125l0 3.625zm4.932846 -1.953125q0 -0.765625 0.21875 -1.328125q0.21875 -0.5625 0.578125 -0.9375q0.375 -0.375 0.84375 -0.5625q0.46875 -0.1875 0.96875 -0.1875q1.15625 0 1.765625 0.71875q0.625 0.71875 0.625 2.1875q0 0.078125 0 0.1875q0 0.09375 -0.015625 0.1875l-3.921875 0q0.0625 0.890625 0.515625 1.359375q0.453125 0.453125 1.40625 0.453125q0.546875 0 0.90625 -0.09375q0.375 -0.09375 0.5625 -0.1875l0.140625 0.859375q-0.1875 0.09375 -0.65625 0.203125q-0.46875 0.109375 -1.0625 0.109375q-0.75 0 -1.296875 -0.21875q-0.53125 -0.21875 -0.890625 -0.609375q-0.34375 -0.40625 -0.515625 -0.953125q-0.171875 -0.546875 -0.171875 -1.1875zm3.921875 -0.5625q0.015625 -0.703125 -0.34375 -1.140625q-0.359375 -0.453125 -0.984375 -0.453125q-0.34375 0 -0.625 0.140625q-0.265625 0.140625 -0.453125 0.359375q-0.1875 0.21875 -0.296875 0.515625q-0.09375 0.28125 -0.125 0.578125l2.828125 0zm4.456909 -2.4375q0.140625 0 0.3125 0.015625q0.171875 0.015625 0.328125 0.046875q0.171875 0.03125 0.296875 0.0625q0.140625 0.015625 0.21875 0.046875l-0.1875 0.890625q-0.109375 -0.046875 -0.390625 -0.109375q-0.28125 -0.0625 -0.71875 -0.0625q-0.296875 0 -0.578125 0.0625q-0.28125 0.0625 -0.359375 0.078125l0 4.8125l-1.03125 0l0 -5.484375q0.375 -0.125 0.90625 -0.234375q0.546875 -0.125 1.203125 -0.125zm3.3477325 5.109375q0.625 0 0.921875 -0.15625q0.296875 -0.171875 0.296875 -0.546875q0 -0.359375 -0.296875 -0.578125q-0.296875 -0.234375 -0.96875 -0.5q-0.328125 -0.140625 -0.640625 -0.265625q-0.296875 -0.140625 -0.515625 -0.328125q-0.21875 -0.1875 -0.359375 -0.453125q-0.125 -0.265625 -0.125 -0.65625q0 -0.75 0.5625 -1.1875q0.5625 -0.453125 1.53125 -0.453125q0.234375 0 0.46875 0.03125q0.25 0.015625 0.453125 0.0625q0.21875 0.03125 0.375 0.078125q0.15625 0.046875 0.25 0.078125l-0.1875 0.875q-0.171875 -0.078125 -0.53125 -0.171875q-0.34375 -0.09375 -0.828125 -0.09375q-0.4375 0 -0.765625 0.171875q-0.3125 0.171875 -0.3125 0.53125q0 0.1875 0.0625 0.328125q0.078125 0.140625 0.21875 0.265625q0.15625 0.109375 0.375 0.203125q0.234375 0.09375 0.53125 0.21875q0.40625 0.140625 0.71875 0.296875q0.328125 0.140625 0.546875 0.34375q0.234375 0.203125 0.359375 0.484375q0.125 0.28125 0.125 0.6875q0 0.78125 -0.59375 1.1875q-0.59375 0.40625 -1.671875 0.40625q-0.765625 0 -1.203125 -0.125q-0.421875 -0.125 -0.578125 -0.1875l0.1875 -0.875q0.171875 0.0625 0.5625 0.203125q0.390625 0.125 1.03125 0.125zm4.4558563 -7.515625q0 0.125 0 0.25q0 0.10937503 -0.015625 0.21875003q-0.03125 0.56249994 -0.25 1.125q-0.203125 0.5468751 -0.5 1.0468751l-0.796875 -0.25q0.234375 -0.5 0.34375 -0.9843751q0.125 -0.5 0.125 -0.92187494q0 -0.109375 -0.015625 -0.23437503q0 -0.125 -0.015625 -0.25l1.125 0zm5.856491 7.515625q0.359375 0 0.640625 -0.015625q0.28125 -0.015625 0.46875 -0.0625l0 -1.703125q-0.109375 -0.0625 -0.359375 -0.09375q-0.234375 -0.046875 -0.59375 -0.046875q-0.234375 0 -0.5 0.046875q-0.25 0.03125 -0.46875 0.140625q-0.203125 0.09375 -0.359375 0.28125q-0.140625 0.171875 -0.140625 0.46875q0 0.546875 0.359375 0.765625q0.359375 0.21875 0.953125 0.21875zm-0.078125 -5.125q0.609375 0 1.03125 0.15625q0.421875 0.15625 0.671875 0.453125q0.265625 0.28125 0.375 0.6875q0.109375 0.40625 0.109375 0.890625l0 3.578125q-0.125 0.015625 -0.359375 0.0625q-0.234375 0.03125 -0.53125 0.0625q-0.296875 0.03125 -0.65625 0.0625q-0.34375 0.03125 -0.6875 0.03125q-0.46875 0 -0.890625 -0.109375q-0.40625 -0.09375 -0.703125 -0.296875q-0.296875 -0.21875 -0.46875 -0.5625q-0.15625 -0.359375 -0.15625 -0.859375q0 -0.46875 0.1875 -0.8125q0.203125 -0.34375 0.53125 -0.546875q0.328125 -0.21875 0.765625 -0.3125q0.4375 -0.09375 0.921875 -0.09375q0.15625 0 0.3125 0.015625q0.171875 0.015625 0.3125 0.046875q0.15625 0.015625 0.265625 0.046875q0.125 0.015625 0.15625 0.03125l0 -0.296875q0 -0.25 -0.0625 -0.484375q-0.046875 -0.25 -0.1875 -0.4375q-0.140625 -0.203125 -0.390625 -0.3125q-0.25 -0.125 -0.640625 -0.125q-0.5 0 -0.890625 0.078125q-0.375 0.0625 -0.5625 0.140625l-0.125 -0.84375q0.203125 -0.09375 0.65625 -0.171875q0.46875 -0.078125 1.015625 -0.078125zm5.812622 0.015625q0.140625 0 0.3125 0.015625q0.171875 0.015625 0.328125 0.046875q0.171875 0.03125 0.296875 0.0625q0.140625 0.015625 0.21875 0.046875l-0.1875 0.890625q-0.109375 -0.046875 -0.390625 -0.109375q-0.28125 -0.0625 -0.71875 -0.0625q-0.296875 0 -0.578125 0.0625q-0.28125 0.0625 -0.359375 0.078125l0 4.8125l-1.03125 0l0 -5.484375q0.375 -0.125 0.90625 -0.234375q0.546875 -0.125 1.203125 -0.125zm4.1133575 0q0.140625 0 0.3125 0.015625q0.171875 0.015625 0.328125 0.046875q0.171875 0.03125 0.296875 0.0625q0.140625 0.015625 0.21875 0.046875l-0.1875 0.890625q-0.109375 -0.046875 -0.390625 -0.109375q-0.28125 -0.0625 -0.71875 -0.0625q-0.296875 0 -0.578125 0.0625q-0.28125 0.0625 -0.359375 0.078125l0 4.8125l-1.03125 0l0 -5.484375q0.375 -0.125 0.90625 -0.234375q0.546875 -0.125 1.203125 -0.125zm3.9414825 5.109375q0.359375 0 0.640625 -0.015625q0.28125 -0.015625 0.46875 -0.0625l0 -1.703125q-0.109375 -0.0625 -0.359375 -0.09375q-0.234375 -0.046875 -0.59375 -0.046875q-0.234375 0 -0.5 0.046875q-0.25 0.03125 -0.46875 0.140625q-0.203125 0.09375 -0.359375 0.28125q-0.140625 0.171875 -0.140625 0.46875q0 0.546875 0.359375 0.765625q0.359375 0.21875 0.953125 0.21875zm-0.078125 -5.125q0.609375 0 1.03125 0.15625q0.421875 0.15625 0.671875 0.453125q0.265625 0.28125 0.375 0.6875q0.109375 0.40625 0.109375 0.890625l0 3.578125q-0.125 0.015625 -0.359375 0.0625q-0.234375 0.03125 -0.53125 0.0625q-0.296875 0.03125 -0.65625 0.0625q-0.34375 0.03125 -0.6875 0.03125q-0.46875 0 -0.890625 -0.109375q-0.40625 -0.09375 -0.703125 -0.296875q-0.296875 -0.21875 -0.46875 -0.5625q-0.15625 -0.359375 -0.15625 -0.859375q0 -0.46875 0.1875 -0.8125q0.203125 -0.34375 0.53125 -0.546875q0.328125 -0.21875 0.765625 -0.3125q0.4375 -0.09375 0.921875 -0.09375q0.15625 0 0.3125 0.015625q0.171875 0.015625 0.3125 0.046875q0.15625 0.015625 0.265625 0.046875q0.125 0.015625 0.15625 0.03125l0 -0.296875q0 -0.25 -0.0625 -0.484375q-0.046875 -0.25 -0.1875 -0.4375q-0.140625 -0.203125 -0.390625 -0.3125q-0.25 -0.125 -0.640625 -0.125q-0.5 0 -0.890625 0.078125q-0.375 0.0625 -0.5625 0.140625l-0.125 -0.84375q0.203125 -0.09375 0.65625 -0.171875q0.46875 -0.078125 1.015625 -0.078125zm3.031372 6.921875q0.125 0.0625 0.3125 0.109375q0.203125 0.046875 0.390625 0.046875q0.59375 0 0.9375 -0.265625q0.34375 -0.265625 0.625 -0.875q-0.703125 -1.328125 -1.296875 -2.796875q-0.59375 -1.484375 -1.0 -3.0l1.109375 0q0.109375 0.5 0.28125 1.078125q0.171875 0.5625 0.375 1.171875q0.21875 0.59375 0.453125 1.203125q0.25 0.609375 0.515625 1.171875q0.421875 -1.15625 0.71875 -2.28125q0.3125 -1.140625 0.59375 -2.34375l1.046875 0q-0.390625 1.609375 -0.875 3.109375q-0.484375 1.484375 -1.046875 2.78125q-0.21875 0.5 -0.453125 0.859375q-0.234375 0.359375 -0.53125 0.578125q-0.28125 0.234375 -0.640625 0.34375q-0.359375 0.109375 -0.8125 0.109375q-0.109375 0 -0.25 -0.015625q-0.125 -0.015625 -0.25 -0.046875q-0.125 -0.015625 -0.234375 -0.0625q-0.109375 -0.03125 -0.15625 -0.046875l0.1875 -0.828125z" fill-rule="nonzero"></path><path fill="#e4f3e4" d="m23.564304 36.206295l78.04724 0l0 66.01575l-78.04724 0z" fill-rule="nonzero"></path><path stroke="#000000" stroke-width="1.0" stroke-linejoin="round" stroke-linecap="butt" d="m23.564304 36.206295l78.04724 0l0 66.01575l-78.04724 0z" fill-rule="nonzero"></path><path fill="#000000" d="m65.45485 66.55979q0 0.53125 -0.21875 1.046875q-0.21875 0.5 -0.578125 0.984375q-0.359375 0.484375 -0.8125038 0.953125q-0.4375 0.46875 -0.890625 0.921875q-0.25 0.265625 -0.59375 0.609375q-0.34375 0.34375 -0.640625 0.71875q-0.296875 0.375 -0.5 0.71875q-0.203125 0.34375 -0.203125 0.59375l4.781254 0l0 1.1875l-6.296879 0q-0.015625 -0.09375 -0.015625 -0.171875q0 -0.09375 0 -0.171875q0 -0.703125 0.234375 -1.3125q0.234375 -0.609375 0.609375 -1.140625q0.375 -0.546875 0.84375 -1.03125q0.46875 -0.484375 0.90625 -0.921875q0.375 -0.359375 0.71875 -0.703125q0.34375 -0.359375 0.59375 -0.71875q0.265625 -0.359375 0.421875 -0.734375q0.15625 -0.375 0.15625 -0.78125q0 -0.453125 -0.140625 -0.765625q-0.140625 -0.328125 -0.390625 -0.53125q-0.234375 -0.203125 -0.5625 -0.296875q-0.3125 -0.109375 -0.671875 -0.109375q-0.4375 0 -0.796875 0.125q-0.359375 0.109375 -0.640625 0.28125q-0.28125 0.15625 -0.484375 0.328125q-0.1875 0.171875 -0.296875 0.25l-0.6875 -0.984375q0.125 -0.15625 0.390625 -0.359375q0.28125 -0.21875 0.65625 -0.40625q0.375 -0.20312119 0.828125 -0.3437462q0.46875 -0.140625 1.015625 -0.140625q1.640625 0 2.4531288 0.7656212q0.8125 0.75 0.8125 2.140625z" fill-rule="nonzero"></path><path fill="#e4f3e4" d="m23.564304 119.804214l78.04724 0l0 66.01575l-78.04724 0z" fill-rule="nonzero"></path><path stroke="#000000" stroke-width="1.0" stroke-linejoin="round" stroke-linecap="butt" d="m23.564304 119.804214l78.04724 0l0 66.01575l-78.04724 0z" fill-rule="nonzero"></path><path fill="#000000" d="m59.392345 153.72021q0 -1.515625 0.421875 -2.671875q0.421875 -1.171875 1.1875 -1.953125q0.78125 -0.796875 1.875 -1.203125q1.109375 -0.421875 2.5000038 -0.4375l0.09375 1.171875q-0.875 0.015625 -1.6093788 0.203125q-0.71875 0.171875 -1.296875 0.5625q-0.5625 0.390625 -0.953125 1.015625q-0.390625 0.609375 -0.59375 1.53125q0.390625 -0.1875 0.875 -0.296875q0.5 -0.125 1.015625 -0.125q0.890625 0 1.5000038 0.28125q0.609375 0.265625 1.0 0.703125q0.390625 0.4375 0.5625 1.015625q0.171875 0.578125 0.171875 1.203125q0 0.578125 -0.1875 1.1875q-0.1875 0.59375 -0.59375 1.09375q-0.390625 0.484375 -1.015625 0.796875q-0.6093788 0.3125 -1.4531288 0.3125q-1.703125 0 -2.609375 -1.15625q-0.890625 -1.171875 -0.890625 -3.234375zm3.375 -1.0625q-0.53125 0 -0.984375 0.09375q-0.453125 0.09375 -0.890625 0.296875q-0.015625 0.15625 -0.03125 0.34375q0 0.171875 0 0.328125q0 0.65625 0.078125 1.25q0.09375 0.578125 0.328125 1.03125q0.234375 0.4375 0.625 0.703125q0.390625 0.25 0.984375 0.25q0.5 0 0.84375 -0.203125q0.3437538 -0.203125 0.5625038 -0.53125q0.234375 -0.34375 0.328125 -0.71875q0.09375 -0.390625 0.09375 -0.75q0 -1.015625 -0.484375 -1.546875q-0.4843788 -0.546875 -1.4531288 -0.546875z" fill-rule="nonzero"></path><path fill="#e4f3e4" d="m23.96588 203.40213l78.04724 0l0 66.01575l-78.04724 0z" fill-rule="nonzero"></path><path stroke="#000000" stroke-width="1.0" stroke-linejoin="round" stroke-linecap="butt" d="m23.96588 203.40213l78.04724 0l0 66.01575l-78.04724 0z" fill-rule="nonzero"></path><path fill="#000000" d="m56.113964 233.24q0.859375 -0.328125 1.671875 -0.84375q0.8125 -0.515625 1.484375 -1.296875l0.984375 0l0 10.390625l-1.390625 0l0 -8.453125q-0.1875 0.15625 -0.453125 0.34375q-0.25 0.171875 -0.5625 0.34375q-0.3125 0.15625 -0.65625 0.3125q-0.328125 0.140625 -0.640625 0.25l-0.4375 -1.046875zm7.625534 3.046875q0 -2.609375 0.9218788 -4.015625q0.921875 -1.421875 2.5625 -1.421875q1.625 0 2.546875 1.421875q0.921875 1.40625 0.921875 4.015625q0 2.609375 -0.921875 4.015625q-0.921875 1.40625 -2.546875 1.40625q-1.640625 0 -2.5625 -1.40625q-0.9218788 -1.40625 -0.9218788 -4.015625zm5.484379 0q0 -0.859375 -0.09375 -1.625q-0.09375 -0.765625 -0.328125 -1.328125q-0.234375 -0.578125 -0.625 -0.90625q-0.390625 -0.34375 -0.953125 -0.34375q-0.578125 0 -0.96875 0.34375q-0.390625 0.328125 -0.625 0.90625q-0.21875 0.5625 -0.328125 1.328125q-0.09375 0.765625 -0.09375 1.625q0 0.859375 0.09375 1.625q0.109375 0.765625 0.328125 1.328125q0.234375 0.5625 0.625 0.90625q0.390625 0.34375 0.96875 0.34375q0.5625 0 0.953125 -0.34375q0.390625 -0.34375 0.625 -0.90625q0.234375 -0.5625 0.328125 -1.328125q0.09375 -0.765625 0.09375 -1.625z" fill-rule="nonzero"></path><path fill="#cfe2f3" d="m258.03412 14.960629l125.95276 0l0 273.03937l-125.95276 0z" fill-rule="nonzero"></path><path stroke="#000000" stroke-width="1.0" stroke-linejoin="round" stroke-linecap="butt" d="m258.03412 14.960629l125.95276 0l0 273.03937l-125.95276 0z" fill-rule="nonzero"></path><path fill="#000000" fill-opacity="0.0" d="m258.04724 -10.846457l125.95276 0l0 29.732283l-125.95276 0z" fill-rule="nonzero"></path><path fill="#000000" d="m274.123 2.4260423q0 -0.09375 0 -0.1875q0 -0.09375 0 -0.1875q0.03125 -0.46874988 0.203125 -0.9218749q0.171875 -0.45312506 0.421875 -0.85937506l0.640625 0.203125q-0.1875 0.40625 -0.28125 0.81250006q-0.09375 0.40625 -0.09375 0.7499999q0 0.09375 0 0.203125q0.015625 0.09375 0.015625 0.1875l-0.90625 0zm2.3639832 4.6875l0 -6.84375l0.84375 -0.14062499l0 2.390625q0.234375 -0.09375 0.5 -0.140625q0.265625 -0.046875 0.515625 -0.046875q0.5625 0 0.921875 0.15625q0.375 0.15625 0.59375 0.453125q0.21875 0.28125 0.3125 0.671875q0.09375 0.39062524 0.09375 0.87500024l0 2.625l-0.84375 0l0 -2.453125q0 -0.421875 -0.0625 -0.71875024q-0.046875 -0.3125 -0.1875 -0.5q-0.125 -0.203125 -0.359375 -0.28125q-0.21875 -0.09375 -0.546875 -0.09375q-0.140625 0 -0.296875 0.03125q-0.140625 0.015625 -0.265625 0.046875q-0.125 0.015625 -0.234375 0.046875q-0.09375 0.015625 -0.140625 0.03125l0 3.8906252l-0.84375 0zm6.90448 -0.609375q0.296875 0 0.53125 0q0.234375 -0.015625 0.390625 -0.0625l0 -1.390625q-0.09375 -0.046875 -0.296875 -0.078125q-0.203125 -0.03125 -0.484375 -0.03125q-0.203125 0 -0.421875 0.03125q-0.203125 0.03125 -0.375 0.125q-0.171875 0.078125 -0.296875 0.234375q-0.109375 0.140625 -0.109375 0.375q0 0.453125 0.28125 0.625q0.296875 0.171875 0.78125 0.171875zm-0.0625 -4.1875q0.5 0 0.84375 0.140625q0.34375 0.125 0.5625 0.359375q0.21875 0.234375 0.296875 0.5625q0.09375 0.328125 0.09375 0.73437524l0 2.921875q-0.109375 0.015625 -0.3125 0.046875q-0.1875 0.03125 -0.4375 0.046875q-0.234375 0.03125 -0.515625 0.046875q-0.28125 0.03125 -0.5625 0.03125q-0.390625 0 -0.734375 -0.078125q-0.328125 -0.078125 -0.578125 -0.25q-0.234375 -0.171875 -0.375 -0.453125q-0.125 -0.296875 -0.125 -0.703125q0 -0.390625 0.15625 -0.671875q0.15625 -0.28125 0.421875 -0.453125q0.265625 -0.171875 0.625 -0.25q0.375 -0.078125 0.765625 -0.078125q0.125 0 0.25 0.015625q0.140625 0.015625 0.265625 0.046875q0.125 0.015625 0.203125 0.03125q0.09375 0.015625 0.140625 0.015625l0 -0.234375q0 -0.20312524 -0.046875 -0.40625024q-0.046875 -0.203125 -0.171875 -0.359375q-0.109375 -0.15625 -0.3125 -0.25q-0.203125 -0.09375 -0.53125 -0.09375q-0.40625 0 -0.71875 0.0625q-0.3125 0.0625 -0.46875 0.125l-0.09375 -0.703125q0.15625 -0.0625 0.53125 -0.125q0.390625 -0.078125 0.828125 -0.078125zm4.759918 4.890625q-0.78125 -0.015625 -1.109375 -0.328125q-0.3125 -0.328125 -0.3125 -0.984375l0 -5.625l0.828125 -0.14062499l0 5.625q0 0.203125 0.03125 0.34375q0.046875 0.140625 0.125 0.21875q0.078125 0.078125 0.21875 0.125q0.140625 0.03125 0.328125 0.0625l-0.109375 0.703125zm4.79657 -4.78125q-0.359375 1.328125 -0.828125 2.5312502q-0.46875 1.203125 -0.90625 2.15625l-0.765625 0q-0.4375 -0.953125 -0.90625 -2.15625q-0.46875 -1.2031252 -0.828125 -2.5312502l0.90625 0q0.109375 0.453125 0.25 0.953125q0.15625 0.5 0.3125 0.98437524q0.171875 0.484375 0.34375 0.953125q0.171875 0.453125 0.328125 0.8125q0.15625 -0.359375 0.3125 -0.8125q0.171875 -0.46875 0.34375 -0.953125q0.171875 -0.48437524 0.3125 -0.98437524q0.15625 -0.5 0.265625 -0.953125l0.859375 0zm0.76086426 2.3593752q0 -0.625 0.171875 -1.0781252q0.1875 -0.46875 0.484375 -0.765625q0.296875 -0.3125 0.6875 -0.46875q0.390625 -0.15625 0.796875 -0.15625q0.9375 0 1.4375 0.59375q0.515625 0.578125 0.515625 1.7968752q0 0.046875 0 0.140625q0 0.078125 -0.015625 0.15625l-3.203125 0q0.0625 0.71875 0.421875 1.109375q0.375 0.375 1.15625 0.375q0.4375 0 0.734375 -0.078125q0.3125 -0.078125 0.46875 -0.15625l0.109375 0.703125q-0.15625 0.078125 -0.546875 0.171875q-0.375 0.09375 -0.859375 0.09375q-0.609375 0 -1.0625 -0.1875q-0.4375 -0.1875 -0.734375 -0.5q-0.28125 -0.328125 -0.421875 -0.765625q-0.140625 -0.453125 -0.140625 -0.984375zm3.21875 -0.46875q0.015625 -0.56250024 -0.28125 -0.92187524q-0.296875 -0.375 -0.8125 -0.375q-0.28125 0 -0.5 0.125q-0.21875 0.109375 -0.375 0.296875q-0.15625 0.171875 -0.25 0.40625q-0.078125 0.23437524 -0.109375 0.46875024l2.328125 0zm5.2925415 -0.89062524q-0.15625 -0.125 -0.453125 -0.234375q-0.28125 -0.125 -0.625 -0.125q-0.359375 0 -0.625 0.140625q-0.25 0.125 -0.421875 0.359375q-0.15625 0.21875 -0.234375 0.53125024q-0.0625 0.3125 -0.0625 0.671875q0 0.828125 0.40625 1.28125q0.40625 0.4375 1.078125 0.4375q0.34375 0 0.578125 -0.03125q0.234375 -0.03125 0.359375 -0.078125l0 -2.9531252zm0 -3.15625l0.828125 -0.14062499l0 6.84375q-0.28125 0.09375 -0.734375 0.171875q-0.453125 0.078125 -1.03125 0.078125q-0.546875 0 -0.984375 -0.171875q-0.421875 -0.171875 -0.734375 -0.484375q-0.296875 -0.3125 -0.46875 -0.765625q-0.171875 -0.453125 -0.171875 -1.03125q0 -0.53125 0.140625 -0.98437524q0.140625 -0.453125 0.40625 -0.765625q0.28125 -0.328125 0.671875 -0.5q0.390625 -0.1875 0.890625 -0.1875q0.40625 0 0.71875 0.109375q0.3125 0.09375 0.46875 0.203125l0 -2.375zm6.7911377 6.84375q-0.203125 -0.328125 -0.453125 -0.734375q-0.25 -0.421875 -0.546875 -0.859375q-0.296875 -0.453125 -0.625 -0.90625q-0.3125 -0.46875 -0.640625 -0.89062524q-0.3125 -0.4375 -0.609375 -0.8125q-0.296875 -0.375 -0.546875 -0.671875l0 4.875l-0.84375 0l0 -6.234375l0.6875 0q0.421875 0.45312506 0.90625 1.046875q0.484375 0.5937499 0.953125 1.2343749q0.46875 0.625 0.890625 1.2500002q0.421875 0.609375 0.703125 1.078125l0 -4.609375l0.859375 0l0 6.234375l-0.734375 0zm6.197113 -0.140625q-0.296875 0.078125 -0.765625 0.15625q-0.46875 0.078125 -1.09375 0.078125q-0.546875 0 -0.921875 -0.15625q-0.359375 -0.15625 -0.59375 -0.4375q-0.21875 -0.296875 -0.3125 -0.6875q-0.09375 -0.390625 -0.09375 -0.859375l0 -2.6406252l0.828125 0l0 2.4531252q0 0.859375 0.265625 1.234375q0.28125 0.359375 0.921875 0.359375q0.125 0 0.265625 0q0.15625 -0.015625 0.28125 -0.03125q0.125 -0.015625 0.21875 -0.03125q0.109375 -0.015625 0.15625 -0.03125l0 -3.9531252l0.84375 0l0 4.546875zm1.6199646 -4.40625q0.296875 -0.0625 0.765625 -0.140625q0.46875 -0.09375 1.09375 -0.09375q0.453125 0 0.75 0.125q0.3125 0.125 0.515625 0.359375q0.0625 -0.046875 0.1875 -0.125q0.140625 -0.09375 0.34375 -0.15625q0.203125 -0.078125 0.4375 -0.140625q0.25 -0.0625 0.53125 -0.0625q0.53125 0 0.875 0.15625q0.34375 0.15625 0.53125 0.453125q0.203125 0.28125 0.265625 0.6875q0.0625 0.39062524 0.0625 0.85937524l0 2.625l-0.828125 0l0 -2.453125q0 -0.40625 -0.046875 -0.70312524q-0.03125 -0.296875 -0.15625 -0.5q-0.109375 -0.203125 -0.3125 -0.296875q-0.1875 -0.09375 -0.484375 -0.09375q-0.421875 0 -0.703125 0.125q-0.265625 0.109375 -0.375 0.203125q0.078125 0.234375 0.109375 0.515625q0.03125 0.26562524 0.03125 0.57812524l0 2.625l-0.828125 0l0 -2.453125q0 -0.40625 -0.046875 -0.70312524q-0.046875 -0.296875 -0.15625 -0.5q-0.109375 -0.203125 -0.3125 -0.296875q-0.1875 -0.09375 -0.484375 -0.09375q-0.125 0 -0.28125 0.015625q-0.140625 0.015625 -0.265625 0.03125q-0.125 0 -0.234375 0.03125q-0.109375 0.015625 -0.140625 0.015625l0 3.9531252l-0.84375 0l0 -4.546875zm8.875275 0.078125q0.140625 -0.109375 0.453125 -0.203125q0.3125 -0.109375 0.71875 -0.109375q0.5 0 0.890625 0.1875q0.390625 0.171875 0.65625 0.5q0.28125 0.3125 0.421875 0.765625q0.140625 0.45312524 0.140625 0.98437524q0 0.578125 -0.171875 1.03125q-0.15625 0.453125 -0.46875 0.765625q-0.3125 0.3125 -0.75 0.484375q-0.421875 0.171875 -0.953125 0.171875q-0.59375 0 -1.046875 -0.078125q-0.4375 -0.078125 -0.734375 -0.171875l0 -6.703125l0.84375 -0.14062499l0 2.515625zm0 3.7343752q0.125 0.046875 0.34375 0.078125q0.234375 0.03125 0.578125 0.03125q0.671875 0 1.078125 -0.4375q0.40625 -0.453125 0.40625 -1.28125q0 -0.359375 -0.078125 -0.671875q-0.0625 -0.31250024 -0.234375 -0.53125024q-0.15625 -0.234375 -0.421875 -0.359375q-0.25 -0.140625 -0.609375 -0.140625q-0.34375 0 -0.640625 0.125q-0.28125 0.109375 -0.421875 0.234375l0 2.9531252zm4.3848877 -1.59375q0 -0.625 0.171875 -1.0781252q0.1875 -0.46875 0.484375 -0.765625q0.296875 -0.3125 0.6875 -0.46875q0.390625 -0.15625 0.796875 -0.15625q0.9375 0 1.4375 0.59375q0.515625 0.578125 0.515625 1.7968752q0 0.046875 0 0.140625q0 0.078125 -0.015625 0.15625l-3.203125 0q0.0625 0.71875 0.421875 1.109375q0.375 0.375 1.15625 0.375q0.4375 0 0.734375 -0.078125q0.3125 -0.078125 0.46875 -0.15625l0.109375 0.703125q-0.15625 0.078125 -0.546875 0.171875q-0.375 0.09375 -0.859375 0.09375q-0.609375 0 -1.0625 -0.1875q-0.4375 -0.1875 -0.734375 -0.5q-0.28125 -0.328125 -0.421875 -0.765625q-0.140625 -0.453125 -0.140625 -0.984375zm3.21875 -0.46875q0.015625 -0.56250024 -0.28125 -0.92187524q-0.296875 -0.375 -0.8125 -0.375q-0.28125 0 -0.5 0.125q-0.21875 0.109375 -0.375 0.296875q-0.15625 0.171875 -0.25 0.40625q-0.078125 0.23437524 -0.109375 0.46875024l2.328125 0zm3.9956665 -1.9843752q0.109375 0 0.234375 0.015625q0.140625 0.015625 0.28125 0.046875q0.140625 0.015625 0.25 0.046875q0.109375 0.015625 0.171875 0.03125l-0.15625 0.71875q-0.09375 -0.03125 -0.328125 -0.078125q-0.21875 -0.046875 -0.578125 -0.046875q-0.234375 0 -0.46875 0.046875q-0.234375 0.046875 -0.296875 0.0625l0 3.9375002l-0.84375 0l0 -4.484375q0.296875 -0.109375 0.734375 -0.203125q0.453125 -0.09375 1.0 -0.09375zm2.9600525 4.171875q0.515625 0 0.75 -0.125q0.25 -0.140625 0.25 -0.4375q0 -0.296875 -0.25 -0.484375q-0.234375 -0.1875 -0.796875 -0.40625q-0.265625 -0.109375 -0.515625 -0.21875q-0.234375 -0.109375 -0.421875 -0.265625q-0.1875 -0.15625 -0.296875 -0.359375q-0.09375 -0.21875024 -0.09375 -0.54687524q0 -0.609375 0.453125 -0.96875q0.453125 -0.375 1.25 -0.375q0.203125 0 0.390625 0.03125q0.203125 0.015625 0.375 0.046875q0.171875 0.03125 0.296875 0.078125q0.140625 0.03125 0.203125 0.046875l-0.140625 0.71875q-0.140625 -0.0625 -0.4375 -0.140625q-0.28125 -0.078125 -0.6875 -0.078125q-0.34375 0 -0.609375 0.140625q-0.265625 0.140625 -0.265625 0.4375q0 0.15625 0.0625 0.28125q0.0625 0.109375 0.171875 0.20312524q0.125 0.09375 0.296875 0.171875q0.1875 0.078125 0.4375 0.171875q0.34375 0.125 0.59375 0.25q0.265625 0.109375 0.453125 0.28125q0.1875 0.15625 0.28125 0.390625q0.09375 0.234375 0.09375 0.5625q0 0.640625 -0.484375 0.984375q-0.46875 0.328125 -1.359375 0.328125q-0.625 0 -0.984375 -0.109375q-0.34375 -0.09375 -0.46875 -0.15625l0.15625 -0.71875q0.140625 0.0625 0.453125 0.171875q0.3125 0.09375 0.84375 0.09375zm3.9259644 -6.140625q0 0.09375 0 0.1875q0 0.09375 -0.015625 0.1875q-0.03125 0.46875006 -0.203125 0.92187506q-0.171875 0.45312488 -0.421875 0.8593749l-0.640625 -0.203125q0.1875 -0.40624988 0.28125 -0.7968749q0.09375 -0.40625 0.09375 -0.76562506q0 -0.078125 0 -0.1875q0 -0.109375 -0.015625 -0.203125l0.921875 0zm5.0656433 6.140625q0.296875 0 0.53125 0q0.234375 -0.015625 0.390625 -0.0625l0 -1.390625q-0.09375 -0.046875 -0.296875 -0.078125q-0.203125 -0.03125 -0.484375 -0.03125q-0.203125 0 -0.421875 0.03125q-0.203125 0.03125 -0.375 0.125q-0.171875 0.078125 -0.296875 0.234375q-0.109375 0.140625 -0.109375 0.375q0 0.453125 0.28125 0.625q0.296875 0.171875 0.78125 0.171875zm-0.0625 -4.1875q0.5 0 0.84375 0.140625q0.34375 0.125 0.5625 0.359375q0.21875 0.234375 0.296875 0.5625q0.09375 0.328125 0.09375 0.73437524l0 2.921875q-0.109375 0.015625 -0.3125 0.046875q-0.1875 0.03125 -0.4375 0.046875q-0.234375 0.03125 -0.515625 0.046875q-0.28125 0.03125 -0.5625 0.03125q-0.390625 0 -0.734375 -0.078125q-0.328125 -0.078125 -0.578125 -0.25q-0.234375 -0.171875 -0.375 -0.453125q-0.125 -0.296875 -0.125 -0.703125q0 -0.390625 0.15625 -0.671875q0.15625 -0.28125 0.421875 -0.453125q0.265625 -0.171875 0.625 -0.25q0.375 -0.078125 0.765625 -0.078125q0.125 0 0.25 0.015625q0.140625 0.015625 0.265625 0.046875q0.125 0.015625 0.203125 0.03125q0.09375 0.015625 0.140625 0.015625l0 -0.234375q0 -0.20312524 -0.046875 -0.40625024q-0.046875 -0.203125 -0.171875 -0.359375q-0.109375 -0.15625 -0.3125 -0.25q-0.203125 -0.09375 -0.53125 -0.09375q-0.40625 0 -0.71875 0.0625q-0.3125 0.0625 -0.46875 0.125l-0.09375 -0.703125q0.15625 -0.0625 0.53125 -0.125q0.390625 -0.078125 0.828125 -0.078125zm5.088043 0.015625q0.109375 0 0.234375 0.015625q0.140625 0.015625 0.28125 0.046875q0.140625 0.015625 0.25 0.046875q0.109375 0.015625 0.171875 0.03125l-0.15625 0.71875q-0.09375 -0.03125 -0.328125 -0.078125q-0.21875 -0.046875 -0.578125 -0.046875q-0.234375 0 -0.46875 0.046875q-0.234375 0.046875 -0.296875 0.0625l0 3.9375002l-0.84375 0l0 -4.484375q0.296875 -0.109375 0.734375 -0.203125q0.453125 -0.09375 1.0 -0.09375zm3.600647 0q0.109375 0 0.234375 0.015625q0.140625 0.015625 0.28125 0.046875q0.140625 0.015625 0.25 0.046875q0.109375 0.015625 0.171875 0.03125l-0.15625 0.71875q-0.09375 -0.03125 -0.328125 -0.078125q-0.21875 -0.046875 -0.578125 -0.046875q-0.234375 0 -0.46875 0.046875q-0.234375 0.046875 -0.296875 0.0625l0 3.9375002l-0.84375 0l0 -4.484375q0.296875 -0.109375 0.734375 -0.203125q0.453125 -0.09375 1.0 -0.09375zm3.4444275 4.171875q0.296875 0 0.53125 0q0.234375 -0.015625 0.390625 -0.0625l0 -1.390625q-0.09375 -0.046875 -0.296875 -0.078125q-0.203125 -0.03125 -0.484375 -0.03125q-0.203125 0 -0.421875 0.03125q-0.203125 0.03125 -0.375 0.125q-0.171875 0.078125 -0.296875 0.234375q-0.109375 0.140625 -0.109375 0.375q0 0.453125 0.28125 0.625q0.296875 0.171875 0.78125 0.171875zm-0.0625 -4.1875q0.5 0 0.84375 0.140625q0.34375 0.125 0.5625 0.359375q0.21875 0.234375 0.296875 0.5625q0.09375 0.328125 0.09375 0.73437524l0 2.921875q-0.109375 0.015625 -0.3125 0.046875q-0.1875 0.03125 -0.4375 0.046875q-0.234375 0.03125 -0.515625 0.046875q-0.28125 0.03125 -0.5625 0.03125q-0.390625 0 -0.734375 -0.078125q-0.328125 -0.078125 -0.578125 -0.25q-0.234375 -0.171875 -0.375 -0.453125q-0.125 -0.296875 -0.125 -0.703125q0 -0.390625 0.15625 -0.671875q0.15625 -0.28125 0.421875 -0.453125q0.265625 -0.171875 0.625 -0.25q0.375 -0.078125 0.765625 -0.078125q0.125 0 0.25 0.015625q0.140625 0.015625 0.265625 0.046875q0.125 0.015625 0.203125 0.03125q0.09375 0.015625 0.140625 0.015625l0 -0.234375q0 -0.20312524 -0.046875 -0.40625024q-0.046875 -0.203125 -0.171875 -0.359375q-0.109375 -0.15625 -0.3125 -0.25q-0.203125 -0.09375 -0.53125 -0.09375q-0.40625 0 -0.71875 0.0625q-0.3125 0.0625 -0.46875 0.125l-0.09375 -0.703125q0.15625 -0.0625 0.53125 -0.125q0.390625 -0.078125 0.828125 -0.078125zm2.8067627 5.671875q0.09375 0.046875 0.25 0.078125q0.15625 0.046875 0.3125 0.046875q0.5 0 0.78125 -0.21875q0.28125 -0.21875 0.5 -0.71875q-0.5625 -1.078125 -1.0625 -2.28125q-0.484375 -1.2187502 -0.8125 -2.4687502l0.90625 0q0.09375 0.40625 0.234375 0.875q0.140625 0.46875 0.3125 0.96875024q0.171875 0.5 0.359375 1.0q0.203125 0.484375 0.421875 0.9375q0.34375 -0.9375 0.59375 -1.859375q0.25 -0.93750024 0.484375 -1.9218752l0.859375 0q-0.328125 1.328125 -0.734375 2.5468752q-0.390625 1.21875 -0.84375 2.28125q-0.171875 0.40625 -0.375 0.703125q-0.1875 0.296875 -0.421875 0.484375q-0.234375 0.1875 -0.53125 0.265625q-0.296875 0.09375 -0.65625 0.09375q-0.109375 0 -0.21875 -0.015625q-0.09375 0 -0.203125 -0.03125q-0.109375 -0.015625 -0.203125 -0.046875q-0.078125 -0.03125 -0.109375 -0.046875l0.15625 -0.671875z" fill-rule="nonzero"></path><path fill="#e4f3e4" d="m281.59842 36.199356l78.04724 0l0 66.01575l-78.04724 0z" fill-rule="nonzero"></path><path stroke="#000000" stroke-width="1.0" stroke-linejoin="round" stroke-linecap="butt" d="m281.59842 36.199356l78.04724 0l0 66.01575l-78.04724 0z" fill-rule="nonzero"></path><path fill="#000000" d="m317.87958 66.03723q0.859375 -0.328125 1.671875 -0.84375q0.8125 -0.515625 1.484375 -1.296875l0.984375 0l0 10.390625l-1.390625 0l0 -8.453125q-0.1875 0.15625 -0.453125 0.34375q-0.25 0.171875 -0.5625 0.34375q-0.3125 0.15625 -0.65625 0.3125q-0.328125 0.140625 -0.640625 0.25l-0.4375 -1.046875z" fill-rule="nonzero"></path><path fill="#e4f3e4" d="m281.59842 119.79728l78.04724 0l0 66.01574l-78.04724 0z" fill-rule="nonzero"></path><path stroke="#000000" stroke-width="1.0" stroke-linejoin="round" stroke-linecap="butt" d="m281.59842 119.79728l78.04724 0l0 66.01574l-78.04724 0z" fill-rule="nonzero"></path><path fill="#000000" d="m319.87958 156.86952q1.328125 0 1.90625 -0.515625q0.578125 -0.53125 0.578125 -1.421875q0 -0.578125 -0.234375 -0.96875q-0.234375 -0.390625 -0.625 -0.609375q-0.390625 -0.234375 -0.921875 -0.328125q-0.515625 -0.109375 -1.046875 -0.109375l-0.359375 0l0 -1.140625l0.5 0q0.375 0 0.765625 -0.0625q0.390625 -0.078125 0.71875 -0.265625q0.34375 -0.203125 0.546875 -0.53125q0.21875 -0.34375 0.21875 -0.859375q0 -0.421875 -0.15625 -0.71875q-0.15625 -0.296875 -0.40625 -0.484375q-0.234375 -0.203125 -0.5625 -0.28125q-0.328125 -0.09375 -0.6875 -0.09375q-0.71875 0 -1.21875 0.21875q-0.5 0.203125 -0.84375 0.421875l-0.546875 -1.0625q0.1875 -0.109375 0.453125 -0.25q0.28125 -0.15625 0.625 -0.265625q0.34375 -0.125 0.734375 -0.203125q0.40625 -0.09375 0.84375 -0.09375q0.828125 0 1.421875 0.203125q0.609375 0.203125 1.0 0.578125q0.390625 0.359375 0.578125 0.875q0.203125 0.5 0.203125 1.078125q0 0.8125 -0.46875 1.390625q-0.46875 0.578125 -1.125 0.875q0.40625 0.125 0.78125 0.359375q0.375 0.21875 0.640625 0.5625q0.28125 0.34375 0.453125 0.796875q0.171875 0.4375 0.171875 1.0q0 0.671875 -0.234375 1.25q-0.21875 0.578125 -0.71875 1.0q-0.484375 0.421875 -1.21875 0.65625q-0.734375 0.234375 -1.734375 0.234375q-0.390625 0 -0.8125 -0.0625q-0.40625 -0.046875 -0.765625 -0.140625q-0.359375 -0.09375 -0.640625 -0.171875q-0.265625 -0.09375 -0.375 -0.15625l0.265625 -1.21875q0.25 0.125 0.84375 0.328125q0.59375 0.1875 1.453125 0.1875z" fill-rule="nonzero"></path><path fill="#e4f3e4" d="m282.0 203.3952l78.04724 0l0 66.01575l-78.04724 0z" fill-rule="nonzero"></path><path stroke="#000000" stroke-width="1.0" stroke-linejoin="round" stroke-linecap="butt" d="m282.0 203.3952l78.04724 0l0 66.01575l-78.04724 0z" fill-rule="nonzero"></path><path fill="#000000" d="m319.8749 235.09245q2.265625 0.09375 3.3125 1.0q1.0625 0.890625 1.0625 2.4375q0 0.6875 -0.234375 1.28125q-0.21875 0.578125 -0.703125 1.0q-0.46875 0.421875 -1.1875 0.65625q-0.71875 0.234375 -1.703125 0.234375q-0.390625 0 -0.796875 -0.0625q-0.40625 -0.046875 -0.75 -0.140625q-0.34375 -0.09375 -0.625 -0.171875q-0.265625 -0.09375 -0.390625 -0.15625l0.28125 -1.21875q0.25 0.125 0.828125 0.328125q0.578125 0.1875 1.421875 0.1875q0.671875 0 1.125 -0.140625q0.453125 -0.15625 0.734375 -0.40625q0.296875 -0.265625 0.421875 -0.59375q0.125 -0.34375 0.125 -0.71875q0 -0.578125 -0.203125 -1.015625q-0.1875 -0.4375 -0.6875 -0.734375q-0.484375 -0.3125 -1.3125 -0.46875q-0.828125 -0.15625 -2.078125 -0.15625q0.078125 -0.734375 0.125 -1.375q0.0625 -0.65625 0.109375 -1.265625q0.046875 -0.609375 0.078125 -1.21875q0.03125 -0.609375 0.0625 -1.28125l5.0 0l0 1.1875l-3.796875 0q-0.015625 0.21875 -0.046875 0.609375q-0.015625 0.375 -0.046875 0.796875q-0.03125 0.40625 -0.0625 0.796875q-0.03125 0.390625 -0.0625 0.609375z" fill-rule="nonzero"></path><path fill="#fce5cd" d="m150.08398 46.62448l78.04726 0l0 45.19403l-78.04726 0z" fill-rule="nonzero"></path><path fill="#000000" fill-opacity="0.0" d="m159.83989 46.62448l0 45.19403m58.535446 -45.19403l0 45.19403" fill-rule="nonzero"></path><path fill="#000000" fill-opacity="0.0" d="m150.08398 46.62448l78.04726 0l0 45.19403l-78.04726 0z" fill-rule="nonzero"></path><path stroke="#000000" stroke-width="1.0" stroke-linejoin="round" stroke-linecap="butt" d="m159.83989 46.62448l0 45.19403m58.535446 -45.19403l0 45.19403" fill-rule="nonzero"></path><path stroke="#000000" stroke-width="1.0" stroke-linejoin="round" stroke-linecap="butt" d="m150.08398 46.62448l78.04726 0l0 45.19403l-78.04726 0z" fill-rule="nonzero"></path><path fill="#000000" d="m175.73128 61.35462l0.78125 0l0 5.546875l-0.78125 0l0 -5.546875zm2.8082275 1.390625l1.5625 0l0 0.625l-1.5625 0l0 1.921875q0 0.3125 0.046875 0.515625q0.046875 0.203125 0.140625 0.328125q0.09375 0.109375 0.234375 0.15625q0.140625 0.046875 0.34375 0.046875q0.328125 0 0.53125 -0.078125q0.203125 -0.078125 0.28125 -0.109375l0.15625 0.609375q-0.125 0.0625 -0.40625 0.140625q-0.265625 0.09375 -0.625 0.09375q-0.4375 0 -0.71875 -0.109375q-0.265625 -0.109375 -0.4375 -0.328125q-0.15625 -0.21875 -0.234375 -0.53125q-0.0625 -0.3125 -0.0625 -0.734375l0 -3.703125l0.75 -0.140625l0 1.296875zm2.2784576 2.078125q0 -0.546875 0.15625 -0.953125q0.171875 -0.421875 0.421875 -0.6875q0.265625 -0.265625 0.609375 -0.40625q0.34375 -0.140625 0.703125 -0.140625q0.84375 0 1.296875 0.53125q0.453125 0.515625 0.453125 1.59375q0 0.046875 0 0.125q0 0.078125 -0.015625 0.140625l-2.84375 0q0.046875 0.640625 0.375 0.984375q0.328125 0.328125 1.015625 0.328125q0.390625 0 0.65625 -0.0625q0.28125 -0.078125 0.40625 -0.140625l0.109375 0.625q-0.140625 0.078125 -0.484375 0.15625q-0.328125 0.078125 -0.765625 0.078125q-0.546875 0 -0.9375 -0.15625q-0.390625 -0.171875 -0.65625 -0.453125q-0.25 -0.296875 -0.375 -0.6875q-0.125 -0.390625 -0.125 -0.875zm2.859375 -0.40625q0 -0.5 -0.265625 -0.8125q-0.25 -0.328125 -0.703125 -0.328125q-0.25 0 -0.453125 0.09375q-0.203125 0.09375 -0.34375 0.265625q-0.125 0.15625 -0.203125 0.359375q-0.078125 0.203125 -0.09375 0.421875l2.0625 0zm3.378189 -1.765625q0.09375 0 0.21875 0.015625q0.125 0.015625 0.25 0.03125q0.125 0.015625 0.21875 0.046875q0.09375 0.015625 0.15625 0.03125l-0.140625 0.640625q-0.078125 -0.03125 -0.28125 -0.0625q-0.203125 -0.046875 -0.53125 -0.046875q-0.203125 0 -0.40625 0.046875q-0.203125 0.03125 -0.265625 0.046875l0 3.5l-0.75 0l0 -3.984375q0.265625 -0.09375 0.65625 -0.171875q0.390625 -0.09375 0.875 -0.09375zm2.962967 3.71875q0.265625 0 0.46875 -0.015625q0.203125 -0.015625 0.34375 -0.046875l0 -1.234375q-0.078125 -0.046875 -0.265625 -0.0625q-0.171875 -0.03125 -0.4375 -0.03125q-0.171875 0 -0.359375 0.03125q-0.1875 0.015625 -0.34375 0.09375q-0.15625 0.0625 -0.265625 0.203125q-0.09375 0.125 -0.09375 0.34375q0 0.40625 0.25 0.5625q0.265625 0.15625 0.703125 0.15625zm-0.0625 -3.734375q0.453125 0 0.75 0.125q0.3125 0.109375 0.5 0.328125q0.1875 0.203125 0.265625 0.5q0.078125 0.28125 0.078125 0.640625l0 2.59375q-0.09375 0.015625 -0.265625 0.046875q-0.171875 0.03125 -0.390625 0.046875q-0.203125 0.03125 -0.46875 0.046875q-0.25 0.03125 -0.5 0.03125q-0.34375 0 -0.640625 -0.078125q-0.296875 -0.078125 -0.515625 -0.234375q-0.21875 -0.15625 -0.34375 -0.40625q-0.109375 -0.25 -0.109375 -0.609375q0 -0.34375 0.140625 -0.59375q0.140625 -0.25 0.375 -0.40625q0.25 -0.15625 0.5625 -0.21875q0.328125 -0.078125 0.671875 -0.078125q0.109375 0 0.234375 0.015625q0.125 0.015625 0.21875 0.03125q0.109375 0.015625 0.1875 0.03125q0.09375 0.015625 0.125 0.03125l0 -0.203125q0 -0.1875 -0.046875 -0.359375q-0.03125 -0.1875 -0.140625 -0.328125q-0.109375 -0.140625 -0.296875 -0.21875q-0.171875 -0.09375 -0.453125 -0.09375q-0.375 0 -0.65625 0.0625q-0.265625 0.046875 -0.40625 0.09375l-0.078125 -0.609375q0.140625 -0.0625 0.46875 -0.125q0.34375 -0.0625 0.734375 -0.0625zm3.535324 0.109375l1.5625 0l0 0.625l-1.5625 0l0 1.921875q0 0.3125 0.046875 0.515625q0.046875 0.203125 0.140625 0.328125q0.09375 0.109375 0.234375 0.15625q0.140625 0.046875 0.34375 0.046875q0.328125 0 0.53125 -0.078125q0.203125 -0.078125 0.28125 -0.109375l0.15625 0.609375q-0.125 0.0625 -0.40625 0.140625q-0.265625 0.09375 -0.625 0.09375q-0.4375 0 -0.71875 -0.109375q-0.265625 -0.109375 -0.4375 -0.328125q-0.15625 -0.21875 -0.234375 -0.53125q-0.0625 -0.3125 -0.0625 -0.734375l0 -3.703125l0.75 -0.140625l0 1.296875zm6.1847076 2.078125q0 0.5 -0.140625 0.90625q-0.140625 0.390625 -0.40625 0.6875q-0.265625 0.28125 -0.625 0.4375q-0.359375 0.15625 -0.78125 0.15625q-0.421875 0 -0.78125 -0.15625q-0.359375 -0.15625 -0.625 -0.4375q-0.25 -0.296875 -0.40625 -0.6875q-0.140625 -0.40625 -0.140625 -0.90625q0 -0.484375 0.140625 -0.890625q0.15625 -0.40625 0.40625 -0.6875q0.265625 -0.296875 0.625 -0.453125q0.359375 -0.15625 0.78125 -0.15625q0.421875 0 0.78125 0.15625q0.359375 0.15625 0.625 0.453125q0.265625 0.28125 0.40625 0.6875q0.140625 0.40625 0.140625 0.890625zm-0.78125 0q0 -0.703125 -0.3125 -1.109375q-0.3125 -0.421875 -0.859375 -0.421875q-0.546875 0 -0.859375 0.421875q-0.3125 0.40625 -0.3125 1.109375q0 0.703125 0.3125 1.125q0.3125 0.40625 0.859375 0.40625q0.546875 0 0.859375 -0.40625q0.3125 -0.421875 0.3125 -1.125zm3.3605652 -2.171875q0.09375 0 0.21875 0.015625q0.125 0.015625 0.25 0.03125q0.125 0.015625 0.21875 0.046875q0.09375 0.015625 0.15625 0.03125l-0.140625 0.640625q-0.078125 -0.03125 -0.28125 -0.0625q-0.203125 -0.046875 -0.53125 -0.046875q-0.203125 0 -0.40625 0.046875q-0.203125 0.03125 -0.265625 0.046875l0 3.5l-0.75 0l0 -3.984375q0.265625 -0.09375 0.65625 -0.171875q0.390625 -0.09375 0.875 -0.09375z" fill-rule="nonzero"></path><path fill="#000000" d="m176.10144 70.69837q0.328125 0 0.5625 0.046875q0.234375 0.046875 0.328125 0.078125l-0.125 0.640625q-0.109375 -0.046875 -0.28125 -0.078125q-0.171875 -0.046875 -0.4375 -0.046875q-0.515625 0 -0.71875 0.28125q-0.203125 0.28125 -0.203125 0.765625l0 0.359375l1.59375 0l0 0.625l-1.59375 0l0 3.53125l-0.75 0l0 -4.53125q0 -0.796875 0.390625 -1.234375q0.390625 -0.4375 1.234375 -0.4375zm4.775467 6.078125q-0.25 0.0625 -0.671875 0.140625q-0.421875 0.078125 -0.984375 0.078125q-0.46875 0 -0.796875 -0.140625q-0.328125 -0.140625 -0.53125 -0.390625q-0.203125 -0.265625 -0.296875 -0.609375q-0.078125 -0.359375 -0.078125 -0.78125l0 -2.328125l0.75 0l0 2.171875q0 0.765625 0.234375 1.09375q0.234375 0.328125 0.8125 0.328125q0.109375 0 0.234375 0q0.140625 -0.015625 0.25 -0.03125q0.109375 -0.015625 0.203125 -0.015625q0.09375 -0.015625 0.125 -0.03125l0 -3.515625l0.75 0l0 4.03125zm1.2794342 -3.921875q0.25 -0.0625 0.671875 -0.125q0.4375 -0.078125 0.984375 -0.078125q0.5 0 0.828125 0.140625q0.328125 0.140625 0.515625 0.390625q0.203125 0.25 0.28125 0.609375q0.078125 0.34375 0.078125 0.765625l0 2.34375l-0.75 0l0 -2.171875q0 -0.390625 -0.046875 -0.65625q-0.046875 -0.28125 -0.171875 -0.4375q-0.125 -0.171875 -0.328125 -0.25q-0.1875 -0.078125 -0.484375 -0.078125q-0.125 0 -0.25 0.015625q-0.125 0 -0.25 0.015625q-0.109375 0.015625 -0.203125 0.03125q-0.09375 0.015625 -0.125 0.015625l0 3.515625l-0.75 0l0 -4.046875zm6.404434 4.140625q-0.515625 0 -0.890625 -0.15625q-0.375 -0.15625 -0.640625 -0.4375q-0.265625 -0.296875 -0.390625 -0.6875q-0.125 -0.40625 -0.125 -0.890625q0 -0.46875 0.140625 -0.875q0.140625 -0.40625 0.390625 -0.6875q0.265625 -0.296875 0.625 -0.453125q0.375 -0.171875 0.84375 -0.171875q0.28125 0 0.546875 0.046875q0.28125 0.046875 0.546875 0.15625l-0.171875 0.625q-0.171875 -0.078125 -0.390625 -0.125q-0.21875 -0.046875 -0.46875 -0.046875q-0.625 0 -0.953125 0.390625q-0.328125 0.390625 -0.328125 1.140625q0 0.34375 0.078125 0.625q0.078125 0.28125 0.234375 0.484375q0.15625 0.1875 0.40625 0.296875q0.265625 0.109375 0.640625 0.109375q0.296875 0 0.53125 -0.046875q0.234375 -0.0625 0.375 -0.125l0.109375 0.625q-0.0625 0.03125 -0.1875 0.078125q-0.125 0.03125 -0.28125 0.0625q-0.140625 0.03125 -0.3125 0.046875q-0.171875 0.015625 -0.328125 0.015625zm2.6105804 -4.25l1.5625 0l0 0.625l-1.5625 0l0 1.921875q0 0.3125 0.046875 0.515625q0.046875 0.203125 0.140625 0.328125q0.09375 0.109375 0.234375 0.15625q0.140625 0.046875 0.34375 0.046875q0.328125 0 0.53125 -0.078125q0.203125 -0.078125 0.28125 -0.109375l0.15625 0.609375q-0.125 0.0625 -0.40625 0.140625q-0.265625 0.09375 -0.625 0.09375q-0.4375 0 -0.71875 -0.109375q-0.265625 -0.109375 -0.4375 -0.328125q-0.15625 -0.21875 -0.234375 -0.53125q-0.0625 -0.3125 -0.0625 -0.734375l0 -3.703125l0.75 -0.140625l0 1.296875zm3.2628326 4.15625l-0.75 0l0 -4.15625l0.75 0l0 4.15625zm-0.375 -4.90625q-0.203125 0 -0.34375 -0.125q-0.140625 -0.140625 -0.140625 -0.375q0 -0.21875 0.140625 -0.34375q0.140625 -0.140625 0.34375 -0.140625q0.1875 0 0.328125 0.140625q0.140625 0.125 0.140625 0.34375q0 0.234375 -0.140625 0.375q-0.140625 0.125 -0.328125 0.125zm5.3208466 2.828125q0 0.5 -0.140625 0.90625q-0.140625 0.390625 -0.40625 0.6875q-0.265625 0.28125 -0.625 0.4375q-0.359375 0.15625 -0.78125 0.15625q-0.421875 0 -0.78125 -0.15625q-0.359375 -0.15625 -0.625 -0.4375q-0.25 -0.296875 -0.40625 -0.6875q-0.140625 -0.40625 -0.140625 -0.90625q0 -0.484375 0.140625 -0.890625q0.15625 -0.40625 0.40625 -0.6875q0.265625 -0.296875 0.625 -0.453125q0.359375 -0.15625 0.78125 -0.15625q0.421875 0 0.78125 0.15625q0.359375 0.15625 0.625 0.453125q0.265625 0.28125 0.40625 0.6875q0.140625 0.40625 0.140625 0.890625zm-0.78125 0q0 -0.703125 -0.3125 -1.109375q-0.3125 -0.421875 -0.859375 -0.421875q-0.546875 0 -0.859375 0.421875q-0.3125 0.40625 -0.3125 1.109375q0 0.703125 0.3125 1.125q0.3125 0.40625 0.859375 0.40625q0.546875 0 0.859375 -0.40625q0.3125 -0.421875 0.3125 -1.125zm1.8293152 -1.96875q0.25 -0.0625 0.671875 -0.125q0.4375 -0.078125 0.984375 -0.078125q0.5 0 0.828125 0.140625q0.328125 0.140625 0.515625 0.390625q0.203125 0.25 0.28125 0.609375q0.078125 0.34375 0.078125 0.765625l0 2.34375l-0.75 0l0 -2.171875q0 -0.390625 -0.046875 -0.65625q-0.046875 -0.28125 -0.171875 -0.4375q-0.125 -0.171875 -0.328125 -0.25q-0.1875 -0.078125 -0.484375 -0.078125q-0.125 0 -0.25 0.015625q-0.125 0 -0.25 0.015625q-0.109375 0.015625 -0.203125 0.03125q-0.09375 0.015625 -0.125 0.015625l0 3.515625l-0.75 0l0 -4.046875z" fill-rule="nonzero"></path><path fill="#000000" fill-opacity="0.0" d="m228.13124 69.2215l53.4803 0" fill-rule="nonzero"></path><path stroke="#000000" stroke-width="1.0" stroke-linejoin="round" stroke-linecap="butt" d="m228.13124 69.2215l47.4803 0" fill-rule="evenodd"></path><path fill="#000000" stroke="#000000" stroke-width="1.0" stroke-linecap="butt" d="m275.61154 70.87323l4.5381165 -1.6517334l-4.5381165 -1.6517334z" fill-rule="evenodd"></path><path fill="#000000" fill-opacity="0.0" d="m101.61155 69.214165l48.472435 0" fill-rule="nonzero"></path><path stroke="#000000" stroke-width="1.0" stroke-linejoin="round" stroke-linecap="butt" d="m101.61155 69.214165l42.472435 0" fill-rule="evenodd"></path><path fill="#000000" stroke="#000000" stroke-width="1.0" stroke-linecap="butt" d="m144.08398 70.8659l4.538101 -1.6517334l-4.538101 -1.6517334z" fill-rule="evenodd"></path><path fill="#000000" fill-opacity="0.0" d="m220.55905 48.86795l48.472443 0l0 27.370079l-48.472443 0z" fill-rule="nonzero"></path><path fill="#000000" d="m232.0903 61.17295q0.125 0 0.265625 0.015625q0.140625 0.015625 0.234375 0.03125l-0.09375 0.65625q-0.109375 -0.015625 -0.234375 -0.03125q-0.109375 -0.015625 -0.203125 -0.015625q-0.25 0 -0.453125 0.109375q-0.203125 0.09375 -0.359375 0.28125q-0.140625 0.171875 -0.21875 0.4375q-0.078125 0.265625 -0.078125 0.578125l0 2.3125l-0.703125 0l0 -4.296875l0.578125 0l0.078125 0.796875l0.03125 0q0.09375 -0.171875 0.203125 -0.328125q0.125 -0.15625 0.25 -0.265625q0.140625 -0.125 0.3125 -0.203125q0.171875 -0.078125 0.390625 -0.078125zm3.0351562 4.453125q-0.421875 0 -0.78125 -0.140625q-0.359375 -0.15625 -0.625 -0.421875q-0.25 -0.28125 -0.390625 -0.6875q-0.140625 -0.421875 -0.140625 -0.9375q0 -0.53125 0.125 -0.953125q0.140625 -0.421875 0.375 -0.703125q0.234375 -0.296875 0.5625 -0.453125q0.328125 -0.15625 0.71875 -0.15625q0.390625 0 0.6875 0.140625q0.3125 0.140625 0.53125 0.390625q0.21875 0.25 0.328125 0.609375q0.109375 0.359375 0.109375 0.78125l0 0.4375l-2.703125 0q0.03125 0.765625 0.328125 1.125q0.296875 0.34375 0.890625 0.34375q0.1875 0 0.359375 -0.015625q0.171875 -0.015625 0.328125 -0.046875q0.15625 -0.046875 0.296875 -0.09375q0.15625 -0.0625 0.3125 -0.140625l0 0.640625q-0.15625 0.0625 -0.3125 0.125q-0.140625 0.046875 -0.296875 0.078125q-0.15625 0.046875 -0.328125 0.0625q-0.171875 0.015625 -0.375 0.015625zm-0.171875 -3.859375q-0.453125 0 -0.71875 0.3125q-0.25 0.296875 -0.296875 0.875l1.921875 0q0 -0.265625 -0.046875 -0.484375q-0.046875 -0.21875 -0.171875 -0.375q-0.109375 -0.15625 -0.28125 -0.234375q-0.171875 -0.09375 -0.40625 -0.09375zm4.0625 3.28125q0.0625 0 0.140625 0q0.09375 -0.015625 0.171875 -0.03125q0.09375 -0.015625 0.15625 -0.03125q0.078125 -0.015625 0.109375 -0.03125l0 0.546875q-0.046875 0.015625 -0.125 0.046875q-0.078125 0.03125 -0.171875 0.046875q-0.09375 0.015625 -0.203125 0.015625q-0.09375 0.015625 -0.203125 0.015625q-0.234375 0 -0.453125 -0.0625q-0.203125 -0.0625 -0.359375 -0.21875q-0.140625 -0.15625 -0.234375 -0.40625q-0.078125 -0.265625 -0.078125 -0.65625l0 -2.484375l-0.609375 0l0 -0.328125l0.609375 -0.296875l0.3125 -0.90625l0.40625 0l0 0.984375l1.078125 0l0 0.546875l-1.078125 0l0 2.484375q0 0.375 0.125 0.578125q0.125 0.1875 0.40625 0.1875zm4.1796875 0.5l-0.09375 -0.578125l-0.046875 0q-0.09375 0.171875 -0.234375 0.296875q-0.125 0.125 -0.296875 0.203125q-0.15625 0.078125 -0.34375 0.109375q-0.171875 0.046875 -0.359375 0.046875q-0.359375 0 -0.625 -0.09375q-0.265625 -0.09375 -0.453125 -0.28125q-0.171875 -0.1875 -0.265625 -0.484375q-0.09375 -0.296875 -0.09375 -0.703125l0 -2.8125l0.71875 0l0 2.765625q0 0.515625 0.203125 0.765625q0.203125 0.25 0.640625 0.25q0.3125 0 0.53125 -0.09375q0.21875 -0.109375 0.34375 -0.296875q0.125 -0.203125 0.1875 -0.484375q0.0625 -0.296875 0.0625 -0.671875l0 -2.234375l0.703125 0l0 4.296875l-0.578125 0zm3.7890625 -4.375q0.125 0 0.265625 0.015625q0.140625 0.015625 0.234375 0.03125l-0.09375 0.65625q-0.109375 -0.015625 -0.234375 -0.03125q-0.109375 -0.015625 -0.203125 -0.015625q-0.25 0 -0.453125 0.109375q-0.203125 0.09375 -0.359375 0.28125q-0.140625 0.171875 -0.21875 0.4375q-0.078125 0.265625 -0.078125 0.578125l0 2.3125l-0.703125 0l0 -4.296875l0.578125 0l0.078125 0.796875l0.03125 0q0.09375 -0.171875 0.203125 -0.328125q0.125 -0.15625 0.25 -0.265625q0.140625 -0.125 0.3125 -0.203125q0.171875 -0.078125 0.390625 -0.078125zm4.0195312 4.375l0 -2.765625q0 -0.5 -0.203125 -0.75q-0.203125 -0.265625 -0.640625 -0.265625q-0.3125 0 -0.53125 0.109375q-0.21875 0.09375 -0.359375 0.296875q-0.125 0.203125 -0.1875 0.5q-0.046875 0.28125 -0.046875 0.65625l0 2.21875l-0.703125 0l0 -4.296875l0.578125 0l0.09375 0.578125l0.046875 0q0.09375 -0.15625 0.21875 -0.28125q0.140625 -0.125 0.296875 -0.203125q0.171875 -0.09375 0.34375 -0.125q0.1875 -0.046875 0.375 -0.046875q0.703125 0 1.0625 0.375q0.375 0.375 0.375 1.203125l0 2.796875l-0.71875 0zm4.6015625 -1.171875q0 0.3125 -0.125 0.546875q-0.109375 0.234375 -0.328125 0.390625q-0.203125 0.15625 -0.5 0.234375q-0.296875 0.078125 -0.671875 0.078125q-0.4375 0 -0.75 -0.078125q-0.296875 -0.0625 -0.515625 -0.1875l0 -0.65625q0.109375 0.0625 0.25 0.125q0.15625 0.0625 0.3125 0.109375q0.171875 0.046875 0.34375 0.078125q0.1875 0.03125 0.359375 0.03125q0.25 0 0.421875 -0.046875q0.1875 -0.046875 0.296875 -0.125q0.109375 -0.078125 0.15625 -0.1875q0.046875 -0.125 0.046875 -0.265625q0 -0.125 -0.046875 -0.21875q-0.03125 -0.09375 -0.140625 -0.1875q-0.09375 -0.09375 -0.28125 -0.1875q-0.171875 -0.109375 -0.453125 -0.234375q-0.28125 -0.109375 -0.515625 -0.21875q-0.21875 -0.125 -0.375 -0.265625q-0.15625 -0.15625 -0.234375 -0.34375q-0.078125 -0.1875 -0.078125 -0.453125q0 -0.265625 0.09375 -0.484375q0.109375 -0.21875 0.296875 -0.359375q0.203125 -0.140625 0.46875 -0.21875q0.28125 -0.078125 0.625 -0.078125q0.375 0 0.6875 0.09375q0.3125 0.078125 0.59375 0.203125l-0.234375 0.578125q-0.265625 -0.109375 -0.53125 -0.1875q-0.265625 -0.09375 -0.546875 -0.09375q-0.390625 0 -0.59375 0.140625q-0.1875 0.125 -0.1875 0.359375q0 0.140625 0.046875 0.25q0.046875 0.09375 0.15625 0.1875q0.109375 0.09375 0.296875 0.1875q0.1875 0.078125 0.453125 0.203125q0.28125 0.109375 0.5 0.234375q0.21875 0.109375 0.375 0.265625q0.15625 0.140625 0.234375 0.328125q0.09375 0.1875 0.09375 0.453125z" fill-rule="nonzero"></path><path fill="#fce5cd" d="m150.47244 128.8864l78.04724 0l0 45.19403l-78.04724 0z" fill-rule="nonzero"></path><path fill="#000000" fill-opacity="0.0" d="m160.22835 128.8864l0 45.19403m58.53543 -45.19403l0 45.19403" fill-rule="nonzero"></path><path fill="#000000" fill-opacity="0.0" d="m150.47244 128.8864l78.04724 0l0 45.19403l-78.04724 0z" fill-rule="nonzero"></path><path stroke="#000000" stroke-width="1.0" stroke-linejoin="round" stroke-linecap="butt" d="m160.22835 128.8864l0 45.19403m58.53543 -45.19403l0 45.19403" fill-rule="nonzero"></path><path stroke="#000000" stroke-width="1.0" stroke-linejoin="round" stroke-linecap="butt" d="m150.47244 128.8864l78.04724 0l0 45.19403l-78.04724 0z" fill-rule="nonzero"></path><path fill="#000000" d="m176.11974 143.61653l0.78125 0l0 5.546875l-0.78125 0l0 -5.546875zm2.8082275 1.390625l1.5625 0l0 0.625l-1.5625 0l0 1.921875q0 0.3125 0.046875 0.515625q0.046875 0.203125 0.140625 0.328125q0.09375 0.109375 0.234375 0.15625q0.140625 0.046875 0.34375 0.046875q0.328125 0 0.53125 -0.078125q0.203125 -0.078125 0.28125 -0.109375l0.15625 0.609375q-0.125 0.0625 -0.40625 0.140625q-0.265625 0.09375 -0.625 0.09375q-0.4375 0 -0.71875 -0.109375q-0.265625 -0.109375 -0.4375 -0.328125q-0.15625 -0.21875 -0.234375 -0.53125q-0.0625 -0.3125 -0.0625 -0.734375l0 -3.703125l0.75 -0.140625l0 1.296875zm2.2784576 2.078125q0 -0.546875 0.15625 -0.953125q0.171875 -0.421875 0.421875 -0.6875q0.265625 -0.265625 0.609375 -0.40625q0.34375 -0.140625 0.703125 -0.140625q0.84375 0 1.296875 0.53125q0.453125 0.515625 0.453125 1.59375q0 0.046875 0 0.125q0 0.078125 -0.015625 0.140625l-2.84375 0q0.046875 0.640625 0.375 0.984375q0.328125 0.328125 1.015625 0.328125q0.390625 0 0.65625 -0.0625q0.28125 -0.078125 0.40625 -0.140625l0.109375 0.625q-0.140625 0.078125 -0.484375 0.15625q-0.328125 0.078125 -0.765625 0.078125q-0.546875 0 -0.9375 -0.15625q-0.390625 -0.171875 -0.65625 -0.453125q-0.25 -0.296875 -0.375 -0.6875q-0.125 -0.390625 -0.125 -0.875zm2.859375 -0.40625q0 -0.5 -0.265625 -0.8125q-0.25 -0.328125 -0.703125 -0.328125q-0.25 0 -0.453125 0.09375q-0.203125 0.09375 -0.34375 0.265625q-0.125 0.15625 -0.203125 0.359375q-0.078125 0.203125 -0.09375 0.421875l2.0625 0zm3.378189 -1.765625q0.09375 0 0.21875 0.015625q0.125 0.015625 0.25 0.03125q0.125 0.015625 0.21875 0.046875q0.09375 0.015625 0.15625 0.03125l-0.140625 0.640625q-0.078125 -0.03125 -0.28125 -0.0625q-0.203125 -0.046875 -0.53125 -0.046875q-0.203125 0 -0.40625 0.046875q-0.203125 0.03125 -0.265625 0.046875l0 3.5l-0.75 0l0 -3.984375q0.265625 -0.09375 0.65625 -0.171875q0.390625 -0.09375 0.875 -0.09375zm2.962967 3.71875q0.265625 0 0.46875 -0.015625q0.203125 -0.015625 0.34375 -0.046875l0 -1.234375q-0.078125 -0.046875 -0.265625 -0.0625q-0.171875 -0.03125 -0.4375 -0.03125q-0.171875 0 -0.359375 0.03125q-0.1875 0.015625 -0.34375 0.09375q-0.15625 0.0625 -0.265625 0.203125q-0.09375 0.125 -0.09375 0.34375q0 0.40625 0.25 0.5625q0.265625 0.15625 0.703125 0.15625zm-0.0625 -3.734375q0.453125 0 0.75 0.125q0.3125 0.109375 0.5 0.328125q0.1875 0.203125 0.265625 0.5q0.078125 0.28125 0.078125 0.640625l0 2.59375q-0.09375 0.015625 -0.265625 0.046875q-0.171875 0.03125 -0.390625 0.046875q-0.203125 0.03125 -0.46875 0.046875q-0.25 0.03125 -0.5 0.03125q-0.34375 0 -0.640625 -0.078125q-0.296875 -0.078125 -0.515625 -0.234375q-0.21875 -0.15625 -0.34375 -0.40625q-0.109375 -0.25 -0.109375 -0.609375q0 -0.34375 0.140625 -0.59375q0.140625 -0.25 0.375 -0.40625q0.25 -0.15625 0.5625 -0.21875q0.328125 -0.078125 0.671875 -0.078125q0.109375 0 0.234375 0.015625q0.125 0.015625 0.21875 0.03125q0.109375 0.015625 0.1875 0.03125q0.09375 0.015625 0.125 0.03125l0 -0.203125q0 -0.1875 -0.046875 -0.359375q-0.03125 -0.1875 -0.140625 -0.328125q-0.109375 -0.140625 -0.296875 -0.21875q-0.171875 -0.09375 -0.453125 -0.09375q-0.375 0 -0.65625 0.0625q-0.265625 0.046875 -0.40625 0.09375l-0.078125 -0.609375q0.140625 -0.0625 0.46875 -0.125q0.34375 -0.0625 0.734375 -0.0625zm3.535324 0.109375l1.5625 0l0 0.625l-1.5625 0l0 1.921875q0 0.3125 0.046875 0.515625q0.046875 0.203125 0.140625 0.328125q0.09375 0.109375 0.234375 0.15625q0.140625 0.046875 0.34375 0.046875q0.328125 0 0.53125 -0.078125q0.203125 -0.078125 0.28125 -0.109375l0.15625 0.609375q-0.125 0.0625 -0.40625 0.140625q-0.265625 0.09375 -0.625 0.09375q-0.4375 0 -0.71875 -0.109375q-0.265625 -0.109375 -0.4375 -0.328125q-0.15625 -0.21875 -0.234375 -0.53125q-0.0625 -0.3125 -0.0625 -0.734375l0 -3.703125l0.75 -0.140625l0 1.296875zm6.1847076 2.078125q0 0.5 -0.140625 0.90625q-0.140625 0.390625 -0.40625 0.6875q-0.265625 0.28125 -0.625 0.4375q-0.359375 0.15625 -0.78125 0.15625q-0.421875 0 -0.78125 -0.15625q-0.359375 -0.15625 -0.625 -0.4375q-0.25 -0.296875 -0.40625 -0.6875q-0.140625 -0.40625 -0.140625 -0.90625q0 -0.484375 0.140625 -0.890625q0.15625 -0.40625 0.40625 -0.6875q0.265625 -0.296875 0.625 -0.453125q0.359375 -0.15625 0.78125 -0.15625q0.421875 0 0.78125 0.15625q0.359375 0.15625 0.625 0.453125q0.265625 0.28125 0.40625 0.6875q0.140625 0.40625 0.140625 0.890625zm-0.78125 0q0 -0.703125 -0.3125 -1.109375q-0.3125 -0.421875 -0.859375 -0.421875q-0.546875 0 -0.859375 0.421875q-0.3125 0.40625 -0.3125 1.109375q0 0.703125 0.3125 1.125q0.3125 0.40625 0.859375 0.40625q0.546875 0 0.859375 -0.40625q0.3125 -0.421875 0.3125 -1.125zm3.3605652 -2.171875q0.09375 0 0.21875 0.015625q0.125 0.015625 0.25 0.03125q0.125 0.015625 0.21875 0.046875q0.09375 0.015625 0.15625 0.03125l-0.140625 0.640625q-0.078125 -0.03125 -0.28125 -0.0625q-0.203125 -0.046875 -0.53125 -0.046875q-0.203125 0 -0.40625 0.046875q-0.203125 0.03125 -0.265625 0.046875l0 3.5l-0.75 0l0 -3.984375q0.265625 -0.09375 0.65625 -0.171875q0.390625 -0.09375 0.875 -0.09375z" fill-rule="nonzero"></path><path fill="#000000" d="m176.4899 152.96028q0.328125 0 0.5625 0.046875q0.234375 0.046875 0.328125 0.078125l-0.125 0.640625q-0.109375 -0.046875 -0.28125 -0.078125q-0.171875 -0.046875 -0.4375 -0.046875q-0.515625 0 -0.71875 0.28125q-0.203125 0.28125 -0.203125 0.765625l0 0.359375l1.59375 0l0 0.625l-1.59375 0l0 3.53125l-0.75 0l0 -4.53125q0 -0.796875 0.390625 -1.234375q0.390625 -0.4375 1.234375 -0.4375zm4.775467 6.078125q-0.25 0.0625 -0.671875 0.140625q-0.421875 0.078125 -0.984375 0.078125q-0.46875 0 -0.796875 -0.140625q-0.328125 -0.140625 -0.53125 -0.390625q-0.203125 -0.265625 -0.296875 -0.609375q-0.078125 -0.359375 -0.078125 -0.78125l0 -2.328125l0.75 0l0 2.171875q0 0.765625 0.234375 1.09375q0.234375 0.328125 0.8125 0.328125q0.109375 0 0.234375 0q0.140625 -0.015625 0.25 -0.03125q0.109375 -0.015625 0.203125 -0.015625q0.09375 -0.015625 0.125 -0.03125l0 -3.515625l0.75 0l0 4.03125zm1.2794342 -3.921875q0.25 -0.0625 0.671875 -0.125q0.4375 -0.078125 0.984375 -0.078125q0.5 0 0.828125 0.140625q0.328125 0.140625 0.515625 0.390625q0.203125 0.25 0.28125 0.609375q0.078125 0.34375 0.078125 0.765625l0 2.34375l-0.75 0l0 -2.171875q0 -0.390625 -0.046875 -0.65625q-0.046875 -0.28125 -0.171875 -0.4375q-0.125 -0.171875 -0.328125 -0.25q-0.1875 -0.078125 -0.484375 -0.078125q-0.125 0 -0.25 0.015625q-0.125 0 -0.25 0.015625q-0.109375 0.015625 -0.203125 0.03125q-0.09375 0.015625 -0.125 0.015625l0 3.515625l-0.75 0l0 -4.046875zm6.404434 4.140625q-0.515625 0 -0.890625 -0.15625q-0.375 -0.15625 -0.640625 -0.4375q-0.265625 -0.296875 -0.390625 -0.6875q-0.125 -0.40625 -0.125 -0.890625q0 -0.46875 0.140625 -0.875q0.140625 -0.40625 0.390625 -0.6875q0.265625 -0.296875 0.625 -0.453125q0.375 -0.171875 0.84375 -0.171875q0.28125 0 0.546875 0.046875q0.28125 0.046875 0.546875 0.15625l-0.171875 0.625q-0.171875 -0.078125 -0.390625 -0.125q-0.21875 -0.046875 -0.46875 -0.046875q-0.625 0 -0.953125 0.390625q-0.328125 0.390625 -0.328125 1.140625q0 0.34375 0.078125 0.625q0.078125 0.28125 0.234375 0.484375q0.15625 0.1875 0.40625 0.296875q0.265625 0.109375 0.640625 0.109375q0.296875 0 0.53125 -0.046875q0.234375 -0.0625 0.375 -0.125l0.109375 0.625q-0.0625 0.03125 -0.1875 0.078125q-0.125 0.03125 -0.28125 0.0625q-0.140625 0.03125 -0.3125 0.046875q-0.171875 0.015625 -0.328125 0.015625zm2.6105804 -4.25l1.5624847 0l0 0.625l-1.5624847 0l0 1.921875q0 0.3125 0.046875 0.515625q0.046875 0.203125 0.140625 0.328125q0.09375 0.109375 0.234375 0.15625q0.140625 0.046875 0.34373474 0.046875q0.328125 0 0.53125 -0.078125q0.203125 -0.078125 0.28125 -0.109375l0.15625 0.609375q-0.125 0.0625 -0.40625 0.140625q-0.265625 0.09375 -0.625 0.09375q-0.43748474 0 -0.71873474 -0.109375q-0.265625 -0.109375 -0.4375 -0.328125q-0.15625 -0.21875 -0.234375 -0.53125q-0.0625 -0.3125 -0.0625 -0.734375l0 -3.703125l0.75 -0.140625l0 1.296875zm3.2628174 4.15625l-0.75 0l0 -4.15625l0.75 0l0 4.15625zm-0.375 -4.90625q-0.203125 0 -0.34375 -0.125q-0.140625 -0.140625 -0.140625 -0.375q0 -0.21875 0.140625 -0.34375q0.140625 -0.140625 0.34375 -0.140625q0.1875 0 0.328125 0.140625q0.140625 0.125 0.140625 0.34375q0 0.234375 -0.140625 0.375q-0.140625 0.125 -0.328125 0.125zm5.3208466 2.828125q0 0.5 -0.140625 0.90625q-0.140625 0.390625 -0.40625 0.6875q-0.265625 0.28125 -0.625 0.4375q-0.359375 0.15625 -0.78125 0.15625q-0.421875 0 -0.78125 -0.15625q-0.359375 -0.15625 -0.625 -0.4375q-0.25 -0.296875 -0.40625 -0.6875q-0.140625 -0.40625 -0.140625 -0.90625q0 -0.484375 0.140625 -0.890625q0.15625 -0.40625 0.40625 -0.6875q0.265625 -0.296875 0.625 -0.453125q0.359375 -0.15625 0.78125 -0.15625q0.421875 0 0.78125 0.15625q0.359375 0.15625 0.625 0.453125q0.265625 0.28125 0.40625 0.6875q0.140625 0.40625 0.140625 0.890625zm-0.78125 0q0 -0.703125 -0.3125 -1.109375q-0.3125 -0.421875 -0.859375 -0.421875q-0.546875 0 -0.859375 0.421875q-0.3125 0.40625 -0.3125 1.109375q0 0.703125 0.3125 1.125q0.3125 0.40625 0.859375 0.40625q0.546875 0 0.859375 -0.40625q0.3125 -0.421875 0.3125 -1.125zm1.8293152 -1.96875q0.25 -0.0625 0.671875 -0.125q0.4375 -0.078125 0.984375 -0.078125q0.5 0 0.828125 0.140625q0.328125 0.140625 0.515625 0.390625q0.203125 0.25 0.28125 0.609375q0.078125 0.34375 0.078125 0.765625l0 2.34375l-0.75 0l0 -2.171875q0 -0.390625 -0.046875 -0.65625q-0.046875 -0.28125 -0.171875 -0.4375q-0.125 -0.171875 -0.328125 -0.25q-0.1875 -0.078125 -0.484375 -0.078125q-0.125 0 -0.25 0.015625q-0.125 0 -0.25 0.015625q-0.109375 0.015625 -0.203125 0.03125q-0.09375 0.015625 -0.125 0.015625l0 3.515625l-0.75 0l0 -4.046875z" fill-rule="nonzero"></path><path fill="#000000" fill-opacity="0.0" d="m228.51968 151.48341l53.480316 0" fill-rule="nonzero"></path><path stroke="#000000" stroke-width="1.0" stroke-linejoin="round" stroke-linecap="butt" d="m228.51968 151.48341l47.480316 0" fill-rule="evenodd"></path><path fill="#000000" stroke="#000000" stroke-width="1.0" stroke-linecap="butt" d="m276.0 153.13515l4.538086 -1.6517334l-4.538086 -1.6517334z" fill-rule="evenodd"></path><path fill="#000000" fill-opacity="0.0" d="m102.0 151.48341l48.472443 0" fill-rule="nonzero"></path><path stroke="#000000" stroke-width="1.0" stroke-linejoin="round" stroke-linecap="butt" d="m102.0 151.48341l42.472443 0" fill-rule="evenodd"></path><path fill="#000000" stroke="#000000" stroke-width="1.0" stroke-linecap="butt" d="m144.47244 153.13515l4.538101 -1.6517334l-4.538101 -1.6517334z" fill-rule="evenodd"></path><path fill="#000000" fill-opacity="0.0" d="m220.94751 131.12985l48.472443 0l0 27.370087l-48.472443 0z" fill-rule="nonzero"></path><path fill="#000000" d="m232.47876 143.43486q0.125 0 0.265625 0.015625q0.140625 0.015625 0.234375 0.03125l-0.09375 0.65625q-0.109375 -0.015625 -0.234375 -0.03125q-0.109375 -0.015625 -0.203125 -0.015625q-0.25 0 -0.453125 0.109375q-0.203125 0.09375 -0.359375 0.28125q-0.140625 0.171875 -0.21875 0.4375q-0.078125 0.265625 -0.078125 0.578125l0 2.3125l-0.703125 0l0 -4.296875l0.578125 0l0.078125 0.796875l0.03125 0q0.09375 -0.171875 0.203125 -0.328125q0.125 -0.15625 0.25 -0.265625q0.140625 -0.125 0.3125 -0.203125q0.171875 -0.078125 0.390625 -0.078125zm3.0351562 4.453125q-0.421875 0 -0.78125 -0.140625q-0.359375 -0.15625 -0.625 -0.421875q-0.25 -0.28125 -0.390625 -0.6875q-0.140625 -0.421875 -0.140625 -0.9375q0 -0.53125 0.125 -0.953125q0.140625 -0.421875 0.375 -0.703125q0.234375 -0.296875 0.5625 -0.453125q0.328125 -0.15625 0.71875 -0.15625q0.390625 0 0.6875 0.140625q0.3125 0.140625 0.53125 0.390625q0.21875 0.25 0.328125 0.609375q0.109375 0.359375 0.109375 0.78125l0 0.4375l-2.703125 0q0.03125 0.765625 0.328125 1.125q0.296875 0.34375 0.890625 0.34375q0.1875 0 0.359375 -0.015625q0.171875 -0.015625 0.328125 -0.046875q0.15625 -0.046875 0.296875 -0.09375q0.15625 -0.0625 0.3125 -0.140625l0 0.640625q-0.15625 0.0625 -0.3125 0.125q-0.140625 0.046875 -0.296875 0.078125q-0.15625 0.046875 -0.328125 0.0625q-0.171875 0.015625 -0.375 0.015625zm-0.171875 -3.859375q-0.453125 0 -0.71875 0.3125q-0.25 0.296875 -0.296875 0.875l1.921875 0q0 -0.265625 -0.046875 -0.484375q-0.046875 -0.21875 -0.171875 -0.375q-0.109375 -0.15625 -0.28125 -0.234375q-0.171875 -0.09375 -0.40625 -0.09375zm4.0625 3.28125q0.0625 0 0.140625 0q0.09375 -0.015625 0.171875 -0.03125q0.09375 -0.015625 0.15625 -0.03125q0.078125 -0.015625 0.109375 -0.03125l0 0.546875q-0.046875 0.015625 -0.125 0.046875q-0.078125 0.03125 -0.171875 0.046875q-0.09375 0.015625 -0.203125 0.015625q-0.09375 0.015625 -0.203125 0.015625q-0.234375 0 -0.453125 -0.0625q-0.203125 -0.0625 -0.359375 -0.21875q-0.140625 -0.15625 -0.234375 -0.40625q-0.078125 -0.265625 -0.078125 -0.65625l0 -2.484375l-0.609375 0l0 -0.328125l0.609375 -0.296875l0.3125 -0.90625l0.40625 0l0 0.984375l1.078125 0l0 0.546875l-1.078125 0l0 2.484375q0 0.375 0.125 0.578125q0.125 0.1875 0.40625 0.1875zm4.1796875 0.5l-0.09375 -0.578125l-0.046875 0q-0.09375 0.171875 -0.234375 0.296875q-0.125 0.125 -0.296875 0.203125q-0.15625 0.078125 -0.34375 0.109375q-0.171875 0.046875 -0.359375 0.046875q-0.359375 0 -0.625 -0.09375q-0.265625 -0.09375 -0.453125 -0.28125q-0.171875 -0.1875 -0.265625 -0.484375q-0.09375 -0.296875 -0.09375 -0.703125l0 -2.8125l0.71875 0l0 2.765625q0 0.515625 0.203125 0.765625q0.203125 0.25 0.640625 0.25q0.3125 0 0.53125 -0.09375q0.21875 -0.109375 0.34375 -0.296875q0.125 -0.203125 0.1875 -0.484375q0.0625 -0.296875 0.0625 -0.671875l0 -2.234375l0.703125 0l0 4.296875l-0.578125 0zm3.7890625 -4.375q0.125 0 0.265625 0.015625q0.140625 0.015625 0.234375 0.03125l-0.09375 0.65625q-0.109375 -0.015625 -0.234375 -0.03125q-0.109375 -0.015625 -0.203125 -0.015625q-0.25 0 -0.453125 0.109375q-0.203125 0.09375 -0.359375 0.28125q-0.140625 0.171875 -0.21875 0.4375q-0.078125 0.265625 -0.078125 0.578125l0 2.3125l-0.703125 0l0 -4.296875l0.578125 0l0.078125 0.796875l0.03125 0q0.09375 -0.171875 0.203125 -0.328125q0.125 -0.15625 0.25 -0.265625q0.140625 -0.125 0.3125 -0.203125q0.171875 -0.078125 0.390625 -0.078125zm4.0195312 4.375l0 -2.765625q0 -0.5 -0.203125 -0.75q-0.203125 -0.265625 -0.640625 -0.265625q-0.3125 0 -0.53125 0.109375q-0.21875 0.09375 -0.359375 0.296875q-0.125 0.203125 -0.1875 0.5q-0.046875 0.28125 -0.046875 0.65625l0 2.21875l-0.703125 0l0 -4.296875l0.578125 0l0.09375 0.578125l0.046875 0q0.09375 -0.15625 0.21875 -0.28125q0.140625 -0.125 0.296875 -0.203125q0.171875 -0.09375 0.34375 -0.125q0.1875 -0.046875 0.375 -0.046875q0.703125 0 1.0625 0.375q0.375 0.375 0.375 1.203125l0 2.796875l-0.71875 0zm4.6015625 -1.171875q0 0.3125 -0.125 0.546875q-0.109375 0.234375 -0.328125 0.390625q-0.203125 0.15625 -0.5 0.234375q-0.296875 0.078125 -0.671875 0.078125q-0.4375 0 -0.75 -0.078125q-0.296875 -0.0625 -0.515625 -0.1875l0 -0.65625q0.109375 0.0625 0.25 0.125q0.15625 0.0625 0.3125 0.109375q0.171875 0.046875 0.34375 0.078125q0.1875 0.03125 0.359375 0.03125q0.25 0 0.421875 -0.046875q0.1875 -0.046875 0.296875 -0.125q0.109375 -0.078125 0.15625 -0.1875q0.046875 -0.125 0.046875 -0.265625q0 -0.125 -0.046875 -0.21875q-0.03125 -0.09375 -0.140625 -0.1875q-0.09375 -0.09375 -0.28125 -0.1875q-0.171875 -0.109375 -0.453125 -0.234375q-0.28125 -0.109375 -0.515625 -0.21875q-0.21875 -0.125 -0.375 -0.265625q-0.15625 -0.15625 -0.234375 -0.34375q-0.078125 -0.1875 -0.078125 -0.453125q0 -0.265625 0.09375 -0.484375q0.109375 -0.21875 0.296875 -0.359375q0.203125 -0.140625 0.46875 -0.21875q0.28125 -0.078125 0.625 -0.078125q0.375 0 0.6875 0.09375q0.3125 0.078125 0.59375 0.203125l-0.234375 0.578125q-0.265625 -0.109375 -0.53125 -0.1875q-0.265625 -0.09375 -0.546875 -0.09375q-0.390625 0 -0.59375 0.140625q-0.1875 0.125 -0.1875 0.359375q0 0.140625 0.046875 0.25q0.046875 0.09375 0.15625 0.1875q0.109375 0.09375 0.296875 0.1875q0.1875 0.078125 0.453125 0.203125q0.28125 0.109375 0.5 0.234375q0.21875 0.109375 0.375 0.265625q0.15625 0.140625 0.234375 0.328125q0.09375 0.1875 0.09375 0.453125z" fill-rule="nonzero"></path><path fill="#fce5cd" d="m150.47244 213.81909l78.04724 0l0 45.19403l-78.04724 0z" fill-rule="nonzero"></path><path fill="#000000" fill-opacity="0.0" d="m160.22835 213.81909l0 45.19403m58.53543 -45.19403l0 45.19403" fill-rule="nonzero"></path><path fill="#000000" fill-opacity="0.0" d="m150.47244 213.81909l78.04724 0l0 45.19403l-78.04724 0z" fill-rule="nonzero"></path><path stroke="#000000" stroke-width="1.0" stroke-linejoin="round" stroke-linecap="butt" d="m160.22835 213.81909l0 45.19403m58.53543 -45.19403l0 45.19403" fill-rule="nonzero"></path><path stroke="#000000" stroke-width="1.0" stroke-linejoin="round" stroke-linecap="butt" d="m150.47244 213.81909l78.04724 0l0 45.19403l-78.04724 0z" fill-rule="nonzero"></path><path fill="#000000" d="m176.11974 228.54924l0.78125 0l0 5.546875l-0.78125 0l0 -5.546875zm2.8082275 1.390625l1.5625 0l0 0.625l-1.5625 0l0 1.921875q0 0.3125 0.046875 0.515625q0.046875 0.203125 0.140625 0.328125q0.09375 0.109375 0.234375 0.15625q0.140625 0.046875 0.34375 0.046875q0.328125 0 0.53125 -0.078125q0.203125 -0.078125 0.28125 -0.109375l0.15625 0.609375q-0.125 0.0625 -0.40625 0.140625q-0.265625 0.09375 -0.625 0.09375q-0.4375 0 -0.71875 -0.109375q-0.265625 -0.109375 -0.4375 -0.328125q-0.15625 -0.21875 -0.234375 -0.53125q-0.0625 -0.3125 -0.0625 -0.734375l0 -3.703125l0.75 -0.140625l0 1.296875zm2.2784576 2.078125q0 -0.546875 0.15625 -0.953125q0.171875 -0.421875 0.421875 -0.6875q0.265625 -0.265625 0.609375 -0.40625q0.34375 -0.140625 0.703125 -0.140625q0.84375 0 1.296875 0.53125q0.453125 0.515625 0.453125 1.59375q0 0.046875 0 0.125q0 0.078125 -0.015625 0.140625l-2.84375 0q0.046875 0.640625 0.375 0.984375q0.328125 0.328125 1.015625 0.328125q0.390625 0 0.65625 -0.0625q0.28125 -0.078125 0.40625 -0.140625l0.109375 0.625q-0.140625 0.078125 -0.484375 0.15625q-0.328125 0.078125 -0.765625 0.078125q-0.546875 0 -0.9375 -0.15625q-0.390625 -0.171875 -0.65625 -0.453125q-0.25 -0.296875 -0.375 -0.6875q-0.125 -0.390625 -0.125 -0.875zm2.859375 -0.40625q0 -0.5 -0.265625 -0.8125q-0.25 -0.328125 -0.703125 -0.328125q-0.25 0 -0.453125 0.09375q-0.203125 0.09375 -0.34375 0.265625q-0.125 0.15625 -0.203125 0.359375q-0.078125 0.203125 -0.09375 0.421875l2.0625 0zm3.378189 -1.765625q0.09375 0 0.21875 0.015625q0.125 0.015625 0.25 0.03125q0.125 0.015625 0.21875 0.046875q0.09375 0.015625 0.15625 0.03125l-0.140625 0.640625q-0.078125 -0.03125 -0.28125 -0.0625q-0.203125 -0.046875 -0.53125 -0.046875q-0.203125 0 -0.40625 0.046875q-0.203125 0.03125 -0.265625 0.046875l0 3.5l-0.75 0l0 -3.984375q0.265625 -0.09375 0.65625 -0.171875q0.390625 -0.09375 0.875 -0.09375zm2.962967 3.71875q0.265625 0 0.46875 -0.015625q0.203125 -0.015625 0.34375 -0.046875l0 -1.234375q-0.078125 -0.046875 -0.265625 -0.0625q-0.171875 -0.03125 -0.4375 -0.03125q-0.171875 0 -0.359375 0.03125q-0.1875 0.015625 -0.34375 0.09375q-0.15625 0.0625 -0.265625 0.203125q-0.09375 0.125 -0.09375 0.34375q0 0.40625 0.25 0.5625q0.265625 0.15625 0.703125 0.15625zm-0.0625 -3.734375q0.453125 0 0.75 0.125q0.3125 0.109375 0.5 0.328125q0.1875 0.203125 0.265625 0.5q0.078125 0.28125 0.078125 0.640625l0 2.59375q-0.09375 0.015625 -0.265625 0.046875q-0.171875 0.03125 -0.390625 0.046875q-0.203125 0.03125 -0.46875 0.046875q-0.25 0.03125 -0.5 0.03125q-0.34375 0 -0.640625 -0.078125q-0.296875 -0.078125 -0.515625 -0.234375q-0.21875 -0.15625 -0.34375 -0.40625q-0.109375 -0.25 -0.109375 -0.609375q0 -0.34375 0.140625 -0.59375q0.140625 -0.25 0.375 -0.40625q0.25 -0.15625 0.5625 -0.21875q0.328125 -0.078125 0.671875 -0.078125q0.109375 0 0.234375 0.015625q0.125 0.015625 0.21875 0.03125q0.109375 0.015625 0.1875 0.03125q0.09375 0.015625 0.125 0.03125l0 -0.203125q0 -0.1875 -0.046875 -0.359375q-0.03125 -0.1875 -0.140625 -0.328125q-0.109375 -0.140625 -0.296875 -0.21875q-0.171875 -0.09375 -0.453125 -0.09375q-0.375 0 -0.65625 0.0625q-0.265625 0.046875 -0.40625 0.09375l-0.078125 -0.609375q0.140625 -0.0625 0.46875 -0.125q0.34375 -0.0625 0.734375 -0.0625zm3.535324 0.109375l1.5625 0l0 0.625l-1.5625 0l0 1.921875q0 0.3125 0.046875 0.515625q0.046875 0.203125 0.140625 0.328125q0.09375 0.109375 0.234375 0.15625q0.140625 0.046875 0.34375 0.046875q0.328125 0 0.53125 -0.078125q0.203125 -0.078125 0.28125 -0.109375l0.15625 0.609375q-0.125 0.0625 -0.40625 0.140625q-0.265625 0.09375 -0.625 0.09375q-0.4375 0 -0.71875 -0.109375q-0.265625 -0.109375 -0.4375 -0.328125q-0.15625 -0.21875 -0.234375 -0.53125q-0.0625 -0.3125 -0.0625 -0.734375l0 -3.703125l0.75 -0.140625l0 1.296875zm6.1847076 2.078125q0 0.5 -0.140625 0.90625q-0.140625 0.390625 -0.40625 0.6875q-0.265625 0.28125 -0.625 0.4375q-0.359375 0.15625 -0.78125 0.15625q-0.421875 0 -0.78125 -0.15625q-0.359375 -0.15625 -0.625 -0.4375q-0.25 -0.296875 -0.40625 -0.6875q-0.140625 -0.40625 -0.140625 -0.90625q0 -0.484375 0.140625 -0.890625q0.15625 -0.40625 0.40625 -0.6875q0.265625 -0.296875 0.625 -0.453125q0.359375 -0.15625 0.78125 -0.15625q0.421875 0 0.78125 0.15625q0.359375 0.15625 0.625 0.453125q0.265625 0.28125 0.40625 0.6875q0.140625 0.40625 0.140625 0.890625zm-0.78125 0q0 -0.703125 -0.3125 -1.109375q-0.3125 -0.421875 -0.859375 -0.421875q-0.546875 0 -0.859375 0.421875q-0.3125 0.40625 -0.3125 1.109375q0 0.703125 0.3125 1.125q0.3125 0.40625 0.859375 0.40625q0.546875 0 0.859375 -0.40625q0.3125 -0.421875 0.3125 -1.125zm3.3605652 -2.171875q0.09375 0 0.21875 0.015625q0.125 0.015625 0.25 0.03125q0.125 0.015625 0.21875 0.046875q0.09375 0.015625 0.15625 0.03125l-0.140625 0.640625q-0.078125 -0.03125 -0.28125 -0.0625q-0.203125 -0.046875 -0.53125 -0.046875q-0.203125 0 -0.40625 0.046875q-0.203125 0.03125 -0.265625 0.046875l0 3.5l-0.75 0l0 -3.984375q0.265625 -0.09375 0.65625 -0.171875q0.390625 -0.09375 0.875 -0.09375z" fill-rule="nonzero"></path><path fill="#000000" d="m176.4899 237.89299q0.328125 0 0.5625 0.046875q0.234375 0.046875 0.328125 0.078125l-0.125 0.640625q-0.109375 -0.046875 -0.28125 -0.078125q-0.171875 -0.046875 -0.4375 -0.046875q-0.515625 0 -0.71875 0.28125q-0.203125 0.28125 -0.203125 0.765625l0 0.359375l1.59375 0l0 0.625l-1.59375 0l0 3.53125l-0.75 0l0 -4.53125q0 -0.796875 0.390625 -1.234375q0.390625 -0.4375 1.234375 -0.4375zm4.775467 6.078125q-0.25 0.0625 -0.671875 0.140625q-0.421875 0.078125 -0.984375 0.078125q-0.46875 0 -0.796875 -0.140625q-0.328125 -0.140625 -0.53125 -0.390625q-0.203125 -0.265625 -0.296875 -0.609375q-0.078125 -0.359375 -0.078125 -0.78125l0 -2.328125l0.75 0l0 2.171875q0 0.765625 0.234375 1.09375q0.234375 0.328125 0.8125 0.328125q0.109375 0 0.234375 0q0.140625 -0.015625 0.25 -0.03125q0.109375 -0.015625 0.203125 -0.015625q0.09375 -0.015625 0.125 -0.03125l0 -3.515625l0.75 0l0 4.03125zm1.2794342 -3.921875q0.25 -0.0625 0.671875 -0.125q0.4375 -0.078125 0.984375 -0.078125q0.5 0 0.828125 0.140625q0.328125 0.140625 0.515625 0.390625q0.203125 0.25 0.28125 0.609375q0.078125 0.34375 0.078125 0.765625l0 2.34375l-0.75 0l0 -2.171875q0 -0.390625 -0.046875 -0.65625q-0.046875 -0.28125 -0.171875 -0.4375q-0.125 -0.171875 -0.328125 -0.25q-0.1875 -0.078125 -0.484375 -0.078125q-0.125 0 -0.25 0.015625q-0.125 0 -0.25 0.015625q-0.109375 0.015625 -0.203125 0.03125q-0.09375 0.015625 -0.125 0.015625l0 3.515625l-0.75 0l0 -4.046875zm6.404434 4.140625q-0.515625 0 -0.890625 -0.15625q-0.375 -0.15625 -0.640625 -0.4375q-0.265625 -0.296875 -0.390625 -0.6875q-0.125 -0.40625 -0.125 -0.890625q0 -0.46875 0.140625 -0.875q0.140625 -0.40625 0.390625 -0.6875q0.265625 -0.296875 0.625 -0.453125q0.375 -0.171875 0.84375 -0.171875q0.28125 0 0.546875 0.046875q0.28125 0.046875 0.546875 0.15625l-0.171875 0.625q-0.171875 -0.078125 -0.390625 -0.125q-0.21875 -0.046875 -0.46875 -0.046875q-0.625 0 -0.953125 0.390625q-0.328125 0.390625 -0.328125 1.140625q0 0.34375 0.078125 0.625q0.078125 0.28125 0.234375 0.484375q0.15625 0.1875 0.40625 0.296875q0.265625 0.109375 0.640625 0.109375q0.296875 0 0.53125 -0.046875q0.234375 -0.0625 0.375 -0.125l0.109375 0.625q-0.0625 0.03125 -0.1875 0.078125q-0.125 0.03125 -0.28125 0.0625q-0.140625 0.03125 -0.3125 0.046875q-0.171875 0.015625 -0.328125 0.015625zm2.6105804 -4.25l1.5624847 0l0 0.625l-1.5624847 0l0 1.921875q0 0.3125 0.046875 0.515625q0.046875 0.203125 0.140625 0.328125q0.09375 0.109375 0.234375 0.15625q0.140625 0.046875 0.34373474 0.046875q0.328125 0 0.53125 -0.078125q0.203125 -0.078125 0.28125 -0.109375l0.15625 0.609375q-0.125 0.0625 -0.40625 0.140625q-0.265625 0.09375 -0.625 0.09375q-0.43748474 0 -0.71873474 -0.109375q-0.265625 -0.109375 -0.4375 -0.328125q-0.15625 -0.21875 -0.234375 -0.53125q-0.0625 -0.3125 -0.0625 -0.734375l0 -3.703125l0.75 -0.140625l0 1.296875zm3.2628174 4.15625l-0.75 0l0 -4.15625l0.75 0l0 4.15625zm-0.375 -4.90625q-0.203125 0 -0.34375 -0.125q-0.140625 -0.140625 -0.140625 -0.375q0 -0.21875 0.140625 -0.34375q0.140625 -0.140625 0.34375 -0.140625q0.1875 0 0.328125 0.140625q0.140625 0.125 0.140625 0.34375q0 0.234375 -0.140625 0.375q-0.140625 0.125 -0.328125 0.125zm5.3208466 2.828125q0 0.5 -0.140625 0.90625q-0.140625 0.390625 -0.40625 0.6875q-0.265625 0.28125 -0.625 0.4375q-0.359375 0.15625 -0.78125 0.15625q-0.421875 0 -0.78125 -0.15625q-0.359375 -0.15625 -0.625 -0.4375q-0.25 -0.296875 -0.40625 -0.6875q-0.140625 -0.40625 -0.140625 -0.90625q0 -0.484375 0.140625 -0.890625q0.15625 -0.40625 0.40625 -0.6875q0.265625 -0.296875 0.625 -0.453125q0.359375 -0.15625 0.78125 -0.15625q0.421875 0 0.78125 0.15625q0.359375 0.15625 0.625 0.453125q0.265625 0.28125 0.40625 0.6875q0.140625 0.40625 0.140625 0.890625zm-0.78125 0q0 -0.703125 -0.3125 -1.109375q-0.3125 -0.421875 -0.859375 -0.421875q-0.546875 0 -0.859375 0.421875q-0.3125 0.40625 -0.3125 1.109375q0 0.703125 0.3125 1.125q0.3125 0.40625 0.859375 0.40625q0.546875 0 0.859375 -0.40625q0.3125 -0.421875 0.3125 -1.125zm1.8293152 -1.96875q0.25 -0.0625 0.671875 -0.125q0.4375 -0.078125 0.984375 -0.078125q0.5 0 0.828125 0.140625q0.328125 0.140625 0.515625 0.390625q0.203125 0.25 0.28125 0.609375q0.078125 0.34375 0.078125 0.765625l0 2.34375l-0.75 0l0 -2.171875q0 -0.390625 -0.046875 -0.65625q-0.046875 -0.28125 -0.171875 -0.4375q-0.125 -0.171875 -0.328125 -0.25q-0.1875 -0.078125 -0.484375 -0.078125q-0.125 0 -0.25 0.015625q-0.125 0 -0.25 0.015625q-0.109375 0.015625 -0.203125 0.03125q-0.09375 0.015625 -0.125 0.015625l0 3.515625l-0.75 0l0 -4.046875z" fill-rule="nonzero"></path><path fill="#000000" fill-opacity="0.0" d="m228.51968 236.41612l53.480316 0" fill-rule="nonzero"></path><path stroke="#000000" stroke-width="1.0" stroke-linejoin="round" stroke-linecap="butt" d="m228.51968 236.4161l47.480316 0" fill-rule="evenodd"></path><path fill="#000000" stroke="#000000" stroke-width="1.0" stroke-linecap="butt" d="m276.0 238.06784l4.538086 -1.6517334l-4.538086 -1.6517334z" fill-rule="evenodd"></path><path fill="#000000" fill-opacity="0.0" d="m102.0 236.41612l48.472443 0" fill-rule="nonzero"></path><path stroke="#000000" stroke-width="1.0" stroke-linejoin="round" stroke-linecap="butt" d="m102.0 236.4161l42.472443 0" fill-rule="evenodd"></path><path fill="#000000" stroke="#000000" stroke-width="1.0" stroke-linecap="butt" d="m144.47244 238.06784l4.538101 -1.6517334l-4.538101 -1.6517334z" fill-rule="evenodd"></path><path fill="#000000" fill-opacity="0.0" d="m220.94751 216.06256l48.472443 0l0 27.370087l-48.472443 0z" fill-rule="nonzero"></path><path fill="#000000" d="m232.47876 228.36757q0.125 0 0.265625 0.015625q0.140625 0.015625 0.234375 0.03125l-0.09375 0.65625q-0.109375 -0.015625 -0.234375 -0.03125q-0.109375 -0.015625 -0.203125 -0.015625q-0.25 0 -0.453125 0.109375q-0.203125 0.09375 -0.359375 0.28125q-0.140625 0.171875 -0.21875 0.4375q-0.078125 0.265625 -0.078125 0.578125l0 2.3125l-0.703125 0l0 -4.296875l0.578125 0l0.078125 0.796875l0.03125 0q0.09375 -0.171875 0.203125 -0.328125q0.125 -0.15625 0.25 -0.265625q0.140625 -0.125 0.3125 -0.203125q0.171875 -0.078125 0.390625 -0.078125zm3.0351562 4.453125q-0.421875 0 -0.78125 -0.140625q-0.359375 -0.15625 -0.625 -0.421875q-0.25 -0.28125 -0.390625 -0.6875q-0.140625 -0.421875 -0.140625 -0.9375q0 -0.53125 0.125 -0.953125q0.140625 -0.421875 0.375 -0.703125q0.234375 -0.296875 0.5625 -0.453125q0.328125 -0.15625 0.71875 -0.15625q0.390625 0 0.6875 0.140625q0.3125 0.140625 0.53125 0.390625q0.21875 0.25 0.328125 0.609375q0.109375 0.359375 0.109375 0.78125l0 0.4375l-2.703125 0q0.03125 0.765625 0.328125 1.125q0.296875 0.34375 0.890625 0.34375q0.1875 0 0.359375 -0.015625q0.171875 -0.015625 0.328125 -0.046875q0.15625 -0.046875 0.296875 -0.09375q0.15625 -0.0625 0.3125 -0.140625l0 0.640625q-0.15625 0.0625 -0.3125 0.125q-0.140625 0.046875 -0.296875 0.078125q-0.15625 0.046875 -0.328125 0.0625q-0.171875 0.015625 -0.375 0.015625zm-0.171875 -3.859375q-0.453125 0 -0.71875 0.3125q-0.25 0.296875 -0.296875 0.875l1.921875 0q0 -0.265625 -0.046875 -0.484375q-0.046875 -0.21875 -0.171875 -0.375q-0.109375 -0.15625 -0.28125 -0.234375q-0.171875 -0.09375 -0.40625 -0.09375zm4.0625 3.28125q0.0625 0 0.140625 0q0.09375 -0.015625 0.171875 -0.03125q0.09375 -0.015625 0.15625 -0.03125q0.078125 -0.015625 0.109375 -0.03125l0 0.546875q-0.046875 0.015625 -0.125 0.046875q-0.078125 0.03125 -0.171875 0.046875q-0.09375 0.015625 -0.203125 0.015625q-0.09375 0.015625 -0.203125 0.015625q-0.234375 0 -0.453125 -0.0625q-0.203125 -0.0625 -0.359375 -0.21875q-0.140625 -0.15625 -0.234375 -0.40625q-0.078125 -0.265625 -0.078125 -0.65625l0 -2.484375l-0.609375 0l0 -0.328125l0.609375 -0.296875l0.3125 -0.90625l0.40625 0l0 0.984375l1.078125 0l0 0.546875l-1.078125 0l0 2.484375q0 0.375 0.125 0.578125q0.125 0.1875 0.40625 0.1875zm4.1796875 0.5l-0.09375 -0.578125l-0.046875 0q-0.09375 0.171875 -0.234375 0.296875q-0.125 0.125 -0.296875 0.203125q-0.15625 0.078125 -0.34375 0.109375q-0.171875 0.046875 -0.359375 0.046875q-0.359375 0 -0.625 -0.09375q-0.265625 -0.09375 -0.453125 -0.28125q-0.171875 -0.1875 -0.265625 -0.484375q-0.09375 -0.296875 -0.09375 -0.703125l0 -2.8125l0.71875 0l0 2.765625q0 0.515625 0.203125 0.765625q0.203125 0.25 0.640625 0.25q0.3125 0 0.53125 -0.09375q0.21875 -0.109375 0.34375 -0.296875q0.125 -0.203125 0.1875 -0.484375q0.0625 -0.296875 0.0625 -0.671875l0 -2.234375l0.703125 0l0 4.296875l-0.578125 0zm3.7890625 -4.375q0.125 0 0.265625 0.015625q0.140625 0.015625 0.234375 0.03125l-0.09375 0.65625q-0.109375 -0.015625 -0.234375 -0.03125q-0.109375 -0.015625 -0.203125 -0.015625q-0.25 0 -0.453125 0.109375q-0.203125 0.09375 -0.359375 0.28125q-0.140625 0.171875 -0.21875 0.4375q-0.078125 0.265625 -0.078125 0.578125l0 2.3125l-0.703125 0l0 -4.296875l0.578125 0l0.078125 0.796875l0.03125 0q0.09375 -0.171875 0.203125 -0.328125q0.125 -0.15625 0.25 -0.265625q0.140625 -0.125 0.3125 -0.203125q0.171875 -0.078125 0.390625 -0.078125zm4.0195312 4.375l0 -2.765625q0 -0.5 -0.203125 -0.75q-0.203125 -0.265625 -0.640625 -0.265625q-0.3125 0 -0.53125 0.109375q-0.21875 0.09375 -0.359375 0.296875q-0.125 0.203125 -0.1875 0.5q-0.046875 0.28125 -0.046875 0.65625l0 2.21875l-0.703125 0l0 -4.296875l0.578125 0l0.09375 0.578125l0.046875 0q0.09375 -0.15625 0.21875 -0.28125q0.140625 -0.125 0.296875 -0.203125q0.171875 -0.09375 0.34375 -0.125q0.1875 -0.046875 0.375 -0.046875q0.703125 0 1.0625 0.375q0.375 0.375 0.375 1.203125l0 2.796875l-0.71875 0zm4.6015625 -1.171875q0 0.3125 -0.125 0.546875q-0.109375 0.234375 -0.328125 0.390625q-0.203125 0.15625 -0.5 0.234375q-0.296875 0.078125 -0.671875 0.078125q-0.4375 0 -0.75 -0.078125q-0.296875 -0.0625 -0.515625 -0.1875l0 -0.65625q0.109375 0.0625 0.25 0.125q0.15625 0.0625 0.3125 0.109375q0.171875 0.046875 0.34375 0.078125q0.1875 0.03125 0.359375 0.03125q0.25 0 0.421875 -0.046875q0.1875 -0.046875 0.296875 -0.125q0.109375 -0.078125 0.15625 -0.1875q0.046875 -0.125 0.046875 -0.265625q0 -0.125 -0.046875 -0.21875q-0.03125 -0.09375 -0.140625 -0.1875q-0.09375 -0.09375 -0.28125 -0.1875q-0.171875 -0.109375 -0.453125 -0.234375q-0.28125 -0.109375 -0.515625 -0.21875q-0.21875 -0.125 -0.375 -0.265625q-0.15625 -0.15625 -0.234375 -0.34375q-0.078125 -0.1875 -0.078125 -0.453125q0 -0.265625 0.09375 -0.484375q0.109375 -0.21875 0.296875 -0.359375q0.203125 -0.140625 0.46875 -0.21875q0.28125 -0.078125 0.625 -0.078125q0.375 0 0.6875 0.09375q0.3125 0.078125 0.59375 0.203125l-0.234375 0.578125q-0.265625 -0.109375 -0.53125 -0.1875q-0.265625 -0.09375 -0.546875 -0.09375q-0.390625 0 -0.59375 0.140625q-0.1875 0.125 -0.1875 0.359375q0 0.140625 0.046875 0.25q0.046875 0.09375 0.15625 0.1875q0.109375 0.09375 0.296875 0.1875q0.1875 0.078125 0.453125 0.203125q0.28125 0.109375 0.5 0.234375q0.21875 0.109375 0.375 0.265625q0.15625 0.140625 0.234375 0.328125q0.09375 0.1875 0.09375 0.453125z" fill-rule="nonzero"></path></g></svg>

